<svg xmlns="http://www.w3.org/2000/svg" xmlns:xlink="http://www.w3.org/1999/xlink" width="141.688" height="141.688" viewBox="0 0 141.688 141.688">
  <defs>
    <clipPath id="clip-path">
      <rect id="Rect치ngulo_403705" data-name="Rect치ngulo 403705" width="73.452" height="90.713" transform="translate(0 0)" fill="none"/>
    </clipPath>
  </defs>
  <g id="Grupo_1103486" data-name="Grupo 1103486" transform="translate(-377.711 -479)">
    <rect id="Rect치ngulo_402033" data-name="Rect치ngulo 402033" width="141.688" height="141.688" rx="5" transform="translate(377.711 479)" fill="#ff8c80"/>
    <g id="Grupo_1102822" data-name="Grupo 1102822" transform="translate(412.711 505)">
      <g id="Grupo_1102821" data-name="Grupo 1102821" clip-path="url(#clip-path)">
        <path id="Trazado_880301" data-name="Trazado 880301" d="M10.861.078c.106-.017.317-.049.423-.064,3.156-.03,6.312,0,9.466.047.732.049,1.562-.173,2.2.3.733.634,1.313,1.421,2.039,2.064A16.576,16.576,0,0,0,33.52,6.714a18.166,18.166,0,0,0,4.081.171A16.373,16.373,0,0,0,49.244.819,1.766,1.766,0,0,1,50.679.067c3.839,0,7.676-.108,11.514-.05,1.026.027,1.669,1.019,1.91,1.911.066,3.2-.026,6.415.052,9.62a22.054,22.054,0,0,0,8.581,17.17,2.168,2.168,0,0,1,.677,2.206q-.009,28.53,0,57.058a2.957,2.957,0,0,1-.42,2.1,2.463,2.463,0,0,1-2.139.614c-9.348,0-18.7-.017-28.047.016-13.653.006-27.307-.043-40.962-.01A1.84,1.84,0,0,1,.18,89.652a3.887,3.887,0,0,1-.145-1.527q0-28.522,0-57.045A3.914,3.914,0,0,1,.15,29.388a3.276,3.276,0,0,1,1.093-1.1A21.809,21.809,0,0,0,8.419,17.342a24.511,24.511,0,0,0,.89-6.891c.018-2.63.007-5.261.005-7.891A2.457,2.457,0,0,1,10.861.078m4.168,3.35a3.9,3.9,0,0,0,3.5,3.435,3.839,3.839,0,0,0,3.82-2.228c-.378-.392-.745-.792-1.122-1.186-2.067.022-4.135-.043-6.2-.021M50.552,4.467a3.925,3.925,0,0,0,1.982,2.075,3.838,3.838,0,0,0,3.986-.515,3.958,3.958,0,0,0,1.433-2.592c-2.156-.029-4.311.025-6.467.023q-.476.5-.934,1.009m5.787,5.466a7.742,7.742,0,0,1-4.435.03,7.715,7.715,0,0,1-.683,2.554,7.241,7.241,0,0,1-5.9,4.1A7.159,7.159,0,0,1,40.2,15.092a7.385,7.385,0,0,1-2.7-4.786,10.723,10.723,0,0,1-2.011.013,7.608,7.608,0,0,1-1.309,3.3A7.231,7.231,0,0,1,21.086,9.967a7.59,7.59,0,0,1-5.529-.487,8.208,8.208,0,0,1-2.868-2.566,43.019,43.019,0,0,1-.011,4.471,25.445,25.445,0,0,1-9.03,19.323.394.394,0,0,0-.2.36q0,28.1,0,56.208c13.173.011,26.348-.024,39.52-.022,9.009.042,18.017.011,27.027.022q-.008-28.2-.008-56.4a25.429,25.429,0,0,1-9.163-17.741c-.176-2.365-.085-4.739-.116-7.108a7.266,7.266,0,0,1-4.37,3.9M40.9,9.844a3.815,3.815,0,0,0,7.567.133A4.078,4.078,0,0,0,47.641,6.9,20.823,20.823,0,0,1,40.9,9.844M24.592,8.409A3.831,3.831,0,1,0,32.086,9.9a19.934,19.934,0,0,1-6.8-2.9,4.713,4.713,0,0,0-.693,1.412" fill="#0c1d30"/>
        <path id="Trazado_880302" data-name="Trazado 880302" d="M35.944,13.7a1.782,1.782,0,0,1,1.722.3,1.868,1.868,0,0,1-.206,2.923,1.7,1.7,0,0,1-2.274-.427A1.87,1.87,0,0,1,35.944,13.7Z" fill="#0c1d30"/>
        <path id="Trazado_880303" data-name="Trazado 880303" d="M45.836,30.493a3.916,3.916,0,0,1,1.227-.1q6.616.009,13.232,0a2.105,2.105,0,0,1,1.939,2.1q0,5.354,0,10.71a9.072,9.072,0,0,1-14.377,5.974,8.915,8.915,0,0,1-3.2-4.363,4.291,4.291,0,0,1-.358-1.434c.006-3.683,0-7.365.006-11.046a2.185,2.185,0,0,1,1.535-1.848m1.853,3.315c.008.733-.025,1.465.022,2.2,3.708-.005,7.417,0,11.124,0,0-.733,0-1.464,0-2.195H47.689m.011,5.578c-.043.75.03,1.5-.017,2.25a6.347,6.347,0,0,0,.23,2.2,5.7,5.7,0,0,0,10.908-.764c.037-1.227-.006-2.456.018-3.685C55.126,39.384,51.412,39.4,47.7,39.386Z" fill="#0c1d30"/>
        <path id="Trazado_880304" data-name="Trazado 880304" d="M15.029,3.428c2.067-.022,4.135.043,6.2.02.377.394.744.8,1.122,1.187a3.839,3.839,0,0,1-3.82,2.228,3.894,3.894,0,0,1-3.5-3.435" fill="#87cbf3"/>
        <path id="Trazado_880305" data-name="Trazado 880305" d="M50.552,4.467c.306-.34.618-.678.934-1.008,2.156,0,4.311-.052,6.467-.024a3.961,3.961,0,0,1-1.432,2.592,3.836,3.836,0,0,1-3.987.515A3.925,3.925,0,0,1,50.552,4.467Z" fill="#87cbf3"/>
        <path id="Trazado_880306" data-name="Trazado 880306" d="M56.34,9.933a7.262,7.262,0,0,0,4.369-3.9c.032,2.368-.06,4.743.117,7.108a25.432,25.432,0,0,0,9.162,17.741q.024,28.2.008,56.4c-9.01-.011-18.018.021-27.026-.022-13.173,0-26.347.034-39.52.022q0-28.1,0-56.208a.393.393,0,0,1,.2-.359,25.449,25.449,0,0,0,9.031-19.323,43.6,43.6,0,0,0,.011-4.472,8.216,8.216,0,0,0,2.867,2.567,7.6,7.6,0,0,0,5.529.487A7.227,7.227,0,0,0,34.177,13.62a7.617,7.617,0,0,0,1.31-3.3,10.712,10.712,0,0,0,2.01-.012,7.387,7.387,0,0,0,2.7,4.785,7.156,7.156,0,0,0,5.122,1.527,7.245,7.245,0,0,0,5.9-4.1A7.713,7.713,0,0,0,51.9,9.963a7.745,7.745,0,0,0,4.436-.03M35.944,13.7a1.87,1.87,0,0,0-.758,2.791,1.7,1.7,0,0,0,2.274.427A1.868,1.868,0,0,0,37.666,14a1.786,1.786,0,0,0-1.722-.3m9.892,16.788A2.186,2.186,0,0,0,44.3,32.341c-.011,3.681,0,7.364-.006,11.046a4.291,4.291,0,0,0,.358,1.434,8.915,8.915,0,0,0,3.2,4.363A9.071,9.071,0,0,0,62.233,43.21q0-5.355,0-10.71a2.105,2.105,0,0,0-1.939-2.1q-6.616,0-13.232,0A3.916,3.916,0,0,0,45.836,30.493Z" fill="#f6cfe5"/>
        <path id="Trazado_880307" data-name="Trazado 880307" d="M40.9,9.845A20.823,20.823,0,0,0,47.642,6.9a4.081,4.081,0,0,1,.826,3.075A3.815,3.815,0,0,1,40.9,9.845Z" fill="#42a780"/>
        <path id="Trazado_880308" data-name="Trazado 880308" d="M24.592,8.409A4.713,4.713,0,0,1,25.285,7a19.934,19.934,0,0,0,6.8,2.9,3.829,3.829,0,1,1-7.494-1.489" fill="#42a780"/>
        <path id="Trazado_880309" data-name="Trazado 880309" d="M47.7,39.386c3.712.009,7.426,0,11.139,0-.024,1.229.019,2.458-.018,3.685a5.7,5.7,0,0,1-10.908.764,6.347,6.347,0,0,1-.23-2.2c.047-.75-.026-1.5.017-2.25" fill="#42a780"/>
        <path id="Trazado_880310" data-name="Trazado 880310" d="M47.689,33.808H58.834c0,.731,0,1.462,0,2.195-3.707.006-7.416,0-11.124,0C47.664,35.273,47.7,34.541,47.689,33.808Z" fill="#df6897"/>
      </g>
    </g>
  </g>
</svg>
