<svg xmlns="http://www.w3.org/2000/svg" xmlns:xlink="http://www.w3.org/1999/xlink" width="141.688" height="141.688" viewBox="0 0 141.688 141.688">
  <defs>
    <clipPath id="clip-path">
      <rect id="Rect치ngulo_403704" data-name="Rect치ngulo 403704" width="98.989" height="91.496" fill="none"/>
    </clipPath>
  </defs>
  <g id="Grupo_1103489" data-name="Grupo 1103489" transform="translate(7967 11221)">
    <rect id="Rect치ngulo_402033" data-name="Rect치ngulo 402033" width="141.688" height="141.688" rx="5" transform="translate(-7967 -11221)" fill="#ff8c80"/>
    <g id="Grupo_1102820" data-name="Grupo 1102820" transform="translate(-7946 -11196)">
      <g id="Grupo_1102819" data-name="Grupo 1102819" clip-path="url(#clip-path)">
        <path id="Trazado_880297" data-name="Trazado 880297" d="M2.446,3.219A19.412,19.412,0,0,1,13.574.006,19.622,19.622,0,0,1,25.539,4.42q3.1,0,6.2,0a1.856,1.856,0,0,1,1.806,1.465,17.484,17.484,0,0,0,5.973,9.18,16.975,16.975,0,0,0,5.189,2.815,17.093,17.093,0,0,0,8.074.5,16.669,16.669,0,0,0,9.869-6.065,17.774,17.774,0,0,0,3.264-6.6,1.66,1.66,0,0,1,1.533-1.28c2-.04,4.019.047,6.02-.04a20.648,20.648,0,0,1,5.757-3.234A19.444,19.444,0,0,1,96.644,3.3,7.851,7.851,0,0,1,98.9,7.265a6.477,6.477,0,0,1-.652,3.9,6.092,6.092,0,0,1-6.315,3.147,2.812,2.812,0,0,0-3.2,2.472,3.307,3.307,0,0,0,.348,1.795c.386,1.487.8,3.108.189,4.6a5.79,5.79,0,0,1-5.487,3.915A2.483,2.483,0,0,0,81.4,29.286a19.032,19.032,0,0,0,2.839,2.636,1.619,1.619,0,0,1,.7,1.036q-.027,28-.007,56.005a3.283,3.283,0,0,1-.212,1.683,1.743,1.743,0,0,1-1.375.834c-7.368-.017-14.736,0-22.106-.007-15.03.071-30.062-.046-45.092.012a1.738,1.738,0,0,1-1.477-.9,2.711,2.711,0,0,1-.161-1.321c0-3.833.018-7.667-.009-11.5.027-14.474,0-28.948.014-43.423-.061-.732-.234-1.6.383-2.167a22.685,22.685,0,0,0,2.777-2.518A3.907,3.907,0,0,0,17.035,28a2.391,2.391,0,0,0-1.945-.909,5.749,5.749,0,0,1-3.721-1.436A5.882,5.882,0,0,1,9.434,22.07a10.563,10.563,0,0,1,.763-4.317,2.906,2.906,0,0,0-1.135-2.981,2.749,2.749,0,0,0-2.017-.457,6.1,6.1,0,0,1-6.2-2.949A6.423,6.423,0,0,1,.166,6.819,6.662,6.662,0,0,1,1.455,4.364a6.238,6.238,0,0,1,.991-1.145M5.3,5.3A3.976,3.976,0,0,0,3.27,8.01a3.025,3.025,0,0,0,1.688,2.873,5.005,5.005,0,0,0,2.56.11,6.117,6.117,0,0,1,6.012,6.395,14.962,14.962,0,0,1-.369,2.108c-.083.478-.372.9-.435,1.38a2.75,2.75,0,0,0,.428,1.938,2.42,2.42,0,0,0,1.933.982,5.835,5.835,0,0,1,2.733.692,6.32,6.32,0,0,1,2.253,2.1,22.115,22.115,0,0,0,3.234-9.713,9.266,9.266,0,0,0-1.976,1.147,1.628,1.628,0,0,1-1.976-2.579,13.267,13.267,0,0,1,4.036-2.132c0-.248,0-.5,0-.746a9.592,9.592,0,0,0-5.434-2.311,1.628,1.628,0,0,1,.171-3.245,12.533,12.533,0,0,1,5.263,1.568,8.62,8.62,0,0,0-.068-1.727A15.9,15.9,0,0,0,15.7,3.471,16.037,16.037,0,0,0,5.3,5.3M76,6.61c.024.589.016,1.177.017,1.767A12.209,12.209,0,0,1,80.76,7.015a1.631,1.631,0,0,1,1.285,2.736,2.254,2.254,0,0,1-1.607.586,9.5,9.5,0,0,0-4.417,1.888q0,.617,0,1.238a13.76,13.76,0,0,1,3.12,1.61,2.037,2.037,0,0,1,1.049,1.394,1.654,1.654,0,0,1-2.138,1.757c-.68-.3-1.209-.859-1.907-1.13a21.972,21.972,0,0,0,2.981,9.127,12.59,12.59,0,0,1,1.49-1.419,6.561,6.561,0,0,1,2.123-.885c.581-.141,1.186-.074,1.77-.191a2.455,2.455,0,0,0,1.786-2.266c.1-.765-.389-1.415-.5-2.144a10.113,10.113,0,0,1-.329-2.084,6.085,6.085,0,0,1,6.043-6.237,5.063,5.063,0,0,0,2.459-.081,2.942,2.942,0,0,0,1.619-3.493c-.644-1.663-2.377-2.455-3.928-3.066A16.107,16.107,0,0,0,76,6.61M26.647,7.71c.035,1.307.007,2.614.016,3.922a40.372,40.372,0,0,1-.487,8.2,24.294,24.294,0,0,1-8.288,14.116c-.205.16-.116.459-.145.683.021,17.854-.012,35.709.017,53.565,13.181.042,26.363-.038,39.55-.027,2.517.063,5.039.046,7.56.04,2.368-.084,4.738.081,7.106-.018,3.23,0,6.458.019,9.689,0,.011-.2.018-.389.026-.582q-.013-25.721-.009-51.446c-.089-.694.1-1.407-.044-2.09a29.838,29.838,0,0,1-2.675-2.605A24.647,24.647,0,0,1,72.79,15.266c-.041-2.529.008-5.058-.024-7.587-1.33-.033-2.662,0-3.992-.018a21.807,21.807,0,0,1-3.525,6.63A19.845,19.845,0,0,1,54.48,21.327c.191.48.463.923.622,1.417a6.729,6.729,0,0,1-2.359,7.623,5.356,5.356,0,0,1-4.847.678,6.006,6.006,0,0,1-3.486-3.179,6.987,6.987,0,0,1,.175-6.118c.057-.15.208-.3.127-.466a19.975,19.975,0,0,1-7.679-4.04,20.783,20.783,0,0,1-6.368-9.564c-1.339,0-2.683-.061-4.019.033M48.586,22.121a3.418,3.418,0,0,0-.292,5.485,2.194,2.194,0,0,0,2.221.284,3.335,3.335,0,0,0,1.57-3.836,3.558,3.558,0,0,0-1.687-2.17c-.605.056-1.28-.139-1.813.236" transform="translate(0 0)" fill="#0c1d30"/>
        <path id="Trazado_880298" data-name="Trazado 880298" d="M7.9,7.894A16.193,16.193,0,0,1,25.919,9.445a8.62,8.62,0,0,1,.068,1.727A12.533,12.533,0,0,0,20.724,9.6a1.628,1.628,0,0,0-.171,3.245,9.592,9.592,0,0,1,5.434,2.311c0,.248,0,.5,0,.746a13.266,13.266,0,0,0-4.036,2.132,1.628,1.628,0,0,0,1.976,2.579,9.266,9.266,0,0,1,1.976-1.147,22.113,22.113,0,0,1-3.234,9.713,6.32,6.32,0,0,0-2.253-2.1,5.835,5.835,0,0,0-2.733-.692,2.42,2.42,0,0,1-1.933-.982,2.75,2.75,0,0,1-.428-1.938c.063-.484.352-.9.435-1.38a14.948,14.948,0,0,0,.369-2.108,6.117,6.117,0,0,0-6.012-6.395,5.005,5.005,0,0,1-2.56-.11A3.025,3.025,0,0,1,5.872,10.6,3.976,3.976,0,0,1,7.9,7.894" transform="translate(-2.602 -2.59)" fill="#42a780"/>
        <path id="Trazado_880299" data-name="Trazado 880299" d="M136.489,9.206A16.107,16.107,0,0,1,152.141,6.95c1.551.611,3.283,1.4,3.928,3.066a2.941,2.941,0,0,1-1.619,3.493,5.061,5.061,0,0,1-2.458.081,6.086,6.086,0,0,0-6.044,6.237,10.19,10.19,0,0,0,.329,2.084c.114.729.6,1.38.5,2.144a2.454,2.454,0,0,1-1.785,2.266c-.584.117-1.189.05-1.771.191a6.563,6.563,0,0,0-2.123.885,12.6,12.6,0,0,0-1.491,1.419,21.971,21.971,0,0,1-2.981-9.127c.7.271,1.226.835,1.907,1.13a1.654,1.654,0,0,0,2.138-1.757,2.039,2.039,0,0,0-1.049-1.394,13.748,13.748,0,0,0-3.12-1.61q0-.62,0-1.238a9.5,9.5,0,0,1,4.417-1.888,2.256,2.256,0,0,0,1.607-.586,1.631,1.631,0,0,0-1.285-2.736,12.194,12.194,0,0,0-4.74,1.362c0-.59.007-1.179-.017-1.767" transform="translate(-60.486 -2.596)" fill="#42a780"/>
        <path id="Trazado_880300" data-name="Trazado 880300" d="M40.767,13.8c1.336-.094,2.68-.03,4.019-.033a20.786,20.786,0,0,0,6.368,9.565,19.972,19.972,0,0,0,7.679,4.04c.08.17-.07.316-.127.466a6.99,6.99,0,0,0-.176,6.118,6.009,6.009,0,0,0,3.486,3.179,5.359,5.359,0,0,0,4.847-.678,6.729,6.729,0,0,0,2.359-7.624c-.159-.493-.432-.937-.622-1.416A19.846,19.846,0,0,0,79.37,20.387,21.8,21.8,0,0,0,82.9,13.756c1.33.018,2.662-.015,3.991.018.032,2.528-.016,5.058.025,7.587a24.644,24.644,0,0,0,6.17,16.192,29.7,29.7,0,0,0,2.676,2.606c.14.682-.046,1.395.044,2.09q.032,25.723.009,51.446c-.008.194-.015.388-.026.582-3.231.025-6.458,0-9.689.005-2.368.1-4.738-.065-7.106.018-2.521.006-5.042.025-7.56-.04-13.187-.011-26.368.07-39.549.027-.029-17.855,0-35.711-.017-53.565.028-.224-.061-.522.145-.682A24.3,24.3,0,0,0,40.3,25.924a40.371,40.371,0,0,0,.487-8.2C40.775,16.419,40.8,15.112,40.767,13.8Z" transform="translate(-14.121 -6.095)" fill="#ffecb0"/>
      </g>
    </g>
  </g>
</svg>
