<svg xmlns="http://www.w3.org/2000/svg" width="361.386" height="370.467" viewBox="0 0 361.386 370.467">
  <g id="Grupo_1103487" data-name="Grupo 1103487" transform="translate(-356.711 -14945.864)">
    <path id="Trazado_881222" data-name="Trazado 881222" d="M42.775,107.949l-24.661-27.3L52.463,39.252,77.124.5l40.954,23.779-25.1,45.8,65.174,23.779S139.215,192.94,188.1,188.536c0,0,54.605,7.046,27.3-88.073l68.7-21.138s16.293,13.652,51.522,10.569l5.285,276.99L18.114,369.967.5,108.83l85.431.44,6.605-36.55" transform="translate(356.711 14945.864)" fill="none" stroke="#0c1d2f" stroke-linecap="round" stroke-linejoin="round" stroke-width="1"/>
    <path id="Trazado_881496" data-name="Trazado 881496" d="M.881,0,0,229.639" transform="translate(399.926 15057.336)" fill="none" stroke="#191919" stroke-linecap="round" stroke-width="0.994"/>
    <path id="Trazado_881223" data-name="Trazado 881223" d="M71.4,344.866c0-1.761,28.183-270.825,28.183-270.825" transform="translate(356.711 14945.864)" fill="none" stroke="#9eb3c8" stroke-miterlimit="10" stroke-width="1" stroke-dasharray="3 3"/>
    <path id="Trazado_881224" data-name="Trazado 881224" d="M277.05,337.82s-1.761-108.77-51.523-187.6" transform="translate(356.711 14945.864)" fill="none" stroke="#9eb3c8" stroke-miterlimit="10" stroke-width="1"/>
    <path id="Trazado_881225" data-name="Trazado 881225" d="M44.977,298.187s104.807-.44,135.192,5.284" transform="translate(356.711 14945.864)" fill="none" stroke="#9eb3c8" stroke-miterlimit="10" stroke-width="1" stroke-dasharray="3 3"/>
    <path id="Trazado_881226" data-name="Trazado 881226" d="M196.463,304.353c1.321,0,142.679,14.092,142.679,14.092" transform="translate(356.711 14945.864)" fill="none" stroke="#9eb3c8" stroke-miterlimit="10" stroke-width="1" stroke-dasharray="3 3"/>
    <path id="Trazado_881227" data-name="Trazado 881227" d="M44.1,188.776l144,1.761L335.618,198.9" transform="translate(356.711 14945.864)" fill="none" stroke="#9eb3c8" stroke-miterlimit="10" stroke-width="1" stroke-dasharray="3 3"/>
    <path id="Trazado_881228" data-name="Trazado 881228" d="M44.537,148.463c1.321-.44,110.092,2.2,110.092,2.2" transform="translate(356.711 14945.864)" fill="none" stroke="#9eb3c8" stroke-miterlimit="10" stroke-width="1" stroke-dasharray="3 3"/>
    <path id="Trazado_881229" data-name="Trazado 881229" d="M222.885,153.747c1.761,0,114.5,3.083,114.5,3.083" transform="translate(356.711 14945.864)" fill="none" stroke="#9eb3c8" stroke-miterlimit="10" stroke-width="1" stroke-dasharray="3 3"/>
    <path id="Trazado_881230" data-name="Trazado 881230" d="M115,253.27s62.532,11.89,64.293,52.4-31.266,44.917-61.651,26.862" transform="translate(356.711 14945.864)" fill="none" stroke="#9eb3c8" stroke-miterlimit="10" stroke-width="1" stroke-dasharray="3 3"/>
    <path id="Trazado_881497" data-name="Trazado 881497" d="M0,0H14.972V79.706H0Z" transform="translate(457.615 15198.694)" fill="none" stroke="#0c1d2f" stroke-linecap="round" stroke-width="1"/>
    <path id="Trazado_881498" data-name="Trazado 881498" d="M3.083,177.027,0,0" transform="translate(542.604 15135.281)" fill="none" stroke="#9eb3c8" stroke-width="1" stroke-dasharray="3 3"/>
    <path id="Trazado_881231" data-name="Trazado 881231" d="M190.178,342.664l5.845-38.312L187.215,193.82" transform="translate(356.711 14945.864)" fill="none" stroke="#9eb3c8" stroke-miterlimit="10" stroke-width="1"/>
    <path id="Trazado_881232" data-name="Trazado 881232" d="M187.575,342.664l-7.846-38.312,5.806-110.532" transform="translate(356.711 14945.864)" fill="none" stroke="#0c1d2f" stroke-linecap="round" stroke-linejoin="round" stroke-width="1"/>
    <path id="Trazado_881499" data-name="Trazado 881499" d="M0,138.834V0" transform="translate(589.725 15145.731)" fill="none" stroke="#9eb3c8" stroke-width="1"/>
    <path id="Trazado_881233" data-name="Trazado 881233" d="M237.813,206.7a.5.5,0,0,1-.69-.154l-4.11-6.452-4.109,6.452a.5.5,0,1,1-.844-.537l4.531-7.115a.5.5,0,0,1,.844,0l4.531,7.115a.5.5,0,0,1-.153.691" transform="translate(356.711 14945.864)" fill="#9eb3c8"/>
    <path id="Trazado_881500" data-name="Trazado 881500" d="M0,0H361.386V370.467H0Z" transform="translate(356.711 14945.864)" fill="none"/>
    <path id="Trazado_881501" data-name="Trazado 881501" d="M4.6-1.752A1.861,1.861,0,0,1,3.972-.415a2.2,2.2,0,0,1-1.49.488A1.979,1.979,0,0,1,.89-.609a2.792,2.792,0,0,1-.58-1.869V-2.8A3.153,3.153,0,0,1,.578-4.136a2,2,0,0,1,.764-.887A2.14,2.14,0,0,1,2.5-5.332a2.144,2.144,0,0,1,1.467.488,2,2,0,0,1,.643,1.369H3.522a1.1,1.1,0,0,0-.284-.739A1.05,1.05,0,0,0,2.5-4.443a.921.921,0,0,0-.811.388,2.176,2.176,0,0,0-.276,1.2v.4a2.329,2.329,0,0,0,.258,1.246.9.9,0,0,0,.815.394,1.07,1.07,0,0,0,.75-.229,1.036,1.036,0,0,0,.284-.71ZM5.3-.513a.526.526,0,0,1,.168-.4.6.6,0,0,1,.421-.155.6.6,0,0,1,.424.155.526.526,0,0,1,.168.4.518.518,0,0,1-.166.4A.6.6,0,0,1,5.884.04a.6.6,0,0,1-.423-.154A.518.518,0,0,1,5.3-.513Zm6.123-3.869H9.807V0H8.724V-4.382H7.134v-.878h4.284ZM10.165-.513a.526.526,0,0,1,.168-.4.6.6,0,0,1,.421-.155.6.6,0,0,1,.424.155.526.526,0,0,1,.168.4.518.518,0,0,1-.166.4.6.6,0,0,1-.426.154.6.6,0,0,1-.423-.154A.518.518,0,0,1,10.165-.513Zm7.17-1.766H15.255V-.871H17.7V0H14.171V-5.259h3.518v.878H15.255v1.253h2.081Zm1.889-1.629.033.452a1.365,1.365,0,0,1,1.123-.524,1.134,1.134,0,0,1,.925.365,1.7,1.7,0,0,1,.311,1.091V0H20.572V-2.5a.677.677,0,0,0-.144-.482.647.647,0,0,0-.48-.15.718.718,0,0,0-.661.376V0H18.242V-3.908Zm4.432-.961v.961h.668v.766h-.668v1.951a.466.466,0,0,0,.083.311.417.417,0,0,0,.318.094,1.665,1.665,0,0,0,.307-.025v.791a2.149,2.149,0,0,1-.632.094,1,1,0,0,1-1.12-1.109V-3.143h-.571v-.766h.571v-.961ZM26.705.072a1.919,1.919,0,0,1-1.4-.527,1.875,1.875,0,0,1-.54-1.405v-.1a2.361,2.361,0,0,1,.228-1.053,1.67,1.67,0,0,1,.645-.715,1.81,1.81,0,0,1,.952-.251,1.622,1.622,0,0,1,1.262.506,2.055,2.055,0,0,1,.461,1.434v.426H25.824A.97.97,0,0,0,26.129-1a.923.923,0,0,0,.645.231,1.127,1.127,0,0,0,.943-.437l.513.574a1.567,1.567,0,0,1-.636.518A2.086,2.086,0,0,1,26.705.072Zm-.119-3.208a.654.654,0,0,0-.5.21,1.082,1.082,0,0,0-.247.6h1.452v-.083a.772.772,0,0,0-.188-.536A.675.675,0,0,0,26.586-3.135ZM31.1-2.93a2.836,2.836,0,0,0-.376-.029.765.765,0,0,0-.777.4V0H28.905V-3.908h.986l.029.466a.967.967,0,0,1,.871-.538,1.094,1.094,0,0,1,.325.047Zm.143.939a2.318,2.318,0,0,1,.224-1.037,1.64,1.64,0,0,1,.645-.7,1.881,1.881,0,0,1,.977-.249,1.78,1.78,0,0,1,1.291.484,1.943,1.943,0,0,1,.558,1.315l.007.267a2.043,2.043,0,0,1-.5,1.443A1.745,1.745,0,0,1,33.1.072,1.754,1.754,0,0,1,31.748-.47a2.079,2.079,0,0,1-.5-1.474Zm1.044.076a1.457,1.457,0,0,0,.21.851.691.691,0,0,0,.6.294.693.693,0,0,0,.592-.291,1.594,1.594,0,0,0,.213-.93,1.442,1.442,0,0,0-.213-.845.693.693,0,0,0-.6-.3.682.682,0,0,0-.592.3A1.621,1.621,0,0,0,32.288-1.914Z" transform="translate(434.979 14956.436) rotate(30.801)" fill="#161615"/>
    <path id="Trazado_881502" data-name="Trazado 881502" d="M3.2-1.38a.556.556,0,0,0-.217-.471A2.843,2.843,0,0,0,2.2-2.2a5.531,5.531,0,0,1-.892-.359,1.458,1.458,0,0,1-.9-1.3,1.27,1.27,0,0,1,.24-.76,1.567,1.567,0,0,1,.69-.522,2.6,2.6,0,0,1,1.01-.188,2.364,2.364,0,0,1,1,.2,1.6,1.6,0,0,1,.685.576,1.508,1.508,0,0,1,.244.845H3.2a.709.709,0,0,0-.228-.562.935.935,0,0,0-.639-.2,1,1,0,0,0-.618.168.53.53,0,0,0-.22.443.507.507,0,0,0,.258.43,2.918,2.918,0,0,0,.76.325,3.285,3.285,0,0,1,1.347.69,1.374,1.374,0,0,1,.423,1.026A1.266,1.266,0,0,1,3.768-.316,2.261,2.261,0,0,1,2.377.072,2.686,2.686,0,0,1,1.272-.15a1.749,1.749,0,0,1-.76-.609,1.559,1.559,0,0,1-.262-.9H1.337q0,.871,1.04.871a1.012,1.012,0,0,0,.6-.157A.511.511,0,0,0,3.2-1.38Zm3.768-.545H6.1V0H5.017V-5.259H6.972a2.209,2.209,0,0,1,1.438.415A1.434,1.434,0,0,1,8.915-3.67a1.618,1.618,0,0,1-.233.9,1.589,1.589,0,0,1-.706.573L9.114-.051V0H7.951ZM6.1-2.8h.874a.9.9,0,0,0,.632-.208.742.742,0,0,0,.224-.573.8.8,0,0,0-.211-.585.878.878,0,0,0-.648-.213H6.1Z" transform="translate(441.738 14970.8) rotate(30.801)" fill="#161615"/>
    <path id="Trazado_881503" data-name="Trazado 881503" d="M1.553-.871h2.3V0H.47V-5.259H1.553ZM5.534,0H4.49V-3.908H5.534ZM5.227-5.494H6.365l-1,1.12H4.515ZM7.394-3.908l.033.452A1.365,1.365,0,0,1,8.55-3.981a1.134,1.134,0,0,1,.925.365,1.7,1.7,0,0,1,.311,1.091V0H8.742V-2.5A.677.677,0,0,0,8.6-2.982a.647.647,0,0,0-.48-.15.718.718,0,0,0-.661.376V0H6.412V-3.908ZM12.376.072a1.919,1.919,0,0,1-1.4-.527,1.875,1.875,0,0,1-.54-1.405v-.1a2.361,2.361,0,0,1,.228-1.053,1.67,1.67,0,0,1,.645-.715,1.81,1.81,0,0,1,.952-.251,1.622,1.622,0,0,1,1.262.506,2.055,2.055,0,0,1,.461,1.434v.426H11.494A.97.97,0,0,0,11.8-1a.923.923,0,0,0,.645.231,1.127,1.127,0,0,0,.943-.437l.513.574a1.567,1.567,0,0,1-.636.518A2.086,2.086,0,0,1,12.376.072Zm-.119-3.208a.654.654,0,0,0-.5.21,1.082,1.082,0,0,0-.247.6h1.452v-.083a.772.772,0,0,0-.188-.536A.675.675,0,0,0,12.256-3.135ZM16.84,0a1.159,1.159,0,0,1-.1-.35,1.263,1.263,0,0,1-.986.423A1.388,1.388,0,0,1,14.8-.26,1.069,1.069,0,0,1,14.42-1.1a1.1,1.1,0,0,1,.461-.954,2.273,2.273,0,0,1,1.331-.336h.48v-.224a.644.644,0,0,0-.139-.433.547.547,0,0,0-.439-.163.622.622,0,0,0-.414.126.429.429,0,0,0-.15.347H14.507a1.049,1.049,0,0,1,.21-.629,1.385,1.385,0,0,1,.592-.453,2.159,2.159,0,0,1,.86-.164,1.706,1.706,0,0,1,1.147.363A1.27,1.27,0,0,1,17.74-2.6V-.9a1.869,1.869,0,0,0,.155.842V0Zm-.863-.726a.9.9,0,0,0,.426-.1.676.676,0,0,0,.289-.276v-.672H16.3q-.784,0-.834.542l0,.061a.418.418,0,0,0,.137.321A.533.533,0,0,0,15.977-.726Zm7.929-1.192a2.367,2.367,0,0,1-.4,1.465,1.328,1.328,0,0,1-1.12.526A1.22,1.22,0,0,1,21.37-.415L21.323,0h-.939V-5.548h1.044v1.99a1.189,1.189,0,0,1,.95-.423,1.339,1.339,0,0,1,1.122.526,2.37,2.37,0,0,1,.406,1.479Zm-1.044-.076a1.555,1.555,0,0,0-.188-.865.635.635,0,0,0-.56-.273.689.689,0,0,0-.686.408v1.542a.7.7,0,0,0,.694.412.644.644,0,0,0,.665-.5A2.572,2.572,0,0,0,22.862-1.994ZM26.89-.4a1.309,1.309,0,0,1-1.069.47,1.235,1.235,0,0,1-.959-.361,1.542,1.542,0,0,1-.338-1.058V-3.908h1.044v2.525q0,.61.556.61a.754.754,0,0,0,.73-.368V-3.908H27.9V0h-.983Zm3.916-.683a.336.336,0,0,0-.19-.3,2.154,2.154,0,0,0-.609-.2q-1.394-.293-1.394-1.185a1.074,1.074,0,0,1,.432-.869,1.741,1.741,0,0,1,1.129-.349,1.874,1.874,0,0,1,1.19.35,1.1,1.1,0,0,1,.446.91H30.766a.505.505,0,0,0-.144-.37.611.611,0,0,0-.452-.146.625.625,0,0,0-.408.119.376.376,0,0,0-.144.3.322.322,0,0,0,.164.28,1.691,1.691,0,0,0,.554.184,4.529,4.529,0,0,1,.657.175,1.08,1.08,0,0,1,.827,1.051,1.02,1.02,0,0,1-.459.865,1.979,1.979,0,0,1-1.185.331A2.067,2.067,0,0,1,29.3-.1a1.464,1.464,0,0,1-.6-.48,1.116,1.116,0,0,1-.217-.659h.99a.545.545,0,0,0,.206.426.817.817,0,0,0,.513.148.756.756,0,0,0,.453-.114A.354.354,0,0,0,30.805-1.08Zm2.937-3.789v.961h.668v.766h-.668v1.951a.466.466,0,0,0,.083.311.417.417,0,0,0,.318.094,1.665,1.665,0,0,0,.307-.025v.791a2.149,2.149,0,0,1-.632.094A1,1,0,0,1,32.7-1.037V-3.143h-.571v-.766H32.7v-.961Zm.979,2.879a2.318,2.318,0,0,1,.224-1.037,1.64,1.64,0,0,1,.645-.7,1.881,1.881,0,0,1,.977-.249,1.78,1.78,0,0,1,1.291.484,1.943,1.943,0,0,1,.558,1.315l.007.267a2.043,2.043,0,0,1-.5,1.443,1.745,1.745,0,0,1-1.347.544A1.754,1.754,0,0,1,35.225-.47a2.079,2.079,0,0,1-.5-1.474Zm1.044.076a1.457,1.457,0,0,0,.21.851.691.691,0,0,0,.6.294.693.693,0,0,0,.592-.291,1.594,1.594,0,0,0,.213-.93,1.442,1.442,0,0,0-.213-.845.693.693,0,0,0-.6-.3.682.682,0,0,0-.592.3A1.621,1.621,0,0,0,35.765-1.914Z" transform="translate(457.092 15131.758)" fill="#161615"/>
    <path id="Trazado_881504" data-name="Trazado 881504" d="M4.6-1.752A1.861,1.861,0,0,1,3.972-.415a2.2,2.2,0,0,1-1.49.488A1.979,1.979,0,0,1,.89-.609a2.792,2.792,0,0,1-.58-1.869V-2.8A3.153,3.153,0,0,1,.578-4.136a2,2,0,0,1,.764-.887A2.14,2.14,0,0,1,2.5-5.332a2.144,2.144,0,0,1,1.467.488,2,2,0,0,1,.643,1.369H3.522a1.1,1.1,0,0,0-.284-.739A1.05,1.05,0,0,0,2.5-4.443a.921.921,0,0,0-.811.388,2.176,2.176,0,0,0-.276,1.2v.4a2.329,2.329,0,0,0,.258,1.246.9.9,0,0,0,.815.394,1.07,1.07,0,0,0,.75-.229,1.036,1.036,0,0,0,.284-.71ZM7.438-2.93a2.836,2.836,0,0,0-.376-.029.765.765,0,0,0-.777.4V0H5.241V-3.908h.986l.029.466a.967.967,0,0,1,.871-.538,1.094,1.094,0,0,1,.325.047Zm2.234,3a1.919,1.919,0,0,1-1.4-.527,1.875,1.875,0,0,1-.54-1.405v-.1A2.361,2.361,0,0,1,7.96-3.014,1.67,1.67,0,0,1,8.6-3.73a1.81,1.81,0,0,1,.952-.251,1.622,1.622,0,0,1,1.262.506,2.055,2.055,0,0,1,.461,1.434v.426H8.791A.97.97,0,0,0,9.1-1a.923.923,0,0,0,.645.231,1.127,1.127,0,0,0,.943-.437l.513.574a1.567,1.567,0,0,1-.636.518A2.086,2.086,0,0,1,9.672.072ZM9.553-3.135a.654.654,0,0,0-.5.21,1.082,1.082,0,0,0-.247.6h1.452v-.083a.772.772,0,0,0-.188-.536A.675.675,0,0,0,9.553-3.135Zm3.3-.773.033.437a1.374,1.374,0,0,1,1.123-.509,1.042,1.042,0,0,1,1.037.6,1.342,1.342,0,0,1,1.174-.6,1.166,1.166,0,0,1,.946.37A1.7,1.7,0,0,1,17.475-2.5V0H16.427V-2.492a.744.744,0,0,0-.13-.486.576.576,0,0,0-.459-.154.652.652,0,0,0-.65.448l0,2.684H14.148V-2.489a.735.735,0,0,0-.134-.491.582.582,0,0,0-.455-.152.677.677,0,0,0-.643.368V0H11.872V-3.908ZM20.541,0a1.159,1.159,0,0,1-.1-.35,1.263,1.263,0,0,1-.986.423A1.388,1.388,0,0,1,18.5-.26a1.069,1.069,0,0,1-.377-.838,1.1,1.1,0,0,1,.461-.954,2.273,2.273,0,0,1,1.331-.336h.48v-.224a.644.644,0,0,0-.139-.433.547.547,0,0,0-.439-.163.622.622,0,0,0-.414.126.429.429,0,0,0-.15.347H18.208a1.049,1.049,0,0,1,.21-.629,1.385,1.385,0,0,1,.592-.453,2.159,2.159,0,0,1,.86-.164,1.706,1.706,0,0,1,1.147.363,1.27,1.27,0,0,1,.424,1.02V-.9a1.869,1.869,0,0,0,.155.842V0Zm-.863-.726a.9.9,0,0,0,.426-.1.676.676,0,0,0,.289-.276v-.672H20q-.784,0-.834.542l0,.061a.418.418,0,0,0,.137.321A.533.533,0,0,0,19.678-.726ZM23.344,0H22.3V-5.548h1.048Zm1.961,0H24.258V-5.548h1.048Zm2.659.072a1.919,1.919,0,0,1-1.4-.527,1.875,1.875,0,0,1-.54-1.405v-.1a2.361,2.361,0,0,1,.228-1.053A1.67,1.67,0,0,1,26.9-3.73a1.81,1.81,0,0,1,.952-.251,1.622,1.622,0,0,1,1.262.506,2.055,2.055,0,0,1,.461,1.434v.426H27.083A.97.97,0,0,0,27.388-1a.923.923,0,0,0,.645.231,1.127,1.127,0,0,0,.943-.437l.513.574a1.567,1.567,0,0,1-.636.518A2.086,2.086,0,0,1,27.965.072Zm-.119-3.208a.654.654,0,0,0-.5.21,1.082,1.082,0,0,0-.247.6h1.452v-.083a.772.772,0,0,0-.188-.536A.675.675,0,0,0,27.845-3.135Zm4.515.206a2.836,2.836,0,0,0-.376-.029.765.765,0,0,0-.777.4V0H30.164V-3.908h.986l.029.466a.967.967,0,0,1,.871-.538,1.094,1.094,0,0,1,.325.047ZM35.019,0a1.159,1.159,0,0,1-.1-.35,1.263,1.263,0,0,1-.986.423,1.388,1.388,0,0,1-.952-.332A1.069,1.069,0,0,1,32.6-1.1a1.1,1.1,0,0,1,.461-.954,2.273,2.273,0,0,1,1.331-.336h.48v-.224a.644.644,0,0,0-.139-.433.547.547,0,0,0-.439-.163.622.622,0,0,0-.414.126.429.429,0,0,0-.15.347H32.686a1.049,1.049,0,0,1,.21-.629,1.385,1.385,0,0,1,.592-.453,2.159,2.159,0,0,1,.86-.164,1.706,1.706,0,0,1,1.147.363,1.27,1.27,0,0,1,.424,1.02V-.9a1.868,1.868,0,0,0,.155.842V0Zm-.863-.726a.9.9,0,0,0,.426-.1.676.676,0,0,0,.289-.276v-.672h-.39q-.784,0-.834.542l0,.061a.418.418,0,0,0,.137.321A.533.533,0,0,0,34.156-.726Z" transform="translate(454.682 15104.915) rotate(-83.607)" fill="#161615"/>
    <path id="Trazado_881505" data-name="Trazado 881505" d="M1.553-.871h2.3V0H.47V-5.259H1.553ZM5.534,0H4.49V-3.908H5.534ZM5.227-5.494H6.365l-1,1.12H4.515ZM7.394-3.908l.033.452A1.365,1.365,0,0,1,8.55-3.981a1.134,1.134,0,0,1,.925.365,1.7,1.7,0,0,1,.311,1.091V0H8.742V-2.5A.677.677,0,0,0,8.6-2.982a.647.647,0,0,0-.48-.15.718.718,0,0,0-.661.376V0H6.412V-3.908ZM12.376.072a1.919,1.919,0,0,1-1.4-.527,1.875,1.875,0,0,1-.54-1.405v-.1a2.361,2.361,0,0,1,.228-1.053,1.67,1.67,0,0,1,.645-.715,1.81,1.81,0,0,1,.952-.251,1.622,1.622,0,0,1,1.262.506,2.055,2.055,0,0,1,.461,1.434v.426H11.494A.97.97,0,0,0,11.8-1a.923.923,0,0,0,.645.231,1.127,1.127,0,0,0,.943-.437l.513.574a1.567,1.567,0,0,1-.636.518A2.086,2.086,0,0,1,12.376.072Zm-.119-3.208a.654.654,0,0,0-.5.21,1.082,1.082,0,0,0-.247.6h1.452v-.083a.772.772,0,0,0-.188-.536A.675.675,0,0,0,12.256-3.135ZM16.84,0a1.159,1.159,0,0,1-.1-.35,1.263,1.263,0,0,1-.986.423A1.388,1.388,0,0,1,14.8-.26,1.069,1.069,0,0,1,14.42-1.1a1.1,1.1,0,0,1,.461-.954,2.273,2.273,0,0,1,1.331-.336h.48v-.224a.644.644,0,0,0-.139-.433.547.547,0,0,0-.439-.163.622.622,0,0,0-.414.126.429.429,0,0,0-.15.347H14.507a1.049,1.049,0,0,1,.21-.629,1.385,1.385,0,0,1,.592-.453,2.159,2.159,0,0,1,.86-.164,1.706,1.706,0,0,1,1.147.363A1.27,1.27,0,0,1,17.74-2.6V-.9a1.869,1.869,0,0,0,.155.842V0Zm-.863-.726a.9.9,0,0,0,.426-.1.676.676,0,0,0,.289-.276v-.672H16.3q-.784,0-.834.542l0,.061a.418.418,0,0,0,.137.321A.533.533,0,0,0,15.977-.726Zm7.929-1.192a2.367,2.367,0,0,1-.4,1.465,1.328,1.328,0,0,1-1.12.526A1.22,1.22,0,0,1,21.37-.415L21.323,0h-.939V-5.548h1.044v1.99a1.189,1.189,0,0,1,.95-.423,1.339,1.339,0,0,1,1.122.526,2.37,2.37,0,0,1,.406,1.479Zm-1.044-.076a1.555,1.555,0,0,0-.188-.865.635.635,0,0,0-.56-.273.689.689,0,0,0-.686.408v1.542a.7.7,0,0,0,.694.412.644.644,0,0,0,.665-.5A2.572,2.572,0,0,0,22.862-1.994ZM26.89-.4a1.309,1.309,0,0,1-1.069.47,1.235,1.235,0,0,1-.959-.361,1.542,1.542,0,0,1-.338-1.058V-3.908h1.044v2.525q0,.61.556.61a.754.754,0,0,0,.73-.368V-3.908H27.9V0h-.983Zm3.916-.683a.336.336,0,0,0-.19-.3,2.154,2.154,0,0,0-.609-.2q-1.394-.293-1.394-1.185a1.074,1.074,0,0,1,.432-.869,1.741,1.741,0,0,1,1.129-.349,1.874,1.874,0,0,1,1.19.35,1.1,1.1,0,0,1,.446.91H30.765a.505.505,0,0,0-.144-.37.611.611,0,0,0-.452-.146.625.625,0,0,0-.408.119.376.376,0,0,0-.144.3.322.322,0,0,0,.164.28,1.691,1.691,0,0,0,.554.184,4.529,4.529,0,0,1,.657.175,1.08,1.08,0,0,1,.827,1.051,1.02,1.02,0,0,1-.459.865,1.979,1.979,0,0,1-1.185.331A2.067,2.067,0,0,1,29.3-.1a1.464,1.464,0,0,1-.6-.48,1.116,1.116,0,0,1-.217-.659h.99a.545.545,0,0,0,.206.426.817.817,0,0,0,.513.148.756.756,0,0,0,.453-.114A.354.354,0,0,0,30.805-1.08Zm2.937-3.789v.961h.668v.766h-.668v1.951a.466.466,0,0,0,.083.311.417.417,0,0,0,.318.094,1.665,1.665,0,0,0,.307-.025v.791a2.149,2.149,0,0,1-.632.094A1,1,0,0,1,32.7-1.037V-3.143h-.571v-.766H32.7v-.961Zm.979,2.879a2.318,2.318,0,0,1,.224-1.037,1.639,1.639,0,0,1,.645-.7,1.881,1.881,0,0,1,.977-.249,1.78,1.78,0,0,1,1.291.484,1.943,1.943,0,0,1,.558,1.315l.007.267a2.043,2.043,0,0,1-.5,1.443,1.745,1.745,0,0,1-1.347.544A1.754,1.754,0,0,1,35.225-.47a2.079,2.079,0,0,1-.5-1.474Zm1.044.076a1.457,1.457,0,0,0,.21.851.691.691,0,0,0,.6.294.693.693,0,0,0,.592-.291,1.594,1.594,0,0,0,.213-.93,1.442,1.442,0,0,0-.213-.845.693.693,0,0,0-.6-.3.682.682,0,0,0-.592.3A1.621,1.621,0,0,0,35.765-1.914Z" transform="translate(620.303 15137.787) rotate(3.368)" fill="#161615"/>
    <path id="Trazado_881506" data-name="Trazado 881506" d="M1.553-.871h2.3V0H.47V-5.259H1.553ZM5.534,0H4.49V-3.908H5.534ZM5.227-5.494H6.365l-1,1.12H4.515ZM7.394-3.908l.033.452A1.365,1.365,0,0,1,8.55-3.981a1.134,1.134,0,0,1,.925.365,1.7,1.7,0,0,1,.311,1.091V0H8.742V-2.5A.677.677,0,0,0,8.6-2.982a.647.647,0,0,0-.48-.15.718.718,0,0,0-.661.376V0H6.412V-3.908ZM12.376.072a1.919,1.919,0,0,1-1.4-.527,1.875,1.875,0,0,1-.54-1.405v-.1a2.361,2.361,0,0,1,.228-1.053,1.67,1.67,0,0,1,.645-.715,1.81,1.81,0,0,1,.952-.251,1.622,1.622,0,0,1,1.262.506,2.055,2.055,0,0,1,.461,1.434v.426H11.494A.97.97,0,0,0,11.8-1a.923.923,0,0,0,.645.231,1.127,1.127,0,0,0,.943-.437l.513.574a1.567,1.567,0,0,1-.636.518A2.086,2.086,0,0,1,12.376.072Zm-.119-3.208a.654.654,0,0,0-.5.21,1.082,1.082,0,0,0-.247.6h1.452v-.083a.772.772,0,0,0-.188-.536A.675.675,0,0,0,12.256-3.135ZM16.84,0a1.159,1.159,0,0,1-.1-.35,1.263,1.263,0,0,1-.986.423A1.388,1.388,0,0,1,14.8-.26,1.069,1.069,0,0,1,14.42-1.1a1.1,1.1,0,0,1,.461-.954,2.273,2.273,0,0,1,1.331-.336h.48v-.224a.644.644,0,0,0-.139-.433.547.547,0,0,0-.439-.163.622.622,0,0,0-.414.126.429.429,0,0,0-.15.347H14.507a1.049,1.049,0,0,1,.21-.629,1.385,1.385,0,0,1,.592-.453,2.159,2.159,0,0,1,.86-.164,1.706,1.706,0,0,1,1.147.363A1.27,1.27,0,0,1,17.74-2.6V-.9a1.869,1.869,0,0,0,.155.842V0Zm-.863-.726a.9.9,0,0,0,.426-.1.676.676,0,0,0,.289-.276v-.672H16.3q-.784,0-.834.542l0,.061a.418.418,0,0,0,.137.321A.533.533,0,0,0,15.977-.726ZM21.4-3.482a1.3,1.3,0,0,1,1.044-.5q1.272,0,1.29,1.477V0H22.692V-2.474a.726.726,0,0,0-.144-.5.619.619,0,0,0-.48-.161.711.711,0,0,0-.665.354V0H20.359V-5.548H21.4ZM24.361-1.99a2.318,2.318,0,0,1,.224-1.037,1.64,1.64,0,0,1,.645-.7,1.881,1.881,0,0,1,.977-.249A1.78,1.78,0,0,1,27.5-3.5a1.943,1.943,0,0,1,.558,1.315l.007.267a2.043,2.043,0,0,1-.5,1.443,1.745,1.745,0,0,1-1.347.544A1.754,1.754,0,0,1,24.865-.47a2.079,2.079,0,0,1-.5-1.474Zm1.044.076a1.457,1.457,0,0,0,.21.851.691.691,0,0,0,.6.294.693.693,0,0,0,.592-.291,1.594,1.594,0,0,0,.213-.93,1.442,1.442,0,0,0-.213-.845.693.693,0,0,0-.6-.3.682.682,0,0,0-.592.3A1.621,1.621,0,0,0,25.4-1.914Zm4.281-1.994.033.437a1.374,1.374,0,0,1,1.123-.509,1.042,1.042,0,0,1,1.037.6,1.342,1.342,0,0,1,1.174-.6A1.166,1.166,0,0,1,34-3.61,1.7,1.7,0,0,1,34.309-2.5V0H33.262V-2.492a.744.744,0,0,0-.13-.486.576.576,0,0,0-.459-.154.652.652,0,0,0-.65.448l0,2.684H30.982V-2.489a.735.735,0,0,0-.134-.491.582.582,0,0,0-.455-.152.677.677,0,0,0-.643.368V0H28.707V-3.908Zm8.948,1.99a2.367,2.367,0,0,1-.4,1.465,1.328,1.328,0,0,1-1.12.526A1.22,1.22,0,0,1,36.1-.415L36.05,0h-.939V-5.548h1.044v1.99a1.189,1.189,0,0,1,.95-.423,1.339,1.339,0,0,1,1.122.526,2.37,2.37,0,0,1,.406,1.479Zm-1.044-.076a1.555,1.555,0,0,0-.188-.865.635.635,0,0,0-.56-.273.689.689,0,0,0-.686.408v1.542a.7.7,0,0,0,.694.412.644.644,0,0,0,.665-.5A2.572,2.572,0,0,0,37.589-1.994Zm3.883-.936a2.836,2.836,0,0,0-.376-.029.765.765,0,0,0-.777.4V0H39.276V-3.908h.986l.029.466a.967.967,0,0,1,.871-.538,1.094,1.094,0,0,1,.325.047Zm.143.939a2.318,2.318,0,0,1,.224-1.037,1.639,1.639,0,0,1,.645-.7,1.881,1.881,0,0,1,.977-.249,1.78,1.78,0,0,1,1.291.484,1.943,1.943,0,0,1,.558,1.315l.007.267a2.043,2.043,0,0,1-.5,1.443,1.745,1.745,0,0,1-1.347.544A1.754,1.754,0,0,1,42.119-.47a2.079,2.079,0,0,1-.5-1.474Zm1.044.076a1.457,1.457,0,0,0,.21.851.691.691,0,0,0,.6.294.693.693,0,0,0,.592-.291,1.594,1.594,0,0,0,.213-.93,1.442,1.442,0,0,0-.213-.845.693.693,0,0,0-.6-.3.682.682,0,0,0-.592.3A1.621,1.621,0,0,0,42.659-1.914Z" transform="translate(613.313 15096.743) rotate(3.368)" fill="#161615"/>
    <path id="Trazado_881507" data-name="Trazado 881507" d="M4.6-1.752A1.861,1.861,0,0,1,3.972-.415a2.2,2.2,0,0,1-1.49.488A1.979,1.979,0,0,1,.89-.609a2.792,2.792,0,0,1-.58-1.869V-2.8A3.153,3.153,0,0,1,.578-4.136a2,2,0,0,1,.764-.887A2.14,2.14,0,0,1,2.5-5.332a2.144,2.144,0,0,1,1.467.488,2,2,0,0,1,.643,1.369H3.522a1.1,1.1,0,0,0-.284-.739A1.05,1.05,0,0,0,2.5-4.443a.921.921,0,0,0-.811.388,2.176,2.176,0,0,0-.276,1.2v.4a2.329,2.329,0,0,0,.258,1.246.9.9,0,0,0,.815.394,1.07,1.07,0,0,0,.75-.229,1.036,1.036,0,0,0,.284-.71ZM6.343,0H5.3V-3.908H6.343ZM5.234-4.92a.514.514,0,0,1,.157-.387.59.59,0,0,1,.428-.152.592.592,0,0,1,.426.152A.511.511,0,0,1,6.4-4.92a.513.513,0,0,1-.161.39.593.593,0,0,1-.424.152.593.593,0,0,1-.424-.152A.513.513,0,0,1,5.234-4.92Zm2.93,1.011.033.452A1.365,1.365,0,0,1,9.32-3.981a1.134,1.134,0,0,1,.925.365,1.7,1.7,0,0,1,.311,1.091V0H9.511V-2.5a.677.677,0,0,0-.144-.482.647.647,0,0,0-.48-.15.718.718,0,0,0-.661.376V0H7.181V-3.908ZM12.6-4.869v.961h.668v.766H12.6v1.951a.466.466,0,0,0,.083.311A.417.417,0,0,0,13-.787,1.665,1.665,0,0,0,13.3-.813v.791a2.149,2.149,0,0,1-.632.094,1,1,0,0,1-1.12-1.109V-3.143h-.571v-.766h.571v-.961ZM16.187-.4a1.309,1.309,0,0,1-1.069.47,1.235,1.235,0,0,1-.959-.361,1.542,1.542,0,0,1-.338-1.058V-3.908h1.044v2.525q0,.61.556.61a.754.754,0,0,0,.73-.368V-3.908H17.2V0h-.983Zm4-2.532a2.836,2.836,0,0,0-.376-.029.765.765,0,0,0-.777.4V0H17.985V-3.908h.986L19-3.442a.967.967,0,0,1,.871-.538,1.094,1.094,0,0,1,.325.047ZM22.84,0a1.159,1.159,0,0,1-.1-.35,1.263,1.263,0,0,1-.986.423A1.388,1.388,0,0,1,20.8-.26,1.069,1.069,0,0,1,20.42-1.1a1.1,1.1,0,0,1,.461-.954,2.273,2.273,0,0,1,1.331-.336h.48v-.224a.644.644,0,0,0-.139-.433.547.547,0,0,0-.439-.163.622.622,0,0,0-.414.126.429.429,0,0,0-.15.347H20.507a1.049,1.049,0,0,1,.21-.629,1.385,1.385,0,0,1,.592-.453,2.159,2.159,0,0,1,.86-.164,1.706,1.706,0,0,1,1.147.363A1.27,1.27,0,0,1,23.74-2.6V-.9a1.869,1.869,0,0,0,.155.842V0Zm-.863-.726a.9.9,0,0,0,.426-.1.676.676,0,0,0,.289-.276v-.672H22.3q-.784,0-.834.542l0,.061a.418.418,0,0,0,.137.321A.533.533,0,0,0,21.977-.726Z" transform="translate(487.006 15242.095) rotate(4.389)" fill="#161615"/>
    <path id="Trazado_881508" data-name="Trazado 881508" d="M4.6-1.752A1.861,1.861,0,0,1,3.972-.415a2.2,2.2,0,0,1-1.49.488A1.979,1.979,0,0,1,.89-.609a2.792,2.792,0,0,1-.58-1.869V-2.8A3.153,3.153,0,0,1,.578-4.136a2,2,0,0,1,.764-.887A2.14,2.14,0,0,1,2.5-5.332a2.144,2.144,0,0,1,1.467.488,2,2,0,0,1,.643,1.369H3.522a1.1,1.1,0,0,0-.284-.739A1.05,1.05,0,0,0,2.5-4.443a.921.921,0,0,0-.811.388,2.176,2.176,0,0,0-.276,1.2v.4a2.329,2.329,0,0,0,.258,1.246.9.9,0,0,0,.815.394,1.07,1.07,0,0,0,.75-.229,1.036,1.036,0,0,0,.284-.71ZM6.343,0H5.3V-3.908H6.343ZM5.234-4.92a.514.514,0,0,1,.157-.387.59.59,0,0,1,.428-.152.592.592,0,0,1,.426.152A.511.511,0,0,1,6.4-4.92a.513.513,0,0,1-.161.39.593.593,0,0,1-.424.152.593.593,0,0,1-.424-.152A.513.513,0,0,1,5.234-4.92Zm2.93,1.011.033.452A1.365,1.365,0,0,1,9.32-3.981a1.134,1.134,0,0,1,.925.365,1.7,1.7,0,0,1,.311,1.091V0H9.511V-2.5a.677.677,0,0,0-.144-.482.647.647,0,0,0-.48-.15.718.718,0,0,0-.661.376V0H7.181V-3.908ZM12.6-4.869v.961h.668v.766H12.6v1.951a.466.466,0,0,0,.083.311A.417.417,0,0,0,13-.787,1.665,1.665,0,0,0,13.3-.813v.791a2.149,2.149,0,0,1-.632.094,1,1,0,0,1-1.12-1.109V-3.143h-.571v-.766h.571v-.961ZM16.187-.4a1.309,1.309,0,0,1-1.069.47,1.235,1.235,0,0,1-.959-.361,1.542,1.542,0,0,1-.338-1.058V-3.908h1.044v2.525q0,.61.556.61a.754.754,0,0,0,.73-.368V-3.908H17.2V0h-.983Zm4-2.532a2.836,2.836,0,0,0-.376-.029.765.765,0,0,0-.777.4V0H17.985V-3.908h.986L19-3.442a.967.967,0,0,1,.871-.538,1.094,1.094,0,0,1,.325.047ZM22.84,0a1.159,1.159,0,0,1-.1-.35,1.263,1.263,0,0,1-.986.423A1.388,1.388,0,0,1,20.8-.26,1.069,1.069,0,0,1,20.42-1.1a1.1,1.1,0,0,1,.461-.954,2.273,2.273,0,0,1,1.331-.336h.48v-.224a.644.644,0,0,0-.139-.433.547.547,0,0,0-.439-.163.622.622,0,0,0-.414.126.429.429,0,0,0-.15.347H20.507a1.049,1.049,0,0,1,.21-.629,1.385,1.385,0,0,1,.592-.453,2.159,2.159,0,0,1,.86-.164,1.706,1.706,0,0,1,1.147.363A1.27,1.27,0,0,1,23.74-2.6V-.9a1.869,1.869,0,0,0,.155.842V0Zm-.863-.726a.9.9,0,0,0,.426-.1.676.676,0,0,0,.289-.276v-.672H22.3q-.784,0-.834.542l0,.061a.418.418,0,0,0,.137.321A.533.533,0,0,0,21.977-.726Z" transform="translate(636.068 15257.068) rotate(4.389)" fill="#161615"/>
    <path id="Trazado_881509" data-name="Trazado 881509" d="M1.5,0H.455V-5.548H1.5ZM3.464,0H2.417V-3.908H3.464ZM2.355-4.92a.514.514,0,0,1,.157-.387.59.59,0,0,1,.428-.152.592.592,0,0,1,.426.152.511.511,0,0,1,.159.387.513.513,0,0,1-.161.39.593.593,0,0,1-.424.152.593.593,0,0,1-.424-.152A.513.513,0,0,1,2.355-4.92Zm2.93,1.011.033.452a1.365,1.365,0,0,1,1.123-.524,1.134,1.134,0,0,1,.925.365,1.7,1.7,0,0,1,.311,1.091V0H6.632V-2.5a.677.677,0,0,0-.144-.482.647.647,0,0,0-.48-.15.718.718,0,0,0-.661.376V0H4.3V-3.908ZM10.266.072a1.919,1.919,0,0,1-1.4-.527,1.875,1.875,0,0,1-.54-1.405v-.1a2.361,2.361,0,0,1,.228-1.053A1.67,1.67,0,0,1,9.2-3.73a1.81,1.81,0,0,1,.952-.251,1.622,1.622,0,0,1,1.262.506,2.055,2.055,0,0,1,.461,1.434v.426H9.385A.97.97,0,0,0,9.69-1a.923.923,0,0,0,.645.231,1.127,1.127,0,0,0,.943-.437l.513.574a1.567,1.567,0,0,1-.636.518A2.086,2.086,0,0,1,10.266.072Zm-.119-3.208a.654.654,0,0,0-.5.21,1.082,1.082,0,0,0-.247.6h1.452v-.083a.772.772,0,0,0-.188-.536A.675.675,0,0,0,10.147-3.135ZM14.731,0a1.159,1.159,0,0,1-.1-.35,1.263,1.263,0,0,1-.986.423,1.388,1.388,0,0,1-.952-.332,1.069,1.069,0,0,1-.377-.838,1.1,1.1,0,0,1,.461-.954A2.273,2.273,0,0,1,14.1-2.388h.48v-.224a.644.644,0,0,0-.139-.433A.547.547,0,0,0,14-3.208a.622.622,0,0,0-.414.126.429.429,0,0,0-.15.347H12.4a1.049,1.049,0,0,1,.21-.629,1.385,1.385,0,0,1,.592-.453,2.159,2.159,0,0,1,.86-.164,1.706,1.706,0,0,1,1.147.363A1.27,1.27,0,0,1,15.63-2.6V-.9a1.869,1.869,0,0,0,.155.842V0Zm-.863-.726a.9.9,0,0,0,.426-.1.676.676,0,0,0,.289-.276v-.672h-.39q-.784,0-.834.542l0,.061a.418.418,0,0,0,.137.321A.533.533,0,0,0,13.867-.726Zm4.244-1.257a2.355,2.355,0,0,1,.41-1.456,1.33,1.33,0,0,1,1.122-.542,1.2,1.2,0,0,1,.943.426V-5.548h1.048V0h-.943L20.64-.415a1.228,1.228,0,0,1-1,.488,1.327,1.327,0,0,1-1.107-.544A2.431,2.431,0,0,1,18.112-1.983Zm1.044.076a1.539,1.539,0,0,0,.191.842.624.624,0,0,0,.556.293.7.7,0,0,0,.683-.408V-2.724a.689.689,0,0,0-.675-.408Q19.156-3.132,19.156-1.907ZM24.242.072a1.919,1.919,0,0,1-1.4-.527A1.875,1.875,0,0,1,22.3-1.86v-.1a2.361,2.361,0,0,1,.228-1.053,1.67,1.67,0,0,1,.645-.715,1.81,1.81,0,0,1,.952-.251,1.622,1.622,0,0,1,1.262.506,2.055,2.055,0,0,1,.461,1.434v.426H23.361A.97.97,0,0,0,23.666-1a.923.923,0,0,0,.645.231,1.127,1.127,0,0,0,.943-.437l.513.574a1.567,1.567,0,0,1-.636.518A2.086,2.086,0,0,1,24.242.072Zm-.119-3.208a.654.654,0,0,0-.5.21,1.082,1.082,0,0,0-.247.6h1.452v-.083a.772.772,0,0,0-.188-.536A.675.675,0,0,0,24.123-3.135ZM27.544,0H26.5V-5.548h1.048Zm.914-.513a.526.526,0,0,1,.168-.4.6.6,0,0,1,.421-.155.6.6,0,0,1,.424.155.526.526,0,0,1,.168.4.518.518,0,0,1-.166.4.6.6,0,0,1-.426.154.6.6,0,0,1-.423-.154A.518.518,0,0,1,28.457-.513ZM33.5,0H32.449V-3.908H33.5ZM32.388-4.92a.514.514,0,0,1,.157-.387.59.59,0,0,1,.428-.152.592.592,0,0,1,.426.152.511.511,0,0,1,.159.387.513.513,0,0,1-.161.39.593.593,0,0,1-.424.152.593.593,0,0,1-.424-.152A.513.513,0,0,1,32.388-4.92ZM35.556-.842h1.911V0H34.223V-.636l1.839-2.427H34.277v-.845h3.132v.618Zm5.866-.636.722-2.431h1.12L41.693.607l-.087.206a1.191,1.191,0,0,1-1.156.766,1.643,1.643,0,0,1-.462-.069V.719l.159,0a.859.859,0,0,0,.443-.09.593.593,0,0,0,.229-.3l.123-.321L39.572-3.908H40.7Zm5.9,1.55a1.919,1.919,0,0,1-1.4-.527,1.875,1.875,0,0,1-.54-1.405v-.1A2.361,2.361,0,0,1,45.6-3.014a1.67,1.67,0,0,1,.645-.715,1.81,1.81,0,0,1,.952-.251,1.622,1.622,0,0,1,1.262.506,2.055,2.055,0,0,1,.461,1.434v.426H46.436A.97.97,0,0,0,46.741-1a.923.923,0,0,0,.645.231,1.127,1.127,0,0,0,.943-.437l.513.574a1.567,1.567,0,0,1-.636.518A2.086,2.086,0,0,1,47.317.072ZM47.2-3.135a.654.654,0,0,0-.5.21,1.082,1.082,0,0,0-.247.6H47.9v-.083a.772.772,0,0,0-.188-.536A.675.675,0,0,0,47.2-3.135Zm3.28-.773.033.452a1.365,1.365,0,0,1,1.123-.524,1.134,1.134,0,0,1,.925.365,1.7,1.7,0,0,1,.311,1.091V0H51.825V-2.5a.677.677,0,0,0-.144-.482.647.647,0,0,0-.48-.15.718.718,0,0,0-.661.376V0H49.5V-3.908Zm4.432-.961v.961h.668v.766H54.91v1.951a.466.466,0,0,0,.083.311.417.417,0,0,0,.318.094,1.665,1.665,0,0,0,.307-.025v.791a2.149,2.149,0,0,1-.632.094,1,1,0,0,1-1.12-1.109V-3.143H53.3v-.766h.571v-.961Zm3.446,1.94a2.836,2.836,0,0,0-.376-.029.765.765,0,0,0-.777.4V0H56.16V-3.908h.986l.029.466a.967.967,0,0,1,.871-.538,1.094,1.094,0,0,1,.325.047Zm2.234,3a1.919,1.919,0,0,1-1.4-.527,1.875,1.875,0,0,1-.54-1.405v-.1a2.361,2.361,0,0,1,.228-1.053,1.67,1.67,0,0,1,.645-.715,1.81,1.81,0,0,1,.952-.251,1.622,1.622,0,0,1,1.262.506A2.055,2.055,0,0,1,62.2-2.041v.426H59.709A.97.97,0,0,0,60.014-1a.923.923,0,0,0,.645.231,1.127,1.127,0,0,0,.943-.437l.513.574a1.567,1.567,0,0,1-.636.518A2.086,2.086,0,0,1,60.591.072Zm-.119-3.208a.654.654,0,0,0-.5.21,1.082,1.082,0,0,0-.247.6h1.452v-.083a.772.772,0,0,0-.188-.536A.675.675,0,0,0,60.471-3.135ZM64.04-4.869v.961h.668v.766H64.04v1.951a.466.466,0,0,0,.083.311.417.417,0,0,0,.318.094,1.665,1.665,0,0,0,.307-.025v.791a2.149,2.149,0,0,1-.632.094A1,1,0,0,1,63-1.037V-3.143h-.571v-.766H63v-.961ZM67.089.072a1.919,1.919,0,0,1-1.4-.527,1.875,1.875,0,0,1-.54-1.405v-.1a2.361,2.361,0,0,1,.228-1.053,1.67,1.67,0,0,1,.645-.715,1.81,1.81,0,0,1,.952-.251,1.622,1.622,0,0,1,1.262.506A2.055,2.055,0,0,1,68.7-2.041v.426H66.208A.97.97,0,0,0,66.513-1a.923.923,0,0,0,.645.231,1.127,1.127,0,0,0,.943-.437l.513.574a1.567,1.567,0,0,1-.636.518A2.086,2.086,0,0,1,67.089.072ZM66.97-3.135a.654.654,0,0,0-.5.21,1.082,1.082,0,0,0-.247.6h1.452v-.083a.772.772,0,0,0-.188-.536A.675.675,0,0,0,66.97-3.135ZM70.391,0H69.343V-5.548h1.048Zm3.125,0a1.159,1.159,0,0,1-.1-.35,1.263,1.263,0,0,1-.986.423,1.388,1.388,0,0,1-.952-.332A1.069,1.069,0,0,1,71.1-1.1a1.1,1.1,0,0,1,.461-.954,2.273,2.273,0,0,1,1.331-.336h.48v-.224a.644.644,0,0,0-.139-.433.547.547,0,0,0-.439-.163.622.622,0,0,0-.414.126.43.43,0,0,0-.15.347H71.182a1.049,1.049,0,0,1,.21-.629,1.385,1.385,0,0,1,.592-.453,2.159,2.159,0,0,1,.86-.164,1.706,1.706,0,0,1,1.147.363,1.27,1.27,0,0,1,.424,1.02V-.9a1.868,1.868,0,0,0,.155.842V0Zm-.863-.726a.9.9,0,0,0,.426-.1.676.676,0,0,0,.289-.276v-.672h-.39q-.784,0-.834.542l0,.061a.418.418,0,0,0,.137.321A.533.533,0,0,0,72.652-.726Z" transform="translate(430.188 15227.911) rotate(-84.854)" fill="#161615"/>
    <path id="Trazado_881510" data-name="Trazado 881510" d="M4.6-1.752A1.861,1.861,0,0,1,3.972-.415a2.2,2.2,0,0,1-1.49.488A1.979,1.979,0,0,1,.89-.609a2.792,2.792,0,0,1-.58-1.869V-2.8A3.153,3.153,0,0,1,.578-4.136a2,2,0,0,1,.764-.887A2.14,2.14,0,0,1,2.5-5.332a2.144,2.144,0,0,1,1.467.488,2,2,0,0,1,.643,1.369H3.522a1.1,1.1,0,0,0-.284-.739A1.05,1.05,0,0,0,2.5-4.443a.921.921,0,0,0-.811.388,2.176,2.176,0,0,0-.276,1.2v.4a2.329,2.329,0,0,0,.258,1.246.9.9,0,0,0,.815.394,1.07,1.07,0,0,0,.75-.229,1.036,1.036,0,0,0,.284-.71ZM5.3-.513a.526.526,0,0,1,.168-.4.6.6,0,0,1,.421-.155.6.6,0,0,1,.424.155.526.526,0,0,1,.168.4.518.518,0,0,1-.166.4A.6.6,0,0,1,5.884.04a.6.6,0,0,1-.423-.154A.518.518,0,0,1,5.3-.513Zm6.123-3.869H9.807V0H8.724V-4.382H7.134v-.878h4.284ZM10.165-.513a.526.526,0,0,1,.168-.4.6.6,0,0,1,.421-.155.6.6,0,0,1,.424.155.526.526,0,0,1,.168.4.518.518,0,0,1-.166.4.6.6,0,0,1-.426.154.6.6,0,0,1-.423-.154A.518.518,0,0,1,10.165-.513Zm7.17-1.766H15.254V-.871H17.7V0H14.171V-5.259h3.518v.878H15.254v1.253h2.081Zm1.889-1.629.033.452a1.365,1.365,0,0,1,1.123-.524,1.134,1.134,0,0,1,.925.365,1.7,1.7,0,0,1,.311,1.091V0H20.572V-2.5a.677.677,0,0,0-.144-.482.647.647,0,0,0-.48-.15.718.718,0,0,0-.661.376V0H18.242V-3.908Zm4.432-.961v.961h.668v.766h-.668v1.951a.466.466,0,0,0,.083.311.417.417,0,0,0,.318.094,1.665,1.665,0,0,0,.307-.025v.791a2.149,2.149,0,0,1-.632.094,1,1,0,0,1-1.12-1.109V-3.143h-.571v-.766h.571v-.961ZM26.705.072a1.919,1.919,0,0,1-1.4-.527,1.875,1.875,0,0,1-.54-1.405v-.1a2.361,2.361,0,0,1,.228-1.053,1.67,1.67,0,0,1,.645-.715,1.81,1.81,0,0,1,.952-.251,1.622,1.622,0,0,1,1.262.506,2.055,2.055,0,0,1,.461,1.434v.426H25.824A.97.97,0,0,0,26.129-1a.923.923,0,0,0,.645.231,1.127,1.127,0,0,0,.943-.437l.513.574a1.567,1.567,0,0,1-.636.518A2.086,2.086,0,0,1,26.705.072Zm-.119-3.208a.654.654,0,0,0-.5.21,1.082,1.082,0,0,0-.247.6h1.452v-.083a.772.772,0,0,0-.188-.536A.675.675,0,0,0,26.586-3.135ZM31.1-2.93a2.836,2.836,0,0,0-.376-.029.765.765,0,0,0-.777.4V0H28.905V-3.908h.986l.029.466a.967.967,0,0,1,.871-.538,1.094,1.094,0,0,1,.325.047Zm.143.939a2.318,2.318,0,0,1,.224-1.037,1.64,1.64,0,0,1,.645-.7,1.881,1.881,0,0,1,.977-.249,1.78,1.78,0,0,1,1.291.484,1.943,1.943,0,0,1,.558,1.315l.007.267a2.043,2.043,0,0,1-.5,1.443A1.745,1.745,0,0,1,33.1.072,1.754,1.754,0,0,1,31.748-.47a2.079,2.079,0,0,1-.5-1.474Zm1.044.076a1.457,1.457,0,0,0,.21.851.691.691,0,0,0,.6.294.693.693,0,0,0,.592-.291,1.594,1.594,0,0,0,.213-.93,1.442,1.442,0,0,0-.213-.845.693.693,0,0,0-.6-.3.682.682,0,0,0-.592.3A1.621,1.621,0,0,0,32.288-1.914Z" transform="matrix(-0.025, -1, 1, -0.025, 707.219, 15312.646)" fill="#161615"/>
    <path id="Trazado_881511" data-name="Trazado 881511" d="M3.2-1.38a.556.556,0,0,0-.217-.471A2.843,2.843,0,0,0,2.2-2.2a5.531,5.531,0,0,1-.892-.359,1.458,1.458,0,0,1-.9-1.3,1.27,1.27,0,0,1,.24-.76,1.567,1.567,0,0,1,.69-.522,2.6,2.6,0,0,1,1.01-.188,2.364,2.364,0,0,1,1,.2,1.6,1.6,0,0,1,.685.576,1.508,1.508,0,0,1,.244.845H3.2a.709.709,0,0,0-.228-.562.935.935,0,0,0-.639-.2,1,1,0,0,0-.618.168.53.53,0,0,0-.22.442.507.507,0,0,0,.258.43,2.918,2.918,0,0,0,.76.325,3.285,3.285,0,0,1,1.347.69,1.374,1.374,0,0,1,.423,1.026A1.266,1.266,0,0,1,3.768-.316,2.261,2.261,0,0,1,2.377.072,2.686,2.686,0,0,1,1.272-.15a1.749,1.749,0,0,1-.76-.609,1.559,1.559,0,0,1-.262-.9H1.337q0,.871,1.04.871a1.012,1.012,0,0,0,.6-.157A.511.511,0,0,0,3.2-1.38ZM5-.513a.526.526,0,0,1,.168-.4.6.6,0,0,1,.421-.155.6.6,0,0,1,.424.155.526.526,0,0,1,.168.4.518.518,0,0,1-.166.4A.6.6,0,0,1,5.592.04a.6.6,0,0,1-.423-.154A.518.518,0,0,1,5-.513ZM11.447,0H10.363V-2.254H8.25V0H7.167V-5.259H8.25v2.131h2.113V-5.259h1.084Zm.932-.513a.526.526,0,0,1,.168-.4.6.6,0,0,1,.421-.155.6.6,0,0,1,.424.155.526.526,0,0,1,.168.4.518.518,0,0,1-.166.4.6.6,0,0,1-.426.154.6.6,0,0,1-.423-.154A.518.518,0,0,1,12.379-.513Z" transform="matrix(-0.025, -1, 1, -0.025, 715.822, 15301.671)" fill="#161615"/>
    <path id="Trazado_881512" data-name="Trazado 881512" d="M0,0H361.386V370.467H0Z" transform="translate(356.711 14945.864)" fill="none"/>
    <path id="Trazado_881513" data-name="Trazado 881513" d="M.47,0V-5.259H2.088a2.458,2.458,0,0,1,1.241.312,2.179,2.179,0,0,1,.854.889A2.741,2.741,0,0,1,4.49-2.749v.242a2.749,2.749,0,0,1-.3,1.3,2.16,2.16,0,0,1-.851.885A2.476,2.476,0,0,1,2.1,0ZM1.553-4.382V-.871h.524a1.177,1.177,0,0,0,.972-.415,1.877,1.877,0,0,0,.343-1.188v-.278A1.907,1.907,0,0,0,3.06-3.968a1.173,1.173,0,0,0-.972-.414ZM7.008.072a1.919,1.919,0,0,1-1.4-.527,1.875,1.875,0,0,1-.54-1.405v-.1A2.361,2.361,0,0,1,5.3-3.014,1.67,1.67,0,0,1,5.94-3.73a1.81,1.81,0,0,1,.952-.251,1.622,1.622,0,0,1,1.262.506,2.055,2.055,0,0,1,.461,1.434v.426H6.126A.97.97,0,0,0,6.432-1a.923.923,0,0,0,.645.231,1.127,1.127,0,0,0,.943-.437l.513.574A1.567,1.567,0,0,1,7.9-.114,2.086,2.086,0,0,1,7.008.072ZM6.889-3.135a.654.654,0,0,0-.5.21,1.082,1.082,0,0,0-.247.6H7.589v-.083A.772.772,0,0,0,7.4-2.946.675.675,0,0,0,6.889-3.135ZM10.309,0H9.262V-5.548h1.048Zm2.539-1.983a2.355,2.355,0,0,1,.41-1.456,1.33,1.33,0,0,1,1.122-.542,1.2,1.2,0,0,1,.943.426V-5.548h1.048V0h-.943l-.051-.415a1.228,1.228,0,0,1-1,.488,1.327,1.327,0,0,1-1.107-.544A2.431,2.431,0,0,1,12.849-1.983Zm1.044.076a1.539,1.539,0,0,0,.191.842.624.624,0,0,0,.556.293.7.7,0,0,0,.683-.408V-2.724a.689.689,0,0,0-.675-.408Q13.893-3.132,13.893-1.907ZM18.979.072a1.919,1.919,0,0,1-1.4-.527,1.875,1.875,0,0,1-.54-1.405v-.1a2.361,2.361,0,0,1,.228-1.053,1.67,1.67,0,0,1,.645-.715,1.81,1.81,0,0,1,.952-.251,1.622,1.622,0,0,1,1.262.506,2.055,2.055,0,0,1,.461,1.434v.426H18.1A.97.97,0,0,0,18.4-1a.923.923,0,0,0,.645.231,1.127,1.127,0,0,0,.943-.437l.513.574a1.567,1.567,0,0,1-.636.518A2.086,2.086,0,0,1,18.979.072ZM18.86-3.135a.654.654,0,0,0-.5.21,1.082,1.082,0,0,0-.247.6H19.56v-.083a.772.772,0,0,0-.188-.536A.675.675,0,0,0,18.86-3.135Zm4.515.206A2.836,2.836,0,0,0,23-2.958a.765.765,0,0,0-.777.4V0H21.179V-3.908h.986l.029.466a.967.967,0,0,1,.871-.538,1.094,1.094,0,0,1,.325.047Zm-.69,2.417a.526.526,0,0,1,.168-.4.6.6,0,0,1,.421-.155.6.6,0,0,1,.424.155.526.526,0,0,1,.168.4.518.518,0,0,1-.166.4.6.6,0,0,1-.426.154.6.6,0,0,1-.423-.154A.518.518,0,0,1,22.685-.513Z" transform="translate(371.024 15314.515) rotate(-95.297)" fill="#161615"/>
    <path id="Trazado_881514" data-name="Trazado 881514" d="M.47,0V-5.259H2.088a2.458,2.458,0,0,1,1.241.312,2.179,2.179,0,0,1,.854.889A2.741,2.741,0,0,1,4.49-2.749v.242a2.749,2.749,0,0,1-.3,1.3,2.16,2.16,0,0,1-.851.885A2.476,2.476,0,0,1,2.1,0ZM1.553-4.382V-.871h.524a1.177,1.177,0,0,0,.972-.415,1.877,1.877,0,0,0,.343-1.188v-.278A1.907,1.907,0,0,0,3.06-3.968a1.173,1.173,0,0,0-.972-.414ZM7.008.072a1.919,1.919,0,0,1-1.4-.527,1.875,1.875,0,0,1-.54-1.405v-.1A2.361,2.361,0,0,1,5.3-3.014,1.67,1.67,0,0,1,5.94-3.73a1.81,1.81,0,0,1,.952-.251,1.622,1.622,0,0,1,1.262.506,2.055,2.055,0,0,1,.461,1.434v.426H6.126A.97.97,0,0,0,6.432-1a.923.923,0,0,0,.645.231,1.127,1.127,0,0,0,.943-.437l.513.574A1.567,1.567,0,0,1,7.9-.114,2.086,2.086,0,0,1,7.008.072ZM6.889-3.135a.654.654,0,0,0-.5.21,1.082,1.082,0,0,0-.247.6H7.589v-.083A.772.772,0,0,0,7.4-2.946.675.675,0,0,0,6.889-3.135ZM10.309,0H9.262V-5.548h1.048Zm5.646,0H14.908V-3.908h1.048ZM14.846-4.92A.514.514,0,0,1,15-5.306a.59.59,0,0,1,.428-.152.592.592,0,0,1,.426.152.511.511,0,0,1,.159.387.513.513,0,0,1-.161.39.593.593,0,0,1-.424.152.593.593,0,0,1-.424-.152A.513.513,0,0,1,14.846-4.92ZM18.014-.842h1.911V0H16.681V-.636L18.52-3.063H16.736v-.845h3.132v.618Zm2.619.329a.526.526,0,0,1,.168-.4.6.6,0,0,1,.421-.155.6.6,0,0,1,.424.155.526.526,0,0,1,.168.4.518.518,0,0,1-.166.4.6.6,0,0,1-.426.154A.6.6,0,0,1,20.8-.114.518.518,0,0,1,20.633-.513Z" transform="translate(433.815 15313.736) rotate(-82.827)" fill="#161615"/>
    <path id="Trazado_881515" data-name="Trazado 881515" d="M2.893,0H1.849V-4.024L.6-3.638v-.849l2.178-.78h.112ZM7.138,0H6.094V-4.024l-1.246.387v-.849l2.178-.78h.112Z" transform="matrix(-0.025, -1, 1, -0.025, 465.557, 15242.723)" fill="#161615"/>
    <path id="Trazado_881516" data-name="Trazado 881516" d="M0,0H321.791" transform="translate(374.568 15288.238)" fill="none" stroke="#0c1d2f" stroke-linecap="round" stroke-width="1"/>
    <path id="Trazado_881517" data-name="Trazado 881517" d="M0,0H361.386V370.467H0Z" transform="translate(356.711 14945.864)" fill="none"/>
    <path id="Trazado_881518" data-name="Trazado 881518" d="M4.6-1.752A1.861,1.861,0,0,1,3.972-.415a2.2,2.2,0,0,1-1.49.488A1.979,1.979,0,0,1,.89-.609a2.792,2.792,0,0,1-.58-1.869V-2.8A3.153,3.153,0,0,1,.578-4.136a2,2,0,0,1,.764-.887A2.14,2.14,0,0,1,2.5-5.332a2.144,2.144,0,0,1,1.467.488,2,2,0,0,1,.643,1.369H3.522a1.1,1.1,0,0,0-.284-.739A1.05,1.05,0,0,0,2.5-4.443a.921.921,0,0,0-.811.388,2.176,2.176,0,0,0-.276,1.2v.4a2.329,2.329,0,0,0,.258,1.246.9.9,0,0,0,.815.394,1.07,1.07,0,0,0,.75-.229,1.036,1.036,0,0,0,.284-.71ZM7.04.072a1.919,1.919,0,0,1-1.4-.527A1.875,1.875,0,0,1,5.1-1.86v-.1a2.361,2.361,0,0,1,.228-1.053,1.67,1.67,0,0,1,.645-.715,1.81,1.81,0,0,1,.952-.251,1.622,1.622,0,0,1,1.262.506,2.055,2.055,0,0,1,.461,1.434v.426H6.159A.97.97,0,0,0,6.464-1a.923.923,0,0,0,.645.231,1.127,1.127,0,0,0,.943-.437l.513.574a1.567,1.567,0,0,1-.636.518A2.086,2.086,0,0,1,7.04.072ZM6.921-3.135a.654.654,0,0,0-.5.21,1.082,1.082,0,0,0-.247.6H7.622v-.083a.772.772,0,0,0-.188-.536A.675.675,0,0,0,6.921-3.135Zm3.28-.773.033.452a1.365,1.365,0,0,1,1.123-.524,1.134,1.134,0,0,1,.925.365,1.7,1.7,0,0,1,.311,1.091V0H11.548V-2.5a.677.677,0,0,0-.144-.482.647.647,0,0,0-.48-.15.718.718,0,0,0-.661.376V0H9.218V-3.908Zm4.432-.961v.961H15.3v.766h-.668v1.951a.466.466,0,0,0,.083.311.417.417,0,0,0,.318.094,1.665,1.665,0,0,0,.307-.025v.791a2.149,2.149,0,0,1-.632.094,1,1,0,0,1-1.12-1.109V-3.143h-.571v-.766h.571v-.961Zm3.446,1.94a2.836,2.836,0,0,0-.376-.029.765.765,0,0,0-.777.4V0H15.883V-3.908h.986l.029.466a.967.967,0,0,1,.871-.538,1.094,1.094,0,0,1,.325.047Zm.143.939a2.318,2.318,0,0,1,.224-1.037,1.64,1.64,0,0,1,.645-.7,1.881,1.881,0,0,1,.977-.249A1.78,1.78,0,0,1,21.36-3.5a1.943,1.943,0,0,1,.558,1.315l.007.267a2.043,2.043,0,0,1-.5,1.443,1.745,1.745,0,0,1-1.347.544A1.754,1.754,0,0,1,18.726-.47a2.079,2.079,0,0,1-.5-1.474Zm1.044.076a1.457,1.457,0,0,0,.21.851.691.691,0,0,0,.6.294.693.693,0,0,0,.592-.291,1.594,1.594,0,0,0,.213-.93,1.442,1.442,0,0,0-.213-.845.693.693,0,0,0-.6-.3.682.682,0,0,0-.592.3A1.621,1.621,0,0,0,19.266-1.914Zm4.981-.069a2.355,2.355,0,0,1,.41-1.456,1.33,1.33,0,0,1,1.122-.542,1.2,1.2,0,0,1,.943.426V-5.548h1.048V0h-.943l-.051-.415a1.228,1.228,0,0,1-1,.488,1.327,1.327,0,0,1-1.107-.544A2.431,2.431,0,0,1,24.248-1.983Zm1.044.076a1.539,1.539,0,0,0,.191.842.624.624,0,0,0,.556.293.7.7,0,0,0,.683-.408V-2.724a.689.689,0,0,0-.675-.408Q25.291-3.132,25.291-1.907ZM30.378.072a1.919,1.919,0,0,1-1.4-.527,1.875,1.875,0,0,1-.54-1.405v-.1a2.361,2.361,0,0,1,.228-1.053,1.67,1.67,0,0,1,.645-.715,1.81,1.81,0,0,1,.952-.251,1.622,1.622,0,0,1,1.262.506,2.055,2.055,0,0,1,.461,1.434v.426H29.5A.97.97,0,0,0,29.8-1a.923.923,0,0,0,.645.231,1.127,1.127,0,0,0,.943-.437l.513.574a1.567,1.567,0,0,1-.636.518A2.086,2.086,0,0,1,30.378.072Zm-.119-3.208a.654.654,0,0,0-.5.21,1.082,1.082,0,0,0-.247.6h1.452v-.083a.772.772,0,0,0-.188-.536A.675.675,0,0,0,30.258-3.135ZM33.679,0H32.632V-5.548h1.048ZM36.8,0a1.159,1.159,0,0,1-.1-.35,1.263,1.263,0,0,1-.986.423,1.388,1.388,0,0,1-.952-.332,1.069,1.069,0,0,1-.377-.838,1.1,1.1,0,0,1,.461-.954,2.273,2.273,0,0,1,1.331-.336h.48v-.224a.644.644,0,0,0-.139-.433.547.547,0,0,0-.439-.163.622.622,0,0,0-.414.126.429.429,0,0,0-.15.347H34.47a1.049,1.049,0,0,1,.21-.629,1.385,1.385,0,0,1,.592-.453,2.159,2.159,0,0,1,.86-.164,1.706,1.706,0,0,1,1.147.363A1.27,1.27,0,0,1,37.7-2.6V-.9a1.869,1.869,0,0,0,.155.842V0ZM35.94-.726a.9.9,0,0,0,.426-.1.676.676,0,0,0,.289-.276v-.672h-.39q-.784,0-.834.542l0,.061a.418.418,0,0,0,.137.321A.533.533,0,0,0,35.94-.726Zm3.526-3.182.033.452a1.365,1.365,0,0,1,1.123-.524,1.134,1.134,0,0,1,.925.365,1.7,1.7,0,0,1,.311,1.091V0H40.813V-2.5a.677.677,0,0,0-.144-.482.647.647,0,0,0-.48-.15.718.718,0,0,0-.661.376V0H38.483V-3.908ZM43.9-4.869v.961h.668v.766H43.9v1.951a.466.466,0,0,0,.083.311.417.417,0,0,0,.318.094,1.665,1.665,0,0,0,.307-.025v.791a2.149,2.149,0,0,1-.632.094,1,1,0,0,1-1.12-1.109V-3.143h-.571v-.766h.571v-.961ZM46.947.072a1.919,1.919,0,0,1-1.4-.527,1.875,1.875,0,0,1-.54-1.405v-.1a2.361,2.361,0,0,1,.228-1.053,1.67,1.67,0,0,1,.645-.715,1.81,1.81,0,0,1,.952-.251,1.622,1.622,0,0,1,1.262.506,2.055,2.055,0,0,1,.461,1.434v.426H46.066A.97.97,0,0,0,46.371-1a.923.923,0,0,0,.645.231,1.127,1.127,0,0,0,.943-.437l.513.574a1.567,1.567,0,0,1-.636.518A2.086,2.086,0,0,1,46.947.072Zm-.119-3.208a.654.654,0,0,0-.5.21,1.082,1.082,0,0,0-.247.6h1.452v-.083a.772.772,0,0,0-.188-.536A.675.675,0,0,0,46.828-3.135Zm4.515.206a2.836,2.836,0,0,0-.376-.029.765.765,0,0,0-.777.4V0H49.147V-3.908h.986l.029.466a.967.967,0,0,1,.871-.538,1.094,1.094,0,0,1,.325.047Zm.143.939a2.318,2.318,0,0,1,.224-1.037,1.64,1.64,0,0,1,.645-.7,1.881,1.881,0,0,1,.977-.249,1.78,1.78,0,0,1,1.291.484,1.943,1.943,0,0,1,.558,1.315l.007.267a2.043,2.043,0,0,1-.5,1.443,1.745,1.745,0,0,1-1.347.544A1.754,1.754,0,0,1,51.99-.47a2.079,2.079,0,0,1-.5-1.474Zm1.044.076a1.457,1.457,0,0,0,.21.851.691.691,0,0,0,.6.294.693.693,0,0,0,.592-.291,1.594,1.594,0,0,0,.213-.93,1.442,1.442,0,0,0-.213-.845.693.693,0,0,0-.6-.3.682.682,0,0,0-.592.3A1.621,1.621,0,0,0,52.53-1.914Zm7.174.083H57.67v-.842H59.7Zm5.476.452a.556.556,0,0,0-.217-.471,2.843,2.843,0,0,0-.78-.347,5.531,5.531,0,0,1-.892-.359,1.458,1.458,0,0,1-.9-1.3,1.27,1.27,0,0,1,.24-.76,1.567,1.567,0,0,1,.69-.522,2.6,2.6,0,0,1,1.01-.188,2.364,2.364,0,0,1,1,.2,1.6,1.6,0,0,1,.685.576,1.508,1.508,0,0,1,.244.845H65.184a.709.709,0,0,0-.228-.562.936.936,0,0,0-.639-.2A1,1,0,0,0,63.7-4.3a.53.53,0,0,0-.22.443.507.507,0,0,0,.258.43,2.918,2.918,0,0,0,.76.325,3.285,3.285,0,0,1,1.347.69,1.374,1.374,0,0,1,.423,1.026,1.266,1.266,0,0,1-.517,1.071A2.261,2.261,0,0,1,64.36.072,2.686,2.686,0,0,1,63.255-.15a1.749,1.749,0,0,1-.76-.609,1.559,1.559,0,0,1-.262-.9H63.32q0,.871,1.04.871a1.012,1.012,0,0,0,.6-.157A.511.511,0,0,0,65.18-1.38Zm1.806.867a.526.526,0,0,1,.168-.4.6.6,0,0,1,.421-.155A.6.6,0,0,1,68-.918a.526.526,0,0,1,.168.4.518.518,0,0,1-.166.4.6.6,0,0,1-.426.154.6.6,0,0,1-.423-.154A.518.518,0,0,1,66.986-.513ZM73.43,0H72.347V-2.254H70.234V0H69.15V-5.259h1.084v2.131h2.113V-5.259H73.43Zm.932-.513a.526.526,0,0,1,.168-.4.6.6,0,0,1,.421-.155.6.6,0,0,1,.424.155.526.526,0,0,1,.168.4.518.518,0,0,1-.166.4.6.6,0,0,1-.426.154.6.6,0,0,1-.423-.154A.518.518,0,0,1,74.362-.513Z" transform="translate(409.575 15226.708) rotate(-90)" fill="#161615"/>
    <path id="Trazado_881519" data-name="Trazado 881519" d="M4.6-1.752A1.861,1.861,0,0,1,3.972-.415a2.2,2.2,0,0,1-1.49.488A1.979,1.979,0,0,1,.89-.609a2.792,2.792,0,0,1-.58-1.869V-2.8A3.153,3.153,0,0,1,.578-4.136a2,2,0,0,1,.764-.887A2.14,2.14,0,0,1,2.5-5.332a2.144,2.144,0,0,1,1.467.488,2,2,0,0,1,.643,1.369H3.522a1.1,1.1,0,0,0-.284-.739A1.05,1.05,0,0,0,2.5-4.443a.921.921,0,0,0-.811.388,2.176,2.176,0,0,0-.276,1.2v.4a2.329,2.329,0,0,0,.258,1.246.9.9,0,0,0,.815.394,1.07,1.07,0,0,0,.75-.229,1.036,1.036,0,0,0,.284-.71Zm.48-.238A2.318,2.318,0,0,1,5.3-3.027a1.64,1.64,0,0,1,.645-.7,1.881,1.881,0,0,1,.977-.249A1.78,1.78,0,0,1,8.216-3.5a1.943,1.943,0,0,1,.558,1.315l.007.267a2.043,2.043,0,0,1-.5,1.443A1.745,1.745,0,0,1,6.932.072,1.754,1.754,0,0,1,5.583-.47a2.079,2.079,0,0,1-.5-1.474Zm1.044.076a1.457,1.457,0,0,0,.21.851.691.691,0,0,0,.6.294.693.693,0,0,0,.592-.291,1.594,1.594,0,0,0,.213-.93,1.442,1.442,0,0,0-.213-.845.693.693,0,0,0-.6-.3.682.682,0,0,0-.592.3A1.621,1.621,0,0,0,6.123-1.914Zm5.418.834a.336.336,0,0,0-.19-.3,2.154,2.154,0,0,0-.609-.2Q9.349-1.871,9.349-2.763a1.074,1.074,0,0,1,.432-.869,1.741,1.741,0,0,1,1.129-.349,1.874,1.874,0,0,1,1.19.35,1.1,1.1,0,0,1,.446.91H11.5a.505.505,0,0,0-.144-.37.611.611,0,0,0-.452-.146.625.625,0,0,0-.408.119.376.376,0,0,0-.144.3.322.322,0,0,0,.164.28,1.691,1.691,0,0,0,.554.184,4.529,4.529,0,0,1,.657.175,1.08,1.08,0,0,1,.827,1.051,1.02,1.02,0,0,1-.459.865,1.979,1.979,0,0,1-1.185.331A2.067,2.067,0,0,1,10.04-.1a1.464,1.464,0,0,1-.6-.48,1.116,1.116,0,0,1-.217-.659h.99a.545.545,0,0,0,.206.426.817.817,0,0,0,.513.148.756.756,0,0,0,.453-.114A.354.354,0,0,0,11.541-1.08Zm2.937-3.789v.961h.668v.766h-.668v1.951a.466.466,0,0,0,.083.311.417.417,0,0,0,.318.094,1.665,1.665,0,0,0,.307-.025v.791a2.149,2.149,0,0,1-.632.094,1,1,0,0,1-1.12-1.109V-3.143h-.571v-.766h.571v-.961ZM17.993,0a1.159,1.159,0,0,1-.1-.35A1.263,1.263,0,0,1,16.9.072,1.388,1.388,0,0,1,15.95-.26a1.069,1.069,0,0,1-.377-.838,1.1,1.1,0,0,1,.461-.954,2.273,2.273,0,0,1,1.331-.336h.48v-.224a.644.644,0,0,0-.139-.433.547.547,0,0,0-.439-.163.622.622,0,0,0-.414.126.429.429,0,0,0-.15.347H15.659a1.049,1.049,0,0,1,.21-.629,1.385,1.385,0,0,1,.592-.453,2.159,2.159,0,0,1,.86-.164,1.706,1.706,0,0,1,1.147.363,1.27,1.27,0,0,1,.424,1.02V-.9a1.869,1.869,0,0,0,.155.842V0Zm-.863-.726a.9.9,0,0,0,.426-.1.676.676,0,0,0,.289-.276v-.672h-.39q-.784,0-.834.542l0,.061a.418.418,0,0,0,.137.321A.533.533,0,0,0,17.129-.726Zm2.4-1.257a2.355,2.355,0,0,1,.41-1.456,1.33,1.33,0,0,1,1.122-.542,1.2,1.2,0,0,1,.943.426V-5.548h1.048V0h-.943L22.06-.415a1.228,1.228,0,0,1-1,.488,1.327,1.327,0,0,1-1.107-.544A2.431,2.431,0,0,1,19.531-1.983Zm1.044.076a1.539,1.539,0,0,0,.191.842.624.624,0,0,0,.556.293.7.7,0,0,0,.683-.408V-2.724a.689.689,0,0,0-.675-.408Q20.575-3.132,20.575-1.907ZM24.964,0H23.917V-3.908h1.048ZM23.855-4.92a.514.514,0,0,1,.157-.387.59.59,0,0,1,.428-.152.592.592,0,0,1,.426.152.511.511,0,0,1,.159.387.513.513,0,0,1-.161.39.593.593,0,0,1-.424.152.593.593,0,0,1-.424-.152A.513.513,0,0,1,23.855-4.92ZM26.926,0H25.878V-5.548h1.048Zm1.961,0H27.84V-5.548h1.048Zm.7-1.99a2.318,2.318,0,0,1,.224-1.037,1.64,1.64,0,0,1,.645-.7,1.881,1.881,0,0,1,.977-.249,1.78,1.78,0,0,1,1.291.484,1.943,1.943,0,0,1,.558,1.315l.007.267a2.043,2.043,0,0,1-.5,1.443,1.745,1.745,0,0,1-1.347.544A1.754,1.754,0,0,1,30.088-.47a2.079,2.079,0,0,1-.5-1.474Zm1.044.076a1.457,1.457,0,0,0,.21.851.691.691,0,0,0,.6.294.693.693,0,0,0,.592-.291,1.594,1.594,0,0,0,.213-.93,1.442,1.442,0,0,0-.213-.845.693.693,0,0,0-.6-.3.682.682,0,0,0-.592.3A1.621,1.621,0,0,0,30.628-1.914Zm8.955-2.467H37.972V0H36.888V-4.382H35.3v-.878h4.284ZM38.33-.513a.526.526,0,0,1,.168-.4.6.6,0,0,1,.421-.155.6.6,0,0,1,.424.155.526.526,0,0,1,.168.4.518.518,0,0,1-.166.4.6.6,0,0,1-.426.154A.6.6,0,0,1,38.5-.114.518.518,0,0,1,38.33-.513Zm4.125-1.318H40.421v-.842h2.034Zm3.634.452a.556.556,0,0,0-.217-.471,2.843,2.843,0,0,0-.78-.347,5.531,5.531,0,0,1-.892-.359,1.458,1.458,0,0,1-.9-1.3,1.27,1.27,0,0,1,.24-.76,1.567,1.567,0,0,1,.69-.522,2.6,2.6,0,0,1,1.01-.188,2.364,2.364,0,0,1,1,.2,1.6,1.6,0,0,1,.685.576,1.508,1.508,0,0,1,.244.845H46.092a.709.709,0,0,0-.228-.562.935.935,0,0,0-.639-.2,1,1,0,0,0-.618.168.53.53,0,0,0-.22.443.507.507,0,0,0,.258.43,2.918,2.918,0,0,0,.76.325,3.285,3.285,0,0,1,1.347.69,1.374,1.374,0,0,1,.423,1.026A1.266,1.266,0,0,1,46.66-.316a2.261,2.261,0,0,1-1.391.388A2.686,2.686,0,0,1,44.163-.15a1.749,1.749,0,0,1-.76-.609,1.559,1.559,0,0,1-.262-.9h1.087q0,.871,1.04.871a1.012,1.012,0,0,0,.6-.157A.511.511,0,0,0,46.089-1.38Zm1.806.867a.526.526,0,0,1,.168-.4.6.6,0,0,1,.421-.155.6.6,0,0,1,.424.155.526.526,0,0,1,.168.4.518.518,0,0,1-.166.4.6.6,0,0,1-.426.154.6.6,0,0,1-.423-.154A.518.518,0,0,1,47.895-.513ZM54.339,0H53.255V-2.254H51.142V0H50.059V-5.259h1.084v2.131h2.113V-5.259h1.084Zm.932-.513a.526.526,0,0,1,.168-.4.6.6,0,0,1,.421-.155.6.6,0,0,1,.424.155.526.526,0,0,1,.168.4.518.518,0,0,1-.166.4A.6.6,0,0,1,55.86.04a.6.6,0,0,1-.423-.154A.518.518,0,0,1,55.271-.513Z" transform="translate(586.162 15244.105) rotate(-90)" fill="#161615"/>
    <path id="Trazado_881520" data-name="Trazado 881520" d="M4.6-1.752A1.861,1.861,0,0,1,3.972-.415a2.2,2.2,0,0,1-1.49.488A1.979,1.979,0,0,1,.89-.609a2.792,2.792,0,0,1-.58-1.869V-2.8A3.153,3.153,0,0,1,.578-4.136a2,2,0,0,1,.764-.887A2.14,2.14,0,0,1,2.5-5.332a2.144,2.144,0,0,1,1.467.488,2,2,0,0,1,.643,1.369H3.522a1.1,1.1,0,0,0-.284-.739A1.05,1.05,0,0,0,2.5-4.443a.921.921,0,0,0-.811.388,2.176,2.176,0,0,0-.276,1.2v.4a2.329,2.329,0,0,0,.258,1.246.9.9,0,0,0,.815.394,1.07,1.07,0,0,0,.75-.229,1.036,1.036,0,0,0,.284-.71ZM7.04.072a1.919,1.919,0,0,1-1.4-.527A1.875,1.875,0,0,1,5.1-1.86v-.1a2.361,2.361,0,0,1,.228-1.053,1.67,1.67,0,0,1,.645-.715,1.81,1.81,0,0,1,.952-.251,1.622,1.622,0,0,1,1.262.506,2.055,2.055,0,0,1,.461,1.434v.426H6.159A.97.97,0,0,0,6.464-1a.923.923,0,0,0,.645.231,1.127,1.127,0,0,0,.943-.437l.513.574a1.567,1.567,0,0,1-.636.518A2.086,2.086,0,0,1,7.04.072ZM6.921-3.135a.654.654,0,0,0-.5.21,1.082,1.082,0,0,0-.247.6H7.622v-.083a.772.772,0,0,0-.188-.536A.675.675,0,0,0,6.921-3.135Zm3.28-.773.033.452a1.365,1.365,0,0,1,1.123-.524,1.134,1.134,0,0,1,.925.365,1.7,1.7,0,0,1,.311,1.091V0H11.548V-2.5a.677.677,0,0,0-.144-.482.647.647,0,0,0-.48-.15.718.718,0,0,0-.661.376V0H9.219V-3.908Zm4.432-.961v.961H15.3v.766h-.668v1.951a.466.466,0,0,0,.083.311.417.417,0,0,0,.318.094,1.665,1.665,0,0,0,.307-.025v.791a2.149,2.149,0,0,1-.632.094,1,1,0,0,1-1.12-1.109V-3.143h-.571v-.766h.571v-.961Zm3.446,1.94a2.836,2.836,0,0,0-.376-.029.765.765,0,0,0-.777.4V0H15.883V-3.908h.986l.029.466a.967.967,0,0,1,.871-.538,1.094,1.094,0,0,1,.325.047Zm.143.939a2.318,2.318,0,0,1,.224-1.037,1.64,1.64,0,0,1,.645-.7,1.881,1.881,0,0,1,.977-.249A1.78,1.78,0,0,1,21.36-3.5a1.943,1.943,0,0,1,.558,1.315l.007.267a2.043,2.043,0,0,1-.5,1.443,1.745,1.745,0,0,1-1.347.544A1.754,1.754,0,0,1,18.726-.47a2.079,2.079,0,0,1-.5-1.474Zm1.044.076a1.457,1.457,0,0,0,.21.851.692.692,0,0,0,.6.294.693.693,0,0,0,.592-.291,1.594,1.594,0,0,0,.213-.93,1.442,1.442,0,0,0-.213-.845.693.693,0,0,0-.6-.3.682.682,0,0,0-.592.3A1.621,1.621,0,0,0,19.266-1.915Zm4.981-.069a2.355,2.355,0,0,1,.41-1.456,1.33,1.33,0,0,1,1.122-.542,1.2,1.2,0,0,1,.943.426V-5.548H27.77V0h-.943l-.051-.415a1.228,1.228,0,0,1-1,.488,1.327,1.327,0,0,1-1.107-.544A2.431,2.431,0,0,1,24.248-1.983Zm1.044.076a1.539,1.539,0,0,0,.191.842.624.624,0,0,0,.556.293.7.7,0,0,0,.683-.408V-2.724a.689.689,0,0,0-.675-.408Q25.292-3.132,25.292-1.907ZM30.378.072a1.919,1.919,0,0,1-1.4-.527,1.875,1.875,0,0,1-.54-1.405v-.1a2.361,2.361,0,0,1,.228-1.053,1.67,1.67,0,0,1,.645-.715,1.81,1.81,0,0,1,.952-.251,1.622,1.622,0,0,1,1.262.506,2.055,2.055,0,0,1,.461,1.434v.426H29.5A.97.97,0,0,0,29.8-1a.923.923,0,0,0,.645.231,1.127,1.127,0,0,0,.943-.437l.513.574a1.567,1.567,0,0,1-.636.518A2.086,2.086,0,0,1,30.378.072Zm-.119-3.208a.654.654,0,0,0-.5.21,1.082,1.082,0,0,0-.247.6h1.452v-.083a.772.772,0,0,0-.188-.536A.675.675,0,0,0,30.258-3.135Zm3.569-1.734v.961H34.5v.766h-.668v1.951a.466.466,0,0,0,.083.311.417.417,0,0,0,.318.094,1.665,1.665,0,0,0,.307-.025v.791A2.149,2.149,0,0,1,33.9.072a1,1,0,0,1-1.12-1.109V-3.143h-.571v-.766h.571v-.961Zm3.446,1.94a2.836,2.836,0,0,0-.376-.029.765.765,0,0,0-.777.4V0H35.077V-3.908h.986l.029.466a.967.967,0,0,1,.871-.538,1.094,1.094,0,0,1,.325.047ZM40.041,0a1.159,1.159,0,0,1-.1-.35,1.263,1.263,0,0,1-.986.423A1.388,1.388,0,0,1,38-.26,1.069,1.069,0,0,1,37.62-1.1a1.1,1.1,0,0,1,.461-.954,2.273,2.273,0,0,1,1.331-.336h.48v-.224a.644.644,0,0,0-.139-.433.547.547,0,0,0-.439-.163.622.622,0,0,0-.414.126.429.429,0,0,0-.15.347H37.707a1.049,1.049,0,0,1,.21-.629,1.385,1.385,0,0,1,.592-.453,2.159,2.159,0,0,1,.86-.164,1.706,1.706,0,0,1,1.147.363A1.27,1.27,0,0,1,40.94-2.6V-.9a1.869,1.869,0,0,0,.155.842V0Zm-.863-.726a.9.9,0,0,0,.426-.1.676.676,0,0,0,.289-.276v-.672H39.5q-.784,0-.834.542l0,.061a.418.418,0,0,0,.137.321A.533.533,0,0,0,39.177-.726Zm.4-4.822h1.138l-1,1.12h-.849ZM43.859-1.08a.336.336,0,0,0-.19-.3,2.154,2.154,0,0,0-.609-.2q-1.394-.293-1.394-1.185a1.074,1.074,0,0,1,.432-.869,1.741,1.741,0,0,1,1.129-.349,1.874,1.874,0,0,1,1.19.35,1.1,1.1,0,0,1,.446.91H43.819a.505.505,0,0,0-.144-.37.611.611,0,0,0-.452-.146.625.625,0,0,0-.408.119.376.376,0,0,0-.144.3.322.322,0,0,0,.164.28,1.691,1.691,0,0,0,.554.184,4.529,4.529,0,0,1,.657.175,1.08,1.08,0,0,1,.827,1.051,1.02,1.02,0,0,1-.459.865A1.979,1.979,0,0,1,43.23.072,2.067,2.067,0,0,1,42.358-.1a1.464,1.464,0,0,1-.6-.48,1.116,1.116,0,0,1-.217-.659h.99a.545.545,0,0,0,.206.426.817.817,0,0,0,.513.148.756.756,0,0,0,.453-.114A.354.354,0,0,0,43.859-1.08Zm5.559-.751H47.384v-.842h2.034Zm5.476.452a.556.556,0,0,0-.217-.471A2.843,2.843,0,0,0,53.9-2.2,5.531,5.531,0,0,1,53-2.557a1.458,1.458,0,0,1-.9-1.3,1.27,1.27,0,0,1,.24-.76,1.567,1.567,0,0,1,.69-.522,2.6,2.6,0,0,1,1.01-.188,2.364,2.364,0,0,1,1,.2,1.6,1.6,0,0,1,.685.576,1.508,1.508,0,0,1,.244.845H54.9a.709.709,0,0,0-.228-.562.935.935,0,0,0-.639-.2,1,1,0,0,0-.618.168.53.53,0,0,0-.22.443.507.507,0,0,0,.258.43,2.918,2.918,0,0,0,.76.325,3.285,3.285,0,0,1,1.347.69,1.374,1.374,0,0,1,.423,1.026,1.266,1.266,0,0,1-.517,1.071,2.261,2.261,0,0,1-1.391.388A2.686,2.686,0,0,1,52.969-.15a1.749,1.749,0,0,1-.76-.609,1.559,1.559,0,0,1-.262-.9h1.087q0,.871,1.04.871a1.012,1.012,0,0,0,.6-.157A.511.511,0,0,0,54.894-1.38ZM56.7-.513a.526.526,0,0,1,.168-.4.6.6,0,0,1,.421-.155.6.6,0,0,1,.424.155.526.526,0,0,1,.168.4.518.518,0,0,1-.166.4.6.6,0,0,1-.426.154.6.6,0,0,1-.423-.154A.518.518,0,0,1,56.7-.513ZM63.145,0H62.061V-2.254H59.948V0H58.864V-5.259h1.084v2.131h2.113V-5.259h1.084Zm.932-.513a.526.526,0,0,1,.168-.4.6.6,0,0,1,.421-.155.6.6,0,0,1,.424.155.526.526,0,0,1,.168.4.518.518,0,0,1-.166.4.6.6,0,0,1-.426.154.6.6,0,0,1-.423-.154A.518.518,0,0,1,64.077-.513Z" transform="translate(692.588 15232.903) rotate(-92.051)" fill="#161615"/>
    <path id="Trazado_881521" data-name="Trazado 881521" d="M3.963,0H.358V-.715l1.7-1.813A4.2,4.2,0,0,0,2.577-3.2a1.074,1.074,0,0,0,.168-.542.8.8,0,0,0-.177-.551.639.639,0,0,0-.506-.2.689.689,0,0,0-.558.244.966.966,0,0,0-.2.641H.253a1.724,1.724,0,0,1,.229-.878,1.617,1.617,0,0,1,.648-.623,1.971,1.971,0,0,1,.95-.226,1.866,1.866,0,0,1,1.262.39,1.38,1.38,0,0,1,.45,1.1,1.768,1.768,0,0,1-.2.795A4.416,4.416,0,0,1,2.9-2.1L1.7-.842H3.963Z" transform="matrix(1, -0.025, 0.025, 1, 463.104, 15207.711)" fill="#161615"/>
    <path id="Trazado_881234" data-name="Trazado 881234" d="M68.79,369.255c-.085-1.279,2.939-26.811,2.939-26.811" transform="translate(356.711 14945.864)" fill="none" stroke="#0c1d2f" stroke-linecap="round" stroke-linejoin="round" stroke-width="1"/>
    <path id="Trazado_881522" data-name="Trazado 881522" d="M0,0H361.386V370.467H0Z" transform="translate(356.711 14945.864)" fill="none"/>
  </g>
</svg>
