<svg xmlns="http://www.w3.org/2000/svg" width="234.094" height="382.891" viewBox="0 0 234.094 382.891">
  <g id="Grupo_1103498" data-name="Grupo 1103498" transform="translate(6911 -3243.664)">
    <path id="Trazado_881304" data-name="Trazado 881304" d="M.5,73.494s31.941-8.581,54.348-41S101.093-13.75,144,20.1l13.348,12.873s5.244,95.349,4.291,137.778-8.581,140.163-21.931,209.291L41.023,376.7s-9.058,2.86-14.3,1.907l-9.058-2.385L1.454,380.04S8.127,118.308.5,73.494Z" transform="translate(-6910.778 3243.886)" fill="none" stroke="#0c1d2f" stroke-linecap="round" stroke-linejoin="round" stroke-width="1"/>
    <path id="Trazado_881305" data-name="Trazado 881305" d="M117,22s19.546,39.57,57.208,40.046c0,0-2.383,254.581,9.534,305.593,0,0-45.289,4.768-62.93,4.768C120.81,372.411,103.649,116.876,117,22Z" transform="translate(-6861.369 3253.422)" fill="none" stroke="#0c1d2f" stroke-linecap="round" stroke-linejoin="round" stroke-width="1"/>
    <path id="Trazado_881578" data-name="Trazado 881578" d="M1.445,0,0,327.045" transform="translate(-6867.386 3292.113)" fill="none" stroke="#0c1d2f" stroke-linecap="round" stroke-width="1"/>
    <path id="Trazado_881306" data-name="Trazado 881306" d="M20.335,333.809s-9.585-173.9-3.3-237.661" transform="translate(-6904.393 3286.303)" fill="none" stroke="#0c1d2f" stroke-linecap="round" stroke-linejoin="round" stroke-width="1"/>
    <path id="Trazado_881307" data-name="Trazado 881307" d="M21.869,106.319l-1.4.368-2.416-9.14L14.033,106.1l-1.306-.615,5.713-12.144Z" transform="translate(-6905.356 3285.06)" fill="#0c1d2f"/>
    <path id="Trazado_881579" data-name="Trazado 881579" d="M1.875,240.014,0,0" transform="translate(-6718.119 3383.912)" fill="none" stroke="#0c1d2f" stroke-linecap="round" stroke-width="1"/>
    <path id="Trazado_881308" data-name="Trazado 881308" d="M139.67,106.91l-1.354.5-3.3-8.859-3.164,8.909-1.36-.482,4.491-12.648Z" transform="translate(-6853.131 3285.499)" fill="#0c1d2f"/>
    <path id="Trazado_881580" data-name="Trazado 881580" d="M0,2.847,220.732,0" transform="translate(-6908.848 3314.996)" fill="none" stroke="#9eb3c8" stroke-width="1" stroke-dasharray="3 3"/>
    <path id="Trazado_881581" data-name="Trazado 881581" d="M3.3,348.234,0,0" transform="translate(-6804.402 3272.831)" fill="none" stroke="#0c1d2f" stroke-linecap="round" stroke-width="1"/>
    <path id="Trazado_881309" data-name="Trazado 881309" d="M79.9,29.948l-1.353.507L75.235,21.6l-3.15,8.915-1.361-.481,4.47-12.654Z" transform="translate(-6879.636 3251.372)" fill="#0c1d2f"/>
    <path id="Trazado_881582" data-name="Trazado 881582" d="M0,0H12.4" transform="translate(-6872.139 3439.903)" fill="none" stroke="#0c1d2f" stroke-linecap="round" stroke-width="1"/>
    <path id="Trazado_881583" data-name="Trazado 881583" d="M0,0H12.4" transform="translate(-6755.813 3439.903)" fill="none" stroke="#0c1d2f" stroke-linecap="round" stroke-width="1"/>
    <path id="Trazado_881584" data-name="Trazado 881584" d="M0,0H234.094V382.891H0Z" transform="translate(-6911 3243.664)" fill="none"/>
    <path id="Trazado_881574" data-name="Trazado 881574" d="M2.8-7.82,4.813-2.148l2-5.672H8.927V0H7.31V-2.138l.161-3.69L5.36,0H4.254L2.148-5.822,2.31-2.138V0H.7V-7.82ZM13.6,0a1.724,1.724,0,0,1-.156-.521,1.878,1.878,0,0,1-1.466.628,2.063,2.063,0,0,1-1.415-.494A1.589,1.589,0,0,1,10-1.633a1.642,1.642,0,0,1,.685-1.418,3.379,3.379,0,0,1,1.979-.5h.714v-.333a.958.958,0,0,0-.207-.645.813.813,0,0,0-.653-.242.925.925,0,0,0-.615.188.639.639,0,0,0-.223.516H10.13A1.559,1.559,0,0,1,10.441-5a2.059,2.059,0,0,1,.881-.674A3.21,3.21,0,0,1,12.6-5.919a2.536,2.536,0,0,1,1.705.54,1.888,1.888,0,0,1,.631,1.517v2.519a2.778,2.778,0,0,0,.231,1.251V0ZM12.316-1.08a1.337,1.337,0,0,0,.634-.153,1,1,0,0,0,.43-.411v-1H12.8q-1.166,0-1.241.806l-.005.091a.621.621,0,0,0,.2.478A.793.793,0,0,0,12.316-1.08Zm5.242-4.732.048.671a2.029,2.029,0,0,1,1.67-.779,1.686,1.686,0,0,1,1.375.542,2.531,2.531,0,0,1,.462,1.622V0H19.562V-3.725a1.011,1.011,0,0,0-.215-.719.96.96,0,0,0-.714-.223,1.067,1.067,0,0,0-.983.56V0H16.1V-5.812Zm4.506,2.863A3.406,3.406,0,0,1,22.7-5.1a2.062,2.062,0,0,1,1.716-.816,1.809,1.809,0,0,1,1.488.655l.064-.548h1.407V-.193a2.484,2.484,0,0,1-.346,1.327,2.225,2.225,0,0,1-.975.859,3.427,3.427,0,0,1-1.472.3,3.187,3.187,0,0,1-1.246-.255,2.212,2.212,0,0,1-.918-.658L23.106.43a1.818,1.818,0,0,0,1.407.65,1.331,1.331,0,0,0,.961-.33,1.239,1.239,0,0,0,.344-.937V-.5a1.8,1.8,0,0,1-1.413.607,2.057,2.057,0,0,1-1.695-.819,3.405,3.405,0,0,1-.647-2.173Zm1.552.11a2.132,2.132,0,0,0,.317,1.244,1.007,1.007,0,0,0,.87.451,1.077,1.077,0,0,0,1.015-.534V-4.133a1.075,1.075,0,0,0-1-.534,1.014,1.014,0,0,0-.878.459A2.4,2.4,0,0,0,23.617-2.838ZM31.937,0a1.724,1.724,0,0,1-.156-.521,1.878,1.878,0,0,1-1.466.628A2.063,2.063,0,0,1,28.9-.387a1.589,1.589,0,0,1-.561-1.246,1.642,1.642,0,0,1,.685-1.418A3.379,3.379,0,0,1,31-3.55h.714v-.333a.958.958,0,0,0-.207-.645.813.813,0,0,0-.653-.242.925.925,0,0,0-.615.188.639.639,0,0,0-.223.516H28.467A1.559,1.559,0,0,1,28.778-5a2.059,2.059,0,0,1,.881-.674,3.21,3.21,0,0,1,1.278-.244,2.536,2.536,0,0,1,1.705.54,1.888,1.888,0,0,1,.631,1.517v2.519A2.778,2.778,0,0,0,33.5-.091V0ZM30.653-1.08a1.337,1.337,0,0,0,.634-.153,1,1,0,0,0,.43-.411v-1h-.58q-1.166,0-1.241.806l-.005.091a.621.621,0,0,0,.2.478A.793.793,0,0,0,30.653-1.08Z" transform="translate(-6848.5 3331.009)" fill="#0c1d2e"/>
    <path id="Trazado_881575" data-name="Trazado 881575" d="M6.837-2.6A2.767,2.767,0,0,1,5.906-.618,3.273,3.273,0,0,1,3.69.107,2.943,2.943,0,0,1,1.324-.905a4.151,4.151,0,0,1-.862-2.78v-.478a4.688,4.688,0,0,1,.4-1.987A2.979,2.979,0,0,1,2-7.469a3.182,3.182,0,0,1,1.716-.459A3.188,3.188,0,0,1,5.892-7.2a2.974,2.974,0,0,1,.956,2.036H5.237a1.633,1.633,0,0,0-.422-1.1,1.561,1.561,0,0,0-1.1-.341,1.369,1.369,0,0,0-1.206.577,3.236,3.236,0,0,0-.411,1.791v.591a3.463,3.463,0,0,0,.384,1.853,1.344,1.344,0,0,0,1.211.585A1.591,1.591,0,0,0,4.8-1.55,1.54,1.54,0,0,0,5.226-2.6ZM7.874-.763a.781.781,0,0,1,.25-.6A.886.886,0,0,1,8.75-1.6a.893.893,0,0,1,.631.231.781.781,0,0,1,.25.6.771.771,0,0,1-.247.594A.9.9,0,0,1,8.75.059a.89.89,0,0,1-.628-.228A.771.771,0,0,1,7.874-.763ZM17.886-2.052a.827.827,0,0,0-.322-.7,4.227,4.227,0,0,0-1.16-.516A8.224,8.224,0,0,1,15.077-3.8a2.168,2.168,0,0,1-1.332-1.939A1.888,1.888,0,0,1,14.1-6.872a2.33,2.33,0,0,1,1.026-.776,3.861,3.861,0,0,1,1.5-.279,3.515,3.515,0,0,1,1.493.3,2.378,2.378,0,0,1,1.018.857A2.242,2.242,0,0,1,19.5-5.511H17.891a1.055,1.055,0,0,0-.338-.835,1.391,1.391,0,0,0-.951-.3,1.486,1.486,0,0,0-.918.25.788.788,0,0,0-.328.658.754.754,0,0,0,.384.639,4.339,4.339,0,0,0,1.131.483,4.885,4.885,0,0,1,2,1.026A2.043,2.043,0,0,1,19.5-2.062,1.882,1.882,0,0,1,18.734-.47a3.362,3.362,0,0,1-2.068.577,3.993,3.993,0,0,1-1.644-.33,2.6,2.6,0,0,1-1.131-.905A2.318,2.318,0,0,1,13.5-2.46H15.12q0,1.294,1.547,1.294a1.5,1.5,0,0,0,.9-.234A.76.76,0,0,0,17.886-2.052Zm2.363-.908A3.447,3.447,0,0,1,20.582-4.5a2.438,2.438,0,0,1,.959-1.047,2.8,2.8,0,0,1,1.453-.371,2.646,2.646,0,0,1,1.92.72,2.889,2.889,0,0,1,.83,1.955l.011.4A3.038,3.038,0,0,1,25.008-.7a2.6,2.6,0,0,1-2,.808A2.608,2.608,0,0,1,21-.7a3.091,3.091,0,0,1-.749-2.191Zm1.552.11a2.172,2.172,0,0,0,.312,1.267A1.028,1.028,0,0,0,23-1.144a1.03,1.03,0,0,0,.881-.433A2.377,2.377,0,0,0,24.2-2.962a2.151,2.151,0,0,0-.317-1.259,1.03,1.03,0,0,0-.892-.446,1.013,1.013,0,0,0-.881.444A2.417,2.417,0,0,0,21.8-2.849Zm10.146,0a3.519,3.519,0,0,1-.6,2.178,1.975,1.975,0,0,1-1.665.781,1.814,1.814,0,0,1-1.509-.725L28.107,0h-1.4V-8.25h1.552v2.959a1.768,1.768,0,0,1,1.413-.628,1.991,1.991,0,0,1,1.668.781,3.524,3.524,0,0,1,.6,2.2ZM30.4-2.97a2.325,2.325,0,0,0-.279-1.29.943.943,0,0,0-.833-.407,1.024,1.024,0,0,0-1.021.609v2.3a1.037,1.037,0,0,0,1.031.614.959.959,0,0,0,.988-.743A3.846,3.846,0,0,0,30.4-2.97Zm5.774-1.386A4.217,4.217,0,0,0,35.61-4.4a1.137,1.137,0,0,0-1.155.6V0H32.9V-5.812H34.37l.043.693a1.438,1.438,0,0,1,1.294-.8,1.626,1.626,0,0,1,.483.07ZM39.389.107a2.853,2.853,0,0,1-2.081-.784,2.787,2.787,0,0,1-.8-2.089v-.15a3.511,3.511,0,0,1,.338-1.566A2.483,2.483,0,0,1,37.8-5.546a2.691,2.691,0,0,1,1.415-.373,2.412,2.412,0,0,1,1.877.752,3.056,3.056,0,0,1,.685,2.132V-2.4h-3.7a1.442,1.442,0,0,0,.454.913,1.372,1.372,0,0,0,.959.344,1.675,1.675,0,0,0,1.4-.65l.763.854a2.33,2.33,0,0,1-.945.771A3.1,3.1,0,0,1,39.389.107Zm-.177-4.775a.97.97,0,0,0-.749.313,1.62,1.62,0,0,0-.368.9h2.159v-.124a1.156,1.156,0,0,0-.279-.8A1,1,0,0,0,39.212-4.667Zm4.9-1.144.048.65a2.042,2.042,0,0,1,1.67-.757,1.55,1.55,0,0,1,1.542.886,2,2,0,0,1,1.746-.886,1.733,1.733,0,0,1,1.407.551,2.531,2.531,0,0,1,.462,1.657V0H49.433V-3.715a1.111,1.111,0,0,0-.193-.724.856.856,0,0,0-.682-.229A.969.969,0,0,0,47.591-4L47.6,0H46.044V-3.709a1.1,1.1,0,0,0-.2-.732.864.864,0,0,0-.677-.226,1.006,1.006,0,0,0-.956.549V0H42.66V-5.812ZM55.551,0A1.724,1.724,0,0,1,55.4-.521a1.878,1.878,0,0,1-1.466.628,2.063,2.063,0,0,1-1.415-.494,1.589,1.589,0,0,1-.561-1.246,1.642,1.642,0,0,1,.685-1.418,3.379,3.379,0,0,1,1.979-.5h.714v-.333a.958.958,0,0,0-.207-.645.813.813,0,0,0-.653-.242.925.925,0,0,0-.615.188.639.639,0,0,0-.223.516H52.081A1.559,1.559,0,0,1,52.393-5a2.059,2.059,0,0,1,.881-.674,3.21,3.21,0,0,1,1.278-.244,2.536,2.536,0,0,1,1.705.54,1.888,1.888,0,0,1,.631,1.517v2.519a2.778,2.778,0,0,0,.231,1.251V0ZM54.267-1.08a1.337,1.337,0,0,0,.634-.153,1,1,0,0,0,.43-.411v-1h-.58q-1.166,0-1.241.806l-.005.091a.621.621,0,0,0,.2.478A.793.793,0,0,0,54.267-1.08Zm5.242-4.732.048.671a2.029,2.029,0,0,1,1.67-.779,1.686,1.686,0,0,1,1.375.542,2.531,2.531,0,0,1,.462,1.622V0H61.513V-3.725a1.011,1.011,0,0,0-.215-.719.96.96,0,0,0-.714-.223,1.067,1.067,0,0,0-.983.56V0H58.048V-5.812Zm4.506,2.863A3.406,3.406,0,0,1,64.652-5.1a2.062,2.062,0,0,1,1.716-.816,1.809,1.809,0,0,1,1.488.655l.064-.548h1.407V-.193a2.484,2.484,0,0,1-.346,1.327,2.225,2.225,0,0,1-.975.859,3.427,3.427,0,0,1-1.472.3,3.187,3.187,0,0,1-1.246-.255,2.212,2.212,0,0,1-.918-.658L65.058.43a1.818,1.818,0,0,0,1.407.65,1.331,1.331,0,0,0,.961-.33,1.239,1.239,0,0,0,.344-.937V-.5a1.8,1.8,0,0,1-1.413.607,2.057,2.057,0,0,1-1.695-.819,3.4,3.4,0,0,1-.647-2.173Zm1.552.11a2.132,2.132,0,0,0,.317,1.244,1.007,1.007,0,0,0,.87.451,1.077,1.077,0,0,0,1.015-.534V-4.133a1.075,1.075,0,0,0-1-.534,1.014,1.014,0,0,0-.878.459A2.4,2.4,0,0,0,65.568-2.838ZM73.888,0a1.724,1.724,0,0,1-.156-.521,1.878,1.878,0,0,1-1.466.628A2.063,2.063,0,0,1,70.85-.387a1.589,1.589,0,0,1-.561-1.246,1.642,1.642,0,0,1,.685-1.418,3.379,3.379,0,0,1,1.979-.5h.714v-.333a.958.958,0,0,0-.207-.645.813.813,0,0,0-.653-.242.925.925,0,0,0-.615.188.639.639,0,0,0-.223.516H70.418A1.559,1.559,0,0,1,70.73-5a2.059,2.059,0,0,1,.881-.674,3.21,3.21,0,0,1,1.278-.244,2.536,2.536,0,0,1,1.705.54,1.888,1.888,0,0,1,.631,1.517v2.519a2.778,2.778,0,0,0,.231,1.251V0ZM72.6-1.08a1.337,1.337,0,0,0,.634-.153,1,1,0,0,0,.43-.411v-1h-.58q-1.166,0-1.241.806l-.005.091a.621.621,0,0,0,.2.478A.793.793,0,0,0,72.6-1.08Zm9.571-1.644H79.151V-3.975h3.024Zm8.143.671a.827.827,0,0,0-.322-.7,4.227,4.227,0,0,0-1.16-.516A8.224,8.224,0,0,1,87.509-3.8a2.168,2.168,0,0,1-1.332-1.939,1.888,1.888,0,0,1,.357-1.131,2.33,2.33,0,0,1,1.026-.776,3.861,3.861,0,0,1,1.5-.279,3.515,3.515,0,0,1,1.493.3,2.378,2.378,0,0,1,1.018.857,2.242,2.242,0,0,1,.363,1.257H90.323a1.055,1.055,0,0,0-.338-.835,1.391,1.391,0,0,0-.951-.3,1.486,1.486,0,0,0-.918.25.788.788,0,0,0-.328.658.755.755,0,0,0,.384.639,4.339,4.339,0,0,0,1.131.483,4.885,4.885,0,0,1,2,1.026,2.043,2.043,0,0,1,.628,1.525A1.882,1.882,0,0,1,91.167-.47,3.362,3.362,0,0,1,89.1.107a3.993,3.993,0,0,1-1.644-.33,2.6,2.6,0,0,1-1.131-.905,2.318,2.318,0,0,1-.389-1.332h1.617q0,1.294,1.547,1.294A1.5,1.5,0,0,0,90-1.4.76.76,0,0,0,90.318-2.052ZM93-.763a.781.781,0,0,1,.25-.6.886.886,0,0,1,.626-.231.893.893,0,0,1,.631.231.781.781,0,0,1,.25.6.771.771,0,0,1-.247.594.9.9,0,0,1-.634.228.89.89,0,0,1-.628-.228A.771.771,0,0,1,93-.763ZM102.586,0h-1.611V-3.352H97.832V0H96.221V-7.82h1.611v3.169h3.142V-7.82h1.611Zm1.386-.763a.781.781,0,0,1,.25-.6.886.886,0,0,1,.626-.231.893.893,0,0,1,.631.231.781.781,0,0,1,.25.6.771.771,0,0,1-.247.594.9.9,0,0,1-.634.228.89.89,0,0,1-.628-.228A.771.771,0,0,1,103.971-.763Z" transform="translate(-6808.621 3531.464) rotate(-90)" fill="#0c1d2e"/>
    <path id="Trazado_881576" data-name="Trazado 881576" d="M.7,0V-7.82H3.438A3.6,3.6,0,0,1,5.6-7.275a1.864,1.864,0,0,1,.736,1.6,1.767,1.767,0,0,1-.3,1.012,1.706,1.706,0,0,1-.822.642,1.651,1.651,0,0,1,.948.607A1.794,1.794,0,0,1,6.51-2.3,2.064,2.064,0,0,1,5.79-.591,3.24,3.24,0,0,1,3.738,0ZM2.31-3.405v2.111H3.69a1.332,1.332,0,0,0,.889-.271.93.93,0,0,0,.32-.749.982.982,0,0,0-1.112-1.09Zm0-1.139H3.5q1.219-.021,1.219-.972a.9.9,0,0,0-.309-.765,1.624,1.624,0,0,0-.975-.234H2.31ZM10.984,0a1.724,1.724,0,0,1-.156-.521A1.878,1.878,0,0,1,9.362.107,2.063,2.063,0,0,1,7.947-.387a1.589,1.589,0,0,1-.561-1.246A1.642,1.642,0,0,1,8.07-3.051a3.379,3.379,0,0,1,1.979-.5h.714v-.333a.958.958,0,0,0-.207-.645A.813.813,0,0,0,9.9-4.77a.925.925,0,0,0-.615.188.639.639,0,0,0-.223.516H7.514A1.559,1.559,0,0,1,7.826-5a2.059,2.059,0,0,1,.881-.674,3.21,3.21,0,0,1,1.278-.244,2.536,2.536,0,0,1,1.705.54,1.888,1.888,0,0,1,.631,1.517v2.519a2.778,2.778,0,0,0,.231,1.251V0ZM9.7-1.08a1.337,1.337,0,0,0,.634-.153,1,1,0,0,0,.43-.411v-1h-.58q-1.166,0-1.241.806l-.005.091a.621.621,0,0,0,.2.478A.793.793,0,0,0,9.7-1.08Zm5.457-4.732V.317a2.079,2.079,0,0,1-.51,1.5,1.939,1.939,0,0,1-1.472.534,3.156,3.156,0,0,1-.768-.091V1.026a2.914,2.914,0,0,0,.489.048q.7,0,.7-.747V-5.812Zm-1.681-1.5a.764.764,0,0,1,.234-.575.878.878,0,0,1,.636-.226.878.878,0,0,1,.636.226.764.764,0,0,1,.234.575.762.762,0,0,1-.239.58.882.882,0,0,1-.631.226.882.882,0,0,1-.631-.226A.762.762,0,0,1,13.476-7.315Zm2.653,4.356A3.447,3.447,0,0,1,16.462-4.5a2.438,2.438,0,0,1,.959-1.047,2.8,2.8,0,0,1,1.453-.371,2.646,2.646,0,0,1,1.92.72,2.889,2.889,0,0,1,.83,1.955l.011.4A3.038,3.038,0,0,1,20.888-.7a2.6,2.6,0,0,1-2,.808A2.608,2.608,0,0,1,16.879-.7a3.091,3.091,0,0,1-.749-2.191Zm1.552.11a2.172,2.172,0,0,0,.312,1.267,1.028,1.028,0,0,0,.892.438,1.03,1.03,0,0,0,.881-.433,2.377,2.377,0,0,0,.317-1.385,2.151,2.151,0,0,0-.317-1.259,1.03,1.03,0,0,0-.892-.446,1.013,1.013,0,0,0-.881.444A2.417,2.417,0,0,0,17.682-2.849Zm6.365-2.962.048.65a2.042,2.042,0,0,1,1.67-.757,1.55,1.55,0,0,1,1.542.886,2,2,0,0,1,1.746-.886,1.733,1.733,0,0,1,1.407.551,2.531,2.531,0,0,1,.462,1.657V0H29.364V-3.715a1.111,1.111,0,0,0-.193-.724.856.856,0,0,0-.682-.229A.969.969,0,0,0,27.521-4l.005,4H25.975V-3.709a1.1,1.1,0,0,0-.2-.732.864.864,0,0,0-.677-.226,1.006,1.006,0,0,0-.956.549V0H22.591V-5.812ZM35.481,0a1.724,1.724,0,0,1-.156-.521,1.878,1.878,0,0,1-1.466.628,2.063,2.063,0,0,1-1.415-.494,1.589,1.589,0,0,1-.561-1.246,1.642,1.642,0,0,1,.685-1.418,3.379,3.379,0,0,1,1.979-.5h.714v-.333a.958.958,0,0,0-.207-.645A.813.813,0,0,0,34.4-4.77a.925.925,0,0,0-.615.188.639.639,0,0,0-.223.516H32.012A1.559,1.559,0,0,1,32.323-5a2.059,2.059,0,0,1,.881-.674,3.21,3.21,0,0,1,1.278-.244,2.536,2.536,0,0,1,1.705.54,1.888,1.888,0,0,1,.631,1.517v2.519A2.778,2.778,0,0,0,37.05-.091V0ZM34.2-1.08a1.337,1.337,0,0,0,.634-.153,1,1,0,0,0,.43-.411v-1h-.58q-1.166,0-1.241.806l-.005.091a.621.621,0,0,0,.2.478A.793.793,0,0,0,34.2-1.08ZM39.44-5.812l.048.671a2.029,2.029,0,0,1,1.67-.779,1.686,1.686,0,0,1,1.375.542A2.531,2.531,0,0,1,43-3.754V0H41.443V-3.725a1.011,1.011,0,0,0-.215-.719.96.96,0,0,0-.714-.223,1.067,1.067,0,0,0-.983.56V0H37.979V-5.812Zm4.506,2.863A3.406,3.406,0,0,1,44.583-5.1,2.062,2.062,0,0,1,46.3-5.919a1.809,1.809,0,0,1,1.488.655l.064-.548h1.407V-.193a2.484,2.484,0,0,1-.346,1.327,2.225,2.225,0,0,1-.975.859,3.427,3.427,0,0,1-1.472.3,3.187,3.187,0,0,1-1.246-.255,2.212,2.212,0,0,1-.918-.658L44.988.43a1.818,1.818,0,0,0,1.407.65,1.331,1.331,0,0,0,.961-.33A1.239,1.239,0,0,0,47.7-.188V-.5a1.8,1.8,0,0,1-1.413.607,2.057,2.057,0,0,1-1.695-.819,3.405,3.405,0,0,1-.647-2.173Zm1.552.11a2.132,2.132,0,0,0,.317,1.244,1.007,1.007,0,0,0,.87.451A1.077,1.077,0,0,0,47.7-1.678V-4.133a1.075,1.075,0,0,0-1-.534,1.014,1.014,0,0,0-.878.459A2.4,2.4,0,0,0,45.5-2.838ZM53.818,0a1.724,1.724,0,0,1-.156-.521A1.878,1.878,0,0,1,52.2.107a2.063,2.063,0,0,1-1.415-.494,1.589,1.589,0,0,1-.561-1.246A1.642,1.642,0,0,1,50.9-3.051a3.379,3.379,0,0,1,1.979-.5H53.6v-.333a.958.958,0,0,0-.207-.645.813.813,0,0,0-.653-.242.925.925,0,0,0-.615.188.639.639,0,0,0-.223.516H50.349A1.559,1.559,0,0,1,50.66-5a2.059,2.059,0,0,1,.881-.674,3.21,3.21,0,0,1,1.278-.244,2.536,2.536,0,0,1,1.705.54,1.888,1.888,0,0,1,.631,1.517v2.519a2.778,2.778,0,0,0,.231,1.251V0ZM52.535-1.08a1.337,1.337,0,0,0,.634-.153,1,1,0,0,0,.43-.411v-1h-.58q-1.166,0-1.241.806l-.005.091a.621.621,0,0,0,.2.478A.793.793,0,0,0,52.535-1.08ZM64.754-6.515h-2.4V0H60.747V-6.515H58.384V-7.82h6.37ZM64.265-.763a.781.781,0,0,1,.25-.6.886.886,0,0,1,.626-.231.893.893,0,0,1,.631.231.781.781,0,0,1,.25.6.771.771,0,0,1-.247.594.9.9,0,0,1-.634.228.89.89,0,0,1-.628-.228A.771.771,0,0,1,64.265-.763ZM70.4-2.723H67.375V-3.975H70.4Zm5.4.671a.827.827,0,0,0-.322-.7,4.227,4.227,0,0,0-1.16-.516A8.224,8.224,0,0,1,72.993-3.8a2.168,2.168,0,0,1-1.332-1.939,1.888,1.888,0,0,1,.357-1.131,2.33,2.33,0,0,1,1.026-.776,3.861,3.861,0,0,1,1.5-.279,3.515,3.515,0,0,1,1.493.3,2.378,2.378,0,0,1,1.018.857,2.242,2.242,0,0,1,.363,1.257H75.808a1.055,1.055,0,0,0-.338-.835,1.391,1.391,0,0,0-.951-.3,1.486,1.486,0,0,0-.918.25.788.788,0,0,0-.328.658.755.755,0,0,0,.384.639,4.339,4.339,0,0,0,1.131.483,4.885,4.885,0,0,1,2,1.026,2.043,2.043,0,0,1,.628,1.525A1.882,1.882,0,0,1,76.651-.47a3.362,3.362,0,0,1-2.068.577,3.993,3.993,0,0,1-1.644-.33,2.6,2.6,0,0,1-1.131-.905,2.318,2.318,0,0,1-.389-1.332h1.617q0,1.294,1.547,1.294a1.5,1.5,0,0,0,.9-.234A.76.76,0,0,0,75.8-2.052ZM78.488-.763a.781.781,0,0,1,.25-.6.886.886,0,0,1,.626-.231.893.893,0,0,1,.631.231.781.781,0,0,1,.25.6A.771.771,0,0,1,80-.169a.9.9,0,0,1-.634.228.89.89,0,0,1-.628-.228A.771.771,0,0,1,78.488-.763ZM88.07,0H86.458V-3.352H83.316V0H81.705V-7.82h1.611v3.169h3.142V-7.82H88.07Zm1.386-.763a.781.781,0,0,1,.25-.6.886.886,0,0,1,.626-.231.893.893,0,0,1,.631.231.781.781,0,0,1,.25.6.771.771,0,0,1-.247.594.9.9,0,0,1-.634.228A.89.89,0,0,1,89.7-.169.771.771,0,0,1,89.456-.763Z" transform="translate(-6723.326 3546.34) rotate(-90)" fill="#0c1d2e"/>
    <path id="Trazado_881577" data-name="Trazado 881577" d="M.7,0V-7.82H3.438A3.6,3.6,0,0,1,5.6-7.275a1.864,1.864,0,0,1,.736,1.6,1.767,1.767,0,0,1-.3,1.012,1.706,1.706,0,0,1-.822.642,1.651,1.651,0,0,1,.948.607A1.794,1.794,0,0,1,6.51-2.3,2.064,2.064,0,0,1,5.79-.591,3.24,3.24,0,0,1,3.738,0ZM2.31-3.405v2.111H3.69a1.332,1.332,0,0,0,.889-.271.93.93,0,0,0,.32-.749.982.982,0,0,0-1.112-1.09Zm0-1.139H3.5q1.219-.021,1.219-.972a.9.9,0,0,0-.309-.765,1.624,1.624,0,0,0-.975-.234H2.31ZM10.984,0a1.724,1.724,0,0,1-.156-.521A1.878,1.878,0,0,1,9.362.107,2.063,2.063,0,0,1,7.947-.387a1.589,1.589,0,0,1-.561-1.246A1.642,1.642,0,0,1,8.07-3.051a3.379,3.379,0,0,1,1.979-.5h.714v-.333a.958.958,0,0,0-.207-.645A.813.813,0,0,0,9.9-4.77a.925.925,0,0,0-.615.188.639.639,0,0,0-.223.516H7.514A1.559,1.559,0,0,1,7.826-5a2.059,2.059,0,0,1,.881-.674,3.21,3.21,0,0,1,1.278-.244,2.536,2.536,0,0,1,1.705.54,1.888,1.888,0,0,1,.631,1.517v2.519a2.778,2.778,0,0,0,.231,1.251V0ZM9.7-1.08a1.337,1.337,0,0,0,.634-.153,1,1,0,0,0,.43-.411v-1h-.58q-1.166,0-1.241.806l-.005.091a.621.621,0,0,0,.2.478A.793.793,0,0,0,9.7-1.08Zm5.457-4.732V.317a2.079,2.079,0,0,1-.51,1.5,1.939,1.939,0,0,1-1.472.534,3.156,3.156,0,0,1-.768-.091V1.026a2.914,2.914,0,0,0,.489.048q.7,0,.7-.747V-5.812Zm-1.681-1.5a.764.764,0,0,1,.234-.575.878.878,0,0,1,.636-.226.878.878,0,0,1,.636.226.764.764,0,0,1,.234.575.762.762,0,0,1-.239.58.882.882,0,0,1-.631.226.882.882,0,0,1-.631-.226A.762.762,0,0,1,13.476-7.315Zm2.653,4.356A3.447,3.447,0,0,1,16.462-4.5a2.438,2.438,0,0,1,.959-1.047,2.8,2.8,0,0,1,1.453-.371,2.646,2.646,0,0,1,1.92.72,2.889,2.889,0,0,1,.83,1.955l.011.4A3.038,3.038,0,0,1,20.888-.7a2.6,2.6,0,0,1-2,.808A2.608,2.608,0,0,1,16.879-.7a3.091,3.091,0,0,1-.749-2.191Zm1.552.11a2.172,2.172,0,0,0,.312,1.267,1.028,1.028,0,0,0,.892.438,1.03,1.03,0,0,0,.881-.433,2.377,2.377,0,0,0,.317-1.385,2.151,2.151,0,0,0-.317-1.259,1.03,1.03,0,0,0-.892-.446,1.013,1.013,0,0,0-.881.444A2.417,2.417,0,0,0,17.682-2.849Zm6.365-2.962.048.65a2.042,2.042,0,0,1,1.67-.757,1.55,1.55,0,0,1,1.542.886,2,2,0,0,1,1.746-.886,1.733,1.733,0,0,1,1.407.551,2.531,2.531,0,0,1,.462,1.657V0H29.364V-3.715a1.111,1.111,0,0,0-.193-.724.856.856,0,0,0-.682-.229A.969.969,0,0,0,27.521-4l.005,4H25.975V-3.709a1.1,1.1,0,0,0-.2-.732.864.864,0,0,0-.677-.226,1.006,1.006,0,0,0-.956.549V0H22.591V-5.812ZM35.481,0a1.724,1.724,0,0,1-.156-.521,1.878,1.878,0,0,1-1.466.628,2.063,2.063,0,0,1-1.415-.494,1.589,1.589,0,0,1-.561-1.246,1.642,1.642,0,0,1,.685-1.418,3.379,3.379,0,0,1,1.979-.5h.714v-.333a.958.958,0,0,0-.207-.645A.813.813,0,0,0,34.4-4.77a.925.925,0,0,0-.615.188.639.639,0,0,0-.223.516H32.012A1.559,1.559,0,0,1,32.323-5a2.059,2.059,0,0,1,.881-.674,3.21,3.21,0,0,1,1.278-.244,2.536,2.536,0,0,1,1.705.54,1.888,1.888,0,0,1,.631,1.517v2.519A2.778,2.778,0,0,0,37.05-.091V0ZM34.2-1.08a1.337,1.337,0,0,0,.634-.153,1,1,0,0,0,.43-.411v-1h-.58q-1.166,0-1.241.806l-.005.091a.621.621,0,0,0,.2.478A.793.793,0,0,0,34.2-1.08ZM39.44-5.812l.048.671a2.029,2.029,0,0,1,1.67-.779,1.686,1.686,0,0,1,1.375.542A2.531,2.531,0,0,1,43-3.754V0H41.443V-3.725a1.011,1.011,0,0,0-.215-.719.96.96,0,0,0-.714-.223,1.067,1.067,0,0,0-.983.56V0H37.979V-5.812Zm4.506,2.863A3.406,3.406,0,0,1,44.583-5.1,2.062,2.062,0,0,1,46.3-5.919a1.809,1.809,0,0,1,1.488.655l.064-.548h1.407V-.193a2.484,2.484,0,0,1-.346,1.327,2.225,2.225,0,0,1-.975.859,3.427,3.427,0,0,1-1.472.3,3.187,3.187,0,0,1-1.246-.255,2.212,2.212,0,0,1-.918-.658L44.988.43a1.818,1.818,0,0,0,1.407.65,1.331,1.331,0,0,0,.961-.33A1.239,1.239,0,0,0,47.7-.188V-.5a1.8,1.8,0,0,1-1.413.607,2.057,2.057,0,0,1-1.695-.819,3.405,3.405,0,0,1-.647-2.173Zm1.552.11a2.132,2.132,0,0,0,.317,1.244,1.007,1.007,0,0,0,.87.451A1.077,1.077,0,0,0,47.7-1.678V-4.133a1.075,1.075,0,0,0-1-.534,1.014,1.014,0,0,0-.878.459A2.4,2.4,0,0,0,45.5-2.838ZM53.818,0a1.724,1.724,0,0,1-.156-.521A1.878,1.878,0,0,1,52.2.107a2.063,2.063,0,0,1-1.415-.494,1.589,1.589,0,0,1-.561-1.246A1.642,1.642,0,0,1,50.9-3.051a3.379,3.379,0,0,1,1.979-.5H53.6v-.333a.958.958,0,0,0-.207-.645.813.813,0,0,0-.653-.242.925.925,0,0,0-.615.188.639.639,0,0,0-.223.516H50.349A1.559,1.559,0,0,1,50.66-5a2.059,2.059,0,0,1,.881-.674,3.21,3.21,0,0,1,1.278-.244,2.536,2.536,0,0,1,1.705.54,1.888,1.888,0,0,1,.631,1.517v2.519a2.778,2.778,0,0,0,.231,1.251V0ZM52.535-1.08a1.337,1.337,0,0,0,.634-.153,1,1,0,0,0,.43-.411v-1h-.58q-1.166,0-1.241.806l-.005.091a.621.621,0,0,0,.2.478A.793.793,0,0,0,52.535-1.08Zm6.311-1.869a3.5,3.5,0,0,1,.61-2.165,1.978,1.978,0,0,1,1.668-.806,1.78,1.78,0,0,1,1.4.634V-8.25h1.558V0h-1.4l-.075-.618a1.827,1.827,0,0,1-1.493.725A1.973,1.973,0,0,1,59.466-.7,3.615,3.615,0,0,1,58.846-2.949Zm1.552.11a2.307,2.307,0,0,0,.285,1.257.927.927,0,0,0,.827.437,1.038,1.038,0,0,0,1.015-.61v-2.3a1.023,1.023,0,0,0-1-.61Q60.4-4.667,60.4-2.838ZM67.96.107a2.853,2.853,0,0,1-2.081-.784,2.787,2.787,0,0,1-.8-2.089v-.15a3.511,3.511,0,0,1,.338-1.566,2.483,2.483,0,0,1,.959-1.063,2.691,2.691,0,0,1,1.415-.373,2.412,2.412,0,0,1,1.877.752,3.056,3.056,0,0,1,.685,2.132V-2.4h-3.7a1.442,1.442,0,0,0,.454.913,1.372,1.372,0,0,0,.959.344,1.675,1.675,0,0,0,1.4-.65l.763.854a2.33,2.33,0,0,1-.945.771A3.1,3.1,0,0,1,67.96.107Zm-.177-4.775a.97.97,0,0,0-.749.313,1.62,1.62,0,0,0-.368.9h2.159v-.124a1.156,1.156,0,0,0-.279-.8A1,1,0,0,0,67.783-4.667ZM72.87,0H71.312V-8.25H72.87Zm7.036-2.723H76.882V-3.975h3.024Zm8.143.671a.827.827,0,0,0-.322-.7,4.227,4.227,0,0,0-1.16-.516A8.224,8.224,0,0,1,85.239-3.8a2.168,2.168,0,0,1-1.332-1.939,1.888,1.888,0,0,1,.357-1.131,2.33,2.33,0,0,1,1.026-.776,3.861,3.861,0,0,1,1.5-.279,3.515,3.515,0,0,1,1.493.3,2.378,2.378,0,0,1,1.018.857,2.242,2.242,0,0,1,.363,1.257H88.054a1.055,1.055,0,0,0-.338-.835,1.391,1.391,0,0,0-.951-.3,1.486,1.486,0,0,0-.918.25.788.788,0,0,0-.328.658A.755.755,0,0,0,85.9-5.1a4.339,4.339,0,0,0,1.131.483,4.885,4.885,0,0,1,2,1.026,2.043,2.043,0,0,1,.628,1.525A1.882,1.882,0,0,1,88.9-.47a3.362,3.362,0,0,1-2.068.577,3.993,3.993,0,0,1-1.644-.33,2.6,2.6,0,0,1-1.131-.905,2.318,2.318,0,0,1-.389-1.332h1.617q0,1.294,1.547,1.294a1.5,1.5,0,0,0,.9-.234A.76.76,0,0,0,88.048-2.052ZM90.734-.763a.781.781,0,0,1,.25-.6.886.886,0,0,1,.626-.231.893.893,0,0,1,.631.231.781.781,0,0,1,.25.6.771.771,0,0,1-.247.594.9.9,0,0,1-.634.228.89.89,0,0,1-.628-.228A.771.771,0,0,1,90.734-.763ZM100.316,0H98.7V-3.352H95.563V0H93.951V-7.82h1.611v3.169H98.7V-7.82h1.611ZM101.7-.763a.781.781,0,0,1,.25-.6.886.886,0,0,1,.626-.231.893.893,0,0,1,.631.231.781.781,0,0,1,.25.6.771.771,0,0,1-.247.594.9.9,0,0,1-.634.228.89.89,0,0,1-.628-.228A.771.771,0,0,1,101.7-.763Z" transform="translate(-6893.002 3583.838) rotate(-91.668)" fill="#0c1d2e"/>
  </g>
</svg>
