<svg xmlns="http://www.w3.org/2000/svg" width="228.315" height="451.918" viewBox="0 0 228.315 451.918">
  <g id="Grupo_1103488" data-name="Grupo 1103488" transform="translate(-265.711 -12966.582)">
    <path id="Trazado_881122" data-name="Trazado 881122" d="M168.5,236.542H.5V424.628h168Z" transform="translate(265.766 12993.138)" fill="none" stroke="#0c1d30" stroke-linecap="round" stroke-linejoin="round" stroke-width="1"/>
    <path id="Trazado_881523" data-name="Trazado 881523" d="M165.554,0H0" transform="translate(267.246 13234.578)" fill="none" stroke="#0c1d30" stroke-linecap="round" stroke-width="1"/>
    <path id="Trazado_881524" data-name="Trazado 881524" d="M165.554,0H0" transform="translate(267.246 13240.456)" fill="none" stroke="#0c1d30" stroke-linecap="round" stroke-width="1"/>
    <path id="Trazado_881525" data-name="Trazado 881525" d="M165.554,0H0" transform="translate(267.246 13246.334)" fill="none" stroke="#0c1d30" stroke-linecap="round" stroke-width="1"/>
    <path id="Trazado_881123" data-name="Trazado 881123" d="M163.02,249.28V103.319s-22.041.98-36.245-10.776L69.467,112.134s35.756,87.675-24.49,83.757v73.471" transform="translate(270.76 12976.972)" fill="none" stroke="#0c1d30" stroke-linecap="round" stroke-linejoin="round" stroke-width="1"/>
    <path id="Trazado_881526" data-name="Trazado 881526" d="M0,0H115.1" transform="translate(317.205 13173.353)" fill="none" stroke="#0c1d30" stroke-linecap="round" stroke-width="1.013"/>
    <path id="Trazado_881124" data-name="Trazado 881124" d="M187.3,262.552l-18.2-40.4L69.26.506,55.546,5.4,172.119,263.041" transform="translate(271.945 12966.639)" fill="none" stroke="#0c1d30" stroke-linecap="round" stroke-linejoin="round" stroke-width="1.013"/>
    <path id="Trazado_881527" data-name="Trazado 881527" d="M17.708,0,0,36.5" transform="translate(441.051 13152.291)" fill="none" stroke="#0c1d30" stroke-linecap="round" stroke-width="1.013"/>
    <path id="Trazado_881528" data-name="Trazado 881528" d="M10.776,0,0,25.47" transform="translate(435.738 13145.924)" fill="none" stroke="#0c1d30" stroke-linecap="round" stroke-width="1.013"/>
    <path id="Trazado_881529" data-name="Trazado 881529" d="M18.123,0,0,38.205" transform="translate(407.818 13191.965)" fill="none" stroke="#0c1d30" stroke-linecap="round" stroke-width="1.013"/>
    <path id="Trazado_881530" data-name="Trazado 881530" d="M8.817,0,0,19.1" transform="translate(425.451 13210.088)" fill="none" stroke="#0c1d30" stroke-linecap="round" stroke-width="1.013"/>
    <path id="Trazado_881531" data-name="Trazado 881531" d="M13.225,0,0,5.877" transform="translate(341.695 12998.492)" fill="none" stroke="#0c1d30" stroke-linecap="round" stroke-width="1.013"/>
    <path id="Trazado_881125" data-name="Trazado 881125" d="M80.3,11.48c12.958,3.589,62.593,15.714,62.593,15.714" transform="translate(274.725 12967.871)" fill="none" stroke="#0c1d30" stroke-linecap="round" stroke-linejoin="round" stroke-width="1.013"/>
    <path id="Trazado_881126" data-name="Trazado 881126" d="M86.064,16.837l.658-.915-5.988-4.313,7.36-.545L88.011,9.94l-10.446.773Z" transform="translate(274.418 12967.698)" fill="#0c1d30"/>
    <path id="Trazado_881532" data-name="Trazado 881532" d="M0,0H228.315V451.918H0Z" transform="translate(265.711 12966.582)" fill="none"/>
    <path id="Trazado_881533" data-name="Trazado 881533" d="M6.428,0H.58V-1.16L3.34-4.1a6.808,6.808,0,0,0,.841-1.084,1.742,1.742,0,0,0,.272-.879,1.3,1.3,0,0,0-.287-.894,1.036,1.036,0,0,0-.82-.325,1.118,1.118,0,0,0-.905.4,1.567,1.567,0,0,0-.331,1.04H.41A2.8,2.8,0,0,1,.782-7.271,2.622,2.622,0,0,1,1.834-8.282a3.2,3.2,0,0,1,1.541-.366,3.027,3.027,0,0,1,2.048.633,2.239,2.239,0,0,1,.729,1.787,2.868,2.868,0,0,1-.328,1.289A7.164,7.164,0,0,1,4.7-3.41L2.76-1.365H6.428ZM7.975,2.139,7.09,1.676,7.3,1.295a3.044,3.044,0,0,0,.4-1.424V-1.441h1.43L9.129-.27A3.044,3.044,0,0,1,8.8,1.043,3.365,3.365,0,0,1,7.975,2.139ZM10.646-4.2l.492-4.336H15.92v1.412H12.527l-.211,1.834A2.685,2.685,0,0,1,13.6-5.607a2.459,2.459,0,0,1,1.91.756A3.019,3.019,0,0,1,16.2-2.736a3.093,3.093,0,0,1-.349,1.479,2.461,2.461,0,0,1-1,1.014,3.119,3.119,0,0,1-1.535.36A3.312,3.312,0,0,1,11.883-.2a2.546,2.546,0,0,1-1.046-.882,2.4,2.4,0,0,1-.407-1.295h1.676a1.252,1.252,0,0,0,.372.829,1.18,1.18,0,0,0,.835.3,1.041,1.041,0,0,0,.885-.413,1.914,1.914,0,0,0,.311-1.169,1.582,1.582,0,0,0-.357-1.113,1.312,1.312,0,0,0-1.014-.387,1.466,1.466,0,0,0-.979.316l-.164.152Z" transform="translate(344.098 13072.345)" fill="#0c1d2f"/>
    <path id="Trazado_881534" data-name="Trazado 881534" d="M4.693,0H3V-6.527L.979-5.9V-7.277L4.512-8.543h.182Z" transform="translate(287.279 13216.841)" fill="#0c1d2f"/>
    <path id="Trazado_881535" data-name="Trazado 881535" d="M2.3-5.016h.9a1.271,1.271,0,0,0,.955-.322,1.181,1.181,0,0,0,.311-.855A1.044,1.044,0,0,0,4.163-7a1.192,1.192,0,0,0-.847-.287,1.25,1.25,0,0,0-.814.267.852.852,0,0,0-.328.694H.48a2.083,2.083,0,0,1,.36-1.2A2.4,2.4,0,0,1,1.849-8.35a3.364,3.364,0,0,1,1.427-.3A3.19,3.19,0,0,1,5.4-8a2.209,2.209,0,0,1,.768,1.784,1.8,1.8,0,0,1-.357,1.078,2.322,2.322,0,0,1-.937.756,2.12,2.12,0,0,1,1.075.773A2.1,2.1,0,0,1,6.3-2.391,2.246,2.246,0,0,1,5.47-.568,3.334,3.334,0,0,1,3.275.117,3.161,3.161,0,0,1,1.187-.557,2.2,2.2,0,0,1,.375-2.338H2.068a.981.981,0,0,0,.36.785,1.328,1.328,0,0,0,.888.3,1.334,1.334,0,0,0,.946-.319,1.1,1.1,0,0,0,.343-.847q0-1.277-1.406-1.277H2.3Z" transform="translate(446.951 13243.295)" fill="#0c1d2f"/>
    <path id="Trazado_881536" data-name="Trazado 881536" d="M2.3-5.016h.9a1.271,1.271,0,0,0,.955-.322,1.181,1.181,0,0,0,.311-.855A1.044,1.044,0,0,0,4.163-7a1.192,1.192,0,0,0-.847-.287,1.25,1.25,0,0,0-.814.267.852.852,0,0,0-.328.694H.48a2.083,2.083,0,0,1,.36-1.2A2.4,2.4,0,0,1,1.849-8.35a3.364,3.364,0,0,1,1.427-.3A3.19,3.19,0,0,1,5.4-8a2.209,2.209,0,0,1,.768,1.784,1.8,1.8,0,0,1-.357,1.078,2.322,2.322,0,0,1-.937.756,2.12,2.12,0,0,1,1.075.773A2.1,2.1,0,0,1,6.3-2.391,2.246,2.246,0,0,1,5.47-.568,3.334,3.334,0,0,1,3.275.117,3.161,3.161,0,0,1,1.187-.557,2.2,2.2,0,0,1,.375-2.338H2.068a.981.981,0,0,0,.36.785,1.328,1.328,0,0,0,.888.3,1.334,1.334,0,0,0,.946-.319,1.1,1.1,0,0,0,.343-.847q0-1.277-1.406-1.277H2.3Zm6.885,0h.9a1.271,1.271,0,0,0,.955-.322,1.181,1.181,0,0,0,.311-.855,1.044,1.044,0,0,0-.308-.8,1.192,1.192,0,0,0-.847-.287,1.25,1.25,0,0,0-.814.267.852.852,0,0,0-.328.694H7.365a2.083,2.083,0,0,1,.36-1.2A2.4,2.4,0,0,1,8.733-8.35a3.364,3.364,0,0,1,1.427-.3A3.19,3.19,0,0,1,12.281-8a2.209,2.209,0,0,1,.768,1.784,1.8,1.8,0,0,1-.357,1.078,2.322,2.322,0,0,1-.937.756,2.12,2.12,0,0,1,1.075.773,2.1,2.1,0,0,1,.354,1.219,2.246,2.246,0,0,1-.829,1.822A3.334,3.334,0,0,1,10.16.117,3.161,3.161,0,0,1,8.071-.557,2.2,2.2,0,0,1,7.26-2.338H8.953a.981.981,0,0,0,.36.785,1.328,1.328,0,0,0,.888.3,1.334,1.334,0,0,0,.946-.319,1.1,1.1,0,0,0,.343-.847q0-1.277-1.406-1.277h-.9Z" transform="translate(463.609 13319.214)" fill="#0c1d2f"/>
    <path id="Trazado_881537" data-name="Trazado 881537" d="M2.3-5.016h.9a1.271,1.271,0,0,0,.955-.322,1.181,1.181,0,0,0,.311-.855A1.044,1.044,0,0,0,4.163-7a1.192,1.192,0,0,0-.847-.287,1.25,1.25,0,0,0-.814.267.852.852,0,0,0-.328.694H.48a2.083,2.083,0,0,1,.36-1.2A2.4,2.4,0,0,1,1.849-8.35a3.364,3.364,0,0,1,1.427-.3A3.19,3.19,0,0,1,5.4-8a2.209,2.209,0,0,1,.768,1.784,1.8,1.8,0,0,1-.357,1.078,2.322,2.322,0,0,1-.937.756,2.12,2.12,0,0,1,1.075.773A2.1,2.1,0,0,1,6.3-2.391,2.246,2.246,0,0,1,5.47-.568,3.334,3.334,0,0,1,3.275.117,3.161,3.161,0,0,1,1.187-.557,2.2,2.2,0,0,1,.375-2.338H2.068a.981.981,0,0,0,.36.785,1.328,1.328,0,0,0,.888.3,1.334,1.334,0,0,0,.946-.319,1.1,1.1,0,0,0,.343-.847q0-1.277-1.406-1.277H2.3Zm10.9,1.488A4.322,4.322,0,0,1,12.475-.82,2.557,2.557,0,0,1,10.33.117,2.574,2.574,0,0,1,8.2-.8a4.2,4.2,0,0,1-.756-2.637V-5.01a4.265,4.265,0,0,1,.741-2.713,2.576,2.576,0,0,1,2.136-.926,2.578,2.578,0,0,1,2.133.917A4.182,4.182,0,0,1,13.207-5.1ZM11.514-5.25a3.118,3.118,0,0,0-.29-1.544.98.98,0,0,0-.905-.483.963.963,0,0,0-.882.46,2.918,2.918,0,0,0-.3,1.438V-3.3a3.273,3.273,0,0,0,.284,1.55.967.967,0,0,0,.911.507.951.951,0,0,0,.9-.486,3.2,3.2,0,0,0,.287-1.488Z" transform="translate(351.439 13400.031)" fill="#0c1d2f"/>
    <path id="Trazado_881127" data-name="Trazado 881127" d="M114.807,56.338a3.429,3.429,0,1,1-3.429-3.429,3.43,3.43,0,0,1,3.429,3.429" transform="translate(277.83 12972.521)" fill="#0c1d2f"/>
    <path id="Trazado_881538" data-name="Trazado 881538" d="M0,0H146.044" transform="translate(275.777 13406.01)" fill="none" stroke="#0c1d30" stroke-linecap="round" stroke-width="1"/>
    <path id="Trazado_881128" data-name="Trazado 881128" d="M15.942,398.969l.38-1.046-6.846-2.493,6.846-2.491-.38-1.044-9.718,3.536Z" transform="translate(266.41 13010.578)" fill="#0c1d30"/>
    <path id="Trazado_881129" data-name="Trazado 881129" d="M134.48,398.969l-.38-1.046,6.846-2.493-6.846-2.491.38-1.044,9.718,3.536Z" transform="translate(280.766 13010.578)" fill="#0c1d30"/>
    <path id="Trazado_881539" data-name="Trazado 881539" d="M0,177.635V0" transform="translate(482.516 13237.722)" fill="none" stroke="#0c1d30" stroke-linecap="round" stroke-width="1"/>
    <path id="Trazado_881130" data-name="Trazado 881130" d="M198.816,397.606l-1.046-.38-2.493,6.846-2.491-6.846-1.044.38,3.536,9.718Z" transform="translate(287.237 13011.177)" fill="#0c1d30"/>
    <path id="Trazado_881131" data-name="Trazado 881131" d="M198.816,250.664l-1.046.38-2.493-6.846-2.491,6.846-1.044-.38,3.536-9.718Z" transform="translate(287.237 12993.632)" fill="#0c1d30"/>
    <path id="Trazado_881540" data-name="Trazado 881540" d="M13.243,29.382,0,0" transform="translate(394.047 13101.948)" fill="none" stroke="#0c1d30" stroke-linecap="round" stroke-width="1"/>
    <path id="Trazado_881132" data-name="Trazado 881132" d="M128.41,141.423l-1.11.083.542,7.265-5.085-5.218-.8.775,7.216,7.407Z" transform="translate(279.403 12982.459)" fill="#0c1d30"/>
    <path id="Trazado_881133" data-name="Trazado 881133" d="M121.44,126.533l-.8.776-5.085-5.218.542,7.265-1.109.082-.769-10.312Z" transform="translate(278.534 12979.956)" fill="#0c1d30"/>
    <path id="Trazado_881134" data-name="Trazado 881134" d="M31.236,241.841,23.4,228.616l14.694,8.326" transform="translate(268.338 12992.248)" fill="none" stroke="#9eb3c8" stroke-miterlimit="10" stroke-width="1"/>
    <path id="Trazado_881541" data-name="Trazado 881541" d="M0,0V15.007" transform="translate(440.531 13232.283)" fill="none" stroke="#0c1d30" stroke-linecap="round" stroke-width="0.75"/>
    <path id="Trazado_881135" data-name="Trazado 881135" d="M153.594,244.686a.418.418,0,0,0,.576-.129l3.428-5.382,3.428,5.382a.417.417,0,1,0,.7-.448l-3.779-5.934a.417.417,0,0,0-.7,0l-3.781,5.934a.426.426,0,0,0-.065.225.418.418,0,0,0,.192.353" transform="translate(282.933 12993.299)" fill="#0c1d30"/>
    <path id="Trazado_881136" data-name="Trazado 881136" d="M153.594,247.256a.418.418,0,0,1,.576.129l3.428,5.382,3.428-5.382a.417.417,0,1,1,.7.448l-3.779,5.934a.417.417,0,0,1-.7,0l-3.781-5.934a.426.426,0,0,1-.065-.225.418.418,0,0,1,.192-.353" transform="translate(282.933 12994.333)" fill="#0c1d30"/>
    <path id="Trazado_881542" data-name="Trazado 881542" d="M24.49,18.613,0,0" transform="translate(358.351 13000.941)" fill="none" stroke="#9eb3c8" stroke-width="1"/>
    <path id="Trazado_881543" data-name="Trazado 881543" d="M0,0,.98,33.307" transform="translate(389.208 13040.616)" fill="none" stroke="#9eb3c8" stroke-width="1"/>
    <path id="Trazado_881137" data-name="Trazado 881137" d="M84.956,71.751c-1.469.489-3.429,12.735-3.429,12.735l19.1-16.165" transform="translate(274.863 12974.252)" fill="none" stroke="#9eb3c8" stroke-miterlimit="10" stroke-width="1"/>
    <path id="Trazado_881544" data-name="Trazado 881544" d="M59.756,0H0" transform="translate(434.27 13228.7)" fill="none" stroke="#9eb3c8" stroke-width="1"/>
    <path id="Trazado_881138" data-name="Trazado 881138" d="M148.9,11.956c0,1.469,20.571,57.307,20.571,57.307l35.267-10.286L184.168,11.956" transform="translate(282.428 12967.924)" fill="none" stroke="#0c1d30" stroke-linecap="round" stroke-linejoin="round" stroke-width="1"/>
    <path id="Trazado_881139" data-name="Trazado 881139" d="M155.509,15.137l17.143,47.021,24-7.837L180,14.157" transform="translate(283.169 12968.172)" fill="none" stroke="#0c1d30" stroke-linecap="round" stroke-linejoin="round" stroke-width="1" stroke-dasharray="3 3"/>
    <path id="Trazado_881545" data-name="Trazado 881545" d="M17.388,0c9.6,0,17.388,1.864,17.388,4.163S26.991,8.326,17.388,8.326,0,6.462,0,4.163,7.785,0,17.388,0Z" transform="translate(430.841 12974.982)" fill="none" stroke="#0c1d30" stroke-linecap="round" stroke-width="1"/>
    <path id="Trazado_881140" data-name="Trazado 881140" d="M76.792,24.78a4.9,4.9,0,1,1-4.9-4.9A4.9,4.9,0,0,1,76.792,24.78Z" transform="translate(273.232 12968.814)" fill="none" stroke="#0c1d30" stroke-linecap="round" stroke-linejoin="round" stroke-width="0.75"/>
    <path id="Trazado_881546" data-name="Trazado 881546" d="M0,0V5.8" transform="translate(345.125 12990.694)" fill="none" stroke="#0c1d30" stroke-linecap="round" stroke-width="0.75"/>
    <path id="Trazado_881547" data-name="Trazado 881547" d="M5.8,0H0" transform="translate(342.226 12993.595)" fill="none" stroke="#0c1d30" stroke-linecap="round" stroke-width="0.75"/>
    <path id="Trazado_881548" data-name="Trazado 881548" d="M0,0H228.315V451.918H0Z" transform="translate(265.711 12966.582)" fill="none"/>
  </g>
</svg>
