<svg xmlns="http://www.w3.org/2000/svg" width="441.522" height="218.314" viewBox="0 0 441.522 218.314">
  <g id="Grupo_1103507" data-name="Grupo 1103507" transform="translate(-211.711 -17957)">
    <path id="Trazado_881821" data-name="Trazado 881821" d="M0,0V160.755" transform="translate(566.903 18013.939)" fill="none" stroke="#9eb3c8" stroke-width="1"/>
    <path id="Trazado_881822" data-name="Trazado 881822" d="M0,0H441.522V218.315H0Z" transform="translate(211.711 17957)" fill="none"/>
    <path id="Trazado_881823" data-name="Trazado 881823" d="M118.109,0H0" transform="translate(508.667 18013.119)" fill="none" stroke="#9eb3c8" stroke-width="0.99"/>
    <path id="Trazado_881371" data-name="Trazado 881371" d="M5.344,127.325c2.187,0,198.483.546,198.483.546" transform="translate(213.002 17987.77)" fill="none" stroke="#9eb3c8" stroke-miterlimit="10" stroke-width="1"/>
    <path id="Trazado_881372" data-name="Trazado 881372" d="M24.72,65.446c1.64,0,158.567-1.093,158.567-1.093" transform="translate(217.685 17972.551)" fill="none" stroke="#9eb3c8" stroke-miterlimit="10" stroke-width="1"/>
    <path id="Trazado_881824" data-name="Trazado 881824" d="M0,152.006V0" transform="translate(321.025 18020.5)" fill="none" stroke="#9eb3c8" stroke-width="1"/>
    <path id="Trazado_881825" data-name="Trazado 881825" d="M0,0H43.333" transform="translate(259.355 18010.658)" fill="none" stroke="#9eb3c8" stroke-width="0.983"/>
    <path id="Trazado_881826" data-name="Trazado 881826" d="M0,0H41.008" transform="translate(346.841 18010.658)" fill="none" stroke="#9eb3c8" stroke-width="1"/>
    <path id="Trazado_881827" data-name="Trazado 881827" d="M0,0H441.522V218.315H0Z" transform="translate(211.711 17957)" fill="none"/>
    <path id="Trazado_881828" data-name="Trazado 881828" d="M8.381-8.292H5.332V0H3.281V-8.292H.273V-9.953H8.381Zm.2,4.525A4.387,4.387,0,0,1,9-5.729a3.1,3.1,0,0,1,1.22-1.333,3.56,3.56,0,0,1,1.849-.472,3.368,3.368,0,0,1,2.444.916,3.676,3.676,0,0,1,1.056,2.488l.014.506a3.866,3.866,0,0,1-.95,2.731A3.3,3.3,0,0,1,12.087.137,3.319,3.319,0,0,1,9.534-.889,3.934,3.934,0,0,1,8.58-3.678Zm1.976.144a2.757,2.757,0,0,0,.4,1.61,1.309,1.309,0,0,0,1.135.557,1.312,1.312,0,0,0,1.121-.55,3.017,3.017,0,0,0,.4-1.76,2.73,2.73,0,0,0-.4-1.6,1.312,1.312,0,0,0-1.135-.567,1.29,1.29,0,0,0-1.121.564A3.068,3.068,0,0,0,10.556-3.623ZM12.463-10.5h2.153L12.723-8.381H11.116Zm8.5,4.956a5.367,5.367,0,0,0-.711-.055,1.447,1.447,0,0,0-1.47.759V0H16.8V-7.4H18.67l.055.882a1.831,1.831,0,0,1,1.647-1.019,2.07,2.07,0,0,1,.615.089ZM25.991,0a2.194,2.194,0,0,1-.2-.663,2.39,2.39,0,0,1-1.866.8,2.626,2.626,0,0,1-1.8-.629,2.023,2.023,0,0,1-.714-1.586,2.09,2.09,0,0,1,.872-1.8A4.3,4.3,0,0,1,24.8-4.519h.909v-.424a1.219,1.219,0,0,0-.263-.82,1.035,1.035,0,0,0-.831-.308,1.177,1.177,0,0,0-.783.239.813.813,0,0,0-.284.656H21.575a1.984,1.984,0,0,1,.4-1.189,2.621,2.621,0,0,1,1.121-.858,4.086,4.086,0,0,1,1.627-.311,3.228,3.228,0,0,1,2.17.687,2.4,2.4,0,0,1,.8,1.931v3.206a3.536,3.536,0,0,0,.294,1.593V0ZM24.358-1.374a1.7,1.7,0,0,0,.807-.195,1.28,1.28,0,0,0,.547-.523V-3.363h-.738q-1.483,0-1.579,1.025l-.007.116a.791.791,0,0,0,.26.608A1.009,1.009,0,0,0,24.358-1.374Zm7.67-3.814L33.272-7.4h2.112L33.279-3.773,35.473,0H33.354L32.034-2.324,30.722,0H28.6L30.79-3.773,28.692-7.4h2.119Z" transform="translate(264.14 18026.441)" fill="#161615"/>
    <path id="Trazado_881829" data-name="Trazado 881829" d="M8.381-8.292H5.332V0H3.281V-8.292H.273V-9.953H8.381Zm.2,4.525A4.387,4.387,0,0,1,9-5.729a3.1,3.1,0,0,1,1.22-1.333,3.56,3.56,0,0,1,1.849-.472,3.368,3.368,0,0,1,2.444.916,3.676,3.676,0,0,1,1.056,2.488l.014.506a3.866,3.866,0,0,1-.95,2.731A3.3,3.3,0,0,1,12.087.137,3.319,3.319,0,0,1,9.534-.889,3.934,3.934,0,0,1,8.58-3.678Zm1.976.144a2.757,2.757,0,0,0,.4,1.61,1.309,1.309,0,0,0,1.135.557,1.312,1.312,0,0,0,1.121-.55,3.017,3.017,0,0,0,.4-1.76,2.73,2.73,0,0,0-.4-1.6,1.312,1.312,0,0,0-1.135-.567,1.29,1.29,0,0,0-1.121.564A3.068,3.068,0,0,0,10.556-3.623ZM12.463-10.5h2.153L12.723-8.381H11.116Zm8.5,4.956a5.367,5.367,0,0,0-.711-.055,1.447,1.447,0,0,0-1.47.759V0H16.8V-7.4H18.67l.055.882a1.831,1.831,0,0,1,1.647-1.019,2.07,2.07,0,0,1,.615.089ZM25.991,0a2.194,2.194,0,0,1-.2-.663,2.39,2.39,0,0,1-1.866.8,2.626,2.626,0,0,1-1.8-.629,2.023,2.023,0,0,1-.714-1.586,2.09,2.09,0,0,1,.872-1.8A4.3,4.3,0,0,1,24.8-4.519h.909v-.424a1.219,1.219,0,0,0-.263-.82,1.035,1.035,0,0,0-.831-.308,1.177,1.177,0,0,0-.783.239.813.813,0,0,0-.284.656H21.575a1.984,1.984,0,0,1,.4-1.189,2.621,2.621,0,0,1,1.121-.858,4.086,4.086,0,0,1,1.627-.311,3.228,3.228,0,0,1,2.17.687,2.4,2.4,0,0,1,.8,1.931v3.206a3.536,3.536,0,0,0,.294,1.593V0ZM24.358-1.374a1.7,1.7,0,0,0,.807-.195,1.28,1.28,0,0,0,.547-.523V-3.363h-.738q-1.483,0-1.579,1.025l-.007.116a.791.791,0,0,0,.26.608A1.009,1.009,0,0,0,24.358-1.374Zm7.67-3.814L33.272-7.4h2.112L33.279-3.773,35.473,0H33.354L32.034-2.324,30.722,0H28.6L30.79-3.773,28.692-7.4h2.119Z" transform="translate(349.024 18026.441)" fill="#161615"/>
    <path id="Trazado_881830" data-name="Trazado 881830" d="M.889,0V-9.953H3.951A4.651,4.651,0,0,1,6.3-9.362,4.123,4.123,0,0,1,7.916-7.68,5.187,5.187,0,0,1,8.5-5.2v.458a5.2,5.2,0,0,1-.571,2.468A4.088,4.088,0,0,1,6.316-.6,4.686,4.686,0,0,1,3.972,0ZM2.939-8.292v6.645h.991A2.227,2.227,0,0,0,5.77-2.434a3.552,3.552,0,0,0,.649-2.249v-.526a3.609,3.609,0,0,0-.629-2.3,2.219,2.219,0,0,0-1.839-.783ZM13.262.137a3.631,3.631,0,0,1-2.649-1A3.548,3.548,0,0,1,9.591-3.521v-.191A4.468,4.468,0,0,1,10.021-5.7a3.161,3.161,0,0,1,1.22-1.354,3.425,3.425,0,0,1,1.8-.475,3.07,3.07,0,0,1,2.389.957A3.889,3.889,0,0,1,16.3-3.862v.807h-4.71a1.835,1.835,0,0,0,.578,1.162,1.746,1.746,0,0,0,1.22.438,2.132,2.132,0,0,0,1.784-.827L16.146-1.2a2.966,2.966,0,0,1-1.2.981A3.947,3.947,0,0,1,13.262.137Zm-.226-6.07a1.237,1.237,0,0,0-.954.4A2.048,2.048,0,0,0,11.614-4.4h2.748V-4.56a1.46,1.46,0,0,0-.355-1.015A1.277,1.277,0,0,0,13.036-5.934ZM19.51,0H17.527V-10.5H19.51Zm5.913,0a2.194,2.194,0,0,1-.2-.663,2.39,2.39,0,0,1-1.866.8,2.626,2.626,0,0,1-1.8-.629,2.023,2.023,0,0,1-.714-1.586,2.09,2.09,0,0,1,.872-1.8,4.3,4.3,0,0,1,2.519-.636h.909v-.424a1.219,1.219,0,0,0-.263-.82,1.035,1.035,0,0,0-.831-.308,1.177,1.177,0,0,0-.783.239.813.813,0,0,0-.284.656H21.007a1.984,1.984,0,0,1,.4-1.189,2.621,2.621,0,0,1,1.121-.858,4.086,4.086,0,0,1,1.627-.311,3.228,3.228,0,0,1,2.17.687,2.4,2.4,0,0,1,.8,1.931v3.206a3.536,3.536,0,0,0,.294,1.593V0ZM23.789-1.374a1.7,1.7,0,0,0,.807-.195,1.28,1.28,0,0,0,.547-.523V-3.363H24.4q-1.483,0-1.579,1.025l-.007.116a.791.791,0,0,0,.26.608A1.009,1.009,0,0,0,23.789-1.374ZM30.461-7.4l.062.854a2.582,2.582,0,0,1,2.126-.991,2.146,2.146,0,0,1,1.75.69,3.221,3.221,0,0,1,.588,2.064V0H33.011V-4.73a1.282,1.282,0,0,0-.273-.913,1.224,1.224,0,0,0-.909-.284,1.359,1.359,0,0,0-1.251.711V0H28.6V-7.4Zm8.388-1.818V-7.4h1.265v1.449H38.849v3.691a.881.881,0,0,0,.157.588.79.79,0,0,0,.6.178,3.151,3.151,0,0,0,.581-.048v1.5a4.067,4.067,0,0,1-1.2.178,1.886,1.886,0,0,1-2.119-2.1V-5.947h-1.08V-7.4h1.08V-9.215ZM44.618.137a3.631,3.631,0,0,1-2.649-1,3.548,3.548,0,0,1-1.022-2.659v-.191A4.468,4.468,0,0,1,41.378-5.7,3.161,3.161,0,0,1,42.6-7.058a3.425,3.425,0,0,1,1.8-.475,3.07,3.07,0,0,1,2.389.957,3.889,3.889,0,0,1,.872,2.714v.807H42.95a1.835,1.835,0,0,0,.578,1.162,1.746,1.746,0,0,0,1.22.438,2.132,2.132,0,0,0,1.784-.827L47.5-1.2a2.966,2.966,0,0,1-1.2.981A3.947,3.947,0,0,1,44.618.137Zm-.226-6.07a1.237,1.237,0,0,0-.954.4A2.048,2.048,0,0,0,42.971-4.4h2.748V-4.56a1.46,1.46,0,0,0-.355-1.015A1.277,1.277,0,0,0,44.393-5.934Zm8.545.39a5.367,5.367,0,0,0-.711-.055,1.447,1.447,0,0,0-1.47.759V0H48.781V-7.4h1.866l.055.882A1.831,1.831,0,0,1,52.35-7.533a2.07,2.07,0,0,1,.615.089ZM57.969,0a2.194,2.194,0,0,1-.2-.663,2.39,2.39,0,0,1-1.866.8,2.626,2.626,0,0,1-1.8-.629,2.023,2.023,0,0,1-.714-1.586,2.09,2.09,0,0,1,.872-1.8,4.3,4.3,0,0,1,2.519-.636h.909v-.424a1.219,1.219,0,0,0-.263-.82,1.035,1.035,0,0,0-.831-.308,1.177,1.177,0,0,0-.783.239.813.813,0,0,0-.284.656H53.553a1.984,1.984,0,0,1,.4-1.189,2.621,2.621,0,0,1,1.121-.858A4.086,4.086,0,0,1,56.7-7.533a3.228,3.228,0,0,1,2.17.687,2.4,2.4,0,0,1,.8,1.931v3.206a3.536,3.536,0,0,0,.294,1.593V0ZM56.335-1.374a1.7,1.7,0,0,0,.807-.195,1.28,1.28,0,0,0,.547-.523V-3.363H56.95q-1.483,0-1.579,1.025l-.007.116a.791.791,0,0,0,.26.608A1.009,1.009,0,0,0,56.335-1.374Z" transform="translate(288.889 18083.82)" fill="#161615"/>
    <path id="Trazado_881831" data-name="Trazado 881831" d="M2.939-1.647H7.294V0H.889V-9.953H2.939ZM10.473,0H8.5V-7.4h1.976ZM9.892-10.4h2.153L10.151-8.278H8.545Zm4.1,3,.062.854a2.582,2.582,0,0,1,2.126-.991,2.146,2.146,0,0,1,1.75.69,3.221,3.221,0,0,1,.588,2.064V0H16.543V-4.73a1.282,1.282,0,0,0-.273-.913,1.224,1.224,0,0,0-.909-.284,1.359,1.359,0,0,0-1.251.711V0H12.134V-7.4ZM23.42.137a3.631,3.631,0,0,1-2.649-1,3.548,3.548,0,0,1-1.022-2.659v-.191A4.468,4.468,0,0,1,20.18-5.7,3.161,3.161,0,0,1,21.4-7.058a3.425,3.425,0,0,1,1.8-.475,3.07,3.07,0,0,1,2.389.957,3.889,3.889,0,0,1,.872,2.714v.807h-4.71a1.835,1.835,0,0,0,.578,1.162,1.746,1.746,0,0,0,1.22.438,2.132,2.132,0,0,0,1.784-.827L26.3-1.2a2.966,2.966,0,0,1-1.2.981A3.947,3.947,0,0,1,23.42.137Zm-.226-6.07a1.237,1.237,0,0,0-.954.4A2.048,2.048,0,0,0,21.772-4.4h2.748V-4.56a1.46,1.46,0,0,0-.355-1.015A1.277,1.277,0,0,0,23.194-5.934ZM31.869,0a2.194,2.194,0,0,1-.2-.663,2.39,2.39,0,0,1-1.866.8A2.626,2.626,0,0,1,28-.492a2.023,2.023,0,0,1-.714-1.586,2.09,2.09,0,0,1,.872-1.8,4.3,4.3,0,0,1,2.519-.636h.909v-.424a1.219,1.219,0,0,0-.263-.82A1.035,1.035,0,0,0,30.5-6.07a1.177,1.177,0,0,0-.783.239.813.813,0,0,0-.284.656H27.453a1.984,1.984,0,0,1,.4-1.189,2.621,2.621,0,0,1,1.121-.858A4.086,4.086,0,0,1,30.6-7.533a3.228,3.228,0,0,1,2.17.687,2.4,2.4,0,0,1,.8,1.931v3.206a3.536,3.536,0,0,0,.294,1.593V0ZM30.235-1.374a1.7,1.7,0,0,0,.807-.195,1.28,1.28,0,0,0,.547-.523V-3.363h-.738q-1.483,0-1.579,1.025l-.007.116a.791.791,0,0,0,.26.608A1.009,1.009,0,0,0,30.235-1.374Zm15-2.256a4.479,4.479,0,0,1-.759,2.772,2.513,2.513,0,0,1-2.119.995,2.309,2.309,0,0,1-1.921-.923L40.353,0H38.575V-10.5h1.976v3.767a2.25,2.25,0,0,1,1.8-.8,2.534,2.534,0,0,1,2.123.995,4.485,4.485,0,0,1,.769,2.8Zm-1.976-.144a2.942,2.942,0,0,0-.355-1.637,1.2,1.2,0,0,0-1.06-.516,1.3,1.3,0,0,0-1.3.772v2.919a1.321,1.321,0,0,0,1.313.779A1.22,1.22,0,0,0,43.121-2.4,4.866,4.866,0,0,0,43.265-3.773ZM50.887-.752a2.477,2.477,0,0,1-2.023.889,2.337,2.337,0,0,1-1.815-.684,2.918,2.918,0,0,1-.639-2V-7.4h1.976v4.778q0,1.155,1.053,1.155a1.427,1.427,0,0,0,1.381-.7V-7.4H52.8V0H50.941ZM58.3-2.044a.637.637,0,0,0-.359-.571,4.077,4.077,0,0,0-1.152-.373q-2.639-.554-2.639-2.242a2.032,2.032,0,0,1,.817-1.644,3.3,3.3,0,0,1,2.136-.66,3.547,3.547,0,0,1,2.252.663A2.09,2.09,0,0,1,60.2-5.147H58.222a.956.956,0,0,0-.273-.7,1.157,1.157,0,0,0-.854-.277,1.182,1.182,0,0,0-.772.226.712.712,0,0,0-.273.574.609.609,0,0,0,.311.53,3.2,3.2,0,0,0,1.049.349,8.571,8.571,0,0,1,1.244.332,2.044,2.044,0,0,1,1.565,1.989A1.929,1.929,0,0,1,59.35-.489a3.745,3.745,0,0,1-2.242.625,3.912,3.912,0,0,1-1.651-.332A2.77,2.77,0,0,1,54.325-1.1a2.113,2.113,0,0,1-.41-1.248h1.873a1.031,1.031,0,0,0,.39.807,1.546,1.546,0,0,0,.971.28,1.43,1.43,0,0,0,.858-.215A.67.67,0,0,0,58.3-2.044Zm5.558-7.171V-7.4h1.265v1.449H63.854v3.691a.881.881,0,0,0,.157.588.79.79,0,0,0,.6.178,3.15,3.15,0,0,0,.581-.048v1.5A4.067,4.067,0,0,1,64,.137a1.886,1.886,0,0,1-2.119-2.1V-5.947H60.8V-7.4h1.08V-9.215Zm1.853,5.448a4.387,4.387,0,0,1,.424-1.962,3.1,3.1,0,0,1,1.22-1.333A3.56,3.56,0,0,1,69.2-7.533a3.368,3.368,0,0,1,2.444.916A3.676,3.676,0,0,1,72.7-4.129l.014.506a3.866,3.866,0,0,1-.95,2.731A3.3,3.3,0,0,1,69.214.137,3.319,3.319,0,0,1,66.661-.889a3.934,3.934,0,0,1-.954-2.789Zm1.976.144a2.757,2.757,0,0,0,.4,1.61,1.309,1.309,0,0,0,1.135.557,1.312,1.312,0,0,0,1.121-.55,3.017,3.017,0,0,0,.4-1.76,2.73,2.73,0,0,0-.4-1.6A1.312,1.312,0,0,0,69.2-5.934a1.29,1.29,0,0,0-1.121.564A3.068,3.068,0,0,0,67.683-3.623Z" transform="translate(281.826 18051.428)" fill="#161615"/>
    <path id="Trazado_881832" data-name="Trazado 881832" d="M2.939-1.647H7.294V0H.889V-9.953H2.939ZM10.473,0H8.5V-7.4h1.976ZM9.892-10.4h2.153L10.151-8.278H8.545Zm4.1,3,.062.854a2.582,2.582,0,0,1,2.126-.991,2.146,2.146,0,0,1,1.75.69,3.221,3.221,0,0,1,.588,2.064V0H16.543V-4.73a1.282,1.282,0,0,0-.273-.913,1.224,1.224,0,0,0-.909-.284,1.359,1.359,0,0,0-1.251.711V0H12.134V-7.4ZM23.42.137a3.631,3.631,0,0,1-2.649-1,3.548,3.548,0,0,1-1.022-2.659v-.191A4.468,4.468,0,0,1,20.18-5.7,3.161,3.161,0,0,1,21.4-7.058a3.425,3.425,0,0,1,1.8-.475,3.07,3.07,0,0,1,2.389.957,3.889,3.889,0,0,1,.872,2.714v.807h-4.71a1.835,1.835,0,0,0,.578,1.162,1.746,1.746,0,0,0,1.22.438,2.132,2.132,0,0,0,1.784-.827L26.3-1.2a2.966,2.966,0,0,1-1.2.981A3.947,3.947,0,0,1,23.42.137Zm-.226-6.07a1.237,1.237,0,0,0-.954.4A2.048,2.048,0,0,0,21.772-4.4h2.748V-4.56a1.46,1.46,0,0,0-.355-1.015A1.277,1.277,0,0,0,23.194-5.934ZM31.869,0a2.194,2.194,0,0,1-.2-.663,2.39,2.39,0,0,1-1.866.8A2.626,2.626,0,0,1,28-.492a2.023,2.023,0,0,1-.714-1.586,2.09,2.09,0,0,1,.872-1.8,4.3,4.3,0,0,1,2.519-.636h.909v-.424a1.219,1.219,0,0,0-.263-.82A1.035,1.035,0,0,0,30.5-6.07a1.177,1.177,0,0,0-.783.239.813.813,0,0,0-.284.656H27.453a1.984,1.984,0,0,1,.4-1.189,2.621,2.621,0,0,1,1.121-.858A4.086,4.086,0,0,1,30.6-7.533a3.228,3.228,0,0,1,2.17.687,2.4,2.4,0,0,1,.8,1.931v3.206a3.536,3.536,0,0,0,.294,1.593V0ZM30.235-1.374a1.7,1.7,0,0,0,.807-.195,1.28,1.28,0,0,0,.547-.523V-3.363h-.738q-1.483,0-1.579,1.025l-.007.116a.791.791,0,0,0,.26.608A1.009,1.009,0,0,0,30.235-1.374Zm11.416-.082a1.3,1.3,0,0,0,.889-.3,1.054,1.054,0,0,0,.355-.8h1.853a2.534,2.534,0,0,1-.41,1.377,2.706,2.706,0,0,1-1.1.971,3.455,3.455,0,0,1-1.548.345,3.211,3.211,0,0,1-2.5-1.008,3.99,3.99,0,0,1-.916-2.786v-.13a3.944,3.944,0,0,1,.909-2.728,3.174,3.174,0,0,1,2.5-1.019,3.111,3.111,0,0,1,2.225.79,2.8,2.8,0,0,1,.851,2.1H42.9a1.346,1.346,0,0,0-.355-.933,1.188,1.188,0,0,0-.9-.359,1.19,1.19,0,0,0-1.042.5,2.908,2.908,0,0,0-.352,1.63V-3.6a2.945,2.945,0,0,0,.349,1.641A1.205,1.205,0,0,0,41.651-1.456ZM47.961,0H45.979V-7.4h1.982Zm-2.1-9.311a.973.973,0,0,1,.3-.731,1.117,1.117,0,0,1,.81-.287,1.12,1.12,0,0,1,.807.287.967.967,0,0,1,.3.731.97.97,0,0,1-.3.738,1.122,1.122,0,0,1-.8.287,1.122,1.122,0,0,1-.8-.287A.97.97,0,0,1,45.862-9.311ZM51.406-7.4l.062.854a2.582,2.582,0,0,1,2.126-.991,2.146,2.146,0,0,1,1.75.69,3.221,3.221,0,0,1,.588,2.064V0H53.956V-4.73a1.282,1.282,0,0,0-.273-.913,1.224,1.224,0,0,0-.909-.284,1.359,1.359,0,0,0-1.251.711V0H49.547V-7.4Zm8.388-1.818V-7.4h1.265v1.449H59.794v3.691a.881.881,0,0,0,.157.588.79.79,0,0,0,.6.178,3.151,3.151,0,0,0,.581-.048v1.5a4.067,4.067,0,0,1-1.2.178,1.886,1.886,0,0,1-2.119-2.1V-5.947h-1.08V-7.4h1.08V-9.215ZM66.589-.752a2.477,2.477,0,0,1-2.023.889A2.337,2.337,0,0,1,62.75-.547a2.918,2.918,0,0,1-.639-2V-7.4h1.976v4.778q0,1.155,1.053,1.155a1.427,1.427,0,0,0,1.381-.7V-7.4H68.5V0H66.644Zm7.561-4.792a5.367,5.367,0,0,0-.711-.055,1.447,1.447,0,0,0-1.47.759V0H69.993V-7.4h1.866l.055.882a1.831,1.831,0,0,1,1.647-1.019,2.07,2.07,0,0,1,.615.089ZM79.181,0a2.194,2.194,0,0,1-.2-.663,2.39,2.39,0,0,1-1.866.8,2.626,2.626,0,0,1-1.8-.629A2.023,2.023,0,0,1,74.6-2.078a2.09,2.09,0,0,1,.872-1.8,4.3,4.3,0,0,1,2.519-.636H78.9v-.424a1.219,1.219,0,0,0-.263-.82,1.035,1.035,0,0,0-.831-.308,1.177,1.177,0,0,0-.783.239.813.813,0,0,0-.284.656H74.765a1.985,1.985,0,0,1,.4-1.189,2.621,2.621,0,0,1,1.121-.858,4.086,4.086,0,0,1,1.627-.311,3.228,3.228,0,0,1,2.17.687,2.4,2.4,0,0,1,.8,1.931v3.206a3.536,3.536,0,0,0,.294,1.593V0ZM77.547-1.374a1.7,1.7,0,0,0,.807-.195,1.28,1.28,0,0,0,.547-.523V-3.363h-.738q-1.483,0-1.579,1.025l-.007.116a.791.791,0,0,0,.26.608A1.009,1.009,0,0,0,77.547-1.374Z" transform="translate(277.415 18111.295)" fill="#161615"/>
    <path id="Trazado_881373" data-name="Trazado 881373" d="M4.874,89.079s52.491.546,43.742-82.564L66.661,1.046s11.483,62.88,46.477,61.24c0,0,39.369,0,47.024-61.786l15.31,5.467s-11.482,76.551,33.9,82.565c0,0-9.3,109.9-6.015,129.041H.5S12.529,138.836,4.874,92.907" transform="translate(211.832 17957.121)" fill="none" stroke="#0c1d30" stroke-linecap="round" stroke-linejoin="round" stroke-width="1"/>
    <path id="Trazado_881833" data-name="Trazado 881833" d="M166.369,0H0" transform="translate(478.861 18117.691)" fill="none" stroke="#9eb3c8" stroke-width="1"/>
    <path id="Trazado_881834" data-name="Trazado 881834" d="M145.171,0H0" transform="translate(492.268 18039.775)" fill="none" stroke="#9eb3c8" stroke-width="1"/>
    <path id="Trazado_881835" data-name="Trazado 881835" d="M0,0H441.522V218.315H0Z" transform="translate(211.711 17957)" fill="none"/>
    <path id="Trazado_881836" data-name="Trazado 881836" d="M6.421,0H4.956V-3.047H2.1V0H.635V-7.109H2.1v2.881H4.956V-7.109H6.421Zm.967-2.69a3.133,3.133,0,0,1,.3-1.4,2.216,2.216,0,0,1,.872-.952,2.543,2.543,0,0,1,1.321-.337,2.406,2.406,0,0,1,1.746.654,2.626,2.626,0,0,1,.754,1.777l.01.361a2.761,2.761,0,0,1-.679,1.951A2.359,2.359,0,0,1,9.893.1,2.371,2.371,0,0,1,8.069-.635a2.81,2.81,0,0,1-.681-1.992Zm1.411.1a1.97,1.97,0,0,0,.283,1.15.935.935,0,0,0,.811.4.937.937,0,0,0,.8-.393,2.155,2.155,0,0,0,.288-1.257,1.95,1.95,0,0,0-.288-1.143.937.937,0,0,0-.811-.405.922.922,0,0,0-.8.4A2.191,2.191,0,0,0,8.8-2.588Zm5.786-2.7.044.591a1.857,1.857,0,0,1,1.519-.688,1.409,1.409,0,0,1,1.4.806,1.814,1.814,0,0,1,1.587-.806,1.576,1.576,0,0,1,1.279.5,2.3,2.3,0,0,1,.42,1.506V0H19.419V-3.369a1.006,1.006,0,0,0-.176-.657.779.779,0,0,0-.62-.208.881.881,0,0,0-.879.605l0,3.628H16.338V-3.364a.994.994,0,0,0-.181-.664.787.787,0,0,0-.615-.205.914.914,0,0,0-.869.5V0H13.262V-5.283ZM26.68-2.593a3.2,3.2,0,0,1-.542,1.98A1.8,1.8,0,0,1,24.624.1a1.65,1.65,0,0,1-1.372-.659L23.188,0h-1.27V-7.5H23.33v2.69a1.607,1.607,0,0,1,1.284-.571,1.81,1.81,0,0,1,1.516.71,3.2,3.2,0,0,1,.549,2Zm-1.411-.1a2.1,2.1,0,0,0-.254-1.169.859.859,0,0,0-.757-.369.931.931,0,0,0-.928.552V-1.6a.943.943,0,0,0,.938.557.871.871,0,0,0,.9-.674A3.476,3.476,0,0,0,25.269-2.7ZM30.518-3.96A3.834,3.834,0,0,0,30.01-4a1.034,1.034,0,0,0-1.05.542V0H27.549V-5.283h1.333l.039.63A1.308,1.308,0,0,1,30.1-5.381a1.479,1.479,0,0,1,.439.063Zm.193,1.27a3.133,3.133,0,0,1,.3-1.4,2.216,2.216,0,0,1,.872-.952,2.543,2.543,0,0,1,1.321-.337,2.406,2.406,0,0,1,1.746.654,2.626,2.626,0,0,1,.754,1.777l.01.361a2.761,2.761,0,0,1-.679,1.951A2.359,2.359,0,0,1,33.216.1a2.371,2.371,0,0,1-1.824-.732,2.81,2.81,0,0,1-.681-1.992Zm1.411.1a1.97,1.97,0,0,0,.283,1.15.935.935,0,0,0,.811.4.937.937,0,0,0,.8-.393A2.155,2.155,0,0,0,34.3-2.69a1.95,1.95,0,0,0-.288-1.143.937.937,0,0,0-.811-.405.922.922,0,0,0-.8.4A2.191,2.191,0,0,0,32.122-2.588ZM39.446-1.46a.455.455,0,0,0-.256-.408,2.912,2.912,0,0,0-.823-.266q-1.885-.4-1.885-1.6a1.452,1.452,0,0,1,.583-1.174,2.354,2.354,0,0,1,1.526-.471,2.533,2.533,0,0,1,1.609.474,1.493,1.493,0,0,1,.6,1.23H39.392a.683.683,0,0,0-.2-.5.827.827,0,0,0-.61-.2.845.845,0,0,0-.552.161.509.509,0,0,0-.2.41.435.435,0,0,0,.222.378,2.286,2.286,0,0,0,.75.249,6.122,6.122,0,0,1,.889.237,1.46,1.46,0,0,1,1.118,1.421A1.378,1.378,0,0,1,40.2-.349,2.675,2.675,0,0,1,38.6.1a2.794,2.794,0,0,1-1.179-.237,1.978,1.978,0,0,1-.808-.649,1.509,1.509,0,0,1-.293-.891h1.338a.737.737,0,0,0,.278.576,1.1,1.1,0,0,0,.693.2,1.022,1.022,0,0,0,.613-.154A.479.479,0,0,0,39.446-1.46Z" transform="translate(512.374 18023.813)" fill="#0c1d2f"/>
    <path id="Trazado_881837" data-name="Trazado 881837" d="M6.421,0H4.956V-3.047H2.1V0H.635V-7.109H2.1v2.881H4.956V-7.109H6.421Zm.967-2.69a3.133,3.133,0,0,1,.3-1.4,2.216,2.216,0,0,1,.872-.952,2.543,2.543,0,0,1,1.321-.337,2.406,2.406,0,0,1,1.746.654,2.626,2.626,0,0,1,.754,1.777l.01.361a2.761,2.761,0,0,1-.679,1.951A2.359,2.359,0,0,1,9.893.1,2.371,2.371,0,0,1,8.069-.635a2.81,2.81,0,0,1-.681-1.992Zm1.411.1a1.97,1.97,0,0,0,.283,1.15.935.935,0,0,0,.811.4.937.937,0,0,0,.8-.393,2.155,2.155,0,0,0,.288-1.257,1.95,1.95,0,0,0-.288-1.143.937.937,0,0,0-.811-.405.922.922,0,0,0-.8.4A2.191,2.191,0,0,0,8.8-2.588Zm5.786-2.7.044.591a1.857,1.857,0,0,1,1.519-.688,1.409,1.409,0,0,1,1.4.806,1.814,1.814,0,0,1,1.587-.806,1.576,1.576,0,0,1,1.279.5,2.3,2.3,0,0,1,.42,1.506V0H19.419V-3.369a1.006,1.006,0,0,0-.176-.657.779.779,0,0,0-.62-.208.881.881,0,0,0-.879.605l0,3.628H16.338V-3.364a.994.994,0,0,0-.181-.664.787.787,0,0,0-.615-.205.914.914,0,0,0-.869.5V0H13.262V-5.283ZM26.68-2.593a3.2,3.2,0,0,1-.542,1.98A1.8,1.8,0,0,1,24.624.1a1.65,1.65,0,0,1-1.372-.659L23.188,0h-1.27V-7.5H23.33v2.69a1.607,1.607,0,0,1,1.284-.571,1.81,1.81,0,0,1,1.516.71,3.2,3.2,0,0,1,.549,2Zm-1.411-.1a2.1,2.1,0,0,0-.254-1.169.859.859,0,0,0-.757-.369.931.931,0,0,0-.928.552V-1.6a.943.943,0,0,0,.938.557.871.871,0,0,0,.9-.674A3.476,3.476,0,0,0,25.269-2.7ZM30.518-3.96A3.834,3.834,0,0,0,30.01-4a1.034,1.034,0,0,0-1.05.542V0H27.549V-5.283h1.333l.039.63A1.308,1.308,0,0,1,30.1-5.381a1.479,1.479,0,0,1,.439.063Zm.193,1.27a3.133,3.133,0,0,1,.3-1.4,2.216,2.216,0,0,1,.872-.952,2.543,2.543,0,0,1,1.321-.337,2.406,2.406,0,0,1,1.746.654,2.626,2.626,0,0,1,.754,1.777l.01.361a2.761,2.761,0,0,1-.679,1.951A2.359,2.359,0,0,1,33.216.1a2.371,2.371,0,0,1-1.824-.732,2.81,2.81,0,0,1-.681-1.992Zm1.411.1a1.97,1.97,0,0,0,.283,1.15.935.935,0,0,0,.811.4.937.937,0,0,0,.8-.393A2.155,2.155,0,0,0,34.3-2.69a1.95,1.95,0,0,0-.288-1.143.937.937,0,0,0-.811-.405.922.922,0,0,0-.8.4A2.191,2.191,0,0,0,32.122-2.588ZM39.446-1.46a.455.455,0,0,0-.256-.408,2.912,2.912,0,0,0-.823-.266q-1.885-.4-1.885-1.6a1.452,1.452,0,0,1,.583-1.174,2.354,2.354,0,0,1,1.526-.471,2.533,2.533,0,0,1,1.609.474,1.493,1.493,0,0,1,.6,1.23H39.392a.683.683,0,0,0-.2-.5.827.827,0,0,0-.61-.2.845.845,0,0,0-.552.161.509.509,0,0,0-.2.41.435.435,0,0,0,.222.378,2.286,2.286,0,0,0,.75.249,6.122,6.122,0,0,1,.889.237,1.46,1.46,0,0,1,1.118,1.421A1.378,1.378,0,0,1,40.2-.349,2.675,2.675,0,0,1,38.6.1a2.794,2.794,0,0,1-1.179-.237,1.978,1.978,0,0,1-.808-.649,1.509,1.509,0,0,1-.293-.891h1.338a.737.737,0,0,0,.278.576,1.1,1.1,0,0,0,.693.2,1.022,1.022,0,0,0,.613-.154A.479.479,0,0,0,39.446-1.46Z" transform="translate(574.295 18023.813)" fill="#0c1d2f"/>
    <path id="Trazado_881838" data-name="Trazado 881838" d="M8.381-8.292H5.332V0H3.281V-8.292H.273V-9.953H8.381ZM12.7-5.544a5.367,5.367,0,0,0-.711-.055,1.447,1.447,0,0,0-1.47.759V0H8.542V-7.4h1.866l.055.882A1.831,1.831,0,0,1,12.11-7.533a2.07,2.07,0,0,1,.615.089ZM17.729,0a2.194,2.194,0,0,1-.2-.663,2.39,2.39,0,0,1-1.866.8,2.626,2.626,0,0,1-1.8-.629,2.023,2.023,0,0,1-.714-1.586,2.09,2.09,0,0,1,.872-1.8,4.3,4.3,0,0,1,2.519-.636h.909v-.424a1.219,1.219,0,0,0-.263-.82,1.035,1.035,0,0,0-.831-.308,1.177,1.177,0,0,0-.783.239.813.813,0,0,0-.284.656H13.313a1.984,1.984,0,0,1,.4-1.189,2.621,2.621,0,0,1,1.121-.858,4.086,4.086,0,0,1,1.627-.311,3.228,3.228,0,0,1,2.17.687,2.4,2.4,0,0,1,.8,1.931v3.206a3.536,3.536,0,0,0,.294,1.593V0ZM16.1-1.374a1.7,1.7,0,0,0,.807-.195,1.28,1.28,0,0,0,.547-.523V-3.363h-.738q-1.483,0-1.579,1.025l-.007.116a.791.791,0,0,0,.26.608A1.009,1.009,0,0,0,16.1-1.374Zm8.859-.67a.637.637,0,0,0-.359-.571,4.077,4.077,0,0,0-1.152-.373q-2.639-.554-2.639-2.242a2.032,2.032,0,0,1,.817-1.644,3.3,3.3,0,0,1,2.136-.66,3.547,3.547,0,0,1,2.252.663,2.09,2.09,0,0,1,.844,1.723H24.879a.956.956,0,0,0-.273-.7,1.157,1.157,0,0,0-.854-.277,1.182,1.182,0,0,0-.772.226.712.712,0,0,0-.273.574.609.609,0,0,0,.311.53,3.2,3.2,0,0,0,1.049.349,8.571,8.571,0,0,1,1.244.332,2.044,2.044,0,0,1,1.565,1.989,1.929,1.929,0,0,1-.868,1.637,3.745,3.745,0,0,1-2.242.625,3.912,3.912,0,0,1-1.651-.332A2.77,2.77,0,0,1,20.983-1.1a2.113,2.113,0,0,1-.41-1.248h1.873a1.031,1.031,0,0,0,.39.807,1.546,1.546,0,0,0,.971.28,1.43,1.43,0,0,0,.858-.215A.67.67,0,0,0,24.955-2.044Zm6.6,2.181a3.631,3.631,0,0,1-2.649-1A3.548,3.548,0,0,1,27.88-3.521v-.191A4.468,4.468,0,0,1,28.311-5.7a3.161,3.161,0,0,1,1.22-1.354,3.425,3.425,0,0,1,1.8-.475,3.07,3.07,0,0,1,2.389.957,3.889,3.889,0,0,1,.872,2.714v.807h-4.71a1.835,1.835,0,0,0,.578,1.162,1.746,1.746,0,0,0,1.22.438,2.132,2.132,0,0,0,1.784-.827L34.436-1.2a2.966,2.966,0,0,1-1.2.981A3.947,3.947,0,0,1,31.551.137Zm-.226-6.07a1.237,1.237,0,0,0-.954.4A2.048,2.048,0,0,0,29.9-4.4h2.748V-4.56A1.46,1.46,0,0,0,32.3-5.575,1.277,1.277,0,0,0,31.326-5.934Zm8.545.39A5.367,5.367,0,0,0,39.16-5.6a1.447,1.447,0,0,0-1.47.759V0H35.714V-7.4h1.866l.055.882a1.831,1.831,0,0,1,1.647-1.019,2.07,2.07,0,0,1,.615.089ZM44.9,0a2.194,2.194,0,0,1-.2-.663,2.39,2.39,0,0,1-1.866.8,2.626,2.626,0,0,1-1.8-.629,2.023,2.023,0,0,1-.714-1.586,2.09,2.09,0,0,1,.872-1.8,4.3,4.3,0,0,1,2.519-.636h.909v-.424a1.219,1.219,0,0,0-.263-.82,1.035,1.035,0,0,0-.831-.308,1.177,1.177,0,0,0-.783.239.813.813,0,0,0-.284.656H40.486a1.984,1.984,0,0,1,.4-1.189A2.621,2.621,0,0,1,42-7.222a4.086,4.086,0,0,1,1.627-.311,3.228,3.228,0,0,1,2.17.687,2.4,2.4,0,0,1,.8,1.931v3.206A3.536,3.536,0,0,0,46.9-.116V0ZM43.268-1.374a1.7,1.7,0,0,0,.807-.195,1.28,1.28,0,0,0,.547-.523V-3.363h-.738q-1.483,0-1.579,1.025l-.007.116a.791.791,0,0,0,.26.608A1.009,1.009,0,0,0,43.268-1.374Z" transform="translate(545.705 18079.859)" fill="#0c1d2f"/>
    <path id="Trazado_881839" data-name="Trazado 881839" d="M2.939-1.647H7.294V0H.889V-9.953H2.939ZM10.473,0H8.5V-7.4h1.976ZM9.892-10.4h2.153L10.151-8.278H8.545Zm4.1,3,.062.854a2.582,2.582,0,0,1,2.126-.991,2.146,2.146,0,0,1,1.75.69,3.221,3.221,0,0,1,.588,2.064V0H16.543V-4.73a1.282,1.282,0,0,0-.273-.913,1.224,1.224,0,0,0-.909-.284,1.359,1.359,0,0,0-1.251.711V0H12.134V-7.4ZM23.42.137a3.631,3.631,0,0,1-2.649-1,3.548,3.548,0,0,1-1.022-2.659v-.191A4.468,4.468,0,0,1,20.18-5.7,3.161,3.161,0,0,1,21.4-7.058a3.425,3.425,0,0,1,1.8-.475,3.07,3.07,0,0,1,2.389.957,3.889,3.889,0,0,1,.872,2.714v.807h-4.71a1.835,1.835,0,0,0,.578,1.162,1.746,1.746,0,0,0,1.22.438,2.132,2.132,0,0,0,1.784-.827L26.3-1.2a2.966,2.966,0,0,1-1.2.981A3.947,3.947,0,0,1,23.42.137Zm-.226-6.07a1.237,1.237,0,0,0-.954.4A2.048,2.048,0,0,0,21.772-4.4h2.748V-4.56a1.46,1.46,0,0,0-.355-1.015A1.277,1.277,0,0,0,23.194-5.934ZM31.869,0a2.194,2.194,0,0,1-.2-.663,2.39,2.39,0,0,1-1.866.8A2.626,2.626,0,0,1,28-.492a2.023,2.023,0,0,1-.714-1.586,2.09,2.09,0,0,1,.872-1.8,4.3,4.3,0,0,1,2.519-.636h.909v-.424a1.219,1.219,0,0,0-.263-.82A1.035,1.035,0,0,0,30.5-6.07a1.177,1.177,0,0,0-.783.239.813.813,0,0,0-.284.656H27.453a1.984,1.984,0,0,1,.4-1.189,2.621,2.621,0,0,1,1.121-.858A4.086,4.086,0,0,1,30.6-7.533a3.228,3.228,0,0,1,2.17.687,2.4,2.4,0,0,1,.8,1.931v3.206a3.536,3.536,0,0,0,.294,1.593V0ZM30.235-1.374a1.7,1.7,0,0,0,.807-.195,1.28,1.28,0,0,0,.547-.523V-3.363h-.738q-1.483,0-1.579,1.025l-.007.116a.791.791,0,0,0,.26.608A1.009,1.009,0,0,0,30.235-1.374Zm11.416-.082a1.3,1.3,0,0,0,.889-.3,1.054,1.054,0,0,0,.355-.8h1.853a2.534,2.534,0,0,1-.41,1.377,2.706,2.706,0,0,1-1.1.971,3.455,3.455,0,0,1-1.548.345,3.211,3.211,0,0,1-2.5-1.008,3.99,3.99,0,0,1-.916-2.786v-.13a3.944,3.944,0,0,1,.909-2.728,3.174,3.174,0,0,1,2.5-1.019,3.111,3.111,0,0,1,2.225.79,2.8,2.8,0,0,1,.851,2.1H42.9a1.346,1.346,0,0,0-.355-.933,1.188,1.188,0,0,0-.9-.359,1.19,1.19,0,0,0-1.042.5,2.908,2.908,0,0,0-.352,1.63V-3.6a2.945,2.945,0,0,0,.349,1.641A1.205,1.205,0,0,0,41.651-1.456ZM47.961,0H45.979V-7.4h1.982Zm-2.1-9.311a.973.973,0,0,1,.3-.731,1.117,1.117,0,0,1,.81-.287,1.12,1.12,0,0,1,.807.287.967.967,0,0,1,.3.731.97.97,0,0,1-.3.738,1.122,1.122,0,0,1-.8.287,1.122,1.122,0,0,1-.8-.287A.97.97,0,0,1,45.862-9.311ZM51.406-7.4l.062.854a2.582,2.582,0,0,1,2.126-.991,2.146,2.146,0,0,1,1.75.69,3.221,3.221,0,0,1,.588,2.064V0H53.956V-4.73a1.282,1.282,0,0,0-.273-.913,1.224,1.224,0,0,0-.909-.284,1.359,1.359,0,0,0-1.251.711V0H49.547V-7.4Zm8.388-1.818V-7.4h1.265v1.449H59.794v3.691a.881.881,0,0,0,.157.588.79.79,0,0,0,.6.178,3.151,3.151,0,0,0,.581-.048v1.5a4.067,4.067,0,0,1-1.2.178,1.886,1.886,0,0,1-2.119-2.1V-5.947h-1.08V-7.4h1.08V-9.215ZM66.589-.752a2.477,2.477,0,0,1-2.023.889A2.337,2.337,0,0,1,62.75-.547a2.918,2.918,0,0,1-.639-2V-7.4h1.976v4.778q0,1.155,1.053,1.155a1.427,1.427,0,0,0,1.381-.7V-7.4H68.5V0H66.644Zm7.561-4.792a5.367,5.367,0,0,0-.711-.055,1.447,1.447,0,0,0-1.47.759V0H69.993V-7.4h1.866l.055.882a1.831,1.831,0,0,1,1.647-1.019,2.07,2.07,0,0,1,.615.089ZM79.181,0a2.194,2.194,0,0,1-.2-.663,2.39,2.39,0,0,1-1.866.8,2.626,2.626,0,0,1-1.8-.629A2.023,2.023,0,0,1,74.6-2.078a2.09,2.09,0,0,1,.872-1.8,4.3,4.3,0,0,1,2.519-.636H78.9v-.424a1.219,1.219,0,0,0-.263-.82,1.035,1.035,0,0,0-.831-.308,1.177,1.177,0,0,0-.783.239.813.813,0,0,0-.284.656H74.765a1.985,1.985,0,0,1,.4-1.189,2.621,2.621,0,0,1,1.121-.858,4.086,4.086,0,0,1,1.627-.311,3.228,3.228,0,0,1,2.17.687,2.4,2.4,0,0,1,.8,1.931v3.206a3.536,3.536,0,0,0,.294,1.593V0ZM77.547-1.374a1.7,1.7,0,0,0,.807-.195,1.28,1.28,0,0,0,.547-.523V-3.363h-.738q-1.483,0-1.579,1.025l-.007.116a.791.791,0,0,0,.26.608A1.009,1.009,0,0,0,77.547-1.374Z" transform="translate(531.774 18114.711)" fill="#0c1d2f"/>
    <path id="Trazado_881840" data-name="Trazado 881840" d="M2.939-1.647H7.294V0H.889V-9.953H2.939ZM10.473,0H8.5V-7.4h1.976ZM9.892-10.4h2.153L10.151-8.278H8.545Zm4.1,3,.062.854a2.582,2.582,0,0,1,2.126-.991,2.146,2.146,0,0,1,1.75.69,3.221,3.221,0,0,1,.588,2.064V0H16.543V-4.73a1.282,1.282,0,0,0-.273-.913,1.224,1.224,0,0,0-.909-.284,1.359,1.359,0,0,0-1.251.711V0H12.134V-7.4ZM23.42.137a3.631,3.631,0,0,1-2.649-1,3.548,3.548,0,0,1-1.022-2.659v-.191A4.468,4.468,0,0,1,20.18-5.7,3.161,3.161,0,0,1,21.4-7.058a3.425,3.425,0,0,1,1.8-.475,3.07,3.07,0,0,1,2.389.957,3.889,3.889,0,0,1,.872,2.714v.807h-4.71a1.835,1.835,0,0,0,.578,1.162,1.746,1.746,0,0,0,1.22.438,2.132,2.132,0,0,0,1.784-.827L26.3-1.2a2.966,2.966,0,0,1-1.2.981A3.947,3.947,0,0,1,23.42.137Zm-.226-6.07a1.237,1.237,0,0,0-.954.4A2.048,2.048,0,0,0,21.772-4.4h2.748V-4.56a1.46,1.46,0,0,0-.355-1.015A1.277,1.277,0,0,0,23.194-5.934ZM31.869,0a2.194,2.194,0,0,1-.2-.663,2.39,2.39,0,0,1-1.866.8A2.626,2.626,0,0,1,28-.492a2.023,2.023,0,0,1-.714-1.586,2.09,2.09,0,0,1,.872-1.8,4.3,4.3,0,0,1,2.519-.636h.909v-.424a1.219,1.219,0,0,0-.263-.82A1.035,1.035,0,0,0,30.5-6.07a1.177,1.177,0,0,0-.783.239.813.813,0,0,0-.284.656H27.453a1.984,1.984,0,0,1,.4-1.189,2.621,2.621,0,0,1,1.121-.858A4.086,4.086,0,0,1,30.6-7.533a3.228,3.228,0,0,1,2.17.687,2.4,2.4,0,0,1,.8,1.931v3.206a3.536,3.536,0,0,0,.294,1.593V0ZM30.235-1.374a1.7,1.7,0,0,0,.807-.195,1.28,1.28,0,0,0,.547-.523V-3.363h-.738q-1.483,0-1.579,1.025l-.007.116a.791.791,0,0,0,.26.608A1.009,1.009,0,0,0,30.235-1.374Zm15-2.256a4.479,4.479,0,0,1-.759,2.772,2.513,2.513,0,0,1-2.119.995,2.309,2.309,0,0,1-1.921-.923L40.353,0H38.575V-10.5h1.976v3.767a2.25,2.25,0,0,1,1.8-.8,2.534,2.534,0,0,1,2.123.995,4.485,4.485,0,0,1,.769,2.8Zm-1.976-.144a2.942,2.942,0,0,0-.355-1.637,1.2,1.2,0,0,0-1.06-.516,1.3,1.3,0,0,0-1.3.772v2.919a1.321,1.321,0,0,0,1.313.779A1.22,1.22,0,0,0,43.121-2.4,4.866,4.866,0,0,0,43.265-3.773ZM50.887-.752a2.477,2.477,0,0,1-2.023.889,2.337,2.337,0,0,1-1.815-.684,2.918,2.918,0,0,1-.639-2V-7.4h1.976v4.778q0,1.155,1.053,1.155a1.427,1.427,0,0,0,1.381-.7V-7.4H52.8V0H50.941ZM58.3-2.044a.637.637,0,0,0-.359-.571,4.077,4.077,0,0,0-1.152-.373q-2.639-.554-2.639-2.242a2.032,2.032,0,0,1,.817-1.644,3.3,3.3,0,0,1,2.136-.66,3.547,3.547,0,0,1,2.252.663A2.09,2.09,0,0,1,60.2-5.147H58.222a.956.956,0,0,0-.273-.7,1.157,1.157,0,0,0-.854-.277,1.182,1.182,0,0,0-.772.226.712.712,0,0,0-.273.574.609.609,0,0,0,.311.53,3.2,3.2,0,0,0,1.049.349,8.571,8.571,0,0,1,1.244.332,2.044,2.044,0,0,1,1.565,1.989A1.929,1.929,0,0,1,59.35-.489a3.745,3.745,0,0,1-2.242.625,3.912,3.912,0,0,1-1.651-.332A2.77,2.77,0,0,1,54.325-1.1a2.113,2.113,0,0,1-.41-1.248h1.873a1.031,1.031,0,0,0,.39.807,1.546,1.546,0,0,0,.971.28,1.43,1.43,0,0,0,.858-.215A.67.67,0,0,0,58.3-2.044Zm5.558-7.171V-7.4h1.265v1.449H63.854v3.691a.881.881,0,0,0,.157.588.79.79,0,0,0,.6.178,3.15,3.15,0,0,0,.581-.048v1.5A4.067,4.067,0,0,1,64,.137a1.886,1.886,0,0,1-2.119-2.1V-5.947H60.8V-7.4h1.08V-9.215Zm1.853,5.448a4.387,4.387,0,0,1,.424-1.962,3.1,3.1,0,0,1,1.22-1.333A3.56,3.56,0,0,1,69.2-7.533a3.368,3.368,0,0,1,2.444.916A3.676,3.676,0,0,1,72.7-4.129l.014.506a3.866,3.866,0,0,1-.95,2.731A3.3,3.3,0,0,1,69.214.137,3.319,3.319,0,0,1,66.661-.889a3.934,3.934,0,0,1-.954-2.789Zm1.976.144a2.757,2.757,0,0,0,.4,1.61,1.309,1.309,0,0,0,1.135.557,1.312,1.312,0,0,0,1.121-.55,3.017,3.017,0,0,0,.4-1.76,2.73,2.73,0,0,0-.4-1.6A1.312,1.312,0,0,0,69.2-5.934a1.29,1.29,0,0,0-1.121.564A3.068,3.068,0,0,0,67.683-3.623Z" transform="translate(536.185 18054.021)" fill="#0c1d2f"/>
    <path id="Trazado_881374" data-name="Trazado 881374" d="M129.9,193.686c-.186-13.106,1.126-121.864,1.285-134.876" transform="translate(243.099 17971.213)" fill="none" stroke="#0c1d30" stroke-linecap="round" stroke-linejoin="round" stroke-width="0.945"/>
    <path id="Trazado_881375" data-name="Trazado 881375" d="M135.626,164.417l-.867-.792-3.9,4.274-3.979-4.2-.851.808,4.846,5.113Z" transform="translate(242.168 17996.541)" fill="#0c1d30"/>
    <path id="Trazado_881376" data-name="Trazado 881376" d="M136.628,63l-.868.79-3.889-4.281L127.884,63.7l-.849-.811,4.856-5.1Z" transform="translate(242.41 17970.965)" fill="#0c1d30"/>
    <path id="Trazado_881377" data-name="Trazado 881377" d="M249.1,193.686c-.186-13.106,1.126-121.864,1.284-134.876" transform="translate(271.903 17971.213)" fill="none" stroke="#0c1d30" stroke-linecap="round" stroke-linejoin="round" stroke-width="0.945"/>
    <path id="Trazado_881378" data-name="Trazado 881378" d="M254.821,164.417l-.867-.792-3.9,4.274-3.978-4.2-.852.808,4.846,5.113Z" transform="translate(270.973 17996.541)" fill="#0c1d30"/>
    <path id="Trazado_881379" data-name="Trazado 881379" d="M255.823,63l-.868.79-3.889-4.281L247.079,63.7l-.849-.811,4.856-5.1Z" transform="translate(271.215 17970.965)" fill="#0c1d30"/>
    <path id="Trazado_881380" data-name="Trazado 881380" d="M213.971,89.93c-.672-2.1,37.318,1.23,37.728-86.939L266.463.94s-1.23,56.592,36.908,54.542S347.25,1.351,347.25,1.351L361.6,2.17S352.991,84.6,389.489,93.62c0,0-6.971,103.753-4.511,123.027H212.741s1.936-28.166,3-58.242C216.753,129.737,216.974,99.335,213.971,89.93Z" transform="translate(263.122 17957.227)" fill="none" stroke="#0c1d30" stroke-linecap="round" stroke-linejoin="round" stroke-width="1"/>
    <path id="Trazado_881841" data-name="Trazado 881841" d="M0,0H441.522V218.315H0Z" transform="translate(211.711 17957)" fill="none"/>
  </g>
</svg>
