<svg xmlns="http://www.w3.org/2000/svg" xmlns:xlink="http://www.w3.org/1999/xlink" width="337.466" height="378.641" viewBox="0 0 337.466 378.641">
  <defs>
    <clipPath id="clip-path">
      <rect id="Rectángulo_404042" data-name="Rectángulo 404042" width="337.466" height="378.641" fill="none"/>
    </clipPath>
  </defs>
  <g id="Grupo_1103489" data-name="Grupo 1103489" transform="translate(-210.711 -17115.68)">
    <g id="Grupo_1103373" data-name="Grupo 1103373" transform="translate(210.711 17115.68)" clip-path="url(#clip-path)">
      <path id="Trazado_881327" data-name="Trazado 881327" d="M21.345,57.271C20.677,53.6,23.07,28.806,23.07,28.806l282.064.431-.289,17.458" transform="translate(6.492 8.81)" fill="none" stroke="#9eb3c8" stroke-miterlimit="10" stroke-width="1"/>
      <line id="Línea_4750" data-name="Línea 4750" x2="287.67" transform="translate(23.956 271.112)" fill="none" stroke="#0c1d30" stroke-linecap="round" stroke-linejoin="round" stroke-width="1"/>
      <path id="Trazado_881328" data-name="Trazado 881328" d="M21.615,208.257a2.749,2.749,0,1,1-2.749-2.749,2.748,2.748,0,0,1,2.749,2.749" transform="translate(4.929 62.855)" fill="#0c1d2f"/>
      <path id="Trazado_881329" data-name="Trazado 881329" d="M135.45,207.708a2.749,2.749,0,1,1-2.749-2.749,2.748,2.748,0,0,1,2.749,2.749" transform="translate(39.746 62.687)" fill="#0c1d2f"/>
      <path id="Trazado_881330" data-name="Trazado 881330" d="M241.811,208.257a2.749,2.749,0,1,1-2.749-2.749,2.748,2.748,0,0,1,2.749,2.749" transform="translate(72.277 62.855)" fill="#0c1d2f"/>
      <line id="Línea_4751" data-name="Línea 4751" x2="287.67" transform="translate(23.956 161.947)" fill="none" stroke="#0c1d30" stroke-linecap="round" stroke-linejoin="round" stroke-width="1"/>
      <path id="Trazado_881331" data-name="Trazado 881331" d="M21.615,124.569a2.749,2.749,0,1,1-2.749-2.749,2.748,2.748,0,0,1,2.749,2.749" transform="translate(4.929 37.259)" fill="#0c1d2f"/>
      <path id="Trazado_881332" data-name="Trazado 881332" d="M135.45,124.569a2.749,2.749,0,1,1-2.749-2.749,2.748,2.748,0,0,1,2.749,2.749" transform="translate(39.746 37.259)" fill="#0c1d2f"/>
      <path id="Trazado_881333" data-name="Trazado 881333" d="M241.811,124.569a2.749,2.749,0,1,1-2.749-2.749,2.748,2.748,0,0,1,2.749,2.749" transform="translate(72.277 37.259)" fill="#0c1d2f"/>
      <path id="Trazado_881334" data-name="Trazado 881334" d="M163.866,124.569a2.749,2.749,0,1,1-2.749-2.749,2.748,2.748,0,0,1,2.749,2.749" transform="translate(48.437 37.259)" fill="#0c1d2f"/>
      <path id="Trazado_881335" data-name="Trazado 881335" d="M106.178,124.569a2.749,2.749,0,1,1-2.749-2.749,2.748,2.748,0,0,1,2.749,2.749" transform="translate(30.793 37.259)" fill="#0c1d2f"/>
      <line id="Línea_4752" data-name="Línea 4752" x2="287.67" transform="translate(23.956 123.826)" fill="none" stroke="#0c1d30" stroke-linecap="round" stroke-linejoin="round" stroke-width="1"/>
      <path id="Trazado_881336" data-name="Trazado 881336" d="M241.811,95.5a2.749,2.749,0,1,1-2.749-2.749,2.748,2.748,0,0,1,2.749,2.749" transform="translate(72.277 28.37)" fill="#0c1d2f"/>
      <path id="Trazado_881337" data-name="Trazado 881337" d="M163.866,95.5a2.749,2.749,0,1,1-2.749-2.749,2.748,2.748,0,0,1,2.749,2.749" transform="translate(48.437 28.37)" fill="#0c1d2f"/>
      <path id="Trazado_881338" data-name="Trazado 881338" d="M106.178,95.5a2.749,2.749,0,1,1-2.749-2.749,2.748,2.748,0,0,1,2.749,2.749" transform="translate(30.793 28.37)" fill="#0c1d2f"/>
      <path id="Trazado_881339" data-name="Trazado 881339" d="M26.239,29.45A2.749,2.749,0,1,1,23.49,26.7a2.748,2.748,0,0,1,2.749,2.749" transform="translate(6.344 8.167)" fill="#0c1d2f"/>
      <path id="Trazado_881340" data-name="Trazado 881340" d="M49.55,28.692A2.749,2.749,0,1,1,46.8,25.943a2.748,2.748,0,0,1,2.749,2.749" transform="translate(13.473 7.935)" fill="#0c1d2f"/>
      <path id="Trazado_881341" data-name="Trazado 881341" d="M241.811,29.45a2.749,2.749,0,1,1-2.749-2.749,2.748,2.748,0,0,1,2.749,2.749" transform="translate(72.277 8.167)" fill="#0c1d2f"/>
      <path id="Trazado_881342" data-name="Trazado 881342" d="M163.866,29.45a2.749,2.749,0,1,1-2.749-2.749,2.748,2.748,0,0,1,2.749,2.749" transform="translate(48.437 8.167)" fill="#0c1d2f"/>
      <path id="Trazado_881343" data-name="Trazado 881343" d="M135.242,29.45a2.749,2.749,0,1,1-2.749-2.749,2.748,2.748,0,0,1,2.749,2.749" transform="translate(39.682 8.167)" fill="#0c1d2f"/>
      <path id="Trazado_881344" data-name="Trazado 881344" d="M106.178,29.45a2.749,2.749,0,1,1-2.749-2.749,2.748,2.748,0,0,1,2.749,2.749" transform="translate(30.793 8.167)" fill="#0c1d2f"/>
      <path id="Trazado_881345" data-name="Trazado 881345" d="M19.556,257.046c.287-2.012,3.163-200.981,3.163-200.981S51.077,58.4,54.293,28.047c1.2.7,74.811,28.593,74.811,28.593s-9.776,54.343-2.3,83.383" transform="translate(5.981 8.578)" fill="none" stroke="#9eb3c8" stroke-miterlimit="10" stroke-width="1" stroke-dasharray="3 3"/>
      <path id="Trazado_881346" data-name="Trazado 881346" d="M263.433,109.821l.575-63.831s-21.852,4.026-28.178-16.963c0,0-28.465,10.063-73.606,16.963,0,0,4.6,71.307-7.476,98.335" transform="translate(47.33 8.878)" fill="none" stroke="#9eb3c8" stroke-miterlimit="10" stroke-width="1" stroke-dasharray="3 3"/>
      <line id="Línea_4753" data-name="Línea 4753" y2="318.579" transform="translate(172.463 36.754)" fill="none" stroke="#0c1d30" stroke-linecap="round" stroke-linejoin="round" stroke-width="1"/>
      <path id="Trazado_881347" data-name="Trazado 881347" d="M132.29,317.578s12.077-76.626,0-184.736" transform="translate(40.461 40.63)" fill="none" stroke="#9eb3c8" stroke-miterlimit="10" stroke-width="1"/>
      <path id="Trazado_881348" data-name="Trazado 881348" d="M132.152,316.14s-10.939-75.188,1.137-183.3" transform="translate(39.03 40.63)" fill="none" stroke="#9eb3c8" stroke-miterlimit="10" stroke-width="1"/>
      <text id="Eliminar" transform="translate(35.183 12.04)" fill="#0c1d2f" font-size="14" font-family="Roboto-Bold, Roboto" font-weight="700"><tspan x="0" y="0">Eliminar</tspan></text>
    </g>
    <path id="Trazado_881549" data-name="Trazado 881549" d="M.889,0V-9.953H3.951A4.651,4.651,0,0,1,6.3-9.362,4.123,4.123,0,0,1,7.916-7.68,5.187,5.187,0,0,1,8.5-5.2v.458a5.2,5.2,0,0,1-.571,2.468A4.088,4.088,0,0,1,6.316-.6,4.686,4.686,0,0,1,3.972,0ZM2.939-8.292v6.645h.991A2.227,2.227,0,0,0,5.77-2.434a3.552,3.552,0,0,0,.649-2.249v-.526a3.609,3.609,0,0,0-.629-2.3,2.219,2.219,0,0,0-1.839-.783ZM13.262.137a3.631,3.631,0,0,1-2.649-1A3.548,3.548,0,0,1,9.591-3.521v-.191A4.468,4.468,0,0,1,10.021-5.7a3.161,3.161,0,0,1,1.22-1.354,3.425,3.425,0,0,1,1.8-.475,3.07,3.07,0,0,1,2.389.957A3.889,3.889,0,0,1,16.3-3.862v.807h-4.71a1.835,1.835,0,0,0,.578,1.162,1.746,1.746,0,0,0,1.22.438,2.132,2.132,0,0,0,1.784-.827L16.146-1.2a2.966,2.966,0,0,1-1.2.981A3.947,3.947,0,0,1,13.262.137Zm-.226-6.07a1.237,1.237,0,0,0-.954.4A2.048,2.048,0,0,0,11.614-4.4h2.748V-4.56a1.46,1.46,0,0,0-.355-1.015A1.277,1.277,0,0,0,13.036-5.934ZM19.51,0H17.527V-10.5H19.51Zm5.913,0a2.194,2.194,0,0,1-.2-.663,2.39,2.39,0,0,1-1.866.8,2.626,2.626,0,0,1-1.8-.629,2.023,2.023,0,0,1-.714-1.586,2.09,2.09,0,0,1,.872-1.8,4.3,4.3,0,0,1,2.519-.636h.909v-.424a1.219,1.219,0,0,0-.263-.82,1.035,1.035,0,0,0-.831-.308,1.177,1.177,0,0,0-.783.239.813.813,0,0,0-.284.656H21.007a1.984,1.984,0,0,1,.4-1.189,2.621,2.621,0,0,1,1.121-.858,4.086,4.086,0,0,1,1.627-.311,3.228,3.228,0,0,1,2.17.687,2.4,2.4,0,0,1,.8,1.931v3.206a3.536,3.536,0,0,0,.294,1.593V0ZM23.789-1.374a1.7,1.7,0,0,0,.807-.195,1.28,1.28,0,0,0,.547-.523V-3.363H24.4q-1.483,0-1.579,1.025l-.007.116a.791.791,0,0,0,.26.608A1.009,1.009,0,0,0,23.789-1.374ZM30.461-7.4l.062.854a2.582,2.582,0,0,1,2.126-.991,2.146,2.146,0,0,1,1.75.69,3.221,3.221,0,0,1,.588,2.064V0H33.011V-4.73a1.282,1.282,0,0,0-.273-.913,1.224,1.224,0,0,0-.909-.284,1.359,1.359,0,0,0-1.251.711V0H28.6V-7.4Zm8.388-1.818V-7.4h1.265v1.449H38.849v3.691a.881.881,0,0,0,.157.588.79.79,0,0,0,.6.178,3.151,3.151,0,0,0,.581-.048v1.5a4.067,4.067,0,0,1-1.2.178,1.886,1.886,0,0,1-2.119-2.1V-5.947h-1.08V-7.4h1.08V-9.215ZM44.618.137a3.631,3.631,0,0,1-2.649-1,3.548,3.548,0,0,1-1.022-2.659v-.191A4.468,4.468,0,0,1,41.378-5.7,3.161,3.161,0,0,1,42.6-7.058a3.425,3.425,0,0,1,1.8-.475,3.07,3.07,0,0,1,2.389.957,3.889,3.889,0,0,1,.872,2.714v.807H42.95a1.835,1.835,0,0,0,.578,1.162,1.746,1.746,0,0,0,1.22.438,2.132,2.132,0,0,0,1.784-.827L47.5-1.2a2.966,2.966,0,0,1-1.2.981A3.947,3.947,0,0,1,44.618.137Zm-.226-6.07a1.237,1.237,0,0,0-.954.4A2.048,2.048,0,0,0,42.971-4.4h2.748V-4.56a1.46,1.46,0,0,0-.355-1.015A1.277,1.277,0,0,0,44.393-5.934Zm8.545.39a5.367,5.367,0,0,0-.711-.055,1.447,1.447,0,0,0-1.47.759V0H48.781V-7.4h1.866l.055.882A1.831,1.831,0,0,1,52.35-7.533a2.07,2.07,0,0,1,.615.089ZM57.969,0a2.194,2.194,0,0,1-.2-.663,2.39,2.39,0,0,1-1.866.8,2.626,2.626,0,0,1-1.8-.629,2.023,2.023,0,0,1-.714-1.586,2.09,2.09,0,0,1,.872-1.8,4.3,4.3,0,0,1,2.519-.636h.909v-.424a1.219,1.219,0,0,0-.263-.82,1.035,1.035,0,0,0-.831-.308,1.177,1.177,0,0,0-.783.239.813.813,0,0,0-.284.656H53.553a1.984,1.984,0,0,1,.4-1.189,2.621,2.621,0,0,1,1.121-.858A4.086,4.086,0,0,1,56.7-7.533a3.228,3.228,0,0,1,2.17.687,2.4,2.4,0,0,1,.8,1.931v3.206a3.536,3.536,0,0,0,.294,1.593V0ZM56.335-1.374a1.7,1.7,0,0,0,.807-.195,1.28,1.28,0,0,0,.547-.523V-3.363H56.95q-1.483,0-1.579,1.025l-.007.116a.791.791,0,0,0,.26.608A1.009,1.009,0,0,0,56.335-1.374Z" transform="translate(252.363 17300.668)" fill="#0c1d2f"/>
    <g id="Grupo_1103375" data-name="Grupo 1103375" transform="translate(210.711 17115.68)" clip-path="url(#clip-path)">
      <path id="Trazado_881349" data-name="Trazado 881349" d="M31.9,143.584Z" transform="translate(9.756 43.915)" fill="none" stroke="#0c1d2f" stroke-miterlimit="10" stroke-width="0.586"/>
    </g>
    <path id="Trazado_881550" data-name="Trazado 881550" d="M2.939-1.647H7.294V0H.889V-9.953H2.939ZM10.473,0H8.5V-7.4h1.976ZM9.892-10.4h2.153L10.151-8.278H8.545Zm4.1,3,.062.854a2.582,2.582,0,0,1,2.126-.991,2.146,2.146,0,0,1,1.75.69,3.221,3.221,0,0,1,.588,2.064V0H16.543V-4.73a1.282,1.282,0,0,0-.273-.913,1.224,1.224,0,0,0-.909-.284,1.359,1.359,0,0,0-1.251.711V0H12.134V-7.4ZM23.42.137a3.631,3.631,0,0,1-2.649-1,3.548,3.548,0,0,1-1.022-2.659v-.191A4.468,4.468,0,0,1,20.18-5.7,3.161,3.161,0,0,1,21.4-7.058a3.425,3.425,0,0,1,1.8-.475,3.07,3.07,0,0,1,2.389.957,3.889,3.889,0,0,1,.872,2.714v.807h-4.71a1.835,1.835,0,0,0,.578,1.162,1.746,1.746,0,0,0,1.22.438,2.132,2.132,0,0,0,1.784-.827L26.3-1.2a2.966,2.966,0,0,1-1.2.981A3.947,3.947,0,0,1,23.42.137Zm-.226-6.07a1.237,1.237,0,0,0-.954.4A2.048,2.048,0,0,0,21.772-4.4h2.748V-4.56a1.46,1.46,0,0,0-.355-1.015A1.277,1.277,0,0,0,23.194-5.934ZM31.869,0a2.194,2.194,0,0,1-.2-.663,2.39,2.39,0,0,1-1.866.8A2.626,2.626,0,0,1,28-.492a2.023,2.023,0,0,1-.714-1.586,2.09,2.09,0,0,1,.872-1.8,4.3,4.3,0,0,1,2.519-.636h.909v-.424a1.219,1.219,0,0,0-.263-.82A1.035,1.035,0,0,0,30.5-6.07a1.177,1.177,0,0,0-.783.239.813.813,0,0,0-.284.656H27.453a1.984,1.984,0,0,1,.4-1.189,2.621,2.621,0,0,1,1.121-.858A4.086,4.086,0,0,1,30.6-7.533a3.228,3.228,0,0,1,2.17.687,2.4,2.4,0,0,1,.8,1.931v3.206a3.536,3.536,0,0,0,.294,1.593V0ZM30.235-1.374a1.7,1.7,0,0,0,.807-.195,1.28,1.28,0,0,0,.547-.523V-3.363h-.738q-1.483,0-1.579,1.025l-.007.116a.791.791,0,0,0,.26.608A1.009,1.009,0,0,0,30.235-1.374Z" transform="translate(333.444 17381.75)" fill="#0c1d2f"/>
    <path id="Trazado_881551" data-name="Trazado 881551" d="M2.939-1.647H7.294V0H.889V-9.953H2.939ZM10.473,0H8.5V-7.4h1.976ZM9.892-10.4h2.153L10.151-8.278H8.545Zm4.1,3,.062.854a2.582,2.582,0,0,1,2.126-.991,2.146,2.146,0,0,1,1.75.69,3.221,3.221,0,0,1,.588,2.064V0H16.543V-4.73a1.282,1.282,0,0,0-.273-.913,1.224,1.224,0,0,0-.909-.284,1.359,1.359,0,0,0-1.251.711V0H12.134V-7.4ZM23.42.137a3.631,3.631,0,0,1-2.649-1,3.548,3.548,0,0,1-1.022-2.659v-.191A4.468,4.468,0,0,1,20.18-5.7,3.161,3.161,0,0,1,21.4-7.058a3.425,3.425,0,0,1,1.8-.475,3.07,3.07,0,0,1,2.389.957,3.889,3.889,0,0,1,.872,2.714v.807h-4.71a1.835,1.835,0,0,0,.578,1.162,1.746,1.746,0,0,0,1.22.438,2.132,2.132,0,0,0,1.784-.827L26.3-1.2a2.966,2.966,0,0,1-1.2.981A3.947,3.947,0,0,1,23.42.137Zm-.226-6.07a1.237,1.237,0,0,0-.954.4A2.048,2.048,0,0,0,21.772-4.4h2.748V-4.56a1.46,1.46,0,0,0-.355-1.015A1.277,1.277,0,0,0,23.194-5.934ZM31.869,0a2.194,2.194,0,0,1-.2-.663,2.39,2.39,0,0,1-1.866.8A2.626,2.626,0,0,1,28-.492a2.023,2.023,0,0,1-.714-1.586,2.09,2.09,0,0,1,.872-1.8,4.3,4.3,0,0,1,2.519-.636h.909v-.424a1.219,1.219,0,0,0-.263-.82A1.035,1.035,0,0,0,30.5-6.07a1.177,1.177,0,0,0-.783.239.813.813,0,0,0-.284.656H27.453a1.984,1.984,0,0,1,.4-1.189,2.621,2.621,0,0,1,1.121-.858A4.086,4.086,0,0,1,30.6-7.533a3.228,3.228,0,0,1,2.17.687,2.4,2.4,0,0,1,.8,1.931v3.206a3.536,3.536,0,0,0,.294,1.593V0ZM30.235-1.374a1.7,1.7,0,0,0,.807-.195,1.28,1.28,0,0,0,.547-.523V-3.363h-.738q-1.483,0-1.579,1.025l-.007.116a.791.791,0,0,0,.26.608A1.009,1.009,0,0,0,30.235-1.374Z" transform="translate(333.444 17463.689)" fill="#0c1d2f"/>
    <path id="Trazado_881552" data-name="Trazado 881552" d="M.889,0V-9.953H4.375a4.578,4.578,0,0,1,2.748.694A2.373,2.373,0,0,1,8.06-7.226a2.249,2.249,0,0,1-.376,1.289,2.172,2.172,0,0,1-1.046.817,2.1,2.1,0,0,1,1.207.772,2.284,2.284,0,0,1,.441,1.422A2.627,2.627,0,0,1,7.369-.752,4.124,4.124,0,0,1,4.758,0ZM2.939-4.334v2.687H4.7a1.7,1.7,0,0,0,1.131-.345,1.184,1.184,0,0,0,.407-.954A1.25,1.25,0,0,0,4.819-4.334Zm0-1.449H4.457q1.552-.027,1.552-1.237a1.143,1.143,0,0,0-.393-.974,2.067,2.067,0,0,0-1.241-.3H2.939ZM13.979,0a2.194,2.194,0,0,1-.2-.663,2.39,2.39,0,0,1-1.866.8,2.626,2.626,0,0,1-1.8-.629A2.023,2.023,0,0,1,9.4-2.078a2.09,2.09,0,0,1,.872-1.8,4.3,4.3,0,0,1,2.519-.636H13.7v-.424a1.219,1.219,0,0,0-.263-.82,1.035,1.035,0,0,0-.831-.308,1.177,1.177,0,0,0-.783.239.813.813,0,0,0-.284.656H9.563a1.984,1.984,0,0,1,.4-1.189,2.621,2.621,0,0,1,1.121-.858,4.086,4.086,0,0,1,1.627-.311,3.228,3.228,0,0,1,2.17.687,2.4,2.4,0,0,1,.8,1.931v3.206a3.536,3.536,0,0,0,.294,1.593V0ZM12.346-1.374a1.7,1.7,0,0,0,.807-.195,1.28,1.28,0,0,0,.547-.523V-3.363h-.738q-1.483,0-1.579,1.025l-.007.116a.791.791,0,0,0,.26.608A1.009,1.009,0,0,0,12.346-1.374ZM19.291-7.4V.4a2.646,2.646,0,0,1-.649,1.9,2.468,2.468,0,0,1-1.873.68,4.017,4.017,0,0,1-.978-.116V1.306a3.708,3.708,0,0,0,.622.062q.9,0,.9-.95V-7.4Zm-2.14-1.914a.973.973,0,0,1,.3-.731,1.117,1.117,0,0,1,.81-.287,1.117,1.117,0,0,1,.81.287.973.973,0,0,1,.3.731.97.97,0,0,1-.3.738,1.122,1.122,0,0,1-.8.287,1.122,1.122,0,0,1-.8-.287A.97.97,0,0,1,17.151-9.311Zm3.377,5.544a4.387,4.387,0,0,1,.424-1.962,3.1,3.1,0,0,1,1.22-1.333,3.56,3.56,0,0,1,1.849-.472,3.368,3.368,0,0,1,2.444.916,3.676,3.676,0,0,1,1.056,2.488l.014.506a3.866,3.866,0,0,1-.95,2.731A3.3,3.3,0,0,1,24.035.137,3.319,3.319,0,0,1,21.482-.889a3.934,3.934,0,0,1-.954-2.789Zm1.976.144a2.757,2.757,0,0,0,.4,1.61,1.309,1.309,0,0,0,1.135.557,1.312,1.312,0,0,0,1.121-.55,3.017,3.017,0,0,0,.4-1.76,2.73,2.73,0,0,0-.4-1.6,1.312,1.312,0,0,0-1.135-.567A1.29,1.29,0,0,0,22.9-5.37,3.068,3.068,0,0,0,22.5-3.623ZM32.758-2.044a.637.637,0,0,0-.359-.571,4.077,4.077,0,0,0-1.152-.373q-2.639-.554-2.639-2.242a2.032,2.032,0,0,1,.817-1.644,3.3,3.3,0,0,1,2.136-.66,3.547,3.547,0,0,1,2.252.663,2.09,2.09,0,0,1,.844,1.723H32.683a.956.956,0,0,0-.273-.7,1.157,1.157,0,0,0-.854-.277,1.182,1.182,0,0,0-.772.226.712.712,0,0,0-.273.574.609.609,0,0,0,.311.53,3.2,3.2,0,0,0,1.049.349,8.571,8.571,0,0,1,1.244.332,2.044,2.044,0,0,1,1.565,1.989,1.929,1.929,0,0,1-.868,1.637,3.745,3.745,0,0,1-2.242.625,3.912,3.912,0,0,1-1.651-.332A2.77,2.77,0,0,1,28.786-1.1a2.113,2.113,0,0,1-.41-1.248h1.873a1.031,1.031,0,0,0,.39.807,1.546,1.546,0,0,0,.971.28,1.43,1.43,0,0,0,.858-.215A.67.67,0,0,0,32.758-2.044Z" transform="translate(391.675 17463.689)" fill="#0c1d2f"/>
    <path id="Trazado_881553" data-name="Trazado 881553" d="M6.877-4.313H2.939v2.666H7.561V0H.889V-9.953H7.547v1.661H2.939V-5.92H6.877Z" transform="translate(391.675 17401.557)" fill="#0c1d2f"/>
    <path id="Trazado_881554" data-name="Trazado 881554" d="M9.051-4.751A6,6,0,0,1,8.6-2.328,4.16,4.16,0,0,1,7.349-.677L9,.622,7.7,1.777,5.578.075a4.486,4.486,0,0,1-.752.062A4.141,4.141,0,0,1,2.618-.458a3.951,3.951,0,0,1-1.5-1.7A5.837,5.837,0,0,1,.574-4.7v-.492A5.977,5.977,0,0,1,1.1-7.776,3.945,3.945,0,0,1,2.6-9.492a4.118,4.118,0,0,1,2.211-.6,4.118,4.118,0,0,1,2.211.6,3.945,3.945,0,0,1,1.5,1.716A5.96,5.96,0,0,1,9.051-5.2ZM6.973-5.2a4.188,4.188,0,0,0-.561-2.379,1.827,1.827,0,0,0-1.6-.813,1.827,1.827,0,0,0-1.593.8,4.141,4.141,0,0,0-.567,2.355v.485a4.241,4.241,0,0,0,.561,2.365,1.822,1.822,0,0,0,1.613.841,1.806,1.806,0,0,0,1.586-.81,4.216,4.216,0,0,0,.561-2.362ZM15.142,0H13.166V-7.615l-2.358.731V-8.49L14.93-9.967h.212Z" transform="translate(388.228 17301.502)" fill="#0c1d2f"/>
    <path id="Trazado_881555" data-name="Trazado 881555" d="M8.989,0H6.938V-4.266h-4V0H.889V-9.953H2.939V-5.92h4V-9.953H8.989Zm6.378,0H13.392V-7.615l-2.358.731V-8.49l4.122-1.477h.212Z" transform="translate(420.146 17292.023)" fill="#0c1d2f"/>
    <path id="Trazado_881556" data-name="Trazado 881556" d="M3.069,0H1.019V-9.953H3.069ZM9.557,0H7.581V-7.615l-2.358.731V-8.49L9.345-9.967h.212Z" transform="translate(333.883 17292.023)" fill="#0c1d2f"/>
    <path id="Trazado_881557" data-name="Trazado 881557" d="M8.7-3.315A3.522,3.522,0,0,1,7.516-.786,4.165,4.165,0,0,1,4.7.137,3.745,3.745,0,0,1,1.685-1.152a5.284,5.284,0,0,1-1.1-3.538V-5.3a5.966,5.966,0,0,1,.506-2.529A3.791,3.791,0,0,1,2.54-9.505a4.05,4.05,0,0,1,2.184-.584A4.058,4.058,0,0,1,7.5-9.167,3.785,3.785,0,0,1,8.716-6.576H6.665a2.079,2.079,0,0,0-.537-1.4,1.987,1.987,0,0,0-1.4-.434,1.742,1.742,0,0,0-1.535.735,4.118,4.118,0,0,0-.523,2.28v.752a4.408,4.408,0,0,0,.489,2.358A1.71,1.71,0,0,0,4.7-1.538a2.025,2.025,0,0,0,1.418-.434,1.961,1.961,0,0,0,.537-1.343ZM12,0H10.021V-7.4H12Zm-2.1-9.311a.973.973,0,0,1,.3-.731,1.117,1.117,0,0,1,.81-.287,1.12,1.12,0,0,1,.807.287.967.967,0,0,1,.3.731.97.97,0,0,1-.3.738,1.122,1.122,0,0,1-.8.287,1.122,1.122,0,0,1-.8-.287A.97.97,0,0,1,9.905-9.311ZM15.449-7.4l.062.854a2.582,2.582,0,0,1,2.126-.991,2.146,2.146,0,0,1,1.75.69,3.221,3.221,0,0,1,.588,2.064V0H18V-4.73a1.282,1.282,0,0,0-.273-.913,1.224,1.224,0,0,0-.909-.284,1.359,1.359,0,0,0-1.251.711V0H13.59V-7.4Zm8.388-1.818V-7.4H25.1v1.449H23.837v3.691a.881.881,0,0,0,.157.588.79.79,0,0,0,.6.178,3.151,3.151,0,0,0,.581-.048v1.5a4.067,4.067,0,0,1-1.2.178,1.886,1.886,0,0,1-2.119-2.1V-5.947h-1.08V-7.4h1.08V-9.215ZM30.632-.752a2.477,2.477,0,0,1-2.023.889,2.337,2.337,0,0,1-1.815-.684,2.918,2.918,0,0,1-.639-2V-7.4H28.13v4.778q0,1.155,1.053,1.155a1.427,1.427,0,0,0,1.381-.7V-7.4h1.982V0H30.687Zm7.561-4.792a5.367,5.367,0,0,0-.711-.055,1.447,1.447,0,0,0-1.47.759V0H34.036V-7.4H35.9l.055.882A1.831,1.831,0,0,1,37.6-7.533a2.07,2.07,0,0,1,.615.089ZM43.224,0a2.194,2.194,0,0,1-.2-.663,2.39,2.39,0,0,1-1.866.8,2.626,2.626,0,0,1-1.8-.629,2.023,2.023,0,0,1-.714-1.586,2.09,2.09,0,0,1,.872-1.8,4.3,4.3,0,0,1,2.519-.636h.909v-.424a1.219,1.219,0,0,0-.263-.82,1.035,1.035,0,0,0-.831-.308,1.177,1.177,0,0,0-.783.239.813.813,0,0,0-.284.656H38.808a1.984,1.984,0,0,1,.4-1.189,2.621,2.621,0,0,1,1.121-.858,4.086,4.086,0,0,1,1.627-.311,3.228,3.228,0,0,1,2.17.687,2.4,2.4,0,0,1,.8,1.931v3.206A3.536,3.536,0,0,0,45.22-.116V0ZM41.59-1.374a1.7,1.7,0,0,0,.807-.195,1.28,1.28,0,0,0,.547-.523V-3.363h-.738q-1.483,0-1.579,1.025l-.007.116a.791.791,0,0,0,.26.608A1.009,1.009,0,0,0,41.59-1.374Z" transform="translate(392.536 17381.75)" fill="#0c1d2f"/>
    <path id="Trazado_881558" data-name="Trazado 881558" d="M2.939-1.647H7.294V0H.889V-9.953H2.939ZM10.473,0H8.5V-7.4h1.976ZM9.892-10.4h2.153L10.151-8.278H8.545Zm4.1,3,.062.854a2.582,2.582,0,0,1,2.126-.991,2.146,2.146,0,0,1,1.75.69,3.221,3.221,0,0,1,.588,2.064V0H16.543V-4.73a1.282,1.282,0,0,0-.273-.913,1.224,1.224,0,0,0-.909-.284,1.359,1.359,0,0,0-1.251.711V0H12.134V-7.4ZM23.42.137a3.631,3.631,0,0,1-2.649-1,3.548,3.548,0,0,1-1.022-2.659v-.191A4.468,4.468,0,0,1,20.18-5.7,3.161,3.161,0,0,1,21.4-7.058a3.425,3.425,0,0,1,1.8-.475,3.07,3.07,0,0,1,2.389.957,3.889,3.889,0,0,1,.872,2.714v.807h-4.71a1.835,1.835,0,0,0,.578,1.162,1.746,1.746,0,0,0,1.22.438,2.132,2.132,0,0,0,1.784-.827L26.3-1.2a2.966,2.966,0,0,1-1.2.981A3.947,3.947,0,0,1,23.42.137Zm-.226-6.07a1.237,1.237,0,0,0-.954.4A2.048,2.048,0,0,0,21.772-4.4h2.748V-4.56a1.46,1.46,0,0,0-.355-1.015A1.277,1.277,0,0,0,23.194-5.934ZM31.869,0a2.194,2.194,0,0,1-.2-.663,2.39,2.39,0,0,1-1.866.8A2.626,2.626,0,0,1,28-.492a2.023,2.023,0,0,1-.714-1.586,2.09,2.09,0,0,1,.872-1.8,4.3,4.3,0,0,1,2.519-.636h.909v-.424a1.219,1.219,0,0,0-.263-.82A1.035,1.035,0,0,0,30.5-6.07a1.177,1.177,0,0,0-.783.239.813.813,0,0,0-.284.656H27.453a1.984,1.984,0,0,1,.4-1.189,2.621,2.621,0,0,1,1.121-.858A4.086,4.086,0,0,1,30.6-7.533a3.228,3.228,0,0,1,2.17.687,2.4,2.4,0,0,1,.8,1.931v3.206a3.536,3.536,0,0,0,.294,1.593V0ZM30.235-1.374a1.7,1.7,0,0,0,.807-.195,1.28,1.28,0,0,0,.547-.523V-3.363h-.738q-1.483,0-1.579,1.025l-.007.116a.791.791,0,0,0,.26.608A1.009,1.009,0,0,0,30.235-1.374Zm15-2.256a4.479,4.479,0,0,1-.759,2.772,2.513,2.513,0,0,1-2.119.995,2.309,2.309,0,0,1-1.921-.923L40.353,0H38.575V-10.5h1.976v3.767a2.25,2.25,0,0,1,1.8-.8,2.534,2.534,0,0,1,2.123.995,4.485,4.485,0,0,1,.769,2.8Zm-1.976-.144a2.942,2.942,0,0,0-.355-1.637,1.2,1.2,0,0,0-1.06-.516,1.3,1.3,0,0,0-1.3.772v2.919a1.321,1.321,0,0,0,1.313.779A1.22,1.22,0,0,0,43.121-2.4,4.866,4.866,0,0,0,43.265-3.773ZM50.887-.752a2.477,2.477,0,0,1-2.023.889,2.337,2.337,0,0,1-1.815-.684,2.918,2.918,0,0,1-.639-2V-7.4h1.976v4.778q0,1.155,1.053,1.155a1.427,1.427,0,0,0,1.381-.7V-7.4H52.8V0H50.941ZM58.3-2.044a.637.637,0,0,0-.359-.571,4.077,4.077,0,0,0-1.152-.373q-2.639-.554-2.639-2.242a2.032,2.032,0,0,1,.817-1.644,3.3,3.3,0,0,1,2.136-.66,3.547,3.547,0,0,1,2.252.663A2.09,2.09,0,0,1,60.2-5.147H58.222a.956.956,0,0,0-.273-.7,1.157,1.157,0,0,0-.854-.277,1.182,1.182,0,0,0-.772.226.712.712,0,0,0-.273.574.609.609,0,0,0,.311.53,3.2,3.2,0,0,0,1.049.349,8.571,8.571,0,0,1,1.244.332,2.044,2.044,0,0,1,1.565,1.989A1.929,1.929,0,0,1,59.35-.489a3.745,3.745,0,0,1-2.242.625,3.912,3.912,0,0,1-1.651-.332A2.77,2.77,0,0,1,54.325-1.1a2.113,2.113,0,0,1-.41-1.248h1.873a1.031,1.031,0,0,0,.39.807,1.546,1.546,0,0,0,.971.28,1.43,1.43,0,0,0,.858-.215A.67.67,0,0,0,58.3-2.044Zm5.558-7.171V-7.4h1.265v1.449H63.854v3.691a.881.881,0,0,0,.157.588.79.79,0,0,0,.6.178,3.15,3.15,0,0,0,.581-.048v1.5A4.067,4.067,0,0,1,64,.137a1.886,1.886,0,0,1-2.119-2.1V-5.947H60.8V-7.4h1.08V-9.215Zm1.853,5.448a4.387,4.387,0,0,1,.424-1.962,3.1,3.1,0,0,1,1.22-1.333A3.56,3.56,0,0,1,69.2-7.533a3.368,3.368,0,0,1,2.444.916A3.676,3.676,0,0,1,72.7-4.129l.014.506a3.866,3.866,0,0,1-.95,2.731A3.3,3.3,0,0,1,69.214.137,3.319,3.319,0,0,1,66.661-.889a3.934,3.934,0,0,1-.954-2.789Zm1.976.144a2.757,2.757,0,0,0,.4,1.61,1.309,1.309,0,0,0,1.135.557,1.312,1.312,0,0,0,1.121-.55,3.017,3.017,0,0,0,.4-1.76,2.73,2.73,0,0,0-.4-1.6A1.312,1.312,0,0,0,69.2-5.934a1.29,1.29,0,0,0-1.121.564A3.068,3.068,0,0,0,67.683-3.623Z" transform="translate(248.057 17272.199)" fill="#0c1d2f"/>
    <path id="Trazado_881559" data-name="Trazado 881559" d="M2.939-1.647H7.294V0H.889V-9.953H2.939ZM10.473,0H8.5V-7.4h1.976ZM9.892-10.4h2.153L10.151-8.278H8.545Zm4.1,3,.062.854a2.582,2.582,0,0,1,2.126-.991,2.146,2.146,0,0,1,1.75.69,3.221,3.221,0,0,1,.588,2.064V0H16.543V-4.73a1.282,1.282,0,0,0-.273-.913,1.224,1.224,0,0,0-.909-.284,1.359,1.359,0,0,0-1.251.711V0H12.134V-7.4ZM23.42.137a3.631,3.631,0,0,1-2.649-1,3.548,3.548,0,0,1-1.022-2.659v-.191A4.468,4.468,0,0,1,20.18-5.7,3.161,3.161,0,0,1,21.4-7.058a3.425,3.425,0,0,1,1.8-.475,3.07,3.07,0,0,1,2.389.957,3.889,3.889,0,0,1,.872,2.714v.807h-4.71a1.835,1.835,0,0,0,.578,1.162,1.746,1.746,0,0,0,1.22.438,2.132,2.132,0,0,0,1.784-.827L26.3-1.2a2.966,2.966,0,0,1-1.2.981A3.947,3.947,0,0,1,23.42.137Zm-.226-6.07a1.237,1.237,0,0,0-.954.4A2.048,2.048,0,0,0,21.772-4.4h2.748V-4.56a1.46,1.46,0,0,0-.355-1.015A1.277,1.277,0,0,0,23.194-5.934ZM31.869,0a2.194,2.194,0,0,1-.2-.663,2.39,2.39,0,0,1-1.866.8A2.626,2.626,0,0,1,28-.492a2.023,2.023,0,0,1-.714-1.586,2.09,2.09,0,0,1,.872-1.8,4.3,4.3,0,0,1,2.519-.636h.909v-.424a1.219,1.219,0,0,0-.263-.82A1.035,1.035,0,0,0,30.5-6.07a1.177,1.177,0,0,0-.783.239.813.813,0,0,0-.284.656H27.453a1.984,1.984,0,0,1,.4-1.189,2.621,2.621,0,0,1,1.121-.858A4.086,4.086,0,0,1,30.6-7.533a3.228,3.228,0,0,1,2.17.687,2.4,2.4,0,0,1,.8,1.931v3.206a3.536,3.536,0,0,0,.294,1.593V0ZM30.235-1.374a1.7,1.7,0,0,0,.807-.195,1.28,1.28,0,0,0,.547-.523V-3.363h-.738q-1.483,0-1.579,1.025l-.007.116a.791.791,0,0,0,.26.608A1.009,1.009,0,0,0,30.235-1.374Zm15-2.256a4.479,4.479,0,0,1-.759,2.772,2.513,2.513,0,0,1-2.119.995,2.309,2.309,0,0,1-1.921-.923L40.353,0H38.575V-10.5h1.976v3.767a2.25,2.25,0,0,1,1.8-.8,2.534,2.534,0,0,1,2.123.995,4.485,4.485,0,0,1,.769,2.8Zm-1.976-.144a2.942,2.942,0,0,0-.355-1.637,1.2,1.2,0,0,0-1.06-.516,1.3,1.3,0,0,0-1.3.772v2.919a1.321,1.321,0,0,0,1.313.779A1.22,1.22,0,0,0,43.121-2.4,4.866,4.866,0,0,0,43.265-3.773ZM50.887-.752a2.477,2.477,0,0,1-2.023.889,2.337,2.337,0,0,1-1.815-.684,2.918,2.918,0,0,1-.639-2V-7.4h1.976v4.778q0,1.155,1.053,1.155a1.427,1.427,0,0,0,1.381-.7V-7.4H52.8V0H50.941ZM58.3-2.044a.637.637,0,0,0-.359-.571,4.077,4.077,0,0,0-1.152-.373q-2.639-.554-2.639-2.242a2.032,2.032,0,0,1,.817-1.644,3.3,3.3,0,0,1,2.136-.66,3.547,3.547,0,0,1,2.252.663A2.09,2.09,0,0,1,60.2-5.147H58.222a.956.956,0,0,0-.273-.7,1.157,1.157,0,0,0-.854-.277,1.182,1.182,0,0,0-.772.226.712.712,0,0,0-.273.574.609.609,0,0,0,.311.53,3.2,3.2,0,0,0,1.049.349,8.571,8.571,0,0,1,1.244.332,2.044,2.044,0,0,1,1.565,1.989A1.929,1.929,0,0,1,59.35-.489a3.745,3.745,0,0,1-2.242.625,3.912,3.912,0,0,1-1.651-.332A2.77,2.77,0,0,1,54.325-1.1a2.113,2.113,0,0,1-.41-1.248h1.873a1.031,1.031,0,0,0,.39.807,1.546,1.546,0,0,0,.971.28,1.43,1.43,0,0,0,.858-.215A.67.67,0,0,0,58.3-2.044Zm5.558-7.171V-7.4h1.265v1.449H63.854v3.691a.881.881,0,0,0,.157.588.79.79,0,0,0,.6.178,3.15,3.15,0,0,0,.581-.048v1.5A4.067,4.067,0,0,1,64,.137a1.886,1.886,0,0,1-2.119-2.1V-5.947H60.8V-7.4h1.08V-9.215Zm1.853,5.448a4.387,4.387,0,0,1,.424-1.962,3.1,3.1,0,0,1,1.22-1.333A3.56,3.56,0,0,1,69.2-7.533a3.368,3.368,0,0,1,2.444.916A3.676,3.676,0,0,1,72.7-4.129l.014.506a3.866,3.866,0,0,1-.95,2.731A3.3,3.3,0,0,1,69.214.137,3.319,3.319,0,0,1,66.661-.889a3.934,3.934,0,0,1-.954-2.789Zm1.976.144a2.757,2.757,0,0,0,.4,1.61,1.309,1.309,0,0,0,1.135.557,1.312,1.312,0,0,0,1.121-.55,3.017,3.017,0,0,0,.4-1.76,2.73,2.73,0,0,0-.4-1.6A1.312,1.312,0,0,0,69.2-5.934a1.29,1.29,0,0,0-1.121.564A3.068,3.068,0,0,0,67.683-3.623Z" transform="translate(431.352 17272.199)" fill="#0c1d2f"/>
    <path id="Trazado_881560" data-name="Trazado 881560" d="M8.381-8.292H5.332V0H3.281V-8.292H.273V-9.953H8.381Zm.2,4.525A4.387,4.387,0,0,1,9-5.729a3.1,3.1,0,0,1,1.22-1.333,3.56,3.56,0,0,1,1.849-.472,3.368,3.368,0,0,1,2.444.916,3.676,3.676,0,0,1,1.056,2.488l.014.506a3.866,3.866,0,0,1-.95,2.731A3.3,3.3,0,0,1,12.087.137,3.319,3.319,0,0,1,9.534-.889,3.934,3.934,0,0,1,8.58-3.678Zm1.976.144a2.757,2.757,0,0,0,.4,1.61,1.309,1.309,0,0,0,1.135.557,1.312,1.312,0,0,0,1.121-.55,3.017,3.017,0,0,0,.4-1.76,2.73,2.73,0,0,0-.4-1.6,1.312,1.312,0,0,0-1.135-.567,1.29,1.29,0,0,0-1.121.564A3.068,3.068,0,0,0,10.556-3.623ZM12.463-10.5h2.153L12.723-8.381H11.116Zm8.5,4.956a5.367,5.367,0,0,0-.711-.055,1.447,1.447,0,0,0-1.47.759V0H16.8V-7.4H18.67l.055.882a1.831,1.831,0,0,1,1.647-1.019,2.07,2.07,0,0,1,.615.089ZM25.991,0a2.194,2.194,0,0,1-.2-.663,2.39,2.39,0,0,1-1.866.8,2.626,2.626,0,0,1-1.8-.629,2.023,2.023,0,0,1-.714-1.586,2.09,2.09,0,0,1,.872-1.8A4.3,4.3,0,0,1,24.8-4.519h.909v-.424a1.219,1.219,0,0,0-.263-.82,1.035,1.035,0,0,0-.831-.308,1.177,1.177,0,0,0-.783.239.813.813,0,0,0-.284.656H21.575a1.984,1.984,0,0,1,.4-1.189,2.621,2.621,0,0,1,1.121-.858,4.086,4.086,0,0,1,1.627-.311,3.228,3.228,0,0,1,2.17.687,2.4,2.4,0,0,1,.8,1.931v3.206a3.536,3.536,0,0,0,.294,1.593V0ZM24.358-1.374a1.7,1.7,0,0,0,.807-.195,1.28,1.28,0,0,0,.547-.523V-3.363h-.738q-1.483,0-1.579,1.025l-.007.116a.791.791,0,0,0,.26.608A1.009,1.009,0,0,0,24.358-1.374Zm7.67-3.814L33.272-7.4h2.112L33.279-3.773,35.473,0H33.354L32.034-2.324,30.722,0H28.6L30.79-3.773,28.692-7.4h2.119Z" transform="translate(288.597 17234.246)" fill="#0c1d2f"/>
    <path id="Trazado_881561" data-name="Trazado 881561" d="M1.47-.824H3.647V0H.444V-4.977H1.47ZM5.236,0H4.249V-3.7h.988ZM4.946-5.2H6.022l-.947,1.06h-.8ZM7-3.7l.031.427a1.291,1.291,0,0,1,1.063-.5,1.073,1.073,0,0,1,.875.345,1.611,1.611,0,0,1,.294,1.032V0H8.271V-2.365a.641.641,0,0,0-.137-.456.612.612,0,0,0-.455-.142.68.68,0,0,0-.625.355V0H6.067V-3.7ZM11.71.068a1.816,1.816,0,0,1-1.324-.5,1.774,1.774,0,0,1-.511-1.33v-.1a2.234,2.234,0,0,1,.215-1,1.58,1.58,0,0,1,.61-.677,1.712,1.712,0,0,1,.9-.238,1.535,1.535,0,0,1,1.195.479,1.944,1.944,0,0,1,.436,1.357v.4H10.876a.918.918,0,0,0,.289.581.873.873,0,0,0,.61.219,1.066,1.066,0,0,0,.892-.414l.485.543a1.483,1.483,0,0,1-.6.49A1.974,1.974,0,0,1,11.71.068ZM11.6-2.967a.619.619,0,0,0-.477.2,1.024,1.024,0,0,0-.234.567H12.26V-2.28a.73.73,0,0,0-.178-.508A.638.638,0,0,0,11.6-2.967ZM15.935,0a1.1,1.1,0,0,1-.1-.332,1.2,1.2,0,0,1-.933.4A1.313,1.313,0,0,1,14-.246a1.011,1.011,0,0,1-.357-.793,1.045,1.045,0,0,1,.436-.9,2.15,2.15,0,0,1,1.26-.318h.455v-.212a.609.609,0,0,0-.132-.41.518.518,0,0,0-.415-.154.589.589,0,0,0-.391.12.406.406,0,0,0-.142.328h-.988a.992.992,0,0,1,.2-.595,1.31,1.31,0,0,1,.561-.429,2.043,2.043,0,0,1,.813-.156,1.614,1.614,0,0,1,1.085.344,1.2,1.2,0,0,1,.4.966v1.6a1.768,1.768,0,0,0,.147.8V0Zm-.817-.687a.851.851,0,0,0,.4-.1.64.64,0,0,0,.273-.261v-.636h-.369q-.742,0-.79.513l0,.058a.4.4,0,0,0,.13.3A.5.5,0,0,0,15.118-.687Zm5.134-2.608a1.233,1.233,0,0,1,.988-.472q1.2,0,1.22,1.4V0h-.988V-2.341a.687.687,0,0,0-.137-.47.586.586,0,0,0-.455-.152.672.672,0,0,0-.629.335V0h-.988V-5.25h.988Zm2.8,1.412a2.193,2.193,0,0,1,.212-.981,1.551,1.551,0,0,1,.61-.667,1.78,1.78,0,0,1,.925-.236,1.684,1.684,0,0,1,1.222.458,1.838,1.838,0,0,1,.528,1.244l.007.253a1.933,1.933,0,0,1-.475,1.365A1.651,1.651,0,0,1,24.8.068a1.66,1.66,0,0,1-1.277-.513,1.967,1.967,0,0,1-.477-1.395Zm.988.072a1.379,1.379,0,0,0,.2.8.654.654,0,0,0,.567.279A.656.656,0,0,0,25.365-1a1.509,1.509,0,0,0,.2-.88,1.365,1.365,0,0,0-.2-.8.656.656,0,0,0-.567-.284.645.645,0,0,0-.561.282A1.534,1.534,0,0,0,24.039-1.812ZM28.089-3.7l.031.414a1.3,1.3,0,0,1,1.063-.482.986.986,0,0,1,.981.564,1.27,1.27,0,0,1,1.111-.564,1.1,1.1,0,0,1,.9.35,1.61,1.61,0,0,1,.294,1.054V0h-.991V-2.358a.7.7,0,0,0-.123-.46.545.545,0,0,0-.434-.145.617.617,0,0,0-.615.424L30.3,0h-.988V-2.355a.7.7,0,0,0-.126-.465.551.551,0,0,0-.431-.144.64.64,0,0,0-.608.349V0h-.988V-3.7Zm8.466,1.883a2.239,2.239,0,0,1-.379,1.386,1.257,1.257,0,0,1-1.06.5,1.155,1.155,0,0,1-.96-.461L34.111,0h-.889V-5.25h.988v1.883a1.125,1.125,0,0,1,.9-.4,1.267,1.267,0,0,1,1.061.5,2.243,2.243,0,0,1,.385,1.4Zm-.988-.072a1.471,1.471,0,0,0-.178-.819.6.6,0,0,0-.53-.258.652.652,0,0,0-.649.386v1.459a.66.66,0,0,0,.656.39A.61.61,0,0,0,35.5-1.2,2.433,2.433,0,0,0,35.567-1.887Zm3.674-.885a2.684,2.684,0,0,0-.355-.027.724.724,0,0,0-.735.379V0h-.988V-3.7H38.1l.027.441a.915.915,0,0,1,.824-.509,1.035,1.035,0,0,1,.308.044Zm.135.889a2.193,2.193,0,0,1,.212-.981,1.551,1.551,0,0,1,.61-.667,1.78,1.78,0,0,1,.925-.236,1.684,1.684,0,0,1,1.222.458,1.838,1.838,0,0,1,.528,1.244l.007.253a1.933,1.933,0,0,1-.475,1.365A1.651,1.651,0,0,1,41.13.068a1.66,1.66,0,0,1-1.277-.513,1.967,1.967,0,0,1-.477-1.395Zm.988.072a1.379,1.379,0,0,0,.2.8.654.654,0,0,0,.567.279A.656.656,0,0,0,41.691-1a1.509,1.509,0,0,0,.2-.88,1.365,1.365,0,0,0-.2-.8.656.656,0,0,0-.567-.284.645.645,0,0,0-.561.282A1.534,1.534,0,0,0,40.365-1.812Zm5.127.79a.318.318,0,0,0-.179-.285,2.038,2.038,0,0,0-.576-.186q-1.319-.277-1.319-1.121a1.016,1.016,0,0,1,.408-.822,1.648,1.648,0,0,1,1.068-.33,1.773,1.773,0,0,1,1.126.332,1.045,1.045,0,0,1,.422.861h-.988a.478.478,0,0,0-.137-.35.579.579,0,0,0-.427-.138.591.591,0,0,0-.386.113.356.356,0,0,0-.137.287.3.3,0,0,0,.156.265,1.6,1.6,0,0,0,.525.174,4.285,4.285,0,0,1,.622.166,1.022,1.022,0,0,1,.783.995.965.965,0,0,1-.434.819A1.873,1.873,0,0,1,44.9.068,1.956,1.956,0,0,1,44.072-.1a1.385,1.385,0,0,1-.566-.455,1.056,1.056,0,0,1-.205-.624h.937a.516.516,0,0,0,.195.4.773.773,0,0,0,.485.14.715.715,0,0,0,.429-.108A.335.335,0,0,0,45.492-1.022Z" transform="translate(430.915 17234.891)" fill="#0c1d2f"/>
    <path id="Trazado_881562" data-name="Trazado 881562" d="M1.89-1.059h2.8V0H.571V-6.4H1.89ZM6.732,0H5.462V-4.755h1.27ZM6.359-6.684H7.743L6.526-5.322H5.493ZM9-4.755l.04.549A1.66,1.66,0,0,1,10.4-4.843a1.38,1.38,0,0,1,1.125.444A2.071,2.071,0,0,1,11.9-3.072V0h-1.27V-3.041a.824.824,0,0,0-.176-.587.787.787,0,0,0-.584-.182.874.874,0,0,0-.8.457V0H7.8V-4.755ZM15.056.088a2.334,2.334,0,0,1-1.7-.642A2.281,2.281,0,0,1,12.7-2.263v-.123a2.872,2.872,0,0,1,.277-1.281,2.032,2.032,0,0,1,.784-.87,2.2,2.2,0,0,1,1.158-.305,1.973,1.973,0,0,1,1.536.615,2.5,2.5,0,0,1,.56,1.745v.519H13.983a1.18,1.18,0,0,0,.371.747,1.123,1.123,0,0,0,.784.281,1.371,1.371,0,0,0,1.147-.532l.624.7a1.907,1.907,0,0,1-.773.631A2.538,2.538,0,0,1,15.056.088Zm-.145-3.9a.8.8,0,0,0-.613.255,1.317,1.317,0,0,0-.3.729h1.767v-.1a.939.939,0,0,0-.229-.653A.821.821,0,0,0,14.911-3.814ZM20.487,0a1.41,1.41,0,0,1-.127-.426,1.537,1.537,0,0,1-1.2.514A1.688,1.688,0,0,1,18-.316a1.3,1.3,0,0,1-.459-1.02A1.344,1.344,0,0,1,18.1-2.5,2.765,2.765,0,0,1,19.723-2.9h.584v-.272a.784.784,0,0,0-.169-.527.666.666,0,0,0-.534-.2.757.757,0,0,0-.5.154.523.523,0,0,0-.182.422h-1.27a1.276,1.276,0,0,1,.255-.765,1.685,1.685,0,0,1,.721-.552,2.627,2.627,0,0,1,1.046-.2,2.075,2.075,0,0,1,1.4.442,1.545,1.545,0,0,1,.516,1.241V-1.1a2.273,2.273,0,0,0,.189,1.024V0Zm-1.05-.883a1.094,1.094,0,0,0,.519-.125.823.823,0,0,0,.352-.336v-.817h-.475q-.954,0-1.015.659l0,.075a.508.508,0,0,0,.167.391A.649.649,0,0,0,19.437-.883Z" transform="translate(244.649 17234.277)" fill="#0c1d2f"/>
    <path id="Trazado_881563" data-name="Trazado 881563" d="M8.381-8.292H5.332V0H3.281V-8.292H.273V-9.953H8.381ZM12.7-5.544a5.367,5.367,0,0,0-.711-.055,1.447,1.447,0,0,0-1.47.759V0H8.542V-7.4h1.866l.055.882A1.831,1.831,0,0,1,12.11-7.533a2.07,2.07,0,0,1,.615.089ZM17.729,0a2.194,2.194,0,0,1-.2-.663,2.39,2.39,0,0,1-1.866.8,2.626,2.626,0,0,1-1.8-.629,2.023,2.023,0,0,1-.714-1.586,2.09,2.09,0,0,1,.872-1.8,4.3,4.3,0,0,1,2.519-.636h.909v-.424a1.219,1.219,0,0,0-.263-.82,1.035,1.035,0,0,0-.831-.308,1.177,1.177,0,0,0-.783.239.813.813,0,0,0-.284.656H13.313a1.984,1.984,0,0,1,.4-1.189,2.621,2.621,0,0,1,1.121-.858,4.086,4.086,0,0,1,1.627-.311,3.228,3.228,0,0,1,2.17.687,2.4,2.4,0,0,1,.8,1.931v3.206a3.536,3.536,0,0,0,.294,1.593V0ZM16.1-1.374a1.7,1.7,0,0,0,.807-.195,1.28,1.28,0,0,0,.547-.523V-3.363h-.738q-1.483,0-1.579,1.025l-.007.116a.791.791,0,0,0,.26.608A1.009,1.009,0,0,0,16.1-1.374Zm8.859-.67a.637.637,0,0,0-.359-.571,4.077,4.077,0,0,0-1.152-.373q-2.639-.554-2.639-2.242a2.032,2.032,0,0,1,.817-1.644,3.3,3.3,0,0,1,2.136-.66,3.547,3.547,0,0,1,2.252.663,2.09,2.09,0,0,1,.844,1.723H24.879a.956.956,0,0,0-.273-.7,1.157,1.157,0,0,0-.854-.277,1.182,1.182,0,0,0-.772.226.712.712,0,0,0-.273.574.609.609,0,0,0,.311.53,3.2,3.2,0,0,0,1.049.349,8.571,8.571,0,0,1,1.244.332,2.044,2.044,0,0,1,1.565,1.989,1.929,1.929,0,0,1-.868,1.637,3.745,3.745,0,0,1-2.242.625,3.912,3.912,0,0,1-1.651-.332A2.77,2.77,0,0,1,20.983-1.1a2.113,2.113,0,0,1-.41-1.248h1.873a1.031,1.031,0,0,0,.39.807,1.546,1.546,0,0,0,.971.28,1.43,1.43,0,0,0,.858-.215A.67.67,0,0,0,24.955-2.044Zm6.6,2.181a3.631,3.631,0,0,1-2.649-1A3.548,3.548,0,0,1,27.88-3.521v-.191A4.468,4.468,0,0,1,28.311-5.7a3.161,3.161,0,0,1,1.22-1.354,3.425,3.425,0,0,1,1.8-.475,3.07,3.07,0,0,1,2.389.957,3.889,3.889,0,0,1,.872,2.714v.807h-4.71a1.835,1.835,0,0,0,.578,1.162,1.746,1.746,0,0,0,1.22.438,2.132,2.132,0,0,0,1.784-.827L34.436-1.2a2.966,2.966,0,0,1-1.2.981A3.947,3.947,0,0,1,31.551.137Zm-.226-6.07a1.237,1.237,0,0,0-.954.4A2.048,2.048,0,0,0,29.9-4.4h2.748V-4.56A1.46,1.46,0,0,0,32.3-5.575,1.277,1.277,0,0,0,31.326-5.934Zm8.545.39A5.367,5.367,0,0,0,39.16-5.6a1.447,1.447,0,0,0-1.47.759V0H35.714V-7.4h1.866l.055.882a1.831,1.831,0,0,1,1.647-1.019,2.07,2.07,0,0,1,.615.089ZM44.9,0a2.194,2.194,0,0,1-.2-.663,2.39,2.39,0,0,1-1.866.8,2.626,2.626,0,0,1-1.8-.629,2.023,2.023,0,0,1-.714-1.586,2.09,2.09,0,0,1,.872-1.8,4.3,4.3,0,0,1,2.519-.636h.909v-.424a1.219,1.219,0,0,0-.263-.82,1.035,1.035,0,0,0-.831-.308,1.177,1.177,0,0,0-.783.239.813.813,0,0,0-.284.656H40.486a1.984,1.984,0,0,1,.4-1.189A2.621,2.621,0,0,1,42-7.222a4.086,4.086,0,0,1,1.627-.311,3.228,3.228,0,0,1,2.17.687,2.4,2.4,0,0,1,.8,1.931v3.206A3.536,3.536,0,0,0,46.9-.116V0ZM43.268-1.374a1.7,1.7,0,0,0,.807-.195,1.28,1.28,0,0,0,.547-.523V-3.363h-.738q-1.483,0-1.579,1.025l-.007.116a.791.791,0,0,0,.26.608A1.009,1.009,0,0,0,43.268-1.374Z" transform="translate(449.894 17301.242)" fill="#0c1d2f"/>
    <g id="Grupo_1103377" data-name="Grupo 1103377" transform="translate(210.711 17115.68)" clip-path="url(#clip-path)">
      <path id="Trazado_881350" data-name="Trazado 881350" d="M183.162,144.024Z" transform="translate(56.02 44.05)" fill="none" stroke="#0c1d2f" stroke-miterlimit="10" stroke-width="0.586"/>
      <text id="D2" transform="translate(318.109 127.041)" fill="#0c1d2f" font-size="14" font-family="Roboto-Bold, Roboto" font-weight="700"><tspan x="0" y="0">D2</tspan></text>
    </g>
    <path id="Trazado_881564" data-name="Trazado 881564" d="M2.939-1.647H7.294V0H.889V-9.953H2.939Z" transform="translate(528.819 17259.303)" fill="#0c1d2f"/>
    <path id="Trazado_881565" data-name="Trazado 881565" d="M8.989,0H6.938V-4.266h-4V0H.889V-9.953H2.939V-5.92h4V-9.953H8.989Z" transform="translate(528.819 17280.395)" fill="#0c1d2f"/>
    <path id="Trazado_881566" data-name="Trazado 881566" d="M.889,0V-9.953H3.951A4.651,4.651,0,0,1,6.3-9.362,4.123,4.123,0,0,1,7.916-7.68,5.187,5.187,0,0,1,8.5-5.2v.458a5.2,5.2,0,0,1-.571,2.468A4.088,4.088,0,0,1,6.316-.6,4.686,4.686,0,0,1,3.972,0ZM2.939-8.292v6.645h.991A2.227,2.227,0,0,0,5.77-2.434a3.552,3.552,0,0,0,.649-2.249v-.526a3.609,3.609,0,0,0-.629-2.3,2.219,2.219,0,0,0-1.839-.783Z" transform="translate(528.819 17157.916)" fill="#0c1d2f"/>
    <g id="Grupo_1103379" data-name="Grupo 1103379" transform="translate(210.711 17115.68)" clip-path="url(#clip-path)">
      <text id="D1" transform="translate(318.109 60.345)" fill="#0c1d2f" font-size="14" font-family="Roboto-Bold, Roboto" font-weight="700"><tspan x="0" y="0">D1</tspan></text>
    </g>
    <path id="Trazado_881567" data-name="Trazado 881567" d="M8.7-3.315A3.522,3.522,0,0,1,7.516-.786,4.165,4.165,0,0,1,4.7.137,3.745,3.745,0,0,1,1.685-1.152a5.284,5.284,0,0,1-1.1-3.538V-5.3a5.966,5.966,0,0,1,.506-2.529A3.791,3.791,0,0,1,2.54-9.505a4.05,4.05,0,0,1,2.184-.584A4.058,4.058,0,0,1,7.5-9.167,3.785,3.785,0,0,1,8.716-6.576H6.665a2.079,2.079,0,0,0-.537-1.4,1.987,1.987,0,0,0-1.4-.434,1.742,1.742,0,0,0-1.535.735,4.118,4.118,0,0,0-.523,2.28v.752a4.408,4.408,0,0,0,.489,2.358A1.71,1.71,0,0,0,4.7-1.538a2.025,2.025,0,0,0,1.418-.434,1.961,1.961,0,0,0,.537-1.343Z" transform="translate(528.819 17390.006)" fill="#0c1d2f"/>
    <g id="Grupo_1103381" data-name="Grupo 1103381" transform="translate(210.711 17115.68)" clip-path="url(#clip-path)">
      <text id="C1" transform="translate(318.109 359.229)" fill="#0c1d2f" font-size="14" font-family="Roboto-Bold, Roboto" font-weight="700"><tspan x="0" y="0">C1</tspan></text>
      <text id="E1" transform="translate(162.848 373.034)" fill="#0c1d2f" font-size="14" font-family="Roboto-Bold, Roboto" font-weight="700"><tspan x="0" y="0">E1</tspan></text>
      <text id="B1" transform="translate(0.223 359.229)" fill="#0c1d2f" font-size="14" font-family="Roboto-Bold, Roboto" font-weight="700"><tspan x="0" y="0">B1</tspan></text>
    </g>
    <path id="Trazado_881568" data-name="Trazado 881568" d="M.889,0V-9.953H4.375a4.578,4.578,0,0,1,2.748.694A2.373,2.373,0,0,1,8.06-7.226a2.249,2.249,0,0,1-.376,1.289,2.172,2.172,0,0,1-1.046.817,2.1,2.1,0,0,1,1.207.772,2.284,2.284,0,0,1,.441,1.422A2.627,2.627,0,0,1,7.369-.752,4.124,4.124,0,0,1,4.758,0ZM2.939-4.334v2.687H4.7a1.7,1.7,0,0,0,1.131-.345,1.184,1.184,0,0,0,.407-.954A1.25,1.25,0,0,0,4.819-4.334Zm0-1.449H4.457q1.552-.027,1.552-1.237a1.143,1.143,0,0,0-.393-.974,2.067,2.067,0,0,0-1.241-.3H2.939Z" transform="translate(219.925 17390.006)" fill="#0c1d2f"/>
    <path id="Trazado_881569" data-name="Trazado 881569" d="M3.069,0H1.019V-9.953H3.069Z" transform="translate(219.925 17280.895)" fill="#0c1d2f"/>
    <path id="Trazado_881570" data-name="Trazado 881570" d="M3.568-9.953,6.125-2.734,8.668-9.953h2.693V0H9.3V-2.721l.205-4.7L6.822,0H5.414L2.734-7.41l.205,4.689V0H.889V-9.953Z" transform="translate(216.838 17242.721)" fill="#0c1d2f"/>
    <path id="Trazado_881571" data-name="Trazado 881571" d="M6.508-2.051h-3.6L2.229,0H.048L3.753-9.953h1.9L9.379,0H7.2ZM3.466-3.712H5.954L4.7-7.437Z" transform="translate(225.973 17154.092)" fill="#0c1d2f"/>
    <path id="Trazado_881572" data-name="Trazado 881572" d="M7.82-9.242v6.087a3.117,3.117,0,0,1-.949,2.4A3.659,3.659,0,0,1,4.278.127,3.7,3.7,0,0,1,1.708-.73,3.063,3.063,0,0,1,.736-3.085V-9.242h1.9v6.1a1.761,1.761,0,0,0,.435,1.323,1.669,1.669,0,0,0,1.2.416q1.606,0,1.631-1.688V-9.242ZM13.641,0H11.807V-7.071l-2.19.679V-7.884l3.828-1.371h.2Z" transform="translate(216.916 17184.572)" fill="#0c1d2f"/>
    <path id="Trazado_881573" data-name="Trazado 881573" d="M8.422-9.953V-3.4A3.356,3.356,0,0,1,7.4-.813a3.94,3.94,0,0,1-2.792.95A3.984,3.984,0,0,1,1.839-.786,3.3,3.3,0,0,1,.793-3.322V-9.953H2.844v6.569a1.9,1.9,0,0,0,.468,1.425,1.8,1.8,0,0,0,1.3.448q1.729,0,1.757-1.818V-9.953Z" transform="translate(265.65 17145.895)" fill="#0c1d2f"/>
    <path id="Trazado_881574" data-name="Trazado 881574" d="M3.063-1.647H8.08V0H.5V-1.2L5.421-8.292H.506V-9.953H7.971v1.176Z" transform="translate(339.833 17145.895)" fill="#0c1d2f"/>
    <path id="Trazado_881575" data-name="Trazado 881575" d="M7.82-9.242v6.087a3.117,3.117,0,0,1-.949,2.4A3.659,3.659,0,0,1,4.278.127,3.7,3.7,0,0,1,1.708-.73,3.063,3.063,0,0,1,.736-3.085V-9.242h1.9v6.1a1.761,1.761,0,0,0,.435,1.323,1.669,1.669,0,0,0,1.2.416q1.606,0,1.631-1.688V-9.242ZM15.52,0H9.185V-1.257l2.99-3.187a7.376,7.376,0,0,0,.911-1.174,1.887,1.887,0,0,0,.3-.952,1.412,1.412,0,0,0-.311-.968,1.123,1.123,0,0,0-.889-.352,1.211,1.211,0,0,0-.981.428,1.7,1.7,0,0,0-.359,1.127H9a3.03,3.03,0,0,1,.4-1.542,2.841,2.841,0,0,1,1.139-1.095,3.463,3.463,0,0,1,1.669-.4,3.279,3.279,0,0,1,2.219.686,2.425,2.425,0,0,1,.79,1.936,3.108,3.108,0,0,1-.355,1.4,7.76,7.76,0,0,1-1.219,1.657l-2.1,2.215H15.52Z" transform="translate(303.165 17157.4)" fill="#0c1d2f"/>
    <path id="Trazado_881576" data-name="Trazado 881576" d="M6.521-3.746H7.649v1.593H6.521V0H4.546V-2.153H.465L.376-3.4,4.525-9.953h2Zm-4.177,0h2.2V-7.26l-.13.226Z" transform="translate(341.494 17168.311) rotate(-90)" fill="#0c1d2f"/>
    <path id="Trazado_881577" data-name="Trazado 881577" d="M4.9-9.953H6.952v6.891a3.3,3.3,0,0,1-.42,1.678A2.853,2.853,0,0,1,5.346-.26a3.705,3.705,0,0,1-1.729.4,3.522,3.522,0,0,1-2.461-.8A2.918,2.918,0,0,1,.273-2.939H2.338a1.6,1.6,0,0,0,.308,1.08,1.231,1.231,0,0,0,.971.349,1.175,1.175,0,0,0,.937-.4A1.7,1.7,0,0,0,4.9-3.062Z" transform="translate(348.449 17235.605)" fill="#0c1d2f"/>
    <path id="Trazado_881578" data-name="Trazado 881578" d="M9.051-4.751A6,6,0,0,1,8.6-2.328,4.16,4.16,0,0,1,7.349-.677L9,.622,7.7,1.777,5.578.075a4.486,4.486,0,0,1-.752.062A4.141,4.141,0,0,1,2.618-.458a3.951,3.951,0,0,1-1.5-1.7A5.837,5.837,0,0,1,.574-4.7v-.492A5.977,5.977,0,0,1,1.1-7.776,3.945,3.945,0,0,1,2.6-9.492a4.118,4.118,0,0,1,2.211-.6,4.118,4.118,0,0,1,2.211.6,3.945,3.945,0,0,1,1.5,1.716A5.96,5.96,0,0,1,9.051-5.2ZM6.973-5.2a4.188,4.188,0,0,0-.561-2.379,1.827,1.827,0,0,0-1.6-.813,1.827,1.827,0,0,0-1.593.8,4.141,4.141,0,0,0-.567,2.355v.485a4.241,4.241,0,0,0,.561,2.365,1.822,1.822,0,0,0,1.613.841,1.806,1.806,0,0,0,1.586-.81,4.216,4.216,0,0,0,.561-2.362Z" transform="translate(385.102 17273.559)" fill="#0c1d2f"/>
    <path id="Trazado_881579" data-name="Trazado 881579" d="M2.939-1.647H7.294V0H.889V-9.953H2.939ZM13.057,0H11.081V-7.615l-2.358.731V-8.49l4.122-1.477h.212Z" transform="translate(401.492 17235.605)" fill="#0c1d2f"/>
    <path id="Trazado_881580" data-name="Trazado 881580" d="M6.877-4.067H2.939V0H.889V-9.953h6.48v1.661H2.939v2.57H6.877Z" transform="translate(379.068 17145.893)" fill="#0c1d2f"/>
    <path id="Trazado_881581" data-name="Trazado 881581" d="M8.764-1.258A3.56,3.56,0,0,1,7.2-.229,6.556,6.556,0,0,1,4.956.137,4.442,4.442,0,0,1,2.69-.427a3.762,3.762,0,0,1-1.5-1.637A5.762,5.762,0,0,1,.643-4.587v-.677a6.119,6.119,0,0,1,.5-2.581A3.717,3.717,0,0,1,2.594-9.512a4.174,4.174,0,0,1,2.218-.578,4.157,4.157,0,0,1,2.769.844A3.608,3.608,0,0,1,8.764-6.788h-2a1.985,1.985,0,0,0-.6-1.251,1.932,1.932,0,0,0-1.289-.4,1.818,1.818,0,0,0-1.593.786,4.134,4.134,0,0,0-.554,2.338v.636a3.935,3.935,0,0,0,.595,2.365,2.037,2.037,0,0,0,1.743.8A2.275,2.275,0,0,0,6.713-2V-3.719H4.847V-5.229H8.764Z" transform="translate(417.021 17145.893)" fill="#0c1d2f"/>
    <path id="Trazado_881582" data-name="Trazado 881582" d="M6.521-3.746H7.649v1.593H6.521V0H4.546V-2.153H.465L.376-3.4,4.525-9.953h2Zm-4.177,0h2.2V-7.26l-.13.226ZM9.3,2.5l-1.032-.54.246-.444A3.552,3.552,0,0,0,8.989-.15V-1.682h1.668L10.65-.314a3.552,3.552,0,0,1-.383,1.531A3.925,3.925,0,0,1,9.3,2.5Zm3.117-7.39L13-9.953h5.578v1.647H14.615l-.246,2.14a3.132,3.132,0,0,1,1.5-.376,2.869,2.869,0,0,1,2.229.882A3.522,3.522,0,0,1,18.9-3.192a3.609,3.609,0,0,1-.407,1.726A2.871,2.871,0,0,1,17.329-.284a3.639,3.639,0,0,1-1.791.42,3.864,3.864,0,0,1-1.675-.366,2.971,2.971,0,0,1-1.22-1.029,2.8,2.8,0,0,1-.475-1.511h1.955a1.46,1.46,0,0,0,.434.967,1.376,1.376,0,0,0,.974.345,1.215,1.215,0,0,0,1.032-.482A2.233,2.233,0,0,0,16.926-3.3a1.846,1.846,0,0,0-.417-1.3,1.53,1.53,0,0,0-1.183-.451,1.71,1.71,0,0,0-1.142.369l-.191.178Z" transform="translate(351.896 17164.008)" fill="#0c1d2f"/>
    <path id="Trazado_881583" data-name="Trazado 881583" d="M2.687-5.852H3.739a1.483,1.483,0,0,0,1.114-.376,1.378,1.378,0,0,0,.362-1,1.218,1.218,0,0,0-.359-.937A1.391,1.391,0,0,0,3.869-8.5a1.458,1.458,0,0,0-.95.311,1,1,0,0,0-.383.81H.561a2.43,2.43,0,0,1,.42-1.4,2.8,2.8,0,0,1,1.176-.967,3.924,3.924,0,0,1,1.665-.349A3.722,3.722,0,0,1,6.3-9.334a2.577,2.577,0,0,1,.9,2.082A2.094,2.094,0,0,1,6.774-6a2.709,2.709,0,0,1-1.094.882,2.473,2.473,0,0,1,1.254.9,2.448,2.448,0,0,1,.414,1.422A2.62,2.62,0,0,1,6.381-.663a3.889,3.889,0,0,1-2.56.8A3.688,3.688,0,0,1,1.384-.649,2.567,2.567,0,0,1,.438-2.728H2.413a1.145,1.145,0,0,0,.42.916,1.549,1.549,0,0,0,1.036.355,1.556,1.556,0,0,0,1.1-.373,1.286,1.286,0,0,0,.4-.988q0-1.49-1.641-1.49H2.687ZM9.3,2.5l-1.032-.54.246-.444A3.552,3.552,0,0,0,8.989-.15V-1.682h1.668L10.65-.314a3.552,3.552,0,0,1-.383,1.531A3.925,3.925,0,0,1,9.3,2.5Zm3.117-7.39L13-9.953h5.578v1.647H14.615l-.246,2.14a3.132,3.132,0,0,1,1.5-.376,2.869,2.869,0,0,1,2.229.882A3.522,3.522,0,0,1,18.9-3.192a3.609,3.609,0,0,1-.407,1.726A2.871,2.871,0,0,1,17.329-.284a3.639,3.639,0,0,1-1.791.42,3.864,3.864,0,0,1-1.675-.366,2.971,2.971,0,0,1-1.22-1.029,2.8,2.8,0,0,1-.475-1.511h1.955a1.46,1.46,0,0,0,.434.967,1.376,1.376,0,0,0,.974.345,1.215,1.215,0,0,0,1.032-.482A2.233,2.233,0,0,0,16.926-3.3a1.846,1.846,0,0,0-.417-1.3,1.53,1.53,0,0,0-1.183-.451,1.71,1.71,0,0,0-1.142.369l-.191.178Z" transform="translate(305.723 17180.729) rotate(15.809)" fill="#0c1d2f"/>
    <path id="Trazado_881584" data-name="Trazado 881584" d="M2.687-5.852H3.739a1.483,1.483,0,0,0,1.114-.376,1.378,1.378,0,0,0,.362-1,1.218,1.218,0,0,0-.359-.937A1.391,1.391,0,0,0,3.869-8.5a1.458,1.458,0,0,0-.95.311,1,1,0,0,0-.383.81H.561a2.43,2.43,0,0,1,.42-1.4,2.8,2.8,0,0,1,1.176-.967,3.924,3.924,0,0,1,1.665-.349A3.722,3.722,0,0,1,6.3-9.334a2.577,2.577,0,0,1,.9,2.082A2.094,2.094,0,0,1,6.774-6a2.709,2.709,0,0,1-1.094.882,2.473,2.473,0,0,1,1.254.9,2.448,2.448,0,0,1,.414,1.422A2.62,2.62,0,0,1,6.381-.663a3.889,3.889,0,0,1-2.56.8A3.688,3.688,0,0,1,1.384-.649,2.567,2.567,0,0,1,.438-2.728H2.413a1.145,1.145,0,0,0,.42.916,1.549,1.549,0,0,0,1.036.355,1.556,1.556,0,0,0,1.1-.373,1.286,1.286,0,0,0,.4-.988q0-1.49-1.641-1.49H2.687ZM9.3,2.5l-1.032-.54.246-.444A3.552,3.552,0,0,0,8.989-.15V-1.682h1.668L10.65-.314a3.552,3.552,0,0,1-.383,1.531A3.925,3.925,0,0,1,9.3,2.5Zm3.117-7.39L13-9.953h5.578v1.647H14.615l-.246,2.14a3.132,3.132,0,0,1,1.5-.376,2.869,2.869,0,0,1,2.229.882A3.522,3.522,0,0,1,18.9-3.192a3.609,3.609,0,0,1-.407,1.726A2.871,2.871,0,0,1,17.329-.284a3.639,3.639,0,0,1-1.791.42,3.864,3.864,0,0,1-1.675-.366,2.971,2.971,0,0,1-1.22-1.029,2.8,2.8,0,0,1-.475-1.511h1.955a1.46,1.46,0,0,0,.434.967,1.376,1.376,0,0,0,.974.345,1.215,1.215,0,0,0,1.032-.482A2.233,2.233,0,0,0,16.926-3.3a1.846,1.846,0,0,0-.417-1.3,1.53,1.53,0,0,0-1.183-.451,1.71,1.71,0,0,0-1.142.369l-.191.178Z" transform="translate(436.148 17181.297) rotate(-2.438)" fill="#0c1d2f"/>
    <path id="Trazado_881585" data-name="Trazado 881585" d="M6.26-.9a2.543,2.543,0,0,1-1.118.735A4.683,4.683,0,0,1,3.54.1a3.173,3.173,0,0,1-1.619-.4A2.687,2.687,0,0,1,.847-1.475a4.116,4.116,0,0,1-.388-1.8V-3.76A4.371,4.371,0,0,1,.818-5.6,2.655,2.655,0,0,1,1.853-6.794a2.982,2.982,0,0,1,1.584-.413,2.969,2.969,0,0,1,1.978.6A2.577,2.577,0,0,1,6.26-4.849H4.834A1.418,1.418,0,0,0,4.4-5.742a1.38,1.38,0,0,0-.92-.283,1.3,1.3,0,0,0-1.138.562,2.953,2.953,0,0,0-.4,1.67v.454A2.811,2.811,0,0,0,2.373-1.65a1.455,1.455,0,0,0,1.245.571,1.625,1.625,0,0,0,1.177-.352V-2.656H3.462V-3.735h2.8Zm5.908.9H7.295V-.967l2.3-2.451a5.674,5.674,0,0,0,.7-.9,1.451,1.451,0,0,0,.227-.732,1.086,1.086,0,0,0-.239-.745A.864.864,0,0,0,9.6-6.069a.931.931,0,0,0-.754.33,1.306,1.306,0,0,0-.276.867H7.153a2.331,2.331,0,0,1,.31-1.187A2.185,2.185,0,0,1,8.34-6.9a2.664,2.664,0,0,1,1.284-.305,2.522,2.522,0,0,1,1.707.527,1.866,1.866,0,0,1,.608,1.489,2.39,2.39,0,0,1-.273,1.074,5.97,5.97,0,0,1-.937,1.274l-1.616,1.7h3.057Z" transform="matrix(-0.043, -0.999, 0.999, -0.043, 431.913, 17184.633)" fill="#0c1d2f"/>
    <path id="Trazado_881586" data-name="Trazado 881586" d="M5.356,0H.483V-.967l2.3-2.451a5.674,5.674,0,0,0,.7-.9,1.451,1.451,0,0,0,.227-.732A1.086,1.086,0,0,0,3.472-5.8a.864.864,0,0,0-.684-.271.931.931,0,0,0-.754.33,1.306,1.306,0,0,0-.276.867H.342A2.331,2.331,0,0,1,.652-6.06,2.185,2.185,0,0,1,1.528-6.9a2.664,2.664,0,0,1,1.284-.305,2.522,2.522,0,0,1,1.707.527A1.866,1.866,0,0,1,5.127-5.19a2.39,2.39,0,0,1-.273,1.074,5.97,5.97,0,0,1-.937,1.274L2.3-1.138H5.356ZM6.646,1.782,5.908,1.4l.176-.317A2.537,2.537,0,0,0,6.421-.107V-1.2H7.612l0,.977A2.537,2.537,0,0,1,7.334.869,2.8,2.8,0,0,1,6.646,1.782ZM8.872-3.5l.41-3.613h3.984v1.177H10.439L10.264-4.4a2.237,2.237,0,0,1,1.069-.269,2.049,2.049,0,0,1,1.592.63A2.516,2.516,0,0,1,13.5-2.28a2.578,2.578,0,0,1-.291,1.233,2.051,2.051,0,0,1-.833.845A2.6,2.6,0,0,1,11.1.1,2.76,2.76,0,0,1,9.9-.164,2.122,2.122,0,0,1,9.031-.9a2,2,0,0,1-.339-1.079h1.4a1.043,1.043,0,0,0,.31.691.983.983,0,0,0,.7.247.868.868,0,0,0,.737-.344,1.6,1.6,0,0,0,.259-.974,1.319,1.319,0,0,0-.3-.928,1.093,1.093,0,0,0-.845-.322,1.222,1.222,0,0,0-.815.264L10-3.218Z" transform="translate(424.877 17158.781) rotate(-2.438)" fill="#0c1d2f"/>
    <path id="Trazado_881587" data-name="Trazado 881587" d="M2.1-2.5V0H.635V-7.109H3.408a3.209,3.209,0,0,1,1.409.293,2.159,2.159,0,0,1,.935.833,2.321,2.321,0,0,1,.327,1.228,2.041,2.041,0,0,1-.715,1.648,2.979,2.979,0,0,1-1.98.6Zm0-1.187H3.408a1.287,1.287,0,0,0,.886-.273A1,1,0,0,0,4.6-4.746a1.173,1.173,0,0,0-.308-.845,1.149,1.149,0,0,0-.85-.332H2.1ZM10.361,0H8.95V-5.439l-1.685.522V-6.064L10.21-7.119h.151Z" transform="translate(450.324 17156.625) rotate(-2.438)" fill="#0c1d2f"/>
    <path id="Trazado_881588" data-name="Trazado 881588" d="M.971-4.895l.574-5.059H7.123v1.647H3.165l-.246,2.14a3.132,3.132,0,0,1,1.5-.376,2.869,2.869,0,0,1,2.229.882,3.522,3.522,0,0,1,.807,2.468,3.609,3.609,0,0,1-.407,1.726A2.871,2.871,0,0,1,5.879-.284a3.639,3.639,0,0,1-1.791.42A3.864,3.864,0,0,1,2.413-.229a2.971,2.971,0,0,1-1.22-1.029A2.8,2.8,0,0,1,.718-2.769H2.673a1.46,1.46,0,0,0,.434.967,1.376,1.376,0,0,0,.974.345,1.215,1.215,0,0,0,1.032-.482A2.233,2.233,0,0,0,5.476-3.3a1.846,1.846,0,0,0-.417-1.3,1.53,1.53,0,0,0-1.183-.451,1.71,1.71,0,0,0-1.142.369L2.543-4.5Z" transform="translate(468.927 17173.102) rotate(-2.438)" fill="#0c1d2f"/>
    <path id="Trazado_881589" data-name="Trazado 881589" d="M.971-4.895l.574-5.059H7.123v1.647H3.165l-.246,2.14a3.132,3.132,0,0,1,1.5-.376,2.869,2.869,0,0,1,2.229.882,3.522,3.522,0,0,1,.807,2.468,3.609,3.609,0,0,1-.407,1.726A2.871,2.871,0,0,1,5.879-.284a3.639,3.639,0,0,1-1.791.42A3.864,3.864,0,0,1,2.413-.229a2.971,2.971,0,0,1-1.22-1.029A2.8,2.8,0,0,1,.718-2.769H2.673a1.46,1.46,0,0,0,.434.967,1.376,1.376,0,0,0,.974.345,1.215,1.215,0,0,0,1.032-.482A2.233,2.233,0,0,0,5.476-3.3a1.846,1.846,0,0,0-.417-1.3,1.53,1.53,0,0,0-1.183-.451,1.71,1.71,0,0,0-1.142.369L2.543-4.5Z" transform="translate(282.954 17171.254) rotate(19.212)" fill="#0c1d2f"/>
    <path id="Trazado_881590" data-name="Trazado 881590" d="M3.063-1.647H8.08V0H.5V-1.2L5.421-8.292H.506V-9.953H7.971v1.176ZM13.959,0H11.983V-7.615l-2.358.731V-8.49l4.122-1.477h.212Z" transform="translate(351.036 17185.143)" fill="#0c1d2f"/>
    <path id="Trazado_881591" data-name="Trazado 881591" d="M8.764-1.258A3.56,3.56,0,0,1,7.2-.229,6.556,6.556,0,0,1,4.956.137,4.442,4.442,0,0,1,2.69-.427a3.762,3.762,0,0,1-1.5-1.637A5.762,5.762,0,0,1,.643-4.587v-.677a6.119,6.119,0,0,1,.5-2.581A3.717,3.717,0,0,1,2.594-9.512a4.174,4.174,0,0,1,2.218-.578,4.157,4.157,0,0,1,2.769.844A3.608,3.608,0,0,1,8.764-6.788h-2a1.985,1.985,0,0,0-.6-1.251,1.932,1.932,0,0,0-1.289-.4,1.818,1.818,0,0,0-1.593.786,4.134,4.134,0,0,0-.554,2.338v.636a3.935,3.935,0,0,0,.595,2.365,2.037,2.037,0,0,0,1.743.8A2.275,2.275,0,0,0,6.713-2V-3.719H4.847V-5.229H8.764ZM15.012,0H13.036V-7.615l-2.358.731V-8.49L14.8-9.967h.212Z" transform="translate(399.348 17179.973)" fill="#0c1d2f"/>
    <path id="Trazado_881592" data-name="Trazado 881592" d="M6.521-3.746H7.649v1.593H6.521V0H4.546V-2.153H.465L.376-3.4,4.525-9.953h2Zm-4.177,0h2.2V-7.26l-.13.226ZM9.3,2.5l-1.032-.54.246-.444A3.552,3.552,0,0,0,8.989-.15V-1.682h1.668L10.65-.314a3.552,3.552,0,0,1-.383,1.531A3.925,3.925,0,0,1,9.3,2.5Zm3.117-7.39L13-9.953h5.578v1.647H14.615l-.246,2.14a3.132,3.132,0,0,1,1.5-.376,2.869,2.869,0,0,1,2.229.882A3.522,3.522,0,0,1,18.9-3.192a3.609,3.609,0,0,1-.407,1.726A2.871,2.871,0,0,1,17.329-.284a3.639,3.639,0,0,1-1.791.42,3.864,3.864,0,0,1-1.675-.366,2.971,2.971,0,0,1-1.22-1.029,2.8,2.8,0,0,1-.475-1.511h1.955a1.46,1.46,0,0,0,.434.967,1.376,1.376,0,0,0,.974.345,1.215,1.215,0,0,0,1.032-.482A2.233,2.233,0,0,0,16.926-3.3a1.846,1.846,0,0,0-.417-1.3,1.53,1.53,0,0,0-1.183-.451,1.71,1.71,0,0,0-1.142.369l-.191.178Z" transform="translate(388.99 17164.02)" fill="#0c1d2f"/>
    <path id="Trazado_881593" data-name="Trazado 881593" d="M2.939-3.507V0H.889V-9.953H4.771a4.492,4.492,0,0,1,1.972.41A3.022,3.022,0,0,1,8.053-8.377a3.25,3.25,0,0,1,.458,1.719,2.858,2.858,0,0,1-1,2.307,4.171,4.171,0,0,1-2.772.844Zm0-1.661H4.771a1.8,1.8,0,0,0,1.241-.383,1.392,1.392,0,0,0,.427-1.094,1.642,1.642,0,0,0-.431-1.183,1.609,1.609,0,0,0-1.189-.465H2.939Z" transform="translate(483.872 17145.904)" fill="#0c1d2f"/>
    <g id="Grupo_1103383" data-name="Grupo 1103383" transform="translate(210.711 17115.68)" clip-path="url(#clip-path)">
      <text id="U3" transform="translate(0 141.639)" fill="#0c1d2f" font-size="13" font-family="Roboto-Bold, Roboto" font-weight="700"><tspan x="0" y="0">U3</tspan></text>
      <text id="Eliminar-2" data-name="Eliminar" transform="translate(269.81 12.044)" fill="#0c1d2f" font-size="14" font-family="Roboto-Bold, Roboto" font-weight="700"><tspan x="0" y="0">Eliminar</tspan></text>
      <path id="Trazado_881351" data-name="Trazado 881351" d="M21.615,95.5a2.749,2.749,0,1,1-2.749-2.749A2.748,2.748,0,0,1,21.615,95.5" transform="translate(4.929 28.37)" fill="#0c1d2f"/>
      <path id="Trazado_881352" data-name="Trazado 881352" d="M106.178,50.368a2.749,2.749,0,1,1-2.749-2.749,2.748,2.748,0,0,1,2.749,2.749" transform="translate(30.793 14.564)" fill="#0c1d2f"/>
      <path id="Trazado_881353" data-name="Trazado 881353" d="M77.775,38.918a2.749,2.749,0,1,1-2.749-2.749,2.748,2.748,0,0,1,2.749,2.749" transform="translate(22.106 11.062)" fill="#0c1d2f"/>
      <path id="Trazado_881354" data-name="Trazado 881354" d="M96.71,45.964a2.749,2.749,0,1,1-2.749-2.749,2.748,2.748,0,0,1,2.749,2.749" transform="translate(27.897 13.217)" fill="#0c1d2f"/>
      <path id="Trazado_881355" data-name="Trazado 881355" d="M221.334,29.45a2.749,2.749,0,1,1-2.749-2.749,2.748,2.748,0,0,1,2.749,2.749" transform="translate(66.014 8.167)" fill="#0c1d2f"/>
      <path id="Trazado_881356" data-name="Trazado 881356" d="M192.6,36.716a2.749,2.749,0,1,1-2.749-2.749,2.748,2.748,0,0,1,2.749,2.749" transform="translate(57.225 10.389)" fill="#0c1d2f"/>
      <path id="Trazado_881357" data-name="Trazado 881357" d="M241.811,43.149a2.749,2.749,0,1,1-2.749-2.749,2.748,2.748,0,0,1,2.749,2.749" transform="translate(72.277 12.356)" fill="#0c1d2f"/>
      <path id="Trazado_881358" data-name="Trazado 881358" d="M163.866,42.661a2.749,2.749,0,1,1-2.749-2.749,2.748,2.748,0,0,1,2.749,2.749" transform="translate(48.437 12.207)" fill="#0c1d2f"/>
      <path id="Trazado_881359" data-name="Trazado 881359" d="M89.81,41c.229-1.273,25.446,5.607,25.446,5.607S98,158.741,166.58,161.76c0,0,53.48,4.744,52.186-120.761l23.721-1.294s-4.313,69.437,62.968,75.476V345.49H17.354V120.357S72.99,134.589,89.81,41Z" transform="translate(5.308 12.144)" fill="none" stroke="#0c1d30" stroke-linecap="round" stroke-linejoin="round" stroke-width="1"/>
      <line id="Línea_4754" data-name="Línea 4754" y2="124.931" transform="translate(134.222 37.617)" fill="none" stroke="#0c1d30" stroke-linecap="round" stroke-linejoin="round" stroke-width="1"/>
      <line id="Línea_4755" data-name="Línea 4755" y2="124.931" transform="translate(209.554 37.617)" fill="none" stroke="#0c1d30" stroke-linecap="round" stroke-linejoin="round" stroke-width="1"/>
      <line id="Línea_4756" data-name="Línea 4756" x1="0.36" y2="51.91" transform="translate(51.569 16.052)" fill="none" stroke="#0c1d30" stroke-miterlimit="10" stroke-width="1"/>
      <path id="Trazado_881360" data-name="Trazado 881360" d="M34.81,45.2a.654.654,0,0,1,.9.209l5.308,8.463,5.425-8.389a.653.653,0,1,1,1.1.709l-5.982,9.249a.653.653,0,0,1-1.1-.008L34.6,46.1a.657.657,0,0,1,.206-.9" transform="translate(10.553 13.794)" fill="#0c1d30"/>
      <line id="Línea_4757" data-name="Línea 4757" x1="0.36" y2="51.91" transform="translate(296.11 16.052)" fill="none" stroke="#0c1d30" stroke-miterlimit="10" stroke-width="1"/>
      <path id="Trazado_881361" data-name="Trazado 881361" d="M222.076,45.2a.654.654,0,0,1,.9.209l5.308,8.463,5.424-8.389a.653.653,0,1,1,1.1.709l-5.982,9.249a.653.653,0,0,1-1.1-.008L221.869,46.1a.657.657,0,0,1,.206-.9" transform="translate(67.829 13.794)" fill="#0c1d30"/>
      <path id="Trazado_881362" data-name="Trazado 881362" d="M23.723,154.311h24.03V290.166H23.723" transform="translate(7.256 47.196)" fill="none" stroke="#0c1d30" stroke-miterlimit="10" stroke-width="1"/>
      <path id="Trazado_881363" data-name="Trazado 881363" d="M28.382,160.9l.891-.956-4.717-4.384,4.717-4.384-.891-.957-5.743,5.341Z" transform="translate(6.924 45.945)" fill="#0c1d30"/>
      <path id="Trazado_881364" data-name="Trazado 881364" d="M28.382,254.257l.891.956L24.555,259.6l4.717,4.384-.891.957L22.639,259.6Z" transform="translate(6.924 77.765)" fill="#0c1d30"/>
      <path id="Trazado_881365" data-name="Trazado 881365" d="M238.558,290.167h-24.03V154.311h24.03" transform="translate(65.614 47.196)" fill="none" stroke="#0c1d30" stroke-miterlimit="10" stroke-width="1"/>
      <path id="Trazado_881366" data-name="Trazado 881366" d="M229.825,254.257l-.891.956,4.717,4.384-4.717,4.384.891.957,5.743-5.341Z" transform="translate(70.02 77.765)" fill="#0c1d30"/>
      <path id="Trazado_881367" data-name="Trazado 881367" d="M229.825,160.9l-.891-.956,4.717-4.384-4.717-4.384.891-.957,5.743,5.341Z" transform="translate(70.02 45.945)" fill="#0c1d30"/>
      <path id="Trazado_881368" data-name="Trazado 881368" d="M25,50.88a2.749,2.749,0,1,1-2.749-2.749A2.748,2.748,0,0,1,25,50.88" transform="translate(5.965 14.721)" fill="#0c1d2f"/>
      <path id="Trazado_881369" data-name="Trazado 881369" d="M174.655,41.01a2.749,2.749,0,1,1-2.749-2.749,2.748,2.748,0,0,1,2.749,2.749" transform="translate(51.737 11.702)" fill="#0c1d2f"/>
    </g>
  </g>
</svg>
