<svg xmlns="http://www.w3.org/2000/svg" width="397.855" height="334.238" viewBox="0 0 397.855 334.238">
  <g id="Grupo_1103491" data-name="Grupo 1103491" transform="translate(-233.711 -19420)">
    <path id="Trazado_881396" data-name="Trazado 881396" d="M15.844,90.793S39.97,92.3,86.719,58.119s113.1-26.641,113.1-26.641v263.9H55.05Z" transform="translate(241.981 19436.063)" fill="none" stroke="#0c1d30" stroke-linecap="round" stroke-linejoin="round" stroke-width="1"/>
    <path id="Trazado_881397" data-name="Trazado 881397" d="M15.844,296.5V29.584c0,2.011,182.468,0,182.468,0" transform="translate(241.981 19435.441)" fill="none" stroke="#0c1d30" stroke-linecap="round" stroke-linejoin="round" stroke-width="1"/>
    <path id="Trazado_881398" data-name="Trazado 881398" d="M140.406,297.148H325.389V31.236s-190.01,2.011-188,0" transform="translate(305.417 19436.305)" fill="none" stroke="#9eb3c8" stroke-miterlimit="10" stroke-width="1" stroke-dasharray="3 3"/>
    <path id="Trazado_881644" data-name="Trazado 881644" d="M184.48,0H0" transform="translate(446.325 19528.334)" fill="none" stroke="#9eb3c8" stroke-width="1" stroke-dasharray="3 3"/>
    <path id="Trazado_881645" data-name="Trazado 881645" d="M178.447,0H0" transform="translate(259.333 19528.334)" fill="none" stroke="#0c1d30" stroke-linecap="round" stroke-width="1"/>
    <path id="Trazado_881646" data-name="Trazado 881646" d="M0,0H397.855V334.238H0Z" transform="translate(233.711 19420)" fill="none"/>
    <path id="Trazado_881647" data-name="Trazado 881647" d="M1.143,0V-12.8H5.08a5.98,5.98,0,0,1,3.019.76,5.3,5.3,0,0,1,2.079,2.162,6.669,6.669,0,0,1,.747,3.186V-6.1a6.688,6.688,0,0,1-.734,3.173A5.256,5.256,0,0,1,8.121-.773,6.025,6.025,0,0,1,5.106,0ZM3.779-10.661v8.543H5.054A2.863,2.863,0,0,0,7.418-3.129a4.567,4.567,0,0,0,.835-2.892V-6.7a4.64,4.64,0,0,0-.809-2.958A2.854,2.854,0,0,0,5.08-10.661ZM17.051.176a4.668,4.668,0,0,1-3.406-1.283,4.561,4.561,0,0,1-1.314-3.419v-.246a5.745,5.745,0,0,1,.554-2.562,4.064,4.064,0,0,1,1.569-1.74,4.4,4.4,0,0,1,2.316-.611,3.947,3.947,0,0,1,3.072,1.23,5,5,0,0,1,1.121,3.489v1.037H14.906a2.36,2.36,0,0,0,.743,1.494,2.245,2.245,0,0,0,1.569.563,2.742,2.742,0,0,0,2.294-1.063l1.248,1.4A3.813,3.813,0,0,1,19.213-.277,5.075,5.075,0,0,1,17.051.176Zm-.29-7.8a1.591,1.591,0,0,0-1.226.51,2.634,2.634,0,0,0-.6,1.459h3.533v-.2a1.878,1.878,0,0,0-.457-1.305A1.642,1.642,0,0,0,16.761-7.629ZM25.084,0H22.535V-13.5h2.549Zm7.6,0a2.821,2.821,0,0,1-.255-.853,3.073,3.073,0,0,1-2.4,1.028,3.376,3.376,0,0,1-2.316-.809A2.6,2.6,0,0,1,26.8-2.672a2.687,2.687,0,0,1,1.121-2.32,5.529,5.529,0,0,1,3.239-.817h1.169v-.545a1.567,1.567,0,0,0-.338-1.055,1.331,1.331,0,0,0-1.068-.4,1.513,1.513,0,0,0-1.006.308,1.045,1.045,0,0,0-.365.844h-2.54a2.551,2.551,0,0,1,.51-1.529,3.37,3.37,0,0,1,1.441-1.1,5.253,5.253,0,0,1,2.092-.4,4.15,4.15,0,0,1,2.791.883,3.09,3.09,0,0,1,1.033,2.483V-2.2a4.546,4.546,0,0,0,.378,2.048V0Zm-2.1-1.767a2.188,2.188,0,0,0,1.037-.25,1.645,1.645,0,0,0,.7-.672V-4.324h-.949q-1.907,0-2.03,1.318l-.009.149a1.017,1.017,0,0,0,.334.782A1.3,1.3,0,0,0,30.586-1.767ZM39.164-9.51l.079,1.1a3.32,3.32,0,0,1,2.733-1.274,2.759,2.759,0,0,1,2.25.888,4.142,4.142,0,0,1,.756,2.654V0h-2.54V-6.082a1.648,1.648,0,0,0-.352-1.173,1.574,1.574,0,0,0-1.169-.365,1.747,1.747,0,0,0-1.608.914V0h-2.54V-9.51Zm10.784-2.338V-9.51h1.626v1.863H49.948V-2.9a1.133,1.133,0,0,0,.2.756,1.015,1.015,0,0,0,.773.229,4.051,4.051,0,0,0,.747-.062V-.053a5.229,5.229,0,0,1-1.538.229,2.425,2.425,0,0,1-2.725-2.7V-7.646H46.02V-9.51h1.389v-2.338ZM57.366.176A4.668,4.668,0,0,1,53.96-1.107a4.561,4.561,0,0,1-1.314-3.419v-.246A5.745,5.745,0,0,1,53.2-7.334a4.064,4.064,0,0,1,1.569-1.74,4.4,4.4,0,0,1,2.316-.611,3.947,3.947,0,0,1,3.072,1.23,5,5,0,0,1,1.121,3.489v1.037H55.222a2.36,2.36,0,0,0,.743,1.494,2.245,2.245,0,0,0,1.569.563,2.742,2.742,0,0,0,2.294-1.063l1.248,1.4A3.813,3.813,0,0,1,59.528-.277,5.075,5.075,0,0,1,57.366.176Zm-.29-7.8a1.591,1.591,0,0,0-1.226.51,2.634,2.634,0,0,0-.6,1.459h3.533v-.2a1.878,1.878,0,0,0-.457-1.305A1.642,1.642,0,0,0,57.076-7.629Zm10.986.5a6.9,6.9,0,0,0-.914-.07,1.86,1.86,0,0,0-1.89.976V0h-2.54V-9.51h2.4l.07,1.134a2.354,2.354,0,0,1,2.118-1.31,2.662,2.662,0,0,1,.791.114ZM74.531,0a2.821,2.821,0,0,1-.255-.853,3.073,3.073,0,0,1-2.4,1.028,3.376,3.376,0,0,1-2.316-.809,2.6,2.6,0,0,1-.918-2.039,2.687,2.687,0,0,1,1.121-2.32A5.529,5.529,0,0,1,73-5.81h1.169v-.545a1.567,1.567,0,0,0-.338-1.055,1.331,1.331,0,0,0-1.068-.4,1.513,1.513,0,0,0-1.006.308,1.045,1.045,0,0,0-.365.844h-2.54a2.551,2.551,0,0,1,.51-1.529,3.37,3.37,0,0,1,1.441-1.1,5.253,5.253,0,0,1,2.092-.4,4.15,4.15,0,0,1,2.791.883A3.09,3.09,0,0,1,76.72-6.319V-2.2A4.546,4.546,0,0,0,77.1-.149V0Zm-2.1-1.767a2.188,2.188,0,0,0,1.037-.25,1.645,1.645,0,0,0,.7-.672V-4.324h-.949q-1.907,0-2.03,1.318l-.009.149a1.017,1.017,0,0,0,.334.782A1.3,1.3,0,0,0,72.431-1.767Z" transform="translate(321.678 19656.553)" fill="#0c1d2f"/>
    <path id="Trazado_881648" data-name="Trazado 881648" d="M8.367-2.637H3.744L2.865,0H.062L4.825-12.8H7.269L12.059,0h-2.8ZM4.456-4.772h3.2L6.047-9.562Z" transform="translate(243.254 19460.02)" fill="#0c1d2f"/>
    <path id="Trazado_881649" data-name="Trazado 881649" d="M11.188-4.263A4.528,4.528,0,0,1,9.664-1.011,5.355,5.355,0,0,1,6.038.176,4.816,4.816,0,0,1,2.167-1.481,6.793,6.793,0,0,1,.756-6.029v-.782a7.671,7.671,0,0,1,.65-3.252,4.874,4.874,0,0,1,1.859-2.158,5.207,5.207,0,0,1,2.808-.751,5.217,5.217,0,0,1,3.568,1.187,4.866,4.866,0,0,1,1.564,3.331H8.569a2.673,2.673,0,0,0-.69-1.8,2.555,2.555,0,0,0-1.806-.558A2.24,2.24,0,0,0,4.1-9.866a5.3,5.3,0,0,0-.672,2.931v.967a5.667,5.667,0,0,0,.628,3.032,2.2,2.2,0,0,0,1.982.958,2.6,2.6,0,0,0,1.824-.558,2.521,2.521,0,0,0,.69-1.727Zm1.169-.58A5.64,5.64,0,0,1,12.9-7.365a3.989,3.989,0,0,1,1.569-1.714,4.577,4.577,0,0,1,2.377-.606,4.33,4.33,0,0,1,3.142,1.178,4.727,4.727,0,0,1,1.358,3.2l.018.65a4.97,4.97,0,0,1-1.222,3.511A4.247,4.247,0,0,1,16.866.176a4.268,4.268,0,0,1-3.283-1.318,5.058,5.058,0,0,1-1.226-3.586Zm2.54.185a3.545,3.545,0,0,0,.51,2.07,1.682,1.682,0,0,0,1.459.716,1.686,1.686,0,0,0,1.441-.708,3.879,3.879,0,0,0,.519-2.263A3.51,3.51,0,0,0,18.308-6.9a1.686,1.686,0,0,0-1.459-.729,1.659,1.659,0,0,0-1.441.725A3.944,3.944,0,0,0,14.9-4.658Zm16.594-.009a5.7,5.7,0,0,1-1,3.52A3.2,3.2,0,0,1,27.8.176a2.963,2.963,0,0,1-2.329-1V3.656h-2.54V-9.51h2.355l.088.932a2.985,2.985,0,0,1,2.408-1.107,3.22,3.22,0,0,1,2.733,1.3A5.858,5.858,0,0,1,31.491-4.8Zm-2.54-.185a3.743,3.743,0,0,0-.47-2.048,1.532,1.532,0,0,0-1.367-.721,1.663,1.663,0,0,0-1.644.914v3.894a1.692,1.692,0,0,0,1.661.94Q28.951-1.872,28.951-4.852ZM38.575,0a2.821,2.821,0,0,1-.255-.853,3.073,3.073,0,0,1-2.4,1.028A3.376,3.376,0,0,1,33.6-.633a2.6,2.6,0,0,1-.918-2.039,2.687,2.687,0,0,1,1.121-2.32,5.529,5.529,0,0,1,3.239-.817h1.169v-.545a1.567,1.567,0,0,0-.338-1.055,1.331,1.331,0,0,0-1.068-.4A1.513,1.513,0,0,0,35.8-7.5a1.045,1.045,0,0,0-.365.844H32.9a2.551,2.551,0,0,1,.51-1.529,3.37,3.37,0,0,1,1.441-1.1,5.253,5.253,0,0,1,2.092-.4,4.15,4.15,0,0,1,2.791.883,3.09,3.09,0,0,1,1.033,2.483V-2.2a4.546,4.546,0,0,0,.378,2.048V0Zm-2.1-1.767a2.188,2.188,0,0,0,1.037-.25,1.645,1.645,0,0,0,.7-.672V-4.324h-.949q-1.907,0-2.03,1.318l-.009.149a1.017,1.017,0,0,0,.334.782A1.3,1.3,0,0,0,36.475-1.767Z" transform="translate(275.433 19435.881)" fill="#0c1d2f"/>
    <path id="Trazado_881650" data-name="Trazado 881650" d="M0,0H397.855V334.238H0Z" transform="translate(233.711 19420)" fill="none"/>
    <path id="Trazado_881651" data-name="Trazado 881651" d="M4.017-11.848V-9.51H5.643v1.863H4.017V-2.9a1.133,1.133,0,0,0,.2.756,1.015,1.015,0,0,0,.773.229,4.051,4.051,0,0,0,.747-.062V-.053A5.229,5.229,0,0,1,4.2.176a2.425,2.425,0,0,1-2.725-2.7V-7.646H.088V-9.51H1.477v-2.338ZM12.4-7.128a6.9,6.9,0,0,0-.914-.07,1.86,1.86,0,0,0-1.89.976V0H7.058V-9.51h2.4l.07,1.134a2.354,2.354,0,0,1,2.118-1.31,2.662,2.662,0,0,1,.791.114ZM18.87,0a2.821,2.821,0,0,1-.255-.853,3.073,3.073,0,0,1-2.4,1.028A3.376,3.376,0,0,1,13.9-.633a2.6,2.6,0,0,1-.918-2.039A2.687,2.687,0,0,1,14.1-4.992a5.529,5.529,0,0,1,3.239-.817H18.51v-.545a1.567,1.567,0,0,0-.338-1.055A1.331,1.331,0,0,0,17.1-7.8,1.513,1.513,0,0,0,16.1-7.5a1.045,1.045,0,0,0-.365.844h-2.54a2.551,2.551,0,0,1,.51-1.529,3.37,3.37,0,0,1,1.441-1.1,5.253,5.253,0,0,1,2.092-.4,4.15,4.15,0,0,1,2.791.883,3.09,3.09,0,0,1,1.033,2.483V-2.2a4.546,4.546,0,0,0,.378,2.048V0Zm-2.1-1.767a2.188,2.188,0,0,0,1.037-.25,1.645,1.645,0,0,0,.7-.672V-4.324h-.949q-1.907,0-2.03,1.318l-.009.149a1.017,1.017,0,0,0,.334.782A1.3,1.3,0,0,0,16.77-1.767ZM28.16-2.628a.818.818,0,0,0-.461-.734,5.241,5.241,0,0,0-1.481-.479q-3.393-.712-3.393-2.883a2.613,2.613,0,0,1,1.05-2.114,4.237,4.237,0,0,1,2.747-.848,4.56,4.56,0,0,1,2.9.853A2.687,2.687,0,0,1,30.6-6.618h-2.54a1.229,1.229,0,0,0-.352-.9,1.488,1.488,0,0,0-1.1-.356,1.52,1.52,0,0,0-.993.29.916.916,0,0,0-.352.738.783.783,0,0,0,.4.681,4.114,4.114,0,0,0,1.349.448,11.019,11.019,0,0,1,1.6.426A2.628,2.628,0,0,1,30.63-2.733a2.481,2.481,0,0,1-1.116,2.1,4.815,4.815,0,0,1-2.883.8A5.029,5.029,0,0,1,24.508-.25a3.561,3.561,0,0,1-1.455-1.169,2.716,2.716,0,0,1-.527-1.6h2.408a1.326,1.326,0,0,0,.5,1.037,1.987,1.987,0,0,0,1.248.36,1.839,1.839,0,0,0,1.1-.277A.861.861,0,0,0,28.16-2.628Zm8.481,2.8a4.668,4.668,0,0,1-3.406-1.283,4.561,4.561,0,0,1-1.314-3.419v-.246a5.745,5.745,0,0,1,.554-2.562,4.064,4.064,0,0,1,1.569-1.74,4.4,4.4,0,0,1,2.316-.611,3.947,3.947,0,0,1,3.072,1.23,5,5,0,0,1,1.121,3.489v1.037H34.5a2.36,2.36,0,0,0,.743,1.494,2.245,2.245,0,0,0,1.569.563A2.742,2.742,0,0,0,39.1-2.936l1.248,1.4A3.813,3.813,0,0,1,38.8-.277,5.075,5.075,0,0,1,36.642.176Zm-.29-7.8a1.591,1.591,0,0,0-1.226.51,2.634,2.634,0,0,0-.6,1.459h3.533v-.2A1.878,1.878,0,0,0,37.6-7.167,1.642,1.642,0,0,0,36.352-7.629Zm10.986.5a6.9,6.9,0,0,0-.914-.07,1.86,1.86,0,0,0-1.89.976V0h-2.54V-9.51h2.4l.07,1.134a2.354,2.354,0,0,1,2.118-1.31,2.662,2.662,0,0,1,.791.114ZM53.807,0a2.821,2.821,0,0,1-.255-.853,3.073,3.073,0,0,1-2.4,1.028,3.376,3.376,0,0,1-2.316-.809,2.6,2.6,0,0,1-.918-2.039,2.687,2.687,0,0,1,1.121-2.32,5.529,5.529,0,0,1,3.239-.817h1.169v-.545a1.567,1.567,0,0,0-.338-1.055,1.331,1.331,0,0,0-1.068-.4,1.513,1.513,0,0,0-1.006.308,1.045,1.045,0,0,0-.365.844h-2.54a2.551,2.551,0,0,1,.51-1.529,3.37,3.37,0,0,1,1.441-1.1,5.253,5.253,0,0,1,2.092-.4,4.15,4.15,0,0,1,2.791.883A3.09,3.09,0,0,1,56-6.319V-2.2a4.546,4.546,0,0,0,.378,2.048V0Zm-2.1-1.767a2.188,2.188,0,0,0,1.037-.25,1.645,1.645,0,0,0,.7-.672V-4.324H52.5q-1.907,0-2.03,1.318l-.009.149a1.017,1.017,0,0,0,.334.782A1.3,1.3,0,0,0,51.706-1.767Z" transform="translate(275.433 19457.797)" fill="#0c1d2f"/>
    <path id="Trazado_881652" data-name="Trazado 881652" d="M1.143,0V-12.8H5.625a5.886,5.886,0,0,1,3.533.892,3.05,3.05,0,0,1,1.2,2.615,2.891,2.891,0,0,1-.483,1.657,2.792,2.792,0,0,1-1.345,1.05,2.7,2.7,0,0,1,1.551.993,2.936,2.936,0,0,1,.567,1.828A3.377,3.377,0,0,1,9.475-.967,5.3,5.3,0,0,1,6.117,0ZM3.779-5.572v3.454H6.038a2.18,2.18,0,0,0,1.455-.444,1.522,1.522,0,0,0,.523-1.226A1.607,1.607,0,0,0,6.2-5.572Zm0-1.863H5.73q2-.035,2-1.591a1.47,1.47,0,0,0-.505-1.252,2.658,2.658,0,0,0-1.6-.382H3.779Z" transform="translate(240.239 19742.512)" fill="#0c1d2f"/>
    <path id="Trazado_881653" data-name="Trazado 881653" d="M1.143,0V-12.8H5.625a5.886,5.886,0,0,1,3.533.892,3.05,3.05,0,0,1,1.2,2.615,2.891,2.891,0,0,1-.483,1.657,2.792,2.792,0,0,1-1.345,1.05,2.7,2.7,0,0,1,1.551.993,2.936,2.936,0,0,1,.567,1.828A3.377,3.377,0,0,1,9.475-.967,5.3,5.3,0,0,1,6.117,0ZM3.779-5.572v3.454H6.038a2.18,2.18,0,0,0,1.455-.444,1.522,1.522,0,0,0,.523-1.226A1.607,1.607,0,0,0,6.2-5.572Zm0-1.863H5.73q2-.035,2-1.591a1.47,1.47,0,0,0-.505-1.252,2.658,2.658,0,0,0-1.6-.382H3.779ZM18.527,0h-2.54V-9.791l-3.032.94v-2.065l5.3-1.9h.272Z" transform="translate(290.513 19749.547)" fill="#0c1d2f"/>
    <path id="Trazado_881654" data-name="Trazado 881654" d="M11.188-4.263A4.528,4.528,0,0,1,9.664-1.011,5.355,5.355,0,0,1,6.038.176,4.816,4.816,0,0,1,2.167-1.481,6.793,6.793,0,0,1,.756-6.029v-.782a7.671,7.671,0,0,1,.65-3.252,4.874,4.874,0,0,1,1.859-2.158,5.207,5.207,0,0,1,2.808-.751,5.217,5.217,0,0,1,3.568,1.187,4.866,4.866,0,0,1,1.564,3.331H8.569a2.673,2.673,0,0,0-.69-1.8,2.555,2.555,0,0,0-1.806-.558A2.24,2.24,0,0,0,4.1-9.866a5.3,5.3,0,0,0-.672,2.931v.967a5.667,5.667,0,0,0,.628,3.032,2.2,2.2,0,0,0,1.982.958,2.6,2.6,0,0,0,1.824-.558,2.521,2.521,0,0,0,.69-1.727Z" transform="translate(431.764 19749.547)" fill="#0c1d2f"/>
    <path id="Trazado_881655" data-name="Trazado 881655" d="M0,0H397.855V334.238H0Z" transform="translate(233.711 19420)" fill="none"/>
    <path id="Trazado_881656" data-name="Trazado 881656" d="M7.04,0H4.5V-9.791l-3.032.94v-2.065l5.3-1.9H7.04Zm4.922,3.208-1.327-.694.316-.571a4.567,4.567,0,0,0,.606-2.136V-2.162H13.7L13.693-.4A4.566,4.566,0,0,1,13.2,1.564,5.047,5.047,0,0,1,11.962,3.208Zm4.008-9.5.738-6.5H23.88v2.118H18.791l-.316,2.751A4.027,4.027,0,0,1,20.4-8.411a3.689,3.689,0,0,1,2.865,1.134A4.529,4.529,0,0,1,24.3-4.1a4.64,4.64,0,0,1-.523,2.219,3.691,3.691,0,0,1-1.5,1.521,4.678,4.678,0,0,1-2.3.541,4.968,4.968,0,0,1-2.153-.47,3.819,3.819,0,0,1-1.569-1.323,3.605,3.605,0,0,1-.611-1.942h2.514a1.878,1.878,0,0,0,.558,1.244,1.769,1.769,0,0,0,1.252.444,1.562,1.562,0,0,0,1.327-.62,2.87,2.87,0,0,0,.466-1.753,2.374,2.374,0,0,0-.536-1.67,1.967,1.967,0,0,0-1.521-.58,2.2,2.2,0,0,0-1.468.475l-.246.229ZM26.191,0V-12.8h3.938a5.98,5.98,0,0,1,3.019.76,5.3,5.3,0,0,1,2.079,2.162,6.669,6.669,0,0,1,.747,3.186V-6.1a6.688,6.688,0,0,1-.734,3.173A5.256,5.256,0,0,1,33.17-.773,6.025,6.025,0,0,1,30.155,0Zm2.637-10.661v8.543H30.1a2.863,2.863,0,0,0,2.364-1.011A4.567,4.567,0,0,0,33.3-6.021V-6.7a4.64,4.64,0,0,0-.809-2.958,2.854,2.854,0,0,0-2.364-1.006Z" transform="translate(419.7 19459.006)" fill="#0c1d2f"/>
    <path id="Trazado_881657" data-name="Trazado 881657" d="M1.143,0V-12.8H5.08a5.98,5.98,0,0,1,3.019.76,5.3,5.3,0,0,1,2.079,2.162,6.669,6.669,0,0,1,.747,3.186V-6.1a6.688,6.688,0,0,1-.734,3.173A5.256,5.256,0,0,1,8.121-.773,6.025,6.025,0,0,1,5.106,0ZM3.779-10.661v8.543H5.054A2.863,2.863,0,0,0,7.418-3.129a4.567,4.567,0,0,0,.835-2.892V-6.7a4.64,4.64,0,0,0-.809-2.958A2.854,2.854,0,0,0,5.08-10.661ZM21.34,0H12.568V-1.74l4.14-4.412a10.212,10.212,0,0,0,1.261-1.626A2.612,2.612,0,0,0,18.378-9.1a1.955,1.955,0,0,0-.431-1.34,1.555,1.555,0,0,0-1.23-.488,1.677,1.677,0,0,0-1.358.593,2.35,2.35,0,0,0-.5,1.56H12.313a4.2,4.2,0,0,1,.558-2.136,3.934,3.934,0,0,1,1.578-1.516,4.8,4.8,0,0,1,2.312-.549,4.54,4.54,0,0,1,3.072.949,3.358,3.358,0,0,1,1.094,2.681,4.3,4.3,0,0,1-.492,1.934,10.745,10.745,0,0,1-1.687,2.294L15.838-2.048h5.5Z" transform="translate(393.51 19488.154)" fill="#0c1d2f"/>
    <path id="Trazado_881658" data-name="Trazado 881658" d="M11.188-4.263A4.528,4.528,0,0,1,9.664-1.011,5.355,5.355,0,0,1,6.038.176,4.816,4.816,0,0,1,2.167-1.481,6.793,6.793,0,0,1,.756-6.029v-.782a7.671,7.671,0,0,1,.65-3.252,4.874,4.874,0,0,1,1.859-2.158,5.207,5.207,0,0,1,2.808-.751,5.217,5.217,0,0,1,3.568,1.187,4.866,4.866,0,0,1,1.564,3.331H8.569a2.673,2.673,0,0,0-.69-1.8,2.555,2.555,0,0,0-1.806-.558A2.24,2.24,0,0,0,4.1-9.866a5.3,5.3,0,0,0-.672,2.931v.967a5.667,5.667,0,0,0,.628,3.032,2.2,2.2,0,0,0,1.982.958,2.6,2.6,0,0,0,1.824-.558,2.521,2.521,0,0,0,.69-1.727Zm1.169-.58A5.64,5.64,0,0,1,12.9-7.365a3.989,3.989,0,0,1,1.569-1.714,4.577,4.577,0,0,1,2.377-.606,4.33,4.33,0,0,1,3.142,1.178,4.727,4.727,0,0,1,1.358,3.2l.018.65a4.97,4.97,0,0,1-1.222,3.511A4.247,4.247,0,0,1,16.866.176a4.268,4.268,0,0,1-3.283-1.318,5.058,5.058,0,0,1-1.226-3.586Zm2.54.185a3.545,3.545,0,0,0,.51,2.07,1.682,1.682,0,0,0,1.459.716,1.686,1.686,0,0,0,1.441-.708,3.879,3.879,0,0,0,.519-2.263A3.51,3.51,0,0,0,18.308-6.9a1.686,1.686,0,0,0-1.459-.729,1.659,1.659,0,0,0-1.441.725A3.944,3.944,0,0,0,14.9-4.658Zm16.594-.009a5.7,5.7,0,0,1-1,3.52A3.2,3.2,0,0,1,27.8.176a2.963,2.963,0,0,1-2.329-1V3.656h-2.54V-9.51h2.355l.088.932a2.985,2.985,0,0,1,2.408-1.107,3.22,3.22,0,0,1,2.733,1.3A5.858,5.858,0,0,1,31.491-4.8Zm-2.54-.185a3.743,3.743,0,0,0-.47-2.048,1.532,1.532,0,0,0-1.367-.721,1.663,1.663,0,0,0-1.644.914v3.894a1.692,1.692,0,0,0,1.661.94Q28.951-1.872,28.951-4.852ZM38.575,0a2.821,2.821,0,0,1-.255-.853,3.073,3.073,0,0,1-2.4,1.028A3.376,3.376,0,0,1,33.6-.633a2.6,2.6,0,0,1-.918-2.039,2.687,2.687,0,0,1,1.121-2.32,5.529,5.529,0,0,1,3.239-.817h1.169v-.545a1.567,1.567,0,0,0-.338-1.055,1.331,1.331,0,0,0-1.068-.4A1.513,1.513,0,0,0,35.8-7.5a1.045,1.045,0,0,0-.365.844H32.9a2.551,2.551,0,0,1,.51-1.529,3.37,3.37,0,0,1,1.441-1.1,5.253,5.253,0,0,1,2.092-.4,4.15,4.15,0,0,1,2.791.883,3.09,3.09,0,0,1,1.033,2.483V-2.2a4.546,4.546,0,0,0,.378,2.048V0Zm-2.1-1.767a2.188,2.188,0,0,0,1.037-.25,1.645,1.645,0,0,0,.7-.672V-4.324h-.949q-1.907,0-2.03,1.318l-.009.149a1.017,1.017,0,0,0,.334.782A1.3,1.3,0,0,0,36.475-1.767Z" transform="translate(332.234 19505.742)" fill="#0c1d2f"/>
    <path id="Trazado_881659" data-name="Trazado 881659" d="M.58-4.825a5.731,5.731,0,0,1,1-3.542A3.237,3.237,0,0,1,4.307-9.686,2.913,2.913,0,0,1,6.6-8.648V-13.5H9.149V0H6.855L6.732-1.011A2.989,2.989,0,0,1,4.289.176,3.228,3.228,0,0,1,1.6-1.147,5.916,5.916,0,0,1,.58-4.825Zm2.54.185a3.744,3.744,0,0,0,.466,2.048,1.518,1.518,0,0,0,1.354.712A1.7,1.7,0,0,0,6.6-2.874V-6.627A1.676,1.676,0,0,0,4.957-7.62Q3.12-7.62,3.12-4.641ZM15.5.176a4.668,4.668,0,0,1-3.406-1.283,4.561,4.561,0,0,1-1.314-3.419v-.246a5.745,5.745,0,0,1,.554-2.562A4.064,4.064,0,0,1,12.9-9.075a4.4,4.4,0,0,1,2.316-.611,3.947,3.947,0,0,1,3.072,1.23,5,5,0,0,1,1.121,3.489v1.037H13.351a2.36,2.36,0,0,0,.743,1.494,2.245,2.245,0,0,0,1.569.563,2.742,2.742,0,0,0,2.294-1.063l1.248,1.4A3.813,3.813,0,0,1,17.657-.277,5.075,5.075,0,0,1,15.5.176Zm-.29-7.8a1.591,1.591,0,0,0-1.226.51,2.634,2.634,0,0,0-.6,1.459H16.91v-.2a1.878,1.878,0,0,0-.457-1.305A1.642,1.642,0,0,0,15.205-7.629ZM23.528,0H20.979V-13.5h2.549Zm7.6,0a2.821,2.821,0,0,1-.255-.853,3.073,3.073,0,0,1-2.4,1.028,3.376,3.376,0,0,1-2.316-.809,2.6,2.6,0,0,1-.918-2.039,2.687,2.687,0,0,1,1.121-2.32A5.529,5.529,0,0,1,29.6-5.81h1.169v-.545a1.567,1.567,0,0,0-.338-1.055,1.331,1.331,0,0,0-1.068-.4,1.513,1.513,0,0,0-1.006.308,1.045,1.045,0,0,0-.365.844h-2.54a2.551,2.551,0,0,1,.51-1.529,3.37,3.37,0,0,1,1.441-1.1,5.253,5.253,0,0,1,2.092-.4,4.15,4.15,0,0,1,2.791.883,3.09,3.09,0,0,1,1.033,2.483V-2.2A4.546,4.546,0,0,0,33.7-.149V0Zm-2.1-1.767a2.188,2.188,0,0,0,1.037-.25,1.645,1.645,0,0,0,.7-.672V-4.324h-.949q-1.907,0-2.03,1.318l-.009.149a1.017,1.017,0,0,0,.334.782A1.3,1.3,0,0,0,29.03-1.767ZM37.608-9.51l.079,1.1a3.32,3.32,0,0,1,2.733-1.274,2.759,2.759,0,0,1,2.25.888,4.142,4.142,0,0,1,.756,2.654V0h-2.54V-6.082a1.648,1.648,0,0,0-.352-1.173,1.574,1.574,0,0,0-1.169-.365,1.747,1.747,0,0,0-1.608.914V0h-2.54V-9.51Zm10.784-2.338V-9.51h1.626v1.863H48.393V-2.9a1.133,1.133,0,0,0,.2.756,1.015,1.015,0,0,0,.773.229,4.051,4.051,0,0,0,.747-.062V-.053a5.229,5.229,0,0,1-1.538.229,2.425,2.425,0,0,1-2.725-2.7V-7.646H44.464V-9.51h1.389v-2.338ZM55.811.176A4.668,4.668,0,0,1,52.4-1.107a4.561,4.561,0,0,1-1.314-3.419v-.246a5.745,5.745,0,0,1,.554-2.562,4.064,4.064,0,0,1,1.569-1.74,4.4,4.4,0,0,1,2.316-.611A3.947,3.947,0,0,1,58.6-8.455a5,5,0,0,1,1.121,3.489v1.037H53.666a2.36,2.36,0,0,0,.743,1.494,2.245,2.245,0,0,0,1.569.563,2.742,2.742,0,0,0,2.294-1.063l1.248,1.4A3.813,3.813,0,0,1,57.973-.277,5.075,5.075,0,0,1,55.811.176Zm-.29-7.8a1.591,1.591,0,0,0-1.226.51,2.634,2.634,0,0,0-.6,1.459h3.533v-.2a1.878,1.878,0,0,0-.457-1.305A1.642,1.642,0,0,0,55.521-7.629Zm10.986.5a6.9,6.9,0,0,0-.914-.07,1.86,1.86,0,0,0-1.89.976V0h-2.54V-9.51h2.4l.07,1.134a2.354,2.354,0,0,1,2.118-1.31,2.662,2.662,0,0,1,.791.114ZM72.976,0a2.821,2.821,0,0,1-.255-.853,3.073,3.073,0,0,1-2.4,1.028,3.376,3.376,0,0,1-2.316-.809,2.6,2.6,0,0,1-.918-2.039,2.687,2.687,0,0,1,1.121-2.32,5.529,5.529,0,0,1,3.239-.817h1.169v-.545a1.567,1.567,0,0,0-.338-1.055,1.331,1.331,0,0,0-1.068-.4A1.513,1.513,0,0,0,70.2-7.5a1.045,1.045,0,0,0-.365.844H67.3a2.551,2.551,0,0,1,.51-1.529,3.37,3.37,0,0,1,1.441-1.1,5.253,5.253,0,0,1,2.092-.4,4.15,4.15,0,0,1,2.791.883,3.09,3.09,0,0,1,1.033,2.483V-2.2a4.546,4.546,0,0,0,.378,2.048V0Zm-2.1-1.767a2.188,2.188,0,0,0,1.037-.25,1.645,1.645,0,0,0,.7-.672V-4.324h-.949q-1.907,0-2.03,1.318l-.009.149a1.017,1.017,0,0,0,.334.782A1.3,1.3,0,0,0,70.875-1.767Z" transform="translate(332.234 19524.607)" fill="#0c1d2f"/>
    <path id="Trazado_881660" data-name="Trazado 881660" d="M11.188-4.263A4.528,4.528,0,0,1,9.664-1.011,5.355,5.355,0,0,1,6.038.176,4.816,4.816,0,0,1,2.167-1.481,6.793,6.793,0,0,1,.756-6.029v-.782a7.671,7.671,0,0,1,.65-3.252,4.874,4.874,0,0,1,1.859-2.158,5.207,5.207,0,0,1,2.808-.751,5.217,5.217,0,0,1,3.568,1.187,4.866,4.866,0,0,1,1.564,3.331H8.569a2.673,2.673,0,0,0-.69-1.8,2.555,2.555,0,0,0-1.806-.558A2.24,2.24,0,0,0,4.1-9.866a5.3,5.3,0,0,0-.672,2.931v.967a5.667,5.667,0,0,0,.628,3.032,2.2,2.2,0,0,0,1.982.958,2.6,2.6,0,0,0,1.824-.558,2.521,2.521,0,0,0,.69-1.727ZM17.13.176a4.668,4.668,0,0,1-3.406-1.283A4.561,4.561,0,0,1,12.41-4.526v-.246a5.745,5.745,0,0,1,.554-2.562,4.064,4.064,0,0,1,1.569-1.74,4.4,4.4,0,0,1,2.316-.611,3.947,3.947,0,0,1,3.072,1.23,5,5,0,0,1,1.121,3.489v1.037H14.985a2.36,2.36,0,0,0,.743,1.494,2.245,2.245,0,0,0,1.569.563,2.742,2.742,0,0,0,2.294-1.063l1.248,1.4A3.813,3.813,0,0,1,19.292-.277,5.075,5.075,0,0,1,17.13.176Zm-.29-7.8a1.591,1.591,0,0,0-1.226.51,2.634,2.634,0,0,0-.6,1.459h3.533v-.2a1.878,1.878,0,0,0-.457-1.305A1.642,1.642,0,0,0,16.84-7.629ZM24.82-9.51l.079,1.1a3.32,3.32,0,0,1,2.733-1.274,2.759,2.759,0,0,1,2.25.888,4.142,4.142,0,0,1,.756,2.654V0H28.1V-6.082a1.648,1.648,0,0,0-.352-1.173,1.574,1.574,0,0,0-1.169-.365,1.747,1.747,0,0,0-1.608.914V0H22.43V-9.51ZM35.6-11.848V-9.51H37.23v1.863H35.6V-2.9a1.133,1.133,0,0,0,.2.756,1.015,1.015,0,0,0,.773.229,4.051,4.051,0,0,0,.747-.062V-.053a5.229,5.229,0,0,1-1.538.229,2.425,2.425,0,0,1-2.725-2.7V-7.646H31.676V-9.51h1.389v-2.338Zm8.385,4.72a6.9,6.9,0,0,0-.914-.07,1.86,1.86,0,0,0-1.89.976V0h-2.54V-9.51h2.4l.07,1.134a2.354,2.354,0,0,1,2.118-1.31,2.662,2.662,0,0,1,.791.114Zm.366,2.285A5.64,5.64,0,0,1,44.9-7.365a3.989,3.989,0,0,1,1.569-1.714,4.577,4.577,0,0,1,2.377-.606,4.33,4.33,0,0,1,3.142,1.178,4.727,4.727,0,0,1,1.358,3.2l.018.65a4.97,4.97,0,0,1-1.222,3.511A4.247,4.247,0,0,1,48.864.176a4.268,4.268,0,0,1-3.283-1.318,5.058,5.058,0,0,1-1.226-3.586Zm2.54.185a3.545,3.545,0,0,0,.51,2.07,1.682,1.682,0,0,0,1.459.716,1.686,1.686,0,0,0,1.441-.708,3.879,3.879,0,0,0,.519-2.263A3.51,3.51,0,0,0,50.305-6.9a1.686,1.686,0,0,0-1.459-.729A1.659,1.659,0,0,0,47.4-6.9,3.944,3.944,0,0,0,46.9-4.658ZM61.889-8.473a3.17,3.17,0,0,1,2.54-1.213q3.094,0,3.138,3.595V0h-2.54V-6.021a1.767,1.767,0,0,0-.352-1.208,1.507,1.507,0,0,0-1.169-.391,1.729,1.729,0,0,0-1.617.861V0h-2.54V-13.5h2.54Zm7.2,3.63a5.64,5.64,0,0,1,.545-2.522A3.989,3.989,0,0,1,71.2-9.079a4.577,4.577,0,0,1,2.377-.606,4.33,4.33,0,0,1,3.142,1.178,4.727,4.727,0,0,1,1.358,3.2l.018.65a4.97,4.97,0,0,1-1.222,3.511A4.247,4.247,0,0,1,73.6.176a4.268,4.268,0,0,1-3.283-1.318,5.058,5.058,0,0,1-1.226-3.586Zm2.54.185a3.545,3.545,0,0,0,.51,2.07,1.682,1.682,0,0,0,1.459.716,1.686,1.686,0,0,0,1.441-.708,3.879,3.879,0,0,0,.519-2.263A3.51,3.51,0,0,0,75.038-6.9a1.686,1.686,0,0,0-1.459-.729,1.659,1.659,0,0,0-1.441.725A3.944,3.944,0,0,0,71.627-4.658ZM82.043-9.51l.079,1.063a3.342,3.342,0,0,1,2.733-1.239,2.536,2.536,0,0,1,2.522,1.45,3.265,3.265,0,0,1,2.856-1.45,2.836,2.836,0,0,1,2.3.9,4.141,4.141,0,0,1,.756,2.711V0H90.744V-6.064a1.811,1.811,0,0,0-.316-1.182,1.4,1.4,0,0,0-1.116-.374,1.585,1.585,0,0,0-1.582,1.09L87.738,0H85.2V-6.056a1.789,1.789,0,0,0-.325-1.2,1.416,1.416,0,0,0-1.107-.369,1.646,1.646,0,0,0-1.564.9V0h-2.54V-9.51Zm21.771,4.843a5.758,5.758,0,0,1-.976,3.564A3.231,3.231,0,0,1,100.113.176a2.969,2.969,0,0,1-2.47-1.187L97.529,0H95.244V-13.5h2.54v4.843A2.893,2.893,0,0,1,100.1-9.686a3.258,3.258,0,0,1,2.729,1.279,5.767,5.767,0,0,1,.989,3.6Zm-2.54-.185a3.783,3.783,0,0,0-.457-2.1,1.545,1.545,0,0,0-1.362-.664,1.676,1.676,0,0,0-1.67.993v3.753a1.7,1.7,0,0,0,1.688,1,1.568,1.568,0,0,0,1.617-1.213A6.257,6.257,0,0,0,101.273-4.852Zm9.448-2.276a6.9,6.9,0,0,0-.914-.07,1.86,1.86,0,0,0-1.89.976V0h-2.54V-9.51h2.4l.07,1.134a2.354,2.354,0,0,1,2.118-1.31,2.662,2.662,0,0,1,.791.114Zm.384,2.285a5.64,5.64,0,0,1,.545-2.522,3.989,3.989,0,0,1,1.569-1.714,4.577,4.577,0,0,1,2.377-.606,4.33,4.33,0,0,1,3.142,1.178,4.727,4.727,0,0,1,1.358,3.2l.018.65a4.97,4.97,0,0,1-1.222,3.511A4.247,4.247,0,0,1,115.614.176a4.268,4.268,0,0,1-3.283-1.318,5.058,5.058,0,0,1-1.226-3.586Zm2.54.185a3.545,3.545,0,0,0,.51,2.07,1.682,1.682,0,0,0,1.459.716,1.686,1.686,0,0,0,1.441-.708,3.879,3.879,0,0,0,.519-2.263,3.51,3.51,0,0,0-.519-2.057,1.686,1.686,0,0,0-1.459-.729,1.659,1.659,0,0,0-1.441.725A3.944,3.944,0,0,0,113.645-4.658Z" transform="translate(437.669 19657.289) rotate(-90)" fill="#0c1d2f"/>
    <path id="Trazado_881661" data-name="Trazado 881661" d="M1.143,0V-12.8H5.08a5.98,5.98,0,0,1,3.019.76,5.3,5.3,0,0,1,2.079,2.162,6.669,6.669,0,0,1,.747,3.186V-6.1a6.688,6.688,0,0,1-.734,3.173A5.256,5.256,0,0,1,8.121-.773,6.025,6.025,0,0,1,5.106,0ZM3.779-10.661v8.543H5.054A2.863,2.863,0,0,0,7.418-3.129a4.567,4.567,0,0,0,.835-2.892V-6.7a4.64,4.64,0,0,0-.809-2.958A2.854,2.854,0,0,0,5.08-10.661ZM18.738,0H16.2V-9.791l-3.032.94v-2.065l5.3-1.9h.272Z" transform="translate(444.833 19524.352)" fill="#0c1d2f"/>
    <path id="Trazado_881662" data-name="Trazado 881662" d="M1.248-6.293l.738-6.5H9.158v2.118H4.069L3.753-7.928a4.027,4.027,0,0,1,1.925-.483A3.689,3.689,0,0,1,8.543-7.277,4.529,4.529,0,0,1,9.58-4.1a4.64,4.64,0,0,1-.523,2.219,3.691,3.691,0,0,1-1.5,1.521,4.678,4.678,0,0,1-2.3.541A4.968,4.968,0,0,1,3.1-.294,3.819,3.819,0,0,1,1.534-1.617,3.605,3.605,0,0,1,.923-3.56H3.437a1.878,1.878,0,0,0,.558,1.244,1.769,1.769,0,0,0,1.252.444,1.562,1.562,0,0,0,1.327-.62A2.87,2.87,0,0,0,7.04-4.245,2.374,2.374,0,0,0,6.5-5.915,1.967,1.967,0,0,0,4.983-6.5a2.2,2.2,0,0,0-1.468.475l-.246.229Z" transform="translate(623.966 19502.285) rotate(-90)" fill="#0c1d2f"/>
    <path id="Trazado_881663" data-name="Trazado 881663" d="M1.248-6.293l.738-6.5H9.158v2.118H4.069L3.753-7.928a4.027,4.027,0,0,1,1.925-.483A3.689,3.689,0,0,1,8.543-7.277,4.529,4.529,0,0,1,9.58-4.1a4.64,4.64,0,0,1-.523,2.219,3.691,3.691,0,0,1-1.5,1.521,4.678,4.678,0,0,1-2.3.541A4.968,4.968,0,0,1,3.1-.294,3.819,3.819,0,0,1,1.534-1.617,3.605,3.605,0,0,1,.923-3.56H3.437a1.878,1.878,0,0,0,.558,1.244,1.769,1.769,0,0,0,1.252.444,1.562,1.562,0,0,0,1.327-.62A2.87,2.87,0,0,0,7.04-4.245,2.374,2.374,0,0,0,6.5-5.915,1.967,1.967,0,0,0,4.983-6.5a2.2,2.2,0,0,0-1.468.475l-.246.229Z" transform="translate(275.11 19502.285) rotate(-90)" fill="#0c1d2f"/>
    <path id="Trazado_881664" data-name="Trazado 881664" d="M8.367-2.637H3.744L2.865,0H.062L4.825-12.8H7.269L12.059,0h-2.8ZM4.456-4.772h3.2L6.047-9.562ZM19.151,0h-2.54V-9.791l-3.032.94v-2.065l5.3-1.9h.272Z" transform="translate(233.711 19529.881)" fill="#0c1d2f"/>
    <path id="Trazado_881665" data-name="Trazado 881665" d="M0,0H397.855V334.238H0Z" transform="translate(233.711 19420)" fill="none"/>
    <path id="Trazado_881666" data-name="Trazado 881666" d="M10.775-10.661H6.855V0H4.219V-10.661H.352V-12.8H10.775Zm5.55,3.533a6.9,6.9,0,0,0-.914-.07,1.86,1.86,0,0,0-1.89.976V0h-2.54V-9.51h2.4l.07,1.134a2.354,2.354,0,0,1,2.118-1.31,2.662,2.662,0,0,1,.791.114ZM22.795,0a2.821,2.821,0,0,1-.255-.853A3.073,3.073,0,0,1,20.14.176a3.376,3.376,0,0,1-2.316-.809,2.6,2.6,0,0,1-.918-2.039,2.687,2.687,0,0,1,1.121-2.32,5.529,5.529,0,0,1,3.239-.817h1.169v-.545A1.567,1.567,0,0,0,22.1-7.409a1.331,1.331,0,0,0-1.068-.4,1.513,1.513,0,0,0-1.006.308,1.045,1.045,0,0,0-.365.844h-2.54a2.551,2.551,0,0,1,.51-1.529,3.37,3.37,0,0,1,1.441-1.1,5.253,5.253,0,0,1,2.092-.4A4.15,4.15,0,0,1,23.95-8.8a3.09,3.09,0,0,1,1.033,2.483V-2.2a4.546,4.546,0,0,0,.378,2.048V0Zm-2.1-1.767a2.188,2.188,0,0,0,1.037-.25,1.645,1.645,0,0,0,.7-.672V-4.324h-.949q-1.907,0-2.03,1.318l-.009.149a1.017,1.017,0,0,0,.334.782A1.3,1.3,0,0,0,20.694-1.767Zm11.391-.861a.818.818,0,0,0-.461-.734,5.241,5.241,0,0,0-1.481-.479Q26.75-4.553,26.75-6.724A2.613,2.613,0,0,1,27.8-8.837a4.237,4.237,0,0,1,2.747-.848,4.56,4.56,0,0,1,2.9.853,2.687,2.687,0,0,1,1.085,2.215h-2.54a1.229,1.229,0,0,0-.352-.9,1.488,1.488,0,0,0-1.1-.356,1.52,1.52,0,0,0-.993.29.916.916,0,0,0-.352.738.783.783,0,0,0,.4.681,4.114,4.114,0,0,0,1.349.448,11.019,11.019,0,0,1,1.6.426,2.628,2.628,0,0,1,2.013,2.558,2.481,2.481,0,0,1-1.116,2.1,4.815,4.815,0,0,1-2.883.8A5.029,5.029,0,0,1,28.433-.25a3.561,3.561,0,0,1-1.455-1.169,2.716,2.716,0,0,1-.527-1.6h2.408a1.326,1.326,0,0,0,.5,1.037,1.987,1.987,0,0,0,1.248.36,1.839,1.839,0,0,0,1.1-.277A.861.861,0,0,0,32.085-2.628Zm8.481,2.8A4.668,4.668,0,0,1,37.16-1.107a4.561,4.561,0,0,1-1.314-3.419v-.246A5.745,5.745,0,0,1,36.4-7.334a4.064,4.064,0,0,1,1.569-1.74,4.4,4.4,0,0,1,2.316-.611,3.947,3.947,0,0,1,3.072,1.23,5,5,0,0,1,1.121,3.489v1.037H38.421a2.36,2.36,0,0,0,.743,1.494,2.245,2.245,0,0,0,1.569.563,2.742,2.742,0,0,0,2.294-1.063l1.248,1.4A3.813,3.813,0,0,1,42.728-.277,5.075,5.075,0,0,1,40.566.176Zm-.29-7.8a1.591,1.591,0,0,0-1.226.51,2.634,2.634,0,0,0-.6,1.459h3.533v-.2a1.878,1.878,0,0,0-.457-1.305A1.642,1.642,0,0,0,40.276-7.629Zm10.986.5a6.9,6.9,0,0,0-.914-.07,1.86,1.86,0,0,0-1.89.976V0h-2.54V-9.51h2.4l.07,1.134a2.354,2.354,0,0,1,2.118-1.31,2.662,2.662,0,0,1,.791.114ZM57.731,0a2.821,2.821,0,0,1-.255-.853,3.073,3.073,0,0,1-2.4,1.028,3.376,3.376,0,0,1-2.316-.809,2.6,2.6,0,0,1-.918-2.039,2.687,2.687,0,0,1,1.121-2.32A5.529,5.529,0,0,1,56.2-5.81h1.169v-.545a1.567,1.567,0,0,0-.338-1.055,1.331,1.331,0,0,0-1.068-.4,1.513,1.513,0,0,0-1.006.308,1.045,1.045,0,0,0-.365.844h-2.54a2.551,2.551,0,0,1,.51-1.529A3.37,3.37,0,0,1,54-9.286a5.253,5.253,0,0,1,2.092-.4,4.15,4.15,0,0,1,2.791.883A3.09,3.09,0,0,1,59.92-6.319V-2.2A4.546,4.546,0,0,0,60.3-.149V0Zm-2.1-1.767a2.188,2.188,0,0,0,1.037-.25,1.645,1.645,0,0,0,.7-.672V-4.324h-.949q-1.907,0-2.03,1.318l-.009.149a1.017,1.017,0,0,0,.334.782A1.3,1.3,0,0,0,55.63-1.767Z" transform="translate(479.016 19656.553)" fill="#0c1d2f"/>
    <path id="Trazado_881399" data-name="Trazado 881399" d="M153.125,32.586c1.508.5,53.785-6.535,138.235,43.732l28.651,12.567-29.657,207.1L138.045,294.98" transform="translate(305.768 19436.965)" fill="none" stroke="#0c1d2f" stroke-miterlimit="10" stroke-width="1" stroke-dasharray="3 3"/>
    <path id="Trazado_881667" data-name="Trazado 881667" d="M.408,0,0,30.844" transform="translate(297.56 19462.012)" fill="none" stroke="#0c1d30" stroke-width="1"/>
    <path id="Trazado_881400" data-name="Trazado 881400" d="M37.366,41.01a.761.761,0,0,1,1.047.248l6.124,9.9,6.383-9.736a.761.761,0,1,1,1.274.834L45.155,52.994a.762.762,0,0,1-1.285-.017L37.119,42.059a.762.762,0,0,1,.247-1.049" transform="translate(253.026 19441.348)" fill="#0c1d30"/>
    <path id="Trazado_881668" data-name="Trazado 881668" d="M30.843.408,0,0" transform="translate(300.336 19519.879)" fill="none" stroke="#0c1d30" stroke-width="1"/>
    <path id="Trazado_881401" data-name="Trazado 881401" d="M54.9,61.039a.763.763,0,0,1-.25,1.047l-9.9,6.124,9.736,6.383a.762.762,0,1,1-.836,1.274L42.918,68.828a.761.761,0,0,1,.015-1.285l10.919-6.752a.759.759,0,0,1,.409-.114.768.768,0,0,1,.641.361" transform="translate(255.933 19451.672)" fill="#0c1d30"/>
    <path id="Trazado_881669" data-name="Trazado 881669" d="M0,0V166.384" transform="translate(420.689 19469.551)" fill="none" stroke="#0c1d30" stroke-linecap="round" stroke-width="1"/>
    <path id="Trazado_881402" data-name="Trazado 881402" d="M20.146,206.419a3.2,3.2,0,1,1-3.2-3.2,3.2,3.2,0,0,1,3.2,3.2" transform="translate(240.882 19526.074)" fill="#0c1d2f"/>
    <path id="Trazado_881403" data-name="Trazado 881403" d="M20.146,71.968a3.2,3.2,0,1,1-3.2-3.2,3.2,3.2,0,0,1,3.2,3.2" transform="translate(240.882 19455.893)" fill="#0c1d2f"/>
    <path id="Trazado_881404" data-name="Trazado 881404" d="M20.146,31.014a3.2,3.2,0,1,1-3.2-3.2,3.2,3.2,0,0,1,3.2,3.2" transform="translate(240.882 19434.516)" fill="#0c1d2f"/>
    <path id="Trazado_881670" data-name="Trazado 881670" d="M37.2,0H0" transform="translate(261.344 19731.959)" fill="none" stroke="#9eb3c8" stroke-width="1.092"/>
    <path id="Trazado_881671" data-name="Trazado 881671" d="M0,0H397.855V334.238H0Z" transform="translate(233.711 19420)" fill="none"/>
  </g>
</svg>
