<svg xmlns="http://www.w3.org/2000/svg" width="481.101" height="264.246" viewBox="0 0 481.101 264.246">
  <g id="Grupo_1103492" data-name="Grupo 1103492" transform="translate(-244.711 -20389.602)">
    <path id="Trazado_881406" data-name="Trazado 881406" d="M24.112,24.1a7.262,7.262,0,0,0,1.647-.521C34.345,20.223,71.8,1.88,71.8,1.88s10.649,37.037,42.131,37.037c0,0,37.965,0,43.058-35.649L205.136,24.1S185.229,95.4,230.6,96.79c0,0-10.185,99.539,2.316,142.133l.925,21.762-231.952.463L.5,240.775S13,135.216,1.889,95.864c0,0,39.068,9.813,23.006-71.947" transform="translate(244.912 20390.357)" fill="none" stroke="#0c1d30" stroke-linecap="round" stroke-linejoin="round" stroke-width="1"/>
    <path id="Trazado_881407" data-name="Trazado 881407" d="M6.152,122.1s216.211.463,216.673,0" transform="translate(247.183 20438.66)" fill="none" stroke="#9eb3c8" stroke-miterlimit="10" stroke-width="1"/>
    <path id="Trazado_881408" data-name="Trazado 881408" d="M17.712,62.32c.463.463,183.34,0,183.34,0" transform="translate(251.827 20414.643)" fill="none" stroke="#9eb3c8" stroke-miterlimit="10" stroke-width="1"/>
    <path id="Trazado_881409" data-name="Trazado 881409" d="M23,46.254c1.389-.927,168.062,0,168.062,0" transform="translate(253.951 20408.021)" fill="none" stroke="#9eb3c8" stroke-miterlimit="10" stroke-width="1"/>
    <path id="Trazado_881410" data-name="Trazado 881410" d="M174.66,261.239l-.927-18.057s12.039-97.225-.463-145.838c0,0,30.556-7.871,23.612-81.485,0,0,48.15-16.666,47.224-15.278s58.336,36.576,87.5,1.389c0,0,50.927,11.575,49.538,11.575s-4.629,72.688,24.539,79.632c0,0-4.63,114.356,4.63,146.3l.463,18.982S202.438,267.259,174.66,261.239Z" transform="translate(314.331 20389.803)" fill="none" stroke="#0c1d30" stroke-linecap="round" stroke-linejoin="round" stroke-width="1"/>
    <path id="Trazado_881672" data-name="Trazado 881672" d="M0,0H221.768" transform="translate(494.547 20561.686)" fill="none" stroke="#9eb3c8" stroke-width="1"/>
    <path id="Trazado_881673" data-name="Trazado 881673" d="M0,0H202.784" transform="translate(503.344 20476.498)" fill="none" stroke="#9eb3c8" stroke-width="1"/>
    <path id="Trazado_881674" data-name="Trazado 881674" d="M0,0H185.654" transform="translate(511.215 20453.35)" fill="none" stroke="#9eb3c8" stroke-width="1"/>
    <path id="Trazado_881675" data-name="Trazado 881675" d="M0,0H481.1V264.246H0Z" transform="translate(244.711 20389.602)" fill="none"/>
    <path id="Trazado_881676" data-name="Trazado 881676" d="M1.89-1.059h2.8V0H.571V-6.4H1.89ZM6.732,0H5.462V-4.755h1.27ZM6.359-6.684H7.743L6.526-5.322H5.493ZM9-4.755l.04.549A1.66,1.66,0,0,1,10.4-4.843a1.38,1.38,0,0,1,1.125.444A2.071,2.071,0,0,1,11.9-3.072V0h-1.27V-3.041a.824.824,0,0,0-.176-.587.787.787,0,0,0-.584-.182.874.874,0,0,0-.8.457V0H7.8V-4.755ZM15.056.088a2.334,2.334,0,0,1-1.7-.642A2.281,2.281,0,0,1,12.7-2.263v-.123a2.872,2.872,0,0,1,.277-1.281,2.032,2.032,0,0,1,.784-.87,2.2,2.2,0,0,1,1.158-.305,1.973,1.973,0,0,1,1.536.615,2.5,2.5,0,0,1,.56,1.745v.519H13.983a1.18,1.18,0,0,0,.371.747,1.123,1.123,0,0,0,.784.281,1.371,1.371,0,0,0,1.147-.532l.624.7a1.907,1.907,0,0,1-.773.631A2.538,2.538,0,0,1,15.056.088Zm-.145-3.9a.8.8,0,0,0-.613.255,1.317,1.317,0,0,0-.3.729h1.767v-.1a.939.939,0,0,0-.229-.653A.821.821,0,0,0,14.911-3.814ZM20.487,0a1.41,1.41,0,0,1-.127-.426,1.537,1.537,0,0,1-1.2.514A1.688,1.688,0,0,1,18-.316a1.3,1.3,0,0,1-.459-1.02A1.344,1.344,0,0,1,18.1-2.5,2.765,2.765,0,0,1,19.723-2.9h.584v-.272a.784.784,0,0,0-.169-.527.666.666,0,0,0-.534-.2.757.757,0,0,0-.5.154.523.523,0,0,0-.182.422h-1.27a1.276,1.276,0,0,1,.255-.765,1.685,1.685,0,0,1,.721-.552,2.627,2.627,0,0,1,1.046-.2,2.075,2.075,0,0,1,1.4.442,1.545,1.545,0,0,1,.516,1.241V-1.1a2.273,2.273,0,0,0,.189,1.024V0Zm-1.05-.883a1.094,1.094,0,0,0,.519-.125.823.823,0,0,0,.352-.336v-.817h-.475q-.954,0-1.015.659l0,.075a.508.508,0,0,0,.167.391A.649.649,0,0,0,19.437-.883Zm6.6-3.353a1.585,1.585,0,0,1,1.27-.606q1.547,0,1.569,1.8V0h-1.27V-3.01a.883.883,0,0,0-.176-.6.754.754,0,0,0-.584-.2.864.864,0,0,0-.809.431V0h-1.27V-6.75h1.27Zm3.6,1.815a2.82,2.82,0,0,1,.272-1.261,2,2,0,0,1,.784-.857,2.289,2.289,0,0,1,1.189-.3,2.165,2.165,0,0,1,1.571.589,2.363,2.363,0,0,1,.679,1.6l.009.325A2.485,2.485,0,0,1,33.53-.573a2.123,2.123,0,0,1-1.639.661A2.134,2.134,0,0,1,30.25-.571a2.529,2.529,0,0,1-.613-1.793Zm1.27.092a1.773,1.773,0,0,0,.255,1.035.841.841,0,0,0,.729.358.843.843,0,0,0,.721-.354,1.94,1.94,0,0,0,.259-1.132,1.755,1.755,0,0,0-.259-1.028.843.843,0,0,0-.729-.365.829.829,0,0,0-.721.363A1.972,1.972,0,0,0,30.907-2.329Zm5.208-2.426.04.532a1.671,1.671,0,0,1,1.367-.62,1.268,1.268,0,0,1,1.261.725,1.633,1.633,0,0,1,1.428-.725,1.418,1.418,0,0,1,1.151.45,2.07,2.07,0,0,1,.378,1.356V0H40.465V-3.032a.905.905,0,0,0-.158-.591.7.7,0,0,0-.558-.187.793.793,0,0,0-.791.545l0,3.265h-1.27V-3.028a.894.894,0,0,0-.163-.6.708.708,0,0,0-.554-.185.823.823,0,0,0-.782.448V0h-1.27V-4.755ZM47-2.333a2.879,2.879,0,0,1-.488,1.782,1.616,1.616,0,0,1-1.362.639,1.485,1.485,0,0,1-1.235-.593L43.857,0H42.715V-6.75h1.27v2.421a1.446,1.446,0,0,1,1.156-.514,1.629,1.629,0,0,1,1.365.639A2.883,2.883,0,0,1,47-2.4Zm-1.27-.092A1.892,1.892,0,0,0,45.5-3.478a.773.773,0,0,0-.681-.332.838.838,0,0,0-.835.5v1.876a.849.849,0,0,0,.844.5.784.784,0,0,0,.809-.606A3.128,3.128,0,0,0,45.729-2.426Zm4.724-1.138A3.45,3.45,0,0,0,50-3.6a.93.93,0,0,0-.945.488V0h-1.27V-4.755h1.2l.035.567a1.177,1.177,0,0,1,1.059-.655,1.331,1.331,0,0,1,.4.057Zm.174,1.143A2.82,2.82,0,0,1,50.9-3.683a2,2,0,0,1,.784-.857,2.289,2.289,0,0,1,1.189-.3,2.165,2.165,0,0,1,1.571.589,2.363,2.363,0,0,1,.679,1.6l.009.325a2.485,2.485,0,0,1-.611,1.756,2.123,2.123,0,0,1-1.639.661,2.134,2.134,0,0,1-1.641-.659,2.529,2.529,0,0,1-.613-1.793Zm1.27.092a1.773,1.773,0,0,0,.255,1.035.841.841,0,0,0,.729.358A.843.843,0,0,0,53.6-1.29a1.94,1.94,0,0,0,.259-1.132A1.755,1.755,0,0,0,53.6-3.45a.843.843,0,0,0-.729-.365.829.829,0,0,0-.721.363A1.972,1.972,0,0,0,51.9-2.329Zm6.592,1.015a.409.409,0,0,0-.231-.367,2.621,2.621,0,0,0-.74-.24q-1.7-.356-1.7-1.441a1.307,1.307,0,0,1,.525-1.057,2.118,2.118,0,0,1,1.373-.424,2.28,2.28,0,0,1,1.448.426,1.343,1.343,0,0,1,.543,1.107h-1.27a.615.615,0,0,0-.176-.45.744.744,0,0,0-.549-.178.76.76,0,0,0-.5.145.458.458,0,0,0-.176.369.391.391,0,0,0,.2.341,2.057,2.057,0,0,0,.675.224,5.51,5.51,0,0,1,.8.213,1.314,1.314,0,0,1,1.006,1.279,1.24,1.24,0,0,1-.558,1.052,2.408,2.408,0,0,1-1.441.4,2.515,2.515,0,0,1-1.061-.213,1.781,1.781,0,0,1-.727-.584,1.358,1.358,0,0,1-.264-.8h1.2a.663.663,0,0,0,.25.519.994.994,0,0,0,.624.18A.92.92,0,0,0,58.3-.951.431.431,0,0,0,58.489-1.314Z" transform="translate(280.203 20448.658)" fill="#0c1d2f"/>
    <path id="Trazado_881677" data-name="Trazado 881677" d="M2.31-1.294H5.731V0H.7V-7.82H2.31ZM8.229,0H6.676V-5.812H8.229ZM7.772-8.169H9.464L7.976-6.5H6.714Zm3.223,2.358.048.671a2.029,2.029,0,0,1,1.67-.779,1.686,1.686,0,0,1,1.375.542,2.531,2.531,0,0,1,.462,1.622V0H13V-3.717a1.007,1.007,0,0,0-.215-.717.962.962,0,0,0-.714-.223,1.068,1.068,0,0,0-.983.559V0H9.534V-5.812ZM18.4.107A2.853,2.853,0,0,1,16.32-.677a2.787,2.787,0,0,1-.8-2.089v-.15a3.511,3.511,0,0,1,.338-1.566,2.483,2.483,0,0,1,.959-1.063,2.691,2.691,0,0,1,1.415-.373,2.412,2.412,0,0,1,1.877.752,3.056,3.056,0,0,1,.685,2.132V-2.4h-3.7a1.442,1.442,0,0,0,.454.913,1.372,1.372,0,0,0,.959.344,1.675,1.675,0,0,0,1.4-.65l.763.854a2.33,2.33,0,0,1-.945.771A3.1,3.1,0,0,1,18.4.107Zm-.177-4.77a.972.972,0,0,0-.749.312,1.609,1.609,0,0,0-.368.892h2.159v-.124a1.147,1.147,0,0,0-.279-.8A1,1,0,0,0,18.224-4.662ZM25.04,0a1.724,1.724,0,0,1-.156-.521,1.878,1.878,0,0,1-1.466.628A2.063,2.063,0,0,1,22-.387a1.589,1.589,0,0,1-.561-1.246,1.642,1.642,0,0,1,.685-1.418,3.379,3.379,0,0,1,1.979-.5h.714v-.333a.958.958,0,0,0-.207-.645.813.813,0,0,0-.653-.242.925.925,0,0,0-.615.188.639.639,0,0,0-.223.516H21.57A1.559,1.559,0,0,1,21.882-5a2.059,2.059,0,0,1,.881-.674,3.21,3.21,0,0,1,1.278-.244,2.536,2.536,0,0,1,1.705.54,1.888,1.888,0,0,1,.631,1.517v2.519a2.778,2.778,0,0,0,.231,1.251V0ZM23.756-1.08a1.337,1.337,0,0,0,.634-.153,1,1,0,0,0,.43-.411v-1h-.58q-1.166,0-1.241.806l-.005.091a.621.621,0,0,0,.2.478A.793.793,0,0,0,23.756-1.08ZM32.167-7.24v1.429h.994v1.139h-.994v2.9a.693.693,0,0,0,.124.462.62.62,0,0,0,.473.14,2.475,2.475,0,0,0,.457-.038V-.032a3.2,3.2,0,0,1-.94.14,1.482,1.482,0,0,1-1.665-1.649V-4.673h-.849V-5.812h.849V-7.24Zm1.617,4.281A3.447,3.447,0,0,1,34.117-4.5a2.438,2.438,0,0,1,.959-1.047,2.8,2.8,0,0,1,1.453-.371,2.646,2.646,0,0,1,1.92.72,2.889,2.889,0,0,1,.83,1.955l.011.4A3.038,3.038,0,0,1,38.543-.7a2.6,2.6,0,0,1-2,.808A2.608,2.608,0,0,1,34.533-.7a3.091,3.091,0,0,1-.749-2.191Zm1.552.113a2.166,2.166,0,0,0,.312,1.265,1.028,1.028,0,0,0,.892.438,1.031,1.031,0,0,0,.881-.432,2.371,2.371,0,0,0,.317-1.383,2.145,2.145,0,0,0-.317-1.257,1.031,1.031,0,0,0-.892-.446,1.014,1.014,0,0,0-.881.443A2.41,2.41,0,0,0,35.336-2.847Zm1.5-5.4h1.692L37.039-6.585H35.777Zm6.676,3.894a4.217,4.217,0,0,0-.559-.043,1.137,1.137,0,0,0-1.155.6V0H40.246V-5.812h1.466l.043.693a1.438,1.438,0,0,1,1.294-.8,1.626,1.626,0,0,1,.483.07ZM47.464,0a1.724,1.724,0,0,1-.156-.521,1.878,1.878,0,0,1-1.466.628,2.063,2.063,0,0,1-1.415-.494,1.589,1.589,0,0,1-.561-1.246,1.642,1.642,0,0,1,.685-1.418,3.379,3.379,0,0,1,1.979-.5h.714v-.333a.958.958,0,0,0-.207-.645.813.813,0,0,0-.653-.242.925.925,0,0,0-.615.188.639.639,0,0,0-.223.516H43.995A1.559,1.559,0,0,1,44.306-5a2.059,2.059,0,0,1,.881-.674,3.21,3.21,0,0,1,1.278-.244,2.536,2.536,0,0,1,1.705.54A1.888,1.888,0,0,1,48.8-3.862v2.519a2.778,2.778,0,0,0,.231,1.251V0ZM46.181-1.08a1.337,1.337,0,0,0,.634-.153,1,1,0,0,0,.43-.411v-1h-.58q-1.166,0-1.241.806l-.005.091a.621.621,0,0,0,.2.478A.793.793,0,0,0,46.181-1.08Zm6.026-3,.978-1.735h1.66L53.19-2.965,54.914,0H53.249L52.212-1.826,51.181,0h-1.67l1.724-2.965L49.586-5.812h1.665Z" transform="translate(286.222 20472.404)" fill="#0c1d2f"/>
    <path id="Trazado_881678" data-name="Trazado 881678" d="M2.31-1.294H5.731V0H.7V-7.82H2.31ZM8.229,0H6.676V-5.812H8.229ZM7.772-8.169H9.464L7.976-6.5H6.714Zm3.223,2.358.048.671a2.029,2.029,0,0,1,1.67-.779,1.686,1.686,0,0,1,1.375.542,2.531,2.531,0,0,1,.462,1.622V0H13V-3.717a1.007,1.007,0,0,0-.215-.717.962.962,0,0,0-.714-.223,1.068,1.068,0,0,0-.983.559V0H9.534V-5.812ZM18.4.107A2.853,2.853,0,0,1,16.32-.677a2.787,2.787,0,0,1-.8-2.089v-.15a3.511,3.511,0,0,1,.338-1.566,2.483,2.483,0,0,1,.959-1.063,2.691,2.691,0,0,1,1.415-.373,2.412,2.412,0,0,1,1.877.752,3.056,3.056,0,0,1,.685,2.132V-2.4h-3.7a1.442,1.442,0,0,0,.454.913,1.372,1.372,0,0,0,.959.344,1.675,1.675,0,0,0,1.4-.65l.763.854a2.33,2.33,0,0,1-.945.771A3.1,3.1,0,0,1,18.4.107Zm-.177-4.77a.972.972,0,0,0-.749.312,1.609,1.609,0,0,0-.368.892h2.159v-.124a1.147,1.147,0,0,0-.279-.8A1,1,0,0,0,18.224-4.662ZM25.04,0a1.724,1.724,0,0,1-.156-.521,1.878,1.878,0,0,1-1.466.628A2.063,2.063,0,0,1,22-.387a1.589,1.589,0,0,1-.561-1.246,1.642,1.642,0,0,1,.685-1.418,3.379,3.379,0,0,1,1.979-.5h.714v-.333a.958.958,0,0,0-.207-.645.813.813,0,0,0-.653-.242.925.925,0,0,0-.615.188.639.639,0,0,0-.223.516H21.57A1.559,1.559,0,0,1,21.882-5a2.059,2.059,0,0,1,.881-.674,3.21,3.21,0,0,1,1.278-.244,2.536,2.536,0,0,1,1.705.54,1.888,1.888,0,0,1,.631,1.517v2.519a2.778,2.778,0,0,0,.231,1.251V0ZM23.756-1.08a1.337,1.337,0,0,0,.634-.153,1,1,0,0,0,.43-.411v-1h-.58q-1.166,0-1.241.806l-.005.091a.621.621,0,0,0,.2.478A.793.793,0,0,0,23.756-1.08ZM32.167-7.24v1.429h.994v1.139h-.994v2.9a.693.693,0,0,0,.124.462.62.62,0,0,0,.473.14,2.475,2.475,0,0,0,.457-.038V-.032a3.2,3.2,0,0,1-.94.14,1.482,1.482,0,0,1-1.665-1.649V-4.673h-.849V-5.812h.849V-7.24Zm1.617,4.281A3.447,3.447,0,0,1,34.117-4.5a2.438,2.438,0,0,1,.959-1.047,2.8,2.8,0,0,1,1.453-.371,2.646,2.646,0,0,1,1.92.72,2.889,2.889,0,0,1,.83,1.955l.011.4A3.038,3.038,0,0,1,38.543-.7a2.6,2.6,0,0,1-2,.808A2.608,2.608,0,0,1,34.533-.7a3.091,3.091,0,0,1-.749-2.191Zm1.552.113a2.166,2.166,0,0,0,.312,1.265,1.028,1.028,0,0,0,.892.438,1.031,1.031,0,0,0,.881-.432,2.371,2.371,0,0,0,.317-1.383,2.145,2.145,0,0,0-.317-1.257,1.031,1.031,0,0,0-.892-.446,1.014,1.014,0,0,0-.881.443A2.41,2.41,0,0,0,35.336-2.847Zm1.5-5.4h1.692L37.039-6.585H35.777Zm6.676,3.894a4.217,4.217,0,0,0-.559-.043,1.137,1.137,0,0,0-1.155.6V0H40.246V-5.812h1.466l.043.693a1.438,1.438,0,0,1,1.294-.8,1.626,1.626,0,0,1,.483.07ZM47.464,0a1.724,1.724,0,0,1-.156-.521,1.878,1.878,0,0,1-1.466.628,2.063,2.063,0,0,1-1.415-.494,1.589,1.589,0,0,1-.561-1.246,1.642,1.642,0,0,1,.685-1.418,3.379,3.379,0,0,1,1.979-.5h.714v-.333a.958.958,0,0,0-.207-.645.813.813,0,0,0-.653-.242.925.925,0,0,0-.615.188.639.639,0,0,0-.223.516H43.995A1.559,1.559,0,0,1,44.306-5a2.059,2.059,0,0,1,.881-.674,3.21,3.21,0,0,1,1.278-.244,2.536,2.536,0,0,1,1.705.54A1.888,1.888,0,0,1,48.8-3.862v2.519a2.778,2.778,0,0,0,.231,1.251V0ZM46.181-1.08a1.337,1.337,0,0,0,.634-.153,1,1,0,0,0,.43-.411v-1h-.58q-1.166,0-1.241.806l-.005.091a.621.621,0,0,0,.2.478A.793.793,0,0,0,46.181-1.08Zm6.026-3,.978-1.735h1.66L53.19-2.965,54.914,0H53.249L52.212-1.826,51.181,0h-1.67l1.724-2.965L49.586-5.812h1.665Z" transform="translate(376.97 20472.404)" fill="#0c1d2f"/>
    <path id="Trazado_881679" data-name="Trazado 881679" d="M2.31-1.294H5.731V0H.7V-7.82H2.31ZM8.229,0H6.676V-5.812H8.229ZM7.772-8.169H9.464L7.976-6.5H6.714Zm3.223,2.358.048.671a2.029,2.029,0,0,1,1.67-.779,1.686,1.686,0,0,1,1.375.542,2.531,2.531,0,0,1,.462,1.622V0H13V-3.717a1.007,1.007,0,0,0-.215-.717.962.962,0,0,0-.714-.223,1.068,1.068,0,0,0-.983.559V0H9.534V-5.812ZM18.4.107A2.853,2.853,0,0,1,16.32-.677a2.787,2.787,0,0,1-.8-2.089v-.15a3.511,3.511,0,0,1,.338-1.566,2.483,2.483,0,0,1,.959-1.063,2.691,2.691,0,0,1,1.415-.373,2.412,2.412,0,0,1,1.877.752,3.056,3.056,0,0,1,.685,2.132V-2.4h-3.7a1.442,1.442,0,0,0,.454.913,1.372,1.372,0,0,0,.959.344,1.675,1.675,0,0,0,1.4-.65l.763.854a2.33,2.33,0,0,1-.945.771A3.1,3.1,0,0,1,18.4.107Zm-.177-4.77a.972.972,0,0,0-.749.312,1.609,1.609,0,0,0-.368.892h2.159v-.124a1.147,1.147,0,0,0-.279-.8A1,1,0,0,0,18.224-4.662ZM25.04,0a1.724,1.724,0,0,1-.156-.521,1.878,1.878,0,0,1-1.466.628A2.063,2.063,0,0,1,22-.387a1.589,1.589,0,0,1-.561-1.246,1.642,1.642,0,0,1,.685-1.418,3.379,3.379,0,0,1,1.979-.5h.714v-.333a.958.958,0,0,0-.207-.645.813.813,0,0,0-.653-.242.925.925,0,0,0-.615.188.639.639,0,0,0-.223.516H21.57A1.559,1.559,0,0,1,21.882-5a2.059,2.059,0,0,1,.881-.674,3.21,3.21,0,0,1,1.278-.244,2.536,2.536,0,0,1,1.705.54,1.888,1.888,0,0,1,.631,1.517v2.519a2.778,2.778,0,0,0,.231,1.251V0ZM23.756-1.08a1.337,1.337,0,0,0,.634-.153,1,1,0,0,0,.43-.411v-1h-.58q-1.166,0-1.241.806l-.005.091a.621.621,0,0,0,.2.478A.793.793,0,0,0,23.756-1.08ZM32.167-7.24v1.429h.994v1.139h-.994v2.9a.693.693,0,0,0,.124.462.62.62,0,0,0,.473.14,2.475,2.475,0,0,0,.457-.038V-.032a3.2,3.2,0,0,1-.94.14,1.482,1.482,0,0,1-1.665-1.649V-4.673h-.849V-5.812h.849V-7.24Zm1.617,4.281A3.447,3.447,0,0,1,34.117-4.5a2.438,2.438,0,0,1,.959-1.047,2.8,2.8,0,0,1,1.453-.371,2.646,2.646,0,0,1,1.92.72,2.889,2.889,0,0,1,.83,1.955l.011.4A3.038,3.038,0,0,1,38.543-.7a2.6,2.6,0,0,1-2,.808A2.608,2.608,0,0,1,34.533-.7a3.091,3.091,0,0,1-.749-2.191Zm1.552.113a2.166,2.166,0,0,0,.312,1.265,1.028,1.028,0,0,0,.892.438,1.031,1.031,0,0,0,.881-.432,2.371,2.371,0,0,0,.317-1.383,2.145,2.145,0,0,0-.317-1.257,1.031,1.031,0,0,0-.892-.446,1.014,1.014,0,0,0-.881.443A2.41,2.41,0,0,0,35.336-2.847Zm1.5-5.4h1.692L37.039-6.585H35.777Zm6.676,3.894a4.217,4.217,0,0,0-.559-.043,1.137,1.137,0,0,0-1.155.6V0H40.246V-5.812h1.466l.043.693a1.438,1.438,0,0,1,1.294-.8,1.626,1.626,0,0,1,.483.07ZM47.464,0a1.724,1.724,0,0,1-.156-.521,1.878,1.878,0,0,1-1.466.628,2.063,2.063,0,0,1-1.415-.494,1.589,1.589,0,0,1-.561-1.246,1.642,1.642,0,0,1,.685-1.418,3.379,3.379,0,0,1,1.979-.5h.714v-.333a.958.958,0,0,0-.207-.645.813.813,0,0,0-.653-.242.925.925,0,0,0-.615.188.639.639,0,0,0-.223.516H43.995A1.559,1.559,0,0,1,44.306-5a2.059,2.059,0,0,1,.881-.674,3.21,3.21,0,0,1,1.278-.244,2.536,2.536,0,0,1,1.705.54A1.888,1.888,0,0,1,48.8-3.862v2.519a2.778,2.778,0,0,0,.231,1.251V0ZM46.181-1.08a1.337,1.337,0,0,0,.634-.153,1,1,0,0,0,.43-.411v-1h-.58q-1.166,0-1.241.806l-.005.091a.621.621,0,0,0,.2.478A.793.793,0,0,0,46.181-1.08Zm6.026-3,.978-1.735h1.66L53.19-2.965,54.914,0H53.249L52.212-1.826,51.181,0h-1.67l1.724-2.965L49.586-5.812h1.665Z" transform="translate(528.363 20472.404)" fill="#0c1d2f"/>
    <path id="Trazado_881680" data-name="Trazado 881680" d="M2.31-1.294H5.731V0H.7V-7.82H2.31ZM8.229,0H6.676V-5.812H8.229ZM7.772-8.169H9.464L7.976-6.5H6.714Zm3.223,2.358.048.671a2.029,2.029,0,0,1,1.67-.779,1.686,1.686,0,0,1,1.375.542,2.531,2.531,0,0,1,.462,1.622V0H13V-3.717a1.007,1.007,0,0,0-.215-.717.962.962,0,0,0-.714-.223,1.068,1.068,0,0,0-.983.559V0H9.534V-5.812ZM18.4.107A2.853,2.853,0,0,1,16.32-.677a2.787,2.787,0,0,1-.8-2.089v-.15a3.511,3.511,0,0,1,.338-1.566,2.483,2.483,0,0,1,.959-1.063,2.691,2.691,0,0,1,1.415-.373,2.412,2.412,0,0,1,1.877.752,3.056,3.056,0,0,1,.685,2.132V-2.4h-3.7a1.442,1.442,0,0,0,.454.913,1.372,1.372,0,0,0,.959.344,1.675,1.675,0,0,0,1.4-.65l.763.854a2.33,2.33,0,0,1-.945.771A3.1,3.1,0,0,1,18.4.107Zm-.177-4.77a.972.972,0,0,0-.749.312,1.609,1.609,0,0,0-.368.892h2.159v-.124a1.147,1.147,0,0,0-.279-.8A1,1,0,0,0,18.224-4.662ZM25.04,0a1.724,1.724,0,0,1-.156-.521,1.878,1.878,0,0,1-1.466.628A2.063,2.063,0,0,1,22-.387a1.589,1.589,0,0,1-.561-1.246,1.642,1.642,0,0,1,.685-1.418,3.379,3.379,0,0,1,1.979-.5h.714v-.333a.958.958,0,0,0-.207-.645.813.813,0,0,0-.653-.242.925.925,0,0,0-.615.188.639.639,0,0,0-.223.516H21.57A1.559,1.559,0,0,1,21.882-5a2.059,2.059,0,0,1,.881-.674,3.21,3.21,0,0,1,1.278-.244,2.536,2.536,0,0,1,1.705.54,1.888,1.888,0,0,1,.631,1.517v2.519a2.778,2.778,0,0,0,.231,1.251V0ZM23.756-1.08a1.337,1.337,0,0,0,.634-.153,1,1,0,0,0,.43-.411v-1h-.58q-1.166,0-1.241.806l-.005.091a.621.621,0,0,0,.2.478A.793.793,0,0,0,23.756-1.08ZM32.167-7.24v1.429h.994v1.139h-.994v2.9a.693.693,0,0,0,.124.462.62.62,0,0,0,.473.14,2.475,2.475,0,0,0,.457-.038V-.032a3.2,3.2,0,0,1-.94.14,1.482,1.482,0,0,1-1.665-1.649V-4.673h-.849V-5.812h.849V-7.24Zm1.617,4.281A3.447,3.447,0,0,1,34.117-4.5a2.438,2.438,0,0,1,.959-1.047,2.8,2.8,0,0,1,1.453-.371,2.646,2.646,0,0,1,1.92.72,2.889,2.889,0,0,1,.83,1.955l.011.4A3.038,3.038,0,0,1,38.543-.7a2.6,2.6,0,0,1-2,.808A2.608,2.608,0,0,1,34.533-.7a3.091,3.091,0,0,1-.749-2.191Zm1.552.113a2.166,2.166,0,0,0,.312,1.265,1.028,1.028,0,0,0,.892.438,1.031,1.031,0,0,0,.881-.432,2.371,2.371,0,0,0,.317-1.383,2.145,2.145,0,0,0-.317-1.257,1.031,1.031,0,0,0-.892-.446,1.014,1.014,0,0,0-.881.443A2.41,2.41,0,0,0,35.336-2.847Zm1.5-5.4h1.692L37.039-6.585H35.777Zm6.676,3.894a4.217,4.217,0,0,0-.559-.043,1.137,1.137,0,0,0-1.155.6V0H40.246V-5.812h1.466l.043.693a1.438,1.438,0,0,1,1.294-.8,1.626,1.626,0,0,1,.483.07ZM47.464,0a1.724,1.724,0,0,1-.156-.521,1.878,1.878,0,0,1-1.466.628,2.063,2.063,0,0,1-1.415-.494,1.589,1.589,0,0,1-.561-1.246,1.642,1.642,0,0,1,.685-1.418,3.379,3.379,0,0,1,1.979-.5h.714v-.333a.958.958,0,0,0-.207-.645.813.813,0,0,0-.653-.242.925.925,0,0,0-.615.188.639.639,0,0,0-.223.516H43.995A1.559,1.559,0,0,1,44.306-5a2.059,2.059,0,0,1,.881-.674,3.21,3.21,0,0,1,1.278-.244,2.536,2.536,0,0,1,1.705.54A1.888,1.888,0,0,1,48.8-3.862v2.519a2.778,2.778,0,0,0,.231,1.251V0ZM46.181-1.08a1.337,1.337,0,0,0,.634-.153,1,1,0,0,0,.43-.411v-1h-.58q-1.166,0-1.241.806l-.005.091a.621.621,0,0,0,.2.478A.793.793,0,0,0,46.181-1.08Zm6.026-3,.978-1.735h1.66L53.19-2.965,54.914,0H53.249L52.212-1.826,51.181,0h-1.67l1.724-2.965L49.586-5.812h1.665Z" transform="translate(619.112 20472.404)" fill="#0c1d2f"/>
    <path id="Trazado_881681" data-name="Trazado 881681" d="M2.31-1.294H5.731V0H.7V-7.82H2.31ZM8.229,0H6.676V-5.812H8.229ZM7.772-8.169H9.464L7.976-6.5H6.714Zm3.223,2.358.048.671a2.029,2.029,0,0,1,1.67-.779,1.686,1.686,0,0,1,1.375.542,2.531,2.531,0,0,1,.462,1.622V0H13V-3.717a1.007,1.007,0,0,0-.215-.717.962.962,0,0,0-.714-.223,1.068,1.068,0,0,0-.983.559V0H9.534V-5.812ZM18.4.107A2.853,2.853,0,0,1,16.32-.677a2.787,2.787,0,0,1-.8-2.089v-.15a3.511,3.511,0,0,1,.338-1.566,2.483,2.483,0,0,1,.959-1.063,2.691,2.691,0,0,1,1.415-.373,2.412,2.412,0,0,1,1.877.752,3.056,3.056,0,0,1,.685,2.132V-2.4h-3.7a1.442,1.442,0,0,0,.454.913,1.372,1.372,0,0,0,.959.344,1.675,1.675,0,0,0,1.4-.65l.763.854a2.33,2.33,0,0,1-.945.771A3.1,3.1,0,0,1,18.4.107Zm-.177-4.77a.972.972,0,0,0-.749.312,1.609,1.609,0,0,0-.368.892h2.159v-.124a1.147,1.147,0,0,0-.279-.8A1,1,0,0,0,18.224-4.662ZM25.04,0a1.724,1.724,0,0,1-.156-.521,1.878,1.878,0,0,1-1.466.628A2.063,2.063,0,0,1,22-.387a1.589,1.589,0,0,1-.561-1.246,1.642,1.642,0,0,1,.685-1.418,3.379,3.379,0,0,1,1.979-.5h.714v-.333a.958.958,0,0,0-.207-.645.813.813,0,0,0-.653-.242.925.925,0,0,0-.615.188.639.639,0,0,0-.223.516H21.57A1.559,1.559,0,0,1,21.882-5a2.059,2.059,0,0,1,.881-.674,3.21,3.21,0,0,1,1.278-.244,2.536,2.536,0,0,1,1.705.54,1.888,1.888,0,0,1,.631,1.517v2.519a2.778,2.778,0,0,0,.231,1.251V0ZM23.756-1.08a1.337,1.337,0,0,0,.634-.153,1,1,0,0,0,.43-.411v-1h-.58q-1.166,0-1.241.806l-.005.091a.621.621,0,0,0,.2.478A.793.793,0,0,0,23.756-1.08Zm8.97-.064a1.018,1.018,0,0,0,.7-.236.828.828,0,0,0,.279-.628h1.456a1.991,1.991,0,0,1-.322,1.082,2.126,2.126,0,0,1-.867.763,2.715,2.715,0,0,1-1.217.271,2.523,2.523,0,0,1-1.966-.792,3.135,3.135,0,0,1-.72-2.189v-.1a3.1,3.1,0,0,1,.714-2.143,2.494,2.494,0,0,1,1.96-.8,2.444,2.444,0,0,1,1.748.62,2.2,2.2,0,0,1,.669,1.652H33.7a1.058,1.058,0,0,0-.279-.733.934.934,0,0,0-.709-.282.935.935,0,0,0-.819.395,2.285,2.285,0,0,0-.277,1.281v.161a2.314,2.314,0,0,0,.274,1.289A.947.947,0,0,0,32.726-1.144ZM37.684,0H36.126V-5.812h1.558ZM36.035-7.315a.764.764,0,0,1,.234-.575.878.878,0,0,1,.636-.226.88.88,0,0,1,.634.226.76.76,0,0,1,.236.575.762.762,0,0,1-.239.58.882.882,0,0,1-.631.226.882.882,0,0,1-.631-.226A.762.762,0,0,1,36.035-7.315Zm4.356,1.5.048.671a2.029,2.029,0,0,1,1.67-.779,1.686,1.686,0,0,1,1.375.542,2.531,2.531,0,0,1,.462,1.622V0H42.394V-3.717a1.007,1.007,0,0,0-.215-.717.962.962,0,0,0-.714-.223,1.068,1.068,0,0,0-.983.559V0H38.93V-5.812Zm6.59-1.429v1.429h.994v1.139h-.994v2.9a.693.693,0,0,0,.124.462.62.62,0,0,0,.473.14,2.475,2.475,0,0,0,.457-.038V-.032a3.2,3.2,0,0,1-.94.14,1.482,1.482,0,0,1-1.665-1.649V-4.673H44.58V-5.812h.849V-7.24ZM52.32-.591a1.947,1.947,0,0,1-1.59.7A1.836,1.836,0,0,1,49.3-.43,2.293,2.293,0,0,1,48.8-2V-5.812h1.552v3.754q0,.908.827.908A1.121,1.121,0,0,0,52.266-1.7V-5.812h1.558V0H52.363Zm5.94-3.765A4.217,4.217,0,0,0,57.7-4.4a1.137,1.137,0,0,0-1.155.6V0H54.995V-5.812h1.466l.043.693a1.438,1.438,0,0,1,1.294-.8,1.626,1.626,0,0,1,.483.07ZM62.213,0a1.724,1.724,0,0,1-.156-.521,1.878,1.878,0,0,1-1.466.628,2.063,2.063,0,0,1-1.415-.494,1.589,1.589,0,0,1-.561-1.246A1.642,1.642,0,0,1,59.3-3.051a3.379,3.379,0,0,1,1.979-.5h.714v-.333a.958.958,0,0,0-.207-.645.813.813,0,0,0-.653-.242.925.925,0,0,0-.615.188.639.639,0,0,0-.223.516H58.744A1.559,1.559,0,0,1,59.055-5a2.059,2.059,0,0,1,.881-.674,3.21,3.21,0,0,1,1.278-.244,2.536,2.536,0,0,1,1.705.54,1.888,1.888,0,0,1,.631,1.517v2.519a2.778,2.778,0,0,0,.231,1.251V0ZM60.93-1.08a1.337,1.337,0,0,0,.634-.153,1,1,0,0,0,.43-.411v-1h-.58q-1.166,0-1.241.806l-.005.091a.621.621,0,0,0,.2.478A.793.793,0,0,0,60.93-1.08Z" transform="translate(382.987 20555.736)" fill="#0c1d2f"/>
    <path id="Trazado_881682" data-name="Trazado 881682" d="M1.079,0V-12.086H4.8a5.647,5.647,0,0,1,2.851.718A5.007,5.007,0,0,1,9.612-9.326a6.3,6.3,0,0,1,.706,3.009v.556a6.316,6.316,0,0,1-.693,3A4.964,4.964,0,0,1,7.67-.73,5.69,5.69,0,0,1,4.823,0Zm2.49-10.069V-2h1.2a2.7,2.7,0,0,0,2.233-.955,4.314,4.314,0,0,0,.789-2.731v-.639a4.382,4.382,0,0,0-.764-2.793,2.7,2.7,0,0,0-2.233-.95ZM16.1.166a4.409,4.409,0,0,1-3.217-1.212,4.308,4.308,0,0,1-1.241-3.229v-.232a5.426,5.426,0,0,1,.523-2.42,3.838,3.838,0,0,1,1.482-1.644,4.159,4.159,0,0,1,2.187-.577,3.727,3.727,0,0,1,2.9,1.162A4.722,4.722,0,0,1,19.8-4.69v.979H14.078a2.229,2.229,0,0,0,.7,1.411,2.12,2.12,0,0,0,1.482.531,2.589,2.589,0,0,0,2.167-1l1.179,1.32A3.6,3.6,0,0,1,18.146-.261,4.793,4.793,0,0,1,16.1.166ZM15.83-7.205a1.5,1.5,0,0,0-1.158.481A2.487,2.487,0,0,0,14.1-5.346H17.44v-.191a1.773,1.773,0,0,0-.432-1.233A1.55,1.55,0,0,0,15.83-7.205ZM23.69,0H21.283V-12.75H23.69Zm7.18,0a2.664,2.664,0,0,1-.241-.805,2.9,2.9,0,0,1-2.266.971A3.189,3.189,0,0,1,26.177-.6a2.456,2.456,0,0,1-.867-1.926,2.538,2.538,0,0,1,1.058-2.191,5.222,5.222,0,0,1,3.059-.772h1.1V-6a1.48,1.48,0,0,0-.32-1A1.257,1.257,0,0,0,29.2-7.371a1.429,1.429,0,0,0-.95.291.987.987,0,0,0-.344.8h-2.4a2.41,2.41,0,0,1,.481-1.444A3.182,3.182,0,0,1,27.351-8.77a4.961,4.961,0,0,1,1.976-.378,3.92,3.92,0,0,1,2.635.834,2.918,2.918,0,0,1,.975,2.345v3.893a4.294,4.294,0,0,0,.357,1.934V0ZM28.887-1.668a2.066,2.066,0,0,0,.979-.237,1.554,1.554,0,0,0,.664-.635V-4.084h-.9q-1.8,0-1.917,1.245l-.008.141a.96.96,0,0,0,.315.739A1.225,1.225,0,0,0,28.887-1.668Zm8.1-7.313.075,1.038a3.136,3.136,0,0,1,2.582-1.2,2.606,2.606,0,0,1,2.125.838A3.912,3.912,0,0,1,42.483-5.8V0h-2.4V-5.744a1.556,1.556,0,0,0-.332-1.108,1.486,1.486,0,0,0-1.1-.344,1.65,1.65,0,0,0-1.519.863V0h-2.4V-8.981Zm10.185-2.208v2.208h1.536v1.76H47.173v4.482a1.07,1.07,0,0,0,.191.714.959.959,0,0,0,.73.216,3.826,3.826,0,0,0,.706-.058V-.05a4.939,4.939,0,0,1-1.453.216,2.29,2.29,0,0,1-2.573-2.548V-7.222H43.463v-1.76h1.312v-2.208ZM54.179.166a4.409,4.409,0,0,1-3.217-1.212,4.308,4.308,0,0,1-1.241-3.229v-.232a5.426,5.426,0,0,1,.523-2.42,3.838,3.838,0,0,1,1.482-1.644,4.159,4.159,0,0,1,2.187-.577,3.727,3.727,0,0,1,2.9,1.162,4.722,4.722,0,0,1,1.058,3.3v.979H52.154a2.229,2.229,0,0,0,.7,1.411,2.12,2.12,0,0,0,1.482.531,2.589,2.589,0,0,0,2.167-1l1.179,1.32A3.6,3.6,0,0,1,56.221-.261,4.793,4.793,0,0,1,54.179.166Zm-.274-7.371a1.5,1.5,0,0,0-1.158.481,2.487,2.487,0,0,0-.569,1.378h3.337v-.191a1.773,1.773,0,0,0-.432-1.233A1.55,1.55,0,0,0,53.905-7.205Zm10.376.473a6.517,6.517,0,0,0-.863-.066,1.757,1.757,0,0,0-1.785.921V0h-2.4V-8.981H61.5l.066,1.071a2.223,2.223,0,0,1,2-1.237,2.514,2.514,0,0,1,.747.108Zm.328,2.158a5.326,5.326,0,0,1,.515-2.382,3.768,3.768,0,0,1,1.482-1.619,4.323,4.323,0,0,1,2.245-.573,4.09,4.09,0,0,1,2.968,1.112A4.464,4.464,0,0,1,73.1-5.014l.017.614a4.694,4.694,0,0,1-1.154,3.316,4.011,4.011,0,0,1-3.1,1.249,4.031,4.031,0,0,1-3.1-1.245A4.777,4.777,0,0,1,64.61-4.466Zm2.4.174a3.348,3.348,0,0,0,.481,1.955,1.589,1.589,0,0,0,1.378.677,1.593,1.593,0,0,0,1.361-.668,3.664,3.664,0,0,0,.49-2.137,3.315,3.315,0,0,0-.49-1.942,1.593,1.593,0,0,0-1.378-.689,1.567,1.567,0,0,0-1.361.685A3.725,3.725,0,0,0,67.009-4.4Z" transform="translate(325.3 20590.711)" fill="#0c1d2f"/>
    <path id="Trazado_881683" data-name="Trazado 881683" d="M3.569-2H8.857V0H1.079V-12.086h2.49Zm9.147,2h-2.4V-8.981h2.4Zm-.706-12.625h2.615l-2.3,2.573H10.376Zm4.98,3.644.075,1.038a3.136,3.136,0,0,1,2.582-1.2,2.606,2.606,0,0,1,2.125.838A3.912,3.912,0,0,1,22.487-5.8V0h-2.4V-5.744a1.556,1.556,0,0,0-.332-1.108,1.486,1.486,0,0,0-1.1-.344,1.65,1.65,0,0,0-1.519.863V0h-2.4V-8.981ZM28.438.166a4.409,4.409,0,0,1-3.217-1.212,4.308,4.308,0,0,1-1.241-3.229v-.232a5.426,5.426,0,0,1,.523-2.42,3.838,3.838,0,0,1,1.482-1.644,4.159,4.159,0,0,1,2.187-.577,3.727,3.727,0,0,1,2.9,1.162,4.722,4.722,0,0,1,1.058,3.3v.979H26.413a2.229,2.229,0,0,0,.7,1.411,2.12,2.12,0,0,0,1.482.531,2.589,2.589,0,0,0,2.167-1l1.179,1.32A3.6,3.6,0,0,1,30.48-.261,4.793,4.793,0,0,1,28.438.166Zm-.274-7.371a1.5,1.5,0,0,0-1.158.481,2.487,2.487,0,0,0-.569,1.378h3.337v-.191a1.773,1.773,0,0,0-.432-1.233A1.55,1.55,0,0,0,28.165-7.205ZM38.7,0a2.664,2.664,0,0,1-.241-.805,2.9,2.9,0,0,1-2.266.971A3.189,3.189,0,0,1,34-.6a2.456,2.456,0,0,1-.867-1.926A2.538,2.538,0,0,1,34.2-4.715a5.222,5.222,0,0,1,3.059-.772h1.1V-6a1.48,1.48,0,0,0-.32-1,1.257,1.257,0,0,0-1.009-.374,1.429,1.429,0,0,0-.95.291.987.987,0,0,0-.344.8h-2.4a2.41,2.41,0,0,1,.481-1.444A3.182,3.182,0,0,1,35.179-8.77a4.961,4.961,0,0,1,1.976-.378,3.92,3.92,0,0,1,2.635.834,2.918,2.918,0,0,1,.975,2.345v3.893a4.294,4.294,0,0,0,.357,1.934V0ZM36.714-1.668a2.066,2.066,0,0,0,.979-.237,1.554,1.554,0,0,0,.664-.635V-4.084h-.9q-1.8,0-1.917,1.245l-.008.141a.96.96,0,0,0,.315.739A1.225,1.225,0,0,0,36.714-1.668ZM71.868-4.408a5.439,5.439,0,0,1-.921,3.366A3.052,3.052,0,0,1,68.374.166,2.8,2.8,0,0,1,66.041-.955L65.933,0H63.775V-12.75h2.4v4.574a2.732,2.732,0,0,1,2.183-.971A3.077,3.077,0,0,1,70.934-7.94a5.446,5.446,0,0,1,.934,3.4Zm-2.4-.174a3.573,3.573,0,0,0-.432-1.988A1.46,1.46,0,0,0,67.751-7.2a1.582,1.582,0,0,0-1.577.938v3.544a1.6,1.6,0,0,0,1.594.946,1.481,1.481,0,0,0,1.527-1.146A5.909,5.909,0,0,0,69.469-4.582ZM78.55,0a2.664,2.664,0,0,1-.241-.805,2.9,2.9,0,0,1-2.266.971A3.189,3.189,0,0,1,73.856-.6a2.456,2.456,0,0,1-.867-1.926,2.538,2.538,0,0,1,1.058-2.191,5.222,5.222,0,0,1,3.059-.772h1.1V-6a1.48,1.48,0,0,0-.32-1,1.257,1.257,0,0,0-1.009-.374,1.429,1.429,0,0,0-.95.291.987.987,0,0,0-.344.8h-2.4a2.41,2.41,0,0,1,.481-1.444A3.182,3.182,0,0,1,75.031-8.77a4.961,4.961,0,0,1,1.976-.378,3.92,3.92,0,0,1,2.635.834,2.918,2.918,0,0,1,.975,2.345v3.893a4.294,4.294,0,0,0,.357,1.934V0ZM76.566-1.668a2.066,2.066,0,0,0,.979-.237,1.554,1.554,0,0,0,.664-.635V-4.084h-.9q-1.8,0-1.917,1.245l-.008.141a.96.96,0,0,0,.315.739A1.225,1.225,0,0,0,76.566-1.668ZM85-8.981V.49A3.213,3.213,0,0,1,84.211,2.8a3,3,0,0,1-2.274.826,4.878,4.878,0,0,1-1.187-.141v-1.9a4.5,4.5,0,0,0,.755.075q1.087,0,1.087-1.154V-8.981Zm-2.6-2.324a1.181,1.181,0,0,1,.361-.888,1.356,1.356,0,0,1,.984-.349,1.356,1.356,0,0,1,.984.349,1.181,1.181,0,0,1,.361.888,1.178,1.178,0,0,1-.369.9,1.363,1.363,0,0,1-.975.349,1.363,1.363,0,0,1-.975-.349A1.178,1.178,0,0,1,82.4-11.306Zm4.1,6.732a5.326,5.326,0,0,1,.515-2.382A3.768,3.768,0,0,1,88.5-8.575a4.323,4.323,0,0,1,2.245-.573,4.09,4.09,0,0,1,2.968,1.112,4.464,4.464,0,0,1,1.282,3.021l.017.614a4.694,4.694,0,0,1-1.154,3.316,4.011,4.011,0,0,1-3.1,1.249,4.031,4.031,0,0,1-3.1-1.245A4.777,4.777,0,0,1,86.5-4.466Zm2.4.174a3.348,3.348,0,0,0,.481,1.955,1.589,1.589,0,0,0,1.378.677,1.593,1.593,0,0,0,1.361-.668,3.664,3.664,0,0,0,.49-2.137,3.315,3.315,0,0,0-.49-1.942,1.593,1.593,0,0,0-1.378-.689,1.567,1.567,0,0,0-1.361.685A3.725,3.725,0,0,0,88.9-4.4Zm12.451,1.917a.773.773,0,0,0-.436-.693,4.95,4.95,0,0,0-1.4-.452q-3.2-.672-3.2-2.723a2.468,2.468,0,0,1,.992-2,4,4,0,0,1,2.594-.8,4.307,4.307,0,0,1,2.735.805A2.538,2.538,0,0,1,103.66-6.25h-2.4a1.161,1.161,0,0,0-.332-.851,1.405,1.405,0,0,0-1.038-.336,1.436,1.436,0,0,0-.938.274.865.865,0,0,0-.332.7A.739.739,0,0,0,99-5.823a3.885,3.885,0,0,0,1.274.423,10.407,10.407,0,0,1,1.511.4,2.482,2.482,0,0,1,1.9,2.416,2.343,2.343,0,0,1-1.054,1.988,4.548,4.548,0,0,1-2.723.76,4.75,4.75,0,0,1-2-.4,3.363,3.363,0,0,1-1.374-1.1,2.565,2.565,0,0,1-.5-1.515h2.274a1.252,1.252,0,0,0,.473.979,1.877,1.877,0,0,0,1.179.34A1.737,1.737,0,0,0,101-1.8.814.814,0,0,0,101.353-2.482Z" transform="translate(309.985 20644.859)" fill="#0c1d2f"/>
    <path id="Trazado_881684" data-name="Trazado 881684" d="M3.569-2H8.857V0H1.079V-12.086h2.49Zm9.147,2h-2.4V-8.981h2.4Zm-.706-12.625h2.615l-2.3,2.573H10.376Zm4.98,3.644.075,1.038a3.136,3.136,0,0,1,2.582-1.2,2.606,2.606,0,0,1,2.125.838A3.912,3.912,0,0,1,22.487-5.8V0h-2.4V-5.744a1.556,1.556,0,0,0-.332-1.108,1.486,1.486,0,0,0-1.1-.344,1.65,1.65,0,0,0-1.519.863V0h-2.4V-8.981ZM28.438.166a4.409,4.409,0,0,1-3.217-1.212,4.308,4.308,0,0,1-1.241-3.229v-.232a5.426,5.426,0,0,1,.523-2.42,3.838,3.838,0,0,1,1.482-1.644,4.159,4.159,0,0,1,2.187-.577,3.727,3.727,0,0,1,2.9,1.162,4.722,4.722,0,0,1,1.058,3.3v.979H26.413a2.229,2.229,0,0,0,.7,1.411,2.12,2.12,0,0,0,1.482.531,2.589,2.589,0,0,0,2.167-1l1.179,1.32A3.6,3.6,0,0,1,30.48-.261,4.793,4.793,0,0,1,28.438.166Zm-.274-7.371a1.5,1.5,0,0,0-1.158.481,2.487,2.487,0,0,0-.569,1.378h3.337v-.191a1.773,1.773,0,0,0-.432-1.233A1.55,1.55,0,0,0,28.165-7.205ZM38.7,0a2.664,2.664,0,0,1-.241-.805,2.9,2.9,0,0,1-2.266.971A3.189,3.189,0,0,1,34-.6a2.456,2.456,0,0,1-.867-1.926A2.538,2.538,0,0,1,34.2-4.715a5.222,5.222,0,0,1,3.059-.772h1.1V-6a1.48,1.48,0,0,0-.32-1,1.257,1.257,0,0,0-1.009-.374,1.429,1.429,0,0,0-.95.291.987.987,0,0,0-.344.8h-2.4a2.41,2.41,0,0,1,.481-1.444A3.182,3.182,0,0,1,35.179-8.77a4.961,4.961,0,0,1,1.976-.378,3.92,3.92,0,0,1,2.635.834,2.918,2.918,0,0,1,.975,2.345v3.893a4.294,4.294,0,0,0,.357,1.934V0ZM36.714-1.668a2.066,2.066,0,0,0,.979-.237,1.554,1.554,0,0,0,.664-.635V-4.084h-.9q-1.8,0-1.917,1.245l-.008.141a.96.96,0,0,0,.315.739A1.225,1.225,0,0,0,36.714-1.668ZM71.868-4.408a5.439,5.439,0,0,1-.921,3.366A3.052,3.052,0,0,1,68.374.166,2.8,2.8,0,0,1,66.041-.955L65.933,0H63.775V-12.75h2.4v4.574a2.732,2.732,0,0,1,2.183-.971A3.077,3.077,0,0,1,70.934-7.94a5.446,5.446,0,0,1,.934,3.4Zm-2.4-.174a3.573,3.573,0,0,0-.432-1.988A1.46,1.46,0,0,0,67.751-7.2a1.582,1.582,0,0,0-1.577.938v3.544a1.6,1.6,0,0,0,1.594.946,1.481,1.481,0,0,0,1.527-1.146A5.909,5.909,0,0,0,69.469-4.582ZM78.55,0a2.664,2.664,0,0,1-.241-.805,2.9,2.9,0,0,1-2.266.971A3.189,3.189,0,0,1,73.856-.6a2.456,2.456,0,0,1-.867-1.926,2.538,2.538,0,0,1,1.058-2.191,5.222,5.222,0,0,1,3.059-.772h1.1V-6a1.48,1.48,0,0,0-.32-1,1.257,1.257,0,0,0-1.009-.374,1.429,1.429,0,0,0-.95.291.987.987,0,0,0-.344.8h-2.4a2.41,2.41,0,0,1,.481-1.444A3.182,3.182,0,0,1,75.031-8.77a4.961,4.961,0,0,1,1.976-.378,3.92,3.92,0,0,1,2.635.834,2.918,2.918,0,0,1,.975,2.345v3.893a4.294,4.294,0,0,0,.357,1.934V0ZM76.566-1.668a2.066,2.066,0,0,0,.979-.237,1.554,1.554,0,0,0,.664-.635V-4.084h-.9q-1.8,0-1.917,1.245l-.008.141a.96.96,0,0,0,.315.739A1.225,1.225,0,0,0,76.566-1.668ZM85-8.981V.49A3.213,3.213,0,0,1,84.211,2.8a3,3,0,0,1-2.274.826,4.878,4.878,0,0,1-1.187-.141v-1.9a4.5,4.5,0,0,0,.755.075q1.087,0,1.087-1.154V-8.981Zm-2.6-2.324a1.181,1.181,0,0,1,.361-.888,1.356,1.356,0,0,1,.984-.349,1.356,1.356,0,0,1,.984.349,1.181,1.181,0,0,1,.361.888,1.178,1.178,0,0,1-.369.9,1.363,1.363,0,0,1-.975.349,1.363,1.363,0,0,1-.975-.349A1.178,1.178,0,0,1,82.4-11.306Zm4.1,6.732a5.326,5.326,0,0,1,.515-2.382A3.768,3.768,0,0,1,88.5-8.575a4.323,4.323,0,0,1,2.245-.573,4.09,4.09,0,0,1,2.968,1.112,4.464,4.464,0,0,1,1.282,3.021l.017.614a4.694,4.694,0,0,1-1.154,3.316,4.011,4.011,0,0,1-3.1,1.249,4.031,4.031,0,0,1-3.1-1.245A4.777,4.777,0,0,1,86.5-4.466Zm2.4.174a3.348,3.348,0,0,0,.481,1.955,1.589,1.589,0,0,0,1.378.677,1.593,1.593,0,0,0,1.361-.668,3.664,3.664,0,0,0,.49-2.137,3.315,3.315,0,0,0-.49-1.942,1.593,1.593,0,0,0-1.378-.689,1.567,1.567,0,0,0-1.361.685A3.725,3.725,0,0,0,88.9-4.4Zm12.451,1.917a.773.773,0,0,0-.436-.693,4.95,4.95,0,0,0-1.4-.452q-3.2-.672-3.2-2.723a2.468,2.468,0,0,1,.992-2,4,4,0,0,1,2.594-.8,4.307,4.307,0,0,1,2.735.805A2.538,2.538,0,0,1,103.66-6.25h-2.4a1.161,1.161,0,0,0-.332-.851,1.405,1.405,0,0,0-1.038-.336,1.436,1.436,0,0,0-.938.274.865.865,0,0,0-.332.7A.739.739,0,0,0,99-5.823a3.885,3.885,0,0,0,1.274.423,10.407,10.407,0,0,1,1.511.4,2.482,2.482,0,0,1,1.9,2.416,2.343,2.343,0,0,1-1.054,1.988,4.548,4.548,0,0,1-2.723.76,4.75,4.75,0,0,1-2-.4,3.363,3.363,0,0,1-1.374-1.1,2.565,2.565,0,0,1-.5-1.515h2.274a1.252,1.252,0,0,0,.473.979,1.877,1.877,0,0,0,1.179.34A1.737,1.737,0,0,0,101-1.8.814.814,0,0,0,101.353-2.482Z" transform="translate(548.876 20644.859)" fill="#0c1d2f"/>
    <path id="Trazado_881685" data-name="Trazado 881685" d="M10.177-10.069h-3.7V0H3.984V-10.069H.332v-2.017h9.845Zm5.242,3.337a6.517,6.517,0,0,0-.863-.066,1.757,1.757,0,0,0-1.785.921V0h-2.4V-8.981h2.266L12.7-7.911a2.223,2.223,0,0,1,2-1.237,2.514,2.514,0,0,1,.747.108ZM21.528,0a2.664,2.664,0,0,1-.241-.805,2.9,2.9,0,0,1-2.266.971A3.189,3.189,0,0,1,16.834-.6a2.456,2.456,0,0,1-.867-1.926,2.538,2.538,0,0,1,1.058-2.191,5.222,5.222,0,0,1,3.059-.772h1.1V-6a1.48,1.48,0,0,0-.32-1,1.257,1.257,0,0,0-1.009-.374,1.429,1.429,0,0,0-.95.291.987.987,0,0,0-.344.8h-2.4a2.41,2.41,0,0,1,.481-1.444A3.182,3.182,0,0,1,18.009-8.77a4.961,4.961,0,0,1,1.976-.378,3.92,3.92,0,0,1,2.635.834A2.918,2.918,0,0,1,23.6-5.968v3.893a4.294,4.294,0,0,0,.357,1.934V0ZM19.544-1.668a2.066,2.066,0,0,0,.979-.237,1.554,1.554,0,0,0,.664-.635V-4.084h-.9q-1.8,0-1.917,1.245l-.008.141a.96.96,0,0,0,.315.739A1.225,1.225,0,0,0,19.544-1.668ZM30.3-2.482a.773.773,0,0,0-.436-.693,4.95,4.95,0,0,0-1.4-.452q-3.2-.672-3.2-2.723a2.468,2.468,0,0,1,.992-2,4,4,0,0,1,2.594-.8,4.307,4.307,0,0,1,2.735.805A2.538,2.538,0,0,1,32.61-6.25h-2.4a1.161,1.161,0,0,0-.332-.851,1.405,1.405,0,0,0-1.038-.336,1.436,1.436,0,0,0-.938.274.865.865,0,0,0-.332.7.739.739,0,0,0,.378.643,3.885,3.885,0,0,0,1.274.423,10.407,10.407,0,0,1,1.511.4,2.482,2.482,0,0,1,1.9,2.416A2.343,2.343,0,0,1,31.58-.594a4.548,4.548,0,0,1-2.723.76,4.75,4.75,0,0,1-2-.4,3.363,3.363,0,0,1-1.374-1.1,2.565,2.565,0,0,1-.5-1.515h2.274a1.252,1.252,0,0,0,.473.979,1.877,1.877,0,0,0,1.179.34A1.737,1.737,0,0,0,29.949-1.8.814.814,0,0,0,30.3-2.482ZM38.312.166A4.409,4.409,0,0,1,35.1-1.046a4.308,4.308,0,0,1-1.241-3.229v-.232a5.426,5.426,0,0,1,.523-2.42,3.838,3.838,0,0,1,1.482-1.644,4.159,4.159,0,0,1,2.187-.577,3.727,3.727,0,0,1,2.9,1.162,4.722,4.722,0,0,1,1.058,3.3v.979H36.287a2.229,2.229,0,0,0,.7,1.411,2.12,2.12,0,0,0,1.482.531,2.589,2.589,0,0,0,2.167-1l1.179,1.32A3.6,3.6,0,0,1,40.354-.261,4.793,4.793,0,0,1,38.312.166Zm-.274-7.371a1.5,1.5,0,0,0-1.158.481,2.487,2.487,0,0,0-.569,1.378h3.337v-.191a1.773,1.773,0,0,0-.432-1.233A1.55,1.55,0,0,0,38.038-7.205Zm10.376.473a6.517,6.517,0,0,0-.863-.066,1.757,1.757,0,0,0-1.785.921V0h-2.4V-8.981h2.266L45.7-7.911a2.223,2.223,0,0,1,2-1.237,2.514,2.514,0,0,1,.747.108ZM54.524,0a2.664,2.664,0,0,1-.241-.805,2.9,2.9,0,0,1-2.266.971A3.189,3.189,0,0,1,49.83-.6a2.456,2.456,0,0,1-.867-1.926,2.538,2.538,0,0,1,1.058-2.191,5.222,5.222,0,0,1,3.059-.772h1.1V-6a1.48,1.48,0,0,0-.32-1,1.257,1.257,0,0,0-1.009-.374,1.429,1.429,0,0,0-.95.291.987.987,0,0,0-.344.8h-2.4a2.41,2.41,0,0,1,.481-1.444A3.182,3.182,0,0,1,51-8.77a4.961,4.961,0,0,1,1.976-.378,3.92,3.92,0,0,1,2.635.834,2.918,2.918,0,0,1,.975,2.345v3.893a4.294,4.294,0,0,0,.357,1.934V0ZM52.54-1.668a2.066,2.066,0,0,0,.979-.237,1.554,1.554,0,0,0,.664-.635V-4.084h-.9q-1.8,0-1.917,1.245l-.008.141a.96.96,0,0,0,.315.739A1.225,1.225,0,0,0,52.54-1.668Z" transform="translate(579.471 20590.711)" fill="#0c1d2f"/>
    <path id="Trazado_881686" data-name="Trazado 881686" d="M2.31-1.294H5.731V0H.7V-7.82H2.31ZM8.229,0H6.676V-5.812H8.229ZM7.772-8.169H9.464L7.976-6.5H6.714Zm3.223,2.358.048.671a2.029,2.029,0,0,1,1.67-.779,1.686,1.686,0,0,1,1.375.542,2.531,2.531,0,0,1,.462,1.622V0H13V-3.717a1.007,1.007,0,0,0-.215-.717.962.962,0,0,0-.714-.223,1.068,1.068,0,0,0-.983.559V0H9.534V-5.812ZM18.4.107A2.853,2.853,0,0,1,16.32-.677a2.787,2.787,0,0,1-.8-2.089v-.15a3.511,3.511,0,0,1,.338-1.566,2.483,2.483,0,0,1,.959-1.063,2.691,2.691,0,0,1,1.415-.373,2.412,2.412,0,0,1,1.877.752,3.056,3.056,0,0,1,.685,2.132V-2.4h-3.7a1.442,1.442,0,0,0,.454.913,1.372,1.372,0,0,0,.959.344,1.675,1.675,0,0,0,1.4-.65l.763.854a2.33,2.33,0,0,1-.945.771A3.1,3.1,0,0,1,18.4.107Zm-.177-4.77a.972.972,0,0,0-.749.312,1.609,1.609,0,0,0-.368.892h2.159v-.124a1.147,1.147,0,0,0-.279-.8A1,1,0,0,0,18.224-4.662ZM25.04,0a1.724,1.724,0,0,1-.156-.521,1.878,1.878,0,0,1-1.466.628A2.063,2.063,0,0,1,22-.387a1.589,1.589,0,0,1-.561-1.246,1.642,1.642,0,0,1,.685-1.418,3.379,3.379,0,0,1,1.979-.5h.714v-.333a.958.958,0,0,0-.207-.645.813.813,0,0,0-.653-.242.925.925,0,0,0-.615.188.639.639,0,0,0-.223.516H21.57A1.559,1.559,0,0,1,21.882-5a2.059,2.059,0,0,1,.881-.674,3.21,3.21,0,0,1,1.278-.244,2.536,2.536,0,0,1,1.705.54,1.888,1.888,0,0,1,.631,1.517v2.519a2.778,2.778,0,0,0,.231,1.251V0ZM23.756-1.08a1.337,1.337,0,0,0,.634-.153,1,1,0,0,0,.43-.411v-1h-.58q-1.166,0-1.241.806l-.005.091a.621.621,0,0,0,.2.478A.793.793,0,0,0,23.756-1.08Zm8.97-.064a1.018,1.018,0,0,0,.7-.236.828.828,0,0,0,.279-.628h1.456a1.991,1.991,0,0,1-.322,1.082,2.126,2.126,0,0,1-.867.763,2.715,2.715,0,0,1-1.217.271,2.523,2.523,0,0,1-1.966-.792,3.135,3.135,0,0,1-.72-2.189v-.1a3.1,3.1,0,0,1,.714-2.143,2.494,2.494,0,0,1,1.96-.8,2.444,2.444,0,0,1,1.748.62,2.2,2.2,0,0,1,.669,1.652H33.7a1.058,1.058,0,0,0-.279-.733.934.934,0,0,0-.709-.282.935.935,0,0,0-.819.395,2.285,2.285,0,0,0-.277,1.281v.161a2.314,2.314,0,0,0,.274,1.289A.947.947,0,0,0,32.726-1.144ZM37.684,0H36.126V-5.812h1.558ZM36.035-7.315a.764.764,0,0,1,.234-.575.878.878,0,0,1,.636-.226.88.88,0,0,1,.634.226.76.76,0,0,1,.236.575.762.762,0,0,1-.239.58.882.882,0,0,1-.631.226.882.882,0,0,1-.631-.226A.762.762,0,0,1,36.035-7.315Zm4.356,1.5.048.671a2.029,2.029,0,0,1,1.67-.779,1.686,1.686,0,0,1,1.375.542,2.531,2.531,0,0,1,.462,1.622V0H42.394V-3.717a1.007,1.007,0,0,0-.215-.717.962.962,0,0,0-.714-.223,1.068,1.068,0,0,0-.983.559V0H38.93V-5.812Zm6.59-1.429v1.429h.994v1.139h-.994v2.9a.693.693,0,0,0,.124.462.62.62,0,0,0,.473.14,2.475,2.475,0,0,0,.457-.038V-.032a3.2,3.2,0,0,1-.94.14,1.482,1.482,0,0,1-1.665-1.649V-4.673H44.58V-5.812h.849V-7.24ZM52.32-.591a1.947,1.947,0,0,1-1.59.7A1.836,1.836,0,0,1,49.3-.43,2.293,2.293,0,0,1,48.8-2V-5.812h1.552v3.754q0,.908.827.908A1.121,1.121,0,0,0,52.266-1.7V-5.812h1.558V0H52.363Zm5.94-3.765A4.217,4.217,0,0,0,57.7-4.4a1.137,1.137,0,0,0-1.155.6V0H54.995V-5.812h1.466l.043.693a1.438,1.438,0,0,1,1.294-.8,1.626,1.626,0,0,1,.483.07ZM62.213,0a1.724,1.724,0,0,1-.156-.521,1.878,1.878,0,0,1-1.466.628,2.063,2.063,0,0,1-1.415-.494,1.589,1.589,0,0,1-.561-1.246A1.642,1.642,0,0,1,59.3-3.051a3.379,3.379,0,0,1,1.979-.5h.714v-.333a.958.958,0,0,0-.207-.645.813.813,0,0,0-.653-.242.925.925,0,0,0-.615.188.639.639,0,0,0-.223.516H58.744A1.559,1.559,0,0,1,59.055-5a2.059,2.059,0,0,1,.881-.674,3.21,3.21,0,0,1,1.278-.244,2.536,2.536,0,0,1,1.705.54,1.888,1.888,0,0,1,.631,1.517v2.519a2.778,2.778,0,0,0,.231,1.251V0ZM60.93-1.08a1.337,1.337,0,0,0,.634-.153,1,1,0,0,0,.43-.411v-1h-.58q-1.166,0-1.241.806l-.005.091a.621.621,0,0,0,.2.478A.793.793,0,0,0,60.93-1.08Z" transform="translate(504.748 20555.74)" fill="#0c1d2f"/>
    <path id="Trazado_881687" data-name="Trazado 881687" d="M2.31-1.294H5.731V0H.7V-7.82H2.31ZM8.229,0H6.676V-5.812H8.229ZM7.772-8.169H9.464L7.976-6.5H6.714Zm3.223,2.358.048.671a2.029,2.029,0,0,1,1.67-.779,1.686,1.686,0,0,1,1.375.542,2.531,2.531,0,0,1,.462,1.622V0H13V-3.717a1.007,1.007,0,0,0-.215-.717.962.962,0,0,0-.714-.223,1.068,1.068,0,0,0-.983.559V0H9.534V-5.812ZM18.4.107A2.853,2.853,0,0,1,16.32-.677a2.787,2.787,0,0,1-.8-2.089v-.15a3.511,3.511,0,0,1,.338-1.566,2.483,2.483,0,0,1,.959-1.063,2.691,2.691,0,0,1,1.415-.373,2.412,2.412,0,0,1,1.877.752,3.056,3.056,0,0,1,.685,2.132V-2.4h-3.7a1.442,1.442,0,0,0,.454.913,1.372,1.372,0,0,0,.959.344,1.675,1.675,0,0,0,1.4-.65l.763.854a2.33,2.33,0,0,1-.945.771A3.1,3.1,0,0,1,18.4.107Zm-.177-4.77a.972.972,0,0,0-.749.312,1.609,1.609,0,0,0-.368.892h2.159v-.124a1.147,1.147,0,0,0-.279-.8A1,1,0,0,0,18.224-4.662ZM25.04,0a1.724,1.724,0,0,1-.156-.521,1.878,1.878,0,0,1-1.466.628A2.063,2.063,0,0,1,22-.387a1.589,1.589,0,0,1-.561-1.246,1.642,1.642,0,0,1,.685-1.418,3.379,3.379,0,0,1,1.979-.5h.714v-.333a.958.958,0,0,0-.207-.645.813.813,0,0,0-.653-.242.925.925,0,0,0-.615.188.639.639,0,0,0-.223.516H21.57A1.559,1.559,0,0,1,21.882-5a2.059,2.059,0,0,1,.881-.674,3.21,3.21,0,0,1,1.278-.244,2.536,2.536,0,0,1,1.705.54,1.888,1.888,0,0,1,.631,1.517v2.519a2.778,2.778,0,0,0,.231,1.251V0ZM23.756-1.08a1.337,1.337,0,0,0,.634-.153,1,1,0,0,0,.43-.411v-1h-.58q-1.166,0-1.241.806l-.005.091a.621.621,0,0,0,.2.478A.793.793,0,0,0,23.756-1.08Zm8.97-.064a1.018,1.018,0,0,0,.7-.236.828.828,0,0,0,.279-.628h1.456a1.991,1.991,0,0,1-.322,1.082,2.126,2.126,0,0,1-.867.763,2.715,2.715,0,0,1-1.217.271,2.523,2.523,0,0,1-1.966-.792,3.135,3.135,0,0,1-.72-2.189v-.1a3.1,3.1,0,0,1,.714-2.143,2.494,2.494,0,0,1,1.96-.8,2.444,2.444,0,0,1,1.748.62,2.2,2.2,0,0,1,.669,1.652H33.7a1.058,1.058,0,0,0-.279-.733.934.934,0,0,0-.709-.282.935.935,0,0,0-.819.395,2.285,2.285,0,0,0-.277,1.281v.161a2.314,2.314,0,0,0,.274,1.289A.947.947,0,0,0,32.726-1.144ZM37.684,0H36.126V-5.812h1.558ZM36.035-7.315a.764.764,0,0,1,.234-.575.878.878,0,0,1,.636-.226.88.88,0,0,1,.634.226.76.76,0,0,1,.236.575.762.762,0,0,1-.239.58.882.882,0,0,1-.631.226.882.882,0,0,1-.631-.226A.762.762,0,0,1,36.035-7.315Zm4.356,1.5.048.671a2.029,2.029,0,0,1,1.67-.779,1.686,1.686,0,0,1,1.375.542,2.531,2.531,0,0,1,.462,1.622V0H42.394V-3.717a1.007,1.007,0,0,0-.215-.717.962.962,0,0,0-.714-.223,1.068,1.068,0,0,0-.983.559V0H38.93V-5.812Zm6.59-1.429v1.429h.994v1.139h-.994v2.9a.693.693,0,0,0,.124.462.62.62,0,0,0,.473.14,2.475,2.475,0,0,0,.457-.038V-.032a3.2,3.2,0,0,1-.94.14,1.482,1.482,0,0,1-1.665-1.649V-4.673H44.58V-5.812h.849V-7.24ZM52.32-.591a1.947,1.947,0,0,1-1.59.7A1.836,1.836,0,0,1,49.3-.43,2.293,2.293,0,0,1,48.8-2V-5.812h1.552v3.754q0,.908.827.908A1.121,1.121,0,0,0,52.266-1.7V-5.812h1.558V0H52.363Zm5.94-3.765A4.217,4.217,0,0,0,57.7-4.4a1.137,1.137,0,0,0-1.155.6V0H54.995V-5.812h1.466l.043.693a1.438,1.438,0,0,1,1.294-.8,1.626,1.626,0,0,1,.483.07ZM62.213,0a1.724,1.724,0,0,1-.156-.521,1.878,1.878,0,0,1-1.466.628,2.063,2.063,0,0,1-1.415-.494,1.589,1.589,0,0,1-.561-1.246A1.642,1.642,0,0,1,59.3-3.051a3.379,3.379,0,0,1,1.979-.5h.714v-.333a.958.958,0,0,0-.207-.645.813.813,0,0,0-.653-.242.925.925,0,0,0-.615.188.639.639,0,0,0-.223.516H58.744A1.559,1.559,0,0,1,59.055-5a2.059,2.059,0,0,1,.881-.674,3.21,3.21,0,0,1,1.278-.244,2.536,2.536,0,0,1,1.705.54,1.888,1.888,0,0,1,.631,1.517v2.519a2.778,2.778,0,0,0,.231,1.251V0ZM60.93-1.08a1.337,1.337,0,0,0,.634-.153,1,1,0,0,0,.43-.411v-1h-.58q-1.166,0-1.241.806l-.005.091a.621.621,0,0,0,.2.478A.793.793,0,0,0,60.93-1.08Z" transform="translate(625.585 20555.74)" fill="#0c1d2f"/>
    <path id="Trazado_881688" data-name="Trazado 881688" d="M6.837-2.6A2.767,2.767,0,0,1,5.906-.618,3.273,3.273,0,0,1,3.69.107,2.943,2.943,0,0,1,1.324-.905a4.151,4.151,0,0,1-.862-2.78v-.478a4.688,4.688,0,0,1,.4-1.987A2.979,2.979,0,0,1,2-7.469a3.182,3.182,0,0,1,1.716-.459A3.188,3.188,0,0,1,5.892-7.2a2.974,2.974,0,0,1,.956,2.036H5.237a1.633,1.633,0,0,0-.422-1.1,1.561,1.561,0,0,0-1.1-.341,1.369,1.369,0,0,0-1.206.577,3.236,3.236,0,0,0-.411,1.791v.591a3.463,3.463,0,0,0,.384,1.853,1.344,1.344,0,0,0,1.211.585A1.591,1.591,0,0,0,4.8-1.55,1.54,1.54,0,0,0,5.226-2.6ZM10.468.107A2.853,2.853,0,0,1,8.387-.677a2.787,2.787,0,0,1-.8-2.089v-.15a3.511,3.511,0,0,1,.338-1.566,2.483,2.483,0,0,1,.959-1.063A2.691,2.691,0,0,1,10.3-5.919a2.412,2.412,0,0,1,1.877.752,3.056,3.056,0,0,1,.685,2.132V-2.4h-3.7a1.442,1.442,0,0,0,.454.913,1.372,1.372,0,0,0,.959.344,1.675,1.675,0,0,0,1.4-.65l.763.854a2.33,2.33,0,0,1-.945.771A3.1,3.1,0,0,1,10.468.107Zm-.177-4.77a.972.972,0,0,0-.749.312,1.609,1.609,0,0,0-.368.892h2.159v-.124a1.147,1.147,0,0,0-.279-.8A1,1,0,0,0,10.291-4.662Zm4.877-1.149.048.671a2.029,2.029,0,0,1,1.67-.779,1.686,1.686,0,0,1,1.375.542,2.531,2.531,0,0,1,.462,1.622V0H17.171V-3.717a1.007,1.007,0,0,0-.215-.717.962.962,0,0,0-.714-.223,1.068,1.068,0,0,0-.983.559V0H13.707V-5.812Zm6.59-1.429v1.429h.994v1.139h-.994v2.9a.693.693,0,0,0,.124.462.62.62,0,0,0,.473.14,2.475,2.475,0,0,0,.457-.038V-.032a3.2,3.2,0,0,1-.94.14,1.482,1.482,0,0,1-1.665-1.649V-4.673h-.849V-5.812h.849V-7.24Zm5.124,2.884a4.217,4.217,0,0,0-.559-.043,1.137,1.137,0,0,0-1.155.6V0H23.617V-5.812h1.466l.043.693a1.438,1.438,0,0,1,1.294-.8,1.626,1.626,0,0,1,.483.07Zm.224,1.4A3.447,3.447,0,0,1,27.439-4.5,2.438,2.438,0,0,1,28.4-5.548a2.8,2.8,0,0,1,1.453-.371,2.646,2.646,0,0,1,1.92.72,2.889,2.889,0,0,1,.83,1.955l.011.4A3.038,3.038,0,0,1,31.865-.7a2.6,2.6,0,0,1-2,.808A2.608,2.608,0,0,1,27.855-.7a3.091,3.091,0,0,1-.749-2.191Zm1.552.113a2.166,2.166,0,0,0,.312,1.265,1.028,1.028,0,0,0,.892.438,1.031,1.031,0,0,0,.881-.432,2.371,2.371,0,0,0,.317-1.383,2.145,2.145,0,0,0-.317-1.257,1.031,1.031,0,0,0-.892-.446,1.014,1.014,0,0,0-.881.443A2.41,2.41,0,0,0,28.658-2.847Z" transform="translate(358.434 20531.816) rotate(-90)" fill="#0c1d2f"/>
    <path id="Trazado_881689" data-name="Trazado 881689" d="M.354-2.949a3.5,3.5,0,0,1,.61-2.165,1.978,1.978,0,0,1,1.668-.806,1.78,1.78,0,0,1,1.4.634V-8.25H5.591V0h-1.4L4.114-.618A1.827,1.827,0,0,1,2.621.107,1.973,1.973,0,0,1,.975-.7,3.615,3.615,0,0,1,.354-2.949Zm1.552.113a2.288,2.288,0,0,0,.285,1.251.928.928,0,0,0,.827.435,1.039,1.039,0,0,0,1.015-.607V-4.05a1.024,1.024,0,0,0-1-.607Q1.907-4.657,1.907-2.836ZM9.469.107A2.853,2.853,0,0,1,7.388-.677a2.787,2.787,0,0,1-.8-2.089v-.15a3.511,3.511,0,0,1,.338-1.566,2.483,2.483,0,0,1,.959-1.063A2.691,2.691,0,0,1,9.3-5.919a2.412,2.412,0,0,1,1.877.752,3.056,3.056,0,0,1,.685,2.132V-2.4h-3.7a1.442,1.442,0,0,0,.454.913,1.372,1.372,0,0,0,.959.344,1.675,1.675,0,0,0,1.4-.65l.763.854a2.33,2.33,0,0,1-.945.771A3.1,3.1,0,0,1,9.469.107Zm-.177-4.77a.972.972,0,0,0-.749.312,1.609,1.609,0,0,0-.368.892h2.159v-.124a1.147,1.147,0,0,0-.279-.8A1,1,0,0,0,9.292-4.662ZM14.378,0H12.821V-8.25h1.558Zm4.646,0a1.724,1.724,0,0,1-.156-.521A1.878,1.878,0,0,1,17.4.107a2.063,2.063,0,0,1-1.415-.494,1.589,1.589,0,0,1-.561-1.246,1.642,1.642,0,0,1,.685-1.418,3.379,3.379,0,0,1,1.979-.5H18.8v-.333a.958.958,0,0,0-.207-.645.813.813,0,0,0-.653-.242.925.925,0,0,0-.615.188.639.639,0,0,0-.223.516H15.555A1.559,1.559,0,0,1,15.866-5a2.059,2.059,0,0,1,.881-.674,3.21,3.21,0,0,1,1.278-.244,2.536,2.536,0,0,1,1.705.54,1.888,1.888,0,0,1,.631,1.517v2.519a2.778,2.778,0,0,0,.231,1.251V0ZM17.741-1.08a1.337,1.337,0,0,0,.634-.153,1,1,0,0,0,.43-.411v-1h-.58q-1.166,0-1.241.806l-.005.091a.621.621,0,0,0,.2.478A.793.793,0,0,0,17.741-1.08Zm5.242-4.732.048.671a2.029,2.029,0,0,1,1.67-.779,1.686,1.686,0,0,1,1.375.542,2.531,2.531,0,0,1,.462,1.622V0H24.986V-3.717a1.007,1.007,0,0,0-.215-.717.962.962,0,0,0-.714-.223,1.068,1.068,0,0,0-.983.559V0H21.522V-5.812Zm6.59-1.429v1.429h.994v1.139h-.994v2.9a.693.693,0,0,0,.124.462.62.62,0,0,0,.473.14,2.475,2.475,0,0,0,.457-.038V-.032a3.2,3.2,0,0,1-.94.14,1.482,1.482,0,0,1-1.665-1.649V-4.673h-.849V-5.812h.849V-7.24ZM34.106.107a2.853,2.853,0,0,1-2.081-.784,2.787,2.787,0,0,1-.8-2.089v-.15a3.511,3.511,0,0,1,.338-1.566,2.483,2.483,0,0,1,.959-1.063,2.691,2.691,0,0,1,1.415-.373,2.412,2.412,0,0,1,1.877.752A3.056,3.056,0,0,1,36.5-3.035V-2.4H32.8a1.442,1.442,0,0,0,.454.913,1.372,1.372,0,0,0,.959.344,1.675,1.675,0,0,0,1.4-.65l.763.854a2.33,2.33,0,0,1-.945.771A3.1,3.1,0,0,1,34.106.107Zm-.177-4.77a.972.972,0,0,0-.749.312,1.609,1.609,0,0,0-.368.892h2.159v-.124a1.147,1.147,0,0,0-.279-.8A1,1,0,0,0,33.929-4.662Zm6.714.306a4.217,4.217,0,0,0-.559-.043,1.137,1.137,0,0,0-1.155.6V0H37.377V-5.812h1.466l.043.693a1.438,1.438,0,0,1,1.294-.8,1.626,1.626,0,0,1,.483.07Zm.224,1.4A3.447,3.447,0,0,1,41.2-4.5a2.438,2.438,0,0,1,.959-1.047,2.8,2.8,0,0,1,1.453-.371,2.646,2.646,0,0,1,1.92.72,2.889,2.889,0,0,1,.83,1.955l.011.4A3.038,3.038,0,0,1,45.625-.7a2.6,2.6,0,0,1-2,.808A2.608,2.608,0,0,1,41.616-.7a3.091,3.091,0,0,1-.749-2.191Zm1.552.113a2.166,2.166,0,0,0,.312,1.265,1.028,1.028,0,0,0,.892.438,1.031,1.031,0,0,0,.881-.432,2.371,2.371,0,0,0,.317-1.383A2.145,2.145,0,0,0,44.5-4.216a1.031,1.031,0,0,0-.892-.446,1.014,1.014,0,0,0-.881.443A2.41,2.41,0,0,0,42.419-2.847Z" transform="translate(373.573 20538.162) rotate(-90)" fill="#0c1d2f"/>
    <path id="Trazado_881690" data-name="Trazado 881690" d="M6.837-2.6A2.767,2.767,0,0,1,5.906-.618,3.273,3.273,0,0,1,3.69.107,2.943,2.943,0,0,1,1.324-.905a4.151,4.151,0,0,1-.862-2.78v-.478a4.688,4.688,0,0,1,.4-1.987A2.979,2.979,0,0,1,2-7.469a3.182,3.182,0,0,1,1.716-.459A3.188,3.188,0,0,1,5.892-7.2a2.974,2.974,0,0,1,.956,2.036H5.237a1.633,1.633,0,0,0-.422-1.1,1.561,1.561,0,0,0-1.1-.341,1.369,1.369,0,0,0-1.206.577,3.236,3.236,0,0,0-.411,1.791v.591a3.463,3.463,0,0,0,.384,1.853,1.344,1.344,0,0,0,1.211.585A1.591,1.591,0,0,0,4.8-1.55,1.54,1.54,0,0,0,5.226-2.6ZM10.468.107A2.853,2.853,0,0,1,8.387-.677a2.787,2.787,0,0,1-.8-2.089v-.15a3.511,3.511,0,0,1,.338-1.566,2.483,2.483,0,0,1,.959-1.063A2.691,2.691,0,0,1,10.3-5.919a2.412,2.412,0,0,1,1.877.752,3.056,3.056,0,0,1,.685,2.132V-2.4h-3.7a1.442,1.442,0,0,0,.454.913,1.372,1.372,0,0,0,.959.344,1.675,1.675,0,0,0,1.4-.65l.763.854a2.33,2.33,0,0,1-.945.771A3.1,3.1,0,0,1,10.468.107Zm-.177-4.77a.972.972,0,0,0-.749.312,1.609,1.609,0,0,0-.368.892h2.159v-.124a1.147,1.147,0,0,0-.279-.8A1,1,0,0,0,10.291-4.662Zm4.877-1.149.048.671a2.029,2.029,0,0,1,1.67-.779,1.686,1.686,0,0,1,1.375.542,2.531,2.531,0,0,1,.462,1.622V0H17.171V-3.717a1.007,1.007,0,0,0-.215-.717.962.962,0,0,0-.714-.223,1.068,1.068,0,0,0-.983.559V0H13.707V-5.812Zm6.59-1.429v1.429h.994v1.139h-.994v2.9a.693.693,0,0,0,.124.462.62.62,0,0,0,.473.14,2.475,2.475,0,0,0,.457-.038V-.032a3.2,3.2,0,0,1-.94.14,1.482,1.482,0,0,1-1.665-1.649V-4.673h-.849V-5.812h.849V-7.24Zm5.124,2.884a4.217,4.217,0,0,0-.559-.043,1.137,1.137,0,0,0-1.155.6V0H23.617V-5.812h1.466l.043.693a1.438,1.438,0,0,1,1.294-.8,1.626,1.626,0,0,1,.483.07Zm.224,1.4A3.447,3.447,0,0,1,27.439-4.5,2.438,2.438,0,0,1,28.4-5.548a2.8,2.8,0,0,1,1.453-.371,2.646,2.646,0,0,1,1.92.72,2.889,2.889,0,0,1,.83,1.955l.011.4A3.038,3.038,0,0,1,31.865-.7a2.6,2.6,0,0,1-2,.808A2.608,2.608,0,0,1,27.855-.7a3.091,3.091,0,0,1-.749-2.191Zm1.552.113a2.166,2.166,0,0,0,.312,1.265,1.028,1.028,0,0,0,.892.438,1.031,1.031,0,0,0,.881-.432,2.371,2.371,0,0,0,.317-1.383,2.145,2.145,0,0,0-.317-1.257,1.031,1.031,0,0,0-.892-.446,1.014,1.014,0,0,0-.881.443A2.41,2.41,0,0,0,28.658-2.847Z" transform="translate(597.788 20531.814) rotate(-90)" fill="#0c1d2f"/>
    <path id="Trazado_881691" data-name="Trazado 881691" d="M2.455-7.24v1.429h.994v1.139H2.455v2.9a.693.693,0,0,0,.124.462.62.62,0,0,0,.473.14,2.475,2.475,0,0,0,.457-.038V-.032a3.2,3.2,0,0,1-.94.14A1.482,1.482,0,0,1,.9-1.542V-4.673H.054V-5.812H.9V-7.24ZM7.579-4.356A4.217,4.217,0,0,0,7.02-4.4a1.137,1.137,0,0,0-1.155.6V0H4.313V-5.812H5.779l.043.693a1.438,1.438,0,0,1,1.294-.8,1.626,1.626,0,0,1,.483.07ZM11.532,0a1.724,1.724,0,0,1-.156-.521A1.878,1.878,0,0,1,9.91.107,2.063,2.063,0,0,1,8.494-.387a1.589,1.589,0,0,1-.561-1.246,1.642,1.642,0,0,1,.685-1.418,3.379,3.379,0,0,1,1.979-.5h.714v-.333a.958.958,0,0,0-.207-.645.813.813,0,0,0-.653-.242.925.925,0,0,0-.615.188.639.639,0,0,0-.223.516H8.062A1.559,1.559,0,0,1,8.374-5a2.059,2.059,0,0,1,.881-.674,3.21,3.21,0,0,1,1.278-.244,2.536,2.536,0,0,1,1.705.54,1.888,1.888,0,0,1,.631,1.517v2.519A2.778,2.778,0,0,0,13.1-.091V0ZM10.248-1.08a1.337,1.337,0,0,0,.634-.153,1,1,0,0,0,.43-.411v-1h-.58q-1.166,0-1.241.806l-.005.091a.621.621,0,0,0,.2.478A.793.793,0,0,0,10.248-1.08Zm6.961-.526a.5.5,0,0,0-.282-.448,3.2,3.2,0,0,0-.905-.293q-2.073-.435-2.073-1.762A1.6,1.6,0,0,1,14.591-5.4a2.589,2.589,0,0,1,1.678-.518,2.787,2.787,0,0,1,1.77.521A1.642,1.642,0,0,1,18.7-4.044H17.15a.751.751,0,0,0-.215-.551.909.909,0,0,0-.671-.218.929.929,0,0,0-.607.177.56.56,0,0,0-.215.451.478.478,0,0,0,.244.416,2.514,2.514,0,0,0,.824.274,6.734,6.734,0,0,1,.978.26,1.606,1.606,0,0,1,1.23,1.563,1.516,1.516,0,0,1-.682,1.286,2.943,2.943,0,0,1-1.762.491,3.073,3.073,0,0,1-1.3-.26,2.176,2.176,0,0,1-.889-.714,1.66,1.66,0,0,1-.322-.98h1.472a.81.81,0,0,0,.306.634,1.214,1.214,0,0,0,.763.22,1.124,1.124,0,0,0,.674-.169A.526.526,0,0,0,17.209-1.606ZM22.392.107a2.853,2.853,0,0,1-2.081-.784,2.787,2.787,0,0,1-.8-2.089v-.15a3.511,3.511,0,0,1,.338-1.566A2.483,2.483,0,0,1,20.8-5.546a2.691,2.691,0,0,1,1.415-.373,2.412,2.412,0,0,1,1.877.752,3.056,3.056,0,0,1,.685,2.132V-2.4h-3.7a1.442,1.442,0,0,0,.454.913,1.372,1.372,0,0,0,.959.344,1.675,1.675,0,0,0,1.4-.65l.763.854a2.33,2.33,0,0,1-.945.771A3.1,3.1,0,0,1,22.392.107Zm-.177-4.77a.972.972,0,0,0-.749.312,1.609,1.609,0,0,0-.368.892h2.159v-.124a1.147,1.147,0,0,0-.279-.8A1,1,0,0,0,22.215-4.662Zm6.714.306A4.217,4.217,0,0,0,28.37-4.4a1.137,1.137,0,0,0-1.155.6V0H25.663V-5.812h1.466l.043.693a1.438,1.438,0,0,1,1.294-.8,1.626,1.626,0,0,1,.483.07Zm.213,1.4A3.447,3.447,0,0,1,29.474-4.5a2.438,2.438,0,0,1,.959-1.047,2.8,2.8,0,0,1,1.453-.371,2.646,2.646,0,0,1,1.92.72,2.889,2.889,0,0,1,.83,1.955l.011.4A3.038,3.038,0,0,1,33.9-.7a2.6,2.6,0,0,1-2,.808A2.608,2.608,0,0,1,29.891-.7a3.091,3.091,0,0,1-.749-2.191Zm1.552.113a2.166,2.166,0,0,0,.312,1.265,1.028,1.028,0,0,0,.892.438,1.031,1.031,0,0,0,.881-.432,2.371,2.371,0,0,0,.317-1.383,2.145,2.145,0,0,0-.317-1.257,1.031,1.031,0,0,0-.892-.446,1.014,1.014,0,0,0-.881.443A2.41,2.41,0,0,0,30.693-2.847Z" transform="translate(612.928 20531.539) rotate(-90)" fill="#0c1d2f"/>
    <path id="Trazado_881692" data-name="Trazado 881692" d="M2.31-1.294H5.731V0H.7V-7.82H2.31ZM8.229,0H6.676V-5.812H8.229ZM7.772-8.169H9.464L7.976-6.5H6.714Zm3.223,2.358.048.671a2.029,2.029,0,0,1,1.67-.779,1.686,1.686,0,0,1,1.375.542,2.531,2.531,0,0,1,.462,1.622V0H13V-3.717a1.007,1.007,0,0,0-.215-.717.962.962,0,0,0-.714-.223,1.068,1.068,0,0,0-.983.559V0H9.534V-5.812ZM18.4.107A2.853,2.853,0,0,1,16.32-.677a2.787,2.787,0,0,1-.8-2.089v-.15a3.511,3.511,0,0,1,.338-1.566,2.483,2.483,0,0,1,.959-1.063,2.691,2.691,0,0,1,1.415-.373,2.412,2.412,0,0,1,1.877.752,3.056,3.056,0,0,1,.685,2.132V-2.4h-3.7a1.442,1.442,0,0,0,.454.913,1.372,1.372,0,0,0,.959.344,1.675,1.675,0,0,0,1.4-.65l.763.854a2.33,2.33,0,0,1-.945.771A3.1,3.1,0,0,1,18.4.107Zm-.177-4.77a.972.972,0,0,0-.749.312,1.609,1.609,0,0,0-.368.892h2.159v-.124a1.147,1.147,0,0,0-.279-.8A1,1,0,0,0,18.224-4.662ZM25.04,0a1.724,1.724,0,0,1-.156-.521,1.878,1.878,0,0,1-1.466.628A2.063,2.063,0,0,1,22-.387a1.589,1.589,0,0,1-.561-1.246,1.642,1.642,0,0,1,.685-1.418,3.379,3.379,0,0,1,1.979-.5h.714v-.333a.958.958,0,0,0-.207-.645.813.813,0,0,0-.653-.242.925.925,0,0,0-.615.188.639.639,0,0,0-.223.516H21.57A1.559,1.559,0,0,1,21.882-5a2.059,2.059,0,0,1,.881-.674,3.21,3.21,0,0,1,1.278-.244,2.536,2.536,0,0,1,1.705.54,1.888,1.888,0,0,1,.631,1.517v2.519a2.778,2.778,0,0,0,.231,1.251V0ZM23.756-1.08a1.337,1.337,0,0,0,.634-.153,1,1,0,0,0,.43-.411v-1h-.58q-1.166,0-1.241.806l-.005.091a.621.621,0,0,0,.2.478A.793.793,0,0,0,23.756-1.08Zm8.97-.064a1.018,1.018,0,0,0,.7-.236.828.828,0,0,0,.279-.628h1.456a1.991,1.991,0,0,1-.322,1.082,2.126,2.126,0,0,1-.867.763,2.715,2.715,0,0,1-1.217.271,2.523,2.523,0,0,1-1.966-.792,3.135,3.135,0,0,1-.72-2.189v-.1a3.1,3.1,0,0,1,.714-2.143,2.494,2.494,0,0,1,1.96-.8,2.444,2.444,0,0,1,1.748.62,2.2,2.2,0,0,1,.669,1.652H33.7a1.058,1.058,0,0,0-.279-.733.934.934,0,0,0-.709-.282.935.935,0,0,0-.819.395,2.285,2.285,0,0,0-.277,1.281v.161a2.314,2.314,0,0,0,.274,1.289A.947.947,0,0,0,32.726-1.144ZM37.684,0H36.126V-5.812h1.558ZM36.035-7.315a.764.764,0,0,1,.234-.575.878.878,0,0,1,.636-.226.88.88,0,0,1,.634.226.76.76,0,0,1,.236.575.762.762,0,0,1-.239.58.882.882,0,0,1-.631.226.882.882,0,0,1-.631-.226A.762.762,0,0,1,36.035-7.315Zm4.356,1.5.048.671a2.029,2.029,0,0,1,1.67-.779,1.686,1.686,0,0,1,1.375.542,2.531,2.531,0,0,1,.462,1.622V0H42.394V-3.717a1.007,1.007,0,0,0-.215-.717.962.962,0,0,0-.714-.223,1.068,1.068,0,0,0-.983.559V0H38.93V-5.812Zm6.59-1.429v1.429h.994v1.139h-.994v2.9a.693.693,0,0,0,.124.462.62.62,0,0,0,.473.14,2.475,2.475,0,0,0,.457-.038V-.032a3.2,3.2,0,0,1-.94.14,1.482,1.482,0,0,1-1.665-1.649V-4.673H44.58V-5.812h.849V-7.24ZM52.32-.591a1.947,1.947,0,0,1-1.59.7A1.836,1.836,0,0,1,49.3-.43,2.293,2.293,0,0,1,48.8-2V-5.812h1.552v3.754q0,.908.827.908A1.121,1.121,0,0,0,52.266-1.7V-5.812h1.558V0H52.363Zm5.94-3.765A4.217,4.217,0,0,0,57.7-4.4a1.137,1.137,0,0,0-1.155.6V0H54.995V-5.812h1.466l.043.693a1.438,1.438,0,0,1,1.294-.8,1.626,1.626,0,0,1,.483.07ZM62.213,0a1.724,1.724,0,0,1-.156-.521,1.878,1.878,0,0,1-1.466.628,2.063,2.063,0,0,1-1.415-.494,1.589,1.589,0,0,1-.561-1.246A1.642,1.642,0,0,1,59.3-3.051a3.379,3.379,0,0,1,1.979-.5h.714v-.333a.958.958,0,0,0-.207-.645.813.813,0,0,0-.653-.242.925.925,0,0,0-.615.188.639.639,0,0,0-.223.516H58.744A1.559,1.559,0,0,1,59.055-5a2.059,2.059,0,0,1,.881-.674,3.21,3.21,0,0,1,1.278-.244,2.536,2.536,0,0,1,1.705.54,1.888,1.888,0,0,1,.631,1.517v2.519a2.778,2.778,0,0,0,.231,1.251V0ZM60.93-1.08a1.337,1.337,0,0,0,.634-.153,1,1,0,0,0,.43-.411v-1h-.58q-1.166,0-1.241.806l-.005.091a.621.621,0,0,0,.2.478A.793.793,0,0,0,60.93-1.08Z" transform="translate(266.313 20555.74)" fill="#0c1d2f"/>
    <path id="Trazado_881693" data-name="Trazado 881693" d="M1.89-1.059h2.8V0H.571V-6.4H1.89ZM6.732,0H5.462V-4.755h1.27ZM6.359-6.684H7.743L6.526-5.322H5.493ZM9-4.755l.04.549A1.66,1.66,0,0,1,10.4-4.843a1.38,1.38,0,0,1,1.125.444A2.071,2.071,0,0,1,11.9-3.072V0h-1.27V-3.041a.824.824,0,0,0-.176-.587.787.787,0,0,0-.584-.182.874.874,0,0,0-.8.457V0H7.8V-4.755ZM15.056.088a2.334,2.334,0,0,1-1.7-.642A2.281,2.281,0,0,1,12.7-2.263v-.123a2.872,2.872,0,0,1,.277-1.281,2.032,2.032,0,0,1,.784-.87,2.2,2.2,0,0,1,1.158-.305,1.973,1.973,0,0,1,1.536.615,2.5,2.5,0,0,1,.56,1.745v.519H13.983a1.18,1.18,0,0,0,.371.747,1.123,1.123,0,0,0,.784.281,1.371,1.371,0,0,0,1.147-.532l.624.7a1.907,1.907,0,0,1-.773.631A2.538,2.538,0,0,1,15.056.088Zm-.145-3.9a.8.8,0,0,0-.613.255,1.317,1.317,0,0,0-.3.729h1.767v-.1a.939.939,0,0,0-.229-.653A.821.821,0,0,0,14.911-3.814ZM20.487,0a1.41,1.41,0,0,1-.127-.426,1.537,1.537,0,0,1-1.2.514A1.688,1.688,0,0,1,18-.316a1.3,1.3,0,0,1-.459-1.02A1.344,1.344,0,0,1,18.1-2.5,2.765,2.765,0,0,1,19.723-2.9h.584v-.272a.784.784,0,0,0-.169-.527.666.666,0,0,0-.534-.2.757.757,0,0,0-.5.154.523.523,0,0,0-.182.422h-1.27a1.276,1.276,0,0,1,.255-.765,1.685,1.685,0,0,1,.721-.552,2.627,2.627,0,0,1,1.046-.2,2.075,2.075,0,0,1,1.4.442,1.545,1.545,0,0,1,.516,1.241V-1.1a2.273,2.273,0,0,0,.189,1.024V0Zm-1.05-.883a1.094,1.094,0,0,0,.519-.125.823.823,0,0,0,.352-.336v-.817h-.475q-.954,0-1.015.659l0,.075a.508.508,0,0,0,.167.391A.649.649,0,0,0,19.437-.883Zm6.6-3.353a1.585,1.585,0,0,1,1.27-.606q1.547,0,1.569,1.8V0h-1.27V-3.01a.883.883,0,0,0-.176-.6.754.754,0,0,0-.584-.2.864.864,0,0,0-.809.431V0h-1.27V-6.75h1.27Zm3.6,1.815a2.82,2.82,0,0,1,.272-1.261,2,2,0,0,1,.784-.857,2.289,2.289,0,0,1,1.189-.3,2.165,2.165,0,0,1,1.571.589,2.363,2.363,0,0,1,.679,1.6l.009.325A2.485,2.485,0,0,1,33.53-.573a2.123,2.123,0,0,1-1.639.661A2.134,2.134,0,0,1,30.25-.571a2.529,2.529,0,0,1-.613-1.793Zm1.27.092a1.773,1.773,0,0,0,.255,1.035.841.841,0,0,0,.729.358.843.843,0,0,0,.721-.354,1.94,1.94,0,0,0,.259-1.132,1.755,1.755,0,0,0-.259-1.028.843.843,0,0,0-.729-.365.829.829,0,0,0-.721.363A1.972,1.972,0,0,0,30.907-2.329Zm5.208-2.426.04.532a1.671,1.671,0,0,1,1.367-.62,1.268,1.268,0,0,1,1.261.725,1.633,1.633,0,0,1,1.428-.725,1.418,1.418,0,0,1,1.151.45,2.07,2.07,0,0,1,.378,1.356V0H40.465V-3.032a.905.905,0,0,0-.158-.591.7.7,0,0,0-.558-.187.793.793,0,0,0-.791.545l0,3.265h-1.27V-3.028a.894.894,0,0,0-.163-.6.708.708,0,0,0-.554-.185.823.823,0,0,0-.782.448V0h-1.27V-4.755ZM47-2.333a2.879,2.879,0,0,1-.488,1.782,1.616,1.616,0,0,1-1.362.639,1.485,1.485,0,0,1-1.235-.593L43.857,0H42.715V-6.75h1.27v2.421a1.446,1.446,0,0,1,1.156-.514,1.629,1.629,0,0,1,1.365.639A2.883,2.883,0,0,1,47-2.4Zm-1.27-.092A1.892,1.892,0,0,0,45.5-3.478a.773.773,0,0,0-.681-.332.838.838,0,0,0-.835.5v1.876a.849.849,0,0,0,.844.5.784.784,0,0,0,.809-.606A3.128,3.128,0,0,0,45.729-2.426Zm4.724-1.138A3.45,3.45,0,0,0,50-3.6a.93.93,0,0,0-.945.488V0h-1.27V-4.755h1.2l.035.567a1.177,1.177,0,0,1,1.059-.655,1.331,1.331,0,0,1,.4.057Zm.174,1.143A2.82,2.82,0,0,1,50.9-3.683a2,2,0,0,1,.784-.857,2.289,2.289,0,0,1,1.189-.3,2.165,2.165,0,0,1,1.571.589,2.363,2.363,0,0,1,.679,1.6l.009.325a2.485,2.485,0,0,1-.611,1.756,2.123,2.123,0,0,1-1.639.661,2.134,2.134,0,0,1-1.641-.659,2.529,2.529,0,0,1-.613-1.793Zm1.27.092a1.773,1.773,0,0,0,.255,1.035.841.841,0,0,0,.729.358A.843.843,0,0,0,53.6-1.29a1.94,1.94,0,0,0,.259-1.132A1.755,1.755,0,0,0,53.6-3.45a.843.843,0,0,0-.729-.365.829.829,0,0,0-.721.363A1.972,1.972,0,0,0,51.9-2.329Zm6.592,1.015a.409.409,0,0,0-.231-.367,2.621,2.621,0,0,0-.74-.24q-1.7-.356-1.7-1.441a1.307,1.307,0,0,1,.525-1.057,2.118,2.118,0,0,1,1.373-.424,2.28,2.28,0,0,1,1.448.426,1.343,1.343,0,0,1,.543,1.107h-1.27a.615.615,0,0,0-.176-.45.744.744,0,0,0-.549-.178.76.76,0,0,0-.5.145.458.458,0,0,0-.176.369.391.391,0,0,0,.2.341,2.057,2.057,0,0,0,.675.224,5.51,5.51,0,0,1,.8.213,1.314,1.314,0,0,1,1.006,1.279,1.24,1.24,0,0,1-.558,1.052,2.408,2.408,0,0,1-1.441.4,2.515,2.515,0,0,1-1.061-.213,1.781,1.781,0,0,1-.727-.584,1.358,1.358,0,0,1-.264-.8h1.2a.663.663,0,0,0,.25.519.994.994,0,0,0,.624.18A.92.92,0,0,0,58.3-.951.431.431,0,0,0,58.489-1.314Z" transform="translate(371.873 20448.658)" fill="#0c1d2f"/>
    <path id="Trazado_881694" data-name="Trazado 881694" d="M1.89-1.059h2.8V0H.571V-6.4H1.89ZM6.732,0H5.462V-4.755h1.27ZM6.359-6.684H7.743L6.526-5.322H5.493ZM9-4.755l.04.549A1.66,1.66,0,0,1,10.4-4.843a1.38,1.38,0,0,1,1.125.444A2.071,2.071,0,0,1,11.9-3.072V0h-1.27V-3.041a.824.824,0,0,0-.176-.587.787.787,0,0,0-.584-.182.874.874,0,0,0-.8.457V0H7.8V-4.755ZM15.056.088a2.334,2.334,0,0,1-1.7-.642A2.281,2.281,0,0,1,12.7-2.263v-.123a2.872,2.872,0,0,1,.277-1.281,2.032,2.032,0,0,1,.784-.87,2.2,2.2,0,0,1,1.158-.305,1.973,1.973,0,0,1,1.536.615,2.5,2.5,0,0,1,.56,1.745v.519H13.983a1.18,1.18,0,0,0,.371.747,1.123,1.123,0,0,0,.784.281,1.371,1.371,0,0,0,1.147-.532l.624.7a1.907,1.907,0,0,1-.773.631A2.538,2.538,0,0,1,15.056.088Zm-.145-3.9a.8.8,0,0,0-.613.255,1.317,1.317,0,0,0-.3.729h1.767v-.1a.939.939,0,0,0-.229-.653A.821.821,0,0,0,14.911-3.814ZM20.487,0a1.41,1.41,0,0,1-.127-.426,1.537,1.537,0,0,1-1.2.514A1.688,1.688,0,0,1,18-.316a1.3,1.3,0,0,1-.459-1.02A1.344,1.344,0,0,1,18.1-2.5,2.765,2.765,0,0,1,19.723-2.9h.584v-.272a.784.784,0,0,0-.169-.527.666.666,0,0,0-.534-.2.757.757,0,0,0-.5.154.523.523,0,0,0-.182.422h-1.27a1.276,1.276,0,0,1,.255-.765,1.685,1.685,0,0,1,.721-.552,2.627,2.627,0,0,1,1.046-.2,2.075,2.075,0,0,1,1.4.442,1.545,1.545,0,0,1,.516,1.241V-1.1a2.273,2.273,0,0,0,.189,1.024V0Zm-1.05-.883a1.094,1.094,0,0,0,.519-.125.823.823,0,0,0,.352-.336v-.817h-.475q-.954,0-1.015.659l0,.075a.508.508,0,0,0,.167.391A.649.649,0,0,0,19.437-.883Zm6.6-3.353a1.585,1.585,0,0,1,1.27-.606q1.547,0,1.569,1.8V0h-1.27V-3.01a.883.883,0,0,0-.176-.6.754.754,0,0,0-.584-.2.864.864,0,0,0-.809.431V0h-1.27V-6.75h1.27Zm3.6,1.815a2.82,2.82,0,0,1,.272-1.261,2,2,0,0,1,.784-.857,2.289,2.289,0,0,1,1.189-.3,2.165,2.165,0,0,1,1.571.589,2.363,2.363,0,0,1,.679,1.6l.009.325A2.485,2.485,0,0,1,33.53-.573a2.123,2.123,0,0,1-1.639.661A2.134,2.134,0,0,1,30.25-.571a2.529,2.529,0,0,1-.613-1.793Zm1.27.092a1.773,1.773,0,0,0,.255,1.035.841.841,0,0,0,.729.358.843.843,0,0,0,.721-.354,1.94,1.94,0,0,0,.259-1.132,1.755,1.755,0,0,0-.259-1.028.843.843,0,0,0-.729-.365.829.829,0,0,0-.721.363A1.972,1.972,0,0,0,30.907-2.329Zm5.208-2.426.04.532a1.671,1.671,0,0,1,1.367-.62,1.268,1.268,0,0,1,1.261.725,1.633,1.633,0,0,1,1.428-.725,1.418,1.418,0,0,1,1.151.45,2.07,2.07,0,0,1,.378,1.356V0H40.465V-3.032a.905.905,0,0,0-.158-.591.7.7,0,0,0-.558-.187.793.793,0,0,0-.791.545l0,3.265h-1.27V-3.028a.894.894,0,0,0-.163-.6.708.708,0,0,0-.554-.185.823.823,0,0,0-.782.448V0h-1.27V-4.755ZM47-2.333a2.879,2.879,0,0,1-.488,1.782,1.616,1.616,0,0,1-1.362.639,1.485,1.485,0,0,1-1.235-.593L43.857,0H42.715V-6.75h1.27v2.421a1.446,1.446,0,0,1,1.156-.514,1.629,1.629,0,0,1,1.365.639A2.883,2.883,0,0,1,47-2.4Zm-1.27-.092A1.892,1.892,0,0,0,45.5-3.478a.773.773,0,0,0-.681-.332.838.838,0,0,0-.835.5v1.876a.849.849,0,0,0,.844.5.784.784,0,0,0,.809-.606A3.128,3.128,0,0,0,45.729-2.426Zm4.724-1.138A3.45,3.45,0,0,0,50-3.6a.93.93,0,0,0-.945.488V0h-1.27V-4.755h1.2l.035.567a1.177,1.177,0,0,1,1.059-.655,1.331,1.331,0,0,1,.4.057Zm.174,1.143A2.82,2.82,0,0,1,50.9-3.683a2,2,0,0,1,.784-.857,2.289,2.289,0,0,1,1.189-.3,2.165,2.165,0,0,1,1.571.589,2.363,2.363,0,0,1,.679,1.6l.009.325a2.485,2.485,0,0,1-.611,1.756,2.123,2.123,0,0,1-1.639.661,2.134,2.134,0,0,1-1.641-.659,2.529,2.529,0,0,1-.613-1.793Zm1.27.092a1.773,1.773,0,0,0,.255,1.035.841.841,0,0,0,.729.358A.843.843,0,0,0,53.6-1.29a1.94,1.94,0,0,0,.259-1.132A1.755,1.755,0,0,0,53.6-3.45a.843.843,0,0,0-.729-.365.829.829,0,0,0-.721.363A1.972,1.972,0,0,0,51.9-2.329Zm6.592,1.015a.409.409,0,0,0-.231-.367,2.621,2.621,0,0,0-.74-.24q-1.7-.356-1.7-1.441a1.307,1.307,0,0,1,.525-1.057,2.118,2.118,0,0,1,1.373-.424,2.28,2.28,0,0,1,1.448.426,1.343,1.343,0,0,1,.543,1.107h-1.27a.615.615,0,0,0-.176-.45.744.744,0,0,0-.549-.178.76.76,0,0,0-.5.145.458.458,0,0,0-.176.369.391.391,0,0,0,.2.341,2.057,2.057,0,0,0,.675.224,5.51,5.51,0,0,1,.8.213,1.314,1.314,0,0,1,1.006,1.279,1.24,1.24,0,0,1-.558,1.052,2.408,2.408,0,0,1-1.441.4,2.515,2.515,0,0,1-1.061-.213,1.781,1.781,0,0,1-.727-.584,1.358,1.358,0,0,1-.264-.8h1.2a.663.663,0,0,0,.25.519.994.994,0,0,0,.624.18A.92.92,0,0,0,58.3-.951.431.431,0,0,0,58.489-1.314Z" transform="translate(521.881 20448.658)" fill="#0c1d2f"/>
    <path id="Trazado_881695" data-name="Trazado 881695" d="M1.89-1.059h2.8V0H.571V-6.4H1.89ZM6.732,0H5.462V-4.755h1.27ZM6.359-6.684H7.743L6.526-5.322H5.493ZM9-4.755l.04.549A1.66,1.66,0,0,1,10.4-4.843a1.38,1.38,0,0,1,1.125.444A2.071,2.071,0,0,1,11.9-3.072V0h-1.27V-3.041a.824.824,0,0,0-.176-.587.787.787,0,0,0-.584-.182.874.874,0,0,0-.8.457V0H7.8V-4.755ZM15.056.088a2.334,2.334,0,0,1-1.7-.642A2.281,2.281,0,0,1,12.7-2.263v-.123a2.872,2.872,0,0,1,.277-1.281,2.032,2.032,0,0,1,.784-.87,2.2,2.2,0,0,1,1.158-.305,1.973,1.973,0,0,1,1.536.615,2.5,2.5,0,0,1,.56,1.745v.519H13.983a1.18,1.18,0,0,0,.371.747,1.123,1.123,0,0,0,.784.281,1.371,1.371,0,0,0,1.147-.532l.624.7a1.907,1.907,0,0,1-.773.631A2.538,2.538,0,0,1,15.056.088Zm-.145-3.9a.8.8,0,0,0-.613.255,1.317,1.317,0,0,0-.3.729h1.767v-.1a.939.939,0,0,0-.229-.653A.821.821,0,0,0,14.911-3.814ZM20.487,0a1.41,1.41,0,0,1-.127-.426,1.537,1.537,0,0,1-1.2.514A1.688,1.688,0,0,1,18-.316a1.3,1.3,0,0,1-.459-1.02A1.344,1.344,0,0,1,18.1-2.5,2.765,2.765,0,0,1,19.723-2.9h.584v-.272a.784.784,0,0,0-.169-.527.666.666,0,0,0-.534-.2.757.757,0,0,0-.5.154.523.523,0,0,0-.182.422h-1.27a1.276,1.276,0,0,1,.255-.765,1.685,1.685,0,0,1,.721-.552,2.627,2.627,0,0,1,1.046-.2,2.075,2.075,0,0,1,1.4.442,1.545,1.545,0,0,1,.516,1.241V-1.1a2.273,2.273,0,0,0,.189,1.024V0Zm-1.05-.883a1.094,1.094,0,0,0,.519-.125.823.823,0,0,0,.352-.336v-.817h-.475q-.954,0-1.015.659l0,.075a.508.508,0,0,0,.167.391A.649.649,0,0,0,19.437-.883Zm6.6-3.353a1.585,1.585,0,0,1,1.27-.606q1.547,0,1.569,1.8V0h-1.27V-3.01a.883.883,0,0,0-.176-.6.754.754,0,0,0-.584-.2.864.864,0,0,0-.809.431V0h-1.27V-6.75h1.27Zm3.6,1.815a2.82,2.82,0,0,1,.272-1.261,2,2,0,0,1,.784-.857,2.289,2.289,0,0,1,1.189-.3,2.165,2.165,0,0,1,1.571.589,2.363,2.363,0,0,1,.679,1.6l.009.325A2.485,2.485,0,0,1,33.53-.573a2.123,2.123,0,0,1-1.639.661A2.134,2.134,0,0,1,30.25-.571a2.529,2.529,0,0,1-.613-1.793Zm1.27.092a1.773,1.773,0,0,0,.255,1.035.841.841,0,0,0,.729.358.843.843,0,0,0,.721-.354,1.94,1.94,0,0,0,.259-1.132,1.755,1.755,0,0,0-.259-1.028.843.843,0,0,0-.729-.365.829.829,0,0,0-.721.363A1.972,1.972,0,0,0,30.907-2.329Zm5.208-2.426.04.532a1.671,1.671,0,0,1,1.367-.62,1.268,1.268,0,0,1,1.261.725,1.633,1.633,0,0,1,1.428-.725,1.418,1.418,0,0,1,1.151.45,2.07,2.07,0,0,1,.378,1.356V0H40.465V-3.032a.905.905,0,0,0-.158-.591.7.7,0,0,0-.558-.187.793.793,0,0,0-.791.545l0,3.265h-1.27V-3.028a.894.894,0,0,0-.163-.6.708.708,0,0,0-.554-.185.823.823,0,0,0-.782.448V0h-1.27V-4.755ZM47-2.333a2.879,2.879,0,0,1-.488,1.782,1.616,1.616,0,0,1-1.362.639,1.485,1.485,0,0,1-1.235-.593L43.857,0H42.715V-6.75h1.27v2.421a1.446,1.446,0,0,1,1.156-.514,1.629,1.629,0,0,1,1.365.639A2.883,2.883,0,0,1,47-2.4Zm-1.27-.092A1.892,1.892,0,0,0,45.5-3.478a.773.773,0,0,0-.681-.332.838.838,0,0,0-.835.5v1.876a.849.849,0,0,0,.844.5.784.784,0,0,0,.809-.606A3.128,3.128,0,0,0,45.729-2.426Zm4.724-1.138A3.45,3.45,0,0,0,50-3.6a.93.93,0,0,0-.945.488V0h-1.27V-4.755h1.2l.035.567a1.177,1.177,0,0,1,1.059-.655,1.331,1.331,0,0,1,.4.057Zm.174,1.143A2.82,2.82,0,0,1,50.9-3.683a2,2,0,0,1,.784-.857,2.289,2.289,0,0,1,1.189-.3,2.165,2.165,0,0,1,1.571.589,2.363,2.363,0,0,1,.679,1.6l.009.325a2.485,2.485,0,0,1-.611,1.756,2.123,2.123,0,0,1-1.639.661,2.134,2.134,0,0,1-1.641-.659,2.529,2.529,0,0,1-.613-1.793Zm1.27.092a1.773,1.773,0,0,0,.255,1.035.841.841,0,0,0,.729.358A.843.843,0,0,0,53.6-1.29a1.94,1.94,0,0,0,.259-1.132A1.755,1.755,0,0,0,53.6-3.45a.843.843,0,0,0-.729-.365.829.829,0,0,0-.721.363A1.972,1.972,0,0,0,51.9-2.329Zm6.592,1.015a.409.409,0,0,0-.231-.367,2.621,2.621,0,0,0-.74-.24q-1.7-.356-1.7-1.441a1.307,1.307,0,0,1,.525-1.057,2.118,2.118,0,0,1,1.373-.424,2.28,2.28,0,0,1,1.448.426,1.343,1.343,0,0,1,.543,1.107h-1.27a.615.615,0,0,0-.176-.45.744.744,0,0,0-.549-.178.76.76,0,0,0-.5.145.458.458,0,0,0-.176.369.391.391,0,0,0,.2.341,2.057,2.057,0,0,0,.675.224,5.51,5.51,0,0,1,.8.213,1.314,1.314,0,0,1,1.006,1.279,1.24,1.24,0,0,1-.558,1.052,2.408,2.408,0,0,1-1.441.4,2.515,2.515,0,0,1-1.061-.213,1.781,1.781,0,0,1-.727-.584,1.358,1.358,0,0,1-.264-.8h1.2a.663.663,0,0,0,.25.519.994.994,0,0,0,.624.18A.92.92,0,0,0,58.3-.951.431.431,0,0,0,58.489-1.314Z" transform="translate(613.547 20448.658)" fill="#0c1d2f"/>
    <path id="Trazado_881411" data-name="Trazado 881411" d="M84.489,237.514c.335-18.5-.018-183.255-.059-201.737" transform="translate(278.635 20403.977)" fill="none" stroke="#0c1d30" stroke-linecap="round" stroke-linejoin="round" stroke-width="1"/>
    <path id="Trazado_881412" data-name="Trazado 881412" d="M93.42,173.144a.7.7,0,0,0-.974.186L86.415,182.2l-5.485-9.214a.7.7,0,1,0-1.2.716l6.049,10.16a.7.7,0,0,0,1.182.035l6.649-9.776a.7.7,0,0,0-.185-.976" transform="translate(276.705 20458.969)" fill="#0c1d30"/>
    <path id="Trazado_881413" data-name="Trazado 881413" d="M93.191,45.831a.7.7,0,0,1-.969-.214l-5.775-9.033L80.7,45.637a.7.7,0,1,1-1.185-.751L85.853,34.9a.7.7,0,0,1,1.183,0L93.4,44.862a.7.7,0,0,1-.213.969" transform="translate(276.618 20403.494)" fill="#0c1d30"/>
    <path id="Trazado_881414" data-name="Trazado 881414" d="M255.9,237.514c.335-18.5-.018-183.255-.059-201.737" transform="translate(347.509 20403.977)" fill="none" stroke="#0c1d30" stroke-linecap="round" stroke-linejoin="round" stroke-width="1"/>
    <path id="Trazado_881415" data-name="Trazado 881415" d="M264.833,173.144a.7.7,0,0,0-.974.186l-6.031,8.868-5.485-9.214a.7.7,0,1,0-1.2.716l6.049,10.16a.7.7,0,0,0,1.182.035l6.649-9.776a.7.7,0,0,0-.185-.976" transform="translate(345.579 20458.969)" fill="#0c1d30"/>
    <path id="Trazado_881416" data-name="Trazado 881416" d="M264.6,45.831a.7.7,0,0,1-.969-.214l-5.775-9.033-5.745,9.054a.7.7,0,1,1-1.185-.751l6.335-9.984a.7.7,0,0,1,1.183,0l6.368,9.961a.7.7,0,0,1-.213.969" transform="translate(345.491 20403.494)" fill="#0c1d30"/>
    <path id="Trazado_881696" data-name="Trazado 881696" d="M0,0H481.1V264.246H0Z" transform="translate(244.711 20389.602)" fill="none"/>
  </g>
</svg>
