<svg xmlns="http://www.w3.org/2000/svg" xmlns:xlink="http://www.w3.org/1999/xlink" width="411" height="511" viewBox="0 0 411 511">
  <defs>
    <clipPath id="clip-path">
      <rect id="Rectángulo_404128" data-name="Rectángulo 404128" width="411" height="511" transform="translate(-4625 -9004)" fill="#fff" stroke="#707070" stroke-width="1"/>
    </clipPath>
  </defs>
  <g id="Enmascarar_grupo_1098834" data-name="Enmascarar grupo 1098834" transform="translate(4625 9004)" clip-path="url(#clip-path)">
    <g id="Grupo_1103491" data-name="Grupo 1103491">
      <g id="Grupo_1103490" data-name="Grupo 1103490">
        <path id="Trazado_880531" data-name="Trazado 880531" d="M211.233,74.282c-3.091.515-27.2-34-45.156-60.428" transform="translate(-4450.913 -8935.646)" fill="none" stroke="#9eb3c8" stroke-miterlimit="10" stroke-width="0.486"/>
        <path id="Trazado_880532" data-name="Trazado 880532" d="M254.872,97.32H38.463V220.608H257.341" transform="translate(-4564.704 -8861.222)" fill="none" stroke="#9eb3c8" stroke-miterlimit="10" stroke-width="0.497"/>
        <path id="Trazado_880533" data-name="Trazado 880533" d="M220.242,384.5H154.107V14.412L220.242,16.3Z" transform="translate(-4461.586 -8935.149)" fill="none" stroke="#9eb3c8" stroke-miterlimit="10" stroke-width="0.486"/>
        <path id="Trazado_880534" data-name="Trazado 880534" d="M221.852,252.462c-5.206.832-67.684-89.968-67.684-89.968" transform="translate(-4461.532 -8803.107)" fill="none" stroke="#9eb3c8" stroke-miterlimit="10" stroke-width="0.496"/>
        <path id="Trazado_880535" data-name="Trazado 880535" d="M221.852,216.352c-5.206.832-67.684-89.968-67.684-89.968" transform="translate(-4461.532 -8835.307)" fill="none" stroke="#9eb3c8" stroke-miterlimit="10" stroke-width="0.496"/>
        <path id="Trazado_880536" data-name="Trazado 880536" d="M221.852,184.646c-5.206.832-67.684-89.968-67.684-89.968" transform="translate(-4461.532 -8863.578)" fill="none" stroke="#9eb3c8" stroke-miterlimit="10" stroke-width="0.496"/>
        <path id="Trazado_880537" data-name="Trazado 880537" d="M221.852,152.939c-5.206.832-67.684-89.968-67.684-89.968" transform="translate(-4461.532 -8891.851)" fill="none" stroke="#9eb3c8" stroke-miterlimit="10" stroke-width="0.496"/>
        <path id="Trazado_880538" data-name="Trazado 880538" d="M221.852,121.233c-5.206.832-67.684-89.968-67.684-89.968" transform="translate(-4461.532 -8920.122)" fill="none" stroke="#9eb3c8" stroke-miterlimit="10" stroke-width="0.496"/>
        <path id="Trazado_880539" data-name="Trazado 880539" d="M34.5,194.774V393.035H326.892V23.171S213.6,27.334,199.438,4.844L76.984,36.5S155.288,188.11,34.5,194.774Z" transform="translate(-4568.238 -8943.681)" fill="none" stroke="#0c1d30" stroke-miterlimit="10" stroke-width="1"/>
        <path id="Trazado_880540" data-name="Trazado 880540" d="M193.6,5.5,82.169,42.885s72.555,129.272-42.285,135.037" transform="translate(-4563.437 -8943.092)" fill="none" stroke="#9eb3c8" stroke-miterlimit="10" stroke-width="0.451"/>
        <path id="Trazado_880541" data-name="Trazado 880541" d="M179.414,5.384S104.441-18.775,56.958,40.371" transform="translate(-4548.212 -8947.554)" fill="none" stroke="#9eb3c8" stroke-miterlimit="10" stroke-width="1" stroke-dasharray="5 5"/>
        <path id="Trazado_881563" data-name="Trazado 881563" d="M0,0,.619,69.277" transform="translate(-4346.616 -8629.647)" fill="none" stroke="#0c1d30" stroke-width="1"/>
        <path id="Trazado_880542" data-name="Trazado 880542" d="M130.29,182.046l1.784.63L136.209,171l4.341,11.605,1.771-.662-6.161-16.473Z" transform="translate(-4482.823 -8800.458)" fill="#0c1d30"/>
        <path id="Trazado_880543" data-name="Trazado 880543" d="M130.512,199.379l1.772-.662,4.341,11.605,4.135-11.681,1.782.63-5.866,16.581Z" transform="translate(-4482.625 -8770.876)" fill="#0c1d30"/>
        <path id="Trazado_881564" data-name="Trazado 881564" d="M0,0H359.4V398.3H0Z" transform="translate(-4599 -8948)" fill="none"/>
        <path id="Trazado_881558" data-name="Trazado 881558" d="M8.6,0H5.5V-11.967L1.794-10.817v-2.524l6.478-2.32H8.6ZM24.213-6.467A7.923,7.923,0,0,1,22.87-1.5,4.687,4.687,0,0,1,18.938.215a4.72,4.72,0,0,1-3.91-1.687,7.691,7.691,0,0,1-1.386-4.834V-9.185A7.819,7.819,0,0,1,15-14.158a4.722,4.722,0,0,1,3.916-1.7,4.726,4.726,0,0,1,3.91,1.681,7.668,7.668,0,0,1,1.386,4.829Zm-3.1-3.158a5.717,5.717,0,0,0-.532-2.831,1.8,1.8,0,0,0-1.66-.886A1.766,1.766,0,0,0,17.3-12.5a5.35,5.35,0,0,0-.553,2.637v3.8a6,6,0,0,0,.521,2.841,1.774,1.774,0,0,0,1.67.929,1.744,1.744,0,0,0,1.644-.892,5.858,5.858,0,0,0,.526-2.729Z" transform="translate(-4342.218 -8589.183)" fill="#0c1d2f"/>
        <path id="Trazado_881559" data-name="Trazado 881559" d="M9.483-5.291a6.483,6.483,0,0,1-1.1,4.061A3.835,3.835,0,0,1,5.168.176a3.862,3.862,0,0,1-3.2-1.38A6.293,6.293,0,0,1,.835-5.159V-7.515a6.4,6.4,0,0,1,1.112-4.069,3.864,3.864,0,0,1,3.2-1.389A3.867,3.867,0,0,1,8.35-11.6,6.273,6.273,0,0,1,9.483-7.646ZM6.943-7.875a4.677,4.677,0,0,0-.435-2.316,1.471,1.471,0,0,0-1.358-.725,1.445,1.445,0,0,0-1.323.69,4.378,4.378,0,0,0-.453,2.158v3.111A4.91,4.91,0,0,0,3.8-2.632a1.451,1.451,0,0,0,1.367.76A1.427,1.427,0,0,0,6.513-2.6a4.793,4.793,0,0,0,.431-2.232ZM11.962,3.208l-1.327-.694.316-.571a4.567,4.567,0,0,0,.606-2.136V-2.162H13.7L13.693-.4A4.566,4.566,0,0,1,13.2,1.564,5.047,5.047,0,0,1,11.962,3.208ZM24.293-11.373,19.345,0H16.664l4.957-10.74H15.258V-12.8h9.035Z" transform="translate(-4556.938 -8904.99)" fill="#0c1d2f"/>
        <path id="Trazado_881560" data-name="Trazado 881560" d="M8.213,0H5.25V-11.423l-3.538,1.1v-2.41L7.9-14.95h.318Z" transform="translate(-4558.187 -8735.35)" fill="#0c1d2f"/>
        <path id="Trazado_881565" data-name="Trazado 881565" d="M7.04,0H4.5V-9.791l-3.032.94v-2.065l5.3-1.9H7.04Zm4.922,3.208-1.327-.694.316-.571a4.567,4.567,0,0,0,.606-2.136V-2.162H13.7L13.693-.4A4.566,4.566,0,0,1,13.2,1.564,5.047,5.047,0,0,1,11.962,3.208Zm4.008-9.5.738-6.5H23.88v2.118H18.791l-.316,2.751A4.027,4.027,0,0,1,20.4-8.411a3.689,3.689,0,0,1,2.865,1.134A4.529,4.529,0,0,1,24.3-4.1a4.64,4.64,0,0,1-.523,2.219,3.691,3.691,0,0,1-1.5,1.521,4.678,4.678,0,0,1-2.3.541,4.968,4.968,0,0,1-2.153-.47,3.819,3.819,0,0,1-1.569-1.323,3.605,3.605,0,0,1-.611-1.942h2.514a1.878,1.878,0,0,0,.558,1.244,1.769,1.769,0,0,0,1.252.444,1.562,1.562,0,0,0,1.327-.62,2.87,2.87,0,0,0,.466-1.753,2.374,2.374,0,0,0-.536-1.67,1.967,1.967,0,0,0-1.521-.58,2.2,2.2,0,0,0-1.468.475l-.246.229Z" transform="translate(-4599 -8759.204)" fill="#0c1d2f"/>
        <path id="Trazado_881566" data-name="Trazado 881566" d="M0,0H359.4V398.3H0Z" transform="translate(-4599 -8948)" fill="none"/>
        <path id="Trazado_881561" data-name="Trazado 881561" d="M8.213,0H5.25V-11.423l-3.538,1.1v-2.41L7.9-14.95h.318Z" transform="translate(-4508.17 -8867.37)" fill="#0c1d2f"/>
        <path id="Trazado_881567" data-name="Trazado 881567" d="M0,0H44.29" transform="translate(-4298.023 -8904.078)" fill="none" stroke="#0c1d30" stroke-width="1"/>
        <path id="Trazado_880544" data-name="Trazado 880544" d="M172.807,32.07l.647-1.778-11.643-4.239,11.643-4.237-.647-1.776L156.28,26.053Z" transform="translate(-4459.649 -8930.132)" fill="#0c1d30"/>
        <path id="Trazado_880545" data-name="Trazado 880545" d="M176.912,32.07l-.647-1.778,11.643-4.239-11.643-4.237.647-1.776,16.528,6.014Z" transform="translate(-4441.828 -8930.132)" fill="#0c1d30"/>
        <path id="Trazado_881568" data-name="Trazado 881568" d="M0,0H359.4V398.3H0Z" transform="translate(-4599 -8948)" fill="none"/>
        <path id="Trazado_881562" data-name="Trazado 881562" d="M9.054-15.083v2.44H8.767A5.034,5.034,0,0,0,5.532-11.6a4.249,4.249,0,0,0-1.471,2.82,4.036,4.036,0,0,1,3-1.21,3.8,3.8,0,0,1,3.1,1.395A5.59,5.59,0,0,1,11.31-4.922a5.5,5.5,0,0,1-.631,2.635A4.523,4.523,0,0,1,8.9-.451a5.183,5.183,0,0,1-2.61.656A4.841,4.841,0,0,1,2.476-1.436,6.368,6.368,0,0,1,1.025-5.814V-6.88a9.584,9.584,0,0,1,.918-4.291,6.729,6.729,0,0,1,2.635-2.881,7.722,7.722,0,0,1,3.984-1.031ZM6.163-7.608a2.364,2.364,0,0,0-1.3.374A2.254,2.254,0,0,0,4-6.245v.9A4,4,0,0,0,4.583-3.02a1.888,1.888,0,0,0,1.641.836,1.867,1.867,0,0,0,1.543-.754,3.078,3.078,0,0,0,.59-1.953A3.072,3.072,0,0,0,7.762-6.86,1.937,1.937,0,0,0,6.163-7.608Z" transform="translate(-4283.3 -8879.23)" fill="#0c1d2f"/>
        <path id="Trazado_880546" data-name="Trazado 880546" d="M89.085,6.981a5.935,5.935,0,1,1-5.936-5.936A5.936,5.936,0,0,1,89.085,6.981Z" transform="translate(-4530.149 -8947.068)" fill="none" stroke="#9eb3c8" stroke-miterlimit="10" stroke-width="0.497"/>
        <path id="Trazado_880547" data-name="Trazado 880547" d="M38.254,148.163l-8.433,4.217,8.433,4.217v-8.433Z" transform="translate(-4572.409 -8815.887)" fill="none" stroke="#0c1d30" stroke-miterlimit="10" stroke-width="1"/>
        <path id="Trazado_881569" data-name="Trazado 881569" d="M0,0,39.8,3.343" transform="translate(-4558.415 -8763.023)" fill="none" stroke="#0c1d30" stroke-width="1.168"/>
        <path id="Trazado_880548" data-name="Trazado 880548" d="M35.574,109.278,35,107.145l13.968-3.795-13.14-6.072.927-2.005,18.65,8.618Z" transform="translate(-4567.796 -8863.048)" fill="#0c1d30"/>
        <path id="Trazado_881570" data-name="Trazado 881570" d="M0,0,39.8,3.343" transform="translate(-4525.302 -8907.346)" fill="none" stroke="#0c1d30" stroke-width="1.168"/>
        <path id="Trazado_880549" data-name="Trazado 880549" d="M53.078,32.985,52.5,30.851l13.968-3.795-13.14-6.072.927-2.005L72.905,27.6Z" transform="translate(-4552.188 -8931.077)" fill="#0c1d30"/>
        <path id="Trazado_880550" data-name="Trazado 880550" d="M37.447,121.411l-8.123-11.246,16.87-.624" transform="translate(-4572.852 -8850.325)" fill="none" stroke="#9eb3c8" stroke-miterlimit="10" stroke-width="0.497"/>
        <path id="Trazado_880551" data-name="Trazado 880551" d="M72.615,29.944,55.747,46.812l10.62,6.248" transform="translate(-4549.292 -8921.3)" fill="none" stroke="#9eb3c8" stroke-miterlimit="10" stroke-width="0.497"/>
        <path id="Trazado_881571" data-name="Trazado 881571" d="M0,0H359.4V398.3H0Z" transform="translate(-4599 -8948)" fill="none"/>
      </g>
    </g>
  </g>
</svg>
