<svg xmlns="http://www.w3.org/2000/svg" xmlns:xlink="http://www.w3.org/1999/xlink" width="368.344" height="439.099" viewBox="0 0 368.344 439.099">
  <defs>
    <clipPath id="clip-path">
      <rect id="Rectángulo_403758" data-name="Rectángulo 403758" width="368.344" height="439.099" fill="none"/>
    </clipPath>
    <clipPath id="clip-path-3">
      <rect id="Rectángulo_404130" data-name="Rectángulo 404130" width="96.548" height="31.821" fill="none" stroke="#b0c0d2" stroke-linecap="round" stroke-width="2"/>
    </clipPath>
  </defs>
  <g id="Grupo_1103496" data-name="Grupo 1103496" transform="translate(-929.711 -2759.459)">
    <path id="Trazado_881557" data-name="Trazado 881557" d="M11.258-11.483a3.638,3.638,0,0,1-.569,2.02A4.1,4.1,0,0,1,9.12-8.057a4.536,4.536,0,0,1,1.8,1.509,3.872,3.872,0,0,1,.666,2.261A4.1,4.1,0,0,1,10.173-.994,5.752,5.752,0,0,1,6.316.215,5.778,5.778,0,0,1,2.449-1,4.089,4.089,0,0,1,1.021-4.286a3.9,3.9,0,0,1,.666-2.267,4.454,4.454,0,0,1,1.794-1.5A4.056,4.056,0,0,1,1.917-9.464a3.664,3.664,0,0,1-.564-2.02,4.054,4.054,0,0,1,1.332-3.185,5.244,5.244,0,0,1,3.62-1.187A5.279,5.279,0,0,1,9.92-14.679,4.038,4.038,0,0,1,11.258-11.483ZM8.476-4.512a2.252,2.252,0,0,0-.591-1.633,2.107,2.107,0,0,0-1.59-.612,2.1,2.1,0,0,0-1.579.607,2.248,2.248,0,0,0-.591,1.638A2.247,2.247,0,0,0,4.705-2.9a2.113,2.113,0,0,0,1.611.612A2.108,2.108,0,0,0,7.9-2.879,2.243,2.243,0,0,0,8.476-4.512Zm-.322-6.821A2.149,2.149,0,0,0,7.67-12.8a1.715,1.715,0,0,0-1.364-.553,1.727,1.727,0,0,0-1.354.537,2.136,2.136,0,0,0-.483,1.482,2.245,2.245,0,0,0,.483,1.5,1.692,1.692,0,0,0,1.364.569,1.676,1.676,0,0,0,1.359-.569A2.261,2.261,0,0,0,8.153-11.333ZM14.62,3.921,13,3.072l.387-.7a5.582,5.582,0,0,0,.741-2.61V-2.643h2.621L16.736-.494a5.581,5.581,0,0,1-.6,2.406A6.169,6.169,0,0,1,14.62,3.921Zm4.9-11.612.9-7.949h8.766v2.589h-6.22L22.58-9.689a4.922,4.922,0,0,1,2.353-.591,4.508,4.508,0,0,1,3.5,1.386A5.535,5.535,0,0,1,29.7-5.017,5.671,5.671,0,0,1,29.063-2.3,4.511,4.511,0,0,1,27.231-.446a5.718,5.718,0,0,1-2.814.661A6.072,6.072,0,0,1,21.785-.36a4.668,4.668,0,0,1-1.917-1.617,4.406,4.406,0,0,1-.747-2.374h3.072a2.3,2.3,0,0,0,.682,1.52,2.163,2.163,0,0,0,1.531.542,1.909,1.909,0,0,0,1.622-.757A3.508,3.508,0,0,0,26.6-5.188a2.9,2.9,0,0,0-.655-2.041,2.4,2.4,0,0,0-1.858-.709,2.687,2.687,0,0,0-1.794.58l-.3.279Z" transform="translate(1247.137 2852.995)" fill="#0c1d2f"/>
    <path id="Trazado_881558" data-name="Trazado 881558" d="M4.03-8.777H5.609A2.225,2.225,0,0,0,7.28-9.341a2.067,2.067,0,0,0,.543-1.5,1.827,1.827,0,0,0-.538-1.4,2.086,2.086,0,0,0-1.482-.5,2.187,2.187,0,0,0-1.425.467A1.492,1.492,0,0,0,3.8-11.064H.841a3.644,3.644,0,0,1,.631-2.1,4.2,4.2,0,0,1,1.764-1.451,5.886,5.886,0,0,1,2.5-.523A5.582,5.582,0,0,1,9.444-14a3.866,3.866,0,0,1,1.343,3.122,3.141,3.141,0,0,1-.625,1.887A4.064,4.064,0,0,1,8.521-7.67,3.71,3.71,0,0,1,10.4-6.316a3.672,3.672,0,0,1,.62,2.133A3.93,3.93,0,0,1,9.572-.995a5.834,5.834,0,0,1-3.84,1.2A5.531,5.531,0,0,1,2.076-.974,3.851,3.851,0,0,1,.656-4.091H3.62A1.717,1.717,0,0,0,4.25-2.717,2.324,2.324,0,0,0,5.8-2.184,2.335,2.335,0,0,0,7.46-2.743a1.929,1.929,0,0,0,.6-1.482Q8.06-6.46,5.6-6.46H4.03Z" transform="translate(1016.867 2894.824)" fill="#0c1d2f"/>
    <path id="Trazado_881559" data-name="Trazado 881559" d="M0,29.882,30.628,0" transform="translate(1146.344 3086.672)" fill="none" stroke="#0c1d30" stroke-width="1.168"/>
    <path id="Trazado_880552" data-name="Trazado 880552" d="M124.978,178.979l-2.134-1.03,6.727-13.972-14.134,6.38-.973-2.156,20.063-9.057Z" transform="translate(1047.234 2922.857)" fill="#0c1d30"/>
    <g id="Grupo_1102900" data-name="Grupo 1102900" transform="translate(929.711 2759.459)">
      <g id="Grupo_1102899" data-name="Grupo 1102899" clip-path="url(#clip-path)">
        <path id="Trazado_880553" data-name="Trazado 880553" d="M56.615,114.421,204.772,32.31,288.667,128.7s-65.154,38.378-71.4,64.26,45.519,134.768,48.2,163.329c0,0-121.381-99.067-143.694-132.982S56.615,114.421,56.615,114.421Z" transform="translate(58.129 33.174)" fill="none" stroke="#0c1d30" stroke-miterlimit="10" stroke-width="1"/>
        <line id="Línea_4360" data-name="Línea 4360" y1="47.302" transform="translate(325.376 389.465)" fill="none" stroke="#0c1d30" stroke-miterlimit="10" stroke-width="1"/>
        <path id="Trazado_880554" data-name="Trazado 880554" d="M66.3,304.1V242.516s98.175-2.677,51.765-111.564" transform="translate(68.076 134.454)" fill="none" stroke="#0c1d30" stroke-miterlimit="10" stroke-width="1"/>
        <line id="Línea_4361" data-name="Línea 4361" x2="192.781" transform="translate(133.487 438.309)" fill="none" stroke="#9eb3c8" stroke-miterlimit="10" stroke-width="0.779" stroke-dasharray="3.897 3.897"/>
        <line id="Línea_4362" data-name="Línea 4362" x2="75.583" y2="85.449" transform="translate(277.261 57.197)" fill="none" stroke="#0c1d30" stroke-miterlimit="10" stroke-width="1"/>
        <path id="Trazado_880555" data-name="Trazado 880555" d="M141.832,43.638l1.887-.744-4.864-12.353,11.666,6.336.967-1.779-16.558-8.993Z" transform="translate(138.537 26.803)" fill="#0c1d30"/>
        <path id="Trazado_880556" data-name="Trazado 880556" d="M167.8,72.388l.969-1.782,11.666,6.336-4.864-12.353,1.885-.742,6.905,17.533Z" transform="translate(172.283 65.555)" fill="#0c1d30"/>
      </g>
    </g>
    <path id="Trazado_881560" data-name="Trazado 881560" d="M11.249,0H1.015V-2.03l4.83-5.147a11.915,11.915,0,0,0,1.471-1.9,3.048,3.048,0,0,0,.477-1.538,2.28,2.28,0,0,0-.5-1.564,1.814,1.814,0,0,0-1.436-.569,1.956,1.956,0,0,0-1.584.692,2.742,2.742,0,0,0-.579,1.82H.718a4.894,4.894,0,0,1,.651-2.492,4.589,4.589,0,0,1,1.841-1.769,5.594,5.594,0,0,1,2.7-.641A5.3,5.3,0,0,1,9.49-14.027,3.918,3.918,0,0,1,10.767-10.9a5.02,5.02,0,0,1-.574,2.256A12.536,12.536,0,0,1,8.224-5.968L4.83-2.389h6.419Z" transform="translate(1079.019 3024.662)" fill="#0c1d2f"/>
    <path id="Trazado_881561" data-name="Trazado 881561" d="M8.6,0H5.5V-11.983L1.794-10.839v-2.5l6.478-2.32H8.6ZM14.62,3.921,13,3.072l.387-.7a5.582,5.582,0,0,0,.741-2.61V-2.643h2.621L16.736-.494a5.581,5.581,0,0,1-.6,2.406A6.169,6.169,0,0,1,14.62,3.921Zm4.9-11.612.9-7.949h8.766v2.589h-6.22L22.58-9.689a4.922,4.922,0,0,1,2.353-.591,4.508,4.508,0,0,1,3.5,1.386A5.535,5.535,0,0,1,29.7-5.017,5.671,5.671,0,0,1,29.063-2.3,4.511,4.511,0,0,1,27.231-.446a5.718,5.718,0,0,1-2.814.661A6.072,6.072,0,0,1,21.785-.36a4.668,4.668,0,0,1-1.917-1.617,4.406,4.406,0,0,1-.747-2.374h3.072a2.3,2.3,0,0,0,.682,1.52,2.163,2.163,0,0,0,1.531.542,1.909,1.909,0,0,0,1.622-.757A3.508,3.508,0,0,0,26.6-5.188a2.9,2.9,0,0,0-.655-2.041,2.4,2.4,0,0,0-1.858-.709,2.687,2.687,0,0,0-1.794.58l-.3.279Z" transform="translate(1127.223 3135.446)" fill="#0c1d2f"/>
    <g id="Grupo_1102902" data-name="Grupo 1102902" transform="translate(929.711 2759.459)">
      <g id="Grupo_1102901" data-name="Grupo 1102901" clip-path="url(#clip-path)">
        <path id="Trazado_881562" data-name="Trazado 881562" d="M11.591-6.467A7.923,7.923,0,0,1,10.248-1.5,4.687,4.687,0,0,1,6.316.215a4.72,4.72,0,0,1-3.91-1.687A7.691,7.691,0,0,1,1.021-6.306V-9.185a7.819,7.819,0,0,1,1.359-4.974,4.722,4.722,0,0,1,3.916-1.7,4.726,4.726,0,0,1,3.91,1.681,7.668,7.668,0,0,1,1.386,4.829Zm-3.1-3.165a5.727,5.727,0,0,0-.532-2.833,1.8,1.8,0,0,0-1.66-.887,1.765,1.765,0,0,0-1.617.844,5.36,5.36,0,0,0-.553,2.64v3.806a6.012,6.012,0,0,0,.521,2.844,1.773,1.773,0,0,0,1.67.93A1.743,1.743,0,0,0,7.96-3.181a5.868,5.868,0,0,0,.526-2.731ZM14.62,3.921,13,3.072l.387-.7a5.582,5.582,0,0,0,.741-2.61V-2.643h2.621L16.736-.494a5.581,5.581,0,0,1-.6,2.406A6.169,6.169,0,0,1,14.62,3.921ZM29.777,0H19.057V-2.127l5.06-5.393a12.482,12.482,0,0,0,1.542-1.987,3.193,3.193,0,0,0,.5-1.611,2.389,2.389,0,0,0-.526-1.638,1.9,1.9,0,0,0-1.5-.6,2.049,2.049,0,0,0-1.66.725,2.872,2.872,0,0,0-.607,1.907H18.745a5.128,5.128,0,0,1,.682-2.61,4.808,4.808,0,0,1,1.928-1.853,5.861,5.861,0,0,1,2.825-.671,5.549,5.549,0,0,1,3.754,1.16,4.1,4.1,0,0,1,1.337,3.276,5.259,5.259,0,0,1-.6,2.363,13.133,13.133,0,0,1-2.062,2.8L23.053-2.5h6.725Z" transform="translate(333.359 356.345)" fill="#0c1d2f"/>
        <path id="Trazado_880557" data-name="Trazado 880557" d="M198.395,37.154,66.3,113.017l67.831,99.069s62.474,83,116.025,115.133" transform="translate(68.077 38.147)" fill="none" stroke="#9eb3c8" stroke-miterlimit="10" stroke-width="1" stroke-dasharray="5 5"/>
        <path id="Trazado_880558" data-name="Trazado 880558" d="M.249,49.925c0,2.677,55.334,66.937,55.334,66.937s64.26-41.947,107.993,55.336" transform="translate(0.256 51.26)" fill="none" stroke="#9eb3c8" stroke-miterlimit="10" stroke-width="0.497"/>
        <line id="Línea_4363" data-name="Línea 4363" x2="57.12" y2="65.154" transform="translate(205.78 0.331)" fill="none" stroke="#9eb3c8" stroke-miterlimit="10" stroke-width="0.497"/>
        <line id="Línea_4364" data-name="Línea 4364" x1="189.212" y2="92.821" transform="translate(7.643 4.794)" fill="none" stroke="#9eb3c8" stroke-miterlimit="10" stroke-width="1" stroke-dasharray="5 5"/>
      </g>
    </g>
    <g id="Grupo_1103488" data-name="Grupo 1103488" transform="translate(1107.281 2991.31)" clip-path="url(#clip-path-3)">
      <path id="Trazado_881529" data-name="Trazado 881529" d="M7.681,30.794S97.626,1.023,95.727.39.079,20.025.079,20.025" transform="translate(0.073 0.345)" fill="none" stroke="#b0c0d2" stroke-linecap="round" stroke-miterlimit="10" stroke-width="2"/>
    </g>
  </g>
</svg>
