<svg xmlns="http://www.w3.org/2000/svg" xmlns:xlink="http://www.w3.org/1999/xlink" width="190" height="138" viewBox="0 0 190 138">
  <defs>
    <clipPath id="clip-path">
      <rect id="Rect치ngulo_403711" data-name="Rect치ngulo 403711" width="190" height="138" transform="translate(284.711 908)" fill="#fff" stroke="#707070" stroke-width="1"/>
    </clipPath>
    <clipPath id="clip-path-2">
      <rect id="Rect치ngulo_403710" data-name="Rect치ngulo 403710" width="106.97" height="102.764" fill="#fa87b8"/>
    </clipPath>
  </defs>
  <g id="Enmascarar_grupo_1098821" data-name="Enmascarar grupo 1098821" transform="translate(-284.711 -908)" clip-path="url(#clip-path)">
    <g id="Grupo_1102830" data-name="Grupo 1102830" transform="translate(325.866 925.677)">
      <g id="Grupo_1102829" data-name="Grupo 1102829" transform="translate(0 0)" clip-path="url(#clip-path-2)">
        <path id="Trazado_880339" data-name="Trazado 880339" d="M106.429,38.472A10.372,10.372,0,0,0,96.4,31.218H71.253L63.493,7.266a10.553,10.553,0,0,0-20.054,0l-7.76,23.915H10.531a10.553,10.553,0,0,0-6.2,19.076L24.674,65.033,16.912,88.95a10.335,10.335,0,0,0,3.917,11.767,10.389,10.389,0,0,0,12.384,0L53.467,85.941,73.81,100.717A10.534,10.534,0,0,0,90.02,88.95L82.26,65.033,102.6,50.257A10.407,10.407,0,0,0,106.429,38.472Zm-7.035,7.47L77.455,61.879a2.737,2.737,0,0,0-.979,3.046l8.377,25.784a5.1,5.1,0,0,1-7.816,5.621L55.061,80.392a2.717,2.717,0,0,0-3.191,0L29.9,96.33a5.1,5.1,0,0,1-7.851-5.713l8.377-25.784a2.74,2.74,0,0,0-.979-3.046L7.538,45.941a5.113,5.113,0,0,1,2.993-9.228h27.2A2.723,2.723,0,0,0,40.3,34.9L48.625,8.952a5.1,5.1,0,0,1,9.683,0l8.394,25.8a2.721,2.721,0,0,0,2.575,1.813h27.2a5.113,5.113,0,0,1,2.918,9.374Z" transform="translate(0 -0.001)" fill="#fa87b8"/>
        <path id="Trazado_880340" data-name="Trazado 880340" d="M35.549,13.854a8.377,8.377,0,0,0-8.369,8.384c0,.227.01.455.028.682L29.022,45.6a6.564,6.564,0,0,0,13.091,0l1.813-22.664A8.375,8.375,0,0,0,36.267,13.9c-.227-.018-.455-.028-.682-.028Zm1.125,31.277a1.124,1.124,0,0,1-2.248,0L32.612,22.467a2.894,2.894,0,0,1,.762-2.232,2.939,2.939,0,0,1,4.151-.164q.085.08.164.164a2.894,2.894,0,0,1,.762,2.232Z" transform="translate(17.916 9.132)" fill="#fa87b8"/>
        <path id="Trazado_880341" data-name="Trazado 880341" d="M34.732,37.525a6.292,6.292,0,1,0,6.273,6.31v-.018a6.291,6.291,0,0,0-6.273-6.292m0,7.252a.852.852,0,1,1,.835-.869v.035a.834.834,0,0,1-.835.835" transform="translate(18.735 24.735)" fill="#fa87b8"/>
      </g>
    </g>
  </g>
</svg>
