<svg id="Grupo_1102773" data-name="Grupo 1102773" xmlns="http://www.w3.org/2000/svg" width="47.54" height="47.54" viewBox="0 0 47.54 47.54">
  <rect id="Rectángulo_403688" data-name="Rectángulo 403688" width="47.54" height="47.54" fill="#fa6d5f"/>
  <g id="bosquejo" transform="translate(4.597 2.912)">
    <path id="Trazado_879427" data-name="Trazado 879427" d="M41.086,11.742v6.184L35.7,23.309,40.089,27.7l1-1V45.371a.833.833,0,0,1-.833.833H11.292a.833.833,0,0,1-.833-.833V6.153a.833.833,0,0,1,.833-.833H34.66Z" transform="translate(-10.042 -4.903)" fill="#efefef"/>
    <path id="Trazado_879429" data-name="Trazado 879429" d="M70.635,89.149a59.5,59.5,0,0,1-18.044,0,.512.512,0,0,1-.383-.723,40.663,40.663,0,0,0,4.139-17.359.512.512,0,0,1,.512-.507h1.383a.507.507,0,0,1,.51.508v1.265a2.86,2.86,0,0,0,5.72,0V71.068a.509.509,0,0,1,.512-.508h1.388a.51.51,0,0,1,.508.5,38.794,38.794,0,0,0,1.29,9.655q.257.97.567,1.936l-.595,1.723,1.055-.363c.13.365.265.728.4,1.093l0,0c.423,1.1.893,2.2,1.415,3.316A.51.51,0,0,1,70.635,89.149Z" transform="translate(-44.794 -59.273)" fill="#30c197"/>
    <path id="Trazado_879431" data-name="Trazado 879431" d="M172.745,79.207l-6.409,6.409-4.387-4.387,5.384-5.384,1.025-1.025Z" transform="translate(-136.29 -62.823)" fill="#aaedda"/>
    <path id="Trazado_879432" data-name="Trazado 879432" d="M154.769,117.659l-3.036,1.048-3.664,1.264,1.265-3.664,1.048-3.038c.57.57,1.025,1.025,1.395,1.393l1.6,1.6Z" transform="translate(-124.723 -94.866)" fill="#ffcac2"/>
    <path id="Trazado_879433" data-name="Trazado 879433" d="M178.327,84.781,171.92,91.19l-1.6-1.6,6.407-6.407Z" transform="translate(-143.265 -69.79)" fill="#eee"/>
    <path id="Trazado_879434" data-name="Trazado 879434" d="M202.036,65.014l4.389,4.389-1.635,1.635L203.4,69.643l-3-3Z" transform="translate(-168.334 -54.651)" fill="#636363"/>
    <path id="Trazado_879435" data-name="Trazado 879435" d="M213.763,56.549l1.8,1.8a1.833,1.833,0,0,1,0,2.592l-.963.963-4.389-4.389.963-.963a1.833,1.833,0,0,1,2.592,0Z" transform="translate(-176.507 -47.148)" fill="#3fc49e"/>
    <path id="Trazado_879436" data-name="Trazado 879436" d="M151.733,133.9l-2.609.9-1.055.363.595-1.722.67-1.941Z" transform="translate(-124.723 -110.058)" fill="#4a4842"/>
    <path id="Trazado_879441" data-name="Trazado 879441" d="M130.833,100.357q-.071-.243-.138-.486a.417.417,0,1,1,.8-.223q.066.238.135.476a.417.417,0,1,1-.8.233Zm-.556-2.117a39.688,39.688,0,0,1-.881-5.417.417.417,0,0,1,.83-.077,38.859,38.859,0,0,0,.863,5.3.417.417,0,0,1-.811.19Z" transform="translate(-109.159 -77.446)" fill="#ffcbc3"/>
    <path id="Trazado_879442" data-name="Trazado 879442" d="M95,115.75l-.616.616a.417.417,0,0,0,.589.589l.955-.955.955.955a.417.417,0,1,0,.589-.589l-.616-.616a2.681,2.681,0,0,0,1.409-.52,1.524,1.524,0,0,0,0-2.157,1.5,1.5,0,0,0-2.337.247,1.5,1.5,0,0,0-2.337-.247,1.527,1.527,0,0,0,0,2.157A2.68,2.68,0,0,0,95,115.75Zm1.7-2.088a.692.692,0,0,1,.979.979,2.968,2.968,0,0,1-1.3.325A2.972,2.972,0,0,1,96.7,113.662Zm-2.518,0a.692.692,0,0,1,.979,0,2.965,2.965,0,0,1,.325,1.3,2.966,2.966,0,0,1-1.3-.325A.693.693,0,0,1,94.18,113.662Z" transform="translate(-78.95 -94.33)"/>
    <path id="Trazado_879443" data-name="Trazado 879443" d="M53.914,89.49H33.75V68.471a.417.417,0,0,0-.417-.417H32a.417.417,0,1,0,0,.833h.921v4.526H32a.417.417,0,1,0,0,.833h.921v4.526H32a.417.417,0,1,0,0,.833h.921v4.526H32a.417.417,0,1,0,0,.833h.921v4.77l-.824.824a.417.417,0,0,0,.589.589l.824-.824H37.42v.921a.417.417,0,1,0,.833,0v-.921h4.526v.921a.417.417,0,1,0,.833,0v-.921h4.526v.921a.417.417,0,1,0,.833,0v-.921H53.5v.921a.417.417,0,1,0,.833,0V89.906A.416.416,0,0,0,53.914,89.49Z" transform="translate(-27.643 -57.184)"/>
    <path id="Trazado_879444" data-name="Trazado 879444" d="M47.306,16.9a2.252,2.252,0,0,0,0-3.181l-1.8-1.8a2.252,2.252,0,0,0-3.181,0c-2.6,2.6-2.856,2.858-2.909,2.911V9.658a.442.442,0,0,0-.122-.295L32.871,2.942a.434.434,0,0,0-.295-.122H9.209a1.251,1.251,0,0,0-1.25,1.25V43.288a1.251,1.251,0,0,0,1.25,1.25h28.96a1.251,1.251,0,0,0,1.25-1.25v-18.5c3.466-3.466,6.648-6.646,7.887-7.885ZM32.993,4.242l5,5H33.409a.417.417,0,0,1-.417-.417Zm5.593,39.046a.417.417,0,0,1-.417.417H9.209a.417.417,0,0,1-.417-.417V4.07a.417.417,0,0,1,.417-.417H32.16V8.826a1.251,1.251,0,0,0,1.25,1.25h5.176v5.593L37.345,16.91a.417.417,0,0,0,0,.59.427.427,0,0,0,.588,0l0,0,2.091-2.092.8.8-5.818,5.818-.805-.8,1.37-1.37a.416.416,0,0,0,0-.588.429.429,0,0,0-.59,0l-1.645,1.647a.452.452,0,0,0-.117.175l-1.3,3.76A38.306,38.306,0,0,1,30.46,14.607a.929.929,0,0,0-.925-.916H28.148a.927.927,0,0,0-.928.925V15.88a2.444,2.444,0,0,1-4.887,0V14.616a.927.927,0,0,0-.927-.925H20.023a.932.932,0,0,0-.928.918,40.069,40.069,0,0,1-4.1,17.19.928.928,0,0,0,.7,1.31,59.872,59.872,0,0,0,18.171,0,.927.927,0,0,0,.694-1.311c-.606-1.3-1.168-2.633-1.661-3.98l5.246-1.81a.43.43,0,0,0,.158-.1l.286-.286V43.288ZM24.777,19.156a3.28,3.28,0,0,0,3.276-3.276V14.616a.092.092,0,0,1,.095-.092h1.388a.093.093,0,0,1,.092.093A39.111,39.111,0,0,0,31.462,26.2l-.55,1.594a.417.417,0,0,0,.53.53l.667-.23c.509,1.391,1.085,2.754,1.7,4.062a.094.094,0,0,1-.066.133,59.033,59.033,0,0,1-17.918,0,.1.1,0,0,1-.069-.135,40.863,40.863,0,0,0,4.178-17.53.1.1,0,0,1,.095-.095h1.383a.091.091,0,0,1,.093.092V15.88a3.28,3.28,0,0,0,3.277,3.276Zm7.2,8.1.768-2.225L34.2,26.485Zm1.07-3.1.746-2.162,3.446,3.447-2.161.746ZM35.6,22.617,41.42,16.8l1.012,1.012L36.614,23.63Zm2.4,2.407-.8-.805L43.021,18.4l.8.8Zm6.409-6.408-3.8-3.8,1.044-1.044,3.8,3.8Zm-2.167-5.434.668-.668a1.416,1.416,0,0,1,2,0l1.8,1.8a1.416,1.416,0,0,1,0,2l-.668.668Z" transform="translate(-7.959 -2.82)"/>
    <path id="Trazado_879445" data-name="Trazado 879445" d="M177.219,94.443a.417.417,0,0,0,0-.588.423.423,0,0,0-.588,0,.416.416,0,1,0,.588.588Z" transform="translate(-148.424 -78.587)"/>
    <g id="Grupo_1102772" data-name="Grupo 1102772" transform="translate(9.047 26.742)">
      <path id="Trazado_879446" data-name="Trazado 879446" d="M64.784,165.7a.417.417,0,1,1,.075-.83,57.443,57.443,0,0,0,11.9-.165c-.118-.279-.233-.557-.344-.831a.417.417,0,1,1,.773-.312c.176.435.362.88.555,1.322a.417.417,0,0,1-.329.58,58.28,58.28,0,0,1-12.626.236Zm-1.669-.175-.5-.062a.417.417,0,0,1,.106-.826l.492.061a.417.417,0,1,1-.1.827Z" transform="translate(-62.251 -163.305)" fill="#ffcbc3"/>
    </g>
  </g>
</svg>
