<svg xmlns="http://www.w3.org/2000/svg" xmlns:xlink="http://www.w3.org/1999/xlink" width="131.766" height="131.766" viewBox="0 0 131.766 131.766">
  <defs>
    <clipPath id="clip-path">
      <rect id="Rectángulo_403739" data-name="Rectángulo 403739" width="131.766" height="131.766" fill="none"/>
    </clipPath>
  </defs>
  <g id="Grupo_1102874" data-name="Grupo 1102874" transform="translate(-314.711 -1701)">
    <rect id="Rectángulo_403734" data-name="Rectángulo 403734" width="131.766" height="131.766" transform="translate(314.711 1701)" fill="#ec746d"/>
    <g id="Grupo_1102873" data-name="Grupo 1102873" transform="translate(314.711 1701)">
      <g id="Grupo_1102872" data-name="Grupo 1102872" transform="translate(0 0)" clip-path="url(#clip-path)">
        <path id="Trazado_880447" data-name="Trazado 880447" d="M69.765,104.3h-6.5c.181-.132.373-.252.542-.4a1.664,1.664,0,0,0,.347-2.228,1.717,1.717,0,0,0-2.246-.612,1.662,1.662,0,0,0-.8,2.109,5.413,5.413,0,0,0,.961,1.128h-6.5c1.037-.743,1.341-1.35,1.086-2.168-.287-.924-.874-1.252-2.238-1.252q-8.512,0-17.025,0H36.375V99.718q0-26.092,0-52.182a5.291,5.291,0,0,0-.062-1.106,1.674,1.674,0,0,0-1.8-1.375,1.653,1.653,0,0,0-1.585,1.509,7.919,7.919,0,0,0-.048,1.108q0,13.688,0,27.374v1.131h-9.13c-.016-.251-.038-.447-.038-.643q0-20.274.008-40.548a8.809,8.809,0,0,1,5.668-8.3c2.31-.852,4.716-1.442,7.008-2.13.115.064.148.071.163.091.087.113.171.227.251.344a24.6,24.6,0,0,0,15.654,10.59,5.655,5.655,0,0,1,3.228,1.793c1.026,1.131,2.16,2.166,3.329,3.325l-.455.139A15.632,15.632,0,0,0,47.131,55.49c-.041,1.519.589,2.178,2.089,2.121a15.374,15.374,0,0,0,13.062-7.628c.143-.226.3-.446.442-.666.094.061.125.072.138.093.121.192.237.387.359.579a15.382,15.382,0,0,0,13.064,7.622c1.466.055,2.119-.595,2.08-2.044a15.322,15.322,0,0,0-5.085-11.187,15.64,15.64,0,0,0-6.759-3.651c1.621-1.628,3.161-3.182,4.717-4.717a1.1,1.1,0,0,1,.553-.162A24.884,24.884,0,0,0,88.547,25.057a.764.764,0,0,1,1.046-.345c1.791.555,3.6,1.038,5.4,1.576a9.04,9.04,0,0,1,6.794,9.133q.009,19.932,0,39.864v.887H92.566V75.1q0-13.774,0-27.546a8.836,8.836,0,0,0-.035-1.025,1.608,1.608,0,0,0-1.442-1.452,1.558,1.558,0,0,0-1.789.993,3.757,3.757,0,0,0-.18,1.335q-.013,26.176-.007,52.353v1.127H88.065q-8.727,0-17.454,0c-1.4,0-2.292,1.095-1.806,2.288a4.784,4.784,0,0,0,.96,1.131" transform="translate(4.783 4.956)" fill="#ffecb0"/>
        <path id="Trazado_880448" data-name="Trazado 880448" d="M70.353,105.625a4.75,4.75,0,0,1-.959-1.131c-.487-1.193.4-2.286,1.805-2.287q8.728-.009,17.454,0H89.7v-1.127q0-26.176.007-52.353a3.746,3.746,0,0,1,.18-1.334,1.559,1.559,0,0,1,1.789-.994,1.608,1.608,0,0,1,1.442,1.453,8.806,8.806,0,0,1,.035,1.024q0,13.774,0,27.546v1.074h9.224v-.888q0-19.932,0-39.864a9.04,9.04,0,0,0-6.794-9.133c-1.8-.537-3.61-1.019-5.4-1.576a.765.765,0,0,0-1.046.345A24.884,24.884,0,0,1,72.381,37.17a1.106,1.106,0,0,0-.553.162c-1.556,1.536-3.1,3.089-4.717,4.717A15.665,15.665,0,0,1,73.87,45.7a15.322,15.322,0,0,1,5.085,11.187c.038,1.449-.614,2.1-2.08,2.045A15.386,15.386,0,0,1,63.81,51.31c-.123-.191-.238-.387-.359-.579-.013-.02-.044-.03-.138-.093-.147.221-.3.44-.442.666a15.374,15.374,0,0,1-13.062,7.628c-1.5.056-2.13-.6-2.089-2.121A15.632,15.632,0,0,1,59.153,42.166c.1-.029.2-.06.455-.139-1.169-1.16-2.3-2.194-3.328-3.325a5.669,5.669,0,0,0-3.229-1.793A24.6,24.6,0,0,1,37.4,26.319c-.081-.118-.165-.232-.251-.345-.016-.02-.048-.028-.163-.09-2.292.686-4.7,1.276-7.008,2.128a8.81,8.81,0,0,0-5.668,8.3q-.029,20.274-.008,40.548c0,.2.023.392.038.643h9.13V76.37q0-13.688,0-27.374a7.928,7.928,0,0,1,.048-1.109A1.653,1.653,0,0,1,35.1,46.377,1.673,1.673,0,0,1,36.9,47.753a5.275,5.275,0,0,1,.062,1.1q0,26.092,0,52.182v1.166H55c1.364,0,1.95.329,2.238,1.252.255.818-.049,1.425-1.086,2.168H34.59a8.176,8.176,0,0,1-1.022-1.378,3.168,3.168,0,0,1-.1-1.264c-.01-1.382,0-2.765,0-4.2H32.4q-4.748,0-9.5,0c-1.459,0-2.074-.6-2.108-2.068-.012-.57,0-1.14,0-1.71q0-28.958,0-57.913c0-6.453,3.474-11.09,9.641-12.889,6.411-1.871,12.829-3.724,19.233-5.619a13.777,13.777,0,0,1,4.026-.566c6.816.031,13.632.007,20.448.026a6.821,6.821,0,0,1,1.84.269c5.815,1.67,11.634,3.329,17.429,5.07A29.429,29.429,0,0,1,99.7,25.7c4.28,2.471,6.184,6.435,6.183,11.345q0,29.639,0,59.281c0,.143,0,.286,0,.428-.047,1.407-.671,2.027-2.061,2.03q-4.835.005-9.668,0h-1c0,1.548-.044,3,.016,4.443a2.476,2.476,0,0,1-1.084,2.4ZM66.4,33.863c8.226.882,15.957-3.388,19.472-8.983-.037-.04-.068-.1-.114-.118-3.322-.976-6.642-1.96-9.975-2.9a1,1,0,0,0-.8.373c-1.011,1.305-1.975,2.645-2.954,3.974-1.853,2.519-3.705,5.038-5.625,7.65M40.7,24.834c2.9,5.622,13.6,10.547,19.379,8.968a1.128,1.128,0,0,0-.1-.222c-2.8-3.807-5.592-7.617-8.416-11.4a.948.948,0,0,0-.821-.245c-2.327.637-4.64,1.318-6.956,1.991-1.026.3-2.049.606-3.09.913m30.49-3.319H55.407L63.3,32.229l7.888-10.714M93.2,95.307h9.118V87.885H93.2ZM33.4,87.9H24.344v7.422H33.4ZM51.411,55.315c5.208-.866,9.436-5.136,9.965-10.01a11.81,11.81,0,0,0-9.965,10.01M65.265,45.261c.912,6.295,6.59,9.851,10.013,9.964a11.975,11.975,0,0,0-10.013-9.964m27.95,39.1h9.108V81.025H93.215Zm-59.8-3.316H24.342v3.3h9.076ZM63.331,40.607c1.035-1.03,2.131-2.119,3.182-3.164a12.891,12.891,0,0,0-6.371.016l3.188,3.149" transform="translate(4.195 3.635)" fill="#0c1d30"/>
        <path id="Trazado_880449" data-name="Trazado 880449" d="M55.809,91.492a5.426,5.426,0,0,1-.964-1.128,1.662,1.662,0,0,1,.8-2.109,1.717,1.717,0,0,1,2.246.612,1.664,1.664,0,0,1-.347,2.228c-.169.145-.361.266-.542.4Z" transform="translate(11.039 17.768)" fill="#161615"/>
        <path id="Trazado_880450" data-name="Trazado 880450" d="M58.744,33.218c1.922-2.613,3.774-5.132,5.627-7.649.978-1.33,1.943-2.67,2.953-3.975a1,1,0,0,1,.8-.373c3.334.937,6.653,1.92,9.976,2.9.046.013.076.077.113.118C74.7,29.83,66.971,34.1,58.744,33.218" transform="translate(11.853 4.28)" fill="#b3e0f8"/>
        <path id="Trazado_880451" data-name="Trazado 880451" d="M37.355,24.18c1.04-.308,2.063-.615,3.089-.913,2.316-.673,4.63-1.354,6.956-1.991a.953.953,0,0,1,.822.245c2.824,3.788,5.617,7.6,8.415,11.4a1.092,1.092,0,0,1,.1.222c-5.776,1.579-16.48-3.346-19.379-8.968" transform="translate(7.537 4.289)" fill="#b3e0f8"/>
        <path id="Trazado_880452" data-name="Trazado 880452" d="M65.376,20.927c-2.643,3.59-5.231,7.1-7.89,10.714L49.594,20.927Z" transform="translate(10.007 4.222)" fill="#f9cac1"/>
        <rect id="Rectángulo_403735" data-name="Rectángulo 403735" width="9.118" height="7.422" transform="translate(97.39 91.521)" fill="#4fa1db"/>
        <rect id="Rectángulo_403736" data-name="Rectángulo 403736" width="9.054" height="7.422" transform="translate(28.538 91.534)" fill="#4fa1db"/>
        <path id="Trazado_880453" data-name="Trazado 880453" d="M46.27,50.733a11.81,11.81,0,0,1,9.965-10.01c-.528,4.873-4.757,9.144-9.965,10.01" transform="translate(9.336 8.217)" fill="#b3e0f8"/>
        <path id="Trazado_880454" data-name="Trazado 880454" d="M57.8,40.686A11.974,11.974,0,0,1,67.811,50.65c-3.423-.112-9.1-3.668-10.013-9.964" transform="translate(11.662 8.209)" fill="#b3e0f8"/>
        <rect id="Rectángulo_403737" data-name="Rectángulo 403737" width="9.108" height="3.333" transform="translate(97.409 84.66)" fill="#b3e0f8"/>
        <rect id="Rectángulo_403738" data-name="Rectángulo 403738" width="9.076" height="3.3" transform="translate(28.537 84.677)" fill="#b3e0f8"/>
        <path id="Trazado_880455" data-name="Trazado 880455" d="M56.724,37.411l-3.188-3.149a12.891,12.891,0,0,1,6.371-.016c-1.052,1.046-2.148,2.134-3.182,3.164" transform="translate(10.802 6.831)" fill="#eb736d"/>
      </g>
    </g>
  </g>
</svg>
