<svg xmlns="http://www.w3.org/2000/svg" xmlns:xlink="http://www.w3.org/1999/xlink" width="72" height="72" viewBox="0 0 72 72">
  <defs>
    <clipPath id="clip-path">
      <rect id="Rect치ngulo_404110" data-name="Rect치ngulo 404110" width="51.288" height="66.596" fill="none"/>
    </clipPath>
  </defs>
  <g id="Grupo_1103486" data-name="Grupo 1103486" transform="translate(-264.571 -896)">
    <rect id="Rect치ngulo_402033" data-name="Rect치ngulo 402033" width="72" height="72" rx="5" transform="translate(264.571 896)" fill="#ff98c6"/>
    <g id="Grupo_1103485" data-name="Grupo 1103485">
      <g id="Grupo_1103474" data-name="Grupo 1103474" transform="translate(275.571 899)">
        <g id="Grupo_1103473" data-name="Grupo 1103473" clip-path="url(#clip-path)">
          <path id="Trazado_881426" data-name="Trazado 881426" d="M108.7,47.472a2.984,2.984,0,0,1,2.45-.856L103.5,38.972l-1.076,3.464,5.745,5.745A3,3,0,0,1,108.7,47.472Z" transform="translate(-63.493 -24.158)" fill="#ab9d9d"/>
          <path id="Trazado_881427" data-name="Trazado 881427" d="M99.47,77a2.975,2.975,0,0,1,.84,1.675l7.443-7.443a2.983,2.983,0,0,1-2.43-2.11L98.2,76.247A2.98,2.98,0,0,1,99.47,77Z" transform="translate(-60.871 -42.848)" fill="#ab9d9d"/>
          <path id="Trazado_881428" data-name="Trazado 881428" d="M121.727,59.9a2.992,2.992,0,1,1-4.231,0,2.992,2.992,0,0,1,4.231,0" transform="translate(-72.289 -36.59)" fill="#efabcd"/>
          <path id="Trazado_881429" data-name="Trazado 881429" d="M120.1,64.139a2.985,2.985,0,0,1,.815-4.807,2.99,2.99,0,1,0,0,5.383,2.984,2.984,0,0,1-.815-.576" transform="translate(-72.289 -36.593)" fill="#e35f97"/>
          <path id="Trazado_881430" data-name="Trazado 881430" d="M90.413,88.418a1.562,1.562,0,0,0,.179.33A21.436,21.436,0,0,1,93.1,93.47a2.992,2.992,0,1,0-2.688-5.053Z" transform="translate(-56.044 -54.265)" fill="#e77bab"/>
          <path id="Trazado_881431" data-name="Trazado 881431" d="M90.413,88.418a1.562,1.562,0,0,0,.179.33q.441.616.845,1.292a3.026,3.026,0,0,1,.276-.32,2.993,2.993,0,0,1,3.477-.547,2.99,2.99,0,0,0-4.777-.754Z" transform="translate(-56.044 -54.265)" fill="#e35f97"/>
          <path id="Trazado_881432" data-name="Trazado 881432" d="M12,47.472a2.989,2.989,0,0,1,.525.709l5.745-5.745L17.2,38.972,9.553,46.616a2.984,2.984,0,0,1,2.45.856" transform="translate(-5.922 -24.158)" fill="#ab9d9d"/>
          <path id="Trazado_881433" data-name="Trazado 881433" d="M19.873,77a2.982,2.982,0,0,1,1.269-.755l-7.123-7.123a2.984,2.984,0,0,1-2.43,2.11l7.443,7.443A2.975,2.975,0,0,1,19.873,77Z" transform="translate(-7.184 -42.848)" fill="#ab9d9d"/>
          <path id="Trazado_881434" data-name="Trazado 881434" d="M3.438,59.9a2.992,2.992,0,1,0,4.231,0,2.992,2.992,0,0,0-4.231,0" transform="translate(-1.588 -36.59)" fill="#efabcd"/>
          <path id="Trazado_881435" data-name="Trazado 881435" d="M6.039,64.139a2.985,2.985,0,0,1,.815-4.807,2.99,2.99,0,1,0,0,5.383,2.984,2.984,0,0,1-.815-.576" transform="translate(-1.588 -36.593)" fill="#e35f97"/>
          <path id="Trazado_881436" data-name="Trazado 881436" d="M33.495,93.47A21.419,21.419,0,0,1,36,88.748a1.544,1.544,0,0,0,.179-.33,2.992,2.992,0,1,0-2.688,5.053Z" transform="translate(-19.264 -54.265)" fill="#e35f97"/>
          <path id="Trazado_881437" data-name="Trazado 881437" d="M33.495,94.006q.3-.778.645-1.512a2.986,2.986,0,0,1-1.433-4.088,2.992,2.992,0,0,0,.789,5.6Z" transform="translate(-19.264 -54.801)" fill="#e04082"/>
          <path id="Trazado_881438" data-name="Trazado 881438" d="M66.369,19.136a3.386,3.386,0,0,1-3.462,0V23.6h3.462Z" transform="translate(-38.994 -11.862)" fill="#ab9d9d"/>
          <path id="Trazado_881439" data-name="Trazado 881439" d="M62.907,143.466V153.9a.65.65,0,0,0,.65.65h2.161a.65.65,0,0,0,.65-.65V143.466Z" transform="translate(-38.994 -88.93)" fill="#ab9d9d"/>
          <path id="Trazado_881440" data-name="Trazado 881440" d="M57.213,131.1v4.05a.65.65,0,0,0,.65.65h6.49a.651.651,0,0,0,.65-.65V131.1Z" transform="translate(-35.465 -81.265)" fill="#efabcd"/>
          <path id="Trazado_881441" data-name="Trazado 881441" d="M59.815,135.151V131.1h-2.6v4.05a.65.65,0,0,0,.65.65h2.6a.65.65,0,0,1-.65-.65" transform="translate(-35.465 -81.265)" fill="#e04082"/>
          <path id="Trazado_881442" data-name="Trazado 881442" d="M65.324,5.953a3.387,3.387,0,1,1-3.387-3.387A3.387,3.387,0,0,1,65.324,5.953Z" transform="translate(-36.293 -1.591)" fill="#efabcd"/>
          <path id="Trazado_881443" data-name="Trazado 881443" d="M61.151,5.953a3.388,3.388,0,0,1,2.087-3.128,3.387,3.387,0,1,0,0,6.256A3.388,3.388,0,0,1,61.151,5.953Z" transform="translate(-36.293 -1.591)" fill="#e35f97"/>
          <path id="Trazado_881444" data-name="Trazado 881444" d="M56.6,30.893H30.156A1.548,1.548,0,0,0,28.678,32.9l6.014,19.375a1.547,1.547,0,0,1-.22,1.359,26.1,26.1,0,0,0-4.365,13.725,1.549,1.549,0,0,0,1.546,1.628H55.1a1.549,1.549,0,0,0,1.546-1.628,26.1,26.1,0,0,0-4.365-13.725,1.547,1.547,0,0,1-.22-1.359L58.075,32.9A1.548,1.548,0,0,0,56.6,30.893" transform="translate(-17.733 -19.15)" fill="#ecafd0"/>
          <path id="Trazado_881445" data-name="Trazado 881445" d="M34.01,67.357a26.1,26.1,0,0,1,4.365-13.725,1.547,1.547,0,0,0,.219-1.359L32.581,32.9a1.547,1.547,0,0,1,1.478-2.006h-3.9A1.547,1.547,0,0,0,28.679,32.9l6.014,19.375a1.547,1.547,0,0,1-.22,1.359,26.1,26.1,0,0,0-4.365,13.725,1.55,1.55,0,0,0,1.547,1.628h3.9a1.549,1.549,0,0,1-1.546-1.628" transform="translate(-17.733 -19.15)" fill="#e77bab"/>
          <path id="Trazado_881446" data-name="Trazado 881446" d="M50.128,22.625a3.944,3.944,0,0,0-2-1.078l-7.006-7.006.156-.5a2.523,2.523,0,0,0-2.41-3.271H35.92a.976.976,0,0,0,0,1.951h2.945a.572.572,0,0,1,.546.742L37.069,21H26.62V12.719h4.7a.976.976,0,1,0,0-1.951H28.351V7.781a4.363,4.363,0,1,0-5.413,0v2.987H12.423a2.523,2.523,0,0,0-2.41,3.271l.156.5L3.164,21.546a3.965,3.965,0,0,0,.8,7.849l.068,0L5.54,30.9A.976.976,0,0,0,6.92,29.52l-.775-.775a3.979,3.979,0,0,0,.626-.51,3.923,3.923,0,0,0,.3-.341l5.269,5.269a4.04,4.04,0,0,0-.342.3,3.958,3.958,0,0,0-.51.626l-1.318-1.318a.976.976,0,0,0-1.38,1.379L10.841,36.2a3.956,3.956,0,0,0,2.136,3.588,30.51,30.51,0,0,0-1.576,8.37,2.525,2.525,0,0,0,2.521,2.652h6.851v3.075A1.627,1.627,0,0,0,22.4,55.511h.539V64.97A1.628,1.628,0,0,0,24.563,66.6h2.161a1.628,1.628,0,0,0,1.626-1.626V60.235h1.083V60.7a.976.976,0,0,0,1.951,0V57.816a.976.976,0,1,0-1.951,0v.467H28.351V55.511h.539a1.628,1.628,0,0,0,1.626-1.626V50.811h6.851a2.525,2.525,0,0,0,2.521-2.652,30.493,30.493,0,0,0-1.576-8.37A3.954,3.954,0,0,0,40.447,36.2l6.807-6.807.068,0a3.965,3.965,0,0,0,2.8-6.771Zm-4.477-.793a3.952,3.952,0,0,0-1.059.722l-4.549-4.549.422-1.359Zm-10.08,10.58,3.818-12.3,4.145,4.145a4,4,0,0,0-.142,1.7l-6.385,6.385a4,4,0,0,0-1.437.071m.893-9.457L33.4,32.835a2.536,2.536,0,0,0,.358,2.215,20.29,20.29,0,0,1,2.306,4.275H26.62V31.217a.976.976,0,0,0-1.951,0v8.109H15.227a20.291,20.291,0,0,1,2.306-4.275,2.536,2.536,0,0,0,.358-2.215l-3.067-9.88h9.844v3.709a.976.976,0,1,0,1.951,0V22.955Zm-10.82-21a2.412,2.412,0,1,1-2.412,2.412,2.415,2.415,0,0,1,2.412-2.412m-.756,6.708a4.3,4.3,0,0,0,1.511,0v2.109H24.888ZM11.963,12.951a.561.561,0,0,1,.461-.233H24.668V21H14.219L11.877,13.46A.561.561,0,0,1,11.963,12.951Zm-.718,5.054L6.7,22.554a3.946,3.946,0,0,0-1.059-.722l5.186-5.185Zm-8.7,6a2.016,2.016,0,1,1,0,2.851A2.018,2.018,0,0,1,2.54,24M7.9,25.956a4,4,0,0,0-.141-1.7L11.9,20.111l3.818,12.3a3.99,3.99,0,0,0-1.437-.071Zm5.484,11.738A2.015,2.015,0,0,1,15.6,34.418a22.232,22.232,0,0,0-1.91,3.53,2.029,2.029,0,0,1-.311-.254m.128,10.987a.571.571,0,0,1-.157-.425,28.968,28.968,0,0,1,1.193-6.98H24.668V48.86H13.922a.569.569,0,0,1-.415-.178M26.4,64.645H24.888V55.511H26.4ZM28.564,53.56h-5.84V50.811h5.84Zm9.217-4.878a.568.568,0,0,1-.414.178H26.62V41.277H36.745a28.946,28.946,0,0,1,1.194,6.98.573.573,0,0,1-.158.425m.128-10.987a2.029,2.029,0,0,1-.311.254,22.171,22.171,0,0,0-1.91-3.53,2.015,2.015,0,0,1,2.221,3.276m1.89-3.6a3.975,3.975,0,0,0-.51-.626,3.919,3.919,0,0,0-.343-.3l5.269-5.269a4.109,4.109,0,0,0,.3.341,3.975,3.975,0,0,0,.626.51Zm8.949-7.234a2.015,2.015,0,1,1,0-2.851,2.018,2.018,0,0,1,0,2.851" transform="translate(0)" fill="#040506"/>
        </g>
      </g>
    </g>
  </g>
</svg>
