<svg xmlns="http://www.w3.org/2000/svg" xmlns:xlink="http://www.w3.org/1999/xlink" width="190" height="211" viewBox="0 0 190 211">
  <defs>
    <clipPath id="clip-path">
      <rect id="Rect치ngulo_403701" data-name="Rect치ngulo 403701" width="190" height="211" rx="19" transform="translate(809.571 590)" fill="#fff"/>
    </clipPath>
    <clipPath id="clip-path-2">
      <rect id="Rect치ngulo_403700" data-name="Rect치ngulo 403700" width="146.524" height="133.264" fill="#ff98c6"/>
    </clipPath>
  </defs>
  <g id="Enmascarar_grupo_1098818" data-name="Enmascarar grupo 1098818" transform="translate(-809.571 -590)" clip-path="url(#clip-path)">
    <g id="Grupo_1102807" data-name="Grupo 1102807" transform="translate(831.571 629)">
      <g id="Grupo_1102806" data-name="Grupo 1102806" transform="translate(0 0)" clip-path="url(#clip-path-2)">
        <path id="Trazado_880271" data-name="Trazado 880271" d="M52.512,16.5H30.532a4.047,4.047,0,0,0-4.043,4.043V29.7a4.047,4.047,0,0,0,4.043,4.043h21.98A4.047,4.047,0,0,0,56.555,29.7V20.538A4.047,4.047,0,0,0,52.512,16.5m.3,13.2a.3.3,0,0,1-.3.3l-22.278-.3.3-9.457,22.276.3Z" transform="translate(30.353 18.901)" fill="#ff98c6"/>
        <path id="Trazado_880272" data-name="Trazado 880272" d="M59.256,60.116a14.861,14.861,0,1,0-14.862-14.86,14.883,14.883,0,0,0,14.862,14.86m0-25.976A11.116,11.116,0,1,1,48.141,45.256,11.126,11.126,0,0,1,59.256,34.141" transform="translate(50.869 34.827)" fill="#ff98c6"/>
        <path id="Trazado_880273" data-name="Trazado 880273" d="M139.912,35.456h-5.757v-.489a6.147,6.147,0,0,0-6.131-6.5H115.576V25.63c3.081-.421,6.184-1.358,6.98-3.29a1.819,1.819,0,0,0,.279-.923V12.435a1.819,1.819,0,0,0-.279-.923c-1.371-3.33-9.781-3.65-12.54-3.65s-11.174.32-12.545,3.65a1.819,1.819,0,0,0-.279.923v8.983a1.819,1.819,0,0,0,.279.923c.794,1.931,3.9,2.869,6.98,3.29v2.837H89.143V3.541C89.143,1.521,87.023,0,84.212,0s-4.933,1.521-4.933,3.541V28.467H16.072a6.176,6.176,0,0,0-6.126,5.719L8.72,56.676a3.49,3.49,0,0,0,3.2,4.045c.215,3.65,1.054,10.963,1.474,14.508a5.507,5.507,0,0,0,5.423,4.7h4.24v7.008a1.876,1.876,0,0,0,1.873,1.873h3.124V91.22H12.162a7.182,7.182,0,0,0-4.68,1.818C6.465,94.285,2.169,99.722.624,104.156c-.017.045-.032.088-.047.133a8.612,8.612,0,0,0-.549,2.661v19.321l-.009.5c-.047,1.375-.12,3.678,1.369,5.2a4.926,4.926,0,0,0,3.326,1.264l126.34-.009c.174.013.534.041,1.009.041a7.576,7.576,0,0,0,4.7-1.339,3.626,3.626,0,0,0,1.315-2.566c.116-1.5.238-8.772.363-16.74l.069-4.12c.013-.828-.124-6.223-.609-7.547-.843-7.708-2.139-20.317-2.985-28.965h5c5.217,0,6.611-11.482,6.611-18.266S145.128,35.456,139.912,35.456Zm-29.9-23.847a30.7,30.7,0,0,1,7.669.826,30.432,30.432,0,0,1-7.669.833,30.492,30.492,0,0,1-7.676-.833,30.765,30.765,0,0,1,7.676-.826m-9.077,9.274v-5a33.667,33.667,0,0,0,9.077,1.131,33.719,33.719,0,0,0,9.073-1.129v5c-.938.545-4.1,1.36-9.073,1.36s-8.139-.815-9.077-1.36m10.89,5.064v2.519H108.2V25.948c.715.028,1.363.043,1.82.043s1.1-.015,1.813-.043M83.025,3.966a4.626,4.626,0,0,1,2.371,0V28.467H83.025ZM12.435,57.08l1.242-22.652a2.412,2.412,0,0,1,2.395-2.215H28.055V57.086Zm6.382,19.1A1.733,1.733,0,0,1,17.1,74.742c-.635-5.35-1.251-11.236-1.448-14.008l12.4.017V76.18H18.817ZM26.8,79.927h6.251v5.135H26.8Zm8.122,8.882A1.875,1.875,0,0,0,36.8,86.935V79.927h7.255a4.616,4.616,0,0,0,4.472-3.481l1.7-6.667a2.566,2.566,0,0,1,.663-1.159,2.48,2.48,0,0,1,1.777-.736H72.12a11.436,11.436,0,0,1,11.431,11.4l-.165,11.334a.609.609,0,0,1-.612.6H31.8V88.809ZM10.1,95.688a3.347,3.347,0,0,1,2.066-.721H28.055v2.968a1.873,1.873,0,1,0,3.747,0V94.967H82.774a4.375,4.375,0,0,0,4.358-4.292l.163-11.36A15.192,15.192,0,0,0,72.12,64.138H52.666a6.241,6.241,0,0,0-4.427,1.833A6.357,6.357,0,0,0,46.6,68.852l-1.7,6.671a.874.874,0,0,1-.845.657H31.8V60.756l96.542.124h0a1.873,1.873,0,0,0,.006-3.747L31.8,57.088V32.214h96.222a2.384,2.384,0,0,1,1.747.749,2.449,2.449,0,0,1,.644,1.891l-.086,27.8c0,1.8,2.644,27.682,3.938,39.1a26.928,26.928,0,0,1,.433,4.236l-123.026-.755c-3.783-.019-5.867-.569-7.023-1.118A48.942,48.942,0,0,1,10.1,95.688Zm124.6,16.877c-.088,5.609-.238,15-.328,16.482a5.32,5.32,0,0,1-3.139.44H4.7a.906.906,0,0,1-.635-.137c-.371-.38-.324-1.837-.3-2.463l.013-19.135a22.069,22.069,0,0,0,7.877,1.225l123.093.757Zm5.212-44.325h-5.358c-.29-3.062-.476-5.18-.481-5.592l.071-23.45,5.618-.028c.886.453,3.015,5.281,3.015,14.551S140.648,67.82,139.912,68.24Z" transform="translate(0 0)" fill="#ff98c6"/>
        <path id="Trazado_880274" data-name="Trazado 880274" d="M68.606,19.959H46.147a3.436,3.436,0,0,0-3.431,3.431v4.738a3.435,3.435,0,0,0,3.431,3.427H68.606a3.435,3.435,0,0,0,3.427-3.427V23.39a3.436,3.436,0,0,0-3.427-3.431m-.32,7.854-21.823.315-.315-4.423,22.139-.315Z" transform="translate(48.947 22.87)" fill="#ff98c6"/>
        <path id="Trazado_880275" data-name="Trazado 880275" d="M26.047,19.525H20.418A3.721,3.721,0,0,0,16.7,23.244v5.629a3.72,3.72,0,0,0,3.714,3.714h5.629a3.72,3.72,0,0,0,3.714-3.714V23.244a3.721,3.721,0,0,0-3.714-3.719m-.032,9.315-5.564.032-.032-5.6,5.6-.028Z" transform="translate(19.14 22.373)" fill="#ff98c6"/>
        <path id="Trazado_880276" data-name="Trazado 880276" d="M20.607,66.577H71.763a7.136,7.136,0,0,0,0-14.272H20.607a7.136,7.136,0,1,0,0,14.272Zm0-10.525H71.763a3.389,3.389,0,0,1,0,6.779H20.607a3.389,3.389,0,1,1,0-6.779Z" transform="translate(15.43 59.934)" fill="#ff98c6"/>
      </g>
    </g>
  </g>
</svg>
