<svg xmlns="http://www.w3.org/2000/svg" xmlns:xlink="http://www.w3.org/1999/xlink" width="141.688" height="141.688" viewBox="0 0 141.688 141.688">
  <defs>
    <clipPath id="clip-path">
      <rect id="Rect치ngulo_403706" data-name="Rect치ngulo 403706" width="83.135" height="84.413" transform="translate(0 0)" fill="none"/>
    </clipPath>
  </defs>
  <g id="Grupo_1103487" data-name="Grupo 1103487" transform="translate(-729.156 -479)">
    <rect id="Rect치ngulo_402033" data-name="Rect치ngulo 402033" width="141.688" height="141.688" rx="5" transform="translate(729.156 479)" fill="#ff8c80"/>
    <g id="Grupo_1102824" data-name="Grupo 1102824" transform="translate(758.433 508)">
      <g id="Grupo_1102823" data-name="Grupo 1102823" clip-path="url(#clip-path)">
        <path id="Trazado_880311" data-name="Trazado 880311" d="M7.931.448A1.566,1.566,0,0,1,9.1,0c6.5.02,13,0,19.5.013.732,0,1.145.672,1.619,1.121A14.451,14.451,0,0,0,40.1,6.075a14.624,14.624,0,0,0,3.63-.154A14.522,14.522,0,0,0,52.556.693,2.128,2.128,0,0,1,54.32.006q9.686.006,19.374,0a1.509,1.509,0,0,1,1.379,1.045,16.234,16.234,0,0,1-.548,9.354A16.567,16.567,0,0,1,67.763,18.8a18.494,18.494,0,0,0,4.922,6.094c.417.327.914.654,1.023,1.216.015,10.486-.011,20.983.014,31.472.326.295.455.757.839.991a21.674,21.674,0,0,1,8.572,17.46c0,.614-.582.941-.841,1.433a4.243,4.243,0,0,1-.91.874,9.657,9.657,0,0,1-10.774.865,8.566,8.566,0,0,1-3.85,2.821,8.311,8.311,0,0,1-8.775-1.933,10.282,10.282,0,0,1-6.538,3.9,10.6,10.6,0,0,1-5.263-.534,10.743,10.743,0,0,1-4.515-3.435,10.522,10.522,0,0,1-4.674,3.715,10.271,10.271,0,0,1-11.849-3.355A8.376,8.376,0,0,1,12.552,79.5a9.7,9.7,0,0,1-10.78-.846,3.914,3.914,0,0,1-.979-.963c-.259-.463-.813-.786-.79-1.378A21.654,21.654,0,0,1,9.03,58.527a.584.584,0,0,0,.3-.616q-.006-15.892,0-31.788a1.556,1.556,0,0,1,.661-.948,19.054,19.054,0,0,0,5.194-6.156,17.423,17.423,0,0,1-4.016-3.408A16.5,16.5,0,0,1,7.325,2.2,3.068,3.068,0,0,1,7.931.448M10.3,6.878A13.726,13.726,0,0,0,19.212,17.63a14.736,14.736,0,0,0,7.153.712,13.872,13.872,0,0,0,5.1-1.82A13.746,13.746,0,0,0,37.6,8.766a17.777,17.777,0,0,1-9.491-5.53c-.121-.126-.249-.3-.45-.253C21.865,2.976,16.073,3,10.283,2.97A11.059,11.059,0,0,0,10.3,6.878M45.056,8.7a9.351,9.351,0,0,0,.882,2.279A13.967,13.967,0,0,0,54.6,17.993a15,15,0,0,0,4.714.476,13.984,13.984,0,0,0,11.695-7.478,13.76,13.76,0,0,0,1.436-7.564c-.044-.161.006-.519-.273-.444-5.869,0-11.739.01-17.608-.006A17.835,17.835,0,0,1,45.056,8.7m-4.408.43c-.032.065-.1.2-.127.261a16.453,16.453,0,0,1-3.1,5.888,17.1,17.1,0,0,1-9.747,5.865,18.145,18.145,0,0,1-9.841-.809,21.5,21.5,0,0,1-5.506,6.8q-.018,15.079-.005,30.159h58.4q0-15.076,0-30.152a21.873,21.873,0,0,1-5.607-6.953,16.575,16.575,0,0,1-7.2,1.271,16.66,16.66,0,0,1-8.3-2.389,16.718,16.718,0,0,1-7.588-9.956c-.46.026-.921,0-1.381.019M10.056,61.481A18.789,18.789,0,0,0,2.977,75.758a6.709,6.709,0,0,0,4.475,2,6.564,6.564,0,0,0,4.533-1.479,1.547,1.547,0,0,1,2.42.54,5.4,5.4,0,0,0,6.315,2.833,5.251,5.251,0,0,0,3.164-2.542,1.551,1.551,0,0,1,1.254-.926,1.438,1.438,0,0,1,1.46.752,9.4,9.4,0,0,0,1.394,2.2A7.33,7.33,0,0,0,31.14,81.1a7.565,7.565,0,0,0,4.62-.1,7.251,7.251,0,0,0,4.2-4.142,1.911,1.911,0,0,1,2.356-1.258c.792.311.888,1.239,1.3,1.879a6.864,6.864,0,0,0,4.915,3.5,7.069,7.069,0,0,0,7.444-3.284c.22-.354.378-.74.586-1.1a1.471,1.471,0,0,1,1.653-.672,1.6,1.6,0,0,1,1.023.876,5.263,5.263,0,0,0,2.909,2.476A5.407,5.407,0,0,0,68.4,77.105c.29-.437.443-1,.92-1.279a1.54,1.54,0,0,1,1.812.139,6.566,6.566,0,0,0,4.91,1.463,6.71,6.71,0,0,0,4.119-1.97A18.784,18.784,0,0,0,72.74,60.931c-.4-.251-.744-.7-1.258-.643-1.407.005-2.813,0-4.218,0,.274.507.6.986.837,1.515a1.49,1.49,0,0,1-2.7,1.223c-.531-.9-1.035-1.826-1.56-2.735-2.461-.008-4.924,0-7.386,0,.269.873.56,1.738.809,2.618a1.487,1.487,0,0,1-2.85.834c-.265-.8-.5-1.609-.76-2.411a2.277,2.277,0,0,1-.036-1.045c-7.906.016-15.811,0-23.718.01-.393,1.228-.781,2.458-1.186,3.682a1.491,1.491,0,0,1-2.868-.813c.308-.958.614-1.918.928-2.874-2.245-.005-4.488.014-6.732-.011-.718,1.183-1.351,2.415-2.052,3.607a1.489,1.489,0,0,1-2.626-1.394c.39-.743.826-1.46,1.224-2.2q-2.492-.01-4.98,0C11.133,60.745,10.562,61.072,10.056,61.481Z" fill="#0c1d30"/>
        <path id="Trazado_880312" data-name="Trazado 880312" d="M40.83,13.614a1.631,1.631,0,0,1,1.807.664,1.5,1.5,0,0,1-.535,2.081,1.65,1.65,0,0,1-2.2-.568,1.505,1.505,0,0,1,.925-2.177" fill="#0c1d30"/>
        <path id="Trazado_880313" data-name="Trazado 880313" d="M41.093,19.128a1.5,1.5,0,1,1-1.048.857,1.527,1.527,0,0,1,1.048-.857" fill="#0c1d30"/>
        <path id="Trazado_880314" data-name="Trazado 880314" d="M7.644,72.1a1.495,1.495,0,1,1,.766,2.876A1.5,1.5,0,0,1,7.644,72.1Z" fill="#0c1d30"/>
        <path id="Trazado_880315" data-name="Trazado 880315" d="M74.688,72.2a1.487,1.487,0,1,1-.913,1.482,1.515,1.515,0,0,1,.913-1.482" fill="#0c1d30"/>
        <path id="Trazado_880316" data-name="Trazado 880316" d="M63.092,73.888a1.493,1.493,0,1,1-.971,1.167A1.495,1.495,0,0,1,63.092,73.888Z" fill="#0c1d30"/>
        <path id="Trazado_880317" data-name="Trazado 880317" d="M18.709,74.189a1.488,1.488,0,1,1,.772,2.784,1.485,1.485,0,0,1-1.535-1.65,1.526,1.526,0,0,1,.763-1.134" fill="#0c1d30"/>
        <path id="Trazado_880318" data-name="Trazado 880318" d="M32.922,75.363a1.495,1.495,0,1,1-1.145,1.079A1.488,1.488,0,0,1,32.922,75.363Z" fill="#0c1d30"/>
        <path id="Trazado_880319" data-name="Trazado 880319" d="M48.567,75.816a1.5,1.5,0,1,1,.642,2.88,1.5,1.5,0,0,1-.642-2.88" fill="#0c1d30"/>
        <path id="Trazado_880320" data-name="Trazado 880320" d="M10.3,6.879a11.036,11.036,0,0,1-.012-3.908c5.789.031,11.582.006,17.373.013.2-.043.329.127.45.253A17.777,17.777,0,0,0,37.6,8.767a13.746,13.746,0,0,1-6.135,7.756,13.852,13.852,0,0,1-5.1,1.819,14.717,14.717,0,0,1-7.154-.712A13.722,13.722,0,0,1,10.3,6.879Z" fill="#e881b2"/>
        <path id="Trazado_880321" data-name="Trazado 880321" d="M45.056,8.7a17.835,17.835,0,0,0,9.512-5.728c5.869.016,11.739,0,17.608.006.279-.075.229.283.273.444a13.76,13.76,0,0,1-1.436,7.564,13.984,13.984,0,0,1-11.695,7.478,14.994,14.994,0,0,1-4.714-.476,13.967,13.967,0,0,1-8.666-7.009A9.351,9.351,0,0,1,45.056,8.7Z" fill="#e881b2"/>
        <path id="Trazado_880322" data-name="Trazado 880322" d="M40.648,9.136c.46-.022.921.007,1.381-.02a16.717,16.717,0,0,0,7.588,9.957,16.657,16.657,0,0,0,8.3,2.389,16.575,16.575,0,0,0,7.2-1.271,21.873,21.873,0,0,0,5.607,6.953q.011,15.075,0,30.152-29.2,0-58.4,0,0-15.08.005-30.159a21.518,21.518,0,0,0,5.506-6.8,18.145,18.145,0,0,0,9.841.809,17.1,17.1,0,0,0,9.747-5.865,16.461,16.461,0,0,0,3.1-5.888c.031-.065.1-.2.127-.261m.182,4.479a1.5,1.5,0,0,0-.925,2.176,1.651,1.651,0,0,0,2.2.569,1.5,1.5,0,0,0,.536-2.082,1.634,1.634,0,0,0-1.808-.663m.263,5.513a1.527,1.527,0,0,0-1.048.857,1.5,1.5,0,1,0,1.048-.857" fill="#bcddcb"/>
        <path id="Trazado_880323" data-name="Trazado 880323" d="M10.056,61.482c.506-.409,1.077-.736,1.547-1.188q2.49,0,4.98,0c-.4.737-.834,1.455-1.224,2.2a1.489,1.489,0,0,0,2.626,1.394c.7-1.192,1.334-2.424,2.052-3.607,2.244.025,4.487.006,6.731.011-.313.956-.619,1.916-.927,2.874a1.491,1.491,0,0,0,2.868.813c.405-1.224.793-2.455,1.186-3.683,7.907-.012,15.812.007,23.718-.009a2.277,2.277,0,0,0,.036,1.045c.258.8.5,1.611.76,2.41a1.487,1.487,0,0,0,2.85-.833c-.249-.88-.54-1.746-.809-2.618,2.462,0,4.925,0,7.386,0,.525.909,1.029,1.83,1.56,2.735a1.49,1.49,0,0,0,2.7-1.224c-.232-.528-.562-1.008-.836-1.514,1.4,0,2.811,0,4.217,0,.515-.057.863.392,1.259.643a18.784,18.784,0,0,1,7.417,14.527,6.709,6.709,0,0,1-4.119,1.969,6.566,6.566,0,0,1-4.911-1.463,1.537,1.537,0,0,0-1.811-.138c-.477.281-.631.842-.92,1.279a5.408,5.408,0,0,1-6.253,2.162,5.263,5.263,0,0,1-2.909-2.476,1.6,1.6,0,0,0-1.023-.876,1.471,1.471,0,0,0-1.653.672c-.209.358-.366.744-.586,1.1a7.069,7.069,0,0,1-7.444,3.284,6.868,6.868,0,0,1-4.916-3.5c-.41-.64-.506-1.568-1.3-1.879a1.91,1.91,0,0,0-2.356,1.258A7.25,7.25,0,0,1,35.759,81a7.562,7.562,0,0,1-4.619.1,7.33,7.33,0,0,1-3.148-1.964,9.4,9.4,0,0,1-1.394-2.2,1.438,1.438,0,0,0-1.46-.752,1.549,1.549,0,0,0-1.254.926,5.254,5.254,0,0,1-3.164,2.542A5.4,5.4,0,0,1,14.4,76.819a1.547,1.547,0,0,0-2.42-.54,6.563,6.563,0,0,1-4.533,1.478,6.7,6.7,0,0,1-4.475-2,18.787,18.787,0,0,1,7.079-14.277M7.644,72.1a1.5,1.5,0,1,0,1.871.764A1.516,1.516,0,0,0,7.644,72.1m67.044.1a1.514,1.514,0,0,0-.912,1.482,1.5,1.5,0,1,0,.912-1.482m-11.6,1.688a1.493,1.493,0,0,0,.218,2.872,1.492,1.492,0,1,0-.218-2.872m-44.382.3a1.528,1.528,0,0,0-.764,1.134,1.493,1.493,0,1,0,2.882-.368,1.5,1.5,0,0,0-2.118-.766m14.212,1.174a1.487,1.487,0,0,0-1.145,1.078A1.5,1.5,0,0,0,32.9,78.288a1.5,1.5,0,1,0,.019-2.924m15.645.452A1.5,1.5,0,1,0,50.6,76.857a1.508,1.508,0,0,0-2.031-1.041" fill="#ffecb0"/>
      </g>
    </g>
  </g>
</svg>
