<svg xmlns="http://www.w3.org/2000/svg" xmlns:xlink="http://www.w3.org/1999/xlink" width="141.688" height="141.688" viewBox="0 0 141.688 141.688">
  <defs>
    <clipPath id="clip-path">
      <rect id="Rect치ngulo_403707" data-name="Rect치ngulo 403707" width="89.156" height="84.323" transform="translate(0 0)" fill="none"/>
    </clipPath>
  </defs>
  <g id="Grupo_1103488" data-name="Grupo 1103488" transform="translate(-1079.711 -479)">
    <rect id="Rect치ngulo_402033" data-name="Rect치ngulo 402033" width="141.688" height="141.688" rx="5" transform="translate(1079.711 479)" fill="#ff8c80"/>
    <g id="Grupo_1102826" data-name="Grupo 1102826" transform="translate(1105.711 508)">
      <g id="Grupo_1102825" data-name="Grupo 1102825" clip-path="url(#clip-path)">
        <path id="Trazado_880324" data-name="Trazado 880324" d="M7.161,1.627A12.987,12.987,0,0,1,15.306.137a13.144,13.144,0,0,1,6.656,3.011c.194.138.371.365.635.35,1.882.017,3.765-.008,5.647.008a1.44,1.44,0,0,1,1.247.819A16.117,16.117,0,0,0,36.5,13.756a14.67,14.67,0,0,0,6.612,2.2,15.266,15.266,0,0,0,4.376-.2,15.526,15.526,0,0,0,8.767-5.191,16.564,16.564,0,0,0,3.209-5.821,2.091,2.091,0,0,1,1.9-1.246q2.687-.009,5.377,0A13.548,13.548,0,0,1,73.73.154a13.036,13.036,0,0,1,8.83,1.8,14.067,14.067,0,0,1,6.545,10.785A14.283,14.283,0,0,1,87,21.5a3.118,3.118,0,0,0-.293,1.916c-.007.747.011,1.494,0,2.242a1.548,1.548,0,0,1-1.306,1.5,15.518,15.518,0,0,0-7.726,3.7.552.552,0,0,0-.21.559q.006,25.639,0,51.279a1.5,1.5,0,0,1-.893,1.449,4.145,4.145,0,0,1-1.712.151c-8.148.008-16.295-.021-24.443.021-12.263.007-24.527-.048-36.79-.013a1.527,1.527,0,0,1-1.524-1.483c0-1.591,0-3.181,0-4.772q0-22.755,0-45.507c-.026-.509.154-1.162-.375-1.471a15.307,15.307,0,0,0-7.347-3.5,2.193,2.193,0,0,1-1.3-.507,2.4,2.4,0,0,1-.624-1.689c.006-.984.01-1.965.007-2.947a2.478,2.478,0,0,0-.5-1.261A14.317,14.317,0,0,1,1.034,8.6,13.79,13.79,0,0,1,7.161,1.627m-.1,3.708a11.191,11.191,0,0,0-3.98,7.553,11.422,11.422,0,0,0,1.456,6.7c.586-.029,1.176-.037,1.764-.024.111-.7.02-1.533.581-2.061a1.527,1.527,0,0,1,2.244.159c.557.688.227,1.614.189,2.409q.99.328,1.947.75c.312-.562.542-1.281,1.2-1.524a1.536,1.536,0,0,1,2.049,1.031c.2.775-.352,1.446-.667,2.1a15.742,15.742,0,0,1,2.615,2.789,19.829,19.829,0,0,0,3.851-10.793c.067-2.895.027-5.792.034-8.689A10.066,10.066,0,0,0,7.058,5.335m62.135.093c.008,1.595,0,3.191,0,4.787a34.354,34.354,0,0,0,.437,7.18A19.563,19.563,0,0,0,72.9,24.948a17.428,17.428,0,0,1,2.41-2.508c-.307-.663-.859-1.327-.66-2.105a1.527,1.527,0,0,1,1.972-1.062c.705.217.953.974,1.286,1.553.635-.288,1.287-.535,1.947-.758-.044-.774-.358-1.663.142-2.353a1.531,1.531,0,0,1,2.23-.258c.61.512.538,1.378.608,2.094.6,0,1.2.018,1.8.038a11.441,11.441,0,0,0,1.011-8.918,10.978,10.978,0,0,0-4.6-6.087,9.995,9.995,0,0,0-11.852.844M23.305,14.989a22.714,22.714,0,0,1-8.187,16.019q-.01,25.125,0,50.249,17.511.007,35.019-.02c8.106.031,16.213.016,24.319.011q-.006-24.279,0-48.561a10.434,10.434,0,0,0-.046-1.659,6.7,6.7,0,0,0-.808-.743,22.821,22.821,0,0,1-7.41-16.977c-.022-2.262,0-4.526-.011-6.789-1.371-.006-2.743,0-4.113,0a19.385,19.385,0,0,1-6.049,8.492c.422.472.9.892,1.313,1.375a1.508,1.508,0,0,1-2.207,2.045c-.568-.541-1.109-1.111-1.647-1.682a17.735,17.735,0,0,1-6.77,2.176c-.007.755.081,1.506.079,2.259a1.512,1.512,0,0,1-3.017.1c-.051-.754-.026-1.512-.115-2.264a17.445,17.445,0,0,1-7.25-1.848,17.7,17.7,0,0,1-1.747,1.851,1.527,1.527,0,0,1-2.295-1.23c-.03-.969.88-1.537,1.413-2.224a19.416,19.416,0,0,1-6.8-9.055c-1.2-.006-2.392,0-3.587-.006-.045,2.826.07,5.654-.088,8.477m-17.8,7.6v2.1a18.633,18.633,0,0,1,7.87,3.806c.349-.286.687-.585,1.016-.889a10.325,10.325,0,0,0-8.886-5.017M74.91,27.361q.517.495,1.06.968a18.622,18.622,0,0,1,7.684-3.9c.014-.613.016-1.224.013-1.835A10.335,10.335,0,0,0,74.91,27.361Z" fill="#0c1d30"/>
        <path id="Trazado_880325" data-name="Trazado 880325" d="M7.057,5.335a10.066,10.066,0,0,1,13.282.409c-.006,2.9.034,5.794-.032,8.689a19.853,19.853,0,0,1-3.851,10.793,15.822,15.822,0,0,0-2.616-2.789c.315-.659.868-1.33.668-2.1A1.536,1.536,0,0,0,12.459,19.3c-.658.243-.888.962-1.2,1.524q-.957-.422-1.948-.75c.038-.8.37-1.721-.188-2.409a1.527,1.527,0,0,0-2.244-.159c-.561.528-.471,1.364-.582,2.061q-.882-.02-1.764.024a11.429,11.429,0,0,1-1.455-6.7A11.19,11.19,0,0,1,7.057,5.335Z" fill="#bcddcb"/>
        <path id="Trazado_880326" data-name="Trazado 880326" d="M69.193,5.428a10,10,0,0,1,11.852-.844,10.98,10.98,0,0,1,4.6,6.087,11.445,11.445,0,0,1-1.012,8.918q-.9-.03-1.8-.038c-.071-.716,0-1.581-.609-2.094a1.531,1.531,0,0,0-2.23.259c-.5.689-.185,1.578-.142,2.352-.66.223-1.311.47-1.946.758-.333-.578-.582-1.335-1.287-1.553a1.528,1.528,0,0,0-1.972,1.062c-.2.778.353,1.442.661,2.105a17.478,17.478,0,0,0-2.41,2.508A19.564,19.564,0,0,1,69.634,17.4a34.408,34.408,0,0,1-.437-7.179C69.194,8.619,69.2,7.023,69.193,5.428Z" fill="#bcddcb"/>
        <path id="Trazado_880327" data-name="Trazado 880327" d="M23.3,14.989c.159-2.823.042-5.652.088-8.477,1.2.008,2.391,0,3.586.005a19.429,19.429,0,0,0,6.8,9.056c-.534.687-1.444,1.254-1.414,2.223a1.528,1.528,0,0,0,2.3,1.231,17.9,17.9,0,0,0,1.746-1.851,17.442,17.442,0,0,0,7.251,1.848c.088.751.063,1.51.115,2.264a1.512,1.512,0,0,0,3.017-.1c0-.753-.086-1.505-.079-2.259a17.714,17.714,0,0,0,6.769-2.177c.538.572,1.079,1.142,1.648,1.683a1.508,1.508,0,0,0,2.206-2.045c-.411-.483-.892-.9-1.313-1.375a19.375,19.375,0,0,0,6.049-8.493c1.371,0,2.742,0,4.114,0,.008,2.262-.012,4.526.011,6.789a22.821,22.821,0,0,0,7.41,16.977,6.607,6.607,0,0,1,.807.743,10.545,10.545,0,0,1,.047,1.658q0,24.285,0,48.562c-8.107,0-16.213.02-24.32-.011-11.673,0-23.346.025-35.02.02q0-25.125,0-50.249A22.712,22.712,0,0,0,23.3,14.989Z" fill="#f9cac1"/>
        <path id="Trazado_880328" data-name="Trazado 880328" d="M5.5,22.593a10.326,10.326,0,0,1,8.887,5.017c-.33.3-.667.6-1.015.889A18.652,18.652,0,0,0,5.5,24.693Z" fill="#df6897"/>
        <path id="Trazado_880329" data-name="Trazado 880329" d="M74.91,27.361a10.335,10.335,0,0,1,8.757-4.767c0,.611,0,1.222-.013,1.835a18.622,18.622,0,0,0-7.684,3.9Q75.429,27.855,74.91,27.361Z" fill="#df6897"/>
      </g>
    </g>
  </g>
</svg>
