<svg xmlns="http://www.w3.org/2000/svg" xmlns:xlink="http://www.w3.org/1999/xlink" width="141.688" height="141.688" viewBox="0 0 141.688 141.688">
  <defs>
    <clipPath id="clip-path">
      <rect id="Rect치ngulo_403708" data-name="Rect치ngulo 403708" width="68.164" height="90.576" fill="none"/>
    </clipPath>
  </defs>
  <g id="Grupo_1103490" data-name="Grupo 1103490" transform="translate(7569 11221)">
    <rect id="Rect치ngulo_402033" data-name="Rect치ngulo 402033" width="141.688" height="141.688" rx="5" transform="translate(-7569 -11221)" fill="#ff8c80"/>
    <g id="Grupo_1102828" data-name="Grupo 1102828" transform="translate(-7532.271 -11195.333)">
      <g id="Grupo_1102827" data-name="Grupo 1102827" transform="translate(0 0)" clip-path="url(#clip-path)">
        <path id="Trazado_880330" data-name="Trazado 880330" d="M42.233.659A1.985,1.985,0,0,1,44.893.4q3.188,3,6.382,5.988c2.142.017,4.284,0,6.426.01.979,0,1.592.973,1.789,1.822.034,2.587,0,5.176.017,7.766a27.816,27.816,0,0,0,.15,3.082,20.428,20.428,0,0,0,7.879,14A1.919,1.919,0,0,1,68.13,35q-.018,26.987-.007,53.973a1.629,1.629,0,0,1-1.475,1.585q-10.614-.007-21.232,0c-14.58.064-29.161-.044-43.739.011A1.619,1.619,0,0,1,0,88.964Q0,61.475,0,33.982a1.648,1.648,0,0,1,.686-1,20.237,20.237,0,0,0,7.524-12.31,26.052,26.052,0,0,0,.412-5.121c0-2.425-.01-4.853.006-7.278.162-.877.809-1.89,1.81-1.873,2.2,0,4.4-.016,6.607.01C19.113,4.452,21.2,2.52,23.271.561a1.972,1.972,0,0,1,2.7.191c2.681,2.553,5.379,5.089,8.049,7.656a12.571,12.571,0,0,0,1.225-1.116Q38.743,3.979,42.233.659M37.211,9.812c1.436,1.5,2.8,3.082,4.248,4.576q3.094-2.844,6.186-5.692a4.541,4.541,0,0,0,.724-.723c-1.575-1.43-3.108-2.906-4.667-4.354-2.157,2.071-4.354,4.1-6.491,6.194m-17.377-1.7q3.465,3.206,6.952,6.39c1.411-1.536,2.836-3.06,4.229-4.61q-3.257-3.077-6.5-6.167-2.329,2.206-4.681,4.387M11.794,9.55c-.026,3.116.08,6.238-.138,9.348A23.687,23.687,0,0,1,3.179,35.048q-.015,20.243,0,40.484,14.7,0,29.406,0,0-31.335,0-62.669-1.945,2.119-3.892,4.237a5.8,5.8,0,0,1-1.126.9,1.552,1.552,0,0,1-1.913-.249c-2.961-2.729-5.944-5.437-8.886-8.189-1.656,0-3.312.02-4.969-.015m30.687,8.183a1.545,1.545,0,0,1-1.871.134,5.82,5.82,0,0,1-1.124-.923c-1.248-1.355-2.485-2.722-3.745-4.069q-.006,31.329,0,62.657,14.6-.006,29.212-.006,0-20.23,0-40.462A23.453,23.453,0,0,1,57.618,24.38a24.517,24.517,0,0,1-1.259-7.521c-.04-2.43-.015-4.862-.016-7.293-1.651,0-3.3.015-4.952,0-2.987,2.7-5.933,5.456-8.909,8.172M3.164,78.692c.022,2.9,0,5.805.009,8.707,9.8.023,19.605,0,29.408,0,.009-2.906,0-5.81,0-8.714-9.808.007-19.613-.013-29.419.01m32.576-.009c0,2.9,0,5.808,0,8.711q14.6.029,29.2.018c.026-2.912.01-5.824.009-8.735Q50.344,78.7,35.74,78.684Z" transform="translate(0 0)" fill="#0c1d30"/>
        <path id="Trazado_880331" data-name="Trazado 880331" d="M33.746,7.614a1.578,1.578,0,1,1-.656,2.735,1.588,1.588,0,0,1,.656-2.735" transform="translate(7.339 1.705)" fill="#0c1d30"/>
        <path id="Trazado_880332" data-name="Trazado 880332" d="M21.533,7.777a1.579,1.579,0,1,1-.966,1.659A1.594,1.594,0,0,1,21.533,7.777Z" transform="translate(4.634 1.726)" fill="#0c1d30"/>
        <path id="Trazado_880333" data-name="Trazado 880333" d="M30.364,9.147C32.5,7.056,34.7,5.024,36.857,2.953c1.558,1.449,3.091,2.924,4.665,4.355a4.63,4.63,0,0,1-.723.722q-3.092,2.849-6.187,5.692c-1.45-1.494-2.811-3.07-4.248-4.576m3.875-.493a1.578,1.578,0,1,0,1.939,1.7,1.593,1.593,0,0,0-1.939-1.7" transform="translate(6.847 0.666)" fill="#bcddcb"/>
        <path id="Trazado_880334" data-name="Trazado 880334" d="M16.184,7.423q2.357-2.176,4.681-4.386,3.252,3.083,6.5,6.165c-1.395,1.55-2.819,3.075-4.229,4.61q-3.5-3.173-6.953-6.39m6.335,1.395a1.58,1.58,0,1,0,2.1.953A1.582,1.582,0,0,0,22.519,8.818Z" transform="translate(3.649 0.685)" fill="#bcddcb"/>
        <path id="Trazado_880335" data-name="Trazado 880335" d="M11.211,7.793c1.656.033,3.314.015,4.969.015,2.941,2.751,5.924,5.46,8.885,8.189a1.556,1.556,0,0,0,1.914.249,5.763,5.763,0,0,0,1.126-.9Q30.051,13.221,32,11.105q.009,31.333,0,62.668-14.7,0-29.4,0-.007-20.241,0-40.483a23.691,23.691,0,0,0,8.478-16.149c.217-3.11.113-6.232.138-9.348" transform="translate(0.584 1.757)" fill="#b3e0f8"/>
        <path id="Trazado_880336" data-name="Trazado 880336" d="M35.906,15.974c2.977-2.714,5.923-5.467,8.911-8.172,1.65.021,3.3,0,4.951.006,0,2.431-.025,4.863.017,7.292a24.51,24.51,0,0,0,1.257,7.521,23.468,23.468,0,0,0,7.337,10.685q0,20.232,0,40.461-14.608.022-29.212.006-.006-31.327,0-62.656c1.259,1.346,2.5,2.712,3.745,4.069a5.9,5.9,0,0,0,1.123.923,1.543,1.543,0,0,0,1.871-.135" transform="translate(6.576 1.759)" fill="#b3e0f8"/>
        <path id="Trazado_880337" data-name="Trazado 880337" d="M2.582,64.215c9.808-.023,19.613,0,29.419-.01,0,2.9.006,5.809,0,8.713-9.8.007-19.605.027-29.408,0C2.588,70.02,2.6,67.117,2.582,64.215Z" transform="translate(0.582 14.477)" fill="#f6cfe5"/>
        <path id="Trazado_880338" data-name="Trazado 880338" d="M29.164,64.207q14.6-.009,29.211-.006c0,2.912.017,5.824-.009,8.735q-14.6-.013-29.2-.018C29.159,70.015,29.164,67.11,29.164,64.207Z" transform="translate(6.576 14.476)" fill="#f6cfe5"/>
      </g>
    </g>
  </g>
</svg>
