<svg xmlns="http://www.w3.org/2000/svg" width="378.678" height="391.191" viewBox="0 0 378.678 391.191">
  <g id="Grupo_1103501" data-name="Grupo 1103501" transform="translate(-268.718 -10161)">
    <path id="Trazado_881671" data-name="Trazado 881671" d="M226.449,1.247,0,0" transform="translate(310.616 10381.869)" fill="none" stroke="#9eb3c8" stroke-width="1"/>
    <path id="Trazado_880973" data-name="Trazado 880973" d="M334.522,300.687v19.952h-164.1" transform="translate(291.327 10200.891)" fill="none" stroke="#9eb3c8" stroke-miterlimit="10" stroke-width="1"/>
    <path id="Trazado_881672" data-name="Trazado 881672" d="M290.294,0,0,107.738" transform="translate(285.178 10195.322)" fill="none" stroke="#9eb3c8" stroke-width="1"/>
    <path id="Trazado_880974" data-name="Trazado 880974" d="M201.247,58.486c-.5,1.5,43.395,156.121,43.395,156.121" transform="translate(295.415 10168.759)" fill="none" stroke="#9eb3c8" stroke-miterlimit="10" stroke-width="1"/>
    <path id="Trazado_881673" data-name="Trazado 881673" d="M0,0,24.441,81.8" transform="translate(295.153 10299.07)" fill="none" stroke="#9eb3c8" stroke-width="1" stroke-dasharray="3 3"/>
    <path id="Trazado_881674" data-name="Trazado 881674" d="M0,0V304.259" transform="translate(591.932 10200.81)" fill="none" stroke="#9eb3c8" stroke-width="1" stroke-dasharray="3 3"/>
    <path id="Trazado_881675" data-name="Trazado 881675" d="M0,109.287,264.923,0" transform="translate(275.168 10166.117)" fill="none" stroke="#0c1d30" stroke-linecap="round" stroke-width="1"/>
    <path id="Trazado_880975" data-name="Trazado 880975" d="M13.6,102.471l-.049-1.133-7.412.314,5.478-5.005-.765-.836-7.775,7.1Z" transform="translate(269.127 10173.711)" fill="#0c1d30"/>
    <path id="Trazado_880976" data-name="Trazado 880976" d="M235.659,10.544l-.765-.837,5.478-5-7.412.313-.049-1.132,10.522-.444Z" transform="translate(299.616 10161.456)" fill="#0c1d30"/>
    <path id="Trazado_880977" data-name="Trazado 880977" d="M171.743,312.978s87.786-18.456,159.612-18.456" transform="translate(291.502 10200.072)" fill="none" stroke="#9eb3c8" stroke-miterlimit="10" stroke-width="1" stroke-dasharray="3 3"/>
    <path id="Trazado_881676" data-name="Trazado 881676" d="M0,170.086,3.99,0" transform="translate(469.229 10347.951)" fill="none" stroke="#0c1d30" stroke-linecap="round" stroke-width="1"/>
    <path id="Trazado_880978" data-name="Trazado 880978" d="M184.954,337.329,187.946,144.8H321.123" transform="translate(293.254 10180.209)" fill="none" stroke="#9eb3c8" stroke-miterlimit="10" stroke-width="1"/>
    <path id="Trazado_881677" data-name="Trazado 881677" d="M0,0V314.734" transform="translate(615.873 10204.301)" fill="none" stroke="#0c1d30" stroke-linecap="round" stroke-width="1"/>
    <path id="Trazado_881678" data-name="Trazado 881678" d="M0,0H135.67" transform="translate(478.707 10420.774)" fill="none" stroke="#9eb3c8" stroke-width="1"/>
    <path id="Trazado_880979" data-name="Trazado 880979" d="M215.68,51.88c0,1.5,33.918,98.261-17.956,103.749" transform="translate(294.948 10167.883)" fill="none" stroke="#9eb3c8" stroke-miterlimit="10" stroke-width="1"/>
    <path id="Trazado_880980" data-name="Trazado 880980" d="M281.27,33.385s-30.925,10.973-28.929,49.879" transform="translate(302.182 10165.429)" fill="none" stroke="#9eb3c8" stroke-miterlimit="10" stroke-width="1"/>
    <path id="Trazado_880981" data-name="Trazado 880981" d="M251.755,83.587a49.281,49.281,0,0,0-28.929,32.92" transform="translate(298.278 10172.089)" fill="none" stroke="#9eb3c8" stroke-miterlimit="10" stroke-width="1"/>
    <path id="Trazado_881679" data-name="Trazado 881679" d="M0,0,21.424,70.717" transform="translate(276.71 10309.601)" fill="none" stroke="#0c1d30" stroke-linecap="round" stroke-width="1"/>
    <path id="Trazado_880982" data-name="Trazado 880982" d="M5.726,139.006l1.132.061.407-7.408,4.45,5.936.906-.678L6.3,128.491Z" transform="translate(269.478 10178.046)" fill="#0c1d30"/>
    <path id="Trazado_880983" data-name="Trazado 880983" d="M21.213,189.146l.907-.68L26.57,194.4,26.978,187l1.13.062-.578,10.514Z" transform="translate(271.532 10185.808)" fill="#0c1d30"/>
    <path id="Trazado_881680" data-name="Trazado 881680" d="M0,0H378.678V391.191H0Z" transform="translate(268.718 10161)" fill="none"/>
    <path id="Trazado_881681" data-name="Trazado 881681" d="M.912,0h4.5V-.876H1.956V-8.088H.912Zm9.8,0a8.178,8.178,0,0,1-.1-1.392V-3.564c0-1.164-.432-2.376-2.208-2.376A3.6,3.6,0,0,0,6.5-5.424l.24.7A2.894,2.894,0,0,1,8.256-5.16a1.2,1.2,0,0,1,1.32,1.344v.12c-2.244-.012-3.492.756-3.492,2.16A1.655,1.655,0,0,0,7.86.132,2.163,2.163,0,0,0,9.636-.732h.036L9.756,0ZM9.6-1.956a1.1,1.1,0,0,1-.06.336,1.445,1.445,0,0,1-1.4.972.934.934,0,0,1-1-1.008c0-1.128,1.308-1.332,2.46-1.308ZM12.324,0h1.044V-3.1a2.972,2.972,0,0,1,.048-.492,1.481,1.481,0,0,1,1.416-1.356,1.586,1.586,0,0,1,.36.036v-1a1.142,1.142,0,0,0-.3-.036,1.743,1.743,0,0,0-1.608,1.272h-.048L13.2-5.808h-.924c.036.54.048,1.128.048,1.812Zm7.824-5.808-.048.876h-.024A1.932,1.932,0,0,0,18.264-5.94a2.788,2.788,0,0,0-2.616,3.084A2.6,2.6,0,0,0,18.12-.024,2.073,2.073,0,0,0,19.968-1h.024v.648c0,1.464-.792,2.028-1.872,2.028a3.275,3.275,0,0,1-1.7-.456l-.264.8a3.749,3.749,0,0,0,1.932.48,3.079,3.079,0,0,0,2.112-.7A3.34,3.34,0,0,0,21.024-.84V-4.212c0-.708.024-1.176.048-1.6ZM19.98-2.472a1.837,1.837,0,0,1-.084.564,1.544,1.544,0,0,1-1.464,1.08c-1.14,0-1.716-.948-1.716-2.088,0-1.344.72-2.2,1.728-2.2A1.521,1.521,0,0,1,19.92-4a1.5,1.5,0,0,1,.06.48ZM26.952,0a8.178,8.178,0,0,1-.1-1.392V-3.564c0-1.164-.432-2.376-2.208-2.376a3.6,3.6,0,0,0-1.908.516l.24.7a2.894,2.894,0,0,1,1.512-.432,1.2,1.2,0,0,1,1.32,1.344v.12c-2.244-.012-3.492.756-3.492,2.16A1.655,1.655,0,0,0,24.1.132a2.163,2.163,0,0,0,1.776-.864h.036L25.992,0ZM25.836-1.956a1.1,1.1,0,0,1-.06.336,1.445,1.445,0,0,1-1.4.972.934.934,0,0,1-1-1.008c0-1.128,1.308-1.332,2.46-1.308ZM35.064-8.52v3.468H35.04a1.942,1.942,0,0,0-1.752-.888c-1.416,0-2.616,1.188-2.6,3.12,0,1.764,1.08,2.952,2.484,2.952a2.148,2.148,0,0,0,1.98-1.14h.024L35.22,0h.948c-.036-.4-.048-.984-.048-1.5V-8.52Zm0,6.084a1.834,1.834,0,0,1-.048.456A1.587,1.587,0,0,1,33.468-.72c-1.14,0-1.716-.972-1.716-2.148,0-1.284.648-2.244,1.74-2.244a1.553,1.553,0,0,1,1.524,1.224,1.864,1.864,0,0,1,.048.444Zm7.476-.276a3.983,3.983,0,0,0,.036-.492,2.461,2.461,0,0,0-2.4-2.736c-1.692,0-2.724,1.38-2.724,3.132A2.7,2.7,0,0,0,40.308.12,4.7,4.7,0,0,0,42.24-.24L42.06-1a3.819,3.819,0,0,1-1.608.3A1.861,1.861,0,0,1,38.46-2.712Zm-4.068-.756a1.75,1.75,0,0,1,1.62-1.716,1.5,1.5,0,0,1,1.464,1.716ZM46.428,0H47.46V-3.5a1.456,1.456,0,0,1,.084-.516,1.443,1.443,0,0,1,1.308-1.056c.8,0,1.212.672,1.212,1.6V0H51.1V-3.588a1.739,1.739,0,0,1,.084-.528,1.367,1.367,0,0,1,1.248-.96c.852,0,1.26.672,1.26,1.788V0H54.72V-3.42c0-2.016-1.14-2.52-1.908-2.52a1.982,1.982,0,0,0-1.284.408,2.393,2.393,0,0,0-.648.756h-.024A1.717,1.717,0,0,0,49.212-5.94a2,2,0,0,0-1.824,1.068h-.036L47.3-5.808H46.38c.036.48.048.972.048,1.572ZM60.612,0a8.178,8.178,0,0,1-.1-1.392V-3.564c0-1.164-.432-2.376-2.208-2.376a3.6,3.6,0,0,0-1.908.516l.24.7a2.894,2.894,0,0,1,1.512-.432,1.2,1.2,0,0,1,1.32,1.344v.12c-2.244-.012-3.492.756-3.492,2.16A1.655,1.655,0,0,0,57.756.132a2.163,2.163,0,0,0,1.776-.864h.036L59.652,0ZM59.5-1.956a1.1,1.1,0,0,1-.06.336,1.445,1.445,0,0,1-1.4.972.934.934,0,0,1-1-1.008c0-1.128,1.308-1.332,2.46-1.308ZM62.22,0h1.056V-3.492a1.518,1.518,0,0,1,.072-.492,1.5,1.5,0,0,1,1.416-1.08c1,0,1.344.78,1.344,1.716V0h1.056V-3.468c0-1.992-1.248-2.472-2.052-2.472a2.136,2.136,0,0,0-1.92,1.092h-.024l-.06-.96h-.936c.036.48.048.972.048,1.572ZM72.96-5.808l-.048.876h-.024A1.932,1.932,0,0,0,71.076-5.94,2.788,2.788,0,0,0,68.46-2.856,2.6,2.6,0,0,0,70.932-.024,2.073,2.073,0,0,0,72.78-1H72.8v.648c0,1.464-.792,2.028-1.872,2.028a3.275,3.275,0,0,1-1.7-.456l-.264.8a3.749,3.749,0,0,0,1.932.48,3.079,3.079,0,0,0,2.112-.7A3.34,3.34,0,0,0,73.836-.84V-4.212c0-.708.024-1.176.048-1.6Zm-.168,3.336a1.837,1.837,0,0,1-.084.564,1.544,1.544,0,0,1-1.464,1.08c-1.14,0-1.716-.948-1.716-2.088,0-1.344.72-2.2,1.728-2.2A1.521,1.521,0,0,1,72.732-4a1.5,1.5,0,0,1,.06.48ZM79.764,0a8.178,8.178,0,0,1-.1-1.392V-3.564c0-1.164-.432-2.376-2.208-2.376a3.6,3.6,0,0,0-1.908.516l.24.7A2.894,2.894,0,0,1,77.3-5.16a1.2,1.2,0,0,1,1.32,1.344v.12c-2.244-.012-3.492.756-3.492,2.16A1.655,1.655,0,0,0,76.908.132a2.163,2.163,0,0,0,1.776-.864h.036L78.8,0ZM78.648-1.956a1.1,1.1,0,0,1-.06.336,1.445,1.445,0,0,1-1.4.972.934.934,0,0,1-1-1.008c0-1.128,1.308-1.332,2.46-1.308Zm7.584-4.428v2.82H83.52v.72h2.712V0H87V-2.844h2.712v-.72H87v-2.82ZM95.568,0h1.02V-7.8h-.9l-1.7.912.2.8,1.356-.732h.024ZM99.84,1.4a14.63,14.63,0,0,0,1.14-2.916l-1.176.12a17.266,17.266,0,0,1-.72,2.868Zm6.732-9.2H102.84l-.5,3.744a8.069,8.069,0,0,1,1.08-.084c1.56,0,2.232.72,2.244,1.728A1.721,1.721,0,0,1,103.812-.72a3.493,3.493,0,0,1-1.668-.432l-.264.8a3.818,3.818,0,0,0,1.944.48,2.706,2.706,0,0,0,2.9-2.664,2.223,2.223,0,0,0-1.116-2,3.3,3.3,0,0,0-1.68-.42,4.17,4.17,0,0,0-.636.048l.3-2h2.976Z" transform="translate(343.28 10233.151) rotate(-21.42)" fill="#161615"/>
    <path id="Trazado_881682" data-name="Trazado 881682" d="M4.693,0H3V-6.527L.979-5.9V-7.277L4.512-8.543h.182ZM7.975,2.139,7.09,1.676,7.3,1.295a3.044,3.044,0,0,0,.4-1.424V-1.441h1.43L9.129-.27A3.044,3.044,0,0,1,8.8,1.043,3.365,3.365,0,0,1,7.975,2.139ZM10.646-4.2l.492-4.336H15.92v1.412H12.527l-.211,1.834A2.685,2.685,0,0,1,13.6-5.607a2.459,2.459,0,0,1,1.91.756A3.019,3.019,0,0,1,16.2-2.736a3.093,3.093,0,0,1-.349,1.479,2.461,2.461,0,0,1-1,1.014,3.119,3.119,0,0,1-1.535.36A3.312,3.312,0,0,1,11.883-.2a2.546,2.546,0,0,1-1.046-.882,2.4,2.4,0,0,1-.407-1.295h1.676a1.252,1.252,0,0,0,.372.829,1.18,1.18,0,0,0,.835.3,1.041,1.041,0,0,0,.885-.413,1.914,1.914,0,0,0,.311-1.169,1.582,1.582,0,0,0-.357-1.113,1.312,1.312,0,0,0-1.014-.387,1.466,1.466,0,0,0-.979.316l-.164.152Z" transform="translate(572.479 10171.169)" fill="#0c1d2f"/>
    <path id="Trazado_881683" data-name="Trazado 881683" d="M4.693,0H3V-6.527L.979-5.9V-7.277L4.512-8.543h.182ZM7.975,2.139,7.09,1.676,7.3,1.295a3.044,3.044,0,0,0,.4-1.424V-1.441h1.43L9.129-.27A3.044,3.044,0,0,1,8.8,1.043,3.365,3.365,0,0,1,7.975,2.139ZM10.646-4.2l.492-4.336H15.92v1.412H12.527l-.211,1.834A2.685,2.685,0,0,1,13.6-5.607a2.459,2.459,0,0,1,1.91.756A3.019,3.019,0,0,1,16.2-2.736a3.093,3.093,0,0,1-.349,1.479,2.461,2.461,0,0,1-1,1.014,3.119,3.119,0,0,1-1.535.36A3.312,3.312,0,0,1,11.883-.2a2.546,2.546,0,0,1-1.046-.882,2.4,2.4,0,0,1-.407-1.295h1.676a1.252,1.252,0,0,0,.372.829,1.18,1.18,0,0,0,.835.3,1.041,1.041,0,0,0,.885-.413,1.914,1.914,0,0,0,.311-1.169,1.582,1.582,0,0,0-.357-1.113,1.312,1.312,0,0,0-1.014-.387,1.466,1.466,0,0,0-.979.316l-.164.152Z" transform="translate(627.839 10401.131)" fill="#0c1d2f"/>
    <path id="Trazado_881684" data-name="Trazado 881684" d="M0,0H378.678V391.191H0Z" transform="translate(268.718 10161)" fill="none"/>
    <path id="Trazado_881685" data-name="Trazado 881685" d="M4.693,0H3V-6.527L.979-5.9V-7.277L4.512-8.543h.182ZM7.975,2.139,7.09,1.676,7.3,1.295a3.044,3.044,0,0,0,.4-1.424V-1.441h1.43L9.129-.27A3.044,3.044,0,0,1,8.8,1.043,3.365,3.365,0,0,1,7.975,2.139ZM10.646-4.2l.492-4.336H15.92v1.412H12.527l-.211,1.834A2.685,2.685,0,0,1,13.6-5.607a2.459,2.459,0,0,1,1.91.756A3.019,3.019,0,0,1,16.2-2.736a3.093,3.093,0,0,1-.349,1.479,2.461,2.461,0,0,1-1,1.014,3.119,3.119,0,0,1-1.535.36A3.312,3.312,0,0,1,11.883-.2a2.546,2.546,0,0,1-1.046-.882,2.4,2.4,0,0,1-.407-1.295h1.676a1.252,1.252,0,0,0,.372.829,1.18,1.18,0,0,0,.835.3,1.041,1.041,0,0,0,.885-.413,1.914,1.914,0,0,0,.311-1.169,1.582,1.582,0,0,0-.357-1.113,1.312,1.312,0,0,0-1.014-.387,1.466,1.466,0,0,0-.979.316l-.164.152Z" transform="translate(441.889 10364.946)" fill="#0c1d2f"/>
    <path id="Trazado_881686" data-name="Trazado 881686" d="M6.322-3.527A4.322,4.322,0,0,1,5.59-.82,2.557,2.557,0,0,1,3.445.117,2.574,2.574,0,0,1,1.313-.8,4.2,4.2,0,0,1,.557-3.439V-5.01A4.265,4.265,0,0,1,1.3-7.723a2.576,2.576,0,0,1,2.136-.926,2.578,2.578,0,0,1,2.133.917A4.182,4.182,0,0,1,6.322-5.1ZM4.629-5.25a3.118,3.118,0,0,0-.29-1.544.98.98,0,0,0-.905-.483.963.963,0,0,0-.882.46,2.918,2.918,0,0,0-.3,1.438V-3.3a3.273,3.273,0,0,0,.284,1.55.967.967,0,0,0,.911.507.951.951,0,0,0,.9-.486,3.2,3.2,0,0,0,.287-1.488ZM7.975,2.139,7.09,1.676,7.3,1.295a3.044,3.044,0,0,0,.4-1.424V-1.441h1.43L9.129-.27A3.044,3.044,0,0,1,8.8,1.043,3.365,3.365,0,0,1,7.975,2.139ZM16.2-7.582,12.9,0H11.109l3.3-7.16H10.172V-8.531H16.2Z" transform="translate(417.354 10398.859)" fill="#0c1d2f"/>
    <path id="Trazado_881687" data-name="Trazado 881687" d="M2.3-5.016h.9a1.271,1.271,0,0,0,.955-.322,1.181,1.181,0,0,0,.311-.855A1.044,1.044,0,0,0,4.163-7a1.192,1.192,0,0,0-.847-.287,1.25,1.25,0,0,0-.814.267.852.852,0,0,0-.328.694H.48a2.083,2.083,0,0,1,.36-1.2A2.4,2.4,0,0,1,1.849-8.35a3.364,3.364,0,0,1,1.427-.3A3.19,3.19,0,0,1,5.4-8a2.209,2.209,0,0,1,.768,1.784,1.8,1.8,0,0,1-.357,1.078,2.322,2.322,0,0,1-.937.756,2.12,2.12,0,0,1,1.075.773A2.1,2.1,0,0,1,6.3-2.391,2.246,2.246,0,0,1,5.47-.568,3.334,3.334,0,0,1,3.275.117,3.161,3.161,0,0,1,1.187-.557,2.2,2.2,0,0,1,.375-2.338H2.068a.981.981,0,0,0,.36.785,1.328,1.328,0,0,0,.888.3,1.334,1.334,0,0,0,.946-.319,1.1,1.1,0,0,0,.343-.847q0-1.277-1.406-1.277H2.3Z" transform="translate(527.083 10234.764)" fill="#0c1d2f"/>
    <path id="Trazado_881688" data-name="Trazado 881688" d="M4.693,0H3V-6.527L.979-5.9V-7.277L4.512-8.543h.182ZM7.975,2.139,7.09,1.676,7.3,1.295a3.044,3.044,0,0,0,.4-1.424V-1.441h1.43L9.129-.27A3.044,3.044,0,0,1,8.8,1.043,3.365,3.365,0,0,1,7.975,2.139ZM10.646-4.2l.492-4.336H15.92v1.412H12.527l-.211,1.834A2.685,2.685,0,0,1,13.6-5.607a2.459,2.459,0,0,1,1.91.756A3.019,3.019,0,0,1,16.2-2.736a3.093,3.093,0,0,1-.349,1.479,2.461,2.461,0,0,1-1,1.014,3.119,3.119,0,0,1-1.535.36A3.312,3.312,0,0,1,11.883-.2a2.546,2.546,0,0,1-1.046-.882,2.4,2.4,0,0,1-.407-1.295h1.676a1.252,1.252,0,0,0,.372.829,1.18,1.18,0,0,0,.835.3,1.041,1.041,0,0,0,.885-.413,1.914,1.914,0,0,0,.311-1.169,1.582,1.582,0,0,0-.357-1.113,1.312,1.312,0,0,0-1.014-.387,1.466,1.466,0,0,0-.979.316l-.164.152Z" transform="translate(444.291 10547.049)" fill="#0c1d2f"/>
    <path id="Trazado_881689" data-name="Trazado 881689" d="M4.693,0H3V-6.527L.979-5.9V-7.277L4.512-8.543h.182ZM7.975,2.139,7.09,1.676,7.3,1.295a3.044,3.044,0,0,0,.4-1.424V-1.441h1.43L9.129-.27A3.044,3.044,0,0,1,8.8,1.043,3.365,3.365,0,0,1,7.975,2.139ZM10.646-4.2l.492-4.336H15.92v1.412H12.527l-.211,1.834A2.685,2.685,0,0,1,13.6-5.607a2.459,2.459,0,0,1,1.91.756A3.019,3.019,0,0,1,16.2-2.736a3.093,3.093,0,0,1-.349,1.479,2.461,2.461,0,0,1-1,1.014,3.119,3.119,0,0,1-1.535.36A3.312,3.312,0,0,1,11.883-.2a2.546,2.546,0,0,1-1.046-.882,2.4,2.4,0,0,1-.407-1.295h1.676a1.252,1.252,0,0,0,.372.829,1.18,1.18,0,0,0,.835.3,1.041,1.041,0,0,0,.885-.413,1.914,1.914,0,0,0,.311-1.169,1.582,1.582,0,0,0-.357-1.113,1.312,1.312,0,0,0-1.014-.387,1.466,1.466,0,0,0-.979.316l-.164.152Z" transform="translate(470.225 10547.049)" fill="#0c1d2f"/>
    <path id="Trazado_881690" data-name="Trazado 881690" d="M4.693,0H3V-6.527L.979-5.9V-7.277L4.512-8.543h.182ZM7.717-4.2l.492-4.336H12.99v1.412H9.6L9.387-5.285a2.685,2.685,0,0,1,1.283-.322,2.459,2.459,0,0,1,1.91.756,3.019,3.019,0,0,1,.691,2.115,3.093,3.093,0,0,1-.349,1.479,2.461,2.461,0,0,1-1,1.014,3.119,3.119,0,0,1-1.535.36A3.312,3.312,0,0,1,8.953-.2a2.546,2.546,0,0,1-1.046-.882A2.4,2.4,0,0,1,7.5-2.373H9.176a1.252,1.252,0,0,0,.372.829,1.18,1.18,0,0,0,.835.3,1.041,1.041,0,0,0,.885-.413,1.914,1.914,0,0,0,.311-1.169,1.582,1.582,0,0,0-.357-1.113,1.312,1.312,0,0,0-1.014-.387,1.466,1.466,0,0,0-.979.316l-.164.152Z" transform="translate(268.709 10349.979)" fill="#0c1d2f"/>
    <path id="Trazado_881691" data-name="Trazado 881691" d="M0,0H378.678V391.191H0Z" transform="translate(268.718 10161)" fill="none"/>
    <path id="Trazado_881692" data-name="Trazado 881692" d="M4.693,0H3V-6.527L.979-5.9V-7.277L4.512-8.543h.182ZM7.717-4.2l.492-4.336H12.99v1.412H9.6L9.387-5.285a2.685,2.685,0,0,1,1.283-.322,2.459,2.459,0,0,1,1.91.756,3.019,3.019,0,0,1,.691,2.115,3.093,3.093,0,0,1-.349,1.479,2.461,2.461,0,0,1-1,1.014,3.119,3.119,0,0,1-1.535.36A3.312,3.312,0,0,1,8.953-.2a2.546,2.546,0,0,1-1.046-.882A2.4,2.4,0,0,1,7.5-2.373H9.176a1.252,1.252,0,0,0,.372.829,1.18,1.18,0,0,0,.835.3,1.041,1.041,0,0,0,.885-.413,1.914,1.914,0,0,0,.311-1.169,1.582,1.582,0,0,0-.357-1.113,1.312,1.312,0,0,0-1.014-.387,1.466,1.466,0,0,0-.979.316l-.164.152Z" transform="translate(588.938 10476.177)" fill="#0c1d2f"/>
    <path id="Trazado_880984" data-name="Trazado 880984" d="M320.488,47.081s-30.925,3.99-66.837-22.944" transform="translate(302.368 10164.202)" fill="none" stroke="#9eb3c8" stroke-miterlimit="10" stroke-width="1" stroke-dasharray="3 3"/>
    <path id="Trazado_880985" data-name="Trazado 880985" d="M311.417,51.577a4.923,4.923,0,1,1-4.924-4.924,4.923,4.923,0,0,1,4.924,4.924" transform="translate(308.726 10167.189)" fill="#fff"/>
    <path id="Trazado_880986" data-name="Trazado 880986" d="M311.417,51.577a4.923,4.923,0,1,1-4.924-4.924A4.923,4.923,0,0,1,311.417,51.577Z" transform="translate(308.726 10167.189)" fill="none" stroke="#0c1d30" stroke-linecap="round" stroke-linejoin="round" stroke-width="0.863"/>
    <path id="Trazado_881693" data-name="Trazado 881693" d="M0,0V6.3" transform="translate(615.22 10215.618)" fill="none" stroke="#0c1d30" stroke-linecap="round" stroke-width="0.863"/>
    <path id="Trazado_881694" data-name="Trazado 881694" d="M6.3,0H0" transform="translate(612.072 10218.766)" fill="none" stroke="#0c1d30" stroke-linecap="round" stroke-width="0.863"/>
    <path id="Trazado_880987" data-name="Trazado 880987" d="M311.417,102.219a4.923,4.923,0,1,1-4.924-4.924,4.923,4.923,0,0,1,4.924,4.924" transform="translate(308.726 10173.907)" fill="#fff"/>
    <path id="Trazado_880988" data-name="Trazado 880988" d="M311.417,102.219a4.923,4.923,0,1,1-4.924-4.924A4.923,4.923,0,0,1,311.417,102.219Z" transform="translate(308.726 10173.907)" fill="none" stroke="#0c1d30" stroke-linecap="round" stroke-linejoin="round" stroke-width="0.863"/>
    <path id="Trazado_881695" data-name="Trazado 881695" d="M0,0V6.3" transform="translate(615.22 10272.979)" fill="none" stroke="#0c1d30" stroke-linecap="round" stroke-width="0.863"/>
    <path id="Trazado_881696" data-name="Trazado 881696" d="M6.3,0H0" transform="translate(612.072 10276.126)" fill="none" stroke="#0c1d30" stroke-linecap="round" stroke-width="0.863"/>
    <path id="Trazado_880989" data-name="Trazado 880989" d="M311.417,152.861a4.923,4.923,0,1,1-4.924-4.924,4.923,4.923,0,0,1,4.924,4.924" transform="translate(308.726 10180.626)" fill="#fff"/>
    <path id="Trazado_880990" data-name="Trazado 880990" d="M311.417,152.861a4.923,4.923,0,1,1-4.924-4.924A4.923,4.923,0,0,1,311.417,152.861Z" transform="translate(308.726 10180.626)" fill="none" stroke="#0c1d30" stroke-linecap="round" stroke-linejoin="round" stroke-width="0.863"/>
    <path id="Trazado_881697" data-name="Trazado 881697" d="M0,0V6.3" transform="translate(615.22 10330.339)" fill="none" stroke="#0c1d30" stroke-linecap="round" stroke-width="0.863"/>
    <path id="Trazado_881698" data-name="Trazado 881698" d="M6.3,0H0" transform="translate(612.072 10333.486)" fill="none" stroke="#0c1d30" stroke-linecap="round" stroke-width="0.863"/>
    <path id="Trazado_880991" data-name="Trazado 880991" d="M311.417,203.5a4.923,4.923,0,1,1-4.924-4.924,4.923,4.923,0,0,1,4.924,4.924" transform="translate(308.726 10187.344)" fill="#fff"/>
    <path id="Trazado_880992" data-name="Trazado 880992" d="M311.417,203.5a4.923,4.923,0,1,1-4.924-4.924A4.923,4.923,0,0,1,311.417,203.5Z" transform="translate(308.726 10187.344)" fill="none" stroke="#0c1d30" stroke-linecap="round" stroke-linejoin="round" stroke-width="0.863"/>
    <path id="Trazado_881699" data-name="Trazado 881699" d="M0,0V6.3" transform="translate(615.22 10387.699)" fill="none" stroke="#0c1d30" stroke-linecap="round" stroke-width="0.863"/>
    <path id="Trazado_881700" data-name="Trazado 881700" d="M6.3,0H0" transform="translate(612.072 10390.847)" fill="none" stroke="#0c1d30" stroke-linecap="round" stroke-width="0.863"/>
    <path id="Trazado_880993" data-name="Trazado 880993" d="M311.417,254.145a4.923,4.923,0,1,1-4.924-4.924,4.923,4.923,0,0,1,4.924,4.924" transform="translate(308.726 10194.063)" fill="#fff"/>
    <path id="Trazado_880994" data-name="Trazado 880994" d="M311.417,254.145a4.923,4.923,0,1,1-4.924-4.924A4.923,4.923,0,0,1,311.417,254.145Z" transform="translate(308.726 10194.063)" fill="none" stroke="#0c1d30" stroke-linecap="round" stroke-linejoin="round" stroke-width="0.863"/>
    <path id="Trazado_881701" data-name="Trazado 881701" d="M0,0V6.3" transform="translate(615.22 10445.06)" fill="none" stroke="#0c1d30" stroke-linecap="round" stroke-width="0.863"/>
    <path id="Trazado_881702" data-name="Trazado 881702" d="M6.3,0H0" transform="translate(612.072 10448.207)" fill="none" stroke="#0c1d30" stroke-linecap="round" stroke-width="0.863"/>
    <path id="Trazado_881703" data-name="Trazado 881703" d="M0,0V19" transform="translate(638.319 10501.556)" fill="none" stroke="#0c1d30" stroke-width="0.716"/>
    <path id="Trazado_880995" data-name="Trazado 880995" d="M322.9,306.322a.405.405,0,0,0,.56-.125l3.331-5.231,3.331,5.231a.406.406,0,1,0,.684-.436l-3.673-5.766a.405.405,0,0,0-.684,0l-3.673,5.766a.417.417,0,0,0-.063.217.409.409,0,0,0,.188.343" transform="translate(311.529 10200.773)" fill="#0c1d30"/>
    <path id="Trazado_880996" data-name="Trazado 880996" d="M322.9,312.558a.405.405,0,0,1,.56.125l3.331,5.231,3.331-5.231a.406.406,0,1,1,.684.436l-3.673,5.766a.405.405,0,0,1-.684,0l-3.673-5.766a.416.416,0,0,1-.063-.217.407.407,0,0,1,.188-.343" transform="translate(311.529 10202.457)" fill="#0c1d30"/>
    <path id="Trazado_881704" data-name="Trazado 881704" d="M0,0V96.313" transform="translate(607.893 10424.237)" fill="none" stroke="#0c1d30" stroke-width="0.716"/>
    <path id="Trazado_880997" data-name="Trazado 880997" d="M296.036,238.06a.405.405,0,0,0,.56-.125l3.331-5.231,3.331,5.231a.406.406,0,1,0,.684-.436l-3.673-5.766a.405.405,0,0,0-.684,0l-3.673,5.766a.416.416,0,0,0-.063.217.407.407,0,0,0,.188.343" transform="translate(307.966 10191.718)" fill="#0c1d30"/>
    <path id="Trazado_880998" data-name="Trazado 880998" d="M296.036,312.553a.405.405,0,0,1,.56.125l3.331,5.231,3.331-5.231a.406.406,0,1,1,.684.436l-3.673,5.766a.405.405,0,0,1-.684,0l-3.673-5.766a.416.416,0,0,1-.063-.217.409.409,0,0,1,.188-.343" transform="translate(307.966 10202.456)" fill="#0c1d30"/>
    <path id="Trazado_881705" data-name="Trazado 881705" d="M0,33.335,24.538,0" transform="translate(536.067 10191.416)" fill="none" stroke="#0c1d30" stroke-linecap="round" stroke-width="1"/>
    <path id="Trazado_880999" data-name="Trazado 880999" d="M257.437,34.683l-1.087-.319,2.09-7.119-6.176,4.11-.628-.944,8.767-5.834Z" transform="translate(302.101 10164.261)" fill="#0c1d30"/>
    <path id="Trazado_881706" data-name="Trazado 881706" d="M0,10.681,7.863,0" transform="translate(427.548 10378.96)" fill="none" stroke="#0c1d30" stroke-linecap="round" stroke-width="1"/>
    <path id="Trazado_881000" data-name="Trazado 881000" d="M146.905,200.261l-1.087-.319,2.09-7.119-6.176,4.11-.628-.944,8.767-5.834Z" transform="translate(287.438 10186.227)" fill="#0c1d30"/>
    <path id="Trazado_881707" data-name="Trazado 881707" d="M0,0,13.051,2.363" transform="translate(463.98 10362.841)" fill="none" stroke="#0c1d30" stroke-linecap="round" stroke-width="1"/>
    <path id="Trazado_881001" data-name="Trazado 881001" d="M177.555,183.193l-.191-1.117,7.312-1.255-6.409-3.739.571-.979,9.1,5.308Z" transform="translate(292.247 10184.362)" fill="#0c1d30"/>
    <path id="Trazado_881708" data-name="Trazado 881708" d="M0,13.077,2.22,0" transform="translate(476.439 10523.74)" fill="none" stroke="#0c1d30" stroke-linecap="round" stroke-width="1"/>
    <path id="Trazado_881002" data-name="Trazado 881002" d="M188.33,327.829l-1.115.2-1.335-7.3-3.669,6.449-.984-.561,5.208-9.153Z" transform="translate(292.76 10203.116)" fill="#0c1d30"/>
    <path id="Trazado_881709" data-name="Trazado 881709" d="M0,13.077,2.22,0" transform="translate(458.483 10523.74)" fill="none" stroke="#0c1d30" stroke-linecap="round" stroke-width="1"/>
    <path id="Trazado_881003" data-name="Trazado 881003" d="M172.477,327.829l-1.115.2-1.335-7.3-3.669,6.449-.984-.561,5.208-9.153Z" transform="translate(290.657 10203.116)" fill="#0c1d30"/>
    <path id="Trazado_881004" data-name="Trazado 881004" d="M142.35,46.873a4.24,4.24,0,1,1-4.24-4.24,4.24,4.24,0,0,1,4.24,4.24" transform="translate(286.478 10166.656)" fill="#0c1d2f"/>
    <path id="Trazado_881710" data-name="Trazado 881710" d="M0,0,13.468,9.05" transform="translate(620.941 10379.483)" fill="none" stroke="#0c1d30" stroke-linecap="round" stroke-width="1"/>
    <path id="Trazado_881005" data-name="Trazado 881005" d="M314.829,199.827l.915-.668-4.372-5.994,7.2,1.782.272-1.1-10.222-2.53Z" transform="translate(309.661 10186.381)" fill="#0c1d30"/>
    <path id="Trazado_881711" data-name="Trazado 881711" d="M0,16.071,2.237,0" transform="translate(579.811 10176.724)" fill="none" stroke="#0c1d30" stroke-linecap="round" stroke-width="1"/>
    <path id="Trazado_881006" data-name="Trazado 881006" d="M279.457,22.8l-1-.53-3.474,6.555-1.552-7.255-1.108.237,2.2,10.3Z" transform="translate(304.845 10163.861)" fill="#0c1d30"/>
    <path id="Trazado_881007" data-name="Trazado 881007" d="M14.532,139.268,290.86,21.055S315.8,44,355.2,41.505v296.28s-151.132,14.964-164.1,20.949l9.477-145.146L39.97,218.076Z" transform="translate(270.646 10163.793)" fill="none" stroke="#0c1d30" stroke-linecap="round" stroke-linejoin="round" stroke-width="1"/>
    <path id="Trazado_881008" data-name="Trazado 881008" d="M293.51,34.266,258.1,94.619s-36.412,86.291-77.312,87.787l-1.995,29.428" transform="translate(292.437 10165.546)" fill="none" stroke="#0c1d30" stroke-linecap="round" stroke-linejoin="round" stroke-width="1"/>
    <path id="Trazado_881009" data-name="Trazado 881009" d="M181.871,204.558s55.366,4.489,65.341,6.484c0,0-8.479-76.314,12.968-125.694" transform="translate(292.846 10172.322)" fill="none" stroke="#0c1d30" stroke-linecap="round" stroke-linejoin="round" stroke-width="1"/>
    <path id="Trazado_881712" data-name="Trazado 881712" d="M0,0H378.678V391.191H0Z" transform="translate(268.718 10161)" fill="none"/>
  </g>
</svg>
