<svg xmlns="http://www.w3.org/2000/svg" xmlns:xlink="http://www.w3.org/1999/xlink" width="385" height="349" viewBox="0 0 385 349">
  <defs>
    <clipPath id="clip-path">
      <rect id="Rectángulo_403806" data-name="Rectángulo 403806" width="385" height="349" transform="translate(-2628 -7355)" fill="#fff" stroke="#707070" stroke-width="1"/>
    </clipPath>
  </defs>
  <g id="Enmascarar_grupo_1098827" data-name="Enmascarar grupo 1098827" transform="translate(2628 7355)" clip-path="url(#clip-path)">
    <g id="Grupo_1103497" data-name="Grupo 1103497">
      <g id="Grupo_1103496" data-name="Grupo 1103496">
        <path id="Trazado_880680" data-name="Trazado 880680" d="M155.944,272.608h-46.3a14.822,14.822,0,0,1-14.822-14.821V218.361h75.947v39.426A14.821,14.821,0,0,1,155.944,272.608Z" transform="translate(-2542.933 -7299.24)" fill="none" stroke="#0c1d30" stroke-miterlimit="10" stroke-width="1"/>
        <path id="Trazado_881602" data-name="Trazado 881602" d="M5.425,0A5.524,5.524,0,0,1,10.85,5.619a5.524,5.524,0,0,1-5.425,5.619A5.524,5.524,0,0,1,0,5.619,5.524,5.524,0,0,1,5.425,0Z" transform="translate(-2344.141 -7169.937)" fill="none" stroke="#0c1d30" stroke-width="1"/>
        <path id="Trazado_881603" data-name="Trazado 881603" d="M5.425,0A5.524,5.524,0,0,1,10.85,5.619a5.524,5.524,0,0,1-5.425,5.619A5.524,5.524,0,0,1,0,5.619,5.524,5.524,0,0,1,5.425,0Z" transform="translate(-2344.141 -7110.522)" fill="none" stroke="#0c1d30" stroke-width="1"/>
        <path id="Trazado_881604" data-name="Trazado 881604" d="M5.425,0A5.524,5.524,0,0,1,10.85,5.619a5.524,5.524,0,0,1-5.425,5.619A5.524,5.524,0,0,1,0,5.619,5.524,5.524,0,0,1,5.425,0Z" transform="translate(-2344.141 -7048.267)" fill="none" stroke="#0c1d30" stroke-width="1"/>
        <path id="Trazado_880681" data-name="Trazado 880681" d="M.139,76.326s19.633-5.683,82.147,75.43l84.73-33.065s4.133-23.766,29.449-39.782L105.018.379" transform="translate(-2559.333 -7337)" fill="none" stroke="#0c1d30" stroke-miterlimit="10" stroke-width="1"/>
        <path id="Trazado_880682" data-name="Trazado 880682" d="M122.108,26.361S64.053,77.915,76.126,138.99c8.784,44.431,94.03,79.047,94.03,79.047l37.586-58.9V304.317" transform="translate(-2546.457 -7332.499)" fill="none" stroke="#0c1d30" stroke-miterlimit="10" stroke-width="1"/>
        <path id="Trazado_880683" data-name="Trazado 880683" d="M131.114,32.526c-2.066,0-51.665,48.564-45.465,98.68s88.346,73.364,88.346,73.364" transform="translate(-2544.614 -7331.431)" fill="none" stroke="#0c1d30" stroke-miterlimit="10" stroke-width="1"/>
        <path id="Trazado_881605" data-name="Trazado 881605" d="M62.724,0,0,24.18" transform="translate(-2458.81 -7205.857)" fill="none" stroke="#0c1d30" stroke-width="1.168"/>
        <path id="Trazado_880684" data-name="Trazado 880684" d="M131.385,110.888l.026,1.372,8.976-.17-6.767,5.9.9,1.034,9.605-8.373Z" transform="translate(-2536.599 -7317.898)" fill="#0c1d30"/>
        <path id="Trazado_880685" data-name="Trazado 880685" d="M92.226,126.495l.9,1.034-6.767,5.9,8.975-.17.027,1.37-12.741.24Z" transform="translate(-2545.046 -7315.153)" fill="#0c1d30"/>
        <path id="Trazado_881606" data-name="Trazado 881606" d="M29.529,0,0,42.977" transform="translate(-2380.869 -7169.259)" fill="none" stroke="#0c1d30" stroke-width="1.168"/>
        <path id="Trazado_880686" data-name="Trazado 880686" d="M170.332,147.71l.8,1.116,7.308-5.214L176.19,152.3l1.327.343,3.189-12.336Z" transform="translate(-2529.853 -7312.761)" fill="#0c1d30"/>
        <path id="Trazado_880687" data-name="Trazado 880687" d="M153.454,171.866l1.328.344-2.247,8.691,7.307-5.214.8,1.115-10.372,7.4Z" transform="translate(-2533.328 -7307.294)" fill="#0c1d30"/>
        <path id="Trazado_881607" data-name="Trazado 881607" d="M52.309,44.029,0,0" transform="translate(-2411.215 -7311.753)" fill="none" stroke="#0c1d30" stroke-width="1.168"/>
        <path id="Trazado_880688" data-name="Trazado 880688" d="M168.794,51.813l-1.188.684,4.477,7.782L163.652,57.2l-.47,1.286,11.967,4.377Z" transform="translate(-2531.091 -7328.09)" fill="#0c1d30"/>
        <path id="Trazado_880689" data-name="Trazado 880689" d="M135.712,23.824l-.472,1.288-8.431-3.083,4.477,7.781-1.187.683-6.355-11.045Z" transform="translate(-2537.922 -7333.696)" fill="#0c1d30"/>
        <path id="Trazado_880690" data-name="Trazado 880690" d="M75.553,84.383c0-1.55-17.565-19.633-15.5-20.149S93.636,82.317,93.636,82.317" transform="translate(-2548.984 -7325.94)" fill="none" stroke="#9eb3c8" stroke-miterlimit="10" stroke-width="0.451"/>
        <path id="Trazado_881608" data-name="Trazado 881608" d="M0,0,149.311,6.2" transform="translate(-2533.879 -7033.348)" fill="#fafaf9"/>
        <path id="Trazado_881609" data-name="Trazado 881609" d="M0,0H60.708" transform="translate(-2371.396 -7298.905)" fill="none" stroke="#0c1d30" stroke-width="1.168"/>
        <path id="Trazado_880691" data-name="Trazado 880691" d="M168.883,37.529l.468-1.289-8.435-3.07,8.435-3.069-.468-1.288-11.974,4.357Z" transform="translate(-2532.177 -7332.074)" fill="#0c1d30"/>
        <path id="Trazado_880692" data-name="Trazado 880692" d="M221.813,28.4H152.066V17.553h69.747" transform="translate(-2533.017 -7334.024)" fill="none" stroke="#0c1d30" stroke-miterlimit="10" stroke-width="1.168"/>
        <path id="Trazado_881610" data-name="Trazado 881610" d="M1.882,0,0,1.4" transform="translate(-2460.33 -7335.07)" fill="none" stroke="#9eb3c8" stroke-width="0.75"/>
        <path id="Trazado_881611" data-name="Trazado 881611" d="M87.764,0,0,65.355" transform="translate(-2551.829 -7330.887)" fill="none" stroke="#9eb3c8" stroke-width="0.75" stroke-dasharray="3.969 3.969"/>
        <path id="Trazado_881612" data-name="Trazado 881612" d="M1.882,0,0,1.4" transform="translate(-2555.578 -7264.141)" fill="none" stroke="#9eb3c8" stroke-width="0.75"/>
        <path id="Trazado_881613" data-name="Trazado 881613" d="M0,0H248.67V312.439H0Z" transform="translate(-2559.357 -7337.065)" fill="none"/>
        <path id="Trazado_881614" data-name="Trazado 881614" d="M5.084,0H3.25V-7.071l-2.19.679V-7.884L4.888-9.255h.2ZM8.639,2.317l-.958-.5L7.909,1.4A3.3,3.3,0,0,0,8.347-.14V-1.562H9.9L9.89-.292A3.3,3.3,0,0,1,9.534,1.13,3.645,3.645,0,0,1,8.639,2.317Zm2.895-6.862.533-4.7h5.18v1.53H13.571l-.229,1.987a2.908,2.908,0,0,1,1.39-.349,2.664,2.664,0,0,1,2.069.819,3.271,3.271,0,0,1,.749,2.292,3.351,3.351,0,0,1-.378,1.6,2.666,2.666,0,0,1-1.082,1.1,3.379,3.379,0,0,1-1.663.39,3.588,3.588,0,0,1-1.555-.34,2.758,2.758,0,0,1-1.133-.955,2.6,2.6,0,0,1-.441-1.4h1.815a1.356,1.356,0,0,0,.4.9,1.278,1.278,0,0,0,.9.321A1.128,1.128,0,0,0,15.38-1.8a2.073,2.073,0,0,0,.336-1.266,1.714,1.714,0,0,0-.387-1.206,1.421,1.421,0,0,0-1.1-.419,1.588,1.588,0,0,0-1.06.343l-.178.165Z" transform="translate(-2501.363 -7264.17)" fill="#0c1d2f"/>
        <path id="Trazado_881615" data-name="Trazado 881615" d="M5.3-3.979a2.5,2.5,0,0,1-1.8.759,2.668,2.668,0,0,1-2.112-.906A3.579,3.579,0,0,1,.588-6.569a3.813,3.813,0,0,1,.427-1.794A3.134,3.134,0,0,1,2.208-9.635a3.31,3.31,0,0,1,1.723-.455,3.165,3.165,0,0,1,1.75.492A3.236,3.236,0,0,1,6.87-8.183,5.081,5.081,0,0,1,7.3-6.07v.731a5.757,5.757,0,0,1-1.237,3.91A4.678,4.678,0,0,1,2.557.089L2.071.1V-1.552l.438-.007Q5.086-1.675,5.3-3.979ZM3.979-4.73A1.382,1.382,0,0,0,4.8-4.977a1.644,1.644,0,0,0,.523-.595v-.813a2.716,2.716,0,0,0-.383-1.559A1.188,1.188,0,0,0,3.917-8.5a1.153,1.153,0,0,0-.978.543A2.311,2.311,0,0,0,2.557-6.59a2.249,2.249,0,0,0,.373,1.336A1.214,1.214,0,0,0,3.979-4.73Z" transform="translate(-2393.901 -7298.057)" fill="#0c1d2f"/>
        <path id="Trazado_881616" data-name="Trazado 881616" d="M5.3-3.979a2.5,2.5,0,0,1-1.8.759,2.668,2.668,0,0,1-2.112-.906A3.579,3.579,0,0,1,.588-6.569a3.813,3.813,0,0,1,.427-1.794A3.134,3.134,0,0,1,2.208-9.635a3.31,3.31,0,0,1,1.723-.455,3.165,3.165,0,0,1,1.75.492A3.236,3.236,0,0,1,6.87-8.183,5.081,5.081,0,0,1,7.3-6.07v.731a5.757,5.757,0,0,1-1.237,3.91A4.678,4.678,0,0,1,2.557.089L2.071.1V-1.552l.438-.007Q5.086-1.675,5.3-3.979ZM3.979-4.73A1.382,1.382,0,0,0,4.8-4.977a1.644,1.644,0,0,0,.523-.595v-.813a2.716,2.716,0,0,0-.383-1.559A1.188,1.188,0,0,0,3.917-8.5a1.153,1.153,0,0,0-.978.543A2.311,2.311,0,0,0,2.557-6.59a2.249,2.249,0,0,0,.373,1.336A1.214,1.214,0,0,0,3.979-4.73Z" transform="translate(-2423.861 -7179.233)" fill="#0c1d2f"/>
        <path id="Trazado_881617" data-name="Trazado 881617" d="M5.3-3.979a2.5,2.5,0,0,1-1.8.759,2.668,2.668,0,0,1-2.112-.906A3.579,3.579,0,0,1,.588-6.569a3.813,3.813,0,0,1,.427-1.794A3.134,3.134,0,0,1,2.208-9.635a3.31,3.31,0,0,1,1.723-.455,3.165,3.165,0,0,1,1.75.492A3.236,3.236,0,0,1,6.87-8.183,5.081,5.081,0,0,1,7.3-6.07v.731a5.757,5.757,0,0,1-1.237,3.91A4.678,4.678,0,0,1,2.557.089L2.071.1V-1.552l.438-.007Q5.086-1.675,5.3-3.979ZM3.979-4.73A1.382,1.382,0,0,0,4.8-4.977a1.644,1.644,0,0,0,.523-.595v-.813a2.716,2.716,0,0,0-.383-1.559A1.188,1.188,0,0,0,3.917-8.5a1.153,1.153,0,0,0-.978.543A2.311,2.311,0,0,0,2.557-6.59a2.249,2.249,0,0,0,.373,1.336A1.214,1.214,0,0,0,3.979-4.73Z" transform="translate(-2374.895 -7149.274)" fill="#0c1d2f"/>
        <path id="Trazado_880693" data-name="Trazado 880693" d="M228.74,292.9V145.138c-53.731,1.034-65.614-43.915-65.614-43.915L75.813,121.372C115.595,249.5,22.6,243.3,22.6,243.3c.774-.776.282,43.728.282,43.728" transform="translate(-2555.443 -7319.531)" fill="none" stroke="#0c1d30" stroke-miterlimit="10" stroke-width="1"/>
        <path id="Trazado_881618" data-name="Trazado 881618" d="M204.689,8.2,0,0" transform="translate(-2530.876 -7033.279)" fill="none" stroke="#9eb3c8" stroke-width="0.778" stroke-dasharray="4.151 4.151"/>
        <path id="Trazado_881619" data-name="Trazado 881619" d="M0,0H248.67V312.439H0Z" transform="translate(-2559.357 -7337.065)" fill="none"/>
      </g>
    </g>
  </g>
</svg>
