<svg xmlns="http://www.w3.org/2000/svg" xmlns:xlink="http://www.w3.org/1999/xlink" width="385" height="162" viewBox="0 0 385 162">
  <defs>
    <clipPath id="clip-path">
      <rect id="Rectángulo_403802" data-name="Rectángulo 403802" width="385" height="162" transform="translate(-5097 -7283)" fill="#fff" stroke="#707070" stroke-width="1"/>
    </clipPath>
  </defs>
  <g id="Enmascarar_grupo_1098825" data-name="Enmascarar grupo 1098825" transform="translate(5097 7283)" clip-path="url(#clip-path)">
    <g id="Grupo_1103494" data-name="Grupo 1103494">
      <path id="Trazado_880672" data-name="Trazado 880672" d="M.5,74.769,122.632,8.2S134.735.5,176.546.5s63.266,1.651,86.372,20.9S323.434,74.22,352.592,76.42V93.474H1.066S1.6,73.668.5,74.769Z" transform="translate(-5080.667 -7269.667)" fill="none" stroke="#0c1d2f" stroke-linecap="round" stroke-linejoin="round" stroke-width="1"/>
      <path id="Trazado_881595" data-name="Trazado 881595" d="M0,0H336.138" transform="translate(-5075.766 -7194.332)" fill="none" stroke="#9db3c8" stroke-linecap="round" stroke-width="0.75"/>
      <path id="Trazado_881596" data-name="Trazado 881596" d="M0,84.172V0" transform="translate(-4948.667 -7261.466)" fill="none" stroke="#9db3c8" stroke-linecap="round" stroke-width="0.75"/>
      <path id="Trazado_881597" data-name="Trazado 881597" d="M0,84.172V0" transform="translate(-4856.243 -7261.466)" fill="none" stroke="#9db3c8" stroke-linecap="round" stroke-width="0.75"/>
      <path id="Trazado_881598" data-name="Trazado 881598" d="M111.4,0H0" transform="translate(-4953.91 -7262.291)" fill="none" stroke="#9db3c8" stroke-linecap="round" stroke-width="0.75"/>
      <path id="Trazado_881599" data-name="Trazado 881599" d="M0,0H353.758V136.637H0Z" transform="translate(-5081 -7270)" fill="none"/>
      <path id="Trazado_881600" data-name="Trazado 881600" d="M7.04,0H4.5V-9.791l-3.032.94v-2.065l5.3-1.9H7.04ZM19.811-5.291a6.483,6.483,0,0,1-1.1,4.061A3.835,3.835,0,0,1,15.5.176,3.862,3.862,0,0,1,12.3-1.2a6.293,6.293,0,0,1-1.134-3.955V-7.515a6.4,6.4,0,0,1,1.112-4.069,3.864,3.864,0,0,1,3.2-1.389,3.867,3.867,0,0,1,3.2,1.375,6.273,6.273,0,0,1,1.134,3.951Zm-2.54-2.584a4.677,4.677,0,0,0-.435-2.316,1.471,1.471,0,0,0-1.358-.725,1.445,1.445,0,0,0-1.323.69A4.378,4.378,0,0,0,13.7-8.068v3.111a4.91,4.91,0,0,0,.426,2.325,1.451,1.451,0,0,0,1.367.76A1.427,1.427,0,0,0,16.84-2.6a4.793,4.793,0,0,0,.431-2.232Z" transform="translate(-4916.309 -7218.774)" fill="#0c1d2f"/>
      <path id="Trazado_881601" data-name="Trazado 881601" d="M7.04,0H4.5V-9.791l-3.032.94v-2.065l5.3-1.9H7.04Zm4.922,3.208-1.327-.694.316-.571a4.567,4.567,0,0,0,.606-2.136V-2.162H13.7L13.693-.4A4.566,4.566,0,0,1,13.2,1.564,5.047,5.047,0,0,1,11.962,3.208Zm4.008-9.5.738-6.5H23.88v2.118H18.791l-.316,2.751A4.027,4.027,0,0,1,20.4-8.411a3.689,3.689,0,0,1,2.865,1.134A4.529,4.529,0,0,1,24.3-4.1a4.64,4.64,0,0,1-.523,2.219,3.691,3.691,0,0,1-1.5,1.521,4.678,4.678,0,0,1-2.3.541,4.968,4.968,0,0,1-2.153-.47,3.819,3.819,0,0,1-1.569-1.323,3.605,3.605,0,0,1-.611-1.942h2.514a1.878,1.878,0,0,0,.558,1.244,1.769,1.769,0,0,0,1.252.444,1.562,1.562,0,0,0,1.327-.62,2.87,2.87,0,0,0,.466-1.753,2.374,2.374,0,0,0-.536-1.67,1.967,1.967,0,0,0-1.521-.58,2.2,2.2,0,0,0-1.468.475l-.246.229Z" transform="translate(-4961.42 -7140.103)" fill="#0c1d2f"/>
      <path id="Trazado_881602" data-name="Trazado 881602" d="M0,0H72.41" transform="translate(-4940.318 -7211.752)" fill="none" stroke="#0c1d30" stroke-width="1.072"/>
      <path id="Trazado_880673" data-name="Trazado 880673" d="M97.034,42.921l.611-1.681-11-4,11-4-.611-1.679-15.606,5.68Z" transform="translate(-5026.792 -7248.991)" fill="#0c1d30"/>
      <path id="Trazado_880674" data-name="Trazado 880674" d="M121.832,42.921l-.61-1.681,11-4-11-4,.61-1.679,15.608,5.68Z" transform="translate(-5000.3 -7248.991)" fill="#0c1d30"/>
      <path id="Trazado_880675" data-name="Trazado 880675" d="M.83,56.316s125.432,8.424,176.046,8.8c64.983.486,119.931-8.252,175.495-8.8" transform="translate(-5080.447 -7232.51)" fill="none" stroke="#9db3c8" stroke-linecap="round" stroke-linejoin="round" stroke-width="0.75"/>
      <path id="Trazado_881603" data-name="Trazado 881603" d="M0,15.178,31.724,0" transform="translate(-4944.469 -7170.768)" fill="none" stroke="#0c1d30" stroke-width="1.168"/>
      <path id="Trazado_880676" data-name="Trazado 880676" d="M98.52,71.069l-1.389-1.364,8.922-9.1L93.368,61.841l-.19-1.936,18.006-1.757Z" transform="translate(-5018.97 -7231.291)" fill="#0c1d30"/>
      <path id="Trazado_881604" data-name="Trazado 881604" d="M0,0H353.758V136.637H0Z" transform="translate(-5081 -7270)" fill="none"/>
    </g>
  </g>
</svg>
