<svg xmlns="http://www.w3.org/2000/svg" xmlns:xlink="http://www.w3.org/1999/xlink" width="295" height="524" viewBox="0 0 295 524">
  <defs>
    <clipPath id="clip-path">
      <rect id="Rectángulo_403822" data-name="Rectángulo 403822" width="295" height="524" transform="translate(1019.711 6191)" fill="#fff" stroke="#707070" stroke-width="1"/>
    </clipPath>
  </defs>
  <g id="Enmascarar_grupo_1098828" data-name="Enmascarar grupo 1098828" transform="translate(-1019.711 -6191)" clip-path="url(#clip-path)">
    <g id="Grupo_1103498" data-name="Grupo 1103498">
      <path id="Trazado_881620" data-name="Trazado 881620" d="M9.483-5.291a6.483,6.483,0,0,1-1.1,4.061A3.835,3.835,0,0,1,5.168.176a3.862,3.862,0,0,1-3.2-1.38A6.293,6.293,0,0,1,.835-5.159V-7.515a6.4,6.4,0,0,1,1.112-4.069,3.864,3.864,0,0,1,3.2-1.389A3.867,3.867,0,0,1,8.35-11.6,6.273,6.273,0,0,1,9.483-7.646ZM6.943-7.875a4.677,4.677,0,0,0-.435-2.316,1.471,1.471,0,0,0-1.358-.725,1.445,1.445,0,0,0-1.323.69,4.378,4.378,0,0,0-.453,2.158v3.111A4.91,4.91,0,0,0,3.8-2.632a1.451,1.451,0,0,0,1.367.76A1.427,1.427,0,0,0,6.513-2.6a4.793,4.793,0,0,0,.431-2.232ZM11.962,3.208l-1.327-.694.316-.571a4.567,4.567,0,0,0,.606-2.136V-2.162H13.7L13.693-.4A4.566,4.566,0,0,1,13.2,1.564,5.047,5.047,0,0,1,11.962,3.208Zm4.008-9.5.738-6.5H23.88v2.118H18.791l-.316,2.751A4.027,4.027,0,0,1,20.4-8.411a3.689,3.689,0,0,1,2.865,1.134A4.529,4.529,0,0,1,24.3-4.1a4.64,4.64,0,0,1-.523,2.219,3.691,3.691,0,0,1-1.5,1.521,4.678,4.678,0,0,1-2.3.541,4.968,4.968,0,0,1-2.153-.47,3.819,3.819,0,0,1-1.569-1.323,3.605,3.605,0,0,1-.611-1.942h2.514a1.878,1.878,0,0,0,.558,1.244,1.769,1.769,0,0,0,1.252.444,1.562,1.562,0,0,0,1.327-.62,2.87,2.87,0,0,0,.466-1.753,2.374,2.374,0,0,0-.536-1.67,1.967,1.967,0,0,0-1.521-.58,2.2,2.2,0,0,0-1.468.475l-.246.229Z" transform="translate(1256.54 6359.126)" fill="#0c1d2f"/>
      <path id="Trazado_881621" data-name="Trazado 881621" d="M6.812-5.115a3.207,3.207,0,0,1-2.32.976A3.43,3.43,0,0,1,1.775-5.3,4.6,4.6,0,0,1,.756-8.446a4.9,4.9,0,0,1,.549-2.307,4.029,4.029,0,0,1,1.534-1.635,4.255,4.255,0,0,1,2.215-.584,4.07,4.07,0,0,1,2.25.633,4.161,4.161,0,0,1,1.529,1.819A6.532,6.532,0,0,1,9.387-7.8v.94A7.4,7.4,0,0,1,7.8-1.837,6.014,6.014,0,0,1,3.287.114L2.663.123V-2L3.226-2Q6.539-2.153,6.812-5.115Zm-1.7-.967A1.777,1.777,0,0,0,6.174-6.4a2.114,2.114,0,0,0,.672-.765V-8.209a3.493,3.493,0,0,0-.492-2,1.528,1.528,0,0,0-1.318-.712,1.483,1.483,0,0,0-1.257.7,2.971,2.971,0,0,0-.492,1.753,2.891,2.891,0,0,0,.479,1.718A1.56,1.56,0,0,0,5.115-6.082Z" transform="translate(1227.3 6505.876)" fill="#0c1d2f"/>
      <path id="Trazado_881622" data-name="Trazado 881622" d="M9.642,0H.87V-1.74L5.01-6.152A10.212,10.212,0,0,0,6.271-7.778,2.612,2.612,0,0,0,6.68-9.1a1.955,1.955,0,0,0-.431-1.34,1.555,1.555,0,0,0-1.23-.488,1.677,1.677,0,0,0-1.358.593,2.35,2.35,0,0,0-.5,1.56H.615a4.2,4.2,0,0,1,.558-2.136,3.934,3.934,0,0,1,1.578-1.516,4.8,4.8,0,0,1,2.312-.549,4.54,4.54,0,0,1,3.072.949A3.358,3.358,0,0,1,9.229-9.343a4.3,4.3,0,0,1-.492,1.934A10.745,10.745,0,0,1,7.049-5.115L4.14-2.048h5.5Z" transform="translate(1177.681 6460.452)" fill="#0c1d2f"/>
      <path id="Trazado_881623" data-name="Trazado 881623" d="M6.812-5.115a3.207,3.207,0,0,1-2.32.976A3.43,3.43,0,0,1,1.775-5.3,4.6,4.6,0,0,1,.756-8.446a4.9,4.9,0,0,1,.549-2.307,4.029,4.029,0,0,1,1.534-1.635,4.255,4.255,0,0,1,2.215-.584,4.07,4.07,0,0,1,2.25.633,4.161,4.161,0,0,1,1.529,1.819A6.532,6.532,0,0,1,9.387-7.8v.94A7.4,7.4,0,0,1,7.8-1.837,6.014,6.014,0,0,1,3.287.114L2.663.123V-2L3.226-2Q6.539-2.153,6.812-5.115Zm-1.7-.967A1.777,1.777,0,0,0,6.174-6.4a2.114,2.114,0,0,0,.672-.765V-8.209a3.493,3.493,0,0,0-.492-2,1.528,1.528,0,0,0-1.318-.712,1.483,1.483,0,0,0-1.257.7,2.971,2.971,0,0,0-.492,1.753,2.891,2.891,0,0,0,.479,1.718A1.56,1.56,0,0,0,5.115-6.082Z" transform="translate(1188.116 6480.812)" fill="#0c1d2f"/>
      <path id="Trazado_881624" data-name="Trazado 881624" d="M8.385-4.816h1.45v2.048H8.385V0H5.845V-2.769H.6l-.114-1.6L5.818-12.8H8.385Zm-5.37,0h2.83V-9.334l-.167.29Z" transform="translate(1109.789 6492.822)" fill="#0c1d2f"/>
      <path id="Trazado_881625" data-name="Trazado 881625" d="M7.04,0H4.5V-9.791l-3.032.94v-2.065l5.3-1.9H7.04Z" transform="translate(1252.366 6517.889)" fill="#0c1d2f"/>
      <path id="Trazado_881626" data-name="Trazado 881626" d="M9.483-5.291a6.483,6.483,0,0,1-1.1,4.061A3.835,3.835,0,0,1,5.168.176a3.862,3.862,0,0,1-3.2-1.38A6.293,6.293,0,0,1,.835-5.159V-7.515a6.4,6.4,0,0,1,1.112-4.069,3.864,3.864,0,0,1,3.2-1.389A3.867,3.867,0,0,1,8.35-11.6,6.273,6.273,0,0,1,9.483-7.646ZM6.943-7.875a4.677,4.677,0,0,0-.435-2.316,1.471,1.471,0,0,0-1.358-.725,1.445,1.445,0,0,0-1.323.69,4.378,4.378,0,0,0-.453,2.158v3.111A4.91,4.91,0,0,0,3.8-2.632a1.451,1.451,0,0,0,1.367.76A1.427,1.427,0,0,0,6.513-2.6a4.793,4.793,0,0,0,.431-2.232ZM11.962,3.208l-1.327-.694.316-.571a4.567,4.567,0,0,0,.606-2.136V-2.162H13.7L13.693-.4A4.566,4.566,0,0,1,13.2,1.564,5.047,5.047,0,0,1,11.962,3.208Zm4.008-9.5.738-6.5H23.88v2.118H18.791l-.316,2.751A4.027,4.027,0,0,1,20.4-8.411a3.689,3.689,0,0,1,2.865,1.134A4.529,4.529,0,0,1,24.3-4.1a4.64,4.64,0,0,1-.523,2.219,3.691,3.691,0,0,1-1.5,1.521,4.678,4.678,0,0,1-2.3.541,4.968,4.968,0,0,1-2.153-.47,3.819,3.819,0,0,1-1.569-1.323,3.605,3.605,0,0,1-.611-1.942h2.514a1.878,1.878,0,0,0,.558,1.244,1.769,1.769,0,0,0,1.252.444,1.562,1.562,0,0,0,1.327-.62,2.87,2.87,0,0,0,.466-1.753,2.374,2.374,0,0,0-.536-1.67,1.967,1.967,0,0,0-1.521-.58,2.2,2.2,0,0,0-1.468.475l-.246.229Z" transform="translate(1047.646 6327.798)" fill="#0c1d2f"/>
      <path id="Trazado_881627" data-name="Trazado 881627" d="M7.04,0H4.5V-9.791l-3.032.94v-2.065l5.3-1.9H7.04Zm4.922,3.208-1.327-.694.316-.571a4.567,4.567,0,0,0,.606-2.136V-2.162H13.7L13.693-.4A4.566,4.566,0,0,1,13.2,1.564,5.047,5.047,0,0,1,11.962,3.208Zm4.008-9.5.738-6.5H23.88v2.118H18.791l-.316,2.751A4.027,4.027,0,0,1,20.4-8.411a3.689,3.689,0,0,1,2.865,1.134A4.529,4.529,0,0,1,24.3-4.1a4.64,4.64,0,0,1-.523,2.219,3.691,3.691,0,0,1-1.5,1.521,4.678,4.678,0,0,1-2.3.541,4.968,4.968,0,0,1-2.153-.47,3.819,3.819,0,0,1-1.569-1.323,3.605,3.605,0,0,1-.611-1.942h2.514a1.878,1.878,0,0,0,.558,1.244,1.769,1.769,0,0,0,1.252.444,1.562,1.562,0,0,0,1.327-.62,2.87,2.87,0,0,0,.466-1.753,2.374,2.374,0,0,0-.536-1.67,1.967,1.967,0,0,0-1.521-.58,2.2,2.2,0,0,0-1.468.475l-.246.229Z" transform="translate(1025.711 6431.194)" fill="#0c1d2f"/>
      <path id="Trazado_880863" data-name="Trazado 880863" d="M99.763,8.757l98.182,21.411s-59.537,140.483,44.39,143.617v179.65H36.049V63.071S91.93,72.471,99.763,8.757Z" transform="translate(1046.664 6288.09)" fill="none" stroke="#0c1d30" stroke-miterlimit="10" stroke-width="1"/>
      <path id="Trazado_881628" data-name="Trazado 881628" d="M206.285,0H0" transform="translate(1082.192 6462.888)" fill="none" stroke="#0c1d30" stroke-width="1"/>
      <path id="Trazado_880864" data-name="Trazado 880864" d="M44.637,331.52c1.567-.522,0-287.754,0-287.754" transform="translate(1051.655 6308.438)" fill="none" stroke="#9eb3c8" stroke-miterlimit="10" stroke-width="1"/>
      <path id="Trazado_880865" data-name="Trazado 880865" d="M44.967,101.894H226.708c1.565,0,0,192.706,0,194.273" transform="translate(1051.848 6342.224)" fill="none" stroke="#9eb3c8" stroke-miterlimit="10" stroke-width="1"/>
      <path id="Trazado_880866" data-name="Trazado 880866" d="M124.551,186.878H86.1A20.987,20.987,0,0,1,65.114,165.89V113.765h80.425V165.89A20.988,20.988,0,0,1,124.551,186.878Z" transform="translate(1063.558 6349.124)" fill="none" stroke="#0c1d30" stroke-miterlimit="10" stroke-width="1"/>
      <path id="Trazado_881629" data-name="Trazado 881629" d="M0,0H60.25" transform="translate(1141.283 6491.38)" fill="none" stroke="#0c1d30" stroke-width="1.108"/>
      <path id="Trazado_880867" data-name="Trazado 880867" d="M85.271,139.407l.6-1.648-10.789-3.928,10.789-3.926-.6-1.646-15.313,5.572Z" transform="translate(1066.373 6357.548)" fill="#0c1d30"/>
      <path id="Trazado_880868" data-name="Trazado 880868" d="M104.861,139.407l-.6-1.648,10.789-3.928-10.789-3.926.6-1.646,15.313,5.572Z" transform="translate(1086.312 6357.548)" fill="#0c1d30"/>
      <path id="Trazado_881630" data-name="Trazado 881630" d="M0,0H23.706" transform="translate(1100.542 6471.013)" fill="none" stroke="#0c1d30" stroke-width="0.678"/>
      <path id="Trazado_880869" data-name="Trazado 880869" d="M55.131,126.036a.535.535,0,0,0-.164-.74l-6.923-4.41,6.923-4.408a.536.536,0,1,0-.577-.9l-7.633,4.861a.537.537,0,0,0,0,.906L54.39,126.2a.538.538,0,0,0,.742-.164" transform="translate(1052.743 6350.126)" fill="#0c1d30"/>
      <path id="Trazado_880870" data-name="Trazado 880870" d="M57.71,126.036a.534.534,0,0,1,.166-.74l6.921-4.41-6.921-4.408a.536.536,0,1,1,.576-.9l7.633,4.861a.537.537,0,0,1,0,.906L58.452,126.2a.538.538,0,0,1-.742-.164" transform="translate(1059.205 6350.126)" fill="#0c1d30"/>
      <path id="Trazado_881631" data-name="Trazado 881631" d="M0,0V11.979" transform="translate(1168.797 6446.379)" fill="none" stroke="#0c1d30" stroke-width="0.75"/>
      <path id="Trazado_880871" data-name="Trazado 880871" d="M86.991,105.808a.594.594,0,0,1,.819.183l4.873,7.652,4.873-7.652a.593.593,0,1,1,1,.637l-5.375,8.436a.593.593,0,0,1-1,0l-5.373-8.436a.594.594,0,0,1,.182-.821" transform="translate(1076.113 6344.445)" fill="#0c1d30"/>
      <path id="Trazado_881632" data-name="Trazado 881632" d="M0,0V60.9" transform="translate(1222.065 6469.636)" fill="none" stroke="#0c1d30" stroke-width="1.114"/>
      <path id="Trazado_880872" data-name="Trazado 880872" d="M120.635,130.273l1.657.6,3.945-10.843,3.947,10.843,1.654-.6-5.6-15.389Z" transform="translate(1095.828 6349.775)" fill="#0c1d30"/>
      <path id="Trazado_880873" data-name="Trazado 880873" d="M120.635,150.181l1.657-.6,3.945,10.842,3.947-10.842,1.654.6-5.6,15.389Z" transform="translate(1095.828 6369.94)" fill="#0c1d30"/>
      <path id="Trazado_880874" data-name="Trazado 880874" d="M179.042,168.94c.522,1.567-12.534,91.392-12.534,91.392" transform="translate(1122.491 6381.193)" fill="none" stroke="#9eb3c8" stroke-linecap="round" stroke-miterlimit="10" stroke-width="1"/>
      <path id="Trazado_881633" data-name="Trazado 881633" d="M28.846,16.8,0,0" transform="translate(1239.229 6322.921)" fill="none" stroke="#0c1d30" stroke-width="1.168"/>
      <path id="Trazado_880875" data-name="Trazado 880875" d="M149.083,26.632l-.329,1.818L136.847,26.3l7.74,9.3-1.418,1.181-10.988-13.2Z" transform="translate(1102.539 6296.708)" fill="#0c1d30"/>
      <path id="Trazado_881634" data-name="Trazado 881634" d="M0,0,25.7,21.312" transform="translate(1064.985 6330.481)" fill="none" stroke="#0c1d30" stroke-width="1.168"/>
      <path id="Trazado_880876" data-name="Trazado 880876" d="M33.4,45.282l.623-1.739,11.393,4.073-6.11-10.444,1.594-.933,8.673,14.824Z" transform="translate(1045.125 6304.063)" fill="#0c1d30"/>
      <path id="Trazado_881635" data-name="Trazado 881635" d="M0,10,31.851,0" transform="translate(1056.727 6413.789)" fill="none" stroke="#0c1d30" stroke-width="1.168"/>
      <path id="Trazado_880877" data-name="Trazado 880877" d="M35.607,92.446l-1.123-1.469,9.608-7.353L32,83.082l.082-1.845,17.156.77Z" transform="translate(1044.313 6330.218)" fill="#0c1d30"/>
      <path id="Trazado_881636" data-name="Trazado 881636" d="M0,13.143,17.277,0" transform="translate(1264.977 6495.733)" fill="none" stroke="#0c1d30" stroke-width="1.168"/>
      <path id="Trazado_880878" data-name="Trazado 880878" d="M161.61,146.985l-1.554-1,6.545-10.177L155.045,139.4l-.547-1.763,16.4-5.1Z" transform="translate(1115.51 6360.036)" fill="#0c1d30"/>
      <path id="Trazado_880879" data-name="Trazado 880879" d="M77.664,10.078l80.425,20.368S113.177,153.7,207.7,155.26h9.4s2.089,18.8,1.045,17.757l8.355,50.135" transform="translate(1070.852 6288.858)" fill="none" stroke="#9eb3c8" stroke-linecap="round" stroke-miterlimit="10" stroke-width="1"/>
      <path id="Trazado_881637" data-name="Trazado 881637" d="M41.258,0,0,13.056" transform="translate(1146.427 6283.791)" fill="none" stroke="#9eb3c8" stroke-linecap="round" stroke-width="1"/>
      <path id="Trazado_881638" data-name="Trazado 881638" d="M0,0,36.035,27.679" transform="translate(1208.574 6290.58)" fill="none" stroke="#9eb3c8" stroke-linecap="round" stroke-width="1"/>
      <path id="Trazado_881639" data-name="Trazado 881639" d="M0,0H181.217" transform="translate(1096.293 6576.768)" fill="none" stroke="#9eb3c8" stroke-width="1"/>
      <path id="Trazado_881640" data-name="Trazado 881640" d="M121.16,0,0,17.234" transform="translate(1157.395 6558.489)" fill="none" stroke="#9eb3c8" stroke-width="1"/>
      <path id="Trazado_881641" data-name="Trazado 881641" d="M9.14,0A9.14,9.14,0,1,1,0,9.14,9.14,9.14,0,0,1,9.14,0Z" transform="translate(1085.053 6373.72) rotate(-80.008)" fill="none" stroke="#0c1d30" stroke-width="1"/>
      <path id="Trazado_881642" data-name="Trazado 881642" d="M0,0V10.967" transform="translate(1095.64 6360.821)" fill="none" stroke="#0c1d30" stroke-width="1"/>
      <path id="Trazado_881643" data-name="Trazado 881643" d="M0,0H10.967" transform="translate(1090.156 6366.305)" fill="none" stroke="#0c1d30" stroke-width="1"/>
      <path id="Trazado_881644" data-name="Trazado 881644" d="M9.14,0A9.14,9.14,0,1,1,0,9.14,9.14,9.14,0,0,1,9.14,0Z" transform="translate(1085.053 6435.344) rotate(-80.008)" fill="none" stroke="#0c1d30" stroke-width="1"/>
      <path id="Trazado_881645" data-name="Trazado 881645" d="M0,0V10.967" transform="translate(1095.64 6422.445)" fill="none" stroke="#0c1d30" stroke-width="1"/>
      <path id="Trazado_881646" data-name="Trazado 881646" d="M0,0H10.967" transform="translate(1090.156 6427.929)" fill="none" stroke="#0c1d30" stroke-width="1"/>
      <path id="Trazado_881647" data-name="Trazado 881647" d="M9.14,0A9.14,9.14,0,1,1,0,9.14,9.14,9.14,0,0,1,9.14,0Z" transform="translate(1086.5 6483.578)" fill="none" stroke="#0c1d30" stroke-width="1"/>
      <path id="Trazado_881648" data-name="Trazado 881648" d="M0,0V10.967" transform="translate(1095.64 6487.234)" fill="none" stroke="#0c1d30" stroke-width="1"/>
      <path id="Trazado_881649" data-name="Trazado 881649" d="M0,0H10.967" transform="translate(1090.156 6492.718)" fill="none" stroke="#0c1d30" stroke-width="1"/>
      <path id="Trazado_881650" data-name="Trazado 881650" d="M9.14,0A9.14,9.14,0,1,1,0,9.14,9.14,9.14,0,0,1,9.14,0Z" transform="translate(1161.05 6467.896)" fill="none" stroke="#0c1d30" stroke-width="1"/>
      <path id="Trazado_881651" data-name="Trazado 881651" d="M0,0V10.967" transform="translate(1170.189 6471.552)" fill="none" stroke="#0c1d30" stroke-width="1"/>
      <path id="Trazado_881652" data-name="Trazado 881652" d="M0,0H10.967" transform="translate(1164.706 6477.035)" fill="none" stroke="#0c1d30" stroke-width="1"/>
      <path id="Trazado_881653" data-name="Trazado 881653" d="M9.14,0A9.14,9.14,0,1,1,0,9.14,9.14,9.14,0,0,1,9.14,0Z" transform="translate(1086.5 6556.278)" fill="none" stroke="#0c1d30" stroke-width="1"/>
      <path id="Trazado_881654" data-name="Trazado 881654" d="M0,0V10.967" transform="translate(1095.64 6559.934)" fill="none" stroke="#0c1d30" stroke-width="1"/>
      <path id="Trazado_881655" data-name="Trazado 881655" d="M0,0H10.967" transform="translate(1090.156 6565.417)" fill="none" stroke="#0c1d30" stroke-width="1"/>
      <path id="Trazado_881656" data-name="Trazado 881656" d="M9.14,0A9.14,9.14,0,1,1,0,9.14,9.14,9.14,0,0,1,9.14,0Z" transform="translate(1086.5 6616.32)" fill="none" stroke="#0c1d30" stroke-width="1"/>
      <path id="Trazado_881657" data-name="Trazado 881657" d="M0,0V10.967" transform="translate(1095.64 6619.976)" fill="none" stroke="#0c1d30" stroke-width="1"/>
      <path id="Trazado_881658" data-name="Trazado 881658" d="M0,0H10.967" transform="translate(1090.156 6625.46)" fill="none" stroke="#0c1d30" stroke-width="1"/>
      <path id="Trazado_881659" data-name="Trazado 881659" d="M5.484,0A5.484,5.484,0,1,1,0,5.484,5.484,5.484,0,0,1,5.484,0Z" transform="translate(1192.876 6283.791)" fill="none" stroke="#0c1d30" stroke-width="1"/>
      <path id="Trazado_880880" data-name="Trazado 880880" d="M181.907,154.078l-10.444,4,10.444,4Z" transform="translate(1125.371 6372.555)" fill="none" stroke="#0c1d30" stroke-miterlimit="10" stroke-width="1.038"/>
      <path id="Trazado_881660" data-name="Trazado 881660" d="M0,0H282.388V359.316H0Z" transform="translate(1025.711 6283)" fill="none"/>
    </g>
  </g>
</svg>
