<svg xmlns="http://www.w3.org/2000/svg" xmlns:xlink="http://www.w3.org/1999/xlink" width="388" height="162" viewBox="0 0 388 162">
  <defs>
    <clipPath id="clip-path">
      <rect id="Rectángulo_403803" data-name="Rectángulo 403803" width="388" height="162" transform="translate(-4667 -7283)" fill="#fff" stroke="#707070" stroke-width="1"/>
    </clipPath>
  </defs>
  <g id="Enmascarar_grupo_1098826" data-name="Enmascarar grupo 1098826" transform="translate(4667 7283)" clip-path="url(#clip-path)">
    <g id="Grupo_1103495" data-name="Grupo 1103495">
      <g id="Grupo_1103494" data-name="Grupo 1103494">
        <path id="Trazado_881595" data-name="Trazado 881595" d="M7.04,0H4.5V-9.791l-3.032.94v-2.065l5.3-1.9H7.04Zm4.922,3.208-1.327-.694.316-.571a4.567,4.567,0,0,0,.606-2.136V-2.162H13.7L13.693-.4A4.566,4.566,0,0,1,13.2,1.564,5.047,5.047,0,0,1,11.962,3.208Zm4.008-9.5.738-6.5H23.88v2.118H18.791l-.316,2.751A4.027,4.027,0,0,1,20.4-8.411a3.689,3.689,0,0,1,2.865,1.134A4.529,4.529,0,0,1,24.3-4.1a4.64,4.64,0,0,1-.523,2.219,3.691,3.691,0,0,1-1.5,1.521,4.678,4.678,0,0,1-2.3.541,4.968,4.968,0,0,1-2.153-.47,3.819,3.819,0,0,1-1.569-1.323,3.605,3.605,0,0,1-.611-1.942h2.514a1.878,1.878,0,0,0,.558,1.244,1.769,1.769,0,0,0,1.252.444,1.562,1.562,0,0,0,1.327-.62,2.87,2.87,0,0,0,.466-1.753,2.374,2.374,0,0,0-.536-1.67,1.967,1.967,0,0,0-1.521-.58,2.2,2.2,0,0,0-1.468.475l-.246.229Z" transform="translate(-4316.542 -7211.091)" fill="#0c1d2f"/>
        <path id="Trazado_881596" data-name="Trazado 881596" d="M6.812-5.115a3.207,3.207,0,0,1-2.32.976A3.43,3.43,0,0,1,1.775-5.3,4.6,4.6,0,0,1,.756-8.446a4.9,4.9,0,0,1,.549-2.307,4.029,4.029,0,0,1,1.534-1.635,4.255,4.255,0,0,1,2.215-.584,4.07,4.07,0,0,1,2.25.633,4.161,4.161,0,0,1,1.529,1.819A6.532,6.532,0,0,1,9.387-7.8v.94A7.4,7.4,0,0,1,7.8-1.837,6.014,6.014,0,0,1,3.287.114L2.663.123V-2L3.226-2Q6.539-2.153,6.812-5.115Zm-1.7-.967A1.777,1.777,0,0,0,6.174-6.4a2.114,2.114,0,0,0,.672-.765V-8.209a3.493,3.493,0,0,0-.492-2,1.528,1.528,0,0,0-1.318-.712,1.483,1.483,0,0,0-1.257.7,2.971,2.971,0,0,0-.492,1.753,2.891,2.891,0,0,0,.479,1.718A1.56,1.56,0,0,0,5.115-6.082Z" transform="translate(-4657.006 -7187.833)" fill="#0c1d2f"/>
        <path id="Trazado_881597" data-name="Trazado 881597" d="M9.642,0H.87V-1.74L5.01-6.152A10.212,10.212,0,0,0,6.271-7.778,2.612,2.612,0,0,0,6.68-9.1a1.955,1.955,0,0,0-.431-1.34,1.555,1.555,0,0,0-1.23-.488,1.677,1.677,0,0,0-1.358.593,2.35,2.35,0,0,0-.5,1.56H.615a4.2,4.2,0,0,1,.558-2.136,3.934,3.934,0,0,1,1.578-1.516,4.8,4.8,0,0,1,2.312-.549,4.54,4.54,0,0,1,3.072.949A3.358,3.358,0,0,1,9.229-9.343a4.3,4.3,0,0,1-.492,1.934A10.745,10.745,0,0,1,7.049-5.115L4.14-2.048h5.5ZM19.811-5.291a6.483,6.483,0,0,1-1.1,4.061A3.835,3.835,0,0,1,15.5.176,3.862,3.862,0,0,1,12.3-1.2a6.293,6.293,0,0,1-1.134-3.955V-7.515a6.4,6.4,0,0,1,1.112-4.069,3.864,3.864,0,0,1,3.2-1.389,3.867,3.867,0,0,1,3.2,1.375,6.273,6.273,0,0,1,1.134,3.951Zm-2.54-2.584a4.677,4.677,0,0,0-.435-2.316,1.471,1.471,0,0,0-1.358-.725,1.445,1.445,0,0,0-1.323.69A4.378,4.378,0,0,0,13.7-8.068v3.111a4.91,4.91,0,0,0,.426,2.325,1.451,1.451,0,0,0,1.367.76A1.427,1.427,0,0,0,16.84-2.6a4.793,4.793,0,0,0,.431-2.232Z" transform="translate(-4495.21 -7173.265)" fill="#0c1d2f"/>
        <path id="Trazado_881598" data-name="Trazado 881598" d="M0,0H370.873V61.644H0Z" transform="translate(-4657 -7226.797)" fill="none"/>
        <path id="Trazado_881599" data-name="Trazado 881599" d="M0,0H299.483" transform="translate(-4632.953 -7193.949)" fill="none" stroke="#0c1d30" stroke-width="1.072"/>
        <path id="Trazado_880677" data-name="Trazado 880677" d="M27.127,27.251l.645-1.778L16.142,21.241l11.629-4.232-.645-1.776-16.51,6.008Z" transform="translate(-4648.91 -7215.19)" fill="#0c1d30"/>
        <path id="Trazado_880678" data-name="Trazado 880678" d="M177.553,27.251l-.645-1.778,11.631-4.232-11.631-4.232.645-1.776,16.51,6.008Z" transform="translate(-4522.193 -7215.19)" fill="#0c1d30"/>
        <path id="Trazado_881600" data-name="Trazado 881600" d="M0,0H317.163V20.635H0Z" transform="translate(-4641.794 -7225.008)" fill="none" stroke="#0c1d2f" stroke-linecap="round" stroke-width="0.919"/>
        <path id="Trazado_881601" data-name="Trazado 881601" d="M0,0H370.873V61.644H0Z" transform="translate(-4657 -7226.797)" fill="none"/>
      </g>
    </g>
  </g>
</svg>
