<svg xmlns="http://www.w3.org/2000/svg" xmlns:xlink="http://www.w3.org/1999/xlink" width="400" height="644" viewBox="0 0 400 644">
  <defs>
    <clipPath id="clip-path">
      <rect id="Rectángulo_404127" data-name="Rectángulo 404127" width="400" height="644" transform="translate(-7376 -8992)" fill="#fff" stroke="#707070" stroke-width="1"/>
    </clipPath>
  </defs>
  <g id="Enmascarar_grupo_1098833" data-name="Enmascarar grupo 1098833" transform="translate(7376 8992)" clip-path="url(#clip-path)">
    <g id="Grupo_1103489" data-name="Grupo 1103489">
      <path id="Trazado_880491" data-name="Trazado 880491" d="M266.638,236.037c-44.21-49.431-39.914-128.3,5.328-191.963l-.289-.923L96.5,8.678c-11.257,133.669-82.312,289.85-82.312,289.85v265.93H343.436l.7-288.631C313.976,271.683,286.73,258.5,266.638,236.037Z" transform="translate(-7344.521 -8970.814)" fill="none" stroke="#0c1d30" stroke-miterlimit="10" stroke-width="1"/>
      <path id="Trazado_881534" data-name="Trazado 881534" d="M0,543.821V0" transform="translate(-7193.146 -8950.879)" fill="none" stroke="#9eb3c8" stroke-width="1" stroke-dasharray="5 5"/>
      <path id="Trazado_880492" data-name="Trazado 880492" d="M13.308,443.566h83.72l229.347-26.734V238.138s-77.387,13.367-97.789-59.1,16.18-127.337,16.18-127.337L98.3,13.432C123.782,1.524,154.93-2.942,187.16,2.624c35.08,6.06,64.966,22.882,85.208,45.346" transform="translate(-7345.048 -8975.851)" fill="none" stroke="#9eb3c8" stroke-miterlimit="10" stroke-width="0.5"/>
      <path id="Trazado_881535" data-name="Trazado 881535" d="M0,3.2,314.474,0" transform="translate(-7332.443 -8736.688)" fill="none" stroke="#0c1d30" stroke-width="0.5"/>
      <path id="Trazado_880493" data-name="Trazado 880493" d="M10.666,69.008h93.569l-56.283,219.5H16.294S11.369,69.008,10.666,69.008Z" transform="translate(-7346.627 -8934.763)" fill="none" stroke="#9eb3c8" stroke-miterlimit="10" stroke-width="1" stroke-dasharray="5 5"/>
      <path id="Trazado_880494" data-name="Trazado 880494" d="M97.354,8.238h0s-.733,57.689-85.771,75.981l4.163,212.462" transform="translate(-7346.078 -8971.077)" fill="none" stroke="#0c1d30" stroke-miterlimit="10" stroke-width="0.51"/>
      <path id="Trazado_881536" data-name="Trazado 881536" d="M0,0H0" transform="translate(-7331.739 -8668.064)" fill="none" stroke="#0c1d30" stroke-width="1" stroke-dasharray="5 5"/>
      <path id="Trazado_881537" data-name="Trazado 881537" d="M0,0H0" transform="translate(-7248.725 -8962.839)" fill="none" stroke="#0c1d30" stroke-width="1" stroke-dasharray="5 5"/>
      <path id="Trazado_881538" data-name="Trazado 881538" d="M0,289.85,83.015,0" transform="translate(-7330.333 -8962.136)" fill="none" stroke="#0c1d30" stroke-width="0.986"/>
      <path id="Trazado_881539" data-name="Trazado 881539" d="M208.241,0,0,27.437" transform="translate(-7207.92 -8434.496)" fill="none" stroke="#0c1d30" stroke-width="0.509"/>
      <path id="Trazado_881540" data-name="Trazado 881540" d="M0,58.51V0" transform="translate(-7347.921 -8719.832)" fill="none" stroke="#0c1d30" stroke-width="1"/>
      <path id="Trazado_880495" data-name="Trazado 880495" d="M10.161,191.265l-1.5-.546-3.58,9.833L1.5,190.718l-1.5.546,5.079,13.958Z" transform="translate(-7353 -8862.031)" fill="#0c1d30"/>
      <path id="Trazado_880496" data-name="Trazado 880496" d="M10.161,171.48l-1.5.546-3.58-9.833L1.5,172.026,0,171.48l5.079-13.958Z" transform="translate(-7353 -8881.868)" fill="#0c1d30"/>
      <path id="Trazado_881541" data-name="Trazado 881541" d="M0,107.755V0" transform="translate(-7319.076 -8523.549)" fill="none" stroke="#0c1d30" stroke-width="1"/>
      <path id="Trazado_880497" data-name="Trazado 880497" d="M28.216,344.952l-1.5-.546-3.58,9.833-3.579-9.833-1.5.546,5.079,13.958Z" transform="translate(-7342.211 -8770.19)" fill="#0c1d30"/>
      <path id="Trazado_880498" data-name="Trazado 880498" d="M28.216,294.342l-1.5.546-3.58-9.833-3.579,9.833-1.5-.546,5.079-13.958Z" transform="translate(-7342.211 -8808.448)" fill="#0c1d30"/>
      <path id="Trazado_881542" data-name="Trazado 881542" d="M0,0H107.755" transform="translate(-7325.179 -8391.581)" fill="none" stroke="#0c1d30" stroke-width="1"/>
      <path id="Trazado_880499" data-name="Trazado 880499" d="M28.547,372.8l.546-1.5-9.833-3.58,9.833-3.579-.546-1.5-13.958,5.079Z" transform="translate(-7344.282 -8759.297)" fill="#0c1d30"/>
      <path id="Trazado_880500" data-name="Trazado 880500" d="M79.157,372.8l-.546-1.5,9.833-3.58-9.833-3.579.546-1.5,13.958,5.079Z" transform="translate(-7306.024 -8759.297)" fill="#0c1d30"/>
      <path id="Trazado_881543" data-name="Trazado 881543" d="M0,0H58.51" transform="translate(-7318.783 -8635.703)" fill="none" stroke="#0c1d30" stroke-width="1"/>
      <path id="Trazado_880501" data-name="Trazado 880501" d="M32.55,219.99l.546-1.5-9.833-3.58,9.833-3.579-.546-1.5-13.958,5.079Z" transform="translate(-7341.89 -8850.61)" fill="#0c1d30"/>
      <path id="Trazado_880502" data-name="Trazado 880502" d="M52.335,219.99l-.546-1.5,9.833-3.58-9.833-3.579.546-1.5,13.958,5.079Z" transform="translate(-7322.053 -8850.61)" fill="#0c1d30"/>
      <path id="Trazado_881544" data-name="Trazado 881544" d="M0,0V58.51" transform="translate(-7131.236 -8700.837)" fill="none" stroke="#0c1d30" stroke-width="1"/>
      <path id="Trazado_880503" data-name="Trazado 880503" d="M135.632,183.37l1.5.546,3.58-9.833,3.579,9.833,1.5-.546-5.079-13.958Z" transform="translate(-7271.949 -8874.763)" fill="#0c1d30"/>
      <path id="Trazado_880504" data-name="Trazado 880504" d="M135.632,203.155l1.5-.546,3.58,9.833,3.579-9.833,1.5.546-5.079,13.958Z" transform="translate(-7271.949 -8854.926)" fill="#0c1d30"/>
      <path id="Trazado_881545" data-name="Trazado 881545" d="M81.614,0H0" transform="translate(-7238.525 -8699.723)" fill="none" stroke="#0c1d30" stroke-width="1.168"/>
      <path id="Trazado_880505" data-name="Trazado 880505" d="M116.074,169.22l-.637,1.756,11.487,4.179-11.487,4.181.637,1.754,16.3-5.935Z" transform="translate(-7284.018 -8874.878)" fill="#0c1d30"/>
      <path id="Trazado_880506" data-name="Trazado 880506" d="M84.659,169.22l.637,1.756L73.81,175.155,85.3,179.336l-.637,1.754-16.3-5.935Z" transform="translate(-7312.153 -8874.878)" fill="#0c1d30"/>
      <path id="Trazado_881546" data-name="Trazado 881546" d="M0,12.167,26.159,0" transform="translate(-7141.789 -8919.429)" fill="none" stroke="#0c1d30" stroke-width="1"/>
      <path id="Trazado_880507" data-name="Trazado 880507" d="M146.165,44.714l-1.128-1.133,7.406-7.392-10.426.9L141.88,35.5l14.8-1.281Z" transform="translate(-7268.216 -8955.552)" fill="#0c1d30"/>
      <path id="Trazado_881547" data-name="Trazado 881547" d="M.2,15.481,0,0" transform="translate(-7218.405 -8726.812)" fill="none" stroke="#0c1d30" stroke-width="1.168"/>
      <path id="Trazado_880508" data-name="Trazado 880508" d="M92.491,168.906l-1.746.66-4.328-11.432-4.034,11.539-1.761-.617,5.726-16.378Z" transform="translate(-7304.821 -8884.763)" fill="#0c1d30"/>
      <path id="Trazado_881548" data-name="Trazado 881548" d="M0,0,31.34,19.43" transform="translate(-7307.819 -8873.492)" fill="none" stroke="#0c1d30" stroke-width="1"/>
      <path id="Trazado_880509" data-name="Trazado 880509" d="M41.2,79.146l.328-1.564,10.244,2.139L45.3,71.5l1.256-.989,9.186,11.673Z" transform="translate(-7328.382 -8933.865)" fill="#0c1d30"/>
      <path id="Trazado_880510" data-name="Trazado 880510" d="M64.831,167.822c.7,2.11,0,69.648,0,69.648L119,250.837l52.06-14.774V165.009Z" transform="translate(-7314.259 -8877.395)" fill="none" stroke="#0c1d30" stroke-miterlimit="10" stroke-width="1.168"/>
      <path id="Trazado_880511" data-name="Trazado 880511" d="M155.332,165.449v62.614l-40.1,13.367L72.317,230.173V168.262" transform="translate(-7309.785 -8877.132)" fill="none" stroke="#9eb3c8" stroke-miterlimit="10" stroke-width="1" stroke-dasharray="5 5"/>
      <path id="Trazado_880512" data-name="Trazado 880512" d="M24.449,71.1H21.725V59.845H18.907V57.757l5.542-.486Z" transform="translate(-7341.702 -8941.775)" fill="#0c1d2f"/>
      <path id="Trazado_880513" data-name="Trazado 880513" d="M77.4,31.464H68.256V29.677L72.478,24.9a10.743,10.743,0,0,0,1.344-1.887,3.132,3.132,0,0,0,.4-1.419,2.039,2.039,0,0,0-.422-1.348,1.555,1.555,0,0,0-1.264-.5,1.623,1.623,0,0,0-1.376.645,2.652,2.652,0,0,0-.487,1.639H68.013l-.019-.056a4.055,4.055,0,0,1,1.2-3.075,4.486,4.486,0,0,1,3.342-1.259,4.616,4.616,0,0,1,3.257,1.072,3.721,3.721,0,0,1,1.161,2.877,4.058,4.058,0,0,1-.65,2.238,25.3,25.3,0,0,1-2.243,2.8l-2.246,2.7.019.048H77.4Z" transform="translate(-7312.37 -8965.459)" fill="#0c1d2f"/>
      <path id="Trazado_880514" data-name="Trazado 880514" d="M78.755,25.381l.786-7.62h7.6v2.192H81.78L81.4,23.135a3.308,3.308,0,0,1,.965-.463,4.64,4.64,0,0,1,1.264-.2,3.612,3.612,0,0,1,2.944,1.174,4.99,4.99,0,0,1,1.043,3.374,4.786,4.786,0,0,1-1.133,3.286,4.385,4.385,0,0,1-3.464,1.283,5.243,5.243,0,0,1-3.221-1,3.115,3.115,0,0,1-1.291-2.738l.018-.046,2.631-.123a1.72,1.72,0,0,0,.514,1.329,1.9,1.9,0,0,0,1.348.478,1.612,1.612,0,0,0,1.419-.636,3.158,3.158,0,0,0,.444-1.816,3.227,3.227,0,0,0-.487-1.877,1.643,1.643,0,0,0-1.441-.7,2.1,2.1,0,0,0-1.2.289,1.589,1.589,0,0,0-.594.788Z" transform="translate(-7306.084 -8965.387)" fill="#0c1d2f"/>
      <path id="Trazado_880515" data-name="Trazado 880515" d="M120.846,48.109a5.346,5.346,0,0,1-1.259,3.764,4.787,4.787,0,0,1-6.7,0,5.326,5.326,0,0,1-1.264-3.764V44.356a5.363,5.363,0,0,1,1.259-3.764,4.758,4.758,0,0,1,6.692,0,5.345,5.345,0,0,1,1.268,3.764Zm-2.724-4.034a3.522,3.522,0,0,0-.5-2.031,1.7,1.7,0,0,0-2.781,0,3.575,3.575,0,0,0-.49,2.031v4.3a3.593,3.593,0,0,0,.5,2.056,1.611,1.611,0,0,0,1.4.716,1.581,1.581,0,0,0,1.38-.716,3.62,3.62,0,0,0,.492-2.056Z" transform="translate(-7286.295 -8952.564)" fill="#0c1d2f"/>
      <path id="Trazado_880516" data-name="Trazado 880516" d="M122.351,46.959l.786-7.62h7.6v2.192h-5.363L125,44.713a3.309,3.309,0,0,1,.965-.463,4.64,4.64,0,0,1,1.264-.2,3.612,3.612,0,0,1,2.944,1.174,4.99,4.99,0,0,1,1.043,3.374,4.786,4.786,0,0,1-1.133,3.286,4.385,4.385,0,0,1-3.464,1.283,5.243,5.243,0,0,1-3.221-1,3.115,3.115,0,0,1-1.291-2.738l.018-.046,2.631-.123a1.72,1.72,0,0,0,.514,1.329,1.9,1.9,0,0,0,1.348.478,1.612,1.612,0,0,0,1.419-.636,3.158,3.158,0,0,0,.444-1.816A3.227,3.227,0,0,0,128,46.739a1.643,1.643,0,0,0-1.441-.7,2.1,2.1,0,0,0-1.2.289,1.589,1.589,0,0,0-.594.788Z" transform="translate(-7280.032 -8952.492)" fill="#0c1d2f"/>
      <path id="Trazado_880517" data-name="Trazado 880517" d="M35.9,325.189H33.174V313.937H30.356v-2.088l5.542-.486Z" transform="translate(-7334.86 -8789.936)" fill="#0c1d2f"/>
      <path id="Trazado_880518" data-name="Trazado 880518" d="M45.823,320.255a5.346,5.346,0,0,1-1.259,3.764,4.787,4.787,0,0,1-6.7,0,5.326,5.326,0,0,1-1.264-3.764V316.5a5.363,5.363,0,0,1,1.259-3.764,4.758,4.758,0,0,1,6.692,0,5.345,5.345,0,0,1,1.268,3.764ZM43.1,316.221a3.522,3.522,0,0,0-.5-2.031,1.7,1.7,0,0,0-2.781,0,3.575,3.575,0,0,0-.49,2.031v4.3a3.593,3.593,0,0,0,.5,2.056,1.611,1.611,0,0,0,1.4.716,1.581,1.581,0,0,0,1.38-.716,3.62,3.62,0,0,0,.492-2.056Z" transform="translate(-7331.127 -8789.937)" fill="#0c1d2f"/>
      <path id="Trazado_881549" data-name="Trazado 881549" d="M0,545.228V0" transform="translate(-7210.734 -8952.99)" fill="#161615"/>
      <path id="Trazado_881550" data-name="Trazado 881550" d="M0,545.228V0" transform="translate(-7210.734 -8952.99)" fill="none" stroke="#0c1d30" stroke-width="1"/>
      <path id="Trazado_880519" data-name="Trazado 880519" d="M144.081,193.364l.786-7.62h7.6v2.192h-5.363l-.375,3.182a3.309,3.309,0,0,1,.965-.463,4.641,4.641,0,0,1,1.264-.2,3.613,3.613,0,0,1,2.944,1.174A4.991,4.991,0,0,1,152.946,195a4.785,4.785,0,0,1-1.133,3.286,4.385,4.385,0,0,1-3.464,1.283,5.243,5.243,0,0,1-3.221-1,3.115,3.115,0,0,1-1.291-2.738l.018-.046,2.631-.123A1.72,1.72,0,0,0,147,197a1.9,1.9,0,0,0,1.348.478,1.613,1.613,0,0,0,1.419-.636,3.158,3.158,0,0,0,.444-1.816,3.227,3.227,0,0,0-.487-1.877,1.643,1.643,0,0,0-1.441-.7,2.1,2.1,0,0,0-1.2.289,1.589,1.589,0,0,0-.594.788Z" transform="translate(-7267.046 -8865.003)" fill="#0c1d2f"/>
      <path id="Trazado_880520" data-name="Trazado 880520" d="M154.458,193.364l.786-7.62h7.6v2.192h-5.363l-.375,3.182a3.309,3.309,0,0,1,.965-.463,4.641,4.641,0,0,1,1.264-.2,3.613,3.613,0,0,1,2.944,1.174A4.99,4.99,0,0,1,163.323,195a4.785,4.785,0,0,1-1.133,3.286,4.385,4.385,0,0,1-3.464,1.283,5.243,5.243,0,0,1-3.221-1,3.115,3.115,0,0,1-1.291-2.738l.018-.046,2.631-.123a1.72,1.72,0,0,0,.514,1.329,1.9,1.9,0,0,0,1.348.478,1.613,1.613,0,0,0,1.419-.636,3.158,3.158,0,0,0,.444-1.816,3.227,3.227,0,0,0-.487-1.877,1.643,1.643,0,0,0-1.441-.7,2.1,2.1,0,0,0-1.2.289,1.589,1.589,0,0,0-.594.788Z" transform="translate(-7260.846 -8865.003)" fill="#0c1d2f"/>
      <path id="Trazado_880521" data-name="Trazado 880521" d="M31.788,224.41l.786-7.62h7.6v2.192H34.813l-.375,3.182a3.307,3.307,0,0,1,.965-.463,4.64,4.64,0,0,1,1.264-.2,3.612,3.612,0,0,1,2.944,1.174,4.991,4.991,0,0,1,1.043,3.374,4.786,4.786,0,0,1-1.133,3.286,4.385,4.385,0,0,1-3.464,1.283,5.243,5.243,0,0,1-3.221-1,3.115,3.115,0,0,1-1.291-2.738l.018-.046,2.631-.123a1.72,1.72,0,0,0,.514,1.329,1.9,1.9,0,0,0,1.348.478,1.612,1.612,0,0,0,1.419-.636,3.158,3.158,0,0,0,.444-1.816,3.227,3.227,0,0,0-.487-1.877,1.643,1.643,0,0,0-1.441-.7,2.1,2.1,0,0,0-1.2.289,1.589,1.589,0,0,0-.594.788Z" transform="translate(-7334.15 -8846.451)" fill="#0c1d2f"/>
      <path id="Trazado_880522" data-name="Trazado 880522" d="M42.165,224.41l.786-7.62h7.6v2.192H45.19l-.375,3.182a3.307,3.307,0,0,1,.965-.463,4.64,4.64,0,0,1,1.264-.2,3.612,3.612,0,0,1,2.944,1.174,4.991,4.991,0,0,1,1.043,3.374,4.786,4.786,0,0,1-1.133,3.286,4.385,4.385,0,0,1-3.464,1.283,5.243,5.243,0,0,1-3.221-1,3.115,3.115,0,0,1-1.291-2.738l.018-.046,2.631-.123a1.72,1.72,0,0,0,.514,1.329,1.9,1.9,0,0,0,1.348.478,1.612,1.612,0,0,0,1.419-.636,3.158,3.158,0,0,0,.444-1.816,3.227,3.227,0,0,0-.487-1.877,1.643,1.643,0,0,0-1.441-.7,2.1,2.1,0,0,0-1.2.289,1.589,1.589,0,0,0-.594.788Z" transform="translate(-7327.949 -8846.451)" fill="#0c1d2f"/>
      <path id="Trazado_880523" data-name="Trazado 880523" d="M80.886,167.741H71.74v-1.788l4.222-4.774a10.743,10.743,0,0,0,1.344-1.887,3.132,3.132,0,0,0,.4-1.419,2.039,2.039,0,0,0-.422-1.348,1.555,1.555,0,0,0-1.264-.5,1.623,1.623,0,0,0-1.376.645,2.652,2.652,0,0,0-.487,1.639H71.5l-.019-.056a4.055,4.055,0,0,1,1.2-3.075,4.486,4.486,0,0,1,3.342-1.259,4.616,4.616,0,0,1,3.257,1.072,3.721,3.721,0,0,1,1.161,2.877,4.058,4.058,0,0,1-.65,2.238,25.306,25.306,0,0,1-2.243,2.8L75.3,165.6l.019.048h5.569Z" transform="translate(-7310.288 -8884.023)" fill="#0c1d2f"/>
      <path id="Trazado_881551" data-name="Trazado 881551" d="M24.839,22.818,0,0" transform="translate(-7194.77 -8637.063)" fill="none" stroke="#0c1d30" stroke-width="1.168"/>
      <path id="Trazado_880524" data-name="Trazado 880524" d="M112.637,216.583l-.717,1.724-11.288-4.692,5.631,10.851-1.655.859-7.994-15.4Z" transform="translate(-7295.267 -8850.554)" fill="#0c1d30"/>
      <path id="Trazado_880525" data-name="Trazado 880525" d="M122.83,233.8h-2.724V222.544h-2.818v-2.088l5.542-.486Z" transform="translate(-7282.911 -8844.55)" fill="#0c1d2f"/>
      <path id="Trazado_881552" data-name="Trazado 881552" d="M8.7-8.874a2.811,2.811,0,0,1-.44,1.561A3.166,3.166,0,0,1,7.047-6.226,3.5,3.5,0,0,1,8.442-5.059a2.992,2.992,0,0,1,.515,1.747,3.168,3.168,0,0,1-1.1,2.544,4.445,4.445,0,0,1-2.98.934A4.465,4.465,0,0,1,1.893-.772a3.16,3.16,0,0,1-1.1-2.54A3.011,3.011,0,0,1,1.3-5.063,3.442,3.442,0,0,1,2.689-6.226,3.134,3.134,0,0,1,1.482-7.313a2.831,2.831,0,0,1-.436-1.561,3.133,3.133,0,0,1,1.029-2.461,4.052,4.052,0,0,1,2.8-.917,4.079,4.079,0,0,1,2.793.909A3.121,3.121,0,0,1,8.7-8.874ZM6.549-3.486a1.74,1.74,0,0,0-.457-1.262,1.628,1.628,0,0,0-1.229-.473,1.625,1.625,0,0,0-1.22.469,1.737,1.737,0,0,0-.457,1.266,1.736,1.736,0,0,0,.448,1.245,1.633,1.633,0,0,0,1.245.473,1.629,1.629,0,0,0,1.224-.457A1.733,1.733,0,0,0,6.549-3.486ZM6.3-8.757A1.66,1.66,0,0,0,5.927-9.89a1.325,1.325,0,0,0-1.054-.427A1.335,1.335,0,0,0,3.827-9.9a1.651,1.651,0,0,0-.374,1.146A1.735,1.735,0,0,0,3.827-7.6a1.307,1.307,0,0,0,1.054.44,1.3,1.3,0,0,0,1.05-.44A1.747,1.747,0,0,0,6.3-8.757Z" transform="translate(-7276.8 -8370.644)" fill="#0c1d2f"/>
      <path id="Trazado_881553" data-name="Trazado 881553" d="M0,0H353.416V612.125H0Z" transform="translate(-7353 -8976)" fill="none"/>
      <path id="Trazado_881554" data-name="Trazado 881554" d="M1.309,2.832l-1.025-.7A4.712,4.712,0,0,0,1.24-.508V-2.139H3.008V-.723A4.448,4.448,0,0,1,2.524,1.25,4.618,4.618,0,0,1,1.309,2.832Z" transform="translate(-7164 -8899.93)" fill="#12263f"/>
      <path id="Trazado_881555" data-name="Trazado 881555" d="M1.309,2.832l-1.025-.7A4.712,4.712,0,0,0,1.24-.508V-2.139H3.008V-.723A4.448,4.448,0,0,1,2.524,1.25,4.618,4.618,0,0,1,1.309,2.832Z" transform="translate(-7113 -8666.93)" fill="#12263f"/>
      <path id="Trazado_881556" data-name="Trazado 881556" d="M1.309,2.832l-1.025-.7A4.712,4.712,0,0,0,1.24-.508V-2.139H3.008V-.723A4.448,4.448,0,0,1,2.524,1.25,4.618,4.618,0,0,1,1.309,2.832Z" transform="translate(-7292 -8615.93)" fill="#12263f"/>
      <path id="Trazado_881557" data-name="Trazado 881557" d="M1.309,2.832l-1.025-.7A4.712,4.712,0,0,0,1.24-.508V-2.139H3.008V-.723A4.448,4.448,0,0,1,2.524,1.25,4.618,4.618,0,0,1,1.309,2.832Z" transform="translate(-7233 -8933.93)" fill="#12263f"/>
    </g>
  </g>
</svg>
