<svg xmlns="http://www.w3.org/2000/svg" width="381.663" height="403.448" viewBox="0 0 381.663 403.448">
  <g id="Grupo_1103502" data-name="Grupo 1103502" transform="translate(7022.526 1523)">
    <path id="Trazado_881011" data-name="Trazado 881011" d="M.5,78.249s70.689,7.485,80.667-67.361L358.932,120.662l-24.117,98.963s-120.586-1.663-153.019,1.663L191.823,360.17l-121.466,18.3H.5Z" transform="translate(-7022.396 -1520.18)" fill="none" stroke="#0c1d30" stroke-linecap="round" stroke-linejoin="round" stroke-width="1"/>
    <path id="Trazado_881713" data-name="Trazado 881713" d="M0,0,274.459,107.677" transform="translate(-6934.171 -1521.55)" fill="none" stroke="#0c1d30" stroke-linecap="round" stroke-width="1"/>
    <path id="Trazado_881012" data-name="Trazado 881012" d="M76.326,7.865l.833-.945L70.975,1.464l8.244.2L79.251.41,67.548.12Z" transform="translate(-7005.031 -1522.969)" fill="#0c1d30"/>
    <path id="Trazado_881013" data-name="Trazado 881013" d="M281.514,89.013l.031-1.259,8.244.2L283.606,82.5l.832-.944,8.778,7.744Z" transform="translate(-6949.616 -1501.877)" fill="#0c1d30"/>
    <path id="Trazado_881014" data-name="Trazado 881014" d="M183.87,44.913a4.713,4.713,0,1,1-4.676-4.749,4.713,4.713,0,0,1,4.676,4.749" transform="translate(-6977.346 -1512.598)" fill="#0c1d2f"/>
    <path id="Trazado_881714" data-name="Trazado 881714" d="M0,0,281.921,90.092" transform="translate(-6945.387 -1489.611)" fill="none" stroke="#9eb3c8" stroke-width="1"/>
    <path id="Trazado_881015" data-name="Trazado 881015" d="M90.6,108.675c35.482,67.639,78.726,75.955,78.726,75.955l-1.109,28.276c-6.1.554-67.638,5.543-67.638,5.543C117.217,114.22,52.9,43.254,52.9,43.254" transform="translate(-7008.824 -1511.797)" fill="none" stroke="#0c1d30" stroke-linecap="round" stroke-linejoin="round" stroke-width="1"/>
    <path id="Trazado_881016" data-name="Trazado 881016" d="M20.316,361.576V62.19" transform="translate(-7017.264 -1506.893)" fill="none" stroke="#9eb3c8" stroke-miterlimit="10" stroke-width="1"/>
    <path id="Trazado_881017" data-name="Trazado 881017" d="M20.317,126.043l154.128.554L175,328.406" transform="translate(-7017.264 -1490.356)" fill="none" stroke="#9eb3c8" stroke-miterlimit="10" stroke-width="1"/>
    <path id="Trazado_881715" data-name="Trazado 881715" d="M49.344,0,0,165.77" transform="translate(-6907.687 -1461.336)" fill="none" stroke="#9eb3c8" stroke-width="1"/>
    <path id="Trazado_881018" data-name="Trazado 881018" d="M49.381,38.85S85.418,52.156,81.537,88.194" transform="translate(-7009.736 -1512.938)" fill="none" stroke="#9eb3c8" stroke-miterlimit="10" stroke-width="1"/>
    <path id="Trazado_881019" data-name="Trazado 881019" d="M78,86.41s39.364,13.86,31.047,47.679" transform="translate(-7002.323 -1500.62)" fill="none" stroke="#9eb3c8" stroke-miterlimit="10" stroke-width="1"/>
    <path id="Trazado_881020" data-name="Trazado 881020" d="M106.905,41.493S70.868,159.03,154.03,148.5" transform="translate(-6996.85 -1512.254)" fill="none" stroke="#9eb3c8" stroke-miterlimit="10" stroke-width="1"/>
    <path id="Trazado_881021" data-name="Trazado 881021" d="M113.038,288.345H72.347a16.8,16.8,0,0,1-16.8-16.8V222.924h74.291v48.621A16.8,16.8,0,0,1,113.038,288.345Z" transform="translate(-7008.14 -1465.264)" fill="none" stroke="#9eb3c8" stroke-miterlimit="10" stroke-width="1"/>
    <path id="Trazado_881716" data-name="Trazado 881716" d="M62.145,0H0" transform="translate(-6944.302 -1223.99)" fill="none" stroke="#0c1d30" stroke-width="0.716"/>
    <path id="Trazado_881022" data-name="Trazado 881022" d="M106.615,234.107a.45.45,0,0,0,.14.622l5.813,3.7-5.813,3.7a.451.451,0,1,0,.483.76l6.41-4.083a.45.45,0,0,0,0-.76l-6.41-4.083a.463.463,0,0,0-.242-.07.454.454,0,0,0-.381.209" transform="translate(-6994.932 -1462.422)" fill="#0c1d30"/>
    <path id="Trazado_881023" data-name="Trazado 881023" d="M68.513,234.107a.451.451,0,0,1-.138.622l-5.814,3.7,5.814,3.7a.451.451,0,1,1-.485.76l-6.41-4.083a.45.45,0,0,1,0-.76l6.41-4.083a.464.464,0,0,1,.243-.07.451.451,0,0,1,.38.209" transform="translate(-7006.657 -1462.422)" fill="#0c1d30"/>
    <path id="Trazado_881717" data-name="Trazado 881717" d="M0,0V62.69" transform="translate(-6960.355 -1241.253)" fill="none" stroke="#0c1d30" stroke-width="0.719"/>
    <path id="Trazado_881024" data-name="Trazado 881024" d="M45.974,230.2a.451.451,0,0,0,.624-.14l3.719-5.838,3.719,5.838a.451.451,0,0,0,.624.14.456.456,0,0,0,.138-.626l-4.1-6.437a.451.451,0,0,0-.763,0l-4.1,6.437a.455.455,0,0,0,.138.626" transform="translate(-7010.673 -1465.265)" fill="#0c1d30"/>
    <path id="Trazado_881025" data-name="Trazado 881025" d="M45.974,268.685a.451.451,0,0,1,.624.14l3.719,5.838,3.719-5.838a.451.451,0,0,1,.624-.14.456.456,0,0,1,.138.626l-4.1,6.437a.451.451,0,0,1-.763,0l-4.1-6.437a.455.455,0,0,1,.138-.626" transform="translate(-7010.673 -1453.431)" fill="#0c1d30"/>
    <path id="Trazado_881718" data-name="Trazado 881718" d="M0,0V98.729" transform="translate(-6990.75 -1245.708)" fill="none" stroke="#0c1d30" stroke-width="0.719"/>
    <path id="Trazado_881026" data-name="Trazado 881026" d="M21.832,226.658a.451.451,0,0,0,.624-.14l3.719-5.838,3.719,5.838a.451.451,0,0,0,.624.14.456.456,0,0,0,.138-.626l-4.1-6.437a.451.451,0,0,0-.763,0l-4.1,6.437a.455.455,0,0,0,.138.626" transform="translate(-7016.926 -1466.181)" fill="#0c1d30"/>
    <path id="Trazado_881027" data-name="Trazado 881027" d="M21.832,293.771a.451.451,0,0,1,.624.14l3.719,5.838,3.719-5.838a.451.451,0,0,1,.624-.14.456.456,0,0,1,.138.626l-4.1,6.437a.451.451,0,0,1-.763,0l-4.1-6.437a.455.455,0,0,1,.138-.626" transform="translate(-7016.926 -1446.934)" fill="#0c1d30"/>
    <path id="Trazado_881719" data-name="Trazado 881719" d="M0,0V27.6" transform="translate(-6832.285 -1357.877)" fill="none" stroke="#0c1d30" stroke-width="0.719"/>
    <path id="Trazado_881028" data-name="Trazado 881028" d="M148.82,137.03l.851.31,2.027-5.57,2.027,5.57.851-.31-2.878-7.906Z" transform="translate(-6983.982 -1489.558)" fill="#0c1d30"/>
    <path id="Trazado_881029" data-name="Trazado 881029" d="M148.82,148.892l.851-.31,2.027,5.57,2.027-5.57.851.31L151.7,156.8Z" transform="translate(-6983.982 -1484.518)" fill="#0c1d30"/>
    <path id="Trazado_881720" data-name="Trazado 881720" d="M8.916,0,0,26.12" transform="translate(-6965.368 -1497.405)" fill="none" stroke="#0c1d30" stroke-width="0.719"/>
    <path id="Trazado_881030" data-name="Trazado 881030" d="M48.946,24.96l.705.568,3.718-4.617.12,5.926.9-.018-.169-8.411Z" transform="translate(-7009.849 -1518.232)" fill="#0c1d30"/>
    <path id="Trazado_881031" data-name="Trazado 881031" d="M44.609,36.321l.905-.018.12,5.926,3.718-4.617.705.568-5.278,6.553Z" transform="translate(-7010.973 -1513.598)" fill="#0c1d30"/>
    <path id="Trazado_881721" data-name="Trazado 881721" d="M5.476,0H3.5V-7.615l-2.358.731V-8.49L5.264-9.967h.212ZM9.3,2.5l-1.032-.54.246-.444A3.552,3.552,0,0,0,8.989-.15V-1.682h1.668L10.65-.314a3.552,3.552,0,0,1-.383,1.531A3.925,3.925,0,0,1,9.3,2.5Zm3.117-7.39L13-9.953h5.578v1.647H14.615l-.246,2.14a3.132,3.132,0,0,1,1.5-.376,2.869,2.869,0,0,1,2.229.882A3.522,3.522,0,0,1,18.9-3.192a3.609,3.609,0,0,1-.407,1.726A2.871,2.871,0,0,1,17.329-.284a3.639,3.639,0,0,1-1.791.42,3.864,3.864,0,0,1-1.675-.366,2.971,2.971,0,0,1-1.22-1.029,2.8,2.8,0,0,1-.475-1.511h1.955a1.46,1.46,0,0,0,.434.967,1.376,1.376,0,0,0,.974.345,1.215,1.215,0,0,0,1.032-.482A2.233,2.233,0,0,0,16.926-3.3a1.846,1.846,0,0,0-.417-1.3,1.53,1.53,0,0,0-1.183-.451,1.71,1.71,0,0,0-1.142.369l-.191.178Z" transform="translate(-6857.234 -1124.495)" fill="#0c1d2f"/>
    <path id="Trazado_881722" data-name="Trazado 881722" d="M0,0H381.662V403.448H0Z" transform="translate(-7022.526 -1523)" fill="none"/>
    <path id="Trazado_881723" data-name="Trazado 881723" d="M7.376-4.115A5.042,5.042,0,0,1,6.521-.957,2.983,2.983,0,0,1,4.02.137,3,3,0,0,1,1.531-.937,4.895,4.895,0,0,1,.649-4.013V-5.845A4.976,4.976,0,0,1,1.514-9.01a3,3,0,0,1,2.492-1.08A3.008,3.008,0,0,1,6.494-9.02a4.879,4.879,0,0,1,.882,3.073ZM5.4-6.125a3.638,3.638,0,0,0-.338-1.8A1.144,1.144,0,0,0,4.006-8.49a1.124,1.124,0,0,0-1.029.537,3.4,3.4,0,0,0-.352,1.678v2.42a3.819,3.819,0,0,0,.332,1.808,1.129,1.129,0,0,0,1.063.591,1.11,1.11,0,0,0,1.046-.567A3.728,3.728,0,0,0,5.4-3.76ZM9.3,2.5l-1.032-.54.246-.444A3.552,3.552,0,0,0,8.989-.15V-1.682h1.668L10.65-.314a3.552,3.552,0,0,1-.383,1.531A3.925,3.925,0,0,1,9.3,2.5Zm3.117-7.39L13-9.953h5.578v1.647H14.615l-.246,2.14a3.132,3.132,0,0,1,1.5-.376,2.869,2.869,0,0,1,2.229.882A3.522,3.522,0,0,1,18.9-3.192a3.609,3.609,0,0,1-.407,1.726A2.871,2.871,0,0,1,17.329-.284a3.639,3.639,0,0,1-1.791.42,3.864,3.864,0,0,1-1.675-.366,2.971,2.971,0,0,1-1.22-1.029,2.8,2.8,0,0,1-.475-1.511h1.955a1.46,1.46,0,0,0,.434.967,1.376,1.376,0,0,0,.974.345,1.215,1.215,0,0,0,1.032-.482A2.233,2.233,0,0,0,16.926-3.3a1.846,1.846,0,0,0-.417-1.3,1.53,1.53,0,0,0-1.183-.451,1.71,1.71,0,0,0-1.142.369l-.191.178Z" transform="translate(-7018.569 -1456.592)" fill="#0c1d2f"/>
    <path id="Trazado_881724" data-name="Trazado 881724" d="M6.521-3.746H7.649v1.593H6.521V0H4.546V-2.153H.465L.376-3.4,4.525-9.953h2Zm-4.177,0h2.2V-7.26l-.13.226Z" transform="translate(-7014.792 -1373.06)" fill="#0c1d2f"/>
    <path id="Trazado_881725" data-name="Trazado 881725" d="M6.521-3.746H7.649v1.593H6.521V0H4.546V-2.153H.465L.376-3.4,4.525-9.953h2Zm-4.177,0h2.2V-7.26l-.13.226Z" transform="translate(-6884.229 -1443.327)" fill="#0c1d2f"/>
    <path id="Trazado_881726" data-name="Trazado 881726" d="M2.687-5.852H3.739a1.483,1.483,0,0,0,1.114-.376,1.378,1.378,0,0,0,.362-1,1.218,1.218,0,0,0-.359-.937A1.391,1.391,0,0,0,3.869-8.5a1.458,1.458,0,0,0-.95.311,1,1,0,0,0-.383.81H.561a2.43,2.43,0,0,1,.42-1.4,2.8,2.8,0,0,1,1.176-.967,3.924,3.924,0,0,1,1.665-.349A3.722,3.722,0,0,1,6.3-9.334a2.577,2.577,0,0,1,.9,2.082A2.094,2.094,0,0,1,6.774-6a2.709,2.709,0,0,1-1.094.882,2.473,2.473,0,0,1,1.254.9,2.448,2.448,0,0,1,.414,1.422A2.62,2.62,0,0,1,6.381-.663a3.889,3.889,0,0,1-2.56.8A3.688,3.688,0,0,1,1.384-.649,2.567,2.567,0,0,1,.438-2.728H2.413a1.145,1.145,0,0,0,.42.916,1.549,1.549,0,0,0,1.036.355,1.556,1.556,0,0,0,1.1-.373,1.286,1.286,0,0,0,.4-.988q0-1.49-1.641-1.49H2.687Z" transform="translate(-6976.841 -1483.348)" fill="#0c1d2f"/>
    <path id="Trazado_881727" data-name="Trazado 881727" d="M5.476,0H3.5V-7.615l-2.358.731V-8.49L5.264-9.967h.212ZM9.3,2.5l-1.032-.54.246-.444A3.552,3.552,0,0,0,8.989-.15V-1.682h1.668L10.65-.314a3.552,3.552,0,0,1-.383,1.531A3.925,3.925,0,0,1,9.3,2.5Zm3.117-7.39L13-9.953h5.578v1.647H14.615l-.246,2.14a3.132,3.132,0,0,1,1.5-.376,2.869,2.869,0,0,1,2.229.882A3.522,3.522,0,0,1,18.9-3.192a3.609,3.609,0,0,1-.407,1.726A2.871,2.871,0,0,1,17.329-.284a3.639,3.639,0,0,1-1.791.42,3.864,3.864,0,0,1-1.675-.366,2.971,2.971,0,0,1-1.22-1.029,2.8,2.8,0,0,1-.475-1.511h1.955a1.46,1.46,0,0,0,.434.967,1.376,1.376,0,0,0,.974.345,1.215,1.215,0,0,0,1.032-.482A2.233,2.233,0,0,0,16.926-3.3a1.846,1.846,0,0,0-.417-1.3,1.53,1.53,0,0,0-1.183-.451,1.71,1.71,0,0,0-1.142.369l-.191.178Z" transform="translate(-6969.227 -1510.924)" fill="#0c1d2f"/>
    <path id="Trazado_881728" data-name="Trazado 881728" d="M0,0H381.662V403.448H0Z" transform="translate(-7022.526 -1523)" fill="none"/>
    <path id="Trazado_881729" data-name="Trazado 881729" d="M7.376-4.115A5.042,5.042,0,0,1,6.521-.957,2.983,2.983,0,0,1,4.02.137,3,3,0,0,1,1.531-.937,4.895,4.895,0,0,1,.649-4.013V-5.845A4.976,4.976,0,0,1,1.514-9.01a3,3,0,0,1,2.492-1.08A3.008,3.008,0,0,1,6.494-9.02a4.879,4.879,0,0,1,.882,3.073ZM5.4-6.125a3.638,3.638,0,0,0-.338-1.8A1.144,1.144,0,0,0,4.006-8.49a1.124,1.124,0,0,0-1.029.537,3.4,3.4,0,0,0-.352,1.678v2.42a3.819,3.819,0,0,0,.332,1.808,1.129,1.129,0,0,0,1.063.591,1.11,1.11,0,0,0,1.046-.567A3.728,3.728,0,0,0,5.4-3.76ZM9.3,2.5l-1.032-.54.246-.444A3.552,3.552,0,0,0,8.989-.15V-1.682h1.668L10.65-.314a3.552,3.552,0,0,1-.383,1.531A3.925,3.925,0,0,1,9.3,2.5ZM18.895-8.846,15.046,0H12.961l3.855-8.354H11.867v-1.6h7.027Z" transform="translate(-6817.594 -1266.149)" fill="#0c1d2f"/>
    <path id="Trazado_881730" data-name="Trazado 881730" d="M.971-4.895l.574-5.059H7.123v1.647H3.165l-.246,2.14a3.132,3.132,0,0,1,1.5-.376,2.869,2.869,0,0,1,2.229.882,3.522,3.522,0,0,1,.807,2.468,3.609,3.609,0,0,1-.407,1.726A2.871,2.871,0,0,1,5.879-.284a3.639,3.639,0,0,1-1.791.42A3.864,3.864,0,0,1,2.413-.229a2.971,2.971,0,0,1-1.22-1.029A2.8,2.8,0,0,1,.718-2.769H2.673a1.46,1.46,0,0,0,.434.967,1.376,1.376,0,0,0,.974.345,1.215,1.215,0,0,0,1.032-.482A2.233,2.233,0,0,0,5.476-3.3a1.846,1.846,0,0,0-.417-1.3,1.53,1.53,0,0,0-1.183-.451,1.71,1.71,0,0,0-1.142.369L2.543-4.5Z" transform="translate(-6827.853 -1337.942)" fill="#0c1d2f"/>
    <path id="Trazado_881731" data-name="Trazado 881731" d="M5.476,0H3.5V-7.615l-2.358.731V-8.49L5.264-9.967h.212Zm9.933-4.115a5.042,5.042,0,0,1-.854,3.158,2.983,2.983,0,0,1-2.5,1.094A3,3,0,0,1,9.563-.937a4.895,4.895,0,0,1-.882-3.076V-5.845A4.976,4.976,0,0,1,9.546-9.01a3,3,0,0,1,2.492-1.08,3.008,3.008,0,0,1,2.488,1.07,4.879,4.879,0,0,1,.882,3.073Zm-1.976-2.01a3.638,3.638,0,0,0-.338-1.8,1.144,1.144,0,0,0-1.056-.564,1.124,1.124,0,0,0-1.029.537,3.4,3.4,0,0,0-.352,1.678v2.42a3.819,3.819,0,0,0,.332,1.808,1.129,1.129,0,0,0,1.063.591A1.11,1.11,0,0,0,13.1-2.023a3.728,3.728,0,0,0,.335-1.736Z" transform="translate(-6983.645 -1208.209)" fill="#0c1d2f"/>
    <path id="Trazado_881732" data-name="Trazado 881732" d="M5.476,0H3.5V-7.615l-2.358.731V-8.49L5.264-9.967h.212Zm9.933-4.115a5.042,5.042,0,0,1-.854,3.158,2.983,2.983,0,0,1-2.5,1.094A3,3,0,0,1,9.563-.937a4.895,4.895,0,0,1-.882-3.076V-5.845A4.976,4.976,0,0,1,9.546-9.01a3,3,0,0,1,2.492-1.08,3.008,3.008,0,0,1,2.488,1.07,4.879,4.879,0,0,1,.882,3.073Zm-1.976-2.01a3.638,3.638,0,0,0-.338-1.8,1.144,1.144,0,0,0-1.056-.564,1.124,1.124,0,0,0-1.029.537,3.4,3.4,0,0,0-.352,1.678v2.42a3.819,3.819,0,0,0,.332,1.808,1.129,1.129,0,0,0,1.063.591A1.11,1.11,0,0,0,13.1-2.023a3.728,3.728,0,0,0,.335-1.736Z" transform="translate(-6921.551 -1227.457)" fill="#0c1d2f"/>
    <path id="Trazado_881733" data-name="Trazado 881733" d="M5.476,0H3.5V-7.615l-2.358.731V-8.49L5.264-9.967h.212ZM9-4.895l.574-5.059h5.578v1.647H11.2l-.246,2.14a3.132,3.132,0,0,1,1.5-.376,2.869,2.869,0,0,1,2.229.882,3.522,3.522,0,0,1,.807,2.468,3.609,3.609,0,0,1-.407,1.726A2.871,2.871,0,0,1,13.911-.284a3.639,3.639,0,0,1-1.791.42,3.864,3.864,0,0,1-1.675-.366,2.971,2.971,0,0,1-1.22-1.029A2.8,2.8,0,0,1,8.75-2.769h1.955a1.46,1.46,0,0,0,.434.967,1.376,1.376,0,0,0,.974.345,1.215,1.215,0,0,0,1.032-.482A2.233,2.233,0,0,0,13.508-3.3a1.846,1.846,0,0,0-.417-1.3,1.53,1.53,0,0,0-1.183-.451,1.71,1.71,0,0,0-1.142.369l-.191.178Z" transform="translate(-7017.714 -1192.77)" fill="#0c1d2f"/>
    <path id="Trazado_881734" data-name="Trazado 881734" d="M5.476,0H3.5V-7.615l-2.358.731V-8.49L5.264-9.967h.212Z" transform="translate(-6966.588 -1259.35)" fill="#0c1d2f"/>
    <path id="Trazado_881735" data-name="Trazado 881735" d="M5.476,0H3.5V-7.615l-2.358.731V-8.49L5.264-9.967h.212Zm9.078-3.746h1.128v1.593H14.554V0H12.578V-2.153H8.5L8.408-3.4l4.149-6.556h2Zm-4.177,0h2.2V-7.26l-.13.226Z" transform="translate(-6658.199 -1334.065)" fill="#0c1d2f"/>
    <path id="Trazado_881736" data-name="Trazado 881736" d="M23.723,0,0,91.8" transform="translate(-6676.713 -1394.134)" fill="none" stroke="#0c1d30" stroke-linecap="round" stroke-width="1"/>
    <path id="Trazado_881032" data-name="Trazado 881032" d="M288.959,109.269l1.039.713,4.67-6.8.792,8.209,1.253-.121-1.124-11.651Z" transform="translate(-6947.688 -1497.199)" fill="#0c1d30"/>
    <path id="Trazado_881033" data-name="Trazado 881033" d="M273.074,168.776l1.254-.121.792,8.209,4.67-6.8,1.037.713-6.627,9.649Z" transform="translate(-6951.802 -1479.319)" fill="#0c1d30"/>
    <path id="Trazado_881737" data-name="Trazado 881737" d="M0,5.947,220.659,0" transform="translate(-6908.241 -1299.295)" fill="none" stroke="#9eb3c8" stroke-width="1"/>
    <path id="Trazado_881034" data-name="Trazado 881034" d="M20.757,240.025c1.663.554,48.235,0,48.235,0l92.588-12.2v-100.9" transform="translate(-7017.15 -1490.128)" fill="none" stroke="#9eb3c8" stroke-miterlimit="10" stroke-width="1" stroke-dasharray="3 3"/>
    <path id="Trazado_881738" data-name="Trazado 881738" d="M0,0H16.333" transform="translate(-7017.034 -1392.034)" fill="none" stroke="#0c1d30" stroke-width="0.719"/>
    <path id="Trazado_881035" data-name="Trazado 881035" d="M7.562,108.487l.617-.662-3.268-3.038,3.268-3.038-.617-.663-3.98,3.7Z" transform="translate(-7021.598 -1496.82)" fill="#0c1d30"/>
    <path id="Trazado_881036" data-name="Trazado 881036" d="M15.08,108.487l-.617-.662,3.268-3.038-3.268-3.038.617-.663,3.98,3.7Z" transform="translate(-7018.78 -1496.82)" fill="#0c1d30"/>
    <path id="Trazado_881739" data-name="Trazado 881739" d="M0,0,22.459,8.343" transform="translate(-6887.052 -1463.339)" fill="none" stroke="#0c1d30" stroke-width="0.862"/>
    <path id="Trazado_881037" data-name="Trazado 881037" d="M109.657,53.4l.971-.487-2.406-4.779,4.943-2.051-.417-1-6.019,2.5Z" transform="translate(-6994.884 -1511.325)" fill="#0c1d30"/>
    <path id="Trazado_881038" data-name="Trazado 881038" d="M121.624,58.037l-.417-1,4.942-2.05-2.4-4.779.971-.488,2.928,5.823Z" transform="translate(-6991.134 -1510.124)" fill="#0c1d30"/>
    <path id="Trazado_881740" data-name="Trazado 881740" d="M0,14.535,2.468,0" transform="translate(-6843.677 -1151.983)" fill="none" stroke="#0c1d30" stroke-linecap="round" stroke-width="1"/>
    <path id="Trazado_881039" data-name="Trazado 881039" d="M147.788,303.423l-1.239.227-1.484-8.113-4.078,7.169-1.094-.623,5.789-10.174Z" transform="translate(-6986.294 -1447.398)" fill="#0c1d30"/>
    <path id="Trazado_881741" data-name="Trazado 881741" d="M.135,14.742,0,0" transform="translate(-6810.04 -1296.006)" fill="none" stroke="#0c1d30" stroke-linecap="round" stroke-width="1"/>
    <path id="Trazado_881040" data-name="Trazado 881040" d="M173.656,188.435l-1.18.441-2.892-7.723-2.75,7.776-1.186-.421,3.9-11.035Z" transform="translate(-6979.624 -1477.036)" fill="#0c1d30"/>
    <path id="Trazado_881041" data-name="Trazado 881041" d="M.72,180.784a6.2,6.2,0,0,1,0,12.41" transform="translate(-7022.339 -1476.178)" fill="none" stroke="#9eb3c8" stroke-miterlimit="10" stroke-width="1"/>
    <path id="Trazado_881042" data-name="Trazado 881042" d="M.72,177.566a10.257,10.257,0,0,1,0,20.514" transform="translate(-7022.339 -1477.012)" fill="none" stroke="#9eb3c8" stroke-miterlimit="10" stroke-width="1"/>
    <path id="Trazado_881043" data-name="Trazado 881043" d="M198.287,64.055a7.111,7.111,0,0,1-13.114-5.5" transform="translate(-6974.711 -1507.835)" fill="none" stroke="#9eb3c8" stroke-miterlimit="10" stroke-width="1.146"/>
    <path id="Trazado_881044" data-name="Trazado 881044" d="M203.524,66.221a11.754,11.754,0,0,1-21.677-9.1" transform="translate(-6975.667 -1508.205)" fill="none" stroke="#9eb3c8" stroke-miterlimit="10" stroke-width="1.146"/>
    <path id="Trazado_881742" data-name="Trazado 881742" d="M0,0,7.69,12.577" transform="translate(-6957.386 -1259.639)" fill="none" stroke="#0c1d30" stroke-linecap="round" stroke-width="1"/>
    <path id="Trazado_881045" data-name="Trazado 881045" d="M52.051,216.649l.786-.985,6.449,5.14-1.635-8.083,1.234-.251,2.322,11.473Z" transform="translate(-7009.045 -1467.971)" fill="#0c1d30"/>
    <path id="Trazado_881743" data-name="Trazado 881743" d="M0,0H381.662V403.448H0Z" transform="translate(-7022.526 -1523)" fill="none"/>
  </g>
</svg>
