<svg xmlns="http://www.w3.org/2000/svg" width="240.161" height="483.271" viewBox="0 0 240.161 483.271">
  <g id="Grupo_1103486" data-name="Grupo 1103486" transform="translate(-259.711 -12204.812)">
    <path id="Trazado_881472" data-name="Trazado 881472" d="M0,0H188.268V240.684H0Z" transform="translate(310.794 12446.589)" fill="none" stroke="#0c1d30" stroke-linecap="round" stroke-width="1"/>
    <path id="Trazado_881103" data-name="Trazado 881103" d="M183.977,233.741V140.676S112.841,150.3,144.4,41.194L73.263,22.475S68.45,55.636,31.545,61.519V227.857" transform="translate(279.25 12218.732)" fill="none" stroke="#0c1d30" stroke-linecap="round" stroke-linejoin="round" stroke-width="1"/>
    <path id="Trazado_881473" data-name="Trazado 881473" d="M0,0H51.345" transform="translate(310.795 12344.968)" fill="none" stroke="#0c1d30" stroke-linecap="round" stroke-width="1"/>
    <path id="Trazado_881474" data-name="Trazado 881474" d="M0,1.621,150.827,0" transform="translate(311.864 12360.462)" fill="none" stroke="#0c1d30" stroke-linecap="round" stroke-width="1"/>
    <path id="Trazado_881104" data-name="Trazado 881104" d="M163.8,208.129c-2.139,0-91.994,16.581-91.994,16.581L63.251,120.948s18.72-90.924,20.86-92.529" transform="translate(298.89 12222.415)" fill="none" stroke="#0c1d30" stroke-linecap="round" stroke-linejoin="round" stroke-width="1"/>
    <path id="Trazado_881105" data-name="Trazado 881105" d="M31.545,153.16s184.791-1.338,186.129,0" transform="translate(279.25 12299.313)" fill="none" stroke="#0c1d30" stroke-linecap="round" stroke-linejoin="round" stroke-width="1"/>
    <path id="Trazado_881106" data-name="Trazado 881106" d="M31.545,158.114s184.791-1.338,186.129,0" transform="translate(279.25 12302.382)" fill="none" stroke="#0c1d30" stroke-linecap="round" stroke-linejoin="round" stroke-width="1"/>
    <path id="Trazado_881107" data-name="Trazado 881107" d="M31.545,163.068s184.791-1.338,186.129,0" transform="translate(279.25 12305.45)" fill="none" stroke="#0c1d30" stroke-linecap="round" stroke-linejoin="round" stroke-width="1"/>
    <path id="Trazado_881475" data-name="Trazado 881475" d="M0,14.456,94.669,0" transform="translate(368.559 12452.473)" fill="none" stroke="#0c1d30" stroke-linecap="round" stroke-width="1"/>
    <path id="Trazado_881476" data-name="Trazado 881476" d="M0,0V224.043" transform="translate(297.959 12458.325)" fill="none" stroke="#0c1d30" stroke-linecap="round" stroke-width="1"/>
    <path id="Trazado_881108" data-name="Trazado 881108" d="M20.438,167.87l1.522.554,3.629-9.967,3.627,9.967,1.521-.554-5.148-14.149Z" transform="translate(272.37 12300.028)" fill="#0c1d30"/>
    <path id="Trazado_881109" data-name="Trazado 881109" d="M20.438,289.2l1.522-.554,3.629,9.967,3.627-9.967,1.521.554-5.148,14.149Z" transform="translate(272.37 12383.601)" fill="#0c1d30"/>
    <path id="Trazado_881477" data-name="Trazado 881477" d="M0,0V17.14" transform="translate(297.959 12344.792)" fill="none" stroke="#0c1d30" stroke-linecap="round" stroke-width="1"/>
    <path id="Trazado_881110" data-name="Trazado 881110" d="M19.528,92.476l1.185,1.1,5.436-5.849,5.436,5.849,1.187-1.1L26.15,85.354Z" transform="translate(271.807 12257.682)" fill="#0c1d30"/>
    <path id="Trazado_881111" data-name="Trazado 881111" d="M19.528,94.131l1.185-1.1,5.436,5.849,5.436-5.849,1.187,1.1-6.623,7.122Z" transform="translate(271.807 12262.434)" fill="#0c1d30"/>
    <path id="Trazado_881478" data-name="Trazado 881478" d="M0,0,16.737,3.694" transform="translate(353.772 12231.173)" fill="none" stroke="#0c1d30" stroke-linecap="round" stroke-width="1"/>
    <path id="Trazado_881112" data-name="Trazado 881112" d="M62.552,25.933l1.334-.92-4.539-6.568L66.229,14.4,65.407,13l-8.382,4.933Z" transform="translate(295.033 12212.863)" fill="#0c1d30"/>
    <path id="Trazado_881113" data-name="Trazado 881113" d="M64.616,26.786l-.823-1.4,6.883-4.047-4.539-6.57,1.334-.921,5.527,8Z" transform="translate(299.226 12213.392)" fill="#0c1d30"/>
    <path id="Trazado_881479" data-name="Trazado 881479" d="M167.883,0H0" transform="translate(321.255 12678.387)" fill="none" stroke="#0c1d30" stroke-linecap="round" stroke-width="1"/>
    <path id="Trazado_881114" data-name="Trazado 881114" d="M135.974,289.255l-.554,1.522,9.968,3.629-9.968,3.627.554,1.521,14.149-5.148Z" transform="translate(343.592 12383.98)" fill="#0c1d30"/>
    <path id="Trazado_881115" data-name="Trazado 881115" d="M49.326,289.255l.554,1.522-9.968,3.629,9.968,3.627-.554,1.521-14.149-5.148Z" transform="translate(281.5 12383.98)" fill="#0c1d30"/>
    <path id="Trazado_881480" data-name="Trazado 881480" d="M35.24,0H0" transform="translate(321.255 12351.591)" fill="none" stroke="#0c1d30" stroke-linecap="round" stroke-width="1"/>
    <path id="Trazado_881116" data-name="Trazado 881116" d="M54.065,87.456l-.554,1.522,9.968,3.629-9.968,3.627.554,1.521,14.149-5.148Z" transform="translate(292.856 12258.983)" fill="#0c1d30"/>
    <path id="Trazado_881117" data-name="Trazado 881117" d="M49.326,87.456l.554,1.522-9.968,3.629,9.968,3.627-.554,1.521L35.178,92.608Z" transform="translate(281.5 12258.983)" fill="#0c1d30"/>
    <path id="Trazado_881481" data-name="Trazado 881481" d="M38.984,0H0" transform="translate(321.255 12436.601)" fill="none" stroke="#0c1d30" stroke-linecap="round" stroke-width="1"/>
    <path id="Trazado_881118" data-name="Trazado 881118" d="M56.377,139.951l-.554,1.522,9.968,3.629-9.968,3.627.554,1.521L70.526,145.1Z" transform="translate(294.289 12291.499)" fill="#0c1d30"/>
    <path id="Trazado_881119" data-name="Trazado 881119" d="M49.326,139.951l.554,1.522L39.913,145.1l9.968,3.627-.554,1.521L35.178,145.1Z" transform="translate(281.5 12291.499)" fill="#0c1d30"/>
    <path id="Trazado_881482" data-name="Trazado 881482" d="M0,0H240.161V483.271H0Z" transform="translate(259.711 12204.812)" fill="none"/>
    <path id="Trazado_881483" data-name="Trazado 881483" d="M3.454-7.523H4.808A1.907,1.907,0,0,0,6.24-8.007,1.771,1.771,0,0,0,6.706-9.29a1.566,1.566,0,0,0-.461-1.2,1.788,1.788,0,0,0-1.27-.431,1.874,1.874,0,0,0-1.222.4,1.279,1.279,0,0,0-.492,1.042H.721a3.124,3.124,0,0,1,.541-1.8,3.6,3.6,0,0,1,1.512-1.244,5.045,5.045,0,0,1,2.14-.448A4.785,4.785,0,0,1,8.095-12,3.314,3.314,0,0,1,9.246-9.325,2.693,2.693,0,0,1,8.71-7.708,3.483,3.483,0,0,1,7.3-6.574a3.18,3.18,0,0,1,1.613,1.16,3.147,3.147,0,0,1,.532,1.828A3.369,3.369,0,0,1,8.2-.853,5,5,0,0,1,4.913.176,4.741,4.741,0,0,1,1.78-.835,3.3,3.3,0,0,1,.563-3.507H3.1a1.472,1.472,0,0,0,.541,1.178,1.992,1.992,0,0,0,1.332.457,2,2,0,0,0,1.419-.479,1.654,1.654,0,0,0,.514-1.27q0-1.916-2.109-1.916H3.454Zm10.327,0h1.354a1.907,1.907,0,0,0,1.433-.483,1.771,1.771,0,0,0,.466-1.283,1.566,1.566,0,0,0-.461-1.2,1.788,1.788,0,0,0-1.27-.431,1.874,1.874,0,0,0-1.222.4,1.279,1.279,0,0,0-.492,1.042h-2.54a3.124,3.124,0,0,1,.541-1.8A3.6,3.6,0,0,1,13.1-12.524a5.045,5.045,0,0,1,2.14-.448A4.785,4.785,0,0,1,18.422-12a3.314,3.314,0,0,1,1.151,2.676,2.693,2.693,0,0,1-.536,1.617,3.483,3.483,0,0,1-1.406,1.134,3.18,3.18,0,0,1,1.613,1.16,3.147,3.147,0,0,1,.532,1.828A3.369,3.369,0,0,1,18.532-.853,5,5,0,0,1,15.24.176,4.741,4.741,0,0,1,12.107-.835,3.3,3.3,0,0,1,10.89-3.507h2.54a1.472,1.472,0,0,0,.541,1.178,1.992,1.992,0,0,0,1.332.457,2,2,0,0,0,1.419-.479,1.654,1.654,0,0,0,.514-1.27q0-1.916-2.109-1.916H13.781Z" transform="translate(269.433 12575.213)" fill="#0c1d2f"/>
    <path id="Trazado_881484" data-name="Trazado 881484" d="M9.106,0H.822V-1.644l3.91-4.167A9.645,9.645,0,0,0,5.923-7.346a2.467,2.467,0,0,0,.386-1.245A1.846,1.846,0,0,0,5.9-9.857a1.468,1.468,0,0,0-1.162-.461,1.584,1.584,0,0,0-1.282.56,2.219,2.219,0,0,0-.469,1.473H.581A3.962,3.962,0,0,1,1.108-10.3,3.715,3.715,0,0,1,2.6-11.733a4.529,4.529,0,0,1,2.183-.519,4.288,4.288,0,0,1,2.9.9A3.172,3.172,0,0,1,8.716-8.824,4.064,4.064,0,0,1,8.251-7,10.148,10.148,0,0,1,6.657-4.831L3.91-1.934h5.2ZM11.3,3.03l-1.253-.656.3-.54a4.313,4.313,0,0,0,.573-2.017V-2.042h2.025l-.008,1.66a4.313,4.313,0,0,1-.465,1.859A4.767,4.767,0,0,1,11.3,3.03Zm3.785-8.973.7-6.143h6.773v2H17.747l-.3,2.6a3.8,3.8,0,0,1,1.818-.457,3.484,3.484,0,0,1,2.706,1.071,4.277,4.277,0,0,1,.979,3,4.382,4.382,0,0,1-.494,2.1A3.486,3.486,0,0,1,21.042-.344a4.418,4.418,0,0,1-2.175.51,4.692,4.692,0,0,1-2.034-.444,3.607,3.607,0,0,1-1.482-1.249,3.4,3.4,0,0,1-.577-1.834h2.374a1.773,1.773,0,0,0,.527,1.175,1.671,1.671,0,0,0,1.183.419,1.475,1.475,0,0,0,1.253-.585,2.711,2.711,0,0,0,.44-1.656,2.242,2.242,0,0,0-.506-1.577,1.858,1.858,0,0,0-1.436-.548,2.077,2.077,0,0,0-1.386.448l-.232.216Z" transform="translate(259.711 12358.683)" fill="#0c1d2f"/>
    <path id="Trazado_881485" data-name="Trazado 881485" d="M9.642,0H.87V-1.74L5.01-6.152A10.212,10.212,0,0,0,6.271-7.778,2.612,2.612,0,0,0,6.68-9.1a1.955,1.955,0,0,0-.431-1.34,1.555,1.555,0,0,0-1.23-.488,1.677,1.677,0,0,0-1.358.593,2.35,2.35,0,0,0-.5,1.56H.615a4.2,4.2,0,0,1,.558-2.136,3.934,3.934,0,0,1,1.578-1.516,4.8,4.8,0,0,1,2.312-.549,4.54,4.54,0,0,1,3.072.949A3.358,3.358,0,0,1,9.229-9.343a4.3,4.3,0,0,1-.492,1.934A10.745,10.745,0,0,1,7.049-5.115L4.14-2.048h5.5Z" transform="translate(362.939 12220.62)" fill="#0c1d2f"/>
    <path id="Trazado_881486" data-name="Trazado 881486" d="M0,0H240.161V483.271H0Z" transform="translate(259.711 12204.812)" fill="none"/>
    <path id="Trazado_881487" data-name="Trazado 881487" d="M7.04,0H4.5V-9.791l-3.032.94v-2.065l5.3-1.9H7.04Z" transform="translate(483.813 12431.888)" fill="#0c1d2f"/>
    <path id="Trazado_881488" data-name="Trazado 881488" d="M9.571-11.373,4.623,0H1.942L6.9-10.74H.536V-12.8H9.571Z" transform="translate(334.588 12378.408)" fill="#0c1d2f"/>
    <path id="Trazado_881489" data-name="Trazado 881489" d="M9.642,0H.87V-1.74L5.01-6.152A10.212,10.212,0,0,0,6.271-7.778,2.612,2.612,0,0,0,6.68-9.1a1.955,1.955,0,0,0-.431-1.34,1.555,1.555,0,0,0-1.23-.488,1.677,1.677,0,0,0-1.358.593,2.35,2.35,0,0,0-.5,1.56H.615a4.2,4.2,0,0,1,.558-2.136,3.934,3.934,0,0,1,1.578-1.516,4.8,4.8,0,0,1,2.312-.549,4.54,4.54,0,0,1,3.072.949A3.358,3.358,0,0,1,9.229-9.343a4.3,4.3,0,0,1-.492,1.934A10.745,10.745,0,0,1,7.049-5.115L4.14-2.048h5.5Zm8.446-12.929v2.092h-.246a4.315,4.315,0,0,0-2.773.9,3.642,3.642,0,0,0-1.261,2.417,3.46,3.46,0,0,1,2.575-1.037,3.26,3.26,0,0,1,2.654,1.2,4.792,4.792,0,0,1,.984,3.146,4.713,4.713,0,0,1-.541,2.259A3.877,3.877,0,0,1,17.952-.387a4.443,4.443,0,0,1-2.237.563A4.15,4.15,0,0,1,12.45-1.23a5.459,5.459,0,0,1-1.244-3.753V-5.9a8.215,8.215,0,0,1,.787-3.678,5.768,5.768,0,0,1,2.259-2.47,6.619,6.619,0,0,1,3.415-.883ZM15.609-6.521a2.027,2.027,0,0,0-1.116.321,1.932,1.932,0,0,0-.738.848v.773a3.431,3.431,0,0,0,.5,1.991,1.618,1.618,0,0,0,1.406.716,1.6,1.6,0,0,0,1.323-.646,2.638,2.638,0,0,0,.505-1.674,2.633,2.633,0,0,0-.51-1.687A1.66,1.66,0,0,0,15.609-6.521Z" transform="translate(406.354 12669.358)" fill="#0c1d2f"/>
    <path id="Trazado_881490" data-name="Trazado 881490" d="M9.211-9.4a2.977,2.977,0,0,1-.466,1.652A3.353,3.353,0,0,1,7.462-6.592,3.711,3.711,0,0,1,8.938-5.357a3.168,3.168,0,0,1,.545,1.85A3.354,3.354,0,0,1,8.323-.813,4.706,4.706,0,0,1,5.168.176,4.727,4.727,0,0,1,2-.817,3.346,3.346,0,0,1,.835-3.507,3.188,3.188,0,0,1,1.38-5.361a3.644,3.644,0,0,1,1.468-1.23A3.318,3.318,0,0,1,1.569-7.743,3,3,0,0,1,1.107-9.4,3.317,3.317,0,0,1,2.2-12a4.291,4.291,0,0,1,2.962-.971,4.319,4.319,0,0,1,2.958.962A3.3,3.3,0,0,1,9.211-9.4Zm-2.276,5.7a1.843,1.843,0,0,0-.483-1.336,1.724,1.724,0,0,0-1.3-.5,1.72,1.72,0,0,0-1.292.5,1.839,1.839,0,0,0-.483,1.34A1.838,1.838,0,0,0,3.85-2.373a1.729,1.729,0,0,0,1.318.5,1.725,1.725,0,0,0,1.3-.483A1.835,1.835,0,0,0,6.935-3.691ZM6.671-9.272a1.758,1.758,0,0,0-.4-1.2,1.4,1.4,0,0,0-1.116-.453,1.413,1.413,0,0,0-1.107.439,1.748,1.748,0,0,0-.4,1.213,1.837,1.837,0,0,0,.4,1.23,1.384,1.384,0,0,0,1.116.466A1.371,1.371,0,0,0,6.28-8.042,1.85,1.85,0,0,0,6.671-9.272Z" transform="translate(334.685 12430.818)" fill="#0c1d2f"/>
    <path id="Trazado_881491" data-name="Trazado 881491" d="M0,97.877,21.394,0" transform="translate(345.561 12245.485)" fill="none" stroke="#0c1d30" stroke-linecap="round" stroke-width="1"/>
    <path id="Trazado_881492" data-name="Trazado 881492" d="M0,37.974,25.138,0" transform="translate(339.142 12244.951)" fill="none" stroke="#9eb3c8" stroke-width="1"/>
    <path id="Trazado_881493" data-name="Trazado 881493" d="M0,0,6.418,37.974" transform="translate(336.468 12306.993)" fill="none" stroke="#9eb3c8" stroke-width="1"/>
    <path id="Trazado_881494" data-name="Trazado 881494" d="M4.279,0A4.279,4.279,0,1,1,0,4.279,4.279,4.279,0,0,1,4.279,0Z" transform="translate(332.582 12298.146) rotate(-80.008)" fill="none" stroke="#9eb3c8" stroke-width="1"/>
    <path id="Trazado_881120" data-name="Trazado 881120" d="M151.107,153.674l-3.744-12.3-7.488,19.255" transform="translate(346.352 12292.38)" fill="none" stroke="#9eb3c8" stroke-miterlimit="10" stroke-width="1"/>
    <path id="Trazado_881495" data-name="Trazado 881495" d="M0,0H240.161V483.271H0Z" transform="translate(259.711 12204.812)" fill="none"/>
  </g>
</svg>
