<svg xmlns="http://www.w3.org/2000/svg" xmlns:xlink="http://www.w3.org/1999/xlink" width="1030" height="512" viewBox="0 0 1030 512">
  <defs>
    <clipPath id="clip-path">
      <rect id="Rectángulo_404041" data-name="Rectángulo 404041" width="1030" height="512" transform="translate(-4771 3712)" fill="#fff" stroke="#707070" stroke-width="1"/>
    </clipPath>
  </defs>
  <g id="Enmascarar_grupo_1098831" data-name="Enmascarar grupo 1098831" transform="translate(4771 -3712)" clip-path="url(#clip-path)">
    <g id="Grupo_1103506" data-name="Grupo 1103506">
      <path id="Trazado_881310" data-name="Trazado 881310" d="M89.916,36.85,96.019,39l58.306,20.579S138.412,154.3,181.6,159.607l-5.3,110.634,8.335,39.4L73.245,313.434l-56.833-2.273L.5,79.286l80.323-1.31Z" transform="translate(-4585.64 3788.56)" fill="none" stroke="#0c1d30" stroke-linecap="round" stroke-linejoin="round" stroke-width="1"/>
      <path id="Trazado_881311" data-name="Trazado 881311" d="M41.214,305.393c0-3.03,23.49-264.46,23.49-264.46" transform="translate(-4556.295 3791.503)" fill="none" stroke="#9eb3c8" stroke-miterlimit="10" stroke-width="1" stroke-dasharray="3 3"/>
      <path id="Trazado_881781" data-name="Trazado 881781" d="M0,184.341.75,0" transform="translate(-4548.009 3913.863)" fill="none" stroke="#0c1d30" stroke-width="1"/>
      <path id="Trazado_881312" data-name="Trazado 881312" d="M34.369,100.915a.862.862,0,0,1-1.187-.27L26.156,89.513,19.04,100.586a.861.861,0,1,1-1.449-.929l7.847-12.21a.86.86,0,0,1,1.452.007l7.747,12.272a.864.864,0,0,1-.268,1.189" transform="translate(-4573.418 3824.743)" fill="#0c1d30"/>
      <path id="Trazado_881782" data-name="Trazado 881782" d="M0,225.639.485,0" transform="translate(-4129.156 3893.025)" fill="none" stroke="#0c1d30" stroke-width="1"/>
      <path id="Trazado_881313" data-name="Trazado 881313" d="M277.641,88.789a.86.86,0,0,1-1.187-.268L269.406,77.4l-7.095,11.089a.86.86,0,1,1-1.449-.927l7.823-12.226a.862.862,0,0,1,1.452,0L277.908,87.6a.865.865,0,0,1-.267,1.189" transform="translate(-4398.079 3816.015)" fill="#0c1d30"/>
      <path id="Trazado_881783" data-name="Trazado 881783" d="M0,231.512.485,0" transform="translate(-3951.839 3893.024)" fill="none" stroke="#0c1d30" stroke-width="1"/>
      <path id="Trazado_881314" data-name="Trazado 881314" d="M380.687,88.789a.86.86,0,0,1-1.187-.268L372.452,77.4l-7.095,11.087a.86.86,0,1,1-1.449-.927l7.823-12.226a.86.86,0,0,1,1.451,0L380.954,87.6a.877.877,0,0,1,.133.463.858.858,0,0,1-.4.726" transform="translate(-4323.808 3816.015)" fill="#0c1d30"/>
      <path id="Trazado_881784" data-name="Trazado 881784" d="M0,337.788.487,0" transform="translate(-4039.361 3786.749)" fill="none" stroke="#0c1d30" stroke-width="1"/>
      <path id="Trazado_881315" data-name="Trazado 881315" d="M329.831,27.022a.861.861,0,0,1-1.187-.267l-7.055-11.113L314.5,26.734a.86.86,0,1,1-1.451-.926l7.816-12.231a.859.859,0,0,1,1.451,0l7.78,12.254a.862.862,0,0,1-.265,1.189" transform="translate(-4360.463 3771.5)" fill="#0c1d30"/>
      <path id="Trazado_881316" data-name="Trazado 881316" d="M68.8,219.636H58.188V143.859s65.167,4.548,72.745,46.982-30.311,41.677-30.311,41.677S80.162,231,68.8,219.636Z" transform="translate(-4544.061 3865.687)" fill="none" stroke="#9eb3c8" stroke-miterlimit="10" stroke-width="1" stroke-dasharray="3 3"/>
      <path id="Trazado_881785" data-name="Trazado 881785" d="M0,0V75.018" transform="translate(-4472.612 4011.062)" fill="none" stroke="#0c1d30" stroke-width="1.073"/>
      <path id="Trazado_881786" data-name="Trazado 881786" d="M0,14.4V0" transform="translate(-4547.251 3867.087)" fill="none" stroke="#0c1d30" stroke-linecap="round" stroke-width="1"/>
      <path id="Trazado_881787" data-name="Trazado 881787" d="M15.914,20.46,0,0" transform="translate(-4498.755 3832.987)" fill="none" stroke="#0c1d30" stroke-linecap="round" stroke-width="1"/>
      <path id="Trazado_881317" data-name="Trazado 881317" d="M106.32,84.177s1.779-.871,4.574-2.216c9.974-4.8,32.889-15.638,34.073-14.454,1.514,1.516,56.074,0,56.074,0V19.01s-73.5.757-101.54-6.821L88.133,48.562Z" transform="translate(-4522.478 3770.785)" fill="none" stroke="#0c1d30" stroke-linecap="round" stroke-linejoin="round" stroke-width="1"/>
      <path id="Trazado_881318" data-name="Trazado 881318" d="M42.335,240.042H95.379l111.39-3.03L346.2,224.887v27.279s-72.745,1.516-134.124,9.092S92.347,265.8,92.347,265.8l-49.255-2.273Z" transform="translate(-4555.487 3924.089)" fill="none" stroke="#0c1d30" stroke-linecap="round" stroke-linejoin="round" stroke-width="1"/>
      <path id="Trazado_881319" data-name="Trazado 881319" d="M157.27,251.087c0-2.106,1.3-118.132,1.492-135.095" transform="translate(-4472.646 3845.602)" fill="none" stroke="#0c1d30" stroke-miterlimit="10" stroke-width="1"/>
      <path id="Trazado_881320" data-name="Trazado 881320" d="M169.944,128.715a.861.861,0,0,1-1.186-.279l-6.948-11.18-7.193,11.023a.861.861,0,1,1-1.442-.94l7.933-12.155a.86.86,0,0,1,1.451.015l7.663,12.327a.864.864,0,0,1-.277,1.187" transform="translate(-4475.698 3844.739)" fill="#0c1d30"/>
      <path id="Trazado_881788" data-name="Trazado 881788" d="M0,0V11.366" transform="translate(-4378.176 3826.831)" fill="none" stroke="#0c1d30" stroke-linecap="round" stroke-width="1"/>
      <path id="Trazado_881789" data-name="Trazado 881789" d="M11.366,0H0" transform="translate(-4434.06 3819.253)" fill="none" stroke="#0c1d30" stroke-linecap="round" stroke-width="1"/>
      <path id="Trazado_881790" data-name="Trazado 881790" d="M0,0H8.335" transform="translate(-4422.221 4058.422)" fill="none" stroke="#0c1d30" stroke-linecap="round" stroke-width="1"/>
      <path id="Trazado_881321" data-name="Trazado 881321" d="M132.61,127.857c.757,1.137,34.479,7.578,35.615-44.328,0,0,53.423,98.887,49.255,189.44l-82.6,7.957-.379-7.578,7.578-31.447Z" transform="translate(-4490.42 3822.204)" fill="none" stroke="#0c1d30" stroke-linecap="round" stroke-linejoin="round" stroke-width="1"/>
      <path id="Trazado_881791" data-name="Trazado 881791" d="M7.2,0H0" transform="translate(-4348.338 4063.726)" fill="none" stroke="#0c1d30" stroke-linecap="round" stroke-width="1"/>
      <path id="Trazado_881322" data-name="Trazado 881322" d="M156.169,61.22s67.442-21.6,68.577-20.838,3.789,10.23,48.876,9.092V295.368l-57.59,5.684s-5.305-131.473-52.285-189.061C163.747,111.99,163.367,79.028,156.169,61.22Z" transform="translate(-4473.44 3791.091)" fill="none" stroke="#0c1d30" stroke-linecap="round" stroke-miterlimit="10" stroke-width="1"/>
      <path id="Trazado_881323" data-name="Trazado 881323" d="M71.4,265.964s2.652-25.385,3.03-25.763,0-15.535,0-15.535" transform="translate(-4534.539 3923.93)" fill="none" stroke="#0c1d30" stroke-linecap="round" stroke-miterlimit="10" stroke-width="1"/>
      <path id="Trazado_881792" data-name="Trazado 881792" d="M1.137,0,0,16.671" transform="translate(-4513.153 4147.459)" fill="#808280"/>
      <path id="Trazado_881793" data-name="Trazado 881793" d="M0,0,.757,26.522" transform="translate(-4347.581 4145.186)" fill="none" stroke="#0c1d30" stroke-linecap="round" stroke-width="1"/>
      <path id="Trazado_881794" data-name="Trazado 881794" d="M0,0,.757,26.522" transform="translate(-4210.047 4130.978)" fill="none" stroke="#0c1d30" stroke-linecap="round" stroke-width="1"/>
      <path id="Trazado_881324" data-name="Trazado 881324" d="M251.764,54.862s26.143-5.114,41.487-30.122c0,0,4.546,258.019-5.684,313.715L274.5,340.16l-7.389-2.273-16.481,2.841S266.541,116.241,251.764,54.862Z" transform="translate(-4405.359 3779.832)" fill="none" stroke="#0c1d30" stroke-linecap="round" stroke-linejoin="round" stroke-width="1"/>
      <path id="Trazado_881325" data-name="Trazado 881325" d="M284.424,42.779S300.9,14.932,321.365,4.7s36.941-.57,57.4,15.912l17.049,17.051s5.684,259.722-27.849,326.216H341.825L281.013,358.2S293.516,75.742,284.424,42.779Z" transform="translate(-4383.458 3762.36)" fill="none" stroke="#0c1d30" stroke-linecap="round" stroke-linejoin="round" stroke-width="1"/>
      <path id="Trazado_881326" data-name="Trazado 881326" d="M362.534,22.428s22.165,36.941,43.193,40.92c0,0-7.957,228.465-1.137,277.341,0,0-13.639,6.251-49.444,8.525C355.145,349.214,345.485,89.489,362.534,22.428Z" transform="translate(-4331.992 3778.165)" fill="none" stroke="#0c1d30" stroke-linecap="round" stroke-linejoin="round" stroke-width="1"/>
      <path id="Trazado_881795" data-name="Trazado 881795" d="M0,0H660.6V429.353H0Z" transform="translate(-4586 3762)" fill="none"/>
      <path id="Trazado_881796" data-name="Trazado 881796" d="M12.432-4.736a5.031,5.031,0,0,1-1.694,3.613A5.951,5.951,0,0,1,6.709.2a5.351,5.351,0,0,1-4.3-1.841A7.548,7.548,0,0,1,.84-6.7v-.869a8.523,8.523,0,0,1,.723-3.613,5.416,5.416,0,0,1,2.065-2.4,5.786,5.786,0,0,1,3.12-.835A5.8,5.8,0,0,1,10.713-13.1a5.407,5.407,0,0,1,1.738,3.7H9.521a2.97,2.97,0,0,0-.767-2,2.839,2.839,0,0,0-2.007-.62,2.489,2.489,0,0,0-2.192,1.05,5.883,5.883,0,0,0-.747,3.257v1.074a6.3,6.3,0,0,0,.7,3.369A2.443,2.443,0,0,0,6.709-2.2a2.892,2.892,0,0,0,2.026-.62A2.8,2.8,0,0,0,9.5-4.736ZM20.5-1.074A3.539,3.539,0,0,1,17.607.2a3.338,3.338,0,0,1-2.593-.977A4.169,4.169,0,0,1,14.1-3.643v-6.924h2.822V-3.74q0,1.65,1.5,1.65a2.038,2.038,0,0,0,1.973-1v-7.48h2.832V0H20.576ZM30.225.2A5.187,5.187,0,0,1,26.44-1.23a5.068,5.068,0,0,1-1.46-3.8V-5.3A6.383,6.383,0,0,1,25.6-8.149a4.515,4.515,0,0,1,1.743-1.934,4.893,4.893,0,0,1,2.573-.679,4.385,4.385,0,0,1,3.413,1.367A5.555,5.555,0,0,1,34.57-5.518v1.152H27.842a2.622,2.622,0,0,0,.825,1.66,2.5,2.5,0,0,0,1.743.625,3.046,3.046,0,0,0,2.549-1.182l1.387,1.553a4.237,4.237,0,0,1-1.719,1.4A5.639,5.639,0,0,1,30.225.2ZM29.9-8.477a1.767,1.767,0,0,0-1.362.566,2.926,2.926,0,0,0-.669,1.621H31.8v-.225a2.086,2.086,0,0,0-.508-1.45A1.824,1.824,0,0,0,29.9-8.477ZM39.15,0H36.318V-15H39.15Zm5.3,0H41.621V-15h2.832Zm1.885-5.381a6.267,6.267,0,0,1,.605-2.8,4.432,4.432,0,0,1,1.743-1.9,5.086,5.086,0,0,1,2.642-.674,4.812,4.812,0,0,1,3.491,1.309A5.252,5.252,0,0,1,56.328-5.9l.02.723a5.523,5.523,0,0,1-1.357,3.9A4.718,4.718,0,0,1,51.348.2,4.742,4.742,0,0,1,47.7-1.27a5.62,5.62,0,0,1-1.362-3.984Zm2.822.205a3.939,3.939,0,0,0,.566,2.3,1.869,1.869,0,0,0,1.621.8,1.874,1.874,0,0,0,1.6-.786,4.31,4.31,0,0,0,.576-2.515,3.9,3.9,0,0,0-.576-2.285,1.874,1.874,0,0,0-1.621-.811,1.843,1.843,0,0,0-1.6.806A4.383,4.383,0,0,0,49.16-5.176Z" transform="translate(-4408.752 3820.48)" fill="#0c1d2f"/>
      <path id="Trazado_881797" data-name="Trazado 881797" d="M9.324-3.552A3.774,3.774,0,0,1,8.053-.842,4.463,4.463,0,0,1,5.032.146,4.013,4.013,0,0,1,1.805-1.234,5.661,5.661,0,0,1,.63-5.024v-.652a6.393,6.393,0,0,1,.542-2.71,4.062,4.062,0,0,1,1.549-1.8,4.339,4.339,0,0,1,2.34-.626,4.348,4.348,0,0,1,2.974.989,4.055,4.055,0,0,1,1.3,2.776h-2.2a2.227,2.227,0,0,0-.575-1.5,2.129,2.129,0,0,0-1.505-.465,1.867,1.867,0,0,0-1.644.787,4.413,4.413,0,0,0-.56,2.443v.806A4.723,4.723,0,0,0,3.38-2.446a1.832,1.832,0,0,0,1.652.8,2.169,2.169,0,0,0,1.52-.465,2.1,2.1,0,0,0,.575-1.439Zm.974-.483a4.7,4.7,0,0,1,.454-2.1,3.324,3.324,0,0,1,1.307-1.428,3.814,3.814,0,0,1,1.981-.505,3.609,3.609,0,0,1,2.618.981,3.939,3.939,0,0,1,1.132,2.666l.015.542A4.142,4.142,0,0,1,16.787-.956a3.539,3.539,0,0,1-2.732,1.1,3.556,3.556,0,0,1-2.736-1.1A4.215,4.215,0,0,1,10.3-3.94Zm2.117.154a2.954,2.954,0,0,0,.425,1.725,1.4,1.4,0,0,0,1.216.6,1.405,1.405,0,0,0,1.2-.59,3.233,3.233,0,0,0,.432-1.886,2.925,2.925,0,0,0-.432-1.714,1.405,1.405,0,0,0-1.216-.608,1.382,1.382,0,0,0-1.2.6A3.287,3.287,0,0,0,12.415-3.882ZM23.4-2.19a.682.682,0,0,0-.385-.612,4.368,4.368,0,0,0-1.234-.4q-2.827-.593-2.827-2.4a2.178,2.178,0,0,1,.875-1.761,3.531,3.531,0,0,1,2.289-.707,3.8,3.8,0,0,1,2.413.71,2.239,2.239,0,0,1,.9,1.846H23.32a1.024,1.024,0,0,0-.293-.751,1.24,1.24,0,0,0-.916-.3,1.267,1.267,0,0,0-.828.242.763.763,0,0,0-.293.615.652.652,0,0,0,.333.568,3.428,3.428,0,0,0,1.124.374,9.183,9.183,0,0,1,1.333.355,2.19,2.19,0,0,1,1.677,2.131,2.067,2.067,0,0,1-.93,1.754,4.013,4.013,0,0,1-2.4.67,4.191,4.191,0,0,1-1.769-.355,2.968,2.968,0,0,1-1.212-.974,2.263,2.263,0,0,1-.439-1.337h2.007a1.105,1.105,0,0,0,.417.864,1.656,1.656,0,0,0,1.04.3,1.533,1.533,0,0,0,.919-.231A.718.718,0,0,0,23.4-2.19Zm5.955-7.683v1.948H30.71v1.553H29.355v3.955a.944.944,0,0,0,.168.63.846.846,0,0,0,.645.19,3.376,3.376,0,0,0,.623-.051v1.6a4.358,4.358,0,0,1-1.282.19A2.021,2.021,0,0,1,27.239-2.1v-4.27H26.082V-7.925h1.157V-9.873ZM36.482,0a2.351,2.351,0,0,1-.212-.71,2.561,2.561,0,0,1-2,.857,2.814,2.814,0,0,1-1.93-.674,2.167,2.167,0,0,1-.765-1.7,2.24,2.24,0,0,1,.934-1.934,4.608,4.608,0,0,1,2.7-.681h.974V-5.3a1.306,1.306,0,0,0-.282-.879,1.109,1.109,0,0,0-.89-.33,1.261,1.261,0,0,0-.839.256.871.871,0,0,0-.3.7H31.75a2.126,2.126,0,0,1,.425-1.274,2.808,2.808,0,0,1,1.2-.919,4.378,4.378,0,0,1,1.743-.333,3.459,3.459,0,0,1,2.325.736,2.575,2.575,0,0,1,.861,2.069v3.435a3.789,3.789,0,0,0,.315,1.707V0Zm-1.75-1.472a1.823,1.823,0,0,0,.864-.209,1.371,1.371,0,0,0,.586-.56V-3.6h-.791Q33.8-3.6,33.7-2.5l-.007.125a.847.847,0,0,0,.278.652A1.081,1.081,0,0,0,34.731-1.472ZM39.6-4.021a4.776,4.776,0,0,1,.831-2.952,2.7,2.7,0,0,1,2.274-1.1,2.427,2.427,0,0,1,1.912.864V-11.25h2.124V0H44.832l-.1-.842a2.491,2.491,0,0,1-2.036.989,2.69,2.69,0,0,1-2.245-1.1A4.93,4.93,0,0,1,39.6-4.021Zm2.117.154a3.12,3.12,0,0,0,.388,1.707,1.265,1.265,0,0,0,1.128.593A1.417,1.417,0,0,0,44.619-2.4V-5.522a1.4,1.4,0,0,0-1.37-.828Q41.719-6.35,41.719-3.867ZM50.618,0H48.494V-7.925h2.124ZM48.369-9.976a1.042,1.042,0,0,1,.319-.784,1.2,1.2,0,0,1,.868-.308,1.2,1.2,0,0,1,.864.308,1.036,1.036,0,0,1,.322.784,1.039,1.039,0,0,1-.326.791,1.2,1.2,0,0,1-.861.308,1.2,1.2,0,0,1-.861-.308A1.039,1.039,0,0,1,48.369-9.976ZM54.595,0H52.471V-11.25h2.124Zm3.977,0H56.448V-11.25h2.124Zm1.414-4.036a4.7,4.7,0,0,1,.454-2.1,3.324,3.324,0,0,1,1.307-1.428,3.814,3.814,0,0,1,1.981-.505,3.609,3.609,0,0,1,2.618.981,3.939,3.939,0,0,1,1.132,2.666l.015.542A4.142,4.142,0,0,1,66.475-.956a3.539,3.539,0,0,1-2.732,1.1,3.556,3.556,0,0,1-2.736-1.1A4.215,4.215,0,0,1,59.985-3.94Zm2.117.154a2.954,2.954,0,0,0,.425,1.725,1.4,1.4,0,0,0,1.216.6,1.405,1.405,0,0,0,1.2-.59,3.233,3.233,0,0,0,.432-1.886,2.925,2.925,0,0,0-.432-1.714,1.405,1.405,0,0,0-1.216-.608,1.382,1.382,0,0,0-1.2.6A3.287,3.287,0,0,0,62.1-3.882Z" transform="translate(-4321.146 4093.291) rotate(-90)" fill="#0c1d2f"/>
      <path id="Trazado_881798" data-name="Trazado 881798" d="M3.347-9.873v1.948H4.7v1.553H3.347v3.955a.944.944,0,0,0,.168.63.846.846,0,0,0,.645.19,3.376,3.376,0,0,0,.623-.051v1.6A4.358,4.358,0,0,1,3.5.146,2.021,2.021,0,0,1,1.23-2.1v-4.27H.073V-7.925H1.23V-9.873ZM10.334-5.94A5.75,5.75,0,0,0,9.573-6,1.55,1.55,0,0,0,8-5.186V0H5.881V-7.925h2l.059.945A1.961,1.961,0,0,1,9.7-8.071a2.218,2.218,0,0,1,.659.1ZM15.725,0a2.351,2.351,0,0,1-.212-.71,2.561,2.561,0,0,1-2,.857,2.814,2.814,0,0,1-1.93-.674,2.167,2.167,0,0,1-.765-1.7,2.24,2.24,0,0,1,.934-1.934,4.608,4.608,0,0,1,2.7-.681h.974V-5.3a1.306,1.306,0,0,0-.282-.879,1.109,1.109,0,0,0-.89-.33,1.261,1.261,0,0,0-.839.256.871.871,0,0,0-.3.7H10.994a2.126,2.126,0,0,1,.425-1.274,2.808,2.808,0,0,1,1.2-.919,4.378,4.378,0,0,1,1.743-.333,3.459,3.459,0,0,1,2.325.736,2.575,2.575,0,0,1,.861,2.069v3.435a3.789,3.789,0,0,0,.315,1.707V0Zm-1.75-1.472a1.823,1.823,0,0,0,.864-.209,1.371,1.371,0,0,0,.586-.56V-3.6h-.791q-1.589,0-1.692,1.1l-.007.125a.847.847,0,0,0,.278.652A1.081,1.081,0,0,0,13.975-1.472Zm9.492-.718a.682.682,0,0,0-.385-.612,4.368,4.368,0,0,0-1.234-.4q-2.827-.593-2.827-2.4A2.178,2.178,0,0,1,19.9-7.365a3.531,3.531,0,0,1,2.289-.707,3.8,3.8,0,0,1,2.413.71,2.239,2.239,0,0,1,.9,1.846H23.386a1.024,1.024,0,0,0-.293-.751,1.24,1.24,0,0,0-.916-.3,1.267,1.267,0,0,0-.828.242.763.763,0,0,0-.293.615.652.652,0,0,0,.333.568,3.428,3.428,0,0,0,1.124.374,9.183,9.183,0,0,1,1.333.355,2.19,2.19,0,0,1,1.677,2.131,2.067,2.067,0,0,1-.93,1.754,4.013,4.013,0,0,1-2.4.67,4.191,4.191,0,0,1-1.769-.355,2.968,2.968,0,0,1-1.212-.974,2.263,2.263,0,0,1-.439-1.337h2.007a1.105,1.105,0,0,0,.417.864,1.656,1.656,0,0,0,1.04.3,1.533,1.533,0,0,0,.919-.231A.718.718,0,0,0,23.467-2.19ZM30.535.146A3.89,3.89,0,0,1,27.7-.923,3.8,3.8,0,0,1,26.6-3.772v-.205a4.787,4.787,0,0,1,.461-2.135,3.386,3.386,0,0,1,1.307-1.45,3.669,3.669,0,0,1,1.93-.509,3.289,3.289,0,0,1,2.56,1.025,4.167,4.167,0,0,1,.934,2.908v.864H28.748a1.966,1.966,0,0,0,.619,1.245,1.871,1.871,0,0,0,1.307.469,2.285,2.285,0,0,0,1.912-.886l1.04,1.165A3.178,3.178,0,0,1,32.336-.231,4.229,4.229,0,0,1,30.535.146Zm-.242-6.5a1.326,1.326,0,0,0-1.022.425,2.195,2.195,0,0,0-.5,1.216h2.944v-.168a1.565,1.565,0,0,0-.381-1.088A1.368,1.368,0,0,0,30.293-6.357Zm9.155.417A5.75,5.75,0,0,0,38.687-6a1.55,1.55,0,0,0-1.575.813V0H35V-7.925h2l.059.945a1.961,1.961,0,0,1,1.765-1.091,2.218,2.218,0,0,1,.659.1ZM44.839,0a2.351,2.351,0,0,1-.212-.71,2.561,2.561,0,0,1-2,.857A2.814,2.814,0,0,1,40.7-.527a2.167,2.167,0,0,1-.765-1.7,2.24,2.24,0,0,1,.934-1.934,4.608,4.608,0,0,1,2.7-.681h.974V-5.3a1.306,1.306,0,0,0-.282-.879,1.109,1.109,0,0,0-.89-.33,1.261,1.261,0,0,0-.839.256.871.871,0,0,0-.3.7H40.107a2.126,2.126,0,0,1,.425-1.274,2.808,2.808,0,0,1,1.2-.919,4.378,4.378,0,0,1,1.743-.333,3.459,3.459,0,0,1,2.325.736,2.575,2.575,0,0,1,.861,2.069v3.435a3.789,3.789,0,0,0,.315,1.707V0Zm-1.75-1.472a1.823,1.823,0,0,0,.864-.209,1.371,1.371,0,0,0,.586-.56V-3.6h-.791q-1.589,0-1.692,1.1l-.007.125a.847.847,0,0,0,.278.652A1.081,1.081,0,0,0,43.088-1.472Z" transform="translate(-4303.094 4093.292) rotate(-90)" fill="#0c1d2f"/>
      <path id="Trazado_881799" data-name="Trazado 881799" d="M8.643-3.73A1.5,1.5,0,0,0,8.057-5a7.685,7.685,0,0,0-2.109-.937,14.953,14.953,0,0,1-2.412-.972,3.941,3.941,0,0,1-2.422-3.525A3.434,3.434,0,0,1,1.763-12.5a4.236,4.236,0,0,1,1.865-1.411,7.02,7.02,0,0,1,2.729-.508,6.39,6.39,0,0,1,2.715.552A4.323,4.323,0,0,1,10.923-12.3a4.076,4.076,0,0,1,.659,2.285H8.652a1.917,1.917,0,0,0-.615-1.519,2.529,2.529,0,0,0-1.729-.542,2.7,2.7,0,0,0-1.67.454,1.432,1.432,0,0,0-.6,1.2,1.372,1.372,0,0,0,.7,1.162A7.889,7.889,0,0,0,6.8-8.389a8.882,8.882,0,0,1,3.643,1.865A3.715,3.715,0,0,1,11.582-3.75a3.422,3.422,0,0,1-1.4,2.9A6.113,6.113,0,0,1,6.426.2a7.26,7.26,0,0,1-2.988-.6A4.729,4.729,0,0,1,1.382-2.051,4.214,4.214,0,0,1,.674-4.473H3.613q0,2.354,2.813,2.354a2.736,2.736,0,0,0,1.631-.425A1.382,1.382,0,0,0,8.643-3.73Zm4.883,2.344a1.421,1.421,0,0,1,.454-1.094,1.611,1.611,0,0,1,1.138-.42,1.624,1.624,0,0,1,1.147.42,1.421,1.421,0,0,1,.454,1.094A1.4,1.4,0,0,1,16.27-.308a1.631,1.631,0,0,1-1.152.415,1.618,1.618,0,0,1-1.143-.415A1.4,1.4,0,0,1,13.525-1.387ZM30.947,0h-2.93V-6.094H22.3V0h-2.93V-14.219H22.3v5.762h5.713v-5.762h2.93Zm2.52-1.387a1.421,1.421,0,0,1,.454-1.094,1.611,1.611,0,0,1,1.138-.42,1.624,1.624,0,0,1,1.147.42,1.421,1.421,0,0,1,.454,1.094,1.4,1.4,0,0,1-.449,1.079,1.631,1.631,0,0,1-1.152.415,1.618,1.618,0,0,1-1.143-.415A1.4,1.4,0,0,1,33.467-1.387Z" transform="translate(-4330.72 3998.545) rotate(-90)" fill="#0c1d2f"/>
      <path id="Trazado_881800" data-name="Trazado 881800" d="M5.1-14.219,8.75-3.906l3.633-10.312H16.23V0H13.291V-3.887l.293-6.709L9.746,0H7.734L3.906-10.586l.293,6.7V0H1.27V-14.219ZM24.727,0a3.134,3.134,0,0,1-.283-.947A3.415,3.415,0,0,1,21.777.2,3.752,3.752,0,0,1,19.2-.7a2.89,2.89,0,0,1-1.021-2.266,2.986,2.986,0,0,1,1.245-2.578,6.144,6.144,0,0,1,3.6-.908h1.3v-.605a1.741,1.741,0,0,0-.376-1.172,1.479,1.479,0,0,0-1.187-.439,1.682,1.682,0,0,0-1.118.342,1.161,1.161,0,0,0-.405.938H18.418a2.835,2.835,0,0,1,.566-1.7,3.744,3.744,0,0,1,1.6-1.226,5.837,5.837,0,0,1,2.324-.444,4.611,4.611,0,0,1,3.1.981,3.433,3.433,0,0,1,1.147,2.759v4.58a5.052,5.052,0,0,0,.42,2.275V0ZM22.393-1.963a2.431,2.431,0,0,0,1.152-.278,1.828,1.828,0,0,0,.781-.747V-4.8H23.271q-2.119,0-2.256,1.465l-.01.166a1.13,1.13,0,0,0,.371.869A1.441,1.441,0,0,0,22.393-1.963Zm9.531-8.6.088,1.221a3.689,3.689,0,0,1,3.037-1.416,3.066,3.066,0,0,1,2.5.986,4.6,4.6,0,0,1,.84,2.949V0H35.566V-6.758a1.831,1.831,0,0,0-.391-1.3,1.749,1.749,0,0,0-1.3-.405A1.942,1.942,0,0,0,32.09-7.451V0H29.268V-10.566Zm8.193,5.205a6.193,6.193,0,0,1,1.157-3.916,3.75,3.75,0,0,1,3.12-1.484A3.289,3.289,0,0,1,47.1-9.57l.117-1h2.559V-.352a4.516,4.516,0,0,1-.63,2.412,4.045,4.045,0,0,1-1.772,1.563A6.231,6.231,0,0,1,44.7,4.16,5.794,5.794,0,0,1,42.432,3.7a4.021,4.021,0,0,1-1.67-1.2L42.012.781A3.306,3.306,0,0,0,44.57,1.963a2.42,2.42,0,0,0,1.748-.6,2.253,2.253,0,0,0,.625-1.7V-.908A3.264,3.264,0,0,1,44.375.2a3.74,3.74,0,0,1-3.081-1.489,6.191,6.191,0,0,1-1.177-3.95Zm2.822.205a3.846,3.846,0,0,0,.576,2.251A1.834,1.834,0,0,0,45.1-2.09a1.961,1.961,0,0,0,1.846-.967V-7.5a1.956,1.956,0,0,0-1.826-.967,1.845,1.845,0,0,0-1.6.83A4.334,4.334,0,0,0,42.939-5.156ZM58.066,0a3.134,3.134,0,0,1-.283-.947A3.415,3.415,0,0,1,55.117.2a3.752,3.752,0,0,1-2.573-.9,2.89,2.89,0,0,1-1.021-2.266,2.986,2.986,0,0,1,1.245-2.578,6.144,6.144,0,0,1,3.6-.908h1.3v-.605a1.741,1.741,0,0,0-.376-1.172A1.479,1.479,0,0,0,56.1-8.672a1.682,1.682,0,0,0-1.118.342,1.161,1.161,0,0,0-.405.938H51.758a2.835,2.835,0,0,1,.566-1.7,3.744,3.744,0,0,1,1.6-1.226,5.837,5.837,0,0,1,2.324-.444,4.611,4.611,0,0,1,3.1.981A3.433,3.433,0,0,1,60.5-7.021v4.58a5.052,5.052,0,0,0,.42,2.275V0ZM55.732-1.963a2.431,2.431,0,0,0,1.152-.278,1.828,1.828,0,0,0,.781-.747V-4.8H56.611q-2.119,0-2.256,1.465l-.01.166a1.13,1.13,0,0,0,.371.869A1.441,1.441,0,0,0,55.732-1.963Z" transform="translate(-4052.081 3916.008) rotate(-90)" fill="#0c1d2f"/>
      <path id="Trazado_881801" data-name="Trazado 881801" d="M9.324-3.552A3.774,3.774,0,0,1,8.053-.842,4.463,4.463,0,0,1,5.032.146,4.013,4.013,0,0,1,1.805-1.234,5.661,5.661,0,0,1,.63-5.024v-.652a6.393,6.393,0,0,1,.542-2.71,4.062,4.062,0,0,1,1.549-1.8,4.339,4.339,0,0,1,2.34-.626,4.348,4.348,0,0,1,2.974.989,4.055,4.055,0,0,1,1.3,2.776h-2.2a2.227,2.227,0,0,0-.575-1.5,2.129,2.129,0,0,0-1.505-.465,1.867,1.867,0,0,0-1.644.787,4.413,4.413,0,0,0-.56,2.443v.806A4.723,4.723,0,0,0,3.38-2.446a1.832,1.832,0,0,0,1.652.8,2.169,2.169,0,0,0,1.52-.465,2.1,2.1,0,0,0,.575-1.439ZM10.737-1.04a1.066,1.066,0,0,1,.341-.82,1.208,1.208,0,0,1,.853-.315,1.218,1.218,0,0,1,.861.315,1.066,1.066,0,0,1,.341.82,1.051,1.051,0,0,1-.337.809,1.223,1.223,0,0,1-.864.311,1.213,1.213,0,0,1-.857-.311A1.051,1.051,0,0,1,10.737-1.04ZM23.152-8.884H19.885V0h-2.2V-8.884H14.465v-1.78h8.687ZM34.116-4.622H29.9v2.856h4.951V0H27.7V-10.664h7.134v1.78H29.9v2.542h4.219Zm3.831-3.3.066.916a2.767,2.767,0,0,1,2.278-1.062,2.3,2.3,0,0,1,1.875.74A3.451,3.451,0,0,1,42.8-5.12V0H40.679V-5.068a1.373,1.373,0,0,0-.293-.978,1.312,1.312,0,0,0-.974-.3,1.456,1.456,0,0,0-1.34.762V0H35.955V-7.925Zm8.987-1.948v1.948h1.355v1.553H46.934v3.955a.944.944,0,0,0,.168.63.846.846,0,0,0,.645.19,3.376,3.376,0,0,0,.623-.051v1.6a4.358,4.358,0,0,1-1.282.19A2.021,2.021,0,0,1,44.817-2.1v-4.27H43.66V-7.925h1.157V-9.873ZM53.115.146A3.89,3.89,0,0,1,50.277-.923a3.8,3.8,0,0,1-1.095-2.849v-.205a4.787,4.787,0,0,1,.461-2.135,3.386,3.386,0,0,1,1.307-1.45,3.669,3.669,0,0,1,1.93-.509,3.289,3.289,0,0,1,2.56,1.025,4.167,4.167,0,0,1,.934,2.908v.864H51.328a1.966,1.966,0,0,0,.619,1.245,1.871,1.871,0,0,0,1.307.469,2.285,2.285,0,0,0,1.912-.886l1.04,1.165A3.178,3.178,0,0,1,54.917-.231,4.229,4.229,0,0,1,53.115.146Zm-.242-6.5a1.326,1.326,0,0,0-1.022.425,2.195,2.195,0,0,0-.5,1.216h2.944v-.168a1.565,1.565,0,0,0-.381-1.088A1.368,1.368,0,0,0,52.874-6.357Zm9.155.417A5.75,5.75,0,0,0,61.267-6a1.55,1.55,0,0,0-1.575.813V0H57.576V-7.925h2l.059.945A1.961,1.961,0,0,1,61.4-8.071a2.218,2.218,0,0,1,.659.1Zm.29,1.9a4.7,4.7,0,0,1,.454-2.1A3.324,3.324,0,0,1,64.08-7.566a3.814,3.814,0,0,1,1.981-.505,3.609,3.609,0,0,1,2.618.981,3.939,3.939,0,0,1,1.132,2.666l.015.542A4.142,4.142,0,0,1,68.808-.956a3.539,3.539,0,0,1-2.732,1.1,3.556,3.556,0,0,1-2.736-1.1A4.215,4.215,0,0,1,62.319-3.94Zm2.117.154a2.954,2.954,0,0,0,.425,1.725,1.4,1.4,0,0,0,1.216.6,1.405,1.405,0,0,0,1.2-.59,3.233,3.233,0,0,0,.432-1.886,2.925,2.925,0,0,0-.432-1.714,1.405,1.405,0,0,0-1.216-.608,1.382,1.382,0,0,0-1.2.6A3.287,3.287,0,0,0,64.435-3.882Z" transform="translate(-4424.096 3801.872)" fill="#0c1d2f"/>
      <path id="Trazado_881802" data-name="Trazado 881802" d="M8.643-3.73A1.5,1.5,0,0,0,8.057-5a7.685,7.685,0,0,0-2.109-.937,14.953,14.953,0,0,1-2.412-.972,3.941,3.941,0,0,1-2.422-3.525A3.434,3.434,0,0,1,1.763-12.5a4.236,4.236,0,0,1,1.865-1.411,7.02,7.02,0,0,1,2.729-.508,6.39,6.39,0,0,1,2.715.552A4.323,4.323,0,0,1,10.923-12.3a4.076,4.076,0,0,1,.659,2.285H8.652a1.917,1.917,0,0,0-.615-1.519,2.529,2.529,0,0,0-1.729-.542,2.7,2.7,0,0,0-1.67.454,1.432,1.432,0,0,0-.6,1.2,1.372,1.372,0,0,0,.7,1.162A7.889,7.889,0,0,0,6.8-8.389a8.882,8.882,0,0,1,3.643,1.865A3.715,3.715,0,0,1,11.582-3.75a3.422,3.422,0,0,1-1.4,2.9A6.113,6.113,0,0,1,6.426.2a7.26,7.26,0,0,1-2.988-.6A4.729,4.729,0,0,1,1.382-2.051,4.214,4.214,0,0,1,.674-4.473H3.613q0,2.354,2.813,2.354a2.736,2.736,0,0,0,1.631-.425A1.382,1.382,0,0,0,8.643-3.73Zm4.883,2.344a1.421,1.421,0,0,1,.454-1.094,1.611,1.611,0,0,1,1.138-.42,1.624,1.624,0,0,1,1.147.42,1.421,1.421,0,0,1,.454,1.094A1.4,1.4,0,0,1,16.27-.308a1.631,1.631,0,0,1-1.152.415,1.618,1.618,0,0,1-1.143-.415A1.4,1.4,0,0,1,13.525-1.387ZM30.947,0h-2.93V-6.094H22.3V0h-2.93V-14.219H22.3v5.762h5.713v-5.762h2.93Zm2.52-1.387a1.421,1.421,0,0,1,.454-1.094,1.611,1.611,0,0,1,1.138-.42,1.624,1.624,0,0,1,1.147.42,1.421,1.421,0,0,1,.454,1.094,1.4,1.4,0,0,1-.449,1.079,1.631,1.631,0,0,1-1.152.415,1.618,1.618,0,0,1-1.143-.415A1.4,1.4,0,0,1,33.467-1.387Z" transform="translate(-4326.139 3833.477) rotate(-90)" fill="#0c1d2f"/>
      <path id="Trazado_881803" data-name="Trazado 881803" d="M12.432-4.736a5.031,5.031,0,0,1-1.694,3.613A5.951,5.951,0,0,1,6.709.2a5.351,5.351,0,0,1-4.3-1.841A7.548,7.548,0,0,1,.84-6.7v-.869a8.523,8.523,0,0,1,.723-3.613,5.416,5.416,0,0,1,2.065-2.4,5.786,5.786,0,0,1,3.12-.835A5.8,5.8,0,0,1,10.713-13.1a5.407,5.407,0,0,1,1.738,3.7H9.521a2.97,2.97,0,0,0-.767-2,2.839,2.839,0,0,0-2.007-.62,2.489,2.489,0,0,0-2.192,1.05,5.883,5.883,0,0,0-.747,3.257v1.074a6.3,6.3,0,0,0,.7,3.369A2.443,2.443,0,0,0,6.709-2.2a2.892,2.892,0,0,0,2.026-.62A2.8,2.8,0,0,0,9.5-4.736Zm1.885,3.35a1.421,1.421,0,0,1,.454-1.094,1.611,1.611,0,0,1,1.138-.42,1.624,1.624,0,0,1,1.147.42,1.421,1.421,0,0,1,.454,1.094,1.4,1.4,0,0,1-.449,1.079,1.631,1.631,0,0,1-1.152.415,1.618,1.618,0,0,1-1.143-.415A1.4,1.4,0,0,1,14.316-1.387ZM20.166,0V-14.219h4.375a6.644,6.644,0,0,1,3.354.845,5.89,5.89,0,0,1,2.31,2.4,7.41,7.41,0,0,1,.83,3.54v.654a7.431,7.431,0,0,1-.815,3.525,5.84,5.84,0,0,1-2.3,2.393A6.694,6.694,0,0,1,24.57,0ZM23.1-11.846v9.492h1.416a3.181,3.181,0,0,0,2.627-1.123,5.075,5.075,0,0,0,.928-3.213v-.752a5.156,5.156,0,0,0-.9-3.286,3.171,3.171,0,0,0-2.627-1.118ZM37.842.2A5.187,5.187,0,0,1,34.058-1.23a5.068,5.068,0,0,1-1.46-3.8V-5.3a6.383,6.383,0,0,1,.615-2.847,4.515,4.515,0,0,1,1.743-1.934,4.893,4.893,0,0,1,2.573-.679,4.385,4.385,0,0,1,3.413,1.367,5.555,5.555,0,0,1,1.245,3.877v1.152H35.459a2.622,2.622,0,0,0,.825,1.66,2.5,2.5,0,0,0,1.743.625,3.046,3.046,0,0,0,2.549-1.182l1.387,1.553a4.237,4.237,0,0,1-1.719,1.4A5.639,5.639,0,0,1,37.842.2ZM37.52-8.477a1.767,1.767,0,0,0-1.362.566,2.926,2.926,0,0,0-.669,1.621h3.926v-.225a2.086,2.086,0,0,0-.508-1.45A1.824,1.824,0,0,0,37.52-8.477Zm9.648-4.687v2.6h1.807V-8.5H47.168v5.273a1.259,1.259,0,0,0,.225.84,1.128,1.128,0,0,0,.859.254,4.5,4.5,0,0,0,.83-.068V-.059A5.81,5.81,0,0,1,47.373.2q-2.969,0-3.027-3V-8.5H42.8v-2.07h1.543v-2.6ZM50.693-1.387a1.421,1.421,0,0,1,.454-1.094,1.611,1.611,0,0,1,1.138-.42,1.624,1.624,0,0,1,1.147.42,1.421,1.421,0,0,1,.454,1.094,1.4,1.4,0,0,1-.449,1.079,1.631,1.631,0,0,1-1.152.415,1.618,1.618,0,0,1-1.143-.415A1.4,1.4,0,0,1,50.693-1.387ZM66.826-4.951h-5.5V-7.227h5.5Zm14.8,1.221A1.5,1.5,0,0,0,81.045-5a7.685,7.685,0,0,0-2.109-.937,14.953,14.953,0,0,1-2.412-.972A3.941,3.941,0,0,1,74.1-10.439a3.434,3.434,0,0,1,.649-2.056,4.236,4.236,0,0,1,1.865-1.411,7.02,7.02,0,0,1,2.729-.508,6.39,6.39,0,0,1,2.715.552A4.323,4.323,0,0,1,83.911-12.3a4.076,4.076,0,0,1,.659,2.285h-2.93a1.917,1.917,0,0,0-.615-1.519A2.529,2.529,0,0,0,79.3-12.08a2.7,2.7,0,0,0-1.67.454,1.432,1.432,0,0,0-.6,1.2,1.372,1.372,0,0,0,.7,1.162,7.889,7.889,0,0,0,2.056.879,8.882,8.882,0,0,1,3.643,1.865A3.715,3.715,0,0,1,84.57-3.75a3.422,3.422,0,0,1-1.4,2.9A6.113,6.113,0,0,1,79.414.2a7.26,7.26,0,0,1-2.988-.6A4.729,4.729,0,0,1,74.37-2.051a4.214,4.214,0,0,1-.708-2.422H76.6q0,2.354,2.813,2.354a2.736,2.736,0,0,0,1.631-.425A1.382,1.382,0,0,0,81.631-3.73Zm4.883,2.344a1.421,1.421,0,0,1,.454-1.094,1.611,1.611,0,0,1,1.138-.42,1.624,1.624,0,0,1,1.147.42,1.421,1.421,0,0,1,.454,1.094,1.4,1.4,0,0,1-.449,1.079,1.631,1.631,0,0,1-1.152.415,1.618,1.618,0,0,1-1.143-.415A1.4,1.4,0,0,1,86.514-1.387ZM103.936,0h-2.93V-6.094H95.293V0h-2.93V-14.219h2.93v5.762h5.713v-5.762h2.93Zm2.52-1.387a1.421,1.421,0,0,1,.454-1.094,1.611,1.611,0,0,1,1.138-.42,1.624,1.624,0,0,1,1.147.42,1.421,1.421,0,0,1,.454,1.094A1.4,1.4,0,0,1,109.2-.308a1.631,1.631,0,0,1-1.152.415A1.618,1.618,0,0,1,106.9-.308,1.4,1.4,0,0,1,106.455-1.387Z" transform="translate(-4205.094 4030.677) rotate(-90)" fill="#0c1d2f"/>
      <path id="Trazado_881804" data-name="Trazado 881804" d="M12.432-4.736a5.031,5.031,0,0,1-1.694,3.613A5.951,5.951,0,0,1,6.709.2a5.351,5.351,0,0,1-4.3-1.841A7.548,7.548,0,0,1,.84-6.7v-.869a8.523,8.523,0,0,1,.723-3.613,5.416,5.416,0,0,1,2.065-2.4,5.786,5.786,0,0,1,3.12-.835A5.8,5.8,0,0,1,10.713-13.1a5.407,5.407,0,0,1,1.738,3.7H9.521a2.97,2.97,0,0,0-.767-2,2.839,2.839,0,0,0-2.007-.62,2.489,2.489,0,0,0-2.192,1.05,5.883,5.883,0,0,0-.747,3.257v1.074a6.3,6.3,0,0,0,.7,3.369A2.443,2.443,0,0,0,6.709-2.2a2.892,2.892,0,0,0,2.026-.62A2.8,2.8,0,0,0,9.5-4.736Zm1.885,3.35a1.421,1.421,0,0,1,.454-1.094,1.611,1.611,0,0,1,1.138-.42,1.624,1.624,0,0,1,1.147.42,1.421,1.421,0,0,1,.454,1.094,1.4,1.4,0,0,1-.449,1.079,1.631,1.631,0,0,1-1.152.415,1.618,1.618,0,0,1-1.143-.415A1.4,1.4,0,0,1,14.316-1.387Zm5.225-3.975A6.368,6.368,0,0,1,20.649-9.3a3.6,3.6,0,0,1,3.032-1.465A3.236,3.236,0,0,1,26.23-9.609V-15h2.832V0H26.514l-.137-1.123A3.321,3.321,0,0,1,23.662.2a3.587,3.587,0,0,1-2.993-1.47A6.573,6.573,0,0,1,19.541-5.361Zm2.822.205a4.16,4.16,0,0,0,.518,2.275,1.687,1.687,0,0,0,1.5.791,1.889,1.889,0,0,0,1.846-1.1v-4.17a1.862,1.862,0,0,0-1.826-1.1Q22.363-8.467,22.363-5.156ZM36.113.2A5.187,5.187,0,0,1,32.329-1.23a5.068,5.068,0,0,1-1.46-3.8V-5.3a6.383,6.383,0,0,1,.615-2.847,4.515,4.515,0,0,1,1.743-1.934,4.893,4.893,0,0,1,2.573-.679,4.385,4.385,0,0,1,3.413,1.367,5.555,5.555,0,0,1,1.245,3.877v1.152H33.73a2.622,2.622,0,0,0,.825,1.66A2.5,2.5,0,0,0,36.3-2.08a3.046,3.046,0,0,0,2.549-1.182l1.387,1.553a4.237,4.237,0,0,1-1.719,1.4A5.639,5.639,0,0,1,36.113.2Zm-.322-8.672a1.767,1.767,0,0,0-1.362.566,2.926,2.926,0,0,0-.669,1.621h3.926v-.225a2.086,2.086,0,0,0-.508-1.45A1.824,1.824,0,0,0,35.791-8.477ZM45.039,0H42.207V-15h2.832ZM47.51-1.387a1.421,1.421,0,0,1,.454-1.094A1.611,1.611,0,0,1,49.1-2.9a1.624,1.624,0,0,1,1.147.42A1.421,1.421,0,0,1,50.7-1.387a1.4,1.4,0,0,1-.449,1.079A1.631,1.631,0,0,1,49.1.107a1.618,1.618,0,0,1-1.143-.415A1.4,1.4,0,0,1,47.51-1.387ZM63.643-4.951h-5.5V-7.227h5.5Zm14.8,1.221A1.5,1.5,0,0,0,77.861-5a7.685,7.685,0,0,0-2.109-.937,14.953,14.953,0,0,1-2.412-.972,3.941,3.941,0,0,1-2.422-3.525,3.434,3.434,0,0,1,.649-2.056,4.236,4.236,0,0,1,1.865-1.411,7.02,7.02,0,0,1,2.729-.508,6.39,6.39,0,0,1,2.715.552A4.323,4.323,0,0,1,80.728-12.3a4.076,4.076,0,0,1,.659,2.285h-2.93a1.917,1.917,0,0,0-.615-1.519,2.529,2.529,0,0,0-1.729-.542,2.7,2.7,0,0,0-1.67.454,1.432,1.432,0,0,0-.6,1.2,1.372,1.372,0,0,0,.7,1.162,7.889,7.889,0,0,0,2.056.879,8.882,8.882,0,0,1,3.643,1.865A3.715,3.715,0,0,1,81.387-3.75a3.422,3.422,0,0,1-1.4,2.9A6.113,6.113,0,0,1,76.23.2a7.26,7.26,0,0,1-2.988-.6,4.729,4.729,0,0,1-2.056-1.646,4.214,4.214,0,0,1-.708-2.422h2.939q0,2.354,2.813,2.354a2.736,2.736,0,0,0,1.631-.425A1.382,1.382,0,0,0,78.447-3.73ZM83.33-1.387a1.421,1.421,0,0,1,.454-1.094,1.611,1.611,0,0,1,1.138-.42,1.624,1.624,0,0,1,1.147.42,1.421,1.421,0,0,1,.454,1.094,1.4,1.4,0,0,1-.449,1.079,1.631,1.631,0,0,1-1.152.415,1.618,1.618,0,0,1-1.143-.415A1.4,1.4,0,0,1,83.33-1.387ZM100.752,0h-2.93V-6.094H92.109V0H89.18V-14.219h2.93v5.762h5.713v-5.762h2.93Zm2.52-1.387a1.421,1.421,0,0,1,.454-1.094,1.611,1.611,0,0,1,1.138-.42,1.624,1.624,0,0,1,1.147.42,1.421,1.421,0,0,1,.454,1.094,1.4,1.4,0,0,1-.449,1.079,1.631,1.631,0,0,1-1.152.415,1.618,1.618,0,0,1-1.143-.415A1.4,1.4,0,0,1,103.271-1.387Z" transform="translate(-4523.327 3999.827) rotate(-90)" fill="#0c1d2f"/>
      <path id="Trazado_881805" data-name="Trazado 881805" d="M4.063,0H1.23V-15H4.063Zm5.3,0H6.533V-10.566H9.365Zm-3-13.3a1.39,1.39,0,0,1,.425-1.045,1.6,1.6,0,0,1,1.157-.41,1.6,1.6,0,0,1,1.152.41,1.382,1.382,0,0,1,.43,1.045A1.386,1.386,0,0,1,9.1-12.246a1.6,1.6,0,0,1-1.147.41,1.6,1.6,0,0,1-1.147-.41A1.386,1.386,0,0,1,6.367-13.3Zm7.92,2.734.088,1.221a3.689,3.689,0,0,1,3.037-1.416,3.066,3.066,0,0,1,2.5.986,4.6,4.6,0,0,1,.84,2.949V0H17.93V-6.758a1.831,1.831,0,0,0-.391-1.3,1.749,1.749,0,0,0-1.3-.405,1.942,1.942,0,0,0-1.787,1.016V0H11.631V-10.566ZM27.754.2A5.187,5.187,0,0,1,23.97-1.23a5.068,5.068,0,0,1-1.46-3.8V-5.3a6.383,6.383,0,0,1,.615-2.847,4.515,4.515,0,0,1,1.743-1.934,4.893,4.893,0,0,1,2.573-.679,4.385,4.385,0,0,1,3.413,1.367A5.555,5.555,0,0,1,32.1-5.518v1.152H25.371a2.622,2.622,0,0,0,.825,1.66,2.5,2.5,0,0,0,1.743.625,3.046,3.046,0,0,0,2.549-1.182l1.387,1.553a4.237,4.237,0,0,1-1.719,1.4A5.639,5.639,0,0,1,27.754.2Zm-.322-8.672a1.767,1.767,0,0,0-1.362.566A2.926,2.926,0,0,0,25.4-6.289h3.926v-.225a2.086,2.086,0,0,0-.508-1.45A1.824,1.824,0,0,0,27.432-8.477ZM39.824,0a3.134,3.134,0,0,1-.283-.947A3.415,3.415,0,0,1,36.875.2,3.752,3.752,0,0,1,34.3-.7a2.89,2.89,0,0,1-1.021-2.266,2.986,2.986,0,0,1,1.245-2.578,6.144,6.144,0,0,1,3.6-.908h1.3v-.605a1.741,1.741,0,0,0-.376-1.172,1.479,1.479,0,0,0-1.187-.439,1.682,1.682,0,0,0-1.118.342,1.161,1.161,0,0,0-.405.938H33.516a2.835,2.835,0,0,1,.566-1.7,3.744,3.744,0,0,1,1.6-1.226,5.837,5.837,0,0,1,2.324-.444,4.611,4.611,0,0,1,3.1.981,3.433,3.433,0,0,1,1.147,2.759v4.58a5.052,5.052,0,0,0,.42,2.275V0ZM37.49-1.963a2.431,2.431,0,0,0,1.152-.278,1.828,1.828,0,0,0,.781-.747V-4.8H38.369q-2.119,0-2.256,1.465l-.01.166a1.13,1.13,0,0,0,.371.869A1.441,1.441,0,0,0,37.49-1.963Zm11.475-3.4A6.368,6.368,0,0,1,50.073-9.3a3.6,3.6,0,0,1,3.032-1.465,3.236,3.236,0,0,1,2.549,1.152V-15h2.832V0H55.938L55.8-1.123A3.321,3.321,0,0,1,53.086.2a3.587,3.587,0,0,1-2.993-1.47A6.573,6.573,0,0,1,48.965-5.361Zm2.822.205A4.16,4.16,0,0,0,52.3-2.881a1.687,1.687,0,0,0,1.5.791,1.889,1.889,0,0,0,1.846-1.1v-4.17a1.862,1.862,0,0,0-1.826-1.1Q51.787-8.467,51.787-5.156ZM65.537.2A5.187,5.187,0,0,1,61.753-1.23a5.068,5.068,0,0,1-1.46-3.8V-5.3a6.383,6.383,0,0,1,.615-2.847,4.515,4.515,0,0,1,1.743-1.934,4.893,4.893,0,0,1,2.573-.679,4.385,4.385,0,0,1,3.413,1.367,5.555,5.555,0,0,1,1.245,3.877v1.152H63.154a2.622,2.622,0,0,0,.825,1.66,2.5,2.5,0,0,0,1.743.625,3.046,3.046,0,0,0,2.549-1.182l1.387,1.553a4.237,4.237,0,0,1-1.719,1.4A5.639,5.639,0,0,1,65.537.2Zm-.322-8.672a1.767,1.767,0,0,0-1.362.566,2.926,2.926,0,0,0-.669,1.621h3.926v-.225a2.086,2.086,0,0,0-.508-1.45A1.824,1.824,0,0,0,65.215-8.477ZM74.463,0H71.631V-15h2.832Zm2.471-1.387a1.421,1.421,0,0,1,.454-1.094,1.611,1.611,0,0,1,1.138-.42,1.624,1.624,0,0,1,1.147.42,1.421,1.421,0,0,1,.454,1.094,1.4,1.4,0,0,1-.449,1.079,1.631,1.631,0,0,1-1.152.415,1.618,1.618,0,0,1-1.143-.415A1.4,1.4,0,0,1,76.934-1.387ZM90.557,0H87.725V-10.566h2.832Zm-3-13.3a1.39,1.39,0,0,1,.425-1.045,1.6,1.6,0,0,1,1.157-.41,1.6,1.6,0,0,1,1.152.41,1.382,1.382,0,0,1,.43,1.045,1.386,1.386,0,0,1-.435,1.055,1.6,1.6,0,0,1-1.147.41,1.6,1.6,0,0,1-1.147-.41A1.386,1.386,0,0,1,87.559-13.3ZM96.123-2.275h5.166V0H92.52V-1.719L97.49-8.281H92.666v-2.285h8.467V-8.9Zm15.859-1.719,1.953-6.572h3.027L112.715,1.641l-.234.557a3.221,3.221,0,0,1-3.125,2.07,4.441,4.441,0,0,1-1.25-.186V1.943l.43.01a2.322,2.322,0,0,0,1.2-.244,1.6,1.6,0,0,0,.62-.811l.332-.869-3.7-10.6h3.037ZM127.92.2a5.187,5.187,0,0,1-3.784-1.426,5.068,5.068,0,0,1-1.46-3.8V-5.3a6.383,6.383,0,0,1,.615-2.847,4.515,4.515,0,0,1,1.743-1.934,4.893,4.893,0,0,1,2.573-.679,4.385,4.385,0,0,1,3.413,1.367,5.555,5.555,0,0,1,1.245,3.877v1.152h-6.729a2.622,2.622,0,0,0,.825,1.66,2.5,2.5,0,0,0,1.743.625,3.046,3.046,0,0,0,2.549-1.182l1.387,1.553a4.237,4.237,0,0,1-1.719,1.4A5.639,5.639,0,0,1,127.92.2ZM127.6-8.477a1.767,1.767,0,0,0-1.362.566,2.926,2.926,0,0,0-.669,1.621h3.926v-.225a2.086,2.086,0,0,0-.508-1.45A1.824,1.824,0,0,0,127.6-8.477Zm8.867-2.09.088,1.221a3.689,3.689,0,0,1,3.037-1.416,3.066,3.066,0,0,1,2.5.986,4.6,4.6,0,0,1,.84,2.949V0h-2.822V-6.758a1.831,1.831,0,0,0-.391-1.3,1.749,1.749,0,0,0-1.3-.405,1.942,1.942,0,0,0-1.787,1.016V0h-2.822V-10.566Zm11.982-2.6v2.6h1.807V-8.5h-1.807v5.273a1.259,1.259,0,0,0,.225.84,1.128,1.128,0,0,0,.859.254,4.5,4.5,0,0,0,.83-.068V-.059A5.81,5.81,0,0,1,148.652.2q-2.969,0-3.027-3V-8.5h-1.543v-2.07h1.543v-2.6Zm9.316,5.244A7.667,7.667,0,0,0,156.748-8a2.067,2.067,0,0,0-2.1,1.084V0h-2.822V-10.566h2.666l.078,1.26a2.615,2.615,0,0,1,2.354-1.455,2.957,2.957,0,0,1,.879.127ZM163.844.2A5.187,5.187,0,0,1,160.06-1.23a5.068,5.068,0,0,1-1.46-3.8V-5.3a6.383,6.383,0,0,1,.615-2.847,4.515,4.515,0,0,1,1.743-1.934,4.893,4.893,0,0,1,2.573-.679,4.385,4.385,0,0,1,3.413,1.367,5.555,5.555,0,0,1,1.245,3.877v1.152h-6.729a2.622,2.622,0,0,0,.825,1.66,2.5,2.5,0,0,0,1.743.625,3.046,3.046,0,0,0,2.549-1.182l1.387,1.553a4.237,4.237,0,0,1-1.719,1.4A5.639,5.639,0,0,1,163.844.2Zm-.322-8.672a1.767,1.767,0,0,0-1.362.566,2.926,2.926,0,0,0-.669,1.621h3.926v-.225a2.086,2.086,0,0,0-.508-1.45A1.824,1.824,0,0,0,163.522-8.477Zm9.648-4.687v2.6h1.807V-8.5h-1.807v5.273a1.259,1.259,0,0,0,.225.84,1.128,1.128,0,0,0,.859.254,4.5,4.5,0,0,0,.83-.068V-.059A5.81,5.81,0,0,1,173.376.2q-2.969,0-3.027-3V-8.5h-1.543v-2.07h1.543v-2.6ZM181.413.2a5.187,5.187,0,0,1-3.784-1.426,5.068,5.068,0,0,1-1.46-3.8V-5.3a6.383,6.383,0,0,1,.615-2.847,4.515,4.515,0,0,1,1.743-1.934,4.893,4.893,0,0,1,2.573-.679,4.385,4.385,0,0,1,3.413,1.367,5.555,5.555,0,0,1,1.245,3.877v1.152H179.03a2.622,2.622,0,0,0,.825,1.66,2.5,2.5,0,0,0,1.743.625,3.046,3.046,0,0,0,2.549-1.182l1.387,1.553a4.237,4.237,0,0,1-1.719,1.4A5.639,5.639,0,0,1,181.413.2Zm-.322-8.672a1.767,1.767,0,0,0-1.362.566,2.926,2.926,0,0,0-.669,1.621h3.926v-.225a2.086,2.086,0,0,0-.508-1.45A1.824,1.824,0,0,0,181.09-8.477ZM190.339,0h-2.832V-15h2.832Zm8.447,0a3.134,3.134,0,0,1-.283-.947A3.415,3.415,0,0,1,195.837.2a3.752,3.752,0,0,1-2.573-.9,2.889,2.889,0,0,1-1.021-2.266,2.986,2.986,0,0,1,1.245-2.578,6.144,6.144,0,0,1,3.6-.908h1.3v-.605a1.741,1.741,0,0,0-.376-1.172,1.479,1.479,0,0,0-1.187-.439,1.682,1.682,0,0,0-1.118.342,1.161,1.161,0,0,0-.405.938h-2.822a2.835,2.835,0,0,1,.566-1.7,3.744,3.744,0,0,1,1.6-1.226,5.837,5.837,0,0,1,2.324-.444,4.611,4.611,0,0,1,3.1.981,3.433,3.433,0,0,1,1.147,2.759v4.58a5.052,5.052,0,0,0,.42,2.275V0Zm-2.334-1.963a2.431,2.431,0,0,0,1.152-.278,1.828,1.828,0,0,0,.781-.747V-4.8h-1.055q-2.119,0-2.256,1.465l-.01.166a1.13,1.13,0,0,0,.371.869A1.441,1.441,0,0,0,196.452-1.963Z" transform="translate(-4492.833 4075.014) rotate(-85.816)" fill="#0c1d2f"/>
      <path id="Trazado_881806" data-name="Trazado 881806" d="M4.385,0H1.455V-14.219h2.93ZM9.512-10.566,9.6-9.346a3.689,3.689,0,0,1,3.037-1.416,3.066,3.066,0,0,1,2.5.986,4.6,4.6,0,0,1,.84,2.949V0H13.154V-6.758a1.831,1.831,0,0,0-.391-1.3,1.749,1.749,0,0,0-1.3-.405A1.942,1.942,0,0,0,9.678-7.451V0H6.855V-10.566Zm11.982-2.6v2.6H23.3V-8.5H21.494v5.273a1.259,1.259,0,0,0,.225.84,1.128,1.128,0,0,0,.859.254,4.5,4.5,0,0,0,.83-.068V-.059A5.81,5.81,0,0,1,21.7.2q-2.969,0-3.027-3V-8.5H17.129v-2.07h1.543v-2.6ZM29.736.2A5.187,5.187,0,0,1,25.952-1.23a5.068,5.068,0,0,1-1.46-3.8V-5.3a6.383,6.383,0,0,1,.615-2.847,4.515,4.515,0,0,1,1.743-1.934,4.893,4.893,0,0,1,2.573-.679,4.385,4.385,0,0,1,3.413,1.367,5.555,5.555,0,0,1,1.245,3.877v1.152H27.354a2.622,2.622,0,0,0,.825,1.66,2.5,2.5,0,0,0,1.743.625,3.046,3.046,0,0,0,2.549-1.182l1.387,1.553a4.237,4.237,0,0,1-1.719,1.4A5.639,5.639,0,0,1,29.736.2Zm-.322-8.672a1.767,1.767,0,0,0-1.362.566,2.926,2.926,0,0,0-.669,1.621h3.926v-.225a2.086,2.086,0,0,0-.508-1.45A1.824,1.824,0,0,0,29.414-8.477Zm12.207.557A7.667,7.667,0,0,0,40.605-8a2.067,2.067,0,0,0-2.1,1.084V0H35.684V-10.566H38.35l.078,1.26a2.615,2.615,0,0,1,2.354-1.455,2.957,2.957,0,0,1,.879.127ZM45.957,0H43.125V-10.566h2.832Zm-3-13.3a1.39,1.39,0,0,1,.425-1.045,1.6,1.6,0,0,1,1.157-.41,1.6,1.6,0,0,1,1.152.41,1.382,1.382,0,0,1,.43,1.045,1.386,1.386,0,0,1-.435,1.055,1.6,1.6,0,0,1-1.147.41,1.6,1.6,0,0,1-1.147-.41A1.386,1.386,0,0,1,42.959-13.3Zm4.883,7.92a6.267,6.267,0,0,1,.605-2.8,4.432,4.432,0,0,1,1.743-1.9,5.086,5.086,0,0,1,2.642-.674,4.812,4.812,0,0,1,3.491,1.309A5.252,5.252,0,0,1,57.832-5.9l.02.723a5.523,5.523,0,0,1-1.357,3.9A4.718,4.718,0,0,1,52.852.2,4.742,4.742,0,0,1,49.2-1.27a5.62,5.62,0,0,1-1.362-3.984Zm2.822.205a3.939,3.939,0,0,0,.566,2.3,1.869,1.869,0,0,0,1.621.8,1.874,1.874,0,0,0,1.6-.786,4.31,4.31,0,0,0,.576-2.515,3.9,3.9,0,0,0-.576-2.285,1.874,1.874,0,0,0-1.621-.811,1.843,1.843,0,0,0-1.6.806A4.383,4.383,0,0,0,50.664-5.176ZM65.527-7.92A7.667,7.667,0,0,0,64.512-8a2.067,2.067,0,0,0-2.1,1.084V0H59.59V-10.566h2.666l.078,1.26a2.615,2.615,0,0,1,2.354-1.455,2.957,2.957,0,0,1,.879.127Z" transform="translate(-4452.465 4091.055) rotate(-90)" fill="#0c1d2f"/>
      <path id="Trazado_881807" data-name="Trazado 881807" d="M10.605-5.186a6.4,6.4,0,0,1-1.084,3.96A3.591,3.591,0,0,1,6.494.2,3.3,3.3,0,0,1,3.75-1.123L3.623,0H1.084V-15H3.906v5.381a3.214,3.214,0,0,1,2.568-1.143A3.62,3.62,0,0,1,9.507-9.341a6.408,6.408,0,0,1,1.1,4ZM7.783-5.391a4.2,4.2,0,0,0-.508-2.339,1.717,1.717,0,0,0-1.514-.737,1.862,1.862,0,0,0-1.855,1.1v4.17A1.887,1.887,0,0,0,5.781-2.08a1.742,1.742,0,0,0,1.8-1.348A6.952,6.952,0,0,0,7.783-5.391Zm4.121.01a6.267,6.267,0,0,1,.605-2.8,4.432,4.432,0,0,1,1.743-1.9,5.086,5.086,0,0,1,2.642-.674,4.812,4.812,0,0,1,3.491,1.309A5.252,5.252,0,0,1,21.895-5.9l.02.723a5.523,5.523,0,0,1-1.357,3.9A4.718,4.718,0,0,1,16.914.2,4.742,4.742,0,0,1,13.267-1.27,5.62,5.62,0,0,1,11.9-5.254Zm2.822.205a3.939,3.939,0,0,0,.566,2.3,1.869,1.869,0,0,0,1.621.8,1.874,1.874,0,0,0,1.6-.786,4.31,4.31,0,0,0,.576-2.515,3.9,3.9,0,0,0-.576-2.285,1.874,1.874,0,0,0-1.621-.811,1.843,1.843,0,0,0-1.6.806A4.383,4.383,0,0,0,14.727-5.176ZM26.631,0H23.8V-15h2.832Zm8.047-2.92a.909.909,0,0,0-.513-.815,5.824,5.824,0,0,0-1.646-.532q-3.77-.791-3.77-3.2a2.9,2.9,0,0,1,1.167-2.349,4.707,4.707,0,0,1,3.052-.942,5.067,5.067,0,0,1,3.218.947,2.985,2.985,0,0,1,1.206,2.461H34.57a1.366,1.366,0,0,0-.391-1,1.653,1.653,0,0,0-1.221-.4,1.689,1.689,0,0,0-1.1.322,1.017,1.017,0,0,0-.391.82.87.87,0,0,0,.444.757,4.571,4.571,0,0,0,1.5.5,12.244,12.244,0,0,1,1.777.474,2.92,2.92,0,0,1,2.236,2.842A2.756,2.756,0,0,1,36.182-.7a5.35,5.35,0,0,1-3.2.894A5.588,5.588,0,0,1,30.62-.278,3.957,3.957,0,0,1,29-1.577a3.018,3.018,0,0,1-.586-1.782h2.676a1.473,1.473,0,0,0,.557,1.152,2.208,2.208,0,0,0,1.387.4,2.044,2.044,0,0,0,1.226-.308A.957.957,0,0,0,34.678-2.92ZM42.217,0H39.385V-10.566h2.832Zm-3-13.3a1.39,1.39,0,0,1,.425-1.045,1.6,1.6,0,0,1,1.157-.41,1.6,1.6,0,0,1,1.152.41,1.382,1.382,0,0,1,.43,1.045,1.386,1.386,0,0,1-.435,1.055,1.6,1.6,0,0,1-1.147.41,1.6,1.6,0,0,1-1.147-.41A1.386,1.386,0,0,1,39.219-13.3ZM47.52,0H44.688V-15H47.52Zm5.3,0H49.99V-15h2.832Zm1.885-5.381a6.267,6.267,0,0,1,.605-2.8,4.432,4.432,0,0,1,1.743-1.9,5.086,5.086,0,0,1,2.642-.674,4.812,4.812,0,0,1,3.491,1.309A5.252,5.252,0,0,1,64.7-5.9l.02.723a5.523,5.523,0,0,1-1.357,3.9A4.718,4.718,0,0,1,59.717.2,4.742,4.742,0,0,1,56.069-1.27a5.62,5.62,0,0,1-1.362-3.984Zm2.822.205a3.939,3.939,0,0,0,.566,2.3,1.869,1.869,0,0,0,1.621.8,1.874,1.874,0,0,0,1.6-.786,4.31,4.31,0,0,0,.576-2.515,3.9,3.9,0,0,0-.576-2.285A1.874,1.874,0,0,0,59.7-8.477a1.843,1.843,0,0,0-1.6.806A4.383,4.383,0,0,0,57.529-5.176Z" transform="translate(-4431.815 4091.055) rotate(-90)" fill="#0c1d2f"/>
      <path id="Trazado_881808" data-name="Trazado 881808" d="M3.911,0H2.5V-5.439L.815-4.917V-6.064L3.76-7.119h.151ZM9.648,0H8.237V-5.439l-1.685.522V-6.064L9.5-7.119h.151Z" transform="translate(-4476.915 4052.979) rotate(-90)" fill="#0c1d2f"/>
      <path id="Trazado_881809" data-name="Trazado 881809" d="M7.5,0H.677V-1.354L3.9-4.785A7.943,7.943,0,0,0,4.877-6.05,2.032,2.032,0,0,0,5.2-7.075,1.52,1.52,0,0,0,4.86-8.118,1.209,1.209,0,0,0,3.9-8.5a1.3,1.3,0,0,0-1.056.461,1.828,1.828,0,0,0-.386,1.213H.479A3.263,3.263,0,0,1,.913-8.483,3.059,3.059,0,0,1,2.14-9.663a3.73,3.73,0,0,1,1.8-.427,3.531,3.531,0,0,1,2.389.738,2.612,2.612,0,0,1,.851,2.085,3.347,3.347,0,0,1-.383,1.5A8.357,8.357,0,0,1,5.482-3.979L3.22-1.593H7.5Z" transform="translate(-4483.667 4023.529)" fill="#0c1d2f"/>
      <path id="Trazado_881810" data-name="Trazado 881810" d="M.645-5.361A6.368,6.368,0,0,1,1.753-9.3a3.6,3.6,0,0,1,3.032-1.465A3.236,3.236,0,0,1,7.334-9.609V-15h2.832V0H7.617L7.48-1.123A3.321,3.321,0,0,1,4.766.2a3.587,3.587,0,0,1-2.993-1.47A6.573,6.573,0,0,1,.645-5.361Zm2.822.205a4.16,4.16,0,0,0,.518,2.275,1.687,1.687,0,0,0,1.5.791,1.889,1.889,0,0,0,1.846-1.1v-4.17a1.862,1.862,0,0,0-1.826-1.1Q3.467-8.467,3.467-5.156ZM17.217.2A5.187,5.187,0,0,1,13.433-1.23a5.068,5.068,0,0,1-1.46-3.8V-5.3a6.383,6.383,0,0,1,.615-2.847,4.515,4.515,0,0,1,1.743-1.934,4.893,4.893,0,0,1,2.573-.679,4.385,4.385,0,0,1,3.413,1.367,5.555,5.555,0,0,1,1.245,3.877v1.152H14.834a2.622,2.622,0,0,0,.825,1.66A2.5,2.5,0,0,0,17.4-2.08a3.046,3.046,0,0,0,2.549-1.182l1.387,1.553a4.237,4.237,0,0,1-1.719,1.4A5.639,5.639,0,0,1,17.217.2Zm-.322-8.672a1.767,1.767,0,0,0-1.362.566,2.926,2.926,0,0,0-.669,1.621h3.926v-.225a2.086,2.086,0,0,0-.508-1.45A1.824,1.824,0,0,0,16.895-8.477ZM26.143,0H23.311V-15h2.832Zm2.471-1.387a1.421,1.421,0,0,1,.454-1.094,1.611,1.611,0,0,1,1.138-.42,1.624,1.624,0,0,1,1.147.42,1.421,1.421,0,0,1,.454,1.094,1.4,1.4,0,0,1-.449,1.079,1.631,1.631,0,0,1-1.152.415,1.618,1.618,0,0,1-1.143-.415A1.4,1.4,0,0,1,28.613-1.387ZM38.818-5.361A6.368,6.368,0,0,1,39.927-9.3a3.6,3.6,0,0,1,3.032-1.465,3.236,3.236,0,0,1,2.549,1.152V-15H48.34V0H45.791l-.137-1.123A3.321,3.321,0,0,1,42.939.2a3.587,3.587,0,0,1-2.993-1.47A6.573,6.573,0,0,1,38.818-5.361Zm2.822.205a4.16,4.16,0,0,0,.518,2.275,1.687,1.687,0,0,0,1.5.791,1.889,1.889,0,0,0,1.846-1.1v-4.17a1.862,1.862,0,0,0-1.826-1.1Q41.641-8.467,41.641-5.156ZM54.922-2.08a1.851,1.851,0,0,0,1.27-.43A1.506,1.506,0,0,0,56.7-3.652h2.646a3.62,3.62,0,0,1-.586,1.968A3.866,3.866,0,0,1,57.183-.3,4.936,4.936,0,0,1,54.971.2,4.587,4.587,0,0,1,51.4-1.245a5.7,5.7,0,0,1-1.309-3.979V-5.41a5.635,5.635,0,0,1,1.3-3.9,4.534,4.534,0,0,1,3.564-1.455A4.444,4.444,0,0,1,58.13-9.634a3.994,3.994,0,0,1,1.216,3H56.7a1.923,1.923,0,0,0-.508-1.333A1.7,1.7,0,0,0,54.9-8.477a1.7,1.7,0,0,0-1.489.718,4.155,4.155,0,0,0-.5,2.329v.293a4.207,4.207,0,0,0,.5,2.344A1.722,1.722,0,0,0,54.922-2.08Zm8.789-7.334a3.522,3.522,0,0,1,2.822-1.348q3.437,0,3.486,3.994V0H67.2V-6.689a1.963,1.963,0,0,0-.391-1.343,1.675,1.675,0,0,0-1.3-.435,1.921,1.921,0,0,0-1.8.957V0H60.889V-15h2.822ZM78.271,0a3.134,3.134,0,0,1-.283-.947A3.415,3.415,0,0,1,75.322.2a3.752,3.752,0,0,1-2.573-.9,2.89,2.89,0,0,1-1.021-2.266,2.986,2.986,0,0,1,1.245-2.578,6.144,6.144,0,0,1,3.6-.908h1.3v-.605A1.741,1.741,0,0,0,77.5-8.232a1.479,1.479,0,0,0-1.187-.439,1.682,1.682,0,0,0-1.118.342,1.161,1.161,0,0,0-.405.938H71.963a2.835,2.835,0,0,1,.566-1.7,3.744,3.744,0,0,1,1.6-1.226,5.837,5.837,0,0,1,2.324-.444,4.611,4.611,0,0,1,3.1.981A3.433,3.433,0,0,1,80.7-7.021v4.58a5.052,5.052,0,0,0,.42,2.275V0ZM75.938-1.963a2.431,2.431,0,0,0,1.152-.278,1.828,1.828,0,0,0,.781-.747V-4.8H76.816Q74.7-4.8,74.561-3.34l-.01.166a1.13,1.13,0,0,0,.371.869A1.441,1.441,0,0,0,75.938-1.963Zm7.08.576a1.421,1.421,0,0,1,.454-1.094,1.611,1.611,0,0,1,1.138-.42,1.624,1.624,0,0,1,1.147.42,1.421,1.421,0,0,1,.454,1.094,1.4,1.4,0,0,1-.449,1.079,1.631,1.631,0,0,1-1.152.415,1.618,1.618,0,0,1-1.143-.415A1.4,1.4,0,0,1,83.018-1.387Z" transform="translate(-4550.851 4146.205)" fill="#161615"/>
      <path id="Trazado_881811" data-name="Trazado 881811" d="M.645-5.361A6.368,6.368,0,0,1,1.753-9.3a3.6,3.6,0,0,1,3.032-1.465A3.236,3.236,0,0,1,7.334-9.609V-15h2.832V0H7.617L7.48-1.123A3.321,3.321,0,0,1,4.766.2a3.587,3.587,0,0,1-2.993-1.47A6.573,6.573,0,0,1,.645-5.361Zm2.822.205a4.16,4.16,0,0,0,.518,2.275,1.687,1.687,0,0,0,1.5.791,1.889,1.889,0,0,0,1.846-1.1v-4.17a1.862,1.862,0,0,0-1.826-1.1Q3.467-8.467,3.467-5.156ZM17.217.2A5.187,5.187,0,0,1,13.433-1.23a5.068,5.068,0,0,1-1.46-3.8V-5.3a6.383,6.383,0,0,1,.615-2.847,4.515,4.515,0,0,1,1.743-1.934,4.893,4.893,0,0,1,2.573-.679,4.385,4.385,0,0,1,3.413,1.367,5.555,5.555,0,0,1,1.245,3.877v1.152H14.834a2.622,2.622,0,0,0,.825,1.66A2.5,2.5,0,0,0,17.4-2.08a3.046,3.046,0,0,0,2.549-1.182l1.387,1.553a4.237,4.237,0,0,1-1.719,1.4A5.639,5.639,0,0,1,17.217.2Zm-.322-8.672a1.767,1.767,0,0,0-1.362.566,2.926,2.926,0,0,0-.669,1.621h3.926v-.225a2.086,2.086,0,0,0-.508-1.45A1.824,1.824,0,0,0,16.895-8.477ZM26.143,0H23.311V-15h2.832Zm2.471-1.387a1.421,1.421,0,0,1,.454-1.094,1.611,1.611,0,0,1,1.138-.42,1.624,1.624,0,0,1,1.147.42,1.421,1.421,0,0,1,.454,1.094,1.4,1.4,0,0,1-.449,1.079,1.631,1.631,0,0,1-1.152.415,1.618,1.618,0,0,1-1.143-.415A1.4,1.4,0,0,1,28.613-1.387ZM42.236,0H39.4V-10.566h2.832Zm-3-13.3a1.39,1.39,0,0,1,.425-1.045,1.6,1.6,0,0,1,1.157-.41,1.6,1.6,0,0,1,1.152.41A1.382,1.382,0,0,1,42.4-13.3a1.386,1.386,0,0,1-.435,1.055,1.6,1.6,0,0,1-1.147.41,1.6,1.6,0,0,1-1.147-.41A1.386,1.386,0,0,1,39.238-13.3ZM47.8-2.275h5.166V0H44.2V-1.719L49.17-8.281H44.346v-2.285h8.467V-8.9Zm6.354-3.086A6.368,6.368,0,0,1,55.265-9.3,3.6,3.6,0,0,1,58.3-10.762a3.236,3.236,0,0,1,2.549,1.152V-15h2.832V0H61.13l-.137-1.123A3.321,3.321,0,0,1,58.278.2a3.587,3.587,0,0,1-2.993-1.47A6.573,6.573,0,0,1,54.157-5.361Zm2.822.205A4.16,4.16,0,0,0,57.5-2.881,1.687,1.687,0,0,0,59-2.09a1.889,1.889,0,0,0,1.846-1.1v-4.17a1.862,1.862,0,0,0-1.826-1.1Q56.979-8.467,56.979-5.156ZM71.989,0a3.134,3.134,0,0,1-.283-.947A3.415,3.415,0,0,1,69.04.2a3.752,3.752,0,0,1-2.573-.9,2.89,2.89,0,0,1-1.021-2.266,2.986,2.986,0,0,1,1.245-2.578,6.144,6.144,0,0,1,3.6-.908h1.3v-.605a1.741,1.741,0,0,0-.376-1.172,1.479,1.479,0,0,0-1.187-.439,1.682,1.682,0,0,0-1.118.342,1.161,1.161,0,0,0-.405.938H65.68a2.835,2.835,0,0,1,.566-1.7,3.744,3.744,0,0,1,1.6-1.226,5.837,5.837,0,0,1,2.324-.444,4.611,4.611,0,0,1,3.1.981,3.433,3.433,0,0,1,1.147,2.759v4.58a5.052,5.052,0,0,0,.42,2.275V0ZM69.655-1.963a2.431,2.431,0,0,0,1.152-.278,1.828,1.828,0,0,0,.781-.747V-4.8H70.534q-2.119,0-2.256,1.465l-.01.166a1.13,1.13,0,0,0,.371.869A1.441,1.441,0,0,0,69.655-1.963Zm7.08.576a1.421,1.421,0,0,1,.454-1.094,1.611,1.611,0,0,1,1.138-.42,1.624,1.624,0,0,1,1.147.42,1.421,1.421,0,0,1,.454,1.094,1.4,1.4,0,0,1-.449,1.079,1.631,1.631,0,0,1-1.152.415,1.618,1.618,0,0,1-1.143-.415A1.4,1.4,0,0,1,76.735-1.387Z" transform="translate(-4453.676 4146.205)" fill="#161615"/>
      <path id="Trazado_881812" data-name="Trazado 881812" d="M5.479-2.08a1.851,1.851,0,0,0,1.27-.43,1.506,1.506,0,0,0,.508-1.143H9.9a3.62,3.62,0,0,1-.586,1.968A3.866,3.866,0,0,1,7.739-.3,4.936,4.936,0,0,1,5.527.2a4.587,4.587,0,0,1-3.574-1.44A5.7,5.7,0,0,1,.645-5.225V-5.41a5.635,5.635,0,0,1,1.3-3.9,4.534,4.534,0,0,1,3.564-1.455A4.444,4.444,0,0,1,8.687-9.634a3.994,3.994,0,0,1,1.216,3H7.256a1.923,1.923,0,0,0-.508-1.333,1.7,1.7,0,0,0-1.289-.513,1.7,1.7,0,0,0-1.489.718,4.155,4.155,0,0,0-.5,2.329v.293a4.207,4.207,0,0,0,.5,2.344A1.722,1.722,0,0,0,5.479-2.08Zm5.6-3.3a6.267,6.267,0,0,1,.605-2.8,4.432,4.432,0,0,1,1.743-1.9,5.086,5.086,0,0,1,2.642-.674,4.812,4.812,0,0,1,3.491,1.309A5.252,5.252,0,0,1,21.064-5.9l.02.723a5.523,5.523,0,0,1-1.357,3.9A4.718,4.718,0,0,1,16.084.2,4.742,4.742,0,0,1,12.437-1.27a5.62,5.62,0,0,1-1.362-3.984Zm2.822.205a3.939,3.939,0,0,0,.566,2.3,1.869,1.869,0,0,0,1.621.8,1.874,1.874,0,0,0,1.6-.786,4.31,4.31,0,0,0,.576-2.515,3.9,3.9,0,0,0-.576-2.285,1.874,1.874,0,0,0-1.621-.811,1.843,1.843,0,0,0-1.6.806A4.383,4.383,0,0,0,13.9-5.176ZM28.545-2.92a.909.909,0,0,0-.513-.815,5.824,5.824,0,0,0-1.646-.532q-3.77-.791-3.77-3.2a2.9,2.9,0,0,1,1.167-2.349,4.707,4.707,0,0,1,3.052-.942,5.067,5.067,0,0,1,3.218.947A2.985,2.985,0,0,1,31.26-7.354H28.438a1.366,1.366,0,0,0-.391-1,1.653,1.653,0,0,0-1.221-.4,1.689,1.689,0,0,0-1.1.322,1.017,1.017,0,0,0-.391.82.87.87,0,0,0,.444.757,4.571,4.571,0,0,0,1.5.5,12.244,12.244,0,0,1,1.777.474,2.92,2.92,0,0,1,2.236,2.842A2.756,2.756,0,0,1,30.049-.7a5.35,5.35,0,0,1-3.2.894,5.588,5.588,0,0,1-2.358-.474,3.957,3.957,0,0,1-1.616-1.3,3.018,3.018,0,0,1-.586-1.782h2.676a1.473,1.473,0,0,0,.557,1.152,2.208,2.208,0,0,0,1.387.4,2.044,2.044,0,0,0,1.226-.308A.957.957,0,0,0,28.545-2.92Zm7.939-10.244v2.6h1.807V-8.5H36.484v5.273a1.259,1.259,0,0,0,.225.84,1.128,1.128,0,0,0,.859.254A4.5,4.5,0,0,0,38.4-2.2V-.059A5.81,5.81,0,0,1,36.689.2q-2.969,0-3.027-3V-8.5H32.119v-2.07h1.543v-2.6ZM45.986,0A3.134,3.134,0,0,1,45.7-.947,3.415,3.415,0,0,1,43.037.2a3.752,3.752,0,0,1-2.573-.9,2.89,2.89,0,0,1-1.021-2.266,2.986,2.986,0,0,1,1.245-2.578,6.144,6.144,0,0,1,3.6-.908h1.3v-.605a1.741,1.741,0,0,0-.376-1.172,1.479,1.479,0,0,0-1.187-.439,1.682,1.682,0,0,0-1.118.342,1.161,1.161,0,0,0-.405.938H39.678a2.835,2.835,0,0,1,.566-1.7,3.744,3.744,0,0,1,1.6-1.226,5.837,5.837,0,0,1,2.324-.444,4.611,4.611,0,0,1,3.1.981,3.433,3.433,0,0,1,1.147,2.759v4.58a5.052,5.052,0,0,0,.42,2.275V0ZM43.652-1.963A2.431,2.431,0,0,0,44.8-2.241a1.828,1.828,0,0,0,.781-.747V-4.8H44.531q-2.119,0-2.256,1.465l-.01.166a1.13,1.13,0,0,0,.371.869A1.441,1.441,0,0,0,43.652-1.963Zm6.494-3.4A6.368,6.368,0,0,1,51.255-9.3a3.6,3.6,0,0,1,3.032-1.465,3.236,3.236,0,0,1,2.549,1.152V-15h2.832V0H57.119l-.137-1.123A3.321,3.321,0,0,1,54.268.2a3.587,3.587,0,0,1-2.993-1.47A6.573,6.573,0,0,1,50.146-5.361Zm2.822.205a4.16,4.16,0,0,0,.518,2.275,1.687,1.687,0,0,0,1.5.791,1.889,1.889,0,0,0,1.846-1.1v-4.17a1.862,1.862,0,0,0-1.826-1.1Q52.969-8.467,52.969-5.156Zm8.447-.225a6.267,6.267,0,0,1,.605-2.8,4.432,4.432,0,0,1,1.743-1.9,5.086,5.086,0,0,1,2.642-.674A4.812,4.812,0,0,1,69.9-9.453,5.252,5.252,0,0,1,71.406-5.9l.02.723a5.523,5.523,0,0,1-1.357,3.9A4.718,4.718,0,0,1,66.426.2,4.742,4.742,0,0,1,62.778-1.27a5.62,5.62,0,0,1-1.362-3.984Zm2.822.205a3.939,3.939,0,0,0,.566,2.3,1.869,1.869,0,0,0,1.621.8,1.874,1.874,0,0,0,1.6-.786A4.31,4.31,0,0,0,68.6-5.381a3.9,3.9,0,0,0-.576-2.285,1.874,1.874,0,0,0-1.621-.811,1.843,1.843,0,0,0-1.6.806A4.383,4.383,0,0,0,64.238-5.176Z" transform="translate(-4342.294 4146.205)" fill="#161615"/>
      <path id="Trazado_881813" data-name="Trazado 881813" d="M5.479-2.08a1.851,1.851,0,0,0,1.27-.43,1.506,1.506,0,0,0,.508-1.143H9.9a3.62,3.62,0,0,1-.586,1.968A3.866,3.866,0,0,1,7.739-.3,4.936,4.936,0,0,1,5.527.2a4.587,4.587,0,0,1-3.574-1.44A5.7,5.7,0,0,1,.645-5.225V-5.41a5.635,5.635,0,0,1,1.3-3.9,4.534,4.534,0,0,1,3.564-1.455A4.444,4.444,0,0,1,8.687-9.634a3.994,3.994,0,0,1,1.216,3H7.256a1.923,1.923,0,0,0-.508-1.333,1.7,1.7,0,0,0-1.289-.513,1.7,1.7,0,0,0-1.489.718,4.155,4.155,0,0,0-.5,2.329v.293a4.207,4.207,0,0,0,.5,2.344A1.722,1.722,0,0,0,5.479-2.08Zm6.182.693a1.421,1.421,0,0,1,.454-1.094,1.611,1.611,0,0,1,1.138-.42,1.624,1.624,0,0,1,1.147.42,1.421,1.421,0,0,1,.454,1.094A1.4,1.4,0,0,1,14.4-.308a1.631,1.631,0,0,1-1.152.415,1.618,1.618,0,0,1-1.143-.415A1.4,1.4,0,0,1,11.66-1.387ZM25.684-13.164v2.6H27.49V-8.5H25.684v5.273a1.259,1.259,0,0,0,.225.84,1.128,1.128,0,0,0,.859.254A4.5,4.5,0,0,0,27.6-2.2V-.059A5.81,5.81,0,0,1,25.889.2q-2.969,0-3.027-3V-8.5H21.318v-2.07h1.543v-2.6ZM29.209-1.387a1.421,1.421,0,0,1,.454-1.094A1.611,1.611,0,0,1,30.8-2.9a1.624,1.624,0,0,1,1.147.42A1.421,1.421,0,0,1,32.4-1.387a1.4,1.4,0,0,1-.449,1.079A1.631,1.631,0,0,1,30.8.107a1.618,1.618,0,0,1-1.143-.415A1.4,1.4,0,0,1,29.209-1.387ZM44.717.2A5.187,5.187,0,0,1,40.933-1.23a5.068,5.068,0,0,1-1.46-3.8V-5.3a6.383,6.383,0,0,1,.615-2.847,4.515,4.515,0,0,1,1.743-1.934,4.893,4.893,0,0,1,2.573-.679,4.385,4.385,0,0,1,3.413,1.367,5.555,5.555,0,0,1,1.245,3.877v1.152H42.334a2.622,2.622,0,0,0,.825,1.66A2.5,2.5,0,0,0,44.9-2.08a3.046,3.046,0,0,0,2.549-1.182l1.387,1.553a4.237,4.237,0,0,1-1.719,1.4A5.639,5.639,0,0,1,44.717.2Zm-.322-8.672a1.767,1.767,0,0,0-1.362.566,2.926,2.926,0,0,0-.669,1.621h3.926v-.225a2.086,2.086,0,0,0-.508-1.45A1.824,1.824,0,0,0,44.395-8.477Zm8.867-2.09.088,1.221a3.689,3.689,0,0,1,3.037-1.416,3.066,3.066,0,0,1,2.5.986,4.6,4.6,0,0,1,.84,2.949V0H56.9V-6.758a1.831,1.831,0,0,0-.391-1.3,1.749,1.749,0,0,0-1.3-.405,1.942,1.942,0,0,0-1.787,1.016V0H50.605V-10.566Zm11.982-2.6v2.6h1.807V-8.5H65.244v5.273a1.259,1.259,0,0,0,.225.84,1.128,1.128,0,0,0,.859.254,4.5,4.5,0,0,0,.83-.068V-.059A5.81,5.81,0,0,1,65.449.2q-2.969,0-3.027-3V-8.5H60.879v-2.07h1.543v-2.6ZM73.486.2A5.187,5.187,0,0,1,69.7-1.23a5.068,5.068,0,0,1-1.46-3.8V-5.3a6.383,6.383,0,0,1,.615-2.847A4.515,4.515,0,0,1,70.6-10.083a4.893,4.893,0,0,1,2.573-.679,4.385,4.385,0,0,1,3.413,1.367,5.555,5.555,0,0,1,1.245,3.877v1.152H71.1a2.622,2.622,0,0,0,.825,1.66,2.5,2.5,0,0,0,1.743.625,3.046,3.046,0,0,0,2.549-1.182l1.387,1.553a4.237,4.237,0,0,1-1.719,1.4A5.639,5.639,0,0,1,73.486.2Zm-.322-8.672A1.767,1.767,0,0,0,71.8-7.91a2.926,2.926,0,0,0-.669,1.621h3.926v-.225a2.086,2.086,0,0,0-.508-1.45A1.824,1.824,0,0,0,73.164-8.477Zm12.207.557A7.667,7.667,0,0,0,84.355-8a2.067,2.067,0,0,0-2.1,1.084V0H79.434V-10.566H82.1l.078,1.26a2.615,2.615,0,0,1,2.354-1.455,2.957,2.957,0,0,1,.879.127Zm.386,2.539a6.266,6.266,0,0,1,.605-2.8,4.432,4.432,0,0,1,1.743-1.9,5.086,5.086,0,0,1,2.642-.674,4.812,4.812,0,0,1,3.491,1.309A5.252,5.252,0,0,1,95.748-5.9l.02.723a5.523,5.523,0,0,1-1.357,3.9A4.718,4.718,0,0,1,90.767.2,4.742,4.742,0,0,1,87.12-1.27a5.62,5.62,0,0,1-1.362-3.984Zm2.822.205a3.939,3.939,0,0,0,.566,2.3,1.869,1.869,0,0,0,1.621.8,1.874,1.874,0,0,0,1.6-.786,4.31,4.31,0,0,0,.576-2.515,3.9,3.9,0,0,0-.576-2.285,1.874,1.874,0,0,0-1.621-.811,1.843,1.843,0,0,0-1.6.806A4.383,4.383,0,0,0,88.58-5.176Z" transform="translate(-4199.651 4145.626)" fill="#161615"/>
      <path id="Trazado_881814" data-name="Trazado 881814" d="M0,0H8.093" transform="translate(-4119.336 3952.155)" fill="none" stroke="#0c1d30" stroke-linecap="round" stroke-width="1"/>
      <path id="Trazado_881815" data-name="Trazado 881815" d="M0,0H8.093" transform="translate(-4095.794 3952.155)" fill="none" stroke="#0c1d30" stroke-linecap="round" stroke-width="1"/>
      <path id="Trazado_881816" data-name="Trazado 881816" d="M0,0H8.093" transform="translate(-3998.683 3955.598)" fill="none" stroke="#0c1d30" stroke-linecap="round" stroke-width="1"/>
      <path id="Trazado_881817" data-name="Trazado 881817" d="M0,0H8.093" transform="translate(-3977.347 3955.598)" fill="none" stroke="#0c1d30" stroke-linecap="round" stroke-width="1"/>
      <path id="Trazado_881818" data-name="Trazado 881818" d="M0,0V8.093" transform="translate(-4037.806 3764.456)" fill="none" stroke="#0c1d30" stroke-linecap="round" stroke-width="1"/>
      <path id="Trazado_881819" data-name="Trazado 881819" d="M3.941,0,0,7.069" transform="translate(-4245.129 3849.08)" fill="none" stroke="#0c1d30" stroke-linecap="round" stroke-width="1"/>
      <path id="Trazado_881820" data-name="Trazado 881820" d="M0,0H660.6V429.353H0Z" transform="translate(-4586 3762)" fill="none"/>
    </g>
  </g>
</svg>
