<svg xmlns="http://www.w3.org/2000/svg" xmlns:xlink="http://www.w3.org/1999/xlink" width="381.663" height="403.448" viewBox="0 0 381.663 403.448">
  <defs>
    <clipPath id="clip-path">
      <rect id="Rectángulo_403904" data-name="Rectángulo 403904" width="381.662" height="403.448" fill="none"/>
    </clipPath>
    <clipPath id="clip-path-4">
      <rect id="Rectángulo_404131" data-name="Rectángulo 404131" width="15.106" height="9.093" fill="#12263f" stroke="#707070" stroke-width="1"/>
    </clipPath>
  </defs>
  <g id="Grupo_1103497" data-name="Grupo 1103497" transform="translate(7022.526 1523)">
    <g id="Grupo_1103120" data-name="Grupo 1103120" transform="translate(-7022.526 -1523)">
      <g id="Grupo_1103119" data-name="Grupo 1103119" clip-path="url(#clip-path)">
        <path id="Trazado_881011" data-name="Trazado 881011" d="M.5,78.249s70.689,7.485,80.667-67.361L358.932,120.662l-24.117,98.963s-120.586-1.663-153.019,1.663L191.823,360.17l-121.466,18.3H.5Z" transform="translate(0.129 2.82)" fill="none" stroke="#0c1d30" stroke-linecap="round" stroke-linejoin="round" stroke-width="1"/>
        <line id="Línea_4648" data-name="Línea 4648" x2="274.459" y2="107.677" transform="translate(88.355 1.45)" fill="none" stroke="#0c1d30" stroke-linecap="round" stroke-linejoin="round" stroke-width="1"/>
        <path id="Trazado_881012" data-name="Trazado 881012" d="M76.326,7.865l.833-.945L70.975,1.464l8.244.2L79.251.41,67.548.12Z" transform="translate(17.495 0.031)" fill="#0c1d30"/>
        <path id="Trazado_881013" data-name="Trazado 881013" d="M281.514,89.013l.031-1.259,8.244.2L283.606,82.5l.832-.944,8.778,7.744Z" transform="translate(72.91 21.123)" fill="#0c1d30"/>
        <path id="Trazado_881014" data-name="Trazado 881014" d="M183.87,44.913a4.713,4.713,0,1,1-4.676-4.749,4.713,4.713,0,0,1,4.676,4.749" transform="translate(45.18 10.402)" fill="#0c1d2f"/>
        <line id="Línea_4649" data-name="Línea 4649" x2="281.921" y2="90.092" transform="translate(77.139 33.389)" fill="none" stroke="#9eb3c8" stroke-miterlimit="10" stroke-width="1"/>
        <path id="Trazado_881015" data-name="Trazado 881015" d="M90.6,108.675c35.482,67.639,78.726,75.955,78.726,75.955l-1.109,28.276c-6.1.554-67.638,5.543-67.638,5.543C117.217,114.22,52.9,43.254,52.9,43.254" transform="translate(13.702 11.202)" fill="none" stroke="#0c1d30" stroke-linecap="round" stroke-linejoin="round" stroke-width="1"/>
        <path id="Trazado_881016" data-name="Trazado 881016" d="M20.316,361.576V62.19" transform="translate(5.262 16.107)" fill="none" stroke="#9eb3c8" stroke-miterlimit="10" stroke-width="1"/>
        <path id="Trazado_881017" data-name="Trazado 881017" d="M20.317,126.043l154.128.554L175,328.406" transform="translate(5.262 32.644)" fill="none" stroke="#9eb3c8" stroke-miterlimit="10" stroke-width="1"/>
        <line id="Línea_4650" data-name="Línea 4650" x1="49.344" y2="165.77" transform="translate(114.839 61.664)" fill="none" stroke="#9eb3c8" stroke-miterlimit="10" stroke-width="1"/>
        <path id="Trazado_881018" data-name="Trazado 881018" d="M49.381,38.85S85.418,52.156,81.537,88.194" transform="translate(12.789 10.062)" fill="none" stroke="#9eb3c8" stroke-miterlimit="10" stroke-width="1"/>
        <path id="Trazado_881019" data-name="Trazado 881019" d="M78,86.41s39.364,13.86,31.047,47.679" transform="translate(20.202 22.38)" fill="none" stroke="#9eb3c8" stroke-miterlimit="10" stroke-width="1"/>
        <path id="Trazado_881020" data-name="Trazado 881020" d="M106.905,41.493S70.868,159.03,154.03,148.5" transform="translate(25.676 10.746)" fill="none" stroke="#9eb3c8" stroke-miterlimit="10" stroke-width="1"/>
        <path id="Trazado_881021" data-name="Trazado 881021" d="M113.038,288.345H72.347a16.8,16.8,0,0,1-16.8-16.8V222.924h74.291v48.621A16.8,16.8,0,0,1,113.038,288.345Z" transform="translate(14.386 57.736)" fill="none" stroke="#9eb3c8" stroke-miterlimit="10" stroke-width="1"/>
        <line id="Línea_4651" data-name="Línea 4651" x1="62.145" transform="translate(78.224 299.01)" fill="none" stroke="#0c1d30" stroke-miterlimit="10" stroke-width="0.716"/>
        <path id="Trazado_881022" data-name="Trazado 881022" d="M106.615,234.107a.45.45,0,0,0,.14.622l5.813,3.7-5.813,3.7a.451.451,0,1,0,.483.76l6.41-4.083a.45.45,0,0,0,0-.76l-6.41-4.083a.463.463,0,0,0-.242-.07.454.454,0,0,0-.381.209" transform="translate(27.594 60.578)" fill="#0c1d30"/>
        <path id="Trazado_881023" data-name="Trazado 881023" d="M68.513,234.107a.451.451,0,0,1-.138.622l-5.814,3.7,5.814,3.7a.451.451,0,1,1-.485.76l-6.41-4.083a.45.45,0,0,1,0-.76l6.41-4.083a.464.464,0,0,1,.243-.07.451.451,0,0,1,.38.209" transform="translate(15.869 60.578)" fill="#0c1d30"/>
        <line id="Línea_4652" data-name="Línea 4652" y2="62.69" transform="translate(62.171 281.747)" fill="none" stroke="#0c1d30" stroke-miterlimit="10" stroke-width="0.719"/>
        <path id="Trazado_881024" data-name="Trazado 881024" d="M45.974,230.2a.451.451,0,0,0,.624-.14l3.719-5.838,3.719,5.838a.451.451,0,0,0,.624.14.456.456,0,0,0,.138-.626l-4.1-6.437a.451.451,0,0,0-.763,0l-4.1,6.437a.455.455,0,0,0,.138.626" transform="translate(11.853 57.736)" fill="#0c1d30"/>
        <path id="Trazado_881025" data-name="Trazado 881025" d="M45.974,268.685a.451.451,0,0,1,.624.14l3.719,5.838,3.719-5.838a.451.451,0,0,1,.624-.14.456.456,0,0,1,.138.626l-4.1,6.437a.451.451,0,0,1-.763,0l-4.1-6.437a.455.455,0,0,1,.138-.626" transform="translate(11.853 69.569)" fill="#0c1d30"/>
        <line id="Línea_4653" data-name="Línea 4653" y2="98.729" transform="translate(31.776 277.292)" fill="none" stroke="#0c1d30" stroke-miterlimit="10" stroke-width="0.719"/>
        <path id="Trazado_881026" data-name="Trazado 881026" d="M21.832,226.658a.451.451,0,0,0,.624-.14l3.719-5.838,3.719,5.838a.451.451,0,0,0,.624.14.456.456,0,0,0,.138-.626l-4.1-6.437a.451.451,0,0,0-.763,0l-4.1,6.437a.455.455,0,0,0,.138.626" transform="translate(5.6 56.819)" fill="#0c1d30"/>
        <path id="Trazado_881027" data-name="Trazado 881027" d="M21.832,293.771a.451.451,0,0,1,.624.14l3.719,5.838,3.719-5.838a.451.451,0,0,1,.624-.14.456.456,0,0,1,.138.626l-4.1,6.437a.451.451,0,0,1-.763,0l-4.1-6.437a.455.455,0,0,1,.138-.626" transform="translate(5.6 76.066)" fill="#0c1d30"/>
        <line id="Línea_4654" data-name="Línea 4654" y2="27.6" transform="translate(190.241 165.123)" fill="none" stroke="#0c1d30" stroke-miterlimit="10" stroke-width="0.719"/>
        <path id="Trazado_881028" data-name="Trazado 881028" d="M148.82,137.03l.851.31,2.027-5.57,2.027,5.57.851-.31-2.878-7.906Z" transform="translate(38.543 33.442)" fill="#0c1d30"/>
        <path id="Trazado_881029" data-name="Trazado 881029" d="M148.82,148.892l.851-.31,2.027,5.57,2.027-5.57.851.31L151.7,156.8Z" transform="translate(38.543 38.482)" fill="#0c1d30"/>
        <line id="Línea_4655" data-name="Línea 4655" x1="8.916" y2="26.12" transform="translate(57.158 25.595)" fill="none" stroke="#0c1d30" stroke-miterlimit="10" stroke-width="0.719"/>
        <path id="Trazado_881030" data-name="Trazado 881030" d="M48.946,24.96l.705.568,3.718-4.617.12,5.926.9-.018-.169-8.411Z" transform="translate(12.677 4.768)" fill="#0c1d30"/>
        <path id="Trazado_881031" data-name="Trazado 881031" d="M44.609,36.321l.905-.018.12,5.926,3.718-4.617.705.568-5.278,6.553Z" transform="translate(11.553 9.402)" fill="#0c1d30"/>
        <text id="_1_5" data-name="1,5" transform="translate(165.292 398.505)" fill="#0c1d2f" font-size="14" font-family="Roboto-Bold, Roboto" font-weight="700"><tspan x="0" y="0">1,5</tspan></text>
      </g>
    </g>
    <path id="Trazado_881563" data-name="Trazado 881563" d="M7.376-4.115A5.042,5.042,0,0,1,6.521-.957,2.983,2.983,0,0,1,4.02.137,3,3,0,0,1,1.531-.937,4.895,4.895,0,0,1,.649-4.013V-5.845A4.976,4.976,0,0,1,1.514-9.01a3,3,0,0,1,2.492-1.08A3.008,3.008,0,0,1,6.494-9.02a4.879,4.879,0,0,1,.882,3.073ZM5.4-6.129a3.645,3.645,0,0,0-.338-1.8A1.144,1.144,0,0,0,4.006-8.5a1.123,1.123,0,0,0-1.029.537,3.411,3.411,0,0,0-.352,1.68v2.422a3.826,3.826,0,0,0,.332,1.81,1.128,1.128,0,0,0,1.063.592,1.109,1.109,0,0,0,1.046-.568A3.734,3.734,0,0,0,5.4-3.762ZM9.3,2.5l-1.032-.54.246-.444A3.552,3.552,0,0,0,8.989-.15V-1.682h1.668L10.65-.314a3.552,3.552,0,0,1-.383,1.531A3.925,3.925,0,0,1,9.3,2.5Zm3.117-7.39L13-9.953h5.578v1.647H14.615l-.246,2.14a3.132,3.132,0,0,1,1.5-.376,2.869,2.869,0,0,1,2.229.882A3.522,3.522,0,0,1,18.9-3.192a3.609,3.609,0,0,1-.407,1.726A2.871,2.871,0,0,1,17.329-.284a3.639,3.639,0,0,1-1.791.42,3.864,3.864,0,0,1-1.675-.366,2.971,2.971,0,0,1-1.22-1.029,2.8,2.8,0,0,1-.475-1.511h1.955a1.46,1.46,0,0,0,.434.967,1.376,1.376,0,0,0,.974.345,1.215,1.215,0,0,0,1.032-.482A2.233,2.233,0,0,0,16.926-3.3a1.846,1.846,0,0,0-.417-1.3,1.53,1.53,0,0,0-1.183-.451,1.71,1.71,0,0,0-1.142.369l-.191.178Z" transform="translate(-7018.569 -1456.592)" fill="#0c1d2f"/>
    <path id="Trazado_881564" data-name="Trazado 881564" d="M6.521-3.746H7.649v1.593H6.521V0H4.546V-2.153H.465L.376-3.4,4.525-9.953h2Zm-4.177,0h2.2V-7.26l-.13.226Z" transform="translate(-7014.792 -1373.06)" fill="#0c1d2f"/>
    <path id="Trazado_881565" data-name="Trazado 881565" d="M6.521-3.746H7.649v1.593H6.521V0H4.546V-2.153H.465L.376-3.4,4.525-9.953h2Zm-4.177,0h2.2V-7.26l-.13.226Z" transform="translate(-6884.229 -1443.327)" fill="#0c1d2f"/>
    <path id="Trazado_881566" data-name="Trazado 881566" d="M2.687-5.852H3.739a1.483,1.483,0,0,0,1.114-.376,1.378,1.378,0,0,0,.362-1,1.218,1.218,0,0,0-.359-.937A1.391,1.391,0,0,0,3.869-8.5a1.458,1.458,0,0,0-.95.311,1,1,0,0,0-.383.81H.561a2.43,2.43,0,0,1,.42-1.4,2.8,2.8,0,0,1,1.176-.967,3.924,3.924,0,0,1,1.665-.349A3.722,3.722,0,0,1,6.3-9.334a2.577,2.577,0,0,1,.9,2.082A2.094,2.094,0,0,1,6.774-6a2.709,2.709,0,0,1-1.094.882,2.473,2.473,0,0,1,1.254.9,2.448,2.448,0,0,1,.414,1.422A2.62,2.62,0,0,1,6.381-.663a3.889,3.889,0,0,1-2.56.8A3.688,3.688,0,0,1,1.384-.649,2.567,2.567,0,0,1,.438-2.728H2.413a1.145,1.145,0,0,0,.42.916,1.549,1.549,0,0,0,1.036.355,1.556,1.556,0,0,0,1.1-.373,1.286,1.286,0,0,0,.4-.988q0-1.49-1.641-1.49H2.687Z" transform="translate(-6976.841 -1483.348)" fill="#0c1d2f"/>
    <g id="Grupo_1103122" data-name="Grupo 1103122" transform="translate(-7022.526 -1523)">
      <g id="Grupo_1103121" data-name="Grupo 1103121" clip-path="url(#clip-path)">
        <text id="_1_5-2" data-name="1,5" transform="translate(53.299 12.076)" fill="#0c1d2f" font-size="14" font-family="Roboto-Bold, Roboto" font-weight="700"><tspan x="0" y="0">1,5</tspan></text>
      </g>
    </g>
    <path id="Trazado_881567" data-name="Trazado 881567" d="M7.376-4.115A5.042,5.042,0,0,1,6.521-.957,2.983,2.983,0,0,1,4.02.137,3,3,0,0,1,1.531-.937,4.895,4.895,0,0,1,.649-4.013V-5.845A4.976,4.976,0,0,1,1.514-9.01a3,3,0,0,1,2.492-1.08A3.008,3.008,0,0,1,6.494-9.02a4.879,4.879,0,0,1,.882,3.073ZM5.4-6.129a3.645,3.645,0,0,0-.338-1.8A1.144,1.144,0,0,0,4.006-8.5a1.123,1.123,0,0,0-1.029.537,3.411,3.411,0,0,0-.352,1.68v2.422a3.826,3.826,0,0,0,.332,1.81,1.128,1.128,0,0,0,1.063.592,1.109,1.109,0,0,0,1.046-.568A3.734,3.734,0,0,0,5.4-3.762ZM9.3,2.5l-1.032-.54.246-.444A3.552,3.552,0,0,0,8.989-.15V-1.682h1.668L10.65-.314a3.552,3.552,0,0,1-.383,1.531A3.925,3.925,0,0,1,9.3,2.5ZM18.895-8.85,15.046,0H12.961l3.855-8.36H11.867V-9.953h7.027Z" transform="translate(-6817.594 -1266.149)" fill="#0c1d2f"/>
    <path id="Trazado_881568" data-name="Trazado 881568" d="M.971-4.895l.574-5.059H7.123v1.647H3.165l-.246,2.14a3.132,3.132,0,0,1,1.5-.376,2.869,2.869,0,0,1,2.229.882,3.522,3.522,0,0,1,.807,2.468,3.609,3.609,0,0,1-.407,1.726A2.871,2.871,0,0,1,5.879-.284a3.639,3.639,0,0,1-1.791.42A3.864,3.864,0,0,1,2.413-.229a2.971,2.971,0,0,1-1.22-1.029A2.8,2.8,0,0,1,.718-2.769H2.673a1.46,1.46,0,0,0,.434.967,1.376,1.376,0,0,0,.974.345,1.215,1.215,0,0,0,1.032-.482A2.233,2.233,0,0,0,5.476-3.3a1.846,1.846,0,0,0-.417-1.3,1.53,1.53,0,0,0-1.183-.451,1.71,1.71,0,0,0-1.142.369L2.543-4.5Z" transform="translate(-6827.853 -1337.942)" fill="#0c1d2f"/>
    <path id="Trazado_881569" data-name="Trazado 881569" d="M5.476,0H3.5V-7.626L1.142-6.9V-8.49L5.264-9.967h.212Zm9.933-4.115a5.042,5.042,0,0,1-.854,3.158,2.983,2.983,0,0,1-2.5,1.094A3,3,0,0,1,9.563-.937a4.895,4.895,0,0,1-.882-3.076V-5.845A4.976,4.976,0,0,1,9.546-9.01a3,3,0,0,1,2.492-1.08,3.008,3.008,0,0,1,2.488,1.07,4.879,4.879,0,0,1,.882,3.073ZM13.433-6.129a3.645,3.645,0,0,0-.338-1.8A1.144,1.144,0,0,0,12.038-8.5a1.123,1.123,0,0,0-1.029.537,3.411,3.411,0,0,0-.352,1.68v2.422a3.826,3.826,0,0,0,.332,1.81,1.128,1.128,0,0,0,1.063.592A1.109,1.109,0,0,0,13.1-2.024a3.734,3.734,0,0,0,.335-1.738Z" transform="translate(-6983.645 -1208.209)" fill="#0c1d2f"/>
    <path id="Trazado_881570" data-name="Trazado 881570" d="M5.476,0H3.5V-7.626L1.142-6.9V-8.49L5.264-9.967h.212Zm9.933-4.115a5.042,5.042,0,0,1-.854,3.158,2.983,2.983,0,0,1-2.5,1.094A3,3,0,0,1,9.563-.937a4.895,4.895,0,0,1-.882-3.076V-5.845A4.976,4.976,0,0,1,9.546-9.01a3,3,0,0,1,2.492-1.08,3.008,3.008,0,0,1,2.488,1.07,4.879,4.879,0,0,1,.882,3.073ZM13.433-6.129a3.645,3.645,0,0,0-.338-1.8A1.144,1.144,0,0,0,12.038-8.5a1.123,1.123,0,0,0-1.029.537,3.411,3.411,0,0,0-.352,1.68v2.422a3.826,3.826,0,0,0,.332,1.81,1.128,1.128,0,0,0,1.063.592A1.109,1.109,0,0,0,13.1-2.024a3.734,3.734,0,0,0,.335-1.738Z" transform="translate(-6921.551 -1227.457)" fill="#0c1d2f"/>
    <path id="Trazado_881571" data-name="Trazado 881571" d="M5.476,0H3.5V-7.626L1.142-6.9V-8.49L5.264-9.967h.212ZM9-4.895l.574-5.059h5.578v1.647H11.2l-.246,2.14a3.132,3.132,0,0,1,1.5-.376,2.869,2.869,0,0,1,2.229.882,3.522,3.522,0,0,1,.807,2.468,3.609,3.609,0,0,1-.407,1.726A2.871,2.871,0,0,1,13.911-.284a3.639,3.639,0,0,1-1.791.42,3.864,3.864,0,0,1-1.675-.366,2.971,2.971,0,0,1-1.22-1.029A2.8,2.8,0,0,1,8.75-2.769h1.955a1.46,1.46,0,0,0,.434.967,1.376,1.376,0,0,0,.974.345,1.215,1.215,0,0,0,1.032-.482A2.233,2.233,0,0,0,13.508-3.3a1.846,1.846,0,0,0-.417-1.3,1.53,1.53,0,0,0-1.183-.451,1.71,1.71,0,0,0-1.142.369l-.191.178Z" transform="translate(-7017.714 -1192.77)" fill="#0c1d2f"/>
    <path id="Trazado_881572" data-name="Trazado 881572" d="M5.476,0H3.5V-7.626L1.142-6.9V-8.49L5.264-9.967h.212Z" transform="translate(-6966.588 -1259.35)" fill="#0c1d2f"/>
    <g id="Grupo_1103124" data-name="Grupo 1103124" transform="translate(-7022.526 -1523)">
      <g id="Grupo_1103123" data-name="Grupo 1103123" clip-path="url(#clip-path)">
        <text id="_14" data-name="14" transform="translate(364.327 188.935)" fill="#0c1d2f" font-size="14" font-family="Roboto-Bold, Roboto" font-weight="700"><tspan x="0" y="0">14</tspan></text>
        <line id="Línea_4656" data-name="Línea 4656" x1="23.723" y2="91.798" transform="translate(345.813 128.867)" fill="none" stroke="#0c1d30" stroke-linecap="round" stroke-linejoin="round" stroke-width="1"/>
        <path id="Trazado_881032" data-name="Trazado 881032" d="M288.959,109.269l1.039.713,4.67-6.8.792,8.209,1.253-.121-1.124-11.651Z" transform="translate(74.838 25.801)" fill="#0c1d30"/>
        <path id="Trazado_881033" data-name="Trazado 881033" d="M273.074,168.776l1.254-.121.792,8.209,4.67-6.8,1.037.713-6.627,9.649Z" transform="translate(70.724 43.681)" fill="#0c1d30"/>
        <line id="Línea_4657" data-name="Línea 4657" y1="5.947" x2="220.659" transform="translate(114.285 223.705)" fill="none" stroke="#9eb3c8" stroke-miterlimit="10" stroke-width="1"/>
        <path id="Trazado_881034" data-name="Trazado 881034" d="M20.757,240.025c1.663.554,48.235,0,48.235,0l92.588-12.2v-100.9" transform="translate(5.376 32.872)" fill="none" stroke="#9eb3c8" stroke-miterlimit="10" stroke-width="1" stroke-dasharray="3 3"/>
        <line id="Línea_4658" data-name="Línea 4658" x2="16.333" transform="translate(5.492 130.966)" fill="none" stroke="#0c1d30" stroke-miterlimit="10" stroke-width="0.719"/>
        <path id="Trazado_881035" data-name="Trazado 881035" d="M7.562,108.487l.617-.662-3.268-3.038,3.268-3.038-.617-.663-3.98,3.7Z" transform="translate(0.928 26.18)" fill="#0c1d30"/>
        <path id="Trazado_881036" data-name="Trazado 881036" d="M15.08,108.487l-.617-.662,3.268-3.038-3.268-3.038.617-.663,3.98,3.7Z" transform="translate(3.746 26.18)" fill="#0c1d30"/>
        <line id="Línea_4659" data-name="Línea 4659" x2="22.459" y2="8.343" transform="translate(135.474 59.662)" fill="none" stroke="#0c1d30" stroke-miterlimit="10" stroke-width="0.862"/>
        <path id="Trazado_881037" data-name="Trazado 881037" d="M109.657,53.4l.971-.487-2.406-4.779,4.943-2.051-.417-1-6.019,2.5Z" transform="translate(27.642 11.675)" fill="#0c1d30"/>
        <path id="Trazado_881038" data-name="Trazado 881038" d="M121.624,58.037l-.417-1,4.942-2.05-2.4-4.779.971-.488,2.928,5.823Z" transform="translate(31.392 12.876)" fill="#0c1d30"/>
        <line id="Línea_4660" data-name="Línea 4660" y1="14.535" x2="2.468" transform="translate(178.849 371.017)" fill="none" stroke="#0c1d30" stroke-linecap="round" stroke-linejoin="round" stroke-width="1"/>
        <path id="Trazado_881039" data-name="Trazado 881039" d="M147.788,303.423l-1.239.227-1.484-8.113-4.078,7.169-1.094-.623,5.789-10.174Z" transform="translate(36.231 75.602)" fill="#0c1d30"/>
        <line id="Línea_4661" data-name="Línea 4661" x1="0.135" y1="14.742" transform="translate(212.486 226.994)" fill="none" stroke="#0c1d30" stroke-linecap="round" stroke-linejoin="round" stroke-width="1"/>
        <path id="Trazado_881040" data-name="Trazado 881040" d="M173.656,188.435l-1.18.441-2.892-7.723-2.75,7.776-1.186-.421,3.9-11.035Z" transform="translate(42.902 45.964)" fill="#0c1d30"/>
        <path id="Trazado_881041" data-name="Trazado 881041" d="M.72,180.784a6.2,6.2,0,0,1,0,12.41" transform="translate(0.186 46.822)" fill="none" stroke="#9eb3c8" stroke-miterlimit="10" stroke-width="1"/>
        <path id="Trazado_881042" data-name="Trazado 881042" d="M.72,177.566a10.257,10.257,0,0,1,0,20.514" transform="translate(0.186 45.988)" fill="none" stroke="#9eb3c8" stroke-miterlimit="10" stroke-width="1"/>
        <path id="Trazado_881043" data-name="Trazado 881043" d="M198.287,64.055a7.111,7.111,0,0,1-13.114-5.5" transform="translate(47.815 15.165)" fill="none" stroke="#9eb3c8" stroke-miterlimit="10" stroke-width="1.146"/>
        <path id="Trazado_881044" data-name="Trazado 881044" d="M203.524,66.221a11.754,11.754,0,0,1-21.677-9.1" transform="translate(46.859 14.795)" fill="none" stroke="#9eb3c8" stroke-miterlimit="10" stroke-width="1.146"/>
        <line id="Línea_4662" data-name="Línea 4662" x2="7.69" y2="12.577" transform="translate(65.14 263.361)" fill="none" stroke="#0c1d30" stroke-linecap="round" stroke-linejoin="round" stroke-width="1"/>
        <path id="Trazado_881045" data-name="Trazado 881045" d="M52.051,216.649l.786-.985,6.449,5.14-1.635-8.083,1.234-.251,2.322,11.473Z" transform="translate(13.481 55.029)" fill="#0c1d30"/>
      </g>
    </g>
    <path id="Trazado_881573" data-name="Trazado 881573" d="M2.687-5.852H3.739a1.483,1.483,0,0,0,1.114-.376,1.378,1.378,0,0,0,.362-1,1.218,1.218,0,0,0-.359-.937A1.391,1.391,0,0,0,3.869-8.5a1.458,1.458,0,0,0-.95.311,1,1,0,0,0-.383.81H.561a2.43,2.43,0,0,1,.42-1.4,2.8,2.8,0,0,1,1.176-.967,3.924,3.924,0,0,1,1.665-.349A3.722,3.722,0,0,1,6.3-9.334a2.577,2.577,0,0,1,.9,2.082A2.094,2.094,0,0,1,6.774-6a2.709,2.709,0,0,1-1.094.882,2.473,2.473,0,0,1,1.254.9,2.448,2.448,0,0,1,.414,1.422A2.62,2.62,0,0,1,6.381-.663a3.889,3.889,0,0,1-2.56.8A3.688,3.688,0,0,1,1.384-.649,2.567,2.567,0,0,1,.438-2.728H2.413a1.145,1.145,0,0,0,.42.916,1.549,1.549,0,0,0,1.036.355,1.556,1.556,0,0,0,1.1-.373,1.286,1.286,0,0,0,.4-.988q0-1.49-1.641-1.49H2.687Z" transform="translate(-6937.841 -1491.348)" fill="#0c1d2f"/>
    <g id="Grupo_1103494" data-name="Grupo 1103494" transform="matrix(-0.07, -0.998, 0.998, -0.07, -6928.662, -1484.43)">
      <g id="Grupo_1103493" data-name="Grupo 1103493" transform="translate(0 0.001)">
        <g id="Grupo_1103492" data-name="Grupo 1103492" clip-path="url(#clip-path-4)">
          <line id="Línea_4791" data-name="Línea 4791" x2="13.568" y2="5.04" transform="translate(0.769 2.026)" fill="none" stroke="#0c1d30" stroke-miterlimit="10" stroke-width="1"/>
        </g>
      </g>
      <path id="Trazado_881530" data-name="Trazado 881530" d="M4.2,0,0,1.741,2.04,5.8l.679-.339L1.04,2.127,4.486.7Z" transform="translate(0 0)" fill="#12263f" stroke="#12263f" stroke-width="0.5"/>
      <path id="Trazado_881531" data-name="Trazado 881531" d="M6.526,1.815,8.2,5.148,4.758,6.576l.29.7,4.2-1.741L7.2,1.476Z" transform="translate(5.862 1.819)" fill="#12263f" stroke="#12263f" stroke-width="0.5"/>
    </g>
  </g>
</svg>
