<svg xmlns="http://www.w3.org/2000/svg" xmlns:xlink="http://www.w3.org/1999/xlink" width="505" height="409" viewBox="0 0 505 409">
  <defs>
    <clipPath id="clip-path">
      <rect id="Rectángulo_404129" data-name="Rectángulo 404129" width="505" height="409" transform="translate(284.711 14933)" fill="#fff" stroke="#707070" stroke-width="1"/>
    </clipPath>
  </defs>
  <g id="Enmascarar_grupo_1098835" data-name="Enmascarar grupo 1098835" transform="translate(-284.711 -14933)" clip-path="url(#clip-path)">
    <g id="Grupo_1103504" data-name="Grupo 1103504">
      <g id="Grupo_1103503" data-name="Grupo 1103503">
        <path id="Trazado_881222" data-name="Trazado 881222" d="M42.775,107.949l-24.661-27.3L52.463,39.252,77.124.5l40.954,23.779-25.1,45.8,65.174,23.779S139.215,192.94,188.1,188.536c0,0,54.605,7.046,27.3-88.073l68.7-21.138s16.293,13.652,51.522,10.569l5.285,276.99L18.114,369.967.5,108.83l85.431.44,6.605-36.55" transform="translate(353.951 14954.877)" fill="none" stroke="#0c1d2f" stroke-linecap="round" stroke-linejoin="round" stroke-width="1"/>
        <path id="Trazado_881744" data-name="Trazado 881744" d="M.881,0,0,229.639" transform="translate(397.166 15066.349)" fill="none" stroke="#191919" stroke-linecap="round" stroke-width="0.994"/>
        <path id="Trazado_881223" data-name="Trazado 881223" d="M71.4,344.866c0-1.761,28.183-270.825,28.183-270.825" transform="translate(353.951 14954.877)" fill="none" stroke="#9eb3c8" stroke-miterlimit="10" stroke-width="1" stroke-dasharray="3 3"/>
        <path id="Trazado_881224" data-name="Trazado 881224" d="M277.05,337.82s-1.761-108.77-51.523-187.6" transform="translate(353.951 14954.877)" fill="none" stroke="#9eb3c8" stroke-miterlimit="10" stroke-width="1"/>
        <path id="Trazado_881225" data-name="Trazado 881225" d="M44.977,298.187s104.807-.44,135.192,5.284" transform="translate(353.951 14954.877)" fill="none" stroke="#9eb3c8" stroke-miterlimit="10" stroke-width="1" stroke-dasharray="3 3"/>
        <path id="Trazado_881226" data-name="Trazado 881226" d="M196.463,304.353c1.321,0,142.679,14.092,142.679,14.092" transform="translate(353.951 14954.877)" fill="none" stroke="#9eb3c8" stroke-miterlimit="10" stroke-width="1" stroke-dasharray="3 3"/>
        <path id="Trazado_881227" data-name="Trazado 881227" d="M44.1,188.776l144,1.761L335.618,198.9" transform="translate(353.951 14954.877)" fill="none" stroke="#9eb3c8" stroke-miterlimit="10" stroke-width="1" stroke-dasharray="3 3"/>
        <path id="Trazado_881228" data-name="Trazado 881228" d="M44.537,148.463c1.321-.44,110.092,2.2,110.092,2.2" transform="translate(353.951 14954.877)" fill="none" stroke="#9eb3c8" stroke-miterlimit="10" stroke-width="1" stroke-dasharray="3 3"/>
        <path id="Trazado_881229" data-name="Trazado 881229" d="M222.885,153.747c1.761,0,114.5,3.083,114.5,3.083" transform="translate(353.951 14954.877)" fill="none" stroke="#9eb3c8" stroke-miterlimit="10" stroke-width="1" stroke-dasharray="3 3"/>
        <path id="Trazado_881230" data-name="Trazado 881230" d="M115,253.27s62.532,11.89,64.293,52.4-31.266,44.917-61.651,26.862" transform="translate(353.951 14954.877)" fill="none" stroke="#9eb3c8" stroke-miterlimit="10" stroke-width="1" stroke-dasharray="3 3"/>
        <path id="Trazado_881745" data-name="Trazado 881745" d="M0,0H14.972V79.706H0Z" transform="translate(454.855 15207.707)" fill="none" stroke="#0c1d2f" stroke-linecap="round" stroke-width="1"/>
        <path id="Trazado_881746" data-name="Trazado 881746" d="M3.083,177.027,0,0" transform="translate(539.845 15144.294)" fill="none" stroke="#9eb3c8" stroke-width="1" stroke-dasharray="3 3"/>
        <path id="Trazado_881231" data-name="Trazado 881231" d="M190.178,342.664l5.845-38.312L187.215,193.82" transform="translate(353.951 14954.877)" fill="none" stroke="#9eb3c8" stroke-miterlimit="10" stroke-width="1"/>
        <path id="Trazado_881232" data-name="Trazado 881232" d="M187.575,342.664l-7.846-38.312,5.806-110.532" transform="translate(353.951 14954.877)" fill="none" stroke="#0c1d2f" stroke-linecap="round" stroke-linejoin="round" stroke-width="1"/>
        <path id="Trazado_881747" data-name="Trazado 881747" d="M0,138.834V0" transform="translate(586.965 15154.744)" fill="none" stroke="#9eb3c8" stroke-width="1"/>
        <path id="Trazado_881233" data-name="Trazado 881233" d="M237.813,206.7a.5.5,0,0,1-.69-.154l-4.11-6.452-4.109,6.452a.5.5,0,1,1-.844-.537l4.531-7.115a.5.5,0,0,1,.844,0l4.531,7.115a.5.5,0,0,1-.153.691" transform="translate(353.951 14954.877)" fill="#9eb3c8"/>
        <path id="Trazado_881748" data-name="Trazado 881748" d="M0,0H361.386V370.467H0Z" transform="translate(353.951 14954.877)" fill="none"/>
        <path id="Trazado_881749" data-name="Trazado 881749" d="M7.459-2.842A3.019,3.019,0,0,1,6.442-.674,3.57,3.57,0,0,1,4.025.117a3.21,3.21,0,0,1-2.581-1.1A4.529,4.529,0,0,1,.5-4.02v-.521A5.114,5.114,0,0,1,.938-6.709,3.249,3.249,0,0,1,2.177-8.147a3.471,3.471,0,0,1,1.872-.5,3.478,3.478,0,0,1,2.379.791A3.244,3.244,0,0,1,7.471-5.637H5.713a1.782,1.782,0,0,0-.46-1.2,1.7,1.7,0,0,0-1.2-.372,1.494,1.494,0,0,0-1.315.63,3.53,3.53,0,0,0-.448,1.954v.645A3.778,3.778,0,0,0,2.7-1.957a1.466,1.466,0,0,0,1.321.639A1.735,1.735,0,0,0,5.241-1.69,1.681,1.681,0,0,0,5.7-2.842ZM8.59-.832a.852.852,0,0,1,.272-.656.967.967,0,0,1,.683-.252.975.975,0,0,1,.688.252.852.852,0,0,1,.272.656.841.841,0,0,1-.27.647.979.979,0,0,1-.691.249.971.971,0,0,1-.686-.249A.841.841,0,0,1,8.59-.832Zm9.932-6.275H15.908V0H14.15V-7.107H11.572V-8.531h6.949ZM16.488-.832a.852.852,0,0,1,.272-.656.967.967,0,0,1,.683-.252.975.975,0,0,1,.688.252.852.852,0,0,1,.272.656.841.841,0,0,1-.27.647.979.979,0,0,1-.691.249.971.971,0,0,1-.686-.249A.841.841,0,0,1,16.488-.832ZM28.119-3.7H24.744v2.285h3.961V0H22.986V-8.531h5.707v1.424H24.744v2.033h3.375ZM31.184-6.34l.053.732a2.213,2.213,0,0,1,1.822-.85,1.84,1.84,0,0,1,1.5.592,2.761,2.761,0,0,1,.5,1.77V0H33.369V-4.055a1.1,1.1,0,0,0-.234-.782,1.049,1.049,0,0,0-.779-.243,1.165,1.165,0,0,0-1.072.609V0H29.59V-6.34ZM38.373-7.9V-6.34h1.084V-5.1H38.373v3.164a.756.756,0,0,0,.135.5.677.677,0,0,0,.516.152,2.7,2.7,0,0,0,.5-.041V-.035A3.486,3.486,0,0,1,38.5.117a1.617,1.617,0,0,1-1.816-1.8V-5.1h-.926V-6.34h.926V-7.9ZM43.318.117a3.112,3.112,0,0,1-2.271-.855,3.041,3.041,0,0,1-.876-2.279v-.164a3.83,3.83,0,0,1,.369-1.708,2.709,2.709,0,0,1,1.046-1.16,2.936,2.936,0,0,1,1.544-.407,2.631,2.631,0,0,1,2.048.82,3.333,3.333,0,0,1,.747,2.326v.691H41.889a1.573,1.573,0,0,0,.5,1,1.5,1.5,0,0,0,1.046.375,1.828,1.828,0,0,0,1.529-.709l.832.932a2.542,2.542,0,0,1-1.031.841A3.383,3.383,0,0,1,43.318.117Zm-.193-5.2a1.06,1.06,0,0,0-.817.34,1.756,1.756,0,0,0-.4.973h2.355v-.135a1.252,1.252,0,0,0-.3-.87A1.094,1.094,0,0,0,43.125-5.086Zm7.324.334A4.6,4.6,0,0,0,49.84-4.8a1.24,1.24,0,0,0-1.26.65V0H46.887V-6.34h1.6l.047.756a1.569,1.569,0,0,1,1.412-.873,1.774,1.774,0,0,1,.527.076Zm.232,1.523a3.76,3.76,0,0,1,.363-1.682A2.659,2.659,0,0,1,52.09-6.053a3.051,3.051,0,0,1,1.585-.4,2.887,2.887,0,0,1,2.095.785,3.151,3.151,0,0,1,.905,2.133l.012.434a3.314,3.314,0,0,1-.814,2.341,2.831,2.831,0,0,1-2.186.882A2.845,2.845,0,0,1,51.5-.762a3.372,3.372,0,0,1-.817-2.391Zm1.693.123a2.363,2.363,0,0,0,.34,1.38,1.122,1.122,0,0,0,.973.478,1.124,1.124,0,0,0,.961-.472,2.586,2.586,0,0,0,.346-1.509A2.34,2.34,0,0,0,54.648-4.6a1.124,1.124,0,0,0-.973-.486,1.106,1.106,0,0,0-.961.483A2.63,2.63,0,0,0,52.374-3.105Z" transform="translate(430.22 14950.448) rotate(30.801)" fill="#161615"/>
        <path id="Trazado_881750" data-name="Trazado 881750" d="M5.186-2.238A.9.9,0,0,0,4.834-3a4.611,4.611,0,0,0-1.266-.562,8.972,8.972,0,0,1-1.447-.583A2.365,2.365,0,0,1,.668-6.264,2.06,2.06,0,0,1,1.058-7.5a2.542,2.542,0,0,1,1.119-.847,4.212,4.212,0,0,1,1.638-.3,3.834,3.834,0,0,1,1.629.331,2.594,2.594,0,0,1,1.11.935,2.445,2.445,0,0,1,.4,1.371H5.191a1.15,1.15,0,0,0-.369-.911,1.517,1.517,0,0,0-1.037-.325,1.621,1.621,0,0,0-1,.272.859.859,0,0,0-.357.718.823.823,0,0,0,.419.7,4.733,4.733,0,0,0,1.233.527A5.329,5.329,0,0,1,6.264-3.914,2.229,2.229,0,0,1,6.949-2.25,2.053,2.053,0,0,1,6.111-.513a3.668,3.668,0,0,1-2.256.63,4.356,4.356,0,0,1-1.793-.36A2.837,2.837,0,0,1,.829-1.23,2.528,2.528,0,0,1,.4-2.684H2.168q0,1.412,1.688,1.412a1.642,1.642,0,0,0,.979-.255A.829.829,0,0,0,5.186-2.238ZM11.3-3.123H9.9V0H8.139V-8.531h3.17a3.583,3.583,0,0,1,2.332.674,2.326,2.326,0,0,1,.82,1.9A2.625,2.625,0,0,1,14.083-4.5a2.578,2.578,0,0,1-1.146.929L14.783-.082V0H12.9ZM9.9-4.547h1.418a1.452,1.452,0,0,0,1.025-.337,1.2,1.2,0,0,0,.363-.929,1.289,1.289,0,0,0-.343-.949,1.424,1.424,0,0,0-1.052-.346H9.9Z" transform="translate(437.979 14972.813) rotate(30.801)" fill="#161615"/>
        <path id="Trazado_881751" data-name="Trazado 881751" d="M2.52-1.412H6.252V0H.762V-8.531H2.52ZM8.977,0H7.283V-6.34H8.977Zm-.5-8.912h1.846L8.7-7.1H7.324ZM11.994-6.34l.053.732a2.213,2.213,0,0,1,1.822-.85,1.84,1.84,0,0,1,1.5.592,2.761,2.761,0,0,1,.5,1.77V0H14.18V-4.055a1.1,1.1,0,0,0-.234-.782,1.049,1.049,0,0,0-.779-.243,1.165,1.165,0,0,0-1.072.609V0H10.4V-6.34ZM20.074.117A3.112,3.112,0,0,1,17.8-.738a3.041,3.041,0,0,1-.876-2.279v-.164A3.83,3.83,0,0,1,17.3-4.89a2.709,2.709,0,0,1,1.046-1.16,2.936,2.936,0,0,1,1.544-.407,2.631,2.631,0,0,1,2.048.82,3.333,3.333,0,0,1,.747,2.326v.691H18.645a1.573,1.573,0,0,0,.5,1,1.5,1.5,0,0,0,1.046.375,1.828,1.828,0,0,0,1.529-.709l.832.932a2.542,2.542,0,0,1-1.031.841A3.383,3.383,0,0,1,20.074.117Zm-.193-5.2a1.06,1.06,0,0,0-.817.34,1.756,1.756,0,0,0-.4.973h2.355v-.135a1.252,1.252,0,0,0-.3-.87A1.094,1.094,0,0,0,19.881-5.086ZM27.316,0a1.88,1.88,0,0,1-.17-.568,2.049,2.049,0,0,1-1.6.686A2.251,2.251,0,0,1,24-.422a1.734,1.734,0,0,1-.612-1.359,1.792,1.792,0,0,1,.747-1.547A3.686,3.686,0,0,1,26.3-3.873h.779v-.363a1.045,1.045,0,0,0-.226-.7.887.887,0,0,0-.712-.264A1.009,1.009,0,0,0,25.468-5a.7.7,0,0,0-.243.563H23.531a1.7,1.7,0,0,1,.34-1.02,2.246,2.246,0,0,1,.961-.735,3.5,3.5,0,0,1,1.395-.267,2.767,2.767,0,0,1,1.86.589,2.06,2.06,0,0,1,.688,1.655v2.748A3.031,3.031,0,0,0,29.027-.1V0Zm-1.4-1.178a1.458,1.458,0,0,0,.691-.167,1.1,1.1,0,0,0,.469-.448v-1.09h-.633q-1.271,0-1.354.879l-.006.1a.678.678,0,0,0,.223.521A.865.865,0,0,0,25.916-1.178ZM38.777-3.111a3.839,3.839,0,0,1-.65,2.376,2.154,2.154,0,0,1-1.816.853,1.979,1.979,0,0,1-1.646-.791L34.588,0H33.064V-9h1.693v3.229A1.929,1.929,0,0,1,36.3-6.457a2.172,2.172,0,0,1,1.819.853,3.845,3.845,0,0,1,.659,2.4Zm-1.693-.123a2.522,2.522,0,0,0-.3-1.4,1.03,1.03,0,0,0-.908-.442,1.117,1.117,0,0,0-1.113.662v2.5a1.132,1.132,0,0,0,1.125.668,1.045,1.045,0,0,0,1.078-.809A4.171,4.171,0,0,0,37.084-3.234Zm6.533,2.59a2.124,2.124,0,0,1-1.734.762,2,2,0,0,1-1.556-.586,2.5,2.5,0,0,1-.548-1.717V-6.34h1.693v4.1q0,.99.9.99a1.223,1.223,0,0,0,1.184-.6V-6.34h1.7V0H43.664Zm6.352-1.107a.546.546,0,0,0-.308-.489,3.494,3.494,0,0,0-.987-.319q-2.262-.475-2.262-1.922a1.742,1.742,0,0,1,.7-1.409,2.824,2.824,0,0,1,1.831-.565,3.04,3.04,0,0,1,1.931.568A1.791,1.791,0,0,1,51.6-4.412H49.9a.819.819,0,0,0-.234-.6.992.992,0,0,0-.732-.237,1.013,1.013,0,0,0-.662.193.61.61,0,0,0-.234.492.522.522,0,0,0,.267.454,2.743,2.743,0,0,0,.9.3,7.346,7.346,0,0,1,1.066.284,1.752,1.752,0,0,1,1.342,1.705,1.654,1.654,0,0,1-.744,1.4,3.21,3.21,0,0,1-1.922.536,3.353,3.353,0,0,1-1.415-.284,2.374,2.374,0,0,1-.97-.779,1.811,1.811,0,0,1-.352-1.069h1.605a.884.884,0,0,0,.334.691,1.325,1.325,0,0,0,.832.24,1.226,1.226,0,0,0,.735-.185A.574.574,0,0,0,49.969-1.752ZM54.732-7.9V-6.34h1.084V-5.1H54.732v3.164a.756.756,0,0,0,.135.5.677.677,0,0,0,.516.152,2.7,2.7,0,0,0,.5-.041V-.035a3.486,3.486,0,0,1-1.025.152,1.617,1.617,0,0,1-1.816-1.8V-5.1h-.926V-6.34h.926V-7.9Zm1.588,4.67a3.76,3.76,0,0,1,.363-1.682,2.659,2.659,0,0,1,1.046-1.143,3.051,3.051,0,0,1,1.585-.4,2.887,2.887,0,0,1,2.095.785,3.151,3.151,0,0,1,.905,2.133l.012.434a3.314,3.314,0,0,1-.814,2.341,2.831,2.831,0,0,1-2.186.882,2.845,2.845,0,0,1-2.188-.879,3.372,3.372,0,0,1-.817-2.391Zm1.693.123a2.363,2.363,0,0,0,.34,1.38,1.122,1.122,0,0,0,.973.478,1.124,1.124,0,0,0,.961-.472,2.586,2.586,0,0,0,.346-1.509A2.34,2.34,0,0,0,60.287-4.6a1.124,1.124,0,0,0-.973-.486,1.106,1.106,0,0,0-.961.483A2.63,2.63,0,0,0,58.014-3.105Z" transform="translate(450.332 15140.771)" fill="#161615"/>
        <path id="Trazado_881752" data-name="Trazado 881752" d="M7.459-2.842A3.019,3.019,0,0,1,6.442-.674,3.57,3.57,0,0,1,4.025.117a3.21,3.21,0,0,1-2.581-1.1A4.529,4.529,0,0,1,.5-4.02v-.521A5.114,5.114,0,0,1,.938-6.709,3.249,3.249,0,0,1,2.177-8.147a3.471,3.471,0,0,1,1.872-.5,3.478,3.478,0,0,1,2.379.791A3.244,3.244,0,0,1,7.471-5.637H5.713a1.782,1.782,0,0,0-.46-1.2,1.7,1.7,0,0,0-1.2-.372,1.494,1.494,0,0,0-1.315.63,3.53,3.53,0,0,0-.448,1.954v.645A3.778,3.778,0,0,0,2.7-1.957a1.466,1.466,0,0,0,1.321.639A1.735,1.735,0,0,0,5.241-1.69,1.681,1.681,0,0,0,5.7-2.842Zm4.605-1.91a4.6,4.6,0,0,0-.609-.047,1.24,1.24,0,0,0-1.26.65V0H8.5V-6.34h1.6l.047.756a1.569,1.569,0,0,1,1.412-.873,1.774,1.774,0,0,1,.527.076ZM15.689.117a3.112,3.112,0,0,1-2.271-.855,3.041,3.041,0,0,1-.876-2.279v-.164a3.83,3.83,0,0,1,.369-1.708,2.709,2.709,0,0,1,1.046-1.16A2.936,2.936,0,0,1,15.5-6.457a2.631,2.631,0,0,1,2.048.82A3.333,3.333,0,0,1,18.3-3.311v.691H14.259a1.573,1.573,0,0,0,.5,1,1.5,1.5,0,0,0,1.046.375,1.828,1.828,0,0,0,1.529-.709l.832.932a2.542,2.542,0,0,1-1.031.841A3.383,3.383,0,0,1,15.689.117Zm-.193-5.2a1.06,1.06,0,0,0-.817.34,1.756,1.756,0,0,0-.4.973h2.355v-.135a1.252,1.252,0,0,0-.3-.87A1.094,1.094,0,0,0,15.5-5.086Zm5.35-1.254.053.709a2.228,2.228,0,0,1,1.822-.826A1.691,1.691,0,0,1,24.4-5.49a2.177,2.177,0,0,1,1.9-.967,1.891,1.891,0,0,1,1.535.6,2.761,2.761,0,0,1,.5,1.808V0h-1.7V-4.043a1.207,1.207,0,0,0-.211-.788.935.935,0,0,0-.744-.249,1.057,1.057,0,0,0-1.055.727L24.642,0H22.949V-4.037a1.193,1.193,0,0,0-.217-.8.944.944,0,0,0-.738-.246,1.1,1.1,0,0,0-1.043.6V0H19.257V-6.34ZM33.32,0a1.88,1.88,0,0,1-.17-.568,2.049,2.049,0,0,1-1.6.686,2.251,2.251,0,0,1-1.544-.539,1.734,1.734,0,0,1-.612-1.359,1.792,1.792,0,0,1,.747-1.547A3.686,3.686,0,0,1,32.3-3.873h.779v-.363a1.045,1.045,0,0,0-.226-.7.887.887,0,0,0-.712-.264A1.009,1.009,0,0,0,31.471-5a.7.7,0,0,0-.243.563H29.535a1.7,1.7,0,0,1,.34-1.02,2.246,2.246,0,0,1,.961-.735,3.5,3.5,0,0,1,1.395-.267,2.767,2.767,0,0,1,1.86.589,2.06,2.06,0,0,1,.688,1.655v2.748A3.031,3.031,0,0,0,35.031-.1V0Zm-1.4-1.178a1.458,1.458,0,0,0,.691-.167,1.1,1.1,0,0,0,.469-.448v-1.09h-.633q-1.271,0-1.354.879l-.006.1a.678.678,0,0,0,.223.521A.865.865,0,0,0,31.919-1.178ZM37.867,0h-1.7V-9h1.7Zm3.182,0h-1.7V-9h1.7Zm4.313.117A3.112,3.112,0,0,1,43.09-.738a3.041,3.041,0,0,1-.876-2.279v-.164a3.83,3.83,0,0,1,.369-1.708,2.709,2.709,0,0,1,1.046-1.16,2.936,2.936,0,0,1,1.544-.407,2.631,2.631,0,0,1,2.048.82,3.333,3.333,0,0,1,.747,2.326v.691H43.931a1.573,1.573,0,0,0,.5,1,1.5,1.5,0,0,0,1.046.375A1.828,1.828,0,0,0,47-1.957l.832.932A2.542,2.542,0,0,1,46.8-.185,3.383,3.383,0,0,1,45.361.117Zm-.193-5.2a1.06,1.06,0,0,0-.817.34,1.756,1.756,0,0,0-.4.973H46.3v-.135a1.252,1.252,0,0,0-.3-.87A1.094,1.094,0,0,0,45.167-5.086Zm7.324.334a4.6,4.6,0,0,0-.609-.047,1.24,1.24,0,0,0-1.26.65V0H48.929V-6.34h1.6l.047.756a1.569,1.569,0,0,1,1.412-.873,1.774,1.774,0,0,1,.527.076ZM56.8,0a1.88,1.88,0,0,1-.17-.568,2.049,2.049,0,0,1-1.6.686,2.251,2.251,0,0,1-1.544-.539,1.734,1.734,0,0,1-.612-1.359,1.792,1.792,0,0,1,.747-1.547,3.686,3.686,0,0,1,2.159-.545h.779v-.363a1.045,1.045,0,0,0-.226-.7.887.887,0,0,0-.712-.264A1.009,1.009,0,0,0,54.955-5a.7.7,0,0,0-.243.563H53.019a1.7,1.7,0,0,1,.34-1.02,2.246,2.246,0,0,1,.961-.735,3.5,3.5,0,0,1,1.395-.267,2.767,2.767,0,0,1,1.86.589,2.06,2.06,0,0,1,.688,1.655v2.748A3.031,3.031,0,0,0,58.515-.1V0ZM55.4-1.178a1.458,1.458,0,0,0,.691-.167,1.1,1.1,0,0,0,.469-.448v-1.09h-.633q-1.271,0-1.354.879l-.006.1a.678.678,0,0,0,.223.521A.865.865,0,0,0,55.4-1.178Z" transform="translate(455.922 15115.928) rotate(-83.607)" fill="#161615"/>
        <path id="Trazado_881753" data-name="Trazado 881753" d="M2.52-1.412H6.252V0H.762V-8.531H2.52ZM8.977,0H7.283V-6.34H8.977Zm-.5-8.912h1.846L8.7-7.1H7.324ZM11.994-6.34l.053.732a2.213,2.213,0,0,1,1.822-.85,1.84,1.84,0,0,1,1.5.592,2.761,2.761,0,0,1,.5,1.77V0H14.18V-4.055a1.1,1.1,0,0,0-.234-.782,1.049,1.049,0,0,0-.779-.243,1.165,1.165,0,0,0-1.072.609V0H10.4V-6.34ZM20.074.117A3.112,3.112,0,0,1,17.8-.738a3.041,3.041,0,0,1-.876-2.279v-.164A3.83,3.83,0,0,1,17.3-4.89a2.709,2.709,0,0,1,1.046-1.16,2.936,2.936,0,0,1,1.544-.407,2.631,2.631,0,0,1,2.048.82,3.333,3.333,0,0,1,.747,2.326v.691H18.645a1.573,1.573,0,0,0,.5,1,1.5,1.5,0,0,0,1.046.375,1.828,1.828,0,0,0,1.529-.709l.832.932a2.542,2.542,0,0,1-1.031.841A3.383,3.383,0,0,1,20.074.117Zm-.193-5.2a1.06,1.06,0,0,0-.817.34,1.756,1.756,0,0,0-.4.973h2.355v-.135a1.252,1.252,0,0,0-.3-.87A1.094,1.094,0,0,0,19.881-5.086ZM27.316,0a1.88,1.88,0,0,1-.17-.568,2.049,2.049,0,0,1-1.6.686A2.251,2.251,0,0,1,24-.422a1.734,1.734,0,0,1-.612-1.359,1.792,1.792,0,0,1,.747-1.547A3.686,3.686,0,0,1,26.3-3.873h.779v-.363a1.045,1.045,0,0,0-.226-.7.887.887,0,0,0-.712-.264A1.009,1.009,0,0,0,25.468-5a.7.7,0,0,0-.243.563H23.531a1.7,1.7,0,0,1,.34-1.02,2.246,2.246,0,0,1,.961-.735,3.5,3.5,0,0,1,1.395-.267,2.767,2.767,0,0,1,1.86.589,2.06,2.06,0,0,1,.688,1.655v2.748A3.031,3.031,0,0,0,29.027-.1V0Zm-1.4-1.178a1.458,1.458,0,0,0,.691-.167,1.1,1.1,0,0,0,.469-.448v-1.09h-.633q-1.271,0-1.354.879l-.006.1a.678.678,0,0,0,.223.521A.865.865,0,0,0,25.916-1.178ZM38.777-3.111a3.839,3.839,0,0,1-.65,2.376,2.154,2.154,0,0,1-1.816.853,1.979,1.979,0,0,1-1.646-.791L34.588,0H33.064V-9h1.693v3.229A1.929,1.929,0,0,1,36.3-6.457a2.172,2.172,0,0,1,1.819.853,3.845,3.845,0,0,1,.659,2.4Zm-1.693-.123a2.522,2.522,0,0,0-.3-1.4,1.03,1.03,0,0,0-.908-.442,1.117,1.117,0,0,0-1.113.662v2.5a1.132,1.132,0,0,0,1.125.668,1.045,1.045,0,0,0,1.078-.809A4.171,4.171,0,0,0,37.084-3.234Zm6.533,2.59a2.124,2.124,0,0,1-1.734.762,2,2,0,0,1-1.556-.586,2.5,2.5,0,0,1-.548-1.717V-6.34h1.693v4.1q0,.99.9.99a1.223,1.223,0,0,0,1.184-.6V-6.34h1.7V0H43.664Zm6.352-1.107a.546.546,0,0,0-.308-.489,3.494,3.494,0,0,0-.987-.319q-2.262-.475-2.262-1.922a1.742,1.742,0,0,1,.7-1.409,2.824,2.824,0,0,1,1.831-.565,3.04,3.04,0,0,1,1.931.568A1.791,1.791,0,0,1,51.6-4.412H49.9a.819.819,0,0,0-.234-.6.992.992,0,0,0-.732-.237,1.013,1.013,0,0,0-.662.193.61.61,0,0,0-.234.492.522.522,0,0,0,.267.454,2.743,2.743,0,0,0,.9.3,7.346,7.346,0,0,1,1.066.284,1.752,1.752,0,0,1,1.342,1.705,1.654,1.654,0,0,1-.744,1.4,3.21,3.21,0,0,1-1.922.536,3.353,3.353,0,0,1-1.415-.284,2.374,2.374,0,0,1-.97-.779,1.811,1.811,0,0,1-.352-1.069h1.605a.884.884,0,0,0,.334.691,1.325,1.325,0,0,0,.832.24,1.226,1.226,0,0,0,.735-.185A.574.574,0,0,0,49.969-1.752ZM54.732-7.9V-6.34h1.084V-5.1H54.732v3.164a.756.756,0,0,0,.135.5.677.677,0,0,0,.516.152,2.7,2.7,0,0,0,.5-.041V-.035a3.486,3.486,0,0,1-1.025.152,1.617,1.617,0,0,1-1.816-1.8V-5.1h-.926V-6.34h.926V-7.9Zm1.588,4.67a3.76,3.76,0,0,1,.363-1.682,2.659,2.659,0,0,1,1.046-1.143,3.051,3.051,0,0,1,1.585-.4,2.887,2.887,0,0,1,2.095.785,3.151,3.151,0,0,1,.905,2.133l.012.434a3.314,3.314,0,0,1-.814,2.341,2.831,2.831,0,0,1-2.186.882,2.845,2.845,0,0,1-2.188-.879,3.372,3.372,0,0,1-.817-2.391Zm1.693.123a2.363,2.363,0,0,0,.34,1.38,1.122,1.122,0,0,0,.973.478,1.124,1.124,0,0,0,.961-.472,2.586,2.586,0,0,0,.346-1.509A2.34,2.34,0,0,0,60.287-4.6a1.124,1.124,0,0,0-.973-.486,1.106,1.106,0,0,0-.961.483A2.63,2.63,0,0,0,58.014-3.105Z" transform="translate(615.543 15145.8) rotate(3.368)" fill="#161615"/>
        <path id="Trazado_881754" data-name="Trazado 881754" d="M2.52-1.412H6.252V0H.762V-8.531H2.52ZM8.977,0H7.283V-6.34H8.977Zm-.5-8.912h1.846L8.7-7.1H7.324ZM11.994-6.34l.053.732a2.213,2.213,0,0,1,1.822-.85,1.84,1.84,0,0,1,1.5.592,2.761,2.761,0,0,1,.5,1.77V0H14.18V-4.055a1.1,1.1,0,0,0-.234-.782,1.049,1.049,0,0,0-.779-.243,1.165,1.165,0,0,0-1.072.609V0H10.4V-6.34ZM20.074.117A3.112,3.112,0,0,1,17.8-.738a3.041,3.041,0,0,1-.876-2.279v-.164A3.83,3.83,0,0,1,17.3-4.89a2.709,2.709,0,0,1,1.046-1.16,2.936,2.936,0,0,1,1.544-.407,2.631,2.631,0,0,1,2.048.82,3.333,3.333,0,0,1,.747,2.326v.691H18.645a1.573,1.573,0,0,0,.5,1,1.5,1.5,0,0,0,1.046.375,1.828,1.828,0,0,0,1.529-.709l.832.932a2.542,2.542,0,0,1-1.031.841A3.383,3.383,0,0,1,20.074.117Zm-.193-5.2a1.06,1.06,0,0,0-.817.34,1.756,1.756,0,0,0-.4.973h2.355v-.135a1.252,1.252,0,0,0-.3-.87A1.094,1.094,0,0,0,19.881-5.086ZM27.316,0a1.88,1.88,0,0,1-.17-.568,2.049,2.049,0,0,1-1.6.686A2.251,2.251,0,0,1,24-.422a1.734,1.734,0,0,1-.612-1.359,1.792,1.792,0,0,1,.747-1.547A3.686,3.686,0,0,1,26.3-3.873h.779v-.363a1.045,1.045,0,0,0-.226-.7.887.887,0,0,0-.712-.264A1.009,1.009,0,0,0,25.468-5a.7.7,0,0,0-.243.563H23.531a1.7,1.7,0,0,1,.34-1.02,2.246,2.246,0,0,1,.961-.735,3.5,3.5,0,0,1,1.395-.267,2.767,2.767,0,0,1,1.86.589,2.06,2.06,0,0,1,.688,1.655v2.748A3.031,3.031,0,0,0,29.027-.1V0Zm-1.4-1.178a1.458,1.458,0,0,0,.691-.167,1.1,1.1,0,0,0,.469-.448v-1.09h-.633q-1.271,0-1.354.879l-.006.1a.678.678,0,0,0,.223.521A.865.865,0,0,0,25.916-1.178Zm8.8-4.471a2.113,2.113,0,0,1,1.693-.809q2.063,0,2.092,2.4V0H36.809V-4.014a1.178,1.178,0,0,0-.234-.806,1,1,0,0,0-.779-.261,1.153,1.153,0,0,0-1.078.574V0H33.023V-9h1.693Zm4.8,2.42a3.76,3.76,0,0,1,.363-1.682,2.659,2.659,0,0,1,1.046-1.143,3.051,3.051,0,0,1,1.585-.4,2.887,2.887,0,0,1,2.095.785,3.151,3.151,0,0,1,.905,2.133l.012.434a3.314,3.314,0,0,1-.814,2.341,2.831,2.831,0,0,1-2.186.882,2.845,2.845,0,0,1-2.188-.879,3.372,3.372,0,0,1-.817-2.391Zm1.693.123a2.363,2.363,0,0,0,.34,1.38,1.122,1.122,0,0,0,.973.478,1.124,1.124,0,0,0,.961-.472,2.586,2.586,0,0,0,.346-1.509A2.34,2.34,0,0,0,43.482-4.6a1.124,1.124,0,0,0-.973-.486,1.106,1.106,0,0,0-.961.483A2.63,2.63,0,0,0,41.209-3.105ZM48.152-6.34l.053.709a2.228,2.228,0,0,1,1.822-.826,1.691,1.691,0,0,1,1.682.967,2.177,2.177,0,0,1,1.9-.967,1.891,1.891,0,0,1,1.535.6,2.761,2.761,0,0,1,.5,1.808V0h-1.7V-4.043a1.207,1.207,0,0,0-.211-.788A.935.935,0,0,0,53-5.08a1.057,1.057,0,0,0-1.055.727L51.949,0H50.256V-4.037a1.193,1.193,0,0,0-.217-.8A.944.944,0,0,0,49.3-5.08a1.1,1.1,0,0,0-1.043.6V0H46.564V-6.34ZM62.666-3.111a3.839,3.839,0,0,1-.65,2.376A2.154,2.154,0,0,1,60.2.117a1.979,1.979,0,0,1-1.646-.791L58.477,0H56.953V-9h1.693v3.229a1.929,1.929,0,0,1,1.541-.686,2.172,2.172,0,0,1,1.819.853,3.845,3.845,0,0,1,.659,2.4Zm-1.693-.123a2.522,2.522,0,0,0-.3-1.4,1.03,1.03,0,0,0-.908-.442,1.117,1.117,0,0,0-1.113.662v2.5a1.132,1.132,0,0,0,1.125.668,1.045,1.045,0,0,0,1.078-.809A4.171,4.171,0,0,0,60.973-3.234Zm6.3-1.518a4.6,4.6,0,0,0-.609-.047,1.24,1.24,0,0,0-1.26.65V0H63.709V-6.34h1.6l.047.756a1.569,1.569,0,0,1,1.412-.873,1.774,1.774,0,0,1,.527.076ZM67.5-3.229a3.76,3.76,0,0,1,.363-1.682,2.659,2.659,0,0,1,1.046-1.143,3.051,3.051,0,0,1,1.585-.4,2.887,2.887,0,0,1,2.095.785A3.151,3.151,0,0,1,73.5-3.539l.012.434a3.314,3.314,0,0,1-.814,2.341,2.831,2.831,0,0,1-2.186.882,2.845,2.845,0,0,1-2.188-.879A3.372,3.372,0,0,1,67.5-3.152Zm1.693.123a2.363,2.363,0,0,0,.34,1.38,1.122,1.122,0,0,0,.973.478,1.124,1.124,0,0,0,.961-.472,2.586,2.586,0,0,0,.346-1.509A2.34,2.34,0,0,0,71.47-4.6a1.124,1.124,0,0,0-.973-.486,1.106,1.106,0,0,0-.961.483A2.63,2.63,0,0,0,69.2-3.105Z" transform="translate(601.553 15104.756) rotate(3.368)" fill="#161615"/>
        <path id="Trazado_881755" data-name="Trazado 881755" d="M7.459-2.842A3.019,3.019,0,0,1,6.442-.674,3.57,3.57,0,0,1,4.025.117a3.21,3.21,0,0,1-2.581-1.1A4.529,4.529,0,0,1,.5-4.02v-.521A5.114,5.114,0,0,1,.938-6.709,3.249,3.249,0,0,1,2.177-8.147a3.471,3.471,0,0,1,1.872-.5,3.478,3.478,0,0,1,2.379.791A3.244,3.244,0,0,1,7.471-5.637H5.713a1.782,1.782,0,0,0-.46-1.2,1.7,1.7,0,0,0-1.2-.372,1.494,1.494,0,0,0-1.315.63,3.53,3.53,0,0,0-.448,1.954v.645A3.778,3.778,0,0,0,2.7-1.957a1.466,1.466,0,0,0,1.321.639A1.735,1.735,0,0,0,5.241-1.69,1.681,1.681,0,0,0,5.7-2.842ZM10.289,0H8.59V-6.34h1.7ZM8.49-7.98a.834.834,0,0,1,.255-.627.958.958,0,0,1,.694-.246.96.96,0,0,1,.691.246.829.829,0,0,1,.258.627.831.831,0,0,1-.261.633.962.962,0,0,1-.688.246.962.962,0,0,1-.688-.246A.831.831,0,0,1,8.49-7.98ZM13.242-6.34l.053.732a2.213,2.213,0,0,1,1.822-.85,1.84,1.84,0,0,1,1.5.592,2.761,2.761,0,0,1,.5,1.77V0H15.428V-4.055a1.1,1.1,0,0,0-.234-.782,1.049,1.049,0,0,0-.779-.243,1.165,1.165,0,0,0-1.072.609V0H11.648V-6.34ZM20.432-7.9V-6.34h1.084V-5.1H20.432v3.164a.756.756,0,0,0,.135.5.677.677,0,0,0,.516.152,2.7,2.7,0,0,0,.5-.041V-.035a3.486,3.486,0,0,1-1.025.152,1.617,1.617,0,0,1-1.816-1.8V-5.1h-.926V-6.34h.926V-7.9ZM26.256-.645a2.124,2.124,0,0,1-1.734.762,2,2,0,0,1-1.556-.586,2.5,2.5,0,0,1-.548-1.717V-6.34h1.693v4.1q0,.99.9.99a1.223,1.223,0,0,0,1.184-.6V-6.34h1.7V0H26.3Zm6.48-4.107a4.6,4.6,0,0,0-.609-.047,1.24,1.24,0,0,0-1.26.65V0H29.174V-6.34h1.6l.047.756a1.569,1.569,0,0,1,1.412-.873,1.774,1.774,0,0,1,.527.076ZM37.049,0a1.88,1.88,0,0,1-.17-.568,2.049,2.049,0,0,1-1.6.686,2.251,2.251,0,0,1-1.544-.539,1.734,1.734,0,0,1-.612-1.359,1.792,1.792,0,0,1,.747-1.547,3.686,3.686,0,0,1,2.159-.545h.779v-.363a1.045,1.045,0,0,0-.226-.7.887.887,0,0,0-.712-.264A1.009,1.009,0,0,0,35.2-5a.7.7,0,0,0-.243.563H33.264a1.7,1.7,0,0,1,.34-1.02,2.246,2.246,0,0,1,.961-.735,3.5,3.5,0,0,1,1.395-.267,2.767,2.767,0,0,1,1.86.589,2.06,2.06,0,0,1,.688,1.655v2.748A3.031,3.031,0,0,0,38.76-.1V0Zm-1.4-1.178a1.458,1.458,0,0,0,.691-.167,1.1,1.1,0,0,0,.469-.448v-1.09h-.633q-1.271,0-1.354.879l-.006.1a.678.678,0,0,0,.223.521A.865.865,0,0,0,35.648-1.178Z" transform="translate(478.246 15251.107) rotate(4.389)" fill="#161615"/>
        <path id="Trazado_881756" data-name="Trazado 881756" d="M7.459-2.842A3.019,3.019,0,0,1,6.442-.674,3.57,3.57,0,0,1,4.025.117a3.21,3.21,0,0,1-2.581-1.1A4.529,4.529,0,0,1,.5-4.02v-.521A5.114,5.114,0,0,1,.938-6.709,3.249,3.249,0,0,1,2.177-8.147a3.471,3.471,0,0,1,1.872-.5,3.478,3.478,0,0,1,2.379.791A3.244,3.244,0,0,1,7.471-5.637H5.713a1.782,1.782,0,0,0-.46-1.2,1.7,1.7,0,0,0-1.2-.372,1.494,1.494,0,0,0-1.315.63,3.53,3.53,0,0,0-.448,1.954v.645A3.778,3.778,0,0,0,2.7-1.957a1.466,1.466,0,0,0,1.321.639A1.735,1.735,0,0,0,5.241-1.69,1.681,1.681,0,0,0,5.7-2.842ZM10.289,0H8.59V-6.34h1.7ZM8.49-7.98a.834.834,0,0,1,.255-.627.958.958,0,0,1,.694-.246.96.96,0,0,1,.691.246.829.829,0,0,1,.258.627.831.831,0,0,1-.261.633.962.962,0,0,1-.688.246.962.962,0,0,1-.688-.246A.831.831,0,0,1,8.49-7.98ZM13.242-6.34l.053.732a2.213,2.213,0,0,1,1.822-.85,1.84,1.84,0,0,1,1.5.592,2.761,2.761,0,0,1,.5,1.77V0H15.428V-4.055a1.1,1.1,0,0,0-.234-.782,1.049,1.049,0,0,0-.779-.243,1.165,1.165,0,0,0-1.072.609V0H11.648V-6.34ZM20.432-7.9V-6.34h1.084V-5.1H20.432v3.164a.756.756,0,0,0,.135.5.677.677,0,0,0,.516.152,2.7,2.7,0,0,0,.5-.041V-.035a3.486,3.486,0,0,1-1.025.152,1.617,1.617,0,0,1-1.816-1.8V-5.1h-.926V-6.34h.926V-7.9ZM26.256-.645a2.124,2.124,0,0,1-1.734.762,2,2,0,0,1-1.556-.586,2.5,2.5,0,0,1-.548-1.717V-6.34h1.693v4.1q0,.99.9.99a1.223,1.223,0,0,0,1.184-.6V-6.34h1.7V0H26.3Zm6.48-4.107a4.6,4.6,0,0,0-.609-.047,1.24,1.24,0,0,0-1.26.65V0H29.174V-6.34h1.6l.047.756a1.569,1.569,0,0,1,1.412-.873,1.774,1.774,0,0,1,.527.076ZM37.049,0a1.88,1.88,0,0,1-.17-.568,2.049,2.049,0,0,1-1.6.686,2.251,2.251,0,0,1-1.544-.539,1.734,1.734,0,0,1-.612-1.359,1.792,1.792,0,0,1,.747-1.547,3.686,3.686,0,0,1,2.159-.545h.779v-.363a1.045,1.045,0,0,0-.226-.7.887.887,0,0,0-.712-.264A1.009,1.009,0,0,0,35.2-5a.7.7,0,0,0-.243.563H33.264a1.7,1.7,0,0,1,.34-1.02,2.246,2.246,0,0,1,.961-.735,3.5,3.5,0,0,1,1.395-.267,2.767,2.767,0,0,1,1.86.589,2.06,2.06,0,0,1,.688,1.655v2.748A3.031,3.031,0,0,0,38.76-.1V0Zm-1.4-1.178a1.458,1.458,0,0,0,.691-.167,1.1,1.1,0,0,0,.469-.448v-1.09h-.633q-1.271,0-1.354.879l-.006.1a.678.678,0,0,0,.223.521A.865.865,0,0,0,35.648-1.178Z" transform="translate(630.309 15266.081) rotate(4.389)" fill="#161615"/>
        <path id="Trazado_881757" data-name="Trazado 881757" d="M2.438,0H.738V-9h1.7ZM5.619,0H3.92V-6.34h1.7ZM3.82-7.98a.834.834,0,0,1,.255-.627.958.958,0,0,1,.694-.246.96.96,0,0,1,.691.246.829.829,0,0,1,.258.627.831.831,0,0,1-.261.633A.962.962,0,0,1,4.77-7.1a.962.962,0,0,1-.688-.246A.831.831,0,0,1,3.82-7.98ZM8.572-6.34l.053.732a2.213,2.213,0,0,1,1.822-.85,1.84,1.84,0,0,1,1.5.592,2.761,2.761,0,0,1,.5,1.77V0H10.758V-4.055a1.1,1.1,0,0,0-.234-.782,1.049,1.049,0,0,0-.779-.243,1.165,1.165,0,0,0-1.072.609V0H6.979V-6.34ZM16.652.117a3.112,3.112,0,0,1-2.271-.855,3.041,3.041,0,0,1-.876-2.279v-.164a3.83,3.83,0,0,1,.369-1.708,2.709,2.709,0,0,1,1.046-1.16,2.936,2.936,0,0,1,1.544-.407,2.631,2.631,0,0,1,2.048.82,3.333,3.333,0,0,1,.747,2.326v.691H15.223a1.573,1.573,0,0,0,.5,1,1.5,1.5,0,0,0,1.046.375,1.828,1.828,0,0,0,1.529-.709l.832.932a2.542,2.542,0,0,1-1.031.841A3.383,3.383,0,0,1,16.652.117Zm-.193-5.2a1.06,1.06,0,0,0-.817.34,1.756,1.756,0,0,0-.4.973H17.6v-.135a1.252,1.252,0,0,0-.3-.87A1.094,1.094,0,0,0,16.459-5.086ZM23.895,0a1.88,1.88,0,0,1-.17-.568,2.049,2.049,0,0,1-1.6.686,2.251,2.251,0,0,1-1.544-.539,1.734,1.734,0,0,1-.612-1.359,1.792,1.792,0,0,1,.747-1.547,3.686,3.686,0,0,1,2.159-.545h.779v-.363a1.045,1.045,0,0,0-.226-.7.887.887,0,0,0-.712-.264A1.009,1.009,0,0,0,22.046-5a.7.7,0,0,0-.243.563H20.109a1.7,1.7,0,0,1,.34-1.02,2.246,2.246,0,0,1,.961-.735A3.5,3.5,0,0,1,22.8-6.457a2.767,2.767,0,0,1,1.86.589,2.06,2.06,0,0,1,.688,1.655v2.748A3.031,3.031,0,0,0,25.605-.1V0Zm-1.4-1.178a1.458,1.458,0,0,0,.691-.167,1.1,1.1,0,0,0,.469-.448v-1.09h-.633q-1.271,0-1.354.879l-.006.1a.678.678,0,0,0,.223.521A.865.865,0,0,0,22.494-1.178Zm6.885-2.039a3.821,3.821,0,0,1,.665-2.361,2.158,2.158,0,0,1,1.819-.879,1.942,1.942,0,0,1,1.529.691V-9h1.7V0H33.563L33.48-.674a1.993,1.993,0,0,1-1.629.791,2.152,2.152,0,0,1-1.8-.882A3.944,3.944,0,0,1,29.379-3.217Zm1.693.123a2.5,2.5,0,0,0,.311,1.365,1.012,1.012,0,0,0,.9.475,1.133,1.133,0,0,0,1.107-.662v-2.5a1.117,1.117,0,0,0-1.1-.662Q31.072-5.08,31.072-3.094ZM39.322.117a3.112,3.112,0,0,1-2.271-.855,3.041,3.041,0,0,1-.876-2.279v-.164a3.83,3.83,0,0,1,.369-1.708,2.709,2.709,0,0,1,1.046-1.16,2.936,2.936,0,0,1,1.544-.407,2.631,2.631,0,0,1,2.048.82,3.333,3.333,0,0,1,.747,2.326v.691H37.893a1.573,1.573,0,0,0,.5,1,1.5,1.5,0,0,0,1.046.375,1.828,1.828,0,0,0,1.529-.709l.832.932a2.542,2.542,0,0,1-1.031.841A3.383,3.383,0,0,1,39.322.117Zm-.193-5.2a1.06,1.06,0,0,0-.817.34,1.756,1.756,0,0,0-.4.973h2.355v-.135a1.252,1.252,0,0,0-.3-.87A1.094,1.094,0,0,0,39.129-5.086ZM44.678,0h-1.7V-9h1.7ZM46.16-.832a.852.852,0,0,1,.272-.656.967.967,0,0,1,.683-.252.975.975,0,0,1,.688.252.852.852,0,0,1,.272.656.841.841,0,0,1-.27.647.979.979,0,0,1-.691.249.971.971,0,0,1-.686-.249A.841.841,0,0,1,46.16-.832ZM54.334,0h-1.7V-6.34h1.7Zm-1.8-7.98a.834.834,0,0,1,.255-.627.958.958,0,0,1,.694-.246.96.96,0,0,1,.691.246.829.829,0,0,1,.258.627.831.831,0,0,1-.261.633.962.962,0,0,1-.688.246.962.962,0,0,1-.688-.246A.831.831,0,0,1,52.535-7.98Zm5.139,6.615h3.1V0H55.512V-1.031l2.982-3.937H55.6V-6.34h5.08v1ZM67.189-2.4,68.361-6.34h1.816L67.629.984l-.141.334a1.933,1.933,0,0,1-1.875,1.242,2.664,2.664,0,0,1-.75-.111V1.166l.258.006a1.393,1.393,0,0,0,.718-.146.962.962,0,0,0,.372-.486l.2-.521L64.189-6.34h1.822ZM76.752.117a3.112,3.112,0,0,1-2.271-.855,3.041,3.041,0,0,1-.876-2.279v-.164a3.83,3.83,0,0,1,.369-1.708,2.709,2.709,0,0,1,1.046-1.16,2.936,2.936,0,0,1,1.544-.407,2.631,2.631,0,0,1,2.048.82,3.333,3.333,0,0,1,.747,2.326v.691H75.322a1.573,1.573,0,0,0,.5,1,1.5,1.5,0,0,0,1.046.375,1.828,1.828,0,0,0,1.529-.709l.832.932a2.542,2.542,0,0,1-1.031.841A3.383,3.383,0,0,1,76.752.117Zm-.193-5.2a1.06,1.06,0,0,0-.817.34,1.756,1.756,0,0,0-.4.973H77.7v-.135a1.252,1.252,0,0,0-.3-.87A1.094,1.094,0,0,0,76.559-5.086Zm5.32-1.254.053.732a2.213,2.213,0,0,1,1.822-.85,1.84,1.84,0,0,1,1.5.592,2.761,2.761,0,0,1,.5,1.77V0H84.064V-4.055a1.1,1.1,0,0,0-.234-.782,1.049,1.049,0,0,0-.779-.243,1.165,1.165,0,0,0-1.072.609V0H80.285V-6.34ZM89.068-7.9V-6.34h1.084V-5.1H89.068v3.164a.756.756,0,0,0,.135.5.677.677,0,0,0,.516.152,2.7,2.7,0,0,0,.5-.041V-.035a3.486,3.486,0,0,1-1.025.152,1.617,1.617,0,0,1-1.816-1.8V-5.1h-.926V-6.34h.926V-7.9Zm5.59,3.146a4.6,4.6,0,0,0-.609-.047,1.24,1.24,0,0,0-1.26.65V0H91.1V-6.34h1.6l.047.756a1.569,1.569,0,0,1,1.412-.873,1.774,1.774,0,0,1,.527.076ZM98.283.117a3.112,3.112,0,0,1-2.271-.855,3.041,3.041,0,0,1-.876-2.279v-.164a3.83,3.83,0,0,1,.369-1.708,2.709,2.709,0,0,1,1.046-1.16A2.936,2.936,0,0,1,98.1-6.457a2.631,2.631,0,0,1,2.048.82,3.333,3.333,0,0,1,.747,2.326v.691H96.853a1.573,1.573,0,0,0,.5,1,1.5,1.5,0,0,0,1.046.375,1.828,1.828,0,0,0,1.529-.709l.832.932a2.542,2.542,0,0,1-1.031.841A3.383,3.383,0,0,1,98.283.117Zm-.193-5.2a1.06,1.06,0,0,0-.817.34,1.756,1.756,0,0,0-.4.973h2.355v-.135a1.252,1.252,0,0,0-.3-.87A1.094,1.094,0,0,0,98.089-5.086ZM103.878-7.9V-6.34h1.084V-5.1h-1.084v3.164a.756.756,0,0,0,.135.5.677.677,0,0,0,.516.152,2.7,2.7,0,0,0,.5-.041V-.035A3.486,3.486,0,0,1,104,.117a1.617,1.617,0,0,1-1.816-1.8V-5.1h-.926V-6.34h.926V-7.9ZM108.824.117a3.112,3.112,0,0,1-2.271-.855,3.041,3.041,0,0,1-.876-2.279v-.164a3.83,3.83,0,0,1,.369-1.708,2.709,2.709,0,0,1,1.046-1.16,2.936,2.936,0,0,1,1.544-.407,2.631,2.631,0,0,1,2.048.82,3.333,3.333,0,0,1,.747,2.326v.691h-4.037a1.573,1.573,0,0,0,.5,1,1.5,1.5,0,0,0,1.046.375,1.828,1.828,0,0,0,1.529-.709l.832.932a2.542,2.542,0,0,1-1.031.841A3.383,3.383,0,0,1,108.824.117Zm-.193-5.2a1.06,1.06,0,0,0-.817.34,1.756,1.756,0,0,0-.4.973h2.355v-.135a1.252,1.252,0,0,0-.3-.87A1.094,1.094,0,0,0,108.63-5.086ZM114.179,0h-1.7V-9h1.7Zm5.068,0a1.88,1.88,0,0,1-.17-.568,2.049,2.049,0,0,1-1.6.686,2.251,2.251,0,0,1-1.544-.539,1.734,1.734,0,0,1-.612-1.359,1.792,1.792,0,0,1,.747-1.547,3.686,3.686,0,0,1,2.159-.545h.779v-.363a1.045,1.045,0,0,0-.226-.7.887.887,0,0,0-.712-.264A1.009,1.009,0,0,0,117.4-5a.7.7,0,0,0-.243.563h-1.693a1.7,1.7,0,0,1,.34-1.02,2.246,2.246,0,0,1,.961-.735,3.5,3.5,0,0,1,1.395-.267,2.767,2.767,0,0,1,1.86.589,2.06,2.06,0,0,1,.688,1.655v2.748A3.031,3.031,0,0,0,120.958-.1V0Zm-1.4-1.178a1.458,1.458,0,0,0,.691-.167,1.1,1.1,0,0,0,.469-.448v-1.09h-.633q-1.271,0-1.354.879l-.006.1a.678.678,0,0,0,.223.521A.865.865,0,0,0,117.847-1.178Z" transform="translate(428.429 15244.924) rotate(-84.854)" fill="#161615"/>
        <path id="Trazado_881758" data-name="Trazado 881758" d="M7.459-2.842A3.019,3.019,0,0,1,6.442-.674,3.57,3.57,0,0,1,4.025.117a3.21,3.21,0,0,1-2.581-1.1A4.529,4.529,0,0,1,.5-4.02v-.521A5.114,5.114,0,0,1,.938-6.709,3.249,3.249,0,0,1,2.177-8.147a3.471,3.471,0,0,1,1.872-.5,3.478,3.478,0,0,1,2.379.791A3.244,3.244,0,0,1,7.471-5.637H5.713a1.782,1.782,0,0,0-.46-1.2,1.7,1.7,0,0,0-1.2-.372,1.494,1.494,0,0,0-1.315.63,3.53,3.53,0,0,0-.448,1.954v.645A3.778,3.778,0,0,0,2.7-1.957a1.466,1.466,0,0,0,1.321.639A1.735,1.735,0,0,0,5.241-1.69,1.681,1.681,0,0,0,5.7-2.842ZM8.59-.832a.852.852,0,0,1,.272-.656.967.967,0,0,1,.683-.252.975.975,0,0,1,.688.252.852.852,0,0,1,.272.656.841.841,0,0,1-.27.647.979.979,0,0,1-.691.249.971.971,0,0,1-.686-.249A.841.841,0,0,1,8.59-.832Zm9.932-6.275H15.908V0H14.15V-7.107H11.572V-8.531h6.949ZM16.488-.832a.852.852,0,0,1,.272-.656.967.967,0,0,1,.683-.252.975.975,0,0,1,.688.252.852.852,0,0,1,.272.656.841.841,0,0,1-.27.647.979.979,0,0,1-.691.249.971.971,0,0,1-.686-.249A.841.841,0,0,1,16.488-.832ZM28.119-3.7H24.744v2.285h3.961V0H22.986V-8.531h5.707v1.424H24.744v2.033h3.375ZM31.184-6.34l.053.732a2.213,2.213,0,0,1,1.822-.85,1.84,1.84,0,0,1,1.5.592,2.761,2.761,0,0,1,.5,1.77V0H33.369V-4.055a1.1,1.1,0,0,0-.234-.782,1.049,1.049,0,0,0-.779-.243,1.165,1.165,0,0,0-1.072.609V0H29.59V-6.34ZM38.373-7.9V-6.34h1.084V-5.1H38.373v3.164a.756.756,0,0,0,.135.5.677.677,0,0,0,.516.152,2.7,2.7,0,0,0,.5-.041V-.035A3.486,3.486,0,0,1,38.5.117a1.617,1.617,0,0,1-1.816-1.8V-5.1h-.926V-6.34h.926V-7.9ZM43.318.117a3.112,3.112,0,0,1-2.271-.855,3.041,3.041,0,0,1-.876-2.279v-.164a3.83,3.83,0,0,1,.369-1.708,2.709,2.709,0,0,1,1.046-1.16,2.936,2.936,0,0,1,1.544-.407,2.631,2.631,0,0,1,2.048.82,3.333,3.333,0,0,1,.747,2.326v.691H41.889a1.573,1.573,0,0,0,.5,1,1.5,1.5,0,0,0,1.046.375,1.828,1.828,0,0,0,1.529-.709l.832.932a2.542,2.542,0,0,1-1.031.841A3.383,3.383,0,0,1,43.318.117Zm-.193-5.2a1.06,1.06,0,0,0-.817.34,1.756,1.756,0,0,0-.4.973h2.355v-.135a1.252,1.252,0,0,0-.3-.87A1.094,1.094,0,0,0,43.125-5.086Zm7.324.334A4.6,4.6,0,0,0,49.84-4.8a1.24,1.24,0,0,0-1.26.65V0H46.887V-6.34h1.6l.047.756a1.569,1.569,0,0,1,1.412-.873,1.774,1.774,0,0,1,.527.076Zm.232,1.523a3.76,3.76,0,0,1,.363-1.682A2.659,2.659,0,0,1,52.09-6.053a3.051,3.051,0,0,1,1.585-.4,2.887,2.887,0,0,1,2.095.785,3.151,3.151,0,0,1,.905,2.133l.012.434a3.314,3.314,0,0,1-.814,2.341,2.831,2.831,0,0,1-2.186.882A2.845,2.845,0,0,1,51.5-.762a3.372,3.372,0,0,1-.817-2.391Zm1.693.123a2.363,2.363,0,0,0,.34,1.38,1.122,1.122,0,0,0,.973.478,1.124,1.124,0,0,0,.961-.472,2.586,2.586,0,0,0,.346-1.509A2.34,2.34,0,0,0,54.648-4.6a1.124,1.124,0,0,0-.973-.486,1.106,1.106,0,0,0-.961.483A2.63,2.63,0,0,0,52.374-3.105Z" transform="matrix(-0.025, -1, 1, -0.025, 705.459, 15321.659)" fill="#161615"/>
        <path id="Trazado_881759" data-name="Trazado 881759" d="M.762,0V-8.531H3.387A3.986,3.986,0,0,1,5.4-8.024,3.534,3.534,0,0,1,6.785-6.583a4.446,4.446,0,0,1,.5,2.124v.393a4.458,4.458,0,0,1-.489,2.115A3.5,3.5,0,0,1,5.414-.516,4.016,4.016,0,0,1,3.4,0ZM2.52-7.107v5.7h.85a1.909,1.909,0,0,0,1.576-.674A3.045,3.045,0,0,0,5.5-4.014v-.451a3.093,3.093,0,0,0-.539-1.972,1.9,1.9,0,0,0-1.576-.671ZM11.367.117A3.112,3.112,0,0,1,9.1-.738a3.041,3.041,0,0,1-.876-2.279v-.164A3.83,3.83,0,0,1,8.59-4.89,2.709,2.709,0,0,1,9.636-6.05a2.936,2.936,0,0,1,1.544-.407,2.631,2.631,0,0,1,2.048.82,3.333,3.333,0,0,1,.747,2.326v.691H9.938a1.573,1.573,0,0,0,.5,1,1.5,1.5,0,0,0,1.046.375,1.828,1.828,0,0,0,1.529-.709l.832.932a2.542,2.542,0,0,1-1.031.841A3.383,3.383,0,0,1,11.367.117Zm-.193-5.2a1.06,1.06,0,0,0-.817.34,1.756,1.756,0,0,0-.4.973h2.355v-.135a1.252,1.252,0,0,0-.3-.87A1.094,1.094,0,0,0,11.174-5.086ZM16.723,0h-1.7V-9h1.7Zm4.119-3.217a3.821,3.821,0,0,1,.665-2.361,2.158,2.158,0,0,1,1.819-.879,1.942,1.942,0,0,1,1.529.691V-9h1.7V0H25.025l-.082-.674a1.993,1.993,0,0,1-1.629.791,2.152,2.152,0,0,1-1.8-.882A3.944,3.944,0,0,1,20.842-3.217Zm1.693.123a2.5,2.5,0,0,0,.311,1.365,1.012,1.012,0,0,0,.9.475,1.133,1.133,0,0,0,1.107-.662v-2.5a1.117,1.117,0,0,0-1.1-.662Q22.535-5.08,22.535-3.094ZM30.785.117a3.112,3.112,0,0,1-2.271-.855,3.041,3.041,0,0,1-.876-2.279v-.164a3.83,3.83,0,0,1,.369-1.708,2.709,2.709,0,0,1,1.046-1.16A2.936,2.936,0,0,1,30.6-6.457a2.631,2.631,0,0,1,2.048.82,3.333,3.333,0,0,1,.747,2.326v.691H29.355a1.573,1.573,0,0,0,.5,1,1.5,1.5,0,0,0,1.046.375,1.828,1.828,0,0,0,1.529-.709l.832.932a2.542,2.542,0,0,1-1.031.841A3.383,3.383,0,0,1,30.785.117Zm-.193-5.2a1.06,1.06,0,0,0-.817.34,1.756,1.756,0,0,0-.4.973h2.355v-.135a1.252,1.252,0,0,0-.3-.87A1.094,1.094,0,0,0,30.592-5.086Zm7.324.334a4.6,4.6,0,0,0-.609-.047,1.24,1.24,0,0,0-1.26.65V0H34.354V-6.34h1.6L36-5.584a1.569,1.569,0,0,1,1.412-.873,1.774,1.774,0,0,1,.527.076ZM36.8-.832a.852.852,0,0,1,.272-.656.967.967,0,0,1,.683-.252.975.975,0,0,1,.688.252.852.852,0,0,1,.272.656.841.841,0,0,1-.27.647.979.979,0,0,1-.691.249.971.971,0,0,1-.686-.249A.841.841,0,0,1,36.8-.832Z" transform="translate(368.265 15323.527) rotate(-95.297)" fill="#161615"/>
        <path id="Trazado_881760" data-name="Trazado 881760" d="M.762,0V-8.531H3.387A3.986,3.986,0,0,1,5.4-8.024,3.534,3.534,0,0,1,6.785-6.583a4.446,4.446,0,0,1,.5,2.124v.393a4.458,4.458,0,0,1-.489,2.115A3.5,3.5,0,0,1,5.414-.516,4.016,4.016,0,0,1,3.4,0ZM2.52-7.107v5.7h.85a1.909,1.909,0,0,0,1.576-.674A3.045,3.045,0,0,0,5.5-4.014v-.451a3.093,3.093,0,0,0-.539-1.972,1.9,1.9,0,0,0-1.576-.671ZM11.367.117A3.112,3.112,0,0,1,9.1-.738a3.041,3.041,0,0,1-.876-2.279v-.164A3.83,3.83,0,0,1,8.59-4.89,2.709,2.709,0,0,1,9.636-6.05a2.936,2.936,0,0,1,1.544-.407,2.631,2.631,0,0,1,2.048.82,3.333,3.333,0,0,1,.747,2.326v.691H9.938a1.573,1.573,0,0,0,.5,1,1.5,1.5,0,0,0,1.046.375,1.828,1.828,0,0,0,1.529-.709l.832.932a2.542,2.542,0,0,1-1.031.841A3.383,3.383,0,0,1,11.367.117Zm-.193-5.2a1.06,1.06,0,0,0-.817.34,1.756,1.756,0,0,0-.4.973h2.355v-.135a1.252,1.252,0,0,0-.3-.87A1.094,1.094,0,0,0,11.174-5.086ZM16.723,0h-1.7V-9h1.7Zm6.17,0h-1.7V-6.34h1.7Zm-1.8-7.98a.834.834,0,0,1,.255-.627.958.958,0,0,1,.694-.246.96.96,0,0,1,.691.246.829.829,0,0,1,.258.627.831.831,0,0,1-.261.633.962.962,0,0,1-.688.246.962.962,0,0,1-.688-.246A.831.831,0,0,1,21.094-7.98Zm5.139,6.615h3.1V0H24.07V-1.031l2.982-3.937H24.158V-6.34h5.08v1Zm4.248.533a.852.852,0,0,1,.272-.656.967.967,0,0,1,.683-.252.975.975,0,0,1,.688.252.852.852,0,0,1,.272.656.841.841,0,0,1-.27.647.979.979,0,0,1-.691.249.971.971,0,0,1-.686-.249A.841.841,0,0,1,30.48-.832Z" transform="translate(433.056 15323.749) rotate(-82.827)" fill="#161615"/>
        <path id="Trazado_881761" data-name="Trazado 881761" d="M4.693,0H3V-6.527L.979-5.9V-7.277L4.512-8.543h.182Zm6.885,0H9.885V-6.527L7.863-5.9V-7.277L11.4-8.543h.182Z" transform="matrix(-0.025, -1, 1, -0.025, 465.797, 15251.735)" fill="#161615"/>
        <path id="Trazado_881762" data-name="Trazado 881762" d="M0,0H321.791" transform="translate(371.809 15297.251)" fill="none" stroke="#0c1d2f" stroke-linecap="round" stroke-width="1"/>
        <path id="Trazado_881763" data-name="Trazado 881763" d="M0,0H361.386V370.467H0Z" transform="translate(353.951 14954.877)" fill="none"/>
        <path id="Trazado_881764" data-name="Trazado 881764" d="M7.459-2.842A3.019,3.019,0,0,1,6.442-.674,3.57,3.57,0,0,1,4.025.117a3.21,3.21,0,0,1-2.581-1.1A4.529,4.529,0,0,1,.5-4.02v-.521A5.114,5.114,0,0,1,.938-6.709,3.249,3.249,0,0,1,2.177-8.147a3.471,3.471,0,0,1,1.872-.5,3.478,3.478,0,0,1,2.379.791A3.244,3.244,0,0,1,7.471-5.637H5.713a1.782,1.782,0,0,0-.46-1.2,1.7,1.7,0,0,0-1.2-.372,1.494,1.494,0,0,0-1.315.63,3.53,3.53,0,0,0-.448,1.954v.645A3.778,3.778,0,0,0,2.7-1.957a1.466,1.466,0,0,0,1.321.639A1.735,1.735,0,0,0,5.241-1.69,1.681,1.681,0,0,0,5.7-2.842ZM11.42.117A3.112,3.112,0,0,1,9.149-.738a3.041,3.041,0,0,1-.876-2.279v-.164A3.83,3.83,0,0,1,8.643-4.89,2.709,2.709,0,0,1,9.688-6.05a2.936,2.936,0,0,1,1.544-.407,2.631,2.631,0,0,1,2.048.82,3.333,3.333,0,0,1,.747,2.326v.691H9.99a1.573,1.573,0,0,0,.5,1,1.5,1.5,0,0,0,1.046.375,1.828,1.828,0,0,0,1.529-.709l.832.932a2.542,2.542,0,0,1-1.031.841A3.383,3.383,0,0,1,11.42.117Zm-.193-5.2a1.06,1.06,0,0,0-.817.34,1.756,1.756,0,0,0-.4.973h2.355v-.135a1.252,1.252,0,0,0-.3-.87A1.094,1.094,0,0,0,11.227-5.086Zm5.32-1.254.053.732a2.213,2.213,0,0,1,1.822-.85,1.84,1.84,0,0,1,1.5.592,2.761,2.761,0,0,1,.5,1.77V0H18.732V-4.055a1.1,1.1,0,0,0-.234-.782,1.049,1.049,0,0,0-.779-.243,1.165,1.165,0,0,0-1.072.609V0H14.953V-6.34ZM23.736-7.9V-6.34H24.82V-5.1H23.736v3.164a.756.756,0,0,0,.135.5.677.677,0,0,0,.516.152,2.7,2.7,0,0,0,.5-.041V-.035a3.486,3.486,0,0,1-1.025.152,1.617,1.617,0,0,1-1.816-1.8V-5.1h-.926V-6.34h.926V-7.9Zm5.59,3.146a4.6,4.6,0,0,0-.609-.047,1.24,1.24,0,0,0-1.26.65V0H25.764V-6.34h1.6l.047.756a1.569,1.569,0,0,1,1.412-.873,1.774,1.774,0,0,1,.527.076Zm.232,1.523a3.76,3.76,0,0,1,.363-1.682,2.659,2.659,0,0,1,1.046-1.143,3.051,3.051,0,0,1,1.585-.4,2.887,2.887,0,0,1,2.095.785,3.151,3.151,0,0,1,.905,2.133l.012.434a3.314,3.314,0,0,1-.814,2.341,2.831,2.831,0,0,1-2.186.882,2.845,2.845,0,0,1-2.188-.879,3.372,3.372,0,0,1-.817-2.391Zm1.693.123a2.363,2.363,0,0,0,.34,1.38,1.122,1.122,0,0,0,.973.478,1.124,1.124,0,0,0,.961-.472,2.586,2.586,0,0,0,.346-1.509A2.34,2.34,0,0,0,33.525-4.6a1.124,1.124,0,0,0-.973-.486,1.106,1.106,0,0,0-.961.483A2.63,2.63,0,0,0,31.251-3.105Zm8.08-.111A3.821,3.821,0,0,1,40-5.578a2.158,2.158,0,0,1,1.819-.879,1.942,1.942,0,0,1,1.529.691V-9h1.7V0H43.515l-.082-.674A1.993,1.993,0,0,1,41.8.117a2.152,2.152,0,0,1-1.8-.882A3.944,3.944,0,0,1,39.331-3.217Zm1.693.123a2.5,2.5,0,0,0,.311,1.365,1.012,1.012,0,0,0,.9.475,1.133,1.133,0,0,0,1.107-.662v-2.5a1.117,1.117,0,0,0-1.1-.662Q41.025-5.08,41.025-3.094ZM49.275.117A3.112,3.112,0,0,1,47-.738a3.041,3.041,0,0,1-.876-2.279v-.164A3.83,3.83,0,0,1,46.5-4.89a2.709,2.709,0,0,1,1.046-1.16,2.936,2.936,0,0,1,1.544-.407,2.631,2.631,0,0,1,2.048.82,3.333,3.333,0,0,1,.747,2.326v.691H47.845a1.573,1.573,0,0,0,.5,1,1.5,1.5,0,0,0,1.046.375,1.828,1.828,0,0,0,1.529-.709l.832.932a2.542,2.542,0,0,1-1.031.841A3.383,3.383,0,0,1,49.275.117Zm-.193-5.2a1.06,1.06,0,0,0-.817.34,1.756,1.756,0,0,0-.4.973h2.355v-.135a1.252,1.252,0,0,0-.3-.87A1.094,1.094,0,0,0,49.081-5.086ZM54.63,0h-1.7V-9h1.7ZM59.7,0a1.88,1.88,0,0,1-.17-.568,2.049,2.049,0,0,1-1.6.686,2.251,2.251,0,0,1-1.544-.539,1.734,1.734,0,0,1-.612-1.359,1.792,1.792,0,0,1,.747-1.547,3.686,3.686,0,0,1,2.159-.545h.779v-.363a1.045,1.045,0,0,0-.226-.7.887.887,0,0,0-.712-.264A1.009,1.009,0,0,0,57.85-5a.7.7,0,0,0-.243.563H55.913a1.7,1.7,0,0,1,.34-1.02,2.246,2.246,0,0,1,.961-.735,3.5,3.5,0,0,1,1.395-.267,2.767,2.767,0,0,1,1.86.589,2.06,2.06,0,0,1,.688,1.655v2.748A3.031,3.031,0,0,0,61.41-.1V0ZM58.3-1.178a1.458,1.458,0,0,0,.691-.167,1.1,1.1,0,0,0,.469-.448v-1.09h-.633q-1.271,0-1.354.879l-.006.1a.678.678,0,0,0,.223.521A.865.865,0,0,0,58.3-1.178ZM64.017-6.34l.053.732a2.213,2.213,0,0,1,1.822-.85,1.84,1.84,0,0,1,1.5.592,2.761,2.761,0,0,1,.5,1.77V0H66.2V-4.055a1.1,1.1,0,0,0-.234-.782,1.049,1.049,0,0,0-.779-.243,1.165,1.165,0,0,0-1.072.609V0H62.423V-6.34ZM71.206-7.9V-6.34H72.29V-5.1H71.206v3.164a.756.756,0,0,0,.135.5.677.677,0,0,0,.516.152,2.7,2.7,0,0,0,.5-.041V-.035a3.486,3.486,0,0,1-1.025.152,1.617,1.617,0,0,1-1.816-1.8V-5.1h-.926V-6.34h.926V-7.9ZM76.152.117a3.112,3.112,0,0,1-2.271-.855,3.041,3.041,0,0,1-.876-2.279v-.164a3.83,3.83,0,0,1,.369-1.708A2.709,2.709,0,0,1,74.42-6.05a2.936,2.936,0,0,1,1.544-.407,2.631,2.631,0,0,1,2.048.82,3.333,3.333,0,0,1,.747,2.326v.691H74.722a1.573,1.573,0,0,0,.5,1,1.5,1.5,0,0,0,1.046.375,1.828,1.828,0,0,0,1.529-.709l.832.932a2.542,2.542,0,0,1-1.031.841A3.383,3.383,0,0,1,76.152.117Zm-.193-5.2a1.06,1.06,0,0,0-.817.34,1.756,1.756,0,0,0-.4.973H77.1v-.135a1.252,1.252,0,0,0-.3-.87A1.094,1.094,0,0,0,75.958-5.086Zm7.324.334a4.6,4.6,0,0,0-.609-.047,1.24,1.24,0,0,0-1.26.65V0H79.72V-6.34h1.6l.047.756a1.569,1.569,0,0,1,1.412-.873,1.774,1.774,0,0,1,.527.076Zm.232,1.523a3.76,3.76,0,0,1,.363-1.682,2.659,2.659,0,0,1,1.046-1.143,3.051,3.051,0,0,1,1.585-.4,2.887,2.887,0,0,1,2.095.785,3.151,3.151,0,0,1,.905,2.133l.012.434a3.314,3.314,0,0,1-.814,2.341A2.831,2.831,0,0,1,86.52.117a2.845,2.845,0,0,1-2.188-.879,3.372,3.372,0,0,1-.817-2.391Zm1.693.123a2.363,2.363,0,0,0,.34,1.38,1.122,1.122,0,0,0,.973.478,1.124,1.124,0,0,0,.961-.472,2.586,2.586,0,0,0,.346-1.509A2.34,2.34,0,0,0,87.481-4.6a1.124,1.124,0,0,0-.973-.486,1.106,1.106,0,0,0-.961.483A2.63,2.63,0,0,0,85.208-3.105Zm11.637.135h-3.3V-4.336h3.3Zm8.883.732A.9.9,0,0,0,105.376-3a4.611,4.611,0,0,0-1.266-.562,8.972,8.972,0,0,1-1.447-.583,2.365,2.365,0,0,1-1.453-2.115A2.06,2.06,0,0,1,101.6-7.5a2.542,2.542,0,0,1,1.119-.847,4.212,4.212,0,0,1,1.638-.3,3.834,3.834,0,0,1,1.629.331,2.594,2.594,0,0,1,1.11.935,2.445,2.445,0,0,1,.4,1.371h-1.758a1.15,1.15,0,0,0-.369-.911,1.517,1.517,0,0,0-1.037-.325,1.621,1.621,0,0,0-1,.272.859.859,0,0,0-.357.718.823.823,0,0,0,.419.7,4.733,4.733,0,0,0,1.233.527,5.329,5.329,0,0,1,2.186,1.119,2.229,2.229,0,0,1,.686,1.664,2.053,2.053,0,0,1-.838,1.737,3.668,3.668,0,0,1-2.256.63,4.356,4.356,0,0,1-1.793-.36,2.837,2.837,0,0,1-1.233-.987,2.528,2.528,0,0,1-.425-1.453h1.764q0,1.412,1.688,1.412a1.642,1.642,0,0,0,.979-.255A.829.829,0,0,0,105.727-2.238Zm2.93,1.406a.852.852,0,0,1,.272-.656.967.967,0,0,1,.683-.252.975.975,0,0,1,.688.252.852.852,0,0,1,.272.656.841.841,0,0,1-.27.647.979.979,0,0,1-.691.249.971.971,0,0,1-.686-.249A.841.841,0,0,1,108.657-.832ZM119.11,0h-1.758V-3.656h-3.428V0h-1.758V-8.531h1.758v3.457h3.428V-8.531h1.758Zm1.512-.832a.852.852,0,0,1,.272-.656.967.967,0,0,1,.683-.252.975.975,0,0,1,.688.252.852.852,0,0,1,.272.656.841.841,0,0,1-.27.647.979.979,0,0,1-.691.249.971.971,0,0,1-.686-.249A.841.841,0,0,1,120.622-.832Z" transform="translate(408.815 15236.721) rotate(-90)" fill="#161615"/>
        <path id="Trazado_881765" data-name="Trazado 881765" d="M7.459-2.842A3.019,3.019,0,0,1,6.442-.674,3.57,3.57,0,0,1,4.025.117a3.21,3.21,0,0,1-2.581-1.1A4.529,4.529,0,0,1,.5-4.02v-.521A5.114,5.114,0,0,1,.938-6.709,3.249,3.249,0,0,1,2.177-8.147a3.471,3.471,0,0,1,1.872-.5,3.478,3.478,0,0,1,2.379.791A3.244,3.244,0,0,1,7.471-5.637H5.713a1.782,1.782,0,0,0-.46-1.2,1.7,1.7,0,0,0-1.2-.372,1.494,1.494,0,0,0-1.315.63,3.53,3.53,0,0,0-.448,1.954v.645A3.778,3.778,0,0,0,2.7-1.957a1.466,1.466,0,0,0,1.321.639A1.735,1.735,0,0,0,5.241-1.69,1.681,1.681,0,0,0,5.7-2.842Zm.779-.387A3.76,3.76,0,0,1,8.6-4.91,2.659,2.659,0,0,1,9.647-6.053a3.051,3.051,0,0,1,1.585-.4,2.887,2.887,0,0,1,2.095.785,3.151,3.151,0,0,1,.905,2.133l.012.434A3.314,3.314,0,0,1,13.43-.765a2.831,2.831,0,0,1-2.186.882A2.845,2.845,0,0,1,9.056-.762a3.372,3.372,0,0,1-.817-2.391Zm1.693.123a2.363,2.363,0,0,0,.34,1.38,1.122,1.122,0,0,0,.973.478,1.124,1.124,0,0,0,.961-.472,2.586,2.586,0,0,0,.346-1.509A2.34,2.34,0,0,0,12.205-4.6a1.124,1.124,0,0,0-.973-.486,1.106,1.106,0,0,0-.961.483A2.63,2.63,0,0,0,9.932-3.105Zm8.789,1.354a.546.546,0,0,0-.308-.489,3.494,3.494,0,0,0-.987-.319q-2.262-.475-2.262-1.922a1.742,1.742,0,0,1,.7-1.409A2.824,2.824,0,0,1,17.7-6.457a3.04,3.04,0,0,1,1.931.568,1.791,1.791,0,0,1,.724,1.477H18.656a.819.819,0,0,0-.234-.6.992.992,0,0,0-.732-.237,1.013,1.013,0,0,0-.662.193.61.61,0,0,0-.234.492.522.522,0,0,0,.267.454,2.743,2.743,0,0,0,.9.3,7.346,7.346,0,0,1,1.066.284,1.752,1.752,0,0,1,1.342,1.705,1.654,1.654,0,0,1-.744,1.4A3.21,3.21,0,0,1,17.7.117a3.353,3.353,0,0,1-1.415-.284,2.374,2.374,0,0,1-.97-.779,1.811,1.811,0,0,1-.352-1.069H16.57a.884.884,0,0,0,.334.691,1.325,1.325,0,0,0,.832.24,1.226,1.226,0,0,0,.735-.185A.574.574,0,0,0,18.721-1.752ZM23.484-7.9V-6.34h1.084V-5.1H23.484v3.164a.756.756,0,0,0,.135.5.677.677,0,0,0,.516.152,2.7,2.7,0,0,0,.5-.041V-.035a3.486,3.486,0,0,1-1.025.152,1.617,1.617,0,0,1-1.816-1.8V-5.1h-.926V-6.34h.926V-7.9Zm5.7,7.9a1.88,1.88,0,0,1-.17-.568,2.049,2.049,0,0,1-1.6.686,2.251,2.251,0,0,1-1.544-.539,1.734,1.734,0,0,1-.612-1.359,1.792,1.792,0,0,1,.747-1.547,3.686,3.686,0,0,1,2.159-.545h.779v-.363a1.045,1.045,0,0,0-.226-.7.887.887,0,0,0-.712-.264A1.009,1.009,0,0,0,27.337-5a.7.7,0,0,0-.243.563H25.4a1.7,1.7,0,0,1,.34-1.02A2.246,2.246,0,0,1,26.7-6.19,3.5,3.5,0,0,1,28.1-6.457a2.767,2.767,0,0,1,1.86.589,2.06,2.06,0,0,1,.688,1.655v2.748A3.031,3.031,0,0,0,30.9-.1V0Zm-1.4-1.178a1.458,1.458,0,0,0,.691-.167,1.1,1.1,0,0,0,.469-.448v-1.09h-.633q-1.271,0-1.354.879l-.006.1a.678.678,0,0,0,.223.521A.865.865,0,0,0,27.785-1.178Zm3.9-2.039a3.821,3.821,0,0,1,.665-2.361,2.158,2.158,0,0,1,1.819-.879,1.942,1.942,0,0,1,1.529.691V-9h1.7V0H35.865l-.082-.674a1.993,1.993,0,0,1-1.629.791,2.152,2.152,0,0,1-1.8-.882A3.944,3.944,0,0,1,31.682-3.217Zm1.693.123a2.5,2.5,0,0,0,.311,1.365,1.012,1.012,0,0,0,.9.475A1.133,1.133,0,0,0,35.7-1.916v-2.5a1.117,1.117,0,0,0-1.1-.662Q33.375-5.08,33.375-3.094ZM40.494,0h-1.7V-6.34h1.7ZM38.7-7.98a.834.834,0,0,1,.255-.627.958.958,0,0,1,.694-.246.96.96,0,0,1,.691.246.829.829,0,0,1,.258.627.831.831,0,0,1-.261.633.962.962,0,0,1-.688.246.962.962,0,0,1-.688-.246A.831.831,0,0,1,38.7-7.98ZM43.676,0h-1.7V-9h1.7Zm3.182,0h-1.7V-9h1.7Zm1.131-3.229a3.76,3.76,0,0,1,.363-1.682A2.659,2.659,0,0,1,49.4-6.053a3.051,3.051,0,0,1,1.585-.4,2.887,2.887,0,0,1,2.095.785,3.151,3.151,0,0,1,.905,2.133l.012.434A3.314,3.314,0,0,1,53.18-.765a2.831,2.831,0,0,1-2.186.882,2.845,2.845,0,0,1-2.188-.879,3.372,3.372,0,0,1-.817-2.391Zm1.693.123a2.363,2.363,0,0,0,.34,1.38,1.122,1.122,0,0,0,.973.478,1.124,1.124,0,0,0,.961-.472A2.586,2.586,0,0,0,52.3-3.229,2.34,2.34,0,0,0,51.955-4.6a1.124,1.124,0,0,0-.973-.486,1.106,1.106,0,0,0-.961.483A2.63,2.63,0,0,0,49.682-3.105Zm14.525-4H61.594V0H59.836V-7.107H57.258V-8.531h6.949ZM62.174-.832a.852.852,0,0,1,.272-.656.967.967,0,0,1,.683-.252.975.975,0,0,1,.688.252.852.852,0,0,1,.272.656.841.841,0,0,1-.27.647.979.979,0,0,1-.691.249.971.971,0,0,1-.686-.249A.841.841,0,0,1,62.174-.832Zm6.691-2.139h-3.3V-4.336h3.3Zm5.895.732A.9.9,0,0,0,74.408-3a4.611,4.611,0,0,0-1.266-.562A8.972,8.972,0,0,1,71.7-4.148a2.365,2.365,0,0,1-1.453-2.115,2.06,2.06,0,0,1,.39-1.233,2.542,2.542,0,0,1,1.119-.847,4.212,4.212,0,0,1,1.638-.3,3.834,3.834,0,0,1,1.629.331,2.594,2.594,0,0,1,1.11.935,2.445,2.445,0,0,1,.4,1.371H74.766a1.15,1.15,0,0,0-.369-.911,1.517,1.517,0,0,0-1.037-.325,1.621,1.621,0,0,0-1,.272A.859.859,0,0,0,72-6.258a.823.823,0,0,0,.419.7,4.733,4.733,0,0,0,1.233.527,5.329,5.329,0,0,1,2.186,1.119,2.229,2.229,0,0,1,.686,1.664,2.053,2.053,0,0,1-.838,1.737,3.668,3.668,0,0,1-2.256.63,4.356,4.356,0,0,1-1.793-.36A2.837,2.837,0,0,1,70.4-1.23a2.528,2.528,0,0,1-.425-1.453h1.764q0,1.412,1.688,1.412a1.642,1.642,0,0,0,.979-.255A.829.829,0,0,0,74.76-2.238Zm2.93,1.406a.852.852,0,0,1,.272-.656.967.967,0,0,1,.683-.252.975.975,0,0,1,.688.252.852.852,0,0,1,.272.656.841.841,0,0,1-.27.647.979.979,0,0,1-.691.249.971.971,0,0,1-.686-.249A.841.841,0,0,1,77.689-.832ZM88.143,0H86.385V-3.656H82.957V0H81.2V-8.531h1.758v3.457h3.428V-8.531h1.758Zm1.512-.832a.852.852,0,0,1,.272-.656.967.967,0,0,1,.683-.252.975.975,0,0,1,.688.252.852.852,0,0,1,.272.656.841.841,0,0,1-.27.647.979.979,0,0,1-.691.249.971.971,0,0,1-.686-.249A.841.841,0,0,1,89.654-.832Z" transform="translate(583.402 15261.118) rotate(-90)" fill="#161615"/>
        <path id="Trazado_881766" data-name="Trazado 881766" d="M7.459-2.842A3.019,3.019,0,0,1,6.442-.674,3.57,3.57,0,0,1,4.025.117a3.21,3.21,0,0,1-2.581-1.1A4.529,4.529,0,0,1,.5-4.02v-.521A5.114,5.114,0,0,1,.938-6.709,3.249,3.249,0,0,1,2.177-8.147a3.471,3.471,0,0,1,1.872-.5,3.478,3.478,0,0,1,2.379.791A3.244,3.244,0,0,1,7.471-5.637H5.713a1.782,1.782,0,0,0-.46-1.2,1.7,1.7,0,0,0-1.2-.372,1.494,1.494,0,0,0-1.315.63,3.53,3.53,0,0,0-.448,1.954v.645A3.778,3.778,0,0,0,2.7-1.957a1.466,1.466,0,0,0,1.321.639A1.735,1.735,0,0,0,5.241-1.69,1.681,1.681,0,0,0,5.7-2.842ZM11.42.117A3.112,3.112,0,0,1,9.149-.738a3.041,3.041,0,0,1-.876-2.279v-.164A3.83,3.83,0,0,1,8.643-4.89,2.709,2.709,0,0,1,9.688-6.05a2.936,2.936,0,0,1,1.544-.407,2.631,2.631,0,0,1,2.048.82,3.333,3.333,0,0,1,.747,2.326v.691H9.99a1.573,1.573,0,0,0,.5,1,1.5,1.5,0,0,0,1.046.375,1.828,1.828,0,0,0,1.529-.709l.832.932a2.542,2.542,0,0,1-1.031.841A3.383,3.383,0,0,1,11.42.117Zm-.193-5.2a1.06,1.06,0,0,0-.817.34,1.756,1.756,0,0,0-.4.973h2.355v-.135a1.252,1.252,0,0,0-.3-.87A1.094,1.094,0,0,0,11.227-5.086Zm5.32-1.254.053.732a2.213,2.213,0,0,1,1.822-.85,1.84,1.84,0,0,1,1.5.592,2.761,2.761,0,0,1,.5,1.77V0H18.732V-4.055a1.1,1.1,0,0,0-.234-.782,1.049,1.049,0,0,0-.779-.243,1.165,1.165,0,0,0-1.072.609V0H14.953V-6.34ZM23.736-7.9V-6.34H24.82V-5.1H23.736v3.164a.756.756,0,0,0,.135.5.677.677,0,0,0,.516.152,2.7,2.7,0,0,0,.5-.041V-.035a3.486,3.486,0,0,1-1.025.152,1.617,1.617,0,0,1-1.816-1.8V-5.1h-.926V-6.34h.926V-7.9Zm5.59,3.146a4.6,4.6,0,0,0-.609-.047,1.24,1.24,0,0,0-1.26.65V0H25.764V-6.34h1.6l.047.756a1.569,1.569,0,0,1,1.412-.873,1.774,1.774,0,0,1,.527.076Zm.232,1.523a3.76,3.76,0,0,1,.363-1.682,2.659,2.659,0,0,1,1.046-1.143,3.051,3.051,0,0,1,1.585-.4,2.887,2.887,0,0,1,2.095.785,3.151,3.151,0,0,1,.905,2.133l.012.434a3.314,3.314,0,0,1-.814,2.341,2.831,2.831,0,0,1-2.186.882,2.845,2.845,0,0,1-2.188-.879,3.372,3.372,0,0,1-.817-2.391Zm1.693.123a2.363,2.363,0,0,0,.34,1.38,1.122,1.122,0,0,0,.973.478,1.124,1.124,0,0,0,.961-.472,2.586,2.586,0,0,0,.346-1.509A2.34,2.34,0,0,0,33.525-4.6a1.124,1.124,0,0,0-.973-.486,1.106,1.106,0,0,0-.961.483A2.63,2.63,0,0,0,31.251-3.105Zm8.08-.111A3.821,3.821,0,0,1,40-5.578a2.158,2.158,0,0,1,1.819-.879,1.942,1.942,0,0,1,1.529.691V-9h1.7V0H43.515l-.082-.674A1.993,1.993,0,0,1,41.8.117a2.152,2.152,0,0,1-1.8-.882A3.944,3.944,0,0,1,39.331-3.217Zm1.693.123a2.5,2.5,0,0,0,.311,1.365,1.012,1.012,0,0,0,.9.475,1.133,1.133,0,0,0,1.107-.662v-2.5a1.117,1.117,0,0,0-1.1-.662Q41.025-5.08,41.025-3.094ZM49.275.117A3.112,3.112,0,0,1,47-.738a3.041,3.041,0,0,1-.876-2.279v-.164A3.83,3.83,0,0,1,46.5-4.89a2.709,2.709,0,0,1,1.046-1.16,2.936,2.936,0,0,1,1.544-.407,2.631,2.631,0,0,1,2.048.82,3.333,3.333,0,0,1,.747,2.326v.691H47.845a1.573,1.573,0,0,0,.5,1,1.5,1.5,0,0,0,1.046.375,1.828,1.828,0,0,0,1.529-.709l.832.932a2.542,2.542,0,0,1-1.031.841A3.383,3.383,0,0,1,49.275.117Zm-.193-5.2a1.06,1.06,0,0,0-.817.34,1.756,1.756,0,0,0-.4.973h2.355v-.135a1.252,1.252,0,0,0-.3-.87A1.094,1.094,0,0,0,49.081-5.086ZM54.871-7.9V-6.34h1.084V-5.1H54.871v3.164a.756.756,0,0,0,.135.5.677.677,0,0,0,.516.152,2.7,2.7,0,0,0,.5-.041V-.035a3.486,3.486,0,0,1-1.025.152,1.617,1.617,0,0,1-1.816-1.8V-5.1h-.926V-6.34h.926V-7.9Zm5.59,3.146a4.6,4.6,0,0,0-.609-.047,1.24,1.24,0,0,0-1.26.65V0H56.9V-6.34h1.6l.047.756a1.569,1.569,0,0,1,1.412-.873,1.774,1.774,0,0,1,.527.076ZM64.949,0a1.88,1.88,0,0,1-.17-.568,2.049,2.049,0,0,1-1.6.686,2.251,2.251,0,0,1-1.544-.539,1.734,1.734,0,0,1-.612-1.359,1.792,1.792,0,0,1,.747-1.547,3.686,3.686,0,0,1,2.159-.545h.779v-.363a1.045,1.045,0,0,0-.226-.7.887.887,0,0,0-.712-.264A1.009,1.009,0,0,0,63.1-5a.7.7,0,0,0-.243.563H61.163a1.7,1.7,0,0,1,.34-1.02,2.246,2.246,0,0,1,.961-.735,3.5,3.5,0,0,1,1.395-.267,2.767,2.767,0,0,1,1.86.589,2.06,2.06,0,0,1,.688,1.655v2.748A3.031,3.031,0,0,0,66.66-.1V0Zm-1.4-1.178a1.458,1.458,0,0,0,.691-.167,1.1,1.1,0,0,0,.469-.448v-1.09h-.633q-1.271,0-1.354.879l-.006.1a.678.678,0,0,0,.223.521A.865.865,0,0,0,63.548-1.178ZM64.193-9h1.846L64.415-7.184H63.038Zm6.949,7.248a.546.546,0,0,0-.308-.489,3.494,3.494,0,0,0-.987-.319q-2.262-.475-2.262-1.922a1.742,1.742,0,0,1,.7-1.409,2.824,2.824,0,0,1,1.831-.565,3.04,3.04,0,0,1,1.931.568,1.791,1.791,0,0,1,.724,1.477H71.078a.819.819,0,0,0-.234-.6.992.992,0,0,0-.732-.237,1.013,1.013,0,0,0-.662.193.61.61,0,0,0-.234.492.522.522,0,0,0,.267.454,2.743,2.743,0,0,0,.9.3,7.346,7.346,0,0,1,1.066.284,1.752,1.752,0,0,1,1.342,1.705,1.654,1.654,0,0,1-.744,1.4,3.21,3.21,0,0,1-1.922.536,3.353,3.353,0,0,1-1.415-.284,2.374,2.374,0,0,1-.97-.779,1.811,1.811,0,0,1-.352-1.069h1.605a.884.884,0,0,0,.334.691,1.325,1.325,0,0,0,.832.24,1.226,1.226,0,0,0,.735-.185A.574.574,0,0,0,71.142-1.752ZM80.16-2.971h-3.3V-4.336h3.3Zm8.883.732A.9.9,0,0,0,88.691-3a4.611,4.611,0,0,0-1.266-.562,8.972,8.972,0,0,1-1.447-.583,2.365,2.365,0,0,1-1.453-2.115,2.06,2.06,0,0,1,.39-1.233,2.542,2.542,0,0,1,1.119-.847,4.212,4.212,0,0,1,1.638-.3,3.834,3.834,0,0,1,1.629.331,2.594,2.594,0,0,1,1.11.935,2.445,2.445,0,0,1,.4,1.371H89.048a1.15,1.15,0,0,0-.369-.911,1.517,1.517,0,0,0-1.037-.325,1.621,1.621,0,0,0-1,.272.859.859,0,0,0-.357.718.823.823,0,0,0,.419.7,4.733,4.733,0,0,0,1.233.527,5.329,5.329,0,0,1,2.186,1.119,2.229,2.229,0,0,1,.686,1.664,2.053,2.053,0,0,1-.838,1.737,3.668,3.668,0,0,1-2.256.63,4.356,4.356,0,0,1-1.793-.36,2.837,2.837,0,0,1-1.233-.987,2.528,2.528,0,0,1-.425-1.453h1.764q0,1.412,1.688,1.412a1.642,1.642,0,0,0,.979-.255A.829.829,0,0,0,89.042-2.238Zm2.93,1.406a.852.852,0,0,1,.272-.656.967.967,0,0,1,.683-.252.975.975,0,0,1,.688.252.852.852,0,0,1,.272.656.841.841,0,0,1-.27.647.979.979,0,0,1-.691.249.971.971,0,0,1-.686-.249A.841.841,0,0,1,91.972-.832ZM102.425,0h-1.758V-3.656H97.24V0H95.482V-8.531H97.24v3.457h3.428V-8.531h1.758Zm1.512-.832a.852.852,0,0,1,.272-.656.967.967,0,0,1,.683-.252.975.975,0,0,1,.688.252.852.852,0,0,1,.272.656.841.841,0,0,1-.27.647.979.979,0,0,1-.691.249.971.971,0,0,1-.686-.249A.841.841,0,0,1,103.937-.832Z" transform="translate(689.828 15266.916) rotate(-92.051)" fill="#161615"/>
        <path id="Trazado_881767" data-name="Trazado 881767" d="M6.428,0H.58V-1.16L3.34-4.1a6.808,6.808,0,0,0,.841-1.084,1.742,1.742,0,0,0,.272-.879,1.3,1.3,0,0,0-.287-.894,1.036,1.036,0,0,0-.82-.325,1.118,1.118,0,0,0-.905.4,1.567,1.567,0,0,0-.331,1.04H.41A2.8,2.8,0,0,1,.782-7.271,2.622,2.622,0,0,1,1.834-8.282a3.2,3.2,0,0,1,1.541-.366,3.027,3.027,0,0,1,2.048.633,2.239,2.239,0,0,1,.729,1.787,2.868,2.868,0,0,1-.328,1.289A7.164,7.164,0,0,1,4.7-3.41L2.76-1.365H6.428Z" transform="matrix(1, -0.025, 0.025, 1, 458.344, 15219.724)" fill="#161615"/>
        <path id="Trazado_881234" data-name="Trazado 881234" d="M68.79,369.255c-.085-1.279,2.939-26.811,2.939-26.811" transform="translate(353.951 14954.877)" fill="none" stroke="#0c1d2f" stroke-linecap="round" stroke-linejoin="round" stroke-width="1"/>
        <path id="Trazado_881768" data-name="Trazado 881768" d="M0,0H361.386V370.467H0Z" transform="translate(353.951 14954.877)" fill="none"/>
        <path id="Trazado_881769" data-name="Trazado 881769" d="M5.186-2.238A.9.9,0,0,0,4.834-3a4.611,4.611,0,0,0-1.266-.562,8.972,8.972,0,0,1-1.447-.583A2.365,2.365,0,0,1,.668-6.264,2.06,2.06,0,0,1,1.058-7.5a2.542,2.542,0,0,1,1.119-.847,4.212,4.212,0,0,1,1.638-.3,3.834,3.834,0,0,1,1.629.331,2.594,2.594,0,0,1,1.11.935,2.445,2.445,0,0,1,.4,1.371H5.191a1.15,1.15,0,0,0-.369-.911,1.517,1.517,0,0,0-1.037-.325,1.621,1.621,0,0,0-1,.272.859.859,0,0,0-.357.718.823.823,0,0,0,.419.7,4.733,4.733,0,0,0,1.233.527A5.329,5.329,0,0,1,6.264-3.914,2.229,2.229,0,0,1,6.949-2.25,2.053,2.053,0,0,1,6.111-.513a3.668,3.668,0,0,1-2.256.63,4.356,4.356,0,0,1-1.793-.36A2.837,2.837,0,0,1,.829-1.23,2.528,2.528,0,0,1,.4-2.684H2.168q0,1.412,1.688,1.412a1.642,1.642,0,0,0,.979-.255A.829.829,0,0,0,5.186-2.238ZM8.115-.832a.852.852,0,0,1,.272-.656A.967.967,0,0,1,9.07-1.74a.975.975,0,0,1,.688.252.852.852,0,0,1,.272.656.841.841,0,0,1-.27.647A.979.979,0,0,1,9.07.064a.971.971,0,0,1-.686-.249A.841.841,0,0,1,8.115-.832ZM18.568,0H16.811V-3.656H13.383V0H11.625V-8.531h1.758v3.457h3.428V-8.531h1.758ZM20.08-.832a.852.852,0,0,1,.272-.656.967.967,0,0,1,.683-.252.975.975,0,0,1,.688.252A.852.852,0,0,1,22-.832a.841.841,0,0,1-.27.647.979.979,0,0,1-.691.249.971.971,0,0,1-.686-.249A.841.841,0,0,1,20.08-.832Z" transform="matrix(-0.008, -1, 1, -0.008, 717.058, 15321.842)" fill="#161615"/>
      </g>
    </g>
  </g>
</svg>
