<svg xmlns="http://www.w3.org/2000/svg" width="256.295" height="271.891" viewBox="0 0 256.295 271.891">
  <g id="Grupo_1103490" data-name="Grupo 1103490" transform="translate(-1144.063 -17827)">
    <path id="Trazado_881381" data-name="Trazado 881381" d="M12.88,254.385H237.717V27.6s-31.173,1.949-42.474-14.418L148.874,26.04s3.9,76.764-22.99,76.375S93.931,84.49,102.5,34.613L53.406,14.35s-3.9,30.784-40.137,35.46Z" transform="translate(1146.38 17829.371)" fill="none" stroke="#0c1d30" stroke-linecap="round" stroke-linejoin="round" stroke-width="1"/>
    <path id="Trazado_881620" data-name="Trazado 881620" d="M0,0,222.111,2.338" transform="translate(1160.43 18002.705)" fill="none" stroke="#9eb3c8" stroke-width="1"/>
    <path id="Trazado_881621" data-name="Trazado 881621" d="M0,0,222.111,2.338" transform="translate(1160.43 17923.213)" fill="none" stroke="#9eb3c8" stroke-width="1"/>
    <path id="Trazado_881622" data-name="Trazado 881622" d="M0,0,222.111,2.338" transform="translate(1160.43 17900.223)" fill="none" stroke="#9eb3c8" stroke-width="1"/>
    <path id="Trazado_881382" data-name="Trazado 881382" d="M13.211,50.226l.78-39.357,109.89,1.157,113.4,1.181.378,14.807" transform="translate(1146.439 17828.955)" fill="none" stroke="#9eb3c8" stroke-miterlimit="10" stroke-width="1"/>
    <path id="Trazado_881623" data-name="Trazado 881623" d="M.775,240.827,0,0" transform="translate(1270.319 17840.98)" fill="none" stroke="#9eb3c8" stroke-width="1"/>
    <path id="Trazado_881383" data-name="Trazado 881383" d="M107.669,239.864s10.911-62.927,0-151.711" transform="translate(1163.426 17842.852)" fill="none" stroke="#9eb3c8" stroke-miterlimit="10" stroke-width="0.953"/>
    <path id="Trazado_881384" data-name="Trazado 881384" d="M107.093,238.684s-9.883-61.746,1.028-150.53" transform="translate(1162.584 17842.854)" fill="none" stroke="#9eb3c8" stroke-miterlimit="10" stroke-width="0.953"/>
    <path id="Trazado_881624" data-name="Trazado 881624" d="M0,0H256.3V271.891H0Z" transform="translate(1144.063 17827)" fill="none"/>
    <path id="Trazado_881594" data-name="Trazado 881594" d="M.889,0V-9.953H3.951A4.651,4.651,0,0,1,6.3-9.362,4.123,4.123,0,0,1,7.916-7.68,5.187,5.187,0,0,1,8.5-5.2v.458a5.2,5.2,0,0,1-.571,2.468A4.088,4.088,0,0,1,6.316-.6,4.686,4.686,0,0,1,3.972,0ZM2.939-8.292v6.645h.991A2.227,2.227,0,0,0,5.77-2.434a3.552,3.552,0,0,0,.649-2.249v-.526a3.609,3.609,0,0,0-.629-2.3,2.219,2.219,0,0,0-1.839-.783ZM13.262.137a3.631,3.631,0,0,1-2.649-1A3.548,3.548,0,0,1,9.591-3.521v-.191A4.468,4.468,0,0,1,10.021-5.7a3.161,3.161,0,0,1,1.22-1.354,3.425,3.425,0,0,1,1.8-.475,3.07,3.07,0,0,1,2.389.957A3.889,3.889,0,0,1,16.3-3.862v.807h-4.71a1.835,1.835,0,0,0,.578,1.162,1.746,1.746,0,0,0,1.22.438,2.132,2.132,0,0,0,1.784-.827L16.146-1.2a2.966,2.966,0,0,1-1.2.981A3.947,3.947,0,0,1,13.262.137Zm-.226-6.07a1.237,1.237,0,0,0-.954.4A2.048,2.048,0,0,0,11.614-4.4h2.748V-4.56a1.46,1.46,0,0,0-.355-1.015A1.277,1.277,0,0,0,13.036-5.934ZM19.51,0H17.527V-10.5H19.51Zm5.913,0a2.194,2.194,0,0,1-.2-.663,2.39,2.39,0,0,1-1.866.8,2.626,2.626,0,0,1-1.8-.629,2.023,2.023,0,0,1-.714-1.586,2.09,2.09,0,0,1,.872-1.8,4.3,4.3,0,0,1,2.519-.636h.909v-.424a1.219,1.219,0,0,0-.263-.82,1.035,1.035,0,0,0-.831-.308,1.177,1.177,0,0,0-.783.239.813.813,0,0,0-.284.656H21.007a1.984,1.984,0,0,1,.4-1.189,2.621,2.621,0,0,1,1.121-.858,4.086,4.086,0,0,1,1.627-.311,3.228,3.228,0,0,1,2.17.687,2.4,2.4,0,0,1,.8,1.931v3.206a3.536,3.536,0,0,0,.294,1.593V0ZM23.789-1.374a1.7,1.7,0,0,0,.807-.195,1.28,1.28,0,0,0,.547-.523V-3.363H24.4q-1.483,0-1.579,1.025l-.007.116a.791.791,0,0,0,.26.608A1.009,1.009,0,0,0,23.789-1.374ZM30.461-7.4l.062.854a2.582,2.582,0,0,1,2.126-.991,2.146,2.146,0,0,1,1.75.69,3.221,3.221,0,0,1,.588,2.064V0H33.011V-4.73a1.282,1.282,0,0,0-.273-.913,1.224,1.224,0,0,0-.909-.284,1.359,1.359,0,0,0-1.251.711V0H28.6V-7.4Zm8.388-1.818V-7.4h1.265v1.449H38.849v3.691a.881.881,0,0,0,.157.588.79.79,0,0,0,.6.178,3.151,3.151,0,0,0,.581-.048v1.5a4.067,4.067,0,0,1-1.2.178,1.886,1.886,0,0,1-2.119-2.1V-5.947h-1.08V-7.4h1.08V-9.215ZM44.618.137a3.631,3.631,0,0,1-2.649-1,3.548,3.548,0,0,1-1.022-2.659v-.191A4.468,4.468,0,0,1,41.378-5.7,3.161,3.161,0,0,1,42.6-7.058a3.425,3.425,0,0,1,1.8-.475,3.07,3.07,0,0,1,2.389.957,3.889,3.889,0,0,1,.872,2.714v.807H42.95a1.835,1.835,0,0,0,.578,1.162,1.746,1.746,0,0,0,1.22.438,2.132,2.132,0,0,0,1.784-.827L47.5-1.2a2.966,2.966,0,0,1-1.2.981A3.947,3.947,0,0,1,44.618.137Zm-.226-6.07a1.237,1.237,0,0,0-.954.4A2.048,2.048,0,0,0,42.971-4.4h2.748V-4.56a1.46,1.46,0,0,0-.355-1.015A1.277,1.277,0,0,0,44.393-5.934Zm8.545.39a5.367,5.367,0,0,0-.711-.055,1.447,1.447,0,0,0-1.47.759V0H48.781V-7.4h1.866l.055.882A1.831,1.831,0,0,1,52.35-7.533a2.07,2.07,0,0,1,.615.089ZM57.969,0a2.194,2.194,0,0,1-.2-.663,2.39,2.39,0,0,1-1.866.8,2.626,2.626,0,0,1-1.8-.629,2.023,2.023,0,0,1-.714-1.586,2.09,2.09,0,0,1,.872-1.8,4.3,4.3,0,0,1,2.519-.636h.909v-.424a1.219,1.219,0,0,0-.263-.82,1.035,1.035,0,0,0-.831-.308,1.177,1.177,0,0,0-.783.239.813.813,0,0,0-.284.656H53.553a1.984,1.984,0,0,1,.4-1.189,2.621,2.621,0,0,1,1.121-.858A4.086,4.086,0,0,1,56.7-7.533a3.228,3.228,0,0,1,2.17.687,2.4,2.4,0,0,1,.8,1.931v3.206a3.536,3.536,0,0,0,.294,1.593V0ZM56.335-1.374a1.7,1.7,0,0,0,.807-.195,1.28,1.28,0,0,0,.547-.523V-3.363H56.95q-1.483,0-1.579,1.025l-.007.116a.791.791,0,0,0,.26.608A1.009,1.009,0,0,0,56.335-1.374Z" transform="translate(1197.048 17984.359)" fill="#0c1d2f"/>
    <path id="Trazado_881595" data-name="Trazado 881595" d="M2.939-1.647H7.294V0H.889V-9.953H2.939ZM10.473,0H8.5V-7.4h1.976ZM9.892-10.4h2.153L10.151-8.278H8.545Zm4.1,3,.062.854a2.582,2.582,0,0,1,2.126-.991,2.146,2.146,0,0,1,1.75.69,3.221,3.221,0,0,1,.588,2.064V0H16.543V-4.73a1.282,1.282,0,0,0-.273-.913,1.224,1.224,0,0,0-.909-.284,1.359,1.359,0,0,0-1.251.711V0H12.134V-7.4ZM23.42.137a3.631,3.631,0,0,1-2.649-1,3.548,3.548,0,0,1-1.022-2.659v-.191A4.468,4.468,0,0,1,20.18-5.7,3.161,3.161,0,0,1,21.4-7.058a3.425,3.425,0,0,1,1.8-.475,3.07,3.07,0,0,1,2.389.957,3.889,3.889,0,0,1,.872,2.714v.807h-4.71a1.835,1.835,0,0,0,.578,1.162,1.746,1.746,0,0,0,1.22.438,2.132,2.132,0,0,0,1.784-.827L26.3-1.2a2.966,2.966,0,0,1-1.2.981A3.947,3.947,0,0,1,23.42.137Zm-.226-6.07a1.237,1.237,0,0,0-.954.4A2.048,2.048,0,0,0,21.772-4.4h2.748V-4.56a1.46,1.46,0,0,0-.355-1.015A1.277,1.277,0,0,0,23.194-5.934ZM31.869,0a2.194,2.194,0,0,1-.2-.663,2.39,2.39,0,0,1-1.866.8A2.626,2.626,0,0,1,28-.492a2.023,2.023,0,0,1-.714-1.586,2.09,2.09,0,0,1,.872-1.8,4.3,4.3,0,0,1,2.519-.636h.909v-.424a1.219,1.219,0,0,0-.263-.82A1.035,1.035,0,0,0,30.5-6.07a1.177,1.177,0,0,0-.783.239.813.813,0,0,0-.284.656H27.453a1.984,1.984,0,0,1,.4-1.189,2.621,2.621,0,0,1,1.121-.858A4.086,4.086,0,0,1,30.6-7.533a3.228,3.228,0,0,1,2.17.687,2.4,2.4,0,0,1,.8,1.931v3.206a3.536,3.536,0,0,0,.294,1.593V0ZM30.235-1.374a1.7,1.7,0,0,0,.807-.195,1.28,1.28,0,0,0,.547-.523V-3.363h-.738q-1.483,0-1.579,1.025l-.007.116a.791.791,0,0,0,.26.608A1.009,1.009,0,0,0,30.235-1.374Zm11.416-.082a1.3,1.3,0,0,0,.889-.3,1.054,1.054,0,0,0,.355-.8h1.853a2.534,2.534,0,0,1-.41,1.377,2.706,2.706,0,0,1-1.1.971,3.455,3.455,0,0,1-1.548.345,3.211,3.211,0,0,1-2.5-1.008,3.99,3.99,0,0,1-.916-2.786v-.13a3.944,3.944,0,0,1,.909-2.728,3.174,3.174,0,0,1,2.5-1.019,3.111,3.111,0,0,1,2.225.79,2.8,2.8,0,0,1,.851,2.1H42.9a1.346,1.346,0,0,0-.355-.933,1.188,1.188,0,0,0-.9-.359,1.19,1.19,0,0,0-1.042.5,2.908,2.908,0,0,0-.352,1.63V-3.6a2.945,2.945,0,0,0,.349,1.641A1.205,1.205,0,0,0,41.651-1.456ZM47.961,0H45.979V-7.4h1.982Zm-2.1-9.311a.973.973,0,0,1,.3-.731,1.117,1.117,0,0,1,.81-.287,1.12,1.12,0,0,1,.807.287.967.967,0,0,1,.3.731.97.97,0,0,1-.3.738,1.122,1.122,0,0,1-.8.287,1.122,1.122,0,0,1-.8-.287A.97.97,0,0,1,45.862-9.311ZM51.406-7.4l.062.854a2.582,2.582,0,0,1,2.126-.991,2.146,2.146,0,0,1,1.75.69,3.221,3.221,0,0,1,.588,2.064V0H53.956V-4.73a1.282,1.282,0,0,0-.273-.913,1.224,1.224,0,0,0-.909-.284,1.359,1.359,0,0,0-1.251.711V0H49.547V-7.4Zm8.388-1.818V-7.4h1.265v1.449H59.794v3.691a.881.881,0,0,0,.157.588.79.79,0,0,0,.6.178,3.151,3.151,0,0,0,.581-.048v1.5a4.067,4.067,0,0,1-1.2.178,1.886,1.886,0,0,1-2.119-2.1V-5.947h-1.08V-7.4h1.08V-9.215ZM66.589-.752a2.477,2.477,0,0,1-2.023.889A2.337,2.337,0,0,1,62.75-.547a2.918,2.918,0,0,1-.639-2V-7.4h1.976v4.778q0,1.155,1.053,1.155a1.427,1.427,0,0,0,1.381-.7V-7.4H68.5V0H66.644Zm7.561-4.792a5.367,5.367,0,0,0-.711-.055,1.447,1.447,0,0,0-1.47.759V0H69.993V-7.4h1.866l.055.882a1.831,1.831,0,0,1,1.647-1.019,2.07,2.07,0,0,1,.615.089ZM79.181,0a2.194,2.194,0,0,1-.2-.663,2.39,2.39,0,0,1-1.866.8,2.626,2.626,0,0,1-1.8-.629A2.023,2.023,0,0,1,74.6-2.078a2.09,2.09,0,0,1,.872-1.8,4.3,4.3,0,0,1,2.519-.636H78.9v-.424a1.219,1.219,0,0,0-.263-.82,1.035,1.035,0,0,0-.831-.308,1.177,1.177,0,0,0-.783.239.813.813,0,0,0-.284.656H74.765a1.985,1.985,0,0,1,.4-1.189,2.621,2.621,0,0,1,1.121-.858,4.086,4.086,0,0,1,1.627-.311,3.228,3.228,0,0,1,2.17.687,2.4,2.4,0,0,1,.8,1.931v3.206a3.536,3.536,0,0,0,.294,1.593V0ZM77.547-1.374a1.7,1.7,0,0,0,.807-.195,1.28,1.28,0,0,0,.547-.523V-3.363h-.738q-1.483,0-1.579,1.025l-.007.116a.791.791,0,0,0,.26.608A1.009,1.009,0,0,0,77.547-1.374Z" transform="translate(1170.544 18017.475)" fill="#0c1d2f"/>
    <path id="Trazado_881596" data-name="Trazado 881596" d="M2.1-1.177H5.21V0H.635V-7.109H2.1ZM7.48,0H6.069V-5.283H7.48ZM7.065-7.427H8.6L7.251-5.913H6.1ZM10-5.283l.044.61a1.845,1.845,0,0,1,1.519-.708,1.533,1.533,0,0,1,1.25.493,2.3,2.3,0,0,1,.42,1.475V0H11.816V-3.379a.915.915,0,0,0-.2-.652.874.874,0,0,0-.649-.2.971.971,0,0,0-.894.508V0H8.667V-5.283ZM16.729.1a2.594,2.594,0,0,1-1.892-.713,2.534,2.534,0,0,1-.73-1.9v-.137a3.192,3.192,0,0,1,.308-1.423,2.258,2.258,0,0,1,.872-.967,2.446,2.446,0,0,1,1.287-.339,2.193,2.193,0,0,1,1.707.684A2.778,2.778,0,0,1,18.9-2.759v.576H15.537a1.311,1.311,0,0,0,.413.83,1.247,1.247,0,0,0,.872.313A1.523,1.523,0,0,0,18.1-1.631l.693.776a2.118,2.118,0,0,1-.859.7A2.819,2.819,0,0,1,16.729.1Zm-.161-4.336a.884.884,0,0,0-.681.283,1.463,1.463,0,0,0-.334.811h1.963v-.112a1.043,1.043,0,0,0-.254-.725A.912.912,0,0,0,16.567-4.238ZM22.764,0a1.567,1.567,0,0,1-.142-.474A1.707,1.707,0,0,1,21.289.1,1.876,1.876,0,0,1,20-.352a1.445,1.445,0,0,1-.51-1.133,1.493,1.493,0,0,1,.623-1.289,3.072,3.072,0,0,1,1.8-.454h.649v-.3a.871.871,0,0,0-.188-.586.74.74,0,0,0-.593-.22.841.841,0,0,0-.559.171.581.581,0,0,0-.2.469H19.609a1.417,1.417,0,0,1,.283-.85,1.872,1.872,0,0,1,.8-.613,2.918,2.918,0,0,1,1.162-.222,2.306,2.306,0,0,1,1.55.491,1.717,1.717,0,0,1,.574,1.379v2.29a2.526,2.526,0,0,0,.21,1.138V0ZM21.6-.981a1.215,1.215,0,0,0,.576-.139.914.914,0,0,0,.391-.374V-2.4h-.527q-1.06,0-1.128.732l0,.083a.565.565,0,0,0,.186.435A.721.721,0,0,0,21.6-.981Zm7.646-5.6v1.3h.9v1.035h-.9v2.637a.63.63,0,0,0,.112.42.564.564,0,0,0,.43.127A2.25,2.25,0,0,0,30.2-1.1V-.029A2.905,2.905,0,0,1,29.346.1a1.347,1.347,0,0,1-1.514-1.5V-4.248h-.771V-5.283h.771v-1.3Zm1.47,3.892a3.133,3.133,0,0,1,.3-1.4,2.216,2.216,0,0,1,.872-.952,2.543,2.543,0,0,1,1.321-.337,2.406,2.406,0,0,1,1.746.654,2.626,2.626,0,0,1,.754,1.777l.01.361a2.761,2.761,0,0,1-.679,1.951A2.359,2.359,0,0,1,33.218.1a2.371,2.371,0,0,1-1.824-.732,2.81,2.81,0,0,1-.681-1.992Zm1.411.1a1.97,1.97,0,0,0,.283,1.15.935.935,0,0,0,.811.4.937.937,0,0,0,.8-.393,2.155,2.155,0,0,0,.288-1.257,1.95,1.95,0,0,0-.288-1.143.937.937,0,0,0-.811-.405.922.922,0,0,0-.8.4A2.191,2.191,0,0,0,32.124-2.588ZM33.486-7.5h1.538L33.672-5.986H32.524Zm6.069,3.54A3.834,3.834,0,0,0,39.048-4,1.034,1.034,0,0,0,38-3.457V0H36.587V-5.283H37.92l.039.63a1.308,1.308,0,0,1,1.177-.728,1.479,1.479,0,0,1,.439.063ZM43.149,0a1.567,1.567,0,0,1-.142-.474A1.707,1.707,0,0,1,41.675.1a1.876,1.876,0,0,1-1.287-.449,1.445,1.445,0,0,1-.51-1.133A1.493,1.493,0,0,1,40.5-2.773a3.072,3.072,0,0,1,1.8-.454h.649v-.3a.871.871,0,0,0-.188-.586.74.74,0,0,0-.593-.22.841.841,0,0,0-.559.171.581.581,0,0,0-.2.469H40a1.418,1.418,0,0,1,.283-.85,1.872,1.872,0,0,1,.8-.613,2.918,2.918,0,0,1,1.162-.222,2.306,2.306,0,0,1,1.55.491,1.717,1.717,0,0,1,.574,1.379v2.29a2.526,2.526,0,0,0,.21,1.138V0ZM41.982-.981a1.215,1.215,0,0,0,.576-.139.914.914,0,0,0,.391-.374V-2.4h-.527q-1.06,0-1.128.732l0,.083a.565.565,0,0,0,.186.435A.721.721,0,0,0,41.982-.981Zm5.479-2.725.889-1.577h1.509L48.354-2.7,49.922,0H48.408l-.942-1.66L46.528,0H45.01l1.567-2.7-1.5-2.588h1.514Z" transform="translate(1170.16 17898.008)" fill="#0c1d2f"/>
    <path id="Trazado_881597" data-name="Trazado 881597" d="M2.1-1.177H5.21V0H.635V-7.109H2.1ZM7.48,0H6.069V-5.283H7.48ZM7.065-7.427H8.6L7.251-5.913H6.1ZM10-5.283l.044.61a1.845,1.845,0,0,1,1.519-.708,1.533,1.533,0,0,1,1.25.493,2.3,2.3,0,0,1,.42,1.475V0H11.816V-3.379a.915.915,0,0,0-.2-.652.874.874,0,0,0-.649-.2.971.971,0,0,0-.894.508V0H8.667V-5.283ZM16.729.1a2.594,2.594,0,0,1-1.892-.713,2.534,2.534,0,0,1-.73-1.9v-.137a3.192,3.192,0,0,1,.308-1.423,2.258,2.258,0,0,1,.872-.967,2.446,2.446,0,0,1,1.287-.339,2.193,2.193,0,0,1,1.707.684A2.778,2.778,0,0,1,18.9-2.759v.576H15.537a1.311,1.311,0,0,0,.413.83,1.247,1.247,0,0,0,.872.313A1.523,1.523,0,0,0,18.1-1.631l.693.776a2.118,2.118,0,0,1-.859.7A2.819,2.819,0,0,1,16.729.1Zm-.161-4.336a.884.884,0,0,0-.681.283,1.463,1.463,0,0,0-.334.811h1.963v-.112a1.043,1.043,0,0,0-.254-.725A.912.912,0,0,0,16.567-4.238ZM22.764,0a1.567,1.567,0,0,1-.142-.474A1.707,1.707,0,0,1,21.289.1,1.876,1.876,0,0,1,20-.352a1.445,1.445,0,0,1-.51-1.133,1.493,1.493,0,0,1,.623-1.289,3.072,3.072,0,0,1,1.8-.454h.649v-.3a.871.871,0,0,0-.188-.586.74.74,0,0,0-.593-.22.841.841,0,0,0-.559.171.581.581,0,0,0-.2.469H19.609a1.417,1.417,0,0,1,.283-.85,1.872,1.872,0,0,1,.8-.613,2.918,2.918,0,0,1,1.162-.222,2.306,2.306,0,0,1,1.55.491,1.717,1.717,0,0,1,.574,1.379v2.29a2.526,2.526,0,0,0,.21,1.138V0ZM21.6-.981a1.215,1.215,0,0,0,.576-.139.914.914,0,0,0,.391-.374V-2.4h-.527q-1.06,0-1.128.732l0,.083a.565.565,0,0,0,.186.435A.721.721,0,0,0,21.6-.981ZM32.314-2.593a3.2,3.2,0,0,1-.542,1.98A1.8,1.8,0,0,1,30.259.1a1.65,1.65,0,0,1-1.372-.659L28.823,0h-1.27V-7.5h1.411v2.69a1.607,1.607,0,0,1,1.284-.571,1.81,1.81,0,0,1,1.516.71,3.2,3.2,0,0,1,.549,2ZM30.9-2.7a2.1,2.1,0,0,0-.254-1.169.859.859,0,0,0-.757-.369.931.931,0,0,0-.928.552V-1.6a.943.943,0,0,0,.938.557.871.871,0,0,0,.9-.674A3.476,3.476,0,0,0,30.9-2.7ZM36.348-.537A1.77,1.77,0,0,1,34.9.1a1.669,1.669,0,0,1-1.3-.488,2.084,2.084,0,0,1-.457-1.431V-5.283h1.411V-1.87q0,.825.752.825a1.019,1.019,0,0,0,.986-.5v-3.74h1.416V0H36.387Zm5.293-.923a.455.455,0,0,0-.256-.408,2.912,2.912,0,0,0-.823-.266q-1.885-.4-1.885-1.6A1.452,1.452,0,0,1,39.26-4.91a2.354,2.354,0,0,1,1.526-.471,2.533,2.533,0,0,1,1.609.474,1.493,1.493,0,0,1,.6,1.23H41.587a.683.683,0,0,0-.2-.5.827.827,0,0,0-.61-.2.845.845,0,0,0-.552.161.509.509,0,0,0-.2.41.435.435,0,0,0,.222.378,2.286,2.286,0,0,0,.75.249,6.122,6.122,0,0,1,.889.237,1.46,1.46,0,0,1,1.118,1.421,1.378,1.378,0,0,1-.62,1.169,2.675,2.675,0,0,1-1.6.447,2.794,2.794,0,0,1-1.179-.237A1.978,1.978,0,0,1,38.8-.789a1.509,1.509,0,0,1-.293-.891h1.338a.737.737,0,0,0,.278.576,1.1,1.1,0,0,0,.693.2,1.022,1.022,0,0,0,.613-.154A.479.479,0,0,0,41.641-1.46Zm3.97-5.122v1.3h.9v1.035h-.9v2.637a.63.63,0,0,0,.112.42.564.564,0,0,0,.43.127,2.25,2.25,0,0,0,.415-.034V-.029A2.905,2.905,0,0,1,45.713.1,1.347,1.347,0,0,1,44.2-1.4V-4.248h-.771V-5.283H44.2v-1.3ZM46.934-2.69a3.133,3.133,0,0,1,.3-1.4,2.216,2.216,0,0,1,.872-.952,2.543,2.543,0,0,1,1.321-.337,2.406,2.406,0,0,1,1.746.654,2.626,2.626,0,0,1,.754,1.777l.01.361A2.761,2.761,0,0,1,51.26-.637,2.359,2.359,0,0,1,49.438.1a2.371,2.371,0,0,1-1.824-.732,2.81,2.81,0,0,1-.681-1.992Zm1.411.1a1.97,1.97,0,0,0,.283,1.15.935.935,0,0,0,.811.4.937.937,0,0,0,.8-.393,2.155,2.155,0,0,0,.288-1.257,1.95,1.95,0,0,0-.288-1.143.937.937,0,0,0-.811-.405.922.922,0,0,0-.8.4A2.191,2.191,0,0,0,48.345-2.588Z" transform="translate(1171.34 17920.609)" fill="#0c1d2f"/>
    <path id="Trazado_881598" data-name="Trazado 881598" d="M2.1-1.177H5.21V0H.635V-7.109H2.1ZM7.48,0H6.069V-5.283H7.48ZM7.065-7.427H8.6L7.251-5.913H6.1ZM10-5.283l.044.61a1.845,1.845,0,0,1,1.519-.708,1.533,1.533,0,0,1,1.25.493,2.3,2.3,0,0,1,.42,1.475V0H11.816V-3.379a.915.915,0,0,0-.2-.652.874.874,0,0,0-.649-.2.971.971,0,0,0-.894.508V0H8.667V-5.283ZM16.729.1a2.594,2.594,0,0,1-1.892-.713,2.534,2.534,0,0,1-.73-1.9v-.137a3.192,3.192,0,0,1,.308-1.423,2.258,2.258,0,0,1,.872-.967,2.446,2.446,0,0,1,1.287-.339,2.193,2.193,0,0,1,1.707.684A2.778,2.778,0,0,1,18.9-2.759v.576H15.537a1.311,1.311,0,0,0,.413.83,1.247,1.247,0,0,0,.872.313A1.523,1.523,0,0,0,18.1-1.631l.693.776a2.118,2.118,0,0,1-.859.7A2.819,2.819,0,0,1,16.729.1Zm-.161-4.336a.884.884,0,0,0-.681.283,1.463,1.463,0,0,0-.334.811h1.963v-.112a1.043,1.043,0,0,0-.254-.725A.912.912,0,0,0,16.567-4.238ZM22.764,0a1.567,1.567,0,0,1-.142-.474A1.707,1.707,0,0,1,21.289.1,1.876,1.876,0,0,1,20-.352a1.445,1.445,0,0,1-.51-1.133,1.493,1.493,0,0,1,.623-1.289,3.072,3.072,0,0,1,1.8-.454h.649v-.3a.871.871,0,0,0-.188-.586.74.74,0,0,0-.593-.22.841.841,0,0,0-.559.171.581.581,0,0,0-.2.469H19.609a1.417,1.417,0,0,1,.283-.85,1.872,1.872,0,0,1,.8-.613,2.918,2.918,0,0,1,1.162-.222,2.306,2.306,0,0,1,1.55.491,1.717,1.717,0,0,1,.574,1.379v2.29a2.526,2.526,0,0,0,.21,1.138V0ZM21.6-.981a1.215,1.215,0,0,0,.576-.139.914.914,0,0,0,.391-.374V-2.4h-.527q-1.06,0-1.128.732l0,.083a.565.565,0,0,0,.186.435A.721.721,0,0,0,21.6-.981ZM32.314-2.593a3.2,3.2,0,0,1-.542,1.98A1.8,1.8,0,0,1,30.259.1a1.65,1.65,0,0,1-1.372-.659L28.823,0h-1.27V-7.5h1.411v2.69a1.607,1.607,0,0,1,1.284-.571,1.81,1.81,0,0,1,1.516.71,3.2,3.2,0,0,1,.549,2ZM30.9-2.7a2.1,2.1,0,0,0-.254-1.169.859.859,0,0,0-.757-.369.931.931,0,0,0-.928.552V-1.6a.943.943,0,0,0,.938.557.871.871,0,0,0,.9-.674A3.476,3.476,0,0,0,30.9-2.7ZM36.348-.537A1.77,1.77,0,0,1,34.9.1a1.669,1.669,0,0,1-1.3-.488,2.084,2.084,0,0,1-.457-1.431V-5.283h1.411V-1.87q0,.825.752.825a1.019,1.019,0,0,0,.986-.5v-3.74h1.416V0H36.387Zm5.293-.923a.455.455,0,0,0-.256-.408,2.912,2.912,0,0,0-.823-.266q-1.885-.4-1.885-1.6A1.452,1.452,0,0,1,39.26-4.91a2.354,2.354,0,0,1,1.526-.471,2.533,2.533,0,0,1,1.609.474,1.493,1.493,0,0,1,.6,1.23H41.587a.683.683,0,0,0-.2-.5.827.827,0,0,0-.61-.2.845.845,0,0,0-.552.161.509.509,0,0,0-.2.41.435.435,0,0,0,.222.378,2.286,2.286,0,0,0,.75.249,6.122,6.122,0,0,1,.889.237,1.46,1.46,0,0,1,1.118,1.421,1.378,1.378,0,0,1-.62,1.169,2.675,2.675,0,0,1-1.6.447,2.794,2.794,0,0,1-1.179-.237A1.978,1.978,0,0,1,38.8-.789a1.509,1.509,0,0,1-.293-.891h1.338a.737.737,0,0,0,.278.576,1.1,1.1,0,0,0,.693.2,1.022,1.022,0,0,0,.613-.154A.479.479,0,0,0,41.641-1.46Zm3.97-5.122v1.3h.9v1.035h-.9v2.637a.63.63,0,0,0,.112.42.564.564,0,0,0,.43.127,2.25,2.25,0,0,0,.415-.034V-.029A2.905,2.905,0,0,1,45.713.1,1.347,1.347,0,0,1,44.2-1.4V-4.248h-.771V-5.283H44.2v-1.3ZM46.934-2.69a3.133,3.133,0,0,1,.3-1.4,2.216,2.216,0,0,1,.872-.952,2.543,2.543,0,0,1,1.321-.337,2.406,2.406,0,0,1,1.746.654,2.626,2.626,0,0,1,.754,1.777l.01.361A2.761,2.761,0,0,1,51.26-.637,2.359,2.359,0,0,1,49.438.1a2.371,2.371,0,0,1-1.824-.732,2.81,2.81,0,0,1-.681-1.992Zm1.411.1a1.97,1.97,0,0,0,.283,1.15.935.935,0,0,0,.811.4.937.937,0,0,0,.8-.393,2.155,2.155,0,0,0,.288-1.257,1.95,1.95,0,0,0-.288-1.143.937.937,0,0,0-.811-.405.922.922,0,0,0-.8.4A2.191,2.191,0,0,0,48.345-2.588Z" transform="translate(1313.176 17920.609)" fill="#0c1d2f"/>
    <path id="Trazado_881599" data-name="Trazado 881599" d="M6.421,0H4.956V-3.047H2.1V0H.635V-7.109H2.1v2.881H4.956V-7.109H6.421Zm4.556,0H9.565V-5.439l-1.685.522V-6.064l2.944-1.055h.151Z" transform="translate(1289.409 17934.643)" fill="#0c1d2f"/>
    <path id="Trazado_881600" data-name="Trazado 881600" d="M2.192,0H.728V-7.109H2.192ZM6.826,0H5.415V-5.439L3.73-4.917V-6.064L6.675-7.119h.151Z" transform="translate(1234.076 17934.643)" fill="#0c1d2f"/>
    <path id="Trazado_881625" data-name="Trazado 881625" d="M5.414-6.4v4.214A2.158,2.158,0,0,1,4.757-.523a2.533,2.533,0,0,1-1.8.611,2.561,2.561,0,0,1-1.78-.593A2.121,2.121,0,0,1,.51-2.136V-6.4H1.828v4.223a1.219,1.219,0,0,0,.3.916,1.156,1.156,0,0,0,.833.288q1.112,0,1.129-1.169V-6.4ZM7.651-3.762h.677A.954.954,0,0,0,9.044-4a.886.886,0,0,0,.233-.642.783.783,0,0,0-.231-.6.894.894,0,0,0-.635-.215.937.937,0,0,0-.611.2.639.639,0,0,0-.246.521H6.284a1.562,1.562,0,0,1,.27-.9,1.8,1.8,0,0,1,.756-.622,2.523,2.523,0,0,1,1.07-.224A2.392,2.392,0,0,1,9.971-6a1.657,1.657,0,0,1,.576,1.338,1.346,1.346,0,0,1-.268.809,1.742,1.742,0,0,1-.7.567,1.59,1.59,0,0,1,.806.58,1.574,1.574,0,0,1,.266.914,1.684,1.684,0,0,1-.622,1.367A2.5,2.5,0,0,1,8.38.088,2.371,2.371,0,0,1,6.814-.417a1.65,1.65,0,0,1-.609-1.336h1.27a.736.736,0,0,0,.27.589,1,1,0,0,0,.666.229,1,1,0,0,0,.71-.24.827.827,0,0,0,.257-.635q0-.958-1.055-.958H7.651Z" transform="translate(1144.063 17884.148)" fill="#0c1d2f"/>
    <path id="Trazado_881626" data-name="Trazado 881626" d="M2.549-7.109,4.375-1.953,6.191-7.109H8.115V0H6.646V-1.943L6.792-5.3,4.873,0H3.867L1.953-5.293,2.1-1.943V0H.635V-7.109Z" transform="translate(1144.063 17906.576)" fill="#0c1d2f"/>
    <path id="Trazado_881627" data-name="Trazado 881627" d="M0,0H256.3V271.891H0Z" transform="translate(1144.063 17827)" fill="none"/>
    <path id="Trazado_881601" data-name="Trazado 881601" d="M2.192,0H.728V-7.109H2.192Z" transform="translate(1150.199 17929.572)" fill="#0c1d2f"/>
    <path id="Trazado_881602" data-name="Trazado 881602" d="M.635,0V-7.109h2.49a3.27,3.27,0,0,1,1.963.5,1.7,1.7,0,0,1,.669,1.453,1.606,1.606,0,0,1-.269.92,1.551,1.551,0,0,1-.747.583,1.5,1.5,0,0,1,.862.552A1.631,1.631,0,0,1,5.918-2.09,1.876,1.876,0,0,1,5.264-.537,2.946,2.946,0,0,1,3.4,0ZM2.1-3.1v1.919H3.354a1.211,1.211,0,0,0,.808-.247A.846.846,0,0,0,4.453-2.1.893.893,0,0,0,3.442-3.1Zm0-1.035H3.184q1.108-.02,1.108-.884a.817.817,0,0,0-.281-.7,1.477,1.477,0,0,0-.886-.212H2.1Z" transform="translate(1148.348 18006.342)" fill="#0c1d2f"/>
    <path id="Trazado_881628" data-name="Trazado 881628" d="M.635,0V-7.109h2.49a3.27,3.27,0,0,1,1.963.5,1.7,1.7,0,0,1,.669,1.453,1.606,1.606,0,0,1-.269.92,1.551,1.551,0,0,1-.747.583,1.5,1.5,0,0,1,.862.552A1.631,1.631,0,0,1,5.918-2.09,1.876,1.876,0,0,1,5.264-.537,2.946,2.946,0,0,1,3.4,0ZM2.1-3.1v1.919H3.354a1.211,1.211,0,0,0,.808-.247A.846.846,0,0,0,4.453-2.1.893.893,0,0,0,3.442-3.1Zm0-1.035H3.184q1.108-.02,1.108-.884a.817.817,0,0,0-.281-.7,1.477,1.477,0,0,0-.886-.212H2.1ZM10.293,0H8.882V-5.439L7.2-4.917V-6.064l2.944-1.055h.151Z" transform="translate(1144.063 18083.102)" fill="#0c1d2f"/>
    <path id="Trazado_881629" data-name="Trazado 881629" d="M4.912-3.081H2.1v1.9H5.4V0H.635V-7.109H5.391v1.187H2.1v1.694H4.912ZM9.536,0H8.125V-5.439L6.44-4.917V-6.064L9.385-7.119h.151Z" transform="translate(1266.025 18095.57)" fill="#0c1d2f"/>
    <path id="Trazado_881630" data-name="Trazado 881630" d="M5.414-6.4v4.214A2.158,2.158,0,0,1,4.757-.523a2.533,2.533,0,0,1-1.8.611,2.561,2.561,0,0,1-1.78-.593A2.121,2.121,0,0,1,.51-2.136V-6.4H1.828v4.223a1.219,1.219,0,0,0,.3.916,1.156,1.156,0,0,0,.833.288q1.112,0,1.129-1.169V-6.4ZM9.444,0H8.174V-4.9l-1.516.47V-5.458l2.65-.949h.136Z" transform="translate(1144.063 17874.018)" fill="#0c1d2f"/>
    <path id="Trazado_881631" data-name="Trazado 881631" d="M0,0H256.3V271.891H0Z" transform="translate(1144.063 17827)" fill="none"/>
    <path id="Trazado_881603" data-name="Trazado 881603" d="M2.188-1.177H5.771V0H.356V-.859L3.872-5.923H.361V-7.109H5.693v.84ZM9.971,0H8.56V-5.439l-1.685.522V-6.064L9.819-7.119h.151Z" transform="translate(1252.78 17869.563)" fill="#0c1d2f"/>
    <path id="Trazado_881604" data-name="Trazado 881604" d="M3.151-6.4H4.469v4.43A2.118,2.118,0,0,1,4.2-.89a1.834,1.834,0,0,1-.762.723A2.382,2.382,0,0,1,2.325.088,2.264,2.264,0,0,1,.743-.428,1.876,1.876,0,0,1,.176-1.89H1.5a1.029,1.029,0,0,0,.2.694.791.791,0,0,0,.624.224.755.755,0,0,0,.6-.259,1.1,1.1,0,0,0,.224-.738Z" transform="translate(1249.27 17897.01)" fill="#0c1d2f"/>
    <path id="Trazado_881605" data-name="Trazado 881605" d="M3.5-7.109H4.966v4.922a2.354,2.354,0,0,1-.3,1.2,2.038,2.038,0,0,1-.847.8A2.647,2.647,0,0,1,2.583.1,2.515,2.515,0,0,1,.825-.476,2.085,2.085,0,0,1,.2-2.1H1.67a1.143,1.143,0,0,0,.22.771.879.879,0,0,0,.693.249.839.839,0,0,0,.669-.288,1.217,1.217,0,0,0,.249-.82ZM9.5,0H8.086V-5.439L6.4-4.917V-6.064L9.346-7.119H9.5Z" transform="translate(1229.801 17898.01)" fill="#0c1d2f"/>
    <path id="Trazado_881606" data-name="Trazado 881606" d="M2.1-1.177H5.21V0H.635V-7.109H2.1ZM9.326,0H7.915V-5.439L6.23-4.917V-6.064L9.175-7.119h.151Z" transform="translate(1296.432 17898.01)" fill="#0c1d2f"/>
    <path id="Trazado_881607" data-name="Trazado 881607" d="M6.26-.9a2.543,2.543,0,0,1-1.118.735A4.683,4.683,0,0,1,3.54.1a3.173,3.173,0,0,1-1.619-.4A2.687,2.687,0,0,1,.847-1.475a4.116,4.116,0,0,1-.388-1.8V-3.76A4.371,4.371,0,0,1,.818-5.6,2.655,2.655,0,0,1,1.853-6.794a2.982,2.982,0,0,1,1.584-.413,2.969,2.969,0,0,1,1.978.6A2.577,2.577,0,0,1,6.26-4.849H4.834A1.418,1.418,0,0,0,4.4-5.742a1.38,1.38,0,0,0-.92-.283,1.3,1.3,0,0,0-1.138.562,2.953,2.953,0,0,0-.4,1.67v.454A2.811,2.811,0,0,0,2.373-1.65a1.455,1.455,0,0,0,1.245.571,1.625,1.625,0,0,0,1.177-.352V-2.656H3.462V-3.735h2.8Zm4.463.9H9.312V-5.439l-1.685.522V-6.064l2.944-1.055h.151Z" transform="translate(1279.271 17858.658)" fill="#0c1d2f"/>
    <path id="Trazado_881608" data-name="Trazado 881608" d="M6.416,0H4.951L2.1-4.678V0H.635V-7.109H2.1L4.956-2.422V-7.109h1.46Z" transform="translate(1342.784 17860.998)" fill="#0c1d2f"/>
    <path id="Trazado_881609" data-name="Trazado 881609" d="M4.648-1.465H2.08L1.592,0H.034L2.681-7.109H4.038L6.7,0H5.142ZM2.476-2.651H4.253L3.359-5.312Z" transform="translate(1149.116 17842.678)" fill="#0c1d2f"/>
    <path id="Trazado_881632" data-name="Trazado 881632" d="M6.016-7.109v4.683a2.4,2.4,0,0,1-.73,1.846A2.814,2.814,0,0,1,3.291.1,2.846,2.846,0,0,1,1.313-.562,2.356,2.356,0,0,1,.566-2.373V-7.109H2.031v4.692A1.355,1.355,0,0,0,2.366-1.4a1.284,1.284,0,0,0,.925.32q1.235,0,1.255-1.3V-7.109Z" transform="translate(1191.603 17835.662)" fill="#0c1d2f"/>
    <path id="Trazado_881633" data-name="Trazado 881633" d="M1.969-1.059H5.194V0H.321V-.773L3.485-5.331H.325V-6.4h4.8v.756Z" transform="translate(1245.765 17834.662)" fill="#0c1d2f"/>
    <path id="Trazado_881634" data-name="Trazado 881634" d="M4.421-2.615H1.89V0H.571V-6.4H4.737v1.068H1.89v1.652H4.421Z" transform="translate(1268.755 17834.662)" fill="#0c1d2f"/>
    <path id="Trazado_881635" data-name="Trazado 881635" d="M6.26-.9a2.543,2.543,0,0,1-1.118.735A4.683,4.683,0,0,1,3.54.1a3.173,3.173,0,0,1-1.619-.4A2.687,2.687,0,0,1,.847-1.475a4.116,4.116,0,0,1-.388-1.8V-3.76A4.371,4.371,0,0,1,.818-5.6,2.655,2.655,0,0,1,1.853-6.794a2.982,2.982,0,0,1,1.584-.413,2.969,2.969,0,0,1,1.978.6A2.577,2.577,0,0,1,6.26-4.849H4.834A1.418,1.418,0,0,0,4.4-5.742a1.38,1.38,0,0,0-.92-.283,1.3,1.3,0,0,0-1.138.562,2.953,2.953,0,0,0-.4,1.67v.454A2.811,2.811,0,0,0,2.373-1.65a1.455,1.455,0,0,0,1.245.571,1.625,1.625,0,0,0,1.177-.352V-2.656H3.462V-3.735h2.8Z" transform="translate(1291.352 17835.662)" fill="#0c1d2f"/>
    <path id="Trazado_881636" data-name="Trazado 881636" d="M2.1-2.5V0H.635V-7.109H3.408a3.209,3.209,0,0,1,1.409.293,2.159,2.159,0,0,1,.935.833,2.321,2.321,0,0,1,.327,1.228,2.041,2.041,0,0,1-.715,1.648,2.979,2.979,0,0,1-1.98.6Zm0-1.187H3.408a1.287,1.287,0,0,0,.886-.273A1,1,0,0,0,4.6-4.746a1.173,1.173,0,0,0-.308-.845,1.149,1.149,0,0,0-.85-.332H2.1Z" transform="translate(1344.344 17835.662)" fill="#0c1d2f"/>
    <path id="Trazado_881637" data-name="Trazado 881637" d="M0,0H256.3V271.891H0Z" transform="translate(1144.063 17827)" fill="none"/>
    <path id="Trazado_881610" data-name="Trazado 881610" d="M.635,0V-7.109H2.822A3.322,3.322,0,0,1,4.5-6.687a2.945,2.945,0,0,1,1.155,1.2,3.7,3.7,0,0,1,.415,1.77v.327a3.715,3.715,0,0,1-.408,1.763,2.92,2.92,0,0,1-1.15,1.2A3.347,3.347,0,0,1,2.837,0ZM2.1-5.923v4.746h.708a1.591,1.591,0,0,0,1.313-.562,2.537,2.537,0,0,0,.464-1.606v-.376a2.578,2.578,0,0,0-.449-1.643,1.585,1.585,0,0,0-1.313-.559Z" transform="translate(1387.215 17843.066)" fill="#0c1d2f"/>
    <path id="Trazado_881638" data-name="Trazado 881638" d="M.635,0V-7.109H2.822A3.322,3.322,0,0,1,4.5-6.687a2.945,2.945,0,0,1,1.155,1.2,3.7,3.7,0,0,1,.415,1.77v.327a3.715,3.715,0,0,1-.408,1.763,2.92,2.92,0,0,1-1.15,1.2A3.347,3.347,0,0,1,2.837,0ZM2.1-5.923v4.746h.708a1.591,1.591,0,0,0,1.313-.562,2.537,2.537,0,0,0,.464-1.606v-.376a2.578,2.578,0,0,0-.449-1.643,1.585,1.585,0,0,0-1.313-.559ZM10.41,0H9V-5.439l-1.685.522V-6.064l2.944-1.055h.151Z" transform="translate(1387.215 17853.586)" fill="#0c1d2f"/>
    <path id="Trazado_881639" data-name="Trazado 881639" d="M0,0H256.3V271.891H0Z" transform="translate(1144.063 17827)" fill="none"/>
    <path id="Trazado_881611" data-name="Trazado 881611" d="M1.89-1.059h2.8V0H.571V-6.4H1.89Z" transform="translate(1387.215 17901.684)" fill="#0c1d2f"/>
    <path id="Trazado_881612" data-name="Trazado 881612" d="M6.421,0H4.956V-3.047H2.1V0H.635V-7.109H2.1v2.881H4.956V-7.109H6.421Z" transform="translate(1387.215 17928.398)" fill="#0c1d2f"/>
    <path id="Trazado_881613" data-name="Trazado 881613" d="M6.216-2.368A2.516,2.516,0,0,1,5.369-.562,2.975,2.975,0,0,1,3.354.1,2.675,2.675,0,0,1,1.2-.823,3.774,3.774,0,0,1,.42-3.35v-.435A4.262,4.262,0,0,1,.781-5.591a2.708,2.708,0,0,1,1.033-1.2,2.893,2.893,0,0,1,1.56-.417,2.9,2.9,0,0,1,1.982.659A2.7,2.7,0,0,1,6.226-4.7H4.761a1.485,1.485,0,0,0-.383-1,1.419,1.419,0,0,0-1-.31,1.245,1.245,0,0,0-1.1.525A2.942,2.942,0,0,0,1.9-3.853v.537a3.148,3.148,0,0,0,.349,1.685,1.222,1.222,0,0,0,1.1.532,1.446,1.446,0,0,0,1.013-.31,1.4,1.4,0,0,0,.383-.959Z" transform="translate(1387.215 18007.891)" fill="#0c1d2f"/>
    <path id="Trazado_881640" data-name="Trazado 881640" d="M6.216-2.368A2.516,2.516,0,0,1,5.369-.562,2.975,2.975,0,0,1,3.354.1,2.675,2.675,0,0,1,1.2-.823,3.774,3.774,0,0,1,.42-3.35v-.435A4.262,4.262,0,0,1,.781-5.591a2.708,2.708,0,0,1,1.033-1.2,2.893,2.893,0,0,1,1.56-.417,2.9,2.9,0,0,1,1.982.659A2.7,2.7,0,0,1,6.226-4.7H4.761a1.485,1.485,0,0,0-.383-1,1.419,1.419,0,0,0-1-.31,1.245,1.245,0,0,0-1.1.525A2.942,2.942,0,0,0,1.9-3.853v.537a3.148,3.148,0,0,0,.349,1.685,1.222,1.222,0,0,0,1.1.532,1.446,1.446,0,0,0,1.013-.31,1.4,1.4,0,0,0,.383-.959ZM10.454,0H9.043V-5.439l-1.685.522V-6.064L10.3-7.119h.151Z" transform="translate(1387.215 18088.945)" fill="#0c1d2f"/>
    <path id="Trazado_881641" data-name="Trazado 881641" d="M2.1-2.5V0H.635V-7.109H3.408a3.209,3.209,0,0,1,1.409.293,2.159,2.159,0,0,1,.935.833,2.321,2.321,0,0,1,.327,1.228,2.041,2.041,0,0,1-.715,1.648,2.979,2.979,0,0,1-1.98.6Zm0-1.187H3.408a1.287,1.287,0,0,0,.886-.273A1,1,0,0,0,4.6-4.746a1.173,1.173,0,0,0-.308-.845,1.149,1.149,0,0,0-.85-.332H2.1ZM10.361,0H8.95V-5.439l-1.685.522V-6.064L10.21-7.119h.151Z" transform="translate(1326.427 17835.658)" fill="#0c1d2f"/>
    <path id="Trazado_881642" data-name="Trazado 881642" d="M0,0H256.3V271.891H0Z" transform="translate(1144.063 17827)" fill="none"/>
    <path id="Trazado_881614" data-name="Trazado 881614" d="M2.1-1.177H5.21V0H.635V-7.109H2.1ZM7.48,0H6.069V-5.283H7.48ZM7.065-7.427H8.6L7.251-5.913H6.1ZM10-5.283l.044.61a1.845,1.845,0,0,1,1.519-.708,1.533,1.533,0,0,1,1.25.493,2.3,2.3,0,0,1,.42,1.475V0H11.816V-3.379a.915.915,0,0,0-.2-.652.874.874,0,0,0-.649-.2.971.971,0,0,0-.894.508V0H8.667V-5.283ZM16.729.1a2.594,2.594,0,0,1-1.892-.713,2.534,2.534,0,0,1-.73-1.9v-.137a3.192,3.192,0,0,1,.308-1.423,2.258,2.258,0,0,1,.872-.967,2.446,2.446,0,0,1,1.287-.339,2.193,2.193,0,0,1,1.707.684A2.778,2.778,0,0,1,18.9-2.759v.576H15.537a1.311,1.311,0,0,0,.413.83,1.247,1.247,0,0,0,.872.313A1.523,1.523,0,0,0,18.1-1.631l.693.776a2.118,2.118,0,0,1-.859.7A2.819,2.819,0,0,1,16.729.1Zm-.161-4.336a.884.884,0,0,0-.681.283,1.463,1.463,0,0,0-.334.811h1.963v-.112a1.043,1.043,0,0,0-.254-.725A.912.912,0,0,0,16.567-4.238ZM22.764,0a1.567,1.567,0,0,1-.142-.474A1.707,1.707,0,0,1,21.289.1,1.876,1.876,0,0,1,20-.352a1.445,1.445,0,0,1-.51-1.133,1.493,1.493,0,0,1,.623-1.289,3.072,3.072,0,0,1,1.8-.454h.649v-.3a.871.871,0,0,0-.188-.586.74.74,0,0,0-.593-.22.841.841,0,0,0-.559.171.581.581,0,0,0-.2.469H19.609a1.417,1.417,0,0,1,.283-.85,1.872,1.872,0,0,1,.8-.613,2.918,2.918,0,0,1,1.162-.222,2.306,2.306,0,0,1,1.55.491,1.717,1.717,0,0,1,.574,1.379v2.29a2.526,2.526,0,0,0,.21,1.138V0ZM21.6-.981a1.215,1.215,0,0,0,.576-.139.914.914,0,0,0,.391-.374V-2.4h-.527q-1.06,0-1.128.732l0,.083a.565.565,0,0,0,.186.435A.721.721,0,0,0,21.6-.981Zm7.334-3.726a1.761,1.761,0,0,1,1.411-.674q1.719,0,1.743,2V0H30.674V-3.345a.982.982,0,0,0-.2-.671.837.837,0,0,0-.649-.217.96.96,0,0,0-.9.479V0H27.52V-7.5h1.411Zm4,2.017a3.133,3.133,0,0,1,.3-1.4,2.216,2.216,0,0,1,.872-.952,2.543,2.543,0,0,1,1.321-.337,2.406,2.406,0,0,1,1.746.654,2.626,2.626,0,0,1,.754,1.777l.01.361a2.761,2.761,0,0,1-.679,1.951A2.359,2.359,0,0,1,35.435.1a2.371,2.371,0,0,1-1.824-.732,2.81,2.81,0,0,1-.681-1.992Zm1.411.1a1.97,1.97,0,0,0,.283,1.15.935.935,0,0,0,.811.4.937.937,0,0,0,.8-.393,2.155,2.155,0,0,0,.288-1.257,1.95,1.95,0,0,0-.288-1.143.937.937,0,0,0-.811-.405.922.922,0,0,0-.8.4A2.191,2.191,0,0,0,34.341-2.588Zm5.786-2.7.044.591a1.857,1.857,0,0,1,1.519-.688,1.409,1.409,0,0,1,1.4.806,1.814,1.814,0,0,1,1.587-.806,1.576,1.576,0,0,1,1.279.5,2.3,2.3,0,0,1,.42,1.506V0H44.961V-3.369a1.006,1.006,0,0,0-.176-.657.779.779,0,0,0-.62-.208.881.881,0,0,0-.879.605l0,3.628H41.88V-3.364a.994.994,0,0,0-.181-.664.787.787,0,0,0-.615-.205.914.914,0,0,0-.869.5V0H38.8V-5.283Zm12.095,2.69a3.2,3.2,0,0,1-.542,1.98A1.8,1.8,0,0,1,50.166.1a1.649,1.649,0,0,1-1.372-.659L48.73,0h-1.27V-7.5h1.411v2.69a1.607,1.607,0,0,1,1.284-.571,1.81,1.81,0,0,1,1.516.71,3.2,3.2,0,0,1,.549,2Zm-1.411-.1a2.1,2.1,0,0,0-.254-1.169.859.859,0,0,0-.757-.369.931.931,0,0,0-.928.552V-1.6a.943.943,0,0,0,.938.557.871.871,0,0,0,.9-.674A3.476,3.476,0,0,0,50.811-2.7ZM56.06-3.96A3.834,3.834,0,0,0,55.552-4a1.034,1.034,0,0,0-1.05.542V0H53.091V-5.283h1.333l.039.63a1.308,1.308,0,0,1,1.177-.728,1.479,1.479,0,0,1,.439.063Zm.2,1.27a3.133,3.133,0,0,1,.3-1.4,2.216,2.216,0,0,1,.872-.952,2.543,2.543,0,0,1,1.321-.337,2.406,2.406,0,0,1,1.746.654,2.626,2.626,0,0,1,.754,1.777l.01.361a2.761,2.761,0,0,1-.679,1.951A2.359,2.359,0,0,1,58.768.1a2.371,2.371,0,0,1-1.824-.732,2.81,2.81,0,0,1-.681-1.992Zm1.411.1a1.97,1.97,0,0,0,.283,1.15.935.935,0,0,0,.811.4.937.937,0,0,0,.8-.393,2.155,2.155,0,0,0,.288-1.257,1.95,1.95,0,0,0-.288-1.143.937.937,0,0,0-.811-.405.922.922,0,0,0-.8.4A2.191,2.191,0,0,0,57.674-2.588ZM65-1.46a.455.455,0,0,0-.256-.408,2.912,2.912,0,0,0-.823-.266q-1.885-.4-1.885-1.6a1.452,1.452,0,0,1,.583-1.174,2.354,2.354,0,0,1,1.526-.471,2.533,2.533,0,0,1,1.609.474,1.493,1.493,0,0,1,.6,1.23H64.944a.683.683,0,0,0-.2-.5.827.827,0,0,0-.61-.2.845.845,0,0,0-.552.161.509.509,0,0,0-.2.41.435.435,0,0,0,.222.378,2.286,2.286,0,0,0,.75.249,6.122,6.122,0,0,1,.889.237A1.46,1.46,0,0,1,66.37-1.519a1.378,1.378,0,0,1-.62,1.169,2.675,2.675,0,0,1-1.6.447,2.794,2.794,0,0,1-1.179-.237,1.978,1.978,0,0,1-.808-.649,1.509,1.509,0,0,1-.293-.891h1.338a.737.737,0,0,0,.278.576,1.1,1.1,0,0,0,.693.2,1.022,1.022,0,0,0,.613-.154A.479.479,0,0,0,65-1.46Z" transform="translate(1312.822 17898.93)" fill="#0c1d2f"/>
    <path id="Trazado_881615" data-name="Trazado 881615" d="M2.939-1.647H7.294V0H.889V-9.953H2.939ZM10.473,0H8.5V-7.4h1.976ZM9.892-10.4h2.153L10.151-8.278H8.545Zm4.1,3,.062.854a2.582,2.582,0,0,1,2.126-.991,2.146,2.146,0,0,1,1.75.69,3.221,3.221,0,0,1,.588,2.064V0H16.543V-4.73a1.282,1.282,0,0,0-.273-.913,1.224,1.224,0,0,0-.909-.284,1.359,1.359,0,0,0-1.251.711V0H12.134V-7.4ZM23.42.137a3.631,3.631,0,0,1-2.649-1,3.548,3.548,0,0,1-1.022-2.659v-.191A4.468,4.468,0,0,1,20.18-5.7,3.161,3.161,0,0,1,21.4-7.058a3.425,3.425,0,0,1,1.8-.475,3.07,3.07,0,0,1,2.389.957,3.889,3.889,0,0,1,.872,2.714v.807h-4.71a1.835,1.835,0,0,0,.578,1.162,1.746,1.746,0,0,0,1.22.438,2.132,2.132,0,0,0,1.784-.827L26.3-1.2a2.966,2.966,0,0,1-1.2.981A3.947,3.947,0,0,1,23.42.137Zm-.226-6.07a1.237,1.237,0,0,0-.954.4A2.048,2.048,0,0,0,21.772-4.4h2.748V-4.56a1.46,1.46,0,0,0-.355-1.015A1.277,1.277,0,0,0,23.194-5.934ZM31.869,0a2.194,2.194,0,0,1-.2-.663,2.39,2.39,0,0,1-1.866.8A2.626,2.626,0,0,1,28-.492a2.023,2.023,0,0,1-.714-1.586,2.09,2.09,0,0,1,.872-1.8,4.3,4.3,0,0,1,2.519-.636h.909v-.424a1.219,1.219,0,0,0-.263-.82A1.035,1.035,0,0,0,30.5-6.07a1.177,1.177,0,0,0-.783.239.813.813,0,0,0-.284.656H27.453a1.984,1.984,0,0,1,.4-1.189,2.621,2.621,0,0,1,1.121-.858A4.086,4.086,0,0,1,30.6-7.533a3.228,3.228,0,0,1,2.17.687,2.4,2.4,0,0,1,.8,1.931v3.206a3.536,3.536,0,0,0,.294,1.593V0ZM30.235-1.374a1.7,1.7,0,0,0,.807-.195,1.28,1.28,0,0,0,.547-.523V-3.363h-.738q-1.483,0-1.579,1.025l-.007.116a.791.791,0,0,0,.26.608A1.009,1.009,0,0,0,30.235-1.374ZM66.158-3.63A4.479,4.479,0,0,1,65.4-.858,2.513,2.513,0,0,1,63.28.137a2.309,2.309,0,0,1-1.921-.923L61.271,0H59.493V-10.5h1.976v3.767a2.25,2.25,0,0,1,1.8-.8,2.534,2.534,0,0,1,2.123.995,4.485,4.485,0,0,1,.769,2.8Zm-1.976-.144a2.942,2.942,0,0,0-.355-1.637,1.2,1.2,0,0,0-1.06-.516,1.3,1.3,0,0,0-1.3.772v2.919a1.321,1.321,0,0,0,1.313.779A1.22,1.22,0,0,0,64.039-2.4,4.866,4.866,0,0,0,64.183-3.773ZM71.661,0a2.194,2.194,0,0,1-.2-.663,2.39,2.39,0,0,1-1.866.8,2.626,2.626,0,0,1-1.8-.629,2.023,2.023,0,0,1-.714-1.586,2.09,2.09,0,0,1,.872-1.8,4.3,4.3,0,0,1,2.519-.636h.909v-.424a1.219,1.219,0,0,0-.263-.82,1.035,1.035,0,0,0-.831-.308,1.177,1.177,0,0,0-.783.239.813.813,0,0,0-.284.656H67.245a1.985,1.985,0,0,1,.4-1.189,2.621,2.621,0,0,1,1.121-.858,4.086,4.086,0,0,1,1.627-.311,3.228,3.228,0,0,1,2.17.687,2.4,2.4,0,0,1,.8,1.931v3.206a3.536,3.536,0,0,0,.294,1.593V0ZM70.027-1.374a1.7,1.7,0,0,0,.807-.195,1.28,1.28,0,0,0,.547-.523V-3.363h-.738q-1.483,0-1.579,1.025l-.007.116a.791.791,0,0,0,.26.608A1.009,1.009,0,0,0,70.027-1.374ZM76.973-7.4V.4a2.646,2.646,0,0,1-.649,1.9,2.468,2.468,0,0,1-1.873.68,4.017,4.017,0,0,1-.978-.116V1.306a3.708,3.708,0,0,0,.622.062q.9,0,.9-.95V-7.4Zm-2.14-1.914a.973.973,0,0,1,.3-.731,1.117,1.117,0,0,1,.81-.287,1.117,1.117,0,0,1,.81.287.973.973,0,0,1,.3.731.97.97,0,0,1-.3.738,1.122,1.122,0,0,1-.8.287,1.122,1.122,0,0,1-.8-.287A.97.97,0,0,1,74.833-9.311ZM78.21-3.767a4.387,4.387,0,0,1,.424-1.962,3.1,3.1,0,0,1,1.22-1.333A3.56,3.56,0,0,1,81.7-7.533a3.368,3.368,0,0,1,2.444.916A3.676,3.676,0,0,1,85.2-4.129l.014.506a3.866,3.866,0,0,1-.95,2.731A3.3,3.3,0,0,1,81.717.137,3.319,3.319,0,0,1,79.164-.889a3.934,3.934,0,0,1-.954-2.789Zm1.976.144a2.757,2.757,0,0,0,.4,1.61,1.309,1.309,0,0,0,1.135.557,1.312,1.312,0,0,0,1.121-.55,3.017,3.017,0,0,0,.4-1.76,2.73,2.73,0,0,0-.4-1.6A1.312,1.312,0,0,0,81.7-5.934a1.29,1.29,0,0,0-1.121.564A3.068,3.068,0,0,0,80.186-3.623ZM90.439-2.044a.637.637,0,0,0-.359-.571,4.077,4.077,0,0,0-1.152-.373Q86.29-3.541,86.29-5.229a2.032,2.032,0,0,1,.817-1.644,3.3,3.3,0,0,1,2.136-.66A3.547,3.547,0,0,1,91.5-6.87a2.09,2.09,0,0,1,.844,1.723H90.364a.956.956,0,0,0-.273-.7,1.157,1.157,0,0,0-.854-.277,1.182,1.182,0,0,0-.772.226.712.712,0,0,0-.273.574.609.609,0,0,0,.311.53,3.2,3.2,0,0,0,1.049.349,8.571,8.571,0,0,1,1.244.332A2.044,2.044,0,0,1,92.36-2.126a1.929,1.929,0,0,1-.868,1.637A3.745,3.745,0,0,1,89.25.137,3.912,3.912,0,0,1,87.6-.195,2.77,2.77,0,0,1,86.468-1.1a2.113,2.113,0,0,1-.41-1.248h1.873a1.031,1.031,0,0,0,.39.807,1.546,1.546,0,0,0,.971.28,1.43,1.43,0,0,0,.858-.215A.67.67,0,0,0,90.439-2.044Z" transform="translate(1221.986 18080.605)" fill="#0c1d2f"/>
    <path id="Trazado_881616" data-name="Trazado 881616" d="M5.594-2.131A2.264,2.264,0,0,1,4.832-.505,2.678,2.678,0,0,1,3.019.088,2.408,2.408,0,0,1,1.083-.74,3.4,3.4,0,0,1,.378-3.015v-.391A3.836,3.836,0,0,1,.7-5.032a2.437,2.437,0,0,1,.929-1.079,2.6,2.6,0,0,1,1.4-.376,2.609,2.609,0,0,1,1.784.593A2.433,2.433,0,0,1,5.6-4.228H4.285a1.336,1.336,0,0,0-.345-.9,1.277,1.277,0,0,0-.9-.279,1.12,1.12,0,0,0-.987.472,2.648,2.648,0,0,0-.336,1.466v.483a2.834,2.834,0,0,0,.314,1.516,1.1,1.1,0,0,0,.991.479,1.3,1.3,0,0,0,.912-.279,1.26,1.26,0,0,0,.345-.864ZM8.565.088a2.334,2.334,0,0,1-1.7-.642,2.281,2.281,0,0,1-.657-1.709v-.123a2.872,2.872,0,0,1,.277-1.281,2.032,2.032,0,0,1,.784-.87,2.2,2.2,0,0,1,1.158-.305,1.973,1.973,0,0,1,1.536.615,2.5,2.5,0,0,1,.56,1.745v.519H7.493a1.18,1.18,0,0,0,.371.747,1.123,1.123,0,0,0,.784.281A1.371,1.371,0,0,0,9.8-1.468l.624.7a1.907,1.907,0,0,1-.773.631A2.538,2.538,0,0,1,8.565.088Zm-.145-3.9a.8.8,0,0,0-.613.255,1.317,1.317,0,0,0-.3.729H9.272v-.1a.939.939,0,0,0-.229-.653A.821.821,0,0,0,8.42-3.814Zm3.99-.94.04.549a1.66,1.66,0,0,1,1.367-.637,1.38,1.38,0,0,1,1.125.444,2.071,2.071,0,0,1,.378,1.327V0h-1.27V-3.041a.824.824,0,0,0-.176-.587.787.787,0,0,0-.584-.182.874.874,0,0,0-.8.457V0h-1.27V-4.755ZM17.8-5.924v1.169h.813v.932H17.8V-1.45a.567.567,0,0,0,.1.378.508.508,0,0,0,.387.114,2.025,2.025,0,0,0,.374-.031v.962a2.615,2.615,0,0,1-.769.114,1.213,1.213,0,0,1-1.362-1.349V-3.823h-.694v-.932h.694V-5.924Zm4.192,2.36a3.45,3.45,0,0,0-.457-.035.93.93,0,0,0-.945.488V0h-1.27V-4.755h1.2l.035.567a1.177,1.177,0,0,1,1.059-.655,1.331,1.331,0,0,1,.4.057Zm.183,1.143a2.82,2.82,0,0,1,.272-1.261,2,2,0,0,1,.784-.857,2.289,2.289,0,0,1,1.189-.3,2.165,2.165,0,0,1,1.571.589,2.363,2.363,0,0,1,.679,1.6l.009.325a2.485,2.485,0,0,1-.611,1.756,2.123,2.123,0,0,1-1.639.661,2.134,2.134,0,0,1-1.641-.659,2.529,2.529,0,0,1-.613-1.793Zm1.27.092A1.773,1.773,0,0,0,23.7-1.294a.841.841,0,0,0,.729.358.843.843,0,0,0,.721-.354,1.94,1.94,0,0,0,.259-1.132,1.755,1.755,0,0,0-.259-1.028.843.843,0,0,0-.729-.365.829.829,0,0,0-.721.363A1.972,1.972,0,0,0,23.448-2.329Zm6.06-.083a2.865,2.865,0,0,1,.5-1.771,1.618,1.618,0,0,1,1.365-.659,1.456,1.456,0,0,1,1.147.519V-6.75h1.274V0H32.645l-.062-.505a1.5,1.5,0,0,1-1.222.593,1.614,1.614,0,0,1-1.347-.661A2.958,2.958,0,0,1,29.508-2.413Zm1.27.092A1.872,1.872,0,0,0,31.011-1.3a.759.759,0,0,0,.677.356.85.85,0,0,0,.831-.5V-3.313a.838.838,0,0,0-.822-.5Q30.778-3.81,30.778-2.32ZM36.965.088a2.334,2.334,0,0,1-1.7-.642,2.281,2.281,0,0,1-.657-1.709v-.123a2.872,2.872,0,0,1,.277-1.281,2.032,2.032,0,0,1,.784-.87,2.2,2.2,0,0,1,1.158-.305,1.973,1.973,0,0,1,1.536.615,2.5,2.5,0,0,1,.56,1.745v.519H35.893a1.18,1.18,0,0,0,.371.747,1.123,1.123,0,0,0,.784.281A1.371,1.371,0,0,0,38.2-1.468l.624.7a1.907,1.907,0,0,1-.773.631A2.538,2.538,0,0,1,36.965.088Zm-.145-3.9a.8.8,0,0,0-.613.255,1.317,1.317,0,0,0-.3.729h1.767v-.1a.939.939,0,0,0-.229-.653A.821.821,0,0,0,36.82-3.814ZM40.982,0H39.707V-6.75h1.274Zm3.8,0a1.41,1.41,0,0,1-.127-.426,1.537,1.537,0,0,1-1.2.514,1.688,1.688,0,0,1-1.158-.4,1.3,1.3,0,0,1-.459-1.02A1.344,1.344,0,0,1,42.4-2.5,2.765,2.765,0,0,1,44.018-2.9H44.6v-.272a.784.784,0,0,0-.169-.527.666.666,0,0,0-.534-.2.757.757,0,0,0-.5.154.523.523,0,0,0-.182.422h-1.27a1.276,1.276,0,0,1,.255-.765,1.685,1.685,0,0,1,.721-.552,2.627,2.627,0,0,1,1.046-.2,2.075,2.075,0,0,1,1.4.442,1.545,1.545,0,0,1,.516,1.241V-1.1a2.273,2.273,0,0,0,.189,1.024V0Zm-1.05-.883a1.094,1.094,0,0,0,.519-.125.823.823,0,0,0,.352-.336v-.817h-.475q-.954,0-1.015.659l0,.075a.508.508,0,0,0,.167.391A.649.649,0,0,0,43.733-.883Zm4.289-3.872.04.549a1.66,1.66,0,0,1,1.367-.637,1.38,1.38,0,0,1,1.125.444,2.071,2.071,0,0,1,.378,1.327V0h-1.27V-3.041a.824.824,0,0,0-.176-.587A.787.787,0,0,0,48.9-3.81a.874.874,0,0,0-.8.457V0h-1.27V-4.755Zm5.392-1.169v1.169h.813v.932h-.813V-1.45a.567.567,0,0,0,.1.378.508.508,0,0,0,.387.114,2.025,2.025,0,0,0,.374-.031v.962a2.615,2.615,0,0,1-.769.114,1.213,1.213,0,0,1-1.362-1.349V-3.823h-.694v-.932h.694V-5.924ZM57.123.088a2.334,2.334,0,0,1-1.7-.642,2.281,2.281,0,0,1-.657-1.709v-.123a2.872,2.872,0,0,1,.277-1.281,2.032,2.032,0,0,1,.784-.87,2.2,2.2,0,0,1,1.158-.305,1.973,1.973,0,0,1,1.536.615,2.5,2.5,0,0,1,.56,1.745v.519H56.051a1.18,1.18,0,0,0,.371.747,1.123,1.123,0,0,0,.784.281,1.371,1.371,0,0,0,1.147-.532l.624.7a1.907,1.907,0,0,1-.773.631A2.538,2.538,0,0,1,57.123.088Zm-.145-3.9a.8.8,0,0,0-.613.255,1.317,1.317,0,0,0-.3.729H57.83v-.1a.939.939,0,0,0-.229-.653A.821.821,0,0,0,56.978-3.814Zm5.493.25a3.45,3.45,0,0,0-.457-.035.93.93,0,0,0-.945.488V0H59.8V-4.755H61l.035.567a1.177,1.177,0,0,1,1.059-.655,1.331,1.331,0,0,1,.4.057Zm.183,1.143a2.82,2.82,0,0,1,.272-1.261,2,2,0,0,1,.784-.857,2.289,2.289,0,0,1,1.189-.3,2.165,2.165,0,0,1,1.571.589,2.363,2.363,0,0,1,.679,1.6l.009.325a2.485,2.485,0,0,1-.611,1.756,2.123,2.123,0,0,1-1.639.661,2.134,2.134,0,0,1-1.641-.659,2.529,2.529,0,0,1-.613-1.793Zm1.27.092a1.773,1.773,0,0,0,.255,1.035.841.841,0,0,0,.729.358.843.843,0,0,0,.721-.354,1.94,1.94,0,0,0,.259-1.132,1.755,1.755,0,0,0-.259-1.028.843.843,0,0,0-.729-.365.829.829,0,0,0-.721.363A1.972,1.972,0,0,0,63.924-2.329Z" transform="translate(1168.758 17997.799) rotate(-90)" fill="#0c1d2f"/>
    <path id="Trazado_881617" data-name="Trazado 881617" d="M5.594-2.131A2.264,2.264,0,0,1,4.832-.505,2.678,2.678,0,0,1,3.019.088,2.408,2.408,0,0,1,1.083-.74,3.4,3.4,0,0,1,.378-3.015v-.391A3.836,3.836,0,0,1,.7-5.032a2.437,2.437,0,0,1,.929-1.079,2.6,2.6,0,0,1,1.4-.376,2.609,2.609,0,0,1,1.784.593A2.433,2.433,0,0,1,5.6-4.228H4.285a1.336,1.336,0,0,0-.345-.9,1.277,1.277,0,0,0-.9-.279,1.12,1.12,0,0,0-.987.472,2.648,2.648,0,0,0-.336,1.466v.483a2.834,2.834,0,0,0,.314,1.516,1.1,1.1,0,0,0,.991.479,1.3,1.3,0,0,0,.912-.279,1.26,1.26,0,0,0,.345-.864ZM8.565.088a2.334,2.334,0,0,1-1.7-.642,2.281,2.281,0,0,1-.657-1.709v-.123a2.872,2.872,0,0,1,.277-1.281,2.032,2.032,0,0,1,.784-.87,2.2,2.2,0,0,1,1.158-.305,1.973,1.973,0,0,1,1.536.615,2.5,2.5,0,0,1,.56,1.745v.519H7.493a1.18,1.18,0,0,0,.371.747,1.123,1.123,0,0,0,.784.281A1.371,1.371,0,0,0,9.8-1.468l.624.7a1.907,1.907,0,0,1-.773.631A2.538,2.538,0,0,1,8.565.088Zm-.145-3.9a.8.8,0,0,0-.613.255,1.317,1.317,0,0,0-.3.729H9.272v-.1a.939.939,0,0,0-.229-.653A.821.821,0,0,0,8.42-3.814Zm3.99-.94.04.549a1.66,1.66,0,0,1,1.367-.637,1.38,1.38,0,0,1,1.125.444,2.071,2.071,0,0,1,.378,1.327V0h-1.27V-3.041a.824.824,0,0,0-.176-.587.787.787,0,0,0-.584-.182.874.874,0,0,0-.8.457V0h-1.27V-4.755ZM17.8-5.924v1.169h.813v.932H17.8V-1.45a.567.567,0,0,0,.1.378.508.508,0,0,0,.387.114,2.025,2.025,0,0,0,.374-.031v.962a2.615,2.615,0,0,1-.769.114,1.213,1.213,0,0,1-1.362-1.349V-3.823h-.694v-.932h.694V-5.924Zm4.192,2.36a3.45,3.45,0,0,0-.457-.035.93.93,0,0,0-.945.488V0h-1.27V-4.755h1.2l.035.567a1.177,1.177,0,0,1,1.059-.655,1.331,1.331,0,0,1,.4.057Zm.183,1.143a2.82,2.82,0,0,1,.272-1.261,2,2,0,0,1,.784-.857,2.289,2.289,0,0,1,1.189-.3,2.165,2.165,0,0,1,1.571.589,2.363,2.363,0,0,1,.679,1.6l.009.325a2.485,2.485,0,0,1-.611,1.756,2.123,2.123,0,0,1-1.639.661,2.134,2.134,0,0,1-1.641-.659,2.529,2.529,0,0,1-.613-1.793Zm1.27.092A1.773,1.773,0,0,0,23.7-1.294a.841.841,0,0,0,.729.358.843.843,0,0,0,.721-.354,1.94,1.94,0,0,0,.259-1.132,1.755,1.755,0,0,0-.259-1.028.843.843,0,0,0-.729-.365.829.829,0,0,0-.721.363A1.972,1.972,0,0,0,23.448-2.329Zm7.778-3.595v1.169h.813v.932h-.813V-1.45a.567.567,0,0,0,.1.378.508.508,0,0,0,.387.114,2.025,2.025,0,0,0,.374-.031v.962a2.615,2.615,0,0,1-.769.114,1.213,1.213,0,0,1-1.362-1.349V-3.823h-.694v-.932h.694V-5.924Zm4.192,2.36a3.45,3.45,0,0,0-.457-.035.93.93,0,0,0-.945.488V0h-1.27V-4.755h1.2l.035.567a1.177,1.177,0,0,1,1.059-.655,1.331,1.331,0,0,1,.4.057ZM38.653,0a1.41,1.41,0,0,1-.127-.426,1.537,1.537,0,0,1-1.2.514,1.688,1.688,0,0,1-1.158-.4,1.3,1.3,0,0,1-.459-1.02,1.344,1.344,0,0,1,.56-1.16A2.765,2.765,0,0,1,37.888-2.9h.584v-.272A.784.784,0,0,0,38.3-3.7a.666.666,0,0,0-.534-.2.757.757,0,0,0-.5.154.523.523,0,0,0-.182.422h-1.27a1.276,1.276,0,0,1,.255-.765,1.685,1.685,0,0,1,.721-.552,2.627,2.627,0,0,1,1.046-.2,2.075,2.075,0,0,1,1.4.442,1.545,1.545,0,0,1,.516,1.241V-1.1a2.273,2.273,0,0,0,.189,1.024V0ZM37.6-.883a1.094,1.094,0,0,0,.519-.125.823.823,0,0,0,.352-.336v-.817H38q-.954,0-1.015.659l0,.075a.508.508,0,0,0,.167.391A.649.649,0,0,0,37.6-.883Zm5.7-.431a.409.409,0,0,0-.231-.367,2.621,2.621,0,0,0-.74-.24q-1.7-.356-1.7-1.441a1.307,1.307,0,0,1,.525-1.057,2.118,2.118,0,0,1,1.373-.424,2.28,2.28,0,0,1,1.448.426,1.343,1.343,0,0,1,.543,1.107h-1.27a.615.615,0,0,0-.176-.45.744.744,0,0,0-.549-.178.76.76,0,0,0-.5.145.458.458,0,0,0-.176.369.391.391,0,0,0,.2.341,2.057,2.057,0,0,0,.675.224,5.51,5.51,0,0,1,.8.213,1.314,1.314,0,0,1,1.006,1.279,1.24,1.24,0,0,1-.558,1.052,2.408,2.408,0,0,1-1.441.4,2.515,2.515,0,0,1-1.061-.213,1.781,1.781,0,0,1-.727-.584,1.358,1.358,0,0,1-.264-.8h1.2a.663.663,0,0,0,.25.519.994.994,0,0,0,.624.18.92.92,0,0,0,.552-.138A.431.431,0,0,0,43.3-1.314Zm4.241,1.4a2.334,2.334,0,0,1-1.7-.642,2.281,2.281,0,0,1-.657-1.709v-.123a2.872,2.872,0,0,1,.277-1.281,2.032,2.032,0,0,1,.784-.87A2.2,2.2,0,0,1,47.4-4.843a1.973,1.973,0,0,1,1.536.615,2.5,2.5,0,0,1,.56,1.745v.519H46.466a1.18,1.18,0,0,0,.371.747,1.123,1.123,0,0,0,.784.281,1.371,1.371,0,0,0,1.147-.532l.624.7a1.907,1.907,0,0,1-.773.631A2.538,2.538,0,0,1,47.538.088Zm-.145-3.9a.8.8,0,0,0-.613.255,1.317,1.317,0,0,0-.3.729h1.767v-.1a.939.939,0,0,0-.229-.653A.821.821,0,0,0,47.393-3.814Zm5.493.25a3.45,3.45,0,0,0-.457-.035.93.93,0,0,0-.945.488V0h-1.27V-4.755h1.2l.035.567a1.177,1.177,0,0,1,1.059-.655,1.331,1.331,0,0,1,.4.057Zm.174,1.143a2.82,2.82,0,0,1,.272-1.261,2,2,0,0,1,.784-.857,2.289,2.289,0,0,1,1.189-.3,2.165,2.165,0,0,1,1.571.589,2.363,2.363,0,0,1,.679,1.6l.009.325a2.485,2.485,0,0,1-.611,1.756,2.123,2.123,0,0,1-1.639.661,2.134,2.134,0,0,1-1.641-.659,2.529,2.529,0,0,1-.613-1.793Zm1.27.092a1.773,1.773,0,0,0,.255,1.035.841.841,0,0,0,.729.358.843.843,0,0,0,.721-.354,1.94,1.94,0,0,0,.259-1.132,1.755,1.755,0,0,0-.259-1.028.843.843,0,0,0-.729-.365.829.829,0,0,0-.721.363A1.972,1.972,0,0,0,54.33-2.329Z" transform="translate(1381.514 17997.801) rotate(-90)" fill="#0c1d2f"/>
    <path id="Trazado_881618" data-name="Trazado 881618" d="M2.939-1.647H7.294V0H.889V-9.953H2.939ZM10.473,0H8.5V-7.4h1.976ZM9.892-10.4h2.153L10.151-8.278H8.545Zm4.1,3,.062.854a2.582,2.582,0,0,1,2.126-.991,2.146,2.146,0,0,1,1.75.69,3.221,3.221,0,0,1,.588,2.064V0H16.543V-4.73a1.282,1.282,0,0,0-.273-.913,1.224,1.224,0,0,0-.909-.284,1.359,1.359,0,0,0-1.251.711V0H12.134V-7.4ZM23.42.137a3.631,3.631,0,0,1-2.649-1,3.548,3.548,0,0,1-1.022-2.659v-.191A4.468,4.468,0,0,1,20.18-5.7,3.161,3.161,0,0,1,21.4-7.058a3.425,3.425,0,0,1,1.8-.475,3.07,3.07,0,0,1,2.389.957,3.889,3.889,0,0,1,.872,2.714v.807h-4.71a1.835,1.835,0,0,0,.578,1.162,1.746,1.746,0,0,0,1.22.438,2.132,2.132,0,0,0,1.784-.827L26.3-1.2a2.966,2.966,0,0,1-1.2.981A3.947,3.947,0,0,1,23.42.137Zm-.226-6.07a1.237,1.237,0,0,0-.954.4A2.048,2.048,0,0,0,21.772-4.4h2.748V-4.56a1.46,1.46,0,0,0-.355-1.015A1.277,1.277,0,0,0,23.194-5.934ZM31.869,0a2.194,2.194,0,0,1-.2-.663,2.39,2.39,0,0,1-1.866.8A2.626,2.626,0,0,1,28-.492a2.023,2.023,0,0,1-.714-1.586,2.09,2.09,0,0,1,.872-1.8,4.3,4.3,0,0,1,2.519-.636h.909v-.424a1.219,1.219,0,0,0-.263-.82A1.035,1.035,0,0,0,30.5-6.07a1.177,1.177,0,0,0-.783.239.813.813,0,0,0-.284.656H27.453a1.984,1.984,0,0,1,.4-1.189,2.621,2.621,0,0,1,1.121-.858A4.086,4.086,0,0,1,30.6-7.533a3.228,3.228,0,0,1,2.17.687,2.4,2.4,0,0,1,.8,1.931v3.206a3.536,3.536,0,0,0,.294,1.593V0ZM30.235-1.374a1.7,1.7,0,0,0,.807-.195,1.28,1.28,0,0,0,.547-.523V-3.363h-.738q-1.483,0-1.579,1.025l-.007.116a.791.791,0,0,0,.26.608A1.009,1.009,0,0,0,30.235-1.374Zm11.416-.082a1.3,1.3,0,0,0,.889-.3,1.054,1.054,0,0,0,.355-.8h1.853a2.534,2.534,0,0,1-.41,1.377,2.706,2.706,0,0,1-1.1.971,3.455,3.455,0,0,1-1.548.345,3.211,3.211,0,0,1-2.5-1.008,3.99,3.99,0,0,1-.916-2.786v-.13a3.944,3.944,0,0,1,.909-2.728,3.174,3.174,0,0,1,2.5-1.019,3.111,3.111,0,0,1,2.225.79,2.8,2.8,0,0,1,.851,2.1H42.9a1.346,1.346,0,0,0-.355-.933,1.188,1.188,0,0,0-.9-.359,1.19,1.19,0,0,0-1.042.5,2.908,2.908,0,0,0-.352,1.63V-3.6a2.945,2.945,0,0,0,.349,1.641A1.205,1.205,0,0,0,41.651-1.456ZM47.961,0H45.979V-7.4h1.982Zm-2.1-9.311a.973.973,0,0,1,.3-.731,1.117,1.117,0,0,1,.81-.287,1.12,1.12,0,0,1,.807.287.967.967,0,0,1,.3.731.97.97,0,0,1-.3.738,1.122,1.122,0,0,1-.8.287,1.122,1.122,0,0,1-.8-.287A.97.97,0,0,1,45.862-9.311ZM51.406-7.4l.062.854a2.582,2.582,0,0,1,2.126-.991,2.146,2.146,0,0,1,1.75.69,3.221,3.221,0,0,1,.588,2.064V0H53.956V-4.73a1.282,1.282,0,0,0-.273-.913,1.224,1.224,0,0,0-.909-.284,1.359,1.359,0,0,0-1.251.711V0H49.547V-7.4Zm8.388-1.818V-7.4h1.265v1.449H59.794v3.691a.881.881,0,0,0,.157.588.79.79,0,0,0,.6.178,3.151,3.151,0,0,0,.581-.048v1.5a4.067,4.067,0,0,1-1.2.178,1.886,1.886,0,0,1-2.119-2.1V-5.947h-1.08V-7.4h1.08V-9.215ZM66.589-.752a2.477,2.477,0,0,1-2.023.889A2.337,2.337,0,0,1,62.75-.547a2.918,2.918,0,0,1-.639-2V-7.4h1.976v4.778q0,1.155,1.053,1.155a1.427,1.427,0,0,0,1.381-.7V-7.4H68.5V0H66.644Zm7.561-4.792a5.367,5.367,0,0,0-.711-.055,1.447,1.447,0,0,0-1.47.759V0H69.993V-7.4h1.866l.055.882a1.831,1.831,0,0,1,1.647-1.019,2.07,2.07,0,0,1,.615.089ZM79.181,0a2.194,2.194,0,0,1-.2-.663,2.39,2.39,0,0,1-1.866.8,2.626,2.626,0,0,1-1.8-.629A2.023,2.023,0,0,1,74.6-2.078a2.09,2.09,0,0,1,.872-1.8,4.3,4.3,0,0,1,2.519-.636H78.9v-.424a1.219,1.219,0,0,0-.263-.82,1.035,1.035,0,0,0-.831-.308,1.177,1.177,0,0,0-.783.239.813.813,0,0,0-.284.656H74.765a1.985,1.985,0,0,1,.4-1.189,2.621,2.621,0,0,1,1.121-.858,4.086,4.086,0,0,1,1.627-.311,3.228,3.228,0,0,1,2.17.687,2.4,2.4,0,0,1,.8,1.931v3.206a3.536,3.536,0,0,0,.294,1.593V0ZM77.547-1.374a1.7,1.7,0,0,0,.807-.195,1.28,1.28,0,0,0,.547-.523V-3.363h-.738q-1.483,0-1.579,1.025l-.007.116a.791.791,0,0,0,.26.608A1.009,1.009,0,0,0,77.547-1.374Z" transform="translate(1285.111 18017.48)" fill="#0c1d2f"/>
    <path id="Trazado_881619" data-name="Trazado 881619" d="M8.381-8.292H5.332V0H3.281V-8.292H.273V-9.953H8.381ZM12.7-5.544a5.367,5.367,0,0,0-.711-.055,1.447,1.447,0,0,0-1.47.759V0H8.542V-7.4h1.866l.055.882A1.831,1.831,0,0,1,12.11-7.533a2.07,2.07,0,0,1,.615.089ZM17.729,0a2.194,2.194,0,0,1-.2-.663,2.39,2.39,0,0,1-1.866.8,2.626,2.626,0,0,1-1.8-.629,2.023,2.023,0,0,1-.714-1.586,2.09,2.09,0,0,1,.872-1.8,4.3,4.3,0,0,1,2.519-.636h.909v-.424a1.219,1.219,0,0,0-.263-.82,1.035,1.035,0,0,0-.831-.308,1.177,1.177,0,0,0-.783.239.813.813,0,0,0-.284.656H13.313a1.984,1.984,0,0,1,.4-1.189,2.621,2.621,0,0,1,1.121-.858,4.086,4.086,0,0,1,1.627-.311,3.228,3.228,0,0,1,2.17.687,2.4,2.4,0,0,1,.8,1.931v3.206a3.536,3.536,0,0,0,.294,1.593V0ZM16.1-1.374a1.7,1.7,0,0,0,.807-.195,1.28,1.28,0,0,0,.547-.523V-3.363h-.738q-1.483,0-1.579,1.025l-.007.116a.791.791,0,0,0,.26.608A1.009,1.009,0,0,0,16.1-1.374Zm8.859-.67a.637.637,0,0,0-.359-.571,4.077,4.077,0,0,0-1.152-.373q-2.639-.554-2.639-2.242a2.032,2.032,0,0,1,.817-1.644,3.3,3.3,0,0,1,2.136-.66,3.547,3.547,0,0,1,2.252.663,2.09,2.09,0,0,1,.844,1.723H24.879a.956.956,0,0,0-.273-.7,1.157,1.157,0,0,0-.854-.277,1.182,1.182,0,0,0-.772.226.712.712,0,0,0-.273.574.609.609,0,0,0,.311.53,3.2,3.2,0,0,0,1.049.349,8.571,8.571,0,0,1,1.244.332,2.044,2.044,0,0,1,1.565,1.989,1.929,1.929,0,0,1-.868,1.637,3.745,3.745,0,0,1-2.242.625,3.912,3.912,0,0,1-1.651-.332A2.77,2.77,0,0,1,20.983-1.1a2.113,2.113,0,0,1-.41-1.248h1.873a1.031,1.031,0,0,0,.39.807,1.546,1.546,0,0,0,.971.28,1.43,1.43,0,0,0,.858-.215A.67.67,0,0,0,24.955-2.044Zm6.6,2.181a3.631,3.631,0,0,1-2.649-1A3.548,3.548,0,0,1,27.88-3.521v-.191A4.468,4.468,0,0,1,28.311-5.7a3.161,3.161,0,0,1,1.22-1.354,3.425,3.425,0,0,1,1.8-.475,3.07,3.07,0,0,1,2.389.957,3.889,3.889,0,0,1,.872,2.714v.807h-4.71a1.835,1.835,0,0,0,.578,1.162,1.746,1.746,0,0,0,1.22.438,2.132,2.132,0,0,0,1.784-.827L34.436-1.2a2.966,2.966,0,0,1-1.2.981A3.947,3.947,0,0,1,31.551.137Zm-.226-6.07a1.237,1.237,0,0,0-.954.4A2.048,2.048,0,0,0,29.9-4.4h2.748V-4.56A1.46,1.46,0,0,0,32.3-5.575,1.277,1.277,0,0,0,31.326-5.934Zm8.545.39A5.367,5.367,0,0,0,39.16-5.6a1.447,1.447,0,0,0-1.47.759V0H35.714V-7.4h1.866l.055.882a1.831,1.831,0,0,1,1.647-1.019,2.07,2.07,0,0,1,.615.089ZM44.9,0a2.194,2.194,0,0,1-.2-.663,2.39,2.39,0,0,1-1.866.8,2.626,2.626,0,0,1-1.8-.629,2.023,2.023,0,0,1-.714-1.586,2.09,2.09,0,0,1,.872-1.8,4.3,4.3,0,0,1,2.519-.636h.909v-.424a1.219,1.219,0,0,0-.263-.82,1.035,1.035,0,0,0-.831-.308,1.177,1.177,0,0,0-.783.239.813.813,0,0,0-.284.656H40.486a1.984,1.984,0,0,1,.4-1.189A2.621,2.621,0,0,1,42-7.222a4.086,4.086,0,0,1,1.627-.311,3.228,3.228,0,0,1,2.17.687,2.4,2.4,0,0,1,.8,1.931v3.206A3.536,3.536,0,0,0,46.9-.116V0ZM43.268-1.374a1.7,1.7,0,0,0,.807-.195,1.28,1.28,0,0,0,.547-.523V-3.363h-.738q-1.483,0-1.579,1.025l-.007.116a.791.791,0,0,0,.26.608A1.009,1.009,0,0,0,43.268-1.374Z" transform="translate(1285.508 17984.365)" fill="#0c1d2f"/>
    <path id="Trazado_881385" data-name="Trazado 881385" d="M14.2,41.746S41.478,44.863,47.714,12.52" transform="translate(1146.617 17829.252)" fill="none" stroke="#9eb3c8" stroke-miterlimit="10" stroke-width="1" stroke-dasharray="3 3"/>
    <path id="Trazado_881386" data-name="Trazado 881386" d="M133.554,54.139c-.78,1.169-1.559,35.849-21.821,37.018S83.677,80.247,88.742,38.942" transform="translate(1159.752 17834.002)" fill="none" stroke="#9eb3c8" stroke-miterlimit="10" stroke-width="1" stroke-dasharray="3 3"/>
    <path id="Trazado_881387" data-name="Trazado 881387" d="M172.733,11.2s5.845,10.521,37.408,9.742" transform="translate(1175.126 17829.014)" fill="none" stroke="#9eb3c8" stroke-miterlimit="10" stroke-width="1" stroke-dasharray="3 3"/>
    <path id="Trazado_881388" data-name="Trazado 881388" d="M15.743,38.826a2.484,2.484,0,1,1-2.484-2.484,2.483,2.483,0,0,1,2.484,2.484" transform="translate(1146.001 17833.535)" fill="#0c1d2f"/>
    <path id="Trazado_881389" data-name="Trazado 881389" d="M46.128,11.909a2.484,2.484,0,1,1-2.484-2.484,2.483,2.483,0,0,1,2.484,2.484" transform="translate(1151.465 17828.695)" fill="#0c1d2f"/>
    <path id="Trazado_881390" data-name="Trazado 881390" d="M91.375,11.909a2.484,2.484,0,1,1-2.484-2.484,2.483,2.483,0,0,1,2.484,2.484" transform="translate(1159.602 17828.695)" fill="#0c1d2f"/>
    <path id="Trazado_881391" data-name="Trazado 881391" d="M110.325,11.909a2.484,2.484,0,1,1-2.484-2.484,2.483,2.483,0,0,1,2.484,2.484" transform="translate(1163.01 17828.695)" fill="#0c1d2f"/>
    <path id="Trazado_881392" data-name="Trazado 881392" d="M130.018,11.909a2.484,2.484,0,1,1-2.484-2.484,2.483,2.483,0,0,1,2.484,2.484" transform="translate(1166.551 17828.695)" fill="#0c1d2f"/>
    <path id="Trazado_881393" data-name="Trazado 881393" d="M175.265,11.909a2.484,2.484,0,1,1-2.484-2.484,2.483,2.483,0,0,1,2.484,2.484" transform="translate(1174.688 17828.695)" fill="#0c1d2f"/>
    <path id="Trazado_881394" data-name="Trazado 881394" d="M205.65,12.9a2.484,2.484,0,1,1-2.484-2.484A2.483,2.483,0,0,1,205.65,12.9" transform="translate(1180.152 17828.873)" fill="#0c1d2f"/>
    <path id="Trazado_881643" data-name="Trazado 881643" d="M0,0H256.3V271.891H0Z" transform="translate(1144.063 17827)" fill="none"/>
  </g>
</svg>
