<svg xmlns="http://www.w3.org/2000/svg" width="369" height="116.146" viewBox="0 0 369 116.146">
  <g id="Grupo_1103492" data-name="Grupo 1103492" transform="translate(3258 8787.95)">
    <path id="Trazado_880559" data-name="Trazado 880559" d="M20.866,105.326l-9.539-41.79S159.408,14.024,185.3,14.024,321.569,53.089,332.471,58.085s25.892,3.634,25.892,3.634l-8.052,43.606Z" transform="translate(-3257.643 -8787.509)" fill="none" stroke="#0c1d30" stroke-miterlimit="10" stroke-width="1"/>
    <path id="Trazado_881575" data-name="Trazado 881575" d="M0,0H346.939V42.412H0Z" transform="translate(-3246.269 -8724.488)" fill="none" stroke="#9eb3c8" stroke-width="0.484"/>
    <path id="Trazado_881576" data-name="Trazado 881576" d="M4.693,0H3V-6.527L.979-5.9V-7.277L4.512-8.543h.182Z" transform="translate(-3258 -8675.505)" fill="#0c1d2f"/>
    <path id="Trazado_881577" data-name="Trazado 881577" d="M6.322-3.527A4.322,4.322,0,0,1,5.59-.82,2.557,2.557,0,0,1,3.445.117,2.574,2.574,0,0,1,1.313-.8,4.2,4.2,0,0,1,.557-3.439V-5.01A4.265,4.265,0,0,1,1.3-7.723a2.576,2.576,0,0,1,2.136-.926,2.578,2.578,0,0,1,2.133.917A4.182,4.182,0,0,1,6.322-5.1ZM4.629-5.25a3.118,3.118,0,0,0-.29-1.544.98.98,0,0,0-.905-.483.963.963,0,0,0-.882.46,2.918,2.918,0,0,0-.3,1.438V-3.3a3.273,3.273,0,0,0,.284,1.55.967.967,0,0,0,.911.507.951.951,0,0,0,.9-.486,3.2,3.2,0,0,0,.287-1.488ZM7.975,2.139,7.09,1.676,7.3,1.295a3.044,3.044,0,0,0,.4-1.424V-1.441h1.43L9.129-.27A3.044,3.044,0,0,1,8.8,1.043,3.365,3.365,0,0,1,7.975,2.139ZM16.2-7.582,12.9,0H11.109l3.3-7.16H10.172V-8.531H16.2Z" transform="translate(-3139.399 -8776.709)" fill="#0c1d2f"/>
    <path id="Trazado_881578" data-name="Trazado 881578" d="M0,0H369V116.146H0Z" transform="translate(-3258 -8787.95)" fill="none"/>
    <path id="Trazado_881572" data-name="Trazado 881572" d="M6.381-7.582,3.082,0H1.295L4.6-7.16H.357V-8.531H6.381Z" transform="translate(-3094.642 -8741.783)" fill="#0c1d2f"/>
    <path id="Trazado_881579" data-name="Trazado 881579" d="M6.322-3.527A4.322,4.322,0,0,1,5.59-.82,2.557,2.557,0,0,1,3.445.117,2.574,2.574,0,0,1,1.313-.8,4.2,4.2,0,0,1,.557-3.439V-5.01A4.265,4.265,0,0,1,1.3-7.723a2.576,2.576,0,0,1,2.136-.926,2.578,2.578,0,0,1,2.133.917A4.182,4.182,0,0,1,6.322-5.1ZM4.629-5.25a3.118,3.118,0,0,0-.29-1.544.98.98,0,0,0-.905-.483.963.963,0,0,0-.882.46,2.918,2.918,0,0,0-.3,1.438V-3.3a3.273,3.273,0,0,0,.284,1.55.967.967,0,0,0,.911.507.951.951,0,0,0,.9-.486,3.2,3.2,0,0,0,.287-1.488ZM7.975,2.139,7.09,1.676,7.3,1.295a3.044,3.044,0,0,0,.4-1.424V-1.441h1.43L9.129-.27A3.044,3.044,0,0,1,8.8,1.043,3.365,3.365,0,0,1,7.975,2.139ZM16.2-7.582,12.9,0H11.109l3.3-7.16H10.172V-8.531H16.2Z" transform="translate(-3021.65 -8776.707)" fill="#0c1d2f"/>
    <path id="Trazado_881580" data-name="Trazado 881580" d="M0,0H369V116.146H0Z" transform="translate(-3258 -8787.95)" fill="none"/>
    <path id="Trazado_881573" data-name="Trazado 881573" d="M4.693,0H3V-6.527L.979-5.9V-7.277L4.512-8.543h.182Z" transform="translate(-2912.454 -8739.552)" fill="#0c1d2f"/>
    <path id="Trazado_881581" data-name="Trazado 881581" d="M4.693,0H3V-6.527L.979-5.9V-7.277L4.512-8.543h.182Z" transform="translate(-2896.101 -8675.505)" fill="#0c1d2f"/>
    <path id="Trazado_881582" data-name="Trazado 881582" d="M0,0H369V116.146H0Z" transform="translate(-3258 -8787.95)" fill="none"/>
    <path id="Trazado_881574" data-name="Trazado 881574" d="M5.174-8.619v1.395H5.01a2.877,2.877,0,0,0-1.849.6A2.428,2.428,0,0,0,2.32-5.016a2.306,2.306,0,0,1,1.717-.691,2.173,2.173,0,0,1,1.77.8,3.194,3.194,0,0,1,.656,2.1A3.142,3.142,0,0,1,6.1-1.307,2.584,2.584,0,0,1,5.083-.258,2.962,2.962,0,0,1,3.592.117,2.766,2.766,0,0,1,1.415-.82a3.639,3.639,0,0,1-.829-2.5v-.609A5.477,5.477,0,0,1,1.11-6.384,3.845,3.845,0,0,1,2.616-8.03a4.413,4.413,0,0,1,2.276-.589ZM3.521-4.348a1.351,1.351,0,0,0-.744.214,1.288,1.288,0,0,0-.492.565v.516a2.288,2.288,0,0,0,.334,1.327,1.079,1.079,0,0,0,.938.478,1.067,1.067,0,0,0,.882-.431,1.759,1.759,0,0,0,.337-1.116,1.755,1.755,0,0,0-.34-1.125A1.107,1.107,0,0,0,3.521-4.348Z" transform="translate(-3086.797 -8700.354)" fill="#0c1d2f"/>
    <path id="Trazado_881583" data-name="Trazado 881583" d="M0,89.03,1.033,0" transform="translate(-3073.314 -8772.576)" fill="none" stroke="#9eb3c8" stroke-width="0.5"/>
    <path id="Trazado_881584" data-name="Trazado 881584" d="M0,35.59V0" transform="translate(-3082.296 -8765.119)" fill="none" stroke="#0c1d30" stroke-width="1"/>
    <path id="Trazado_880560" data-name="Trazado 880560" d="M173.72,50.737l-.97-.353-2.312,6.349-2.311-6.349-.969.353,3.279,9.012Z" transform="translate(-3252.736 -8786.363)" fill="#0c1d30"/>
    <path id="Trazado_880561" data-name="Trazado 880561" d="M173.72,28.321l-.97.353-2.312-6.349-2.311,6.349-.969-.353,3.279-9.012Z" transform="translate(-3252.736 -8787.342)" fill="#0c1d30"/>
    <path id="Trazado_881585" data-name="Trazado 881585" d="M0,31.8V0" transform="translate(-3090.018 -8719.523)" fill="none" stroke="#0c1d30" stroke-width="0.949"/>
    <path id="Trazado_880562" data-name="Trazado 880562" d="M166.063,91.562l-.921-.335-2.194,6.028-2.193-6.028-.92.335,3.113,8.555Z" transform="translate(-3252.966 -8785.077)" fill="#0c1d30"/>
    <path id="Trazado_880563" data-name="Trazado 880563" d="M166.063,72.211l-.921.334-2.194-6.027-2.193,6.027-.92-.334,3.113-8.555Z" transform="translate(-3252.966 -8785.945)" fill="#0c1d30"/>
    <path id="Trazado_881586" data-name="Trazado 881586" d="M16.962,0,0,13.658" transform="translate(-3039.135 -8777.16)" fill="none" stroke="#0c1d30" stroke-width="1.168"/>
    <path id="Trazado_880564" data-name="Trazado 880564" d="M215.407,16.477l1.031.624-4.084,6.754,7.47-2.549.389,1.14-10.6,3.618Z" transform="translate(-3251.399 -8787.432)" fill="#0c1d30"/>
    <path id="Trazado_881587" data-name="Trazado 881587" d="M16.962,0,0,13.658" transform="translate(-2932.845 -8742.638)" fill="none" stroke="#0c1d30" stroke-width="1.168"/>
    <path id="Trazado_880565" data-name="Trazado 880565" d="M318.453,49.945l1.032.624L315.4,57.323l7.469-2.549.39,1.14-10.6,3.618Z" transform="translate(-3248.154 -8786.377)" fill="#0c1d30"/>
    <path id="Trazado_881588" data-name="Trazado 881588" d="M1.841,0,0,21.7" transform="translate(-3124.285 -8774.769)" fill="none" stroke="#0c1d30" stroke-width="1.168"/>
    <path id="Trazado_880566" data-name="Trazado 880566" d="M126.514,26.631l1.164-.315,2.063,7.619,3.316-7.162,1.093.505-4.708,10.166Z" transform="translate(-3254.016 -8787.121)" fill="#0c1d30"/>
    <path id="Trazado_881589" data-name="Trazado 881589" d="M0,0H369V116.146H0Z" transform="translate(-3258 -8787.95)" fill="none"/>
  </g>
</svg>
