<svg xmlns="http://www.w3.org/2000/svg" xmlns:xlink="http://www.w3.org/1999/xlink" width="397" height="265" viewBox="0 0 397 265">
  <defs>
    <clipPath id="clip-path">
      <rect id="Rectángulo_404125" data-name="Rectángulo 404125" width="397" height="265" transform="translate(707.711 3812)" fill="#fff" stroke="#707070" stroke-width="1"/>
    </clipPath>
    <clipPath id="clip-path-2">
      <rect id="Rectángulo_404124" data-name="Rectángulo 404124" width="190.607" height="210.547" fill="none"/>
    </clipPath>
  </defs>
  <g id="Enmascarar_grupo_1098832" data-name="Enmascarar grupo 1098832" transform="translate(-707.711 -3812)" clip-path="url(#clip-path)">
    <g id="Grupo_1103484" data-name="Grupo 1103484" transform="translate(810.711 3841.738)">
      <g id="Grupo_1103483" data-name="Grupo 1103483" clip-path="url(#clip-path-2)">
        <path id="Trazado_881453" data-name="Trazado 881453" d="M46.534,2.881S12.4-5.791,1.818,29.819C.742,33.439.907,34.867.69,37.717c0,0,34.382.934,40.848,9.332" transform="translate(0.051 0.145)" fill="none" stroke="#0c1d2f" stroke-miterlimit="10" stroke-width="0.587"/>
        <path id="Trazado_881454" data-name="Trazado 881454" d="M40.1,51.1c-.853.3-17.92-8.125-37.914-8.681A1.925,1.925,0,0,1,.3,40.351l.42-5.109s29.68-.312,40.848,9.331Z" transform="translate(0.022 2.62)" fill="none" stroke="#0c1d2f" stroke-miterlimit="10" stroke-width="0.587"/>
        <path id="Trazado_881455" data-name="Trazado 881455" d="M6.82,28.715a7.593,7.593,0,0,0-1.175,7.154" transform="translate(0.387 2.135)" fill="none" stroke="#0c1d2f" stroke-linecap="round" stroke-miterlimit="10" stroke-width="0.587"/>
        <path id="Trazado_881456" data-name="Trazado 881456" d="M11.957,35.918a10.675,10.675,0,0,1-.588-5.6" transform="translate(0.833 2.254)" fill="none" stroke="#0c1d2f" stroke-linecap="round" stroke-miterlimit="10" stroke-width="0.587"/>
        <path id="Trazado_881457" data-name="Trazado 881457" d="M18.034,36.853s1.589-4.088.055-7.1" transform="translate(1.341 2.212)" fill="none" stroke="#0c1d2f" stroke-linecap="round" stroke-miterlimit="10" stroke-width="0.587"/>
        <path id="Trazado_881458" data-name="Trazado 881458" d="M25.339,38.12a6.289,6.289,0,0,1,.882-6.221" transform="translate(1.85 2.372)" fill="none" stroke="#0c1d2f" stroke-linecap="round" stroke-miterlimit="10" stroke-width="0.587"/>
        <path id="Trazado_881459" data-name="Trazado 881459" d="M33.634,41.1s-3.233-3.732-.882-7.465" transform="translate(2.372 2.501)" fill="none" stroke="#0c1d2f" stroke-linecap="round" stroke-miterlimit="10" stroke-width="0.587"/>
        <path id="Trazado_881460" data-name="Trazado 881460" d="M84.994,34.6l-.015,1.023v.289h.182l.008-.669.008-.642Zm-.023,2.624-.006,1.312h.182l.006-1.312ZM84.95,39.85l-.008,1.312h.182l.008-1.312Zm-.014,2.624-.015,1.312H85.1l.015-1.312ZM84.913,45.1l-.006,1.312h.182l.006-1.312Zm-.021,2.624-.008,1.312h.182l.008-1.312Zm-.014,2.624-.015,1.313h.182l.015-1.313Zm-.023,2.625-.006,1.312h.182l.006-1.312Zm-.021,2.624L84.826,56.9h.182l.008-1.312Zm-.014,2.624L84.8,59.528h.182L85,58.216ZM84.8,60.84l-.006,1.312h.18l.008-1.312Zm-.021,2.624-.008,1.312h.182l.008-1.312Zm-.014,2.624L84.747,67.4h.182l.014-1.312Zm-.023,2.624-.008,1.312h.182l.008-1.312Zm-.021,2.624-.008,1.312h.182l.008-1.312ZM84.7,73.958l-.014,1.313h.182l.014-1.313Zm-.021,2.625-.008,1.312h.182l.008-1.312Zm-.021,2.624-.008,1.312h.182l.008-1.312Zm-.015,2.624-.014,1.312h.182l.014-1.312Zm-.021,2.624-.008,1.312H84.8l.008-1.312ZM84.6,87.077l-.008,1.312h.182l.008-1.312ZM84.587,89.7l-.014,1.312h.182l.014-1.312Zm-.021,2.624-.008,1.312h.182l.008-1.312Zm-.021,2.624-.008,1.312h.182l.008-1.312Zm-.015,2.624-.014,1.313H84.7l.014-1.313Zm-.021,2.625-.008,1.312h.182l.008-1.312Zm-.021,2.624-.008,1.312h.182l.008-1.312Zm-.015,2.624-.014,1.312h.182l.014-1.312Zm-.021,2.624-.008,1.312h.182l.008-1.312Zm-.021,2.624L84.42,112H84.6l.008-1.312Zm-.015,2.624-.014,1.312h.182l.014-1.312Zm-.021,2.624-.008,1.312h.182l.008-1.312Zm-.021,2.624-.008,1.312h.182l.008-1.312Zm-.015,2.624-.014,1.313h.182l.014-1.313Zm-.021,2.625-.008,1.312h.182l.008-1.312Zm-.021,2.624-.008,1.312h.182l.008-1.312Zm-.015,2.624-.014,1.312h.18l.015-1.312Zm-.021,2.624-.008,1.312h.182l.008-1.312Zm-.021,2.624-.008,1.312h.182l.006-1.312Zm-.015,2.624-.014,1.312h.18l.015-1.312Zm-.021,2.624-.008,1.312h.182l.008-1.312Zm-.023,2.624-.006,1.312h.182l.006-1.312Zm-.014,2.625-.015,1.312h.182l.015-1.312Zm-.021,2.624-.008,1.312h.182l.008-1.312Zm-.023,2.624-.006,1.312h.182l.006-1.312Zm-.014,2.624-.015,1.312h.182l.015-1.312Zm-.021,2.624-.008,1.312h.182l.008-1.312Zm-.023,2.624-.006,1.312h.182l.006-1.312Zm-.014,2.624-.015,1.312h.182l.015-1.312Zm-.021,2.624-.008,1.312h.182l.008-1.312Zm-.023,2.624-.006,1.312h.18l.008-1.312Zm-.014,2.625-.015,1.312h.182l.015-1.312Zm-.021,2.624-.008,1.312h.182l.006-1.312Zm-.023,2.624-.006,1.312h.18l.008-1.312Zm-.014,2.624-.015,1.312h.182l.015-1.312Zm-.023,2.624-.006,1.312H84.1l.006-1.312Zm-.021,2.624-.008,1.312h.182l.008-1.312Zm-.014,2.624-.015,1.312h.182l.015-1.312Zm-.023,2.624-.006,1.312h.182l.006-1.312Zm-.021,2.624-.008,1.312h.182l.008-1.312Zm-.014,2.617-.015,1.312.182.008.015-1.312Zm-.023,2.625-.006,1.312.182.006.006-1.312Zm-.021,2.624-.008,1.312.182.006.008-1.312Zm-.014,2.624L83.76,201.2l.182.006.015-1.312Zm-.023,2.624-.006,1.312.18.006.008-1.312Zm-.021,2.624-.008,1.109v.2l.182.006v-.21l.008-1.1Z" transform="translate(6.225 2.573)" fill="#0c1d30"/>
        <path id="Trazado_881461" data-name="Trazado 881461" d="M85.752,24.965c-.457-.218-1.059-.45-1.757-.726-3.8-1.5-10.62-4.2-14.142-11.433-.2-.406-.385-.82-.559-1.256-.08-.2-.16-.392-.232-.588-.109-.284-.211-.566-.313-.835-.035-.1-.072-.2-.109-.3-.464-1.263-.864-2.359-1.212-3.311-.044-.109-.081-.209-.117-.312-.537-1.466-.936-2.577-1.233-3.412-.2-.566-.356-1.009-.472-1.35a2.006,2.006,0,0,0-.16-.356A2.153,2.153,0,0,0,63.183.035c-12.364,2.28-16.008,3.2-17.118,3.644-.45.182-.487.284-.523.371a.6.6,0,0,0-.029.109,7.891,7.891,0,0,0-.16,2.8c0,.043.008.08.008.124.021.334.044.653.044.929.014,1.19.058,2.381.122,3.571.008.139.015.269.023.407.066,1.154.159,2.3.29,3.434a2.526,2.526,0,0,0,.037.406c.014.189.037.371.058.552.2,1.735.443,3.347.74,4.856.021.124.044.247.066.371.319,1.56.682,3,1.1,4.363.015.035.021.08.037.116.021.058.037.116.058.174.037.124.08.247.116.363.014.05.037.1.05.153a25.96,25.96,0,0,0,1.161,2.9c.023.059.052.11.073.168.079.16.16.319.24.479a17.3,17.3,0,0,0,1.691,2.591l.11.153c.29.371.58.733.864,1.089.319.4.638.8.951,1.2l.319.429c.291.385.581.769.886,1.147l.13.151a13.181,13.181,0,0,0,2.643,2.592,16.813,16.813,0,0,0,6.86,2.744,1.624,1.624,0,0,0,.189.029c.522.087,1.053.145,1.59.189s1.111.064,1.691.064h.182c.124,0,.247,0,.371-.006h.182a30.355,30.355,0,0,0,4.058-.429l.014-.008c.058-.008.116-.021.174-.029l.226-.043c.014-.008.153-.058.385-.153.05-.029.109-.052.174-.081a20.029,20.029,0,0,0,2.744-1.525,1.626,1.626,0,0,0,.153-.1A23.481,23.481,0,0,0,86.014,25.88a16.352,16.352,0,0,0,3.361.893c.189.029.371.058.545.08a26.1,26.1,0,0,0,3.325.269h.021v-.726c-.044,0-4.581-.021-7.514-1.43M72.526,41.495a25.542,25.542,0,0,1-6.657.421,16.512,16.512,0,0,1-8.276-2.831,16.228,16.228,0,0,1-3.5-3.739l-.327-.429c-.313-.406-.639-.813-.958-1.212a23.136,23.136,0,0,1-2.585-3.717,26.276,26.276,0,0,1-1.684-4.239A51.553,51.553,0,0,1,46.653,16.3,82.426,82.426,0,0,1,46.13,8c0-.29-.021-.617-.043-.966A7.914,7.914,0,0,1,46.2,4.384c.821-.443,7.477-1.859,17.125-3.63a1.39,1.39,0,0,1,1.132.276,1.375,1.375,0,0,1,.371.443c0,.008,0,.015.008.015a.975.975,0,0,1,.087.189c.45,1.314,1.422,4.029,3.463,9.538,3.31,8.929,11.143,12.03,15.346,13.7.639.247,1.19.472,1.612.667A22.382,22.382,0,0,1,72.526,41.495" transform="translate(3.369 0)" fill="#0c1d30"/>
        <path id="Trazado_881462" data-name="Trazado 881462" d="M90.37,26.675a.766.766,0,0,0-.008-.131l-.537.052-.188.014a23.562,23.562,0,0,1-3.412,13.9c-.886,1.408-3.093,2.112-4.276,2.49a4.483,4.483,0,0,0-.951.356.657.657,0,0,0-.131.116.646.646,0,0,0-.109.153.49.49,0,0,0-.037.24c.05.327.371.421.74.53.1.029.218.066.334.109-.494.2-1.408.473-2.011.653A12.979,12.979,0,0,0,77.9,45.8a1.279,1.279,0,0,0-.3.218.526.526,0,0,0-.109.159.488.488,0,0,0-.037.182c0,.3.255.45.487.589a1.734,1.734,0,0,1,.6.479.451.451,0,0,1-.2.087,2.4,2.4,0,0,1-.269.037,25.487,25.487,0,0,1-2.672-.008l-.269-.015c-1.117-.035-3.811-.029-4.61.821a.971.971,0,0,0-.159.232.869.869,0,0,0-.073.218.826.826,0,0,0-.014.232c.006.037.006.05-.052.073a2.206,2.206,0,0,1-1.8-.386,2.452,2.452,0,0,0-.85-.42,1.7,1.7,0,0,0-.182-.059,15.6,15.6,0,0,0-3.521-.37.8.8,0,0,1-.29-.037.572.572,0,0,1-.182-.072c-.073-.052-.139-.117-.226-.189-.515-.487-1.1-.871-3.136-.711-2.657.188-7.418-4.109-8.979-5.518-.334-.3-.566-.508-.676-.588a.928.928,0,0,1-.24-.385c-.021-.066-.05-.139-.072-.211v-.008a12.7,12.7,0,0,1-.334-1.561,5.313,5.313,0,0,0-.255-1.161,1.957,1.957,0,0,0-1.335-1.154,1.469,1.469,0,0,0-1.053.225l-.006.008a2.8,2.8,0,0,0-.371.284.182.182,0,0,1-.021-.037A9.078,9.078,0,0,1,46.2,35.03c-.232-1.067-.429-1.96-.85-2.214a.44.44,0,0,0-.188-.072.434.434,0,0,0-.218.008,3.859,3.859,0,0,1-.2-1.271,5.8,5.8,0,0,0-.255-1.735,2.231,2.231,0,0,0-.6-.994,4.74,4.74,0,0,1-.7-.929,6.34,6.34,0,0,1-.218-3.02,3.556,3.556,0,0,0-.087-1.758.564.564,0,0,0-.145-.145.448.448,0,0,0-.182-.072.307.307,0,0,0-.269.037c-.11-.052-.5-.444-1.068-3.282l-.014-.093c-.066-.334.464-.923.813-1.307a2.023,2.023,0,0,0,.617-.907.178.178,0,0,0,.015-.087.712.712,0,0,0-.052-.276,1.443,1.443,0,0,0-.856-.74h-.008a2.265,2.265,0,0,0-.632-.16.479.479,0,0,0-.145-.021A15.366,15.366,0,0,1,42.2,12.272a.353.353,0,0,0,.029-.167.4.4,0,0,0-.167-.327.077.077,0,0,0-.037-.03.415.415,0,0,0-.537.095c-.081.095-.139.139-.153.16a.51.51,0,0,1-.058-.116c-.145-.334.05-1.627,1.045-4.189a.56.56,0,0,0-.11-.6.213.213,0,0,0-.058-.058A.567.567,0,0,0,41.485,7c-.458.275-1.038.624-1.445.849-.217-.864.044-4.05.508-4.639a.42.42,0,0,1,.233-.087.711.711,0,0,1,.18-.021,19.889,19.889,0,0,1,5,.885c.124.037.247.073.377.11l.175-.589.029-.109c-1.729-.5-5.815-1.575-6.563-.639-.682.85-1.009,5.01-.45,5.707a.49.49,0,0,0,.624.138c.328-.16.865-.479,1.35-.769-.856,2.257-1.161,3.716-.9,4.34a1.109,1.109,0,0,0,.095.189.737.737,0,0,0,.508.377h.021c-.029.073-.058.146-.079.211-1.169,2.97-.922,3.354-.791,3.536a.485.485,0,0,0,.414.226,1.525,1.525,0,0,1,1.161.443,3.016,3.016,0,0,1-.443.545c-.5.551-1.126,1.241-.987,1.931l.014.1c.479,2.4.9,3.5,1.445,3.783a.679.679,0,0,0,.334.072,9.894,9.894,0,0,1-.044,1.169c-.08,1.176-.182,2.635.327,3.456a4.969,4.969,0,0,0,.813,1.059,1.544,1.544,0,0,1,.421.741,5.687,5.687,0,0,1,.218,1.517c.043.835.087,1.5.472,1.8a.684.684,0,0,0,.487.131,7.524,7.524,0,0,1,.5,1.728c.305,1.4.508,2.2,1.038,2.353a.67.67,0,0,0,.676-.211.88.88,0,0,1,.8-.334,1.27,1.27,0,0,1,.813.725,6.767,6.767,0,0,1,.2.987c.167,1.031.363,2.208.922,2.629.1.072.312.269.624.544,3.057,2.759,6.9,5.9,9.518,5.7,1.887-.146,2.257.211,2.591.522a1.516,1.516,0,0,0,1.19.494c1.641,0,3.571.232,4.073.675a3.212,3.212,0,0,0,1.888.632,1.512,1.512,0,0,0,.725-.153.768.768,0,0,0,.436-.792c0-.021,0-.05.058-.116.327-.348,1.706-.661,4.058-.588l.269.014c2.352.081,3.412.095,3.76-.428a.672.672,0,0,0,.037-.682,1.857,1.857,0,0,0-.777-.792c.327-.138.972-.327,1.6-.508,2.091-.624,2.672-.849,2.78-1.256a.448.448,0,0,0-.124-.428,1.844,1.844,0,0,0-.733-.4c.079-.021.174-.05.255-.08,1.277-.407,3.644-1.155,4.667-2.8a22.422,22.422,0,0,0,1.453-2.765c.066-.139.124-.276.188-.421a23.524,23.524,0,0,0,1.9-11.035" transform="translate(2.918 0.177)" fill="#0c1d30"/>
        <path id="Trazado_881463" data-name="Trazado 881463" d="M40.892,3.04V2.858c-.13,0-.174.109-.182.225a.706.706,0,0,0-.014.168.8.8,0,0,1-.008.138l-.021.029a1.409,1.409,0,0,0-.066.153l.167.058c.015-.037.029-.073.044-.1.058-.043.066-.153.066-.269a1.594,1.594,0,0,1,.014-.2c.008-.015.008-.021.015-.029a.026.026,0,0,1-.015.008M40.413,4.28c-.043.226-.079.465-.109.726l.182.021c.029-.254.066-.493.109-.711Zm-.188,1.451c-.023.255-.037.494-.044.734l.182.008c.008-.232.021-.479.043-.726Zm1.262.719.044.175a.9.9,0,0,1,.632.087l.087-.153a1.038,1.038,0,0,0-.763-.11M40.82,6.8c-.218.13-.415.247-.589.348l.023.044-.073.006.008.189.13-.08c.182-.1.378-.218.6-.356Zm1.909.37-.174.052a.872.872,0,0,1,.035.24.939.939,0,0,1-.058.312l-.043.095.174.073.037-.1a1.017,1.017,0,0,0,.029-.668m-.494,1.379c-.087.247-.167.472-.24.69l.174.058c.073-.218.153-.443.24-.682Zm-.458,1.387c-.072.254-.13.493-.18.7l.174.044c.029-.131.066-.269.1-.414.008-.015.008-.029.015-.044.021-.08.043-.16.066-.24Zm.444,1.4a.885.885,0,0,0-.618-.116l.029.182a.692.692,0,0,1,.494.087.523.523,0,0,1,.1.08l.124-.138a.822.822,0,0,0-.13-.095m.232.806a.648.648,0,0,1-.05.2c-.066.16-.131.313-.189.458l.174.066c.058-.145.116-.291.182-.45a.781.781,0,0,0,.066-.255Zm-.5,1.335c-.1.247-.182.472-.255.682l.168.058c.072-.2.159-.428.254-.675Zm-.494,1.372c-.079.276-.153.508-.2.7l.174.043c.05-.188.116-.421.2-.69Zm.835,1.089a1.977,1.977,0,0,0-.305-.167l-.079.167a.8.8,0,0,1,.145.073,1.776,1.776,0,0,1,.436.3l.124-.13a1.9,1.9,0,0,0-.32-.247m.763,1.176a1.164,1.164,0,0,0-.037-.276l-.174.05a1.1,1.1,0,0,1,.037.269.852.852,0,0,1-.088.371l.168.08a1.121,1.121,0,0,0,.1-.45.1.1,0,0,0-.006-.043M42.4,18.1c-.066.064-.124.138-.189.2l-.029.029c-.066.08-.167.188-.269.305l.139.122c.1-.122.2-.232.269-.3l.021-.029c.066-.073.13-.139.188-.211Zm-.769,1.357-.015-.058a.159.159,0,0,1,.021-.073l-.167-.08a.438.438,0,0,0-.037.168l.021.08c.037.189.073.356.1.522l.182-.043c-.037-.16-.073-.327-.109-.516m.3,1.35V20.8c-.008-.035-.023-.072-.029-.109l-.175.037c.058.261.124.5.182.711l.175-.05c-.052-.174-.095-.371-.153-.574m.5,1.517a1.958,1.958,0,0,1-.116-.269l-.174.073c.058.13.109.246.159.334l.029.043h.095a.744.744,0,0,1,.284.05l.064-.167a.906.906,0,0,0-.341-.066m.893.617-.174.073a1.8,1.8,0,0,1,.109.675h.182a2.239,2.239,0,0,0-.116-.748m-.095,1.466c-.008.124-.014.247-.021.378-.008.109-.021.225-.029.348l.182.015c.008-.124.021-.24.029-.349.008-.13.014-.261.021-.377Zm.095,1.793v-.333l-.182-.008V26.2c0,.131,0,.269.008.392l.182-.006c-.008-.124-.008-.255-.008-.386m46,.4-.182.015c.008.087.014.174.021.254l.182-.014c-.008-.081-.015-.168-.021-.255m-45.786.951a1,1,0,0,1-.109-.269l-.175.052a1.431,1.431,0,0,0,.131.312c.087.138.16.255.232.348l.145-.1c-.064-.095-.138-.211-.225-.342m45.851.029-.182.008c.006.247.014.487.014.726h.182c0-.24-.008-.487-.014-.734m-45.169.85-.13.13a2.046,2.046,0,0,1,.406.56l.16-.081a2.042,2.042,0,0,0-.436-.609m44.987.609c-.008.24-.023.479-.037.719l.182.015c.014-.24.029-.487.037-.734Zm-44.269.69-.174.052a3.883,3.883,0,0,1,.145.7l.182-.029a4.166,4.166,0,0,0-.153-.719M89.1,30.48q-.044.371-.087.719l.182.023c.029-.233.058-.479.087-.719Zm-43.949.944-.015-.24-.182.006.015.24c.006.146.021.32.035.487l.182-.014c-.014-.16-.029-.334-.035-.479m43.752.493c-.043.24-.087.472-.13.711l.174.029c.051-.232.095-.472.138-.711Zm-43.3.508a1.127,1.127,0,0,0-.122-.08l-.087.16a.51.51,0,0,1,.087.058,1.184,1.184,0,0,1,.356.435L46,32.912a1.526,1.526,0,0,0-.392-.487m43.013.908c-.05.24-.116.472-.174.7l.174.052c.066-.232.124-.465.182-.711Zm-42.345.261-.174.058a6.972,6.972,0,0,1,.189.7l.174-.044c-.066-.29-.124-.515-.189-.711m41.967,1.132c-.066.24-.139.465-.218.69l.174.058c.073-.225.145-.458.218-.7Zm-41.619.29-.174.037c.044.218.1.472.16.711l.174-.043c-.058-.24-.116-.494-.16-.7m1.133.748c-.066.008-.139.015-.2.029a1.034,1.034,0,0,0-.29.066,1.7,1.7,0,0,0-.24.095l.066.124.014.037a1.244,1.244,0,0,1,.262-.095,1.475,1.475,0,0,1,.4-.073Zm.748.131-.066.168a2.186,2.186,0,0,1,.6.356l.116-.139A2.388,2.388,0,0,0,48.5,35.9m39.28.2c-.087.233-.174.458-.261.676l.167.064c.095-.217.182-.443.261-.675ZM49.844,37.217a2.352,2.352,0,0,0-.2-.371l-.151.095a1.628,1.628,0,0,1,.188.348,1.719,1.719,0,0,1,.095.291l.182-.052a2.755,2.755,0,0,0-.109-.312m37.4.225c-.1.233-.2.45-.305.661l.168.073c.1-.2.2-.429.3-.661ZM50.134,38.48l-.044-.233-.174.029.037.233c.021.13.05.3.079.486l.182-.029c-.037-.188-.066-.356-.08-.486m36.486.269c-.116.232-.232.45-.334.638l.16.087c.1-.188.217-.406.341-.638Zm-36.2,1.161c-.014-.066-.035-.139-.058-.226v-.014l-.174.043c.008.044.021.087.029.131.021.08.044.16.066.225a1.545,1.545,0,0,0,.153.356l.153-.1a1.761,1.761,0,0,1-.168-.414m35.506.109c-.05.08-.095.153-.138.218a2.472,2.472,0,0,1-.269.356l.138.124a2.806,2.806,0,0,0,.284-.385c.043-.066.087-.139.138-.226ZM51.3,40.97l-.2-.174-.116.131.189.174c.1.095.218.2.348.312l.124-.13c-.131-.116-.247-.226-.348-.313m33.691.1a4.719,4.719,0,0,1-.6.392l.087.159a5.262,5.262,0,0,0,.618-.406ZM83.76,41.8c-.211.093-.436.188-.668.275l.072.174c.233-.093.458-.188.668-.29Zm-31.572-.037-.116.138c.167.153.356.313.552.479l.116-.138c-.2-.168-.378-.327-.552-.479m30.229.559-.661.218-.029.008.05.174a.076.076,0,0,1,.037-.008c.2-.066.421-.138.661-.218ZM53.291,42.7l-.116.139c.182.151.371.312.566.464l.116-.138c-.2-.16-.385-.313-.566-.465m27.739.081a1.582,1.582,0,0,0-.334.167,1.266,1.266,0,0,0-.29.269l.145.109A.925.925,0,0,1,80.8,43.1a1.3,1.3,0,0,1,.305-.153Zm-26.606.835-.109.138c.189.153.385.3.581.443L55,44.055c-.2-.145-.392-.29-.581-.435m26.316.762a.721.721,0,0,1-.327-.443l-.175.043a.906.906,0,0,0,.371.531l.021.058.269-.081Zm-.864.232-.7.2.05.174.7-.2Zm-24.284-.138-.109.153c.2.138.406.276.6.406l.1-.153c-.2-.13-.4-.269-.6-.406m22.889.559a5.128,5.128,0,0,0-.69.255l.073.159a6.832,6.832,0,0,1,.675-.246Zm-21.676.232-.095.153c.225.139.435.255.638.363l.081-.159c-.2-.11-.407-.226-.624-.357m1.27.668L58,46.1a5.46,5.46,0,0,0,.689.262l.059-.174c-.211-.066-.436-.153-.676-.255m19.237-.095-.145-.116a.9.9,0,0,0-.095.139,1.079,1.079,0,0,0-.124.449,1.156,1.156,0,0,0,.015.168l.182-.029a.778.778,0,0,1-.015-.131.917.917,0,0,1,.087-.341c.03-.044.059-.095.095-.139m-17.168.516c-.058,0-.124.008-.2.014-.052,0-.1.008-.16.008a3.257,3.257,0,0,1-.342-.029l-.029.182a3.217,3.217,0,0,0,.357.029,1.693,1.693,0,0,1,.2-.008,1.867,1.867,0,0,1,.188-.014Zm.733-.021v.182a5.447,5.447,0,0,1,.712.043l.021-.182a5.791,5.791,0,0,0-.734-.043m1.459.2-.058.174a2.4,2.4,0,0,1,.632.305l.1-.153a2.643,2.643,0,0,0-.676-.327m11.964.5h-.08v.182h.08c.218,0,.436,0,.639.008l.008-.182c-.211-.008-.421-.008-.647-.008m1.372.029-.008.182c.247.015.494.023.726.023l.008-.182c-.24,0-.479-.008-.726-.023m2,.044a1.335,1.335,0,0,1-.174-.124l-.087.116h-.29l.006.182c.182,0,.349,0,.5-.008h.014l.284-.014Zm-4.189-.058c-.254.014-.5.029-.725.05l.014.182c.226-.021.472-.037.719-.05Zm-1.451.145c-.261.05-.5.1-.719.167l.05.175a5.536,5.536,0,0,1,.7-.16Zm-8.225.189c-.153,0-.182-.008-.24-.052l-.058.073v.008l-.05.066a.2.2,0,0,0,.05.029.538.538,0,0,0,.3.058c.11,0,.247,0,.414.006v-.182c-.159-.006-.3-.006-.414-.006m1.147.037-.015.18c.255.015.494.029.726.052l.015-.182c-.233-.021-.473-.037-.726-.05m1.451.145-.021.174c.247.037.487.087.7.13l.044-.174c-.226-.05-.472-.095-.726-.13m4.218.072a1.945,1.945,0,0,0-.5.371l-.087.109.138.11c.029-.029.058-.066.087-.095a1.626,1.626,0,0,1,.45-.334Zm-2.788.262-.058.174a2.62,2.62,0,0,1,.624.3l.11-.145a3.219,3.219,0,0,0-.676-.333m1.953.791a2.374,2.374,0,0,1-.675-.116l-.058.174a2.75,2.75,0,0,0,.74.124Z" transform="translate(2.988 0.212)" fill="#0c1d30"/>
        <path id="Trazado_881464" data-name="Trazado 881464" d="M41.855,7.1,41.7,6.769c.106-.052,2.644-1.257,4.4-.248l-.18.315c-1.592-.914-4.035.248-4.06.26" transform="translate(3.1 0.455)" fill="#0c1d30"/>
        <path id="Trazado_881465" data-name="Trazado 881465" d="M41.66,11.634l-.127-.341c.143-.053,3.521-1.3,4.688-.265l-.241.272c-.835-.739-3.4-.009-4.321.334" transform="translate(3.088 0.79)" fill="#0c1d30"/>
        <path id="Trazado_881466" data-name="Trazado 881466" d="M40.744,15.631,40.6,15.3c.175-.074,4.3-1.8,6-.75l-.189.309c-1.551-.953-5.63.755-5.67.774" transform="translate(3.019 1.057)" fill="#0c1d30"/>
        <path id="Trazado_881467" data-name="Trazado 881467" d="M42.146,16.378l-.113-.345A6.624,6.624,0,0,1,44.98,15.7l-.115.344a6.436,6.436,0,0,0-2.719.338" transform="translate(3.125 1.161)" fill="#0c1d30"/>
        <path id="Trazado_881468" data-name="Trazado 881468" d="M42.285,22.045l-.225-.285c.126-.1,3.094-2.417,5.309-1.938l-.076.355c-2.051-.44-4.98,1.845-5.009,1.868" transform="translate(3.127 1.469)" fill="#0c1d30"/>
        <path id="Trazado_881469" data-name="Trazado 881469" d="M41.709,19.749a7.862,7.862,0,0,1,2.05-1.319,3.684,3.684,0,0,1,2.395-.32,3.548,3.548,0,0,0-1.193.095,6.144,6.144,0,0,0-1.13.391,10.485,10.485,0,0,0-1.079.535c-.351.2-.7.4-1.043.619" transform="translate(3.101 1.34)" fill="#0c1d30"/>
        <path id="Trazado_881470" data-name="Trazado 881470" d="M41.638,9.927a6.189,6.189,0,0,1,1.685-1.1A2.981,2.981,0,0,1,45.3,8.575a3.036,3.036,0,0,0-.982.09,5.146,5.146,0,0,0-.928.326,8.63,8.63,0,0,0-.89.437c-.29.16-.582.323-.867.5" transform="translate(3.096 0.631)" fill="#0c1d30"/>
        <path id="Trazado_881471" data-name="Trazado 881471" d="M44.681,31.273l-.143-.112c.105-.133,2.589-3.247,5.049-3.586l.025.18c-2.389.329-4.907,3.485-4.931,3.517" transform="translate(3.312 2.05)" fill="#0c1d30"/>
        <path id="Trazado_881472" data-name="Trazado 881472" d="M48.583,24.88c.055.045-.049.006-.082.018-.05,0-.1,0-.153.012-.1.012-.207.029-.31.05a5.293,5.293,0,0,0-.611.164,5.982,5.982,0,0,0-1.157.529,6.441,6.441,0,0,0-1.9,1.7,6.492,6.492,0,0,1,1.853-1.773A6.084,6.084,0,0,1,47.381,25,5.4,5.4,0,0,1,48,24.806c.106-.026.214-.048.323-.064.054-.011.111-.012.167-.018a.627.627,0,0,1,.09,0,.231.231,0,0,1,.052,0,.233.233,0,0,1,.093.047Z" transform="translate(3.299 1.838)" fill="#0c1d30"/>
        <path id="Trazado_881473" data-name="Trazado 881473" d="M48.38,24.148a.229.229,0,0,1-.038.1.316.316,0,0,1-.035.038.831.831,0,0,1-.068.059c-.046.033-.089.071-.136.1-.091.061-.186.117-.281.17a5.648,5.648,0,0,1-.59.276,6.112,6.112,0,0,1-1.248.35,6.516,6.516,0,0,1-2.563-.068,6.448,6.448,0,0,0,2.546-.021,5.974,5.974,0,0,0,1.213-.387,5.245,5.245,0,0,0,.563-.289c.091-.054.179-.11.263-.171.045-.029.081-.063.121-.095.032-.012.084-.111.073-.041Z" transform="translate(3.228 1.795)" fill="#0c1d30"/>
        <path id="Trazado_881474" data-name="Trazado 881474" d="M46.224,34.931l-.157-.09a10.324,10.324,0,0,1,5.413-4.292l.052.174a10.139,10.139,0,0,0-5.307,4.208" transform="translate(3.425 2.271)" fill="#0c1d30"/>
        <path id="Trazado_881475" data-name="Trazado 881475" d="M49.11,38.278l-.047-.1c.029-.156,2.52-3.513,5.7-3.914l.023.179c-3.165.4-5.529,3.754-5.547,3.787l-.078-.042v0l.064.066Z" transform="translate(3.648 2.548)" fill="#0c1d30"/>
        <path id="Trazado_881476" data-name="Trazado 881476" d="M61.721,45.333c0-.039-.112-3.9,1.325-6.225l.154.1c-1.406,2.275-1.3,6.085-1.3,6.124Z" transform="translate(4.589 2.908)" fill="#0c1d30"/>
        <path id="Trazado_881477" data-name="Trazado 881477" d="M68.565,46.319c-.064-.033-1.573-.895-2.121-6.922l.182-.017c.535,5.892,2.01,6.772,2.025,6.779Z" transform="translate(4.94 2.928)" fill="#0c1d30"/>
        <path id="Trazado_881478" data-name="Trazado 881478" d="M65.463,45.915a23.373,23.373,0,0,1,.636-6.584l.177.039a23.187,23.187,0,0,0-.633,6.527Z" transform="translate(4.865 2.924)" fill="#0c1d30"/>
        <path id="Trazado_881479" data-name="Trazado 881479" d="M75.278,43.571c-.032-.023-3.248-2.285-4.261-4.777l.168-.069c.993,2.441,4.165,4.675,4.2,4.7Z" transform="translate(5.28 2.879)" fill="#0c1d30"/>
        <path id="Trazado_881480" data-name="Trazado 881480" d="M76.255,45.141c-.044-.028-4.442-2.771-5.828-5.791l.165-.075c1.362,2.97,5.714,5.684,5.759,5.711Z" transform="translate(5.236 2.92)" fill="#0c1d30"/>
        <path id="Trazado_881481" data-name="Trazado 881481" d="M78.613,41.15a7.248,7.248,0,0,1-4.841-3.732l.168-.071a7.061,7.061,0,0,0,4.716,3.627Z" transform="translate(5.485 2.777)" fill="#0c1d30"/>
        <path id="Trazado_881482" data-name="Trazado 881482" d="M134.478,4.159a.708.708,0,0,0-.029-.109c-.037-.087-.073-.189-.516-.37-1.1-.45-4.74-1.366-17.125-3.645a2.125,2.125,0,0,0-2.337,1.234.9.9,0,0,0-.081.174c-.153.444-.37,1.06-.667,1.888-.247.69-.552,1.532-.923,2.556-.043.116-.093.24-.13.37-.407,1.1-.886,2.4-1.453,3.935l-.109.3c-.058.153-.116.305-.174.465-.174.472-.363.929-.566,1.364-.211.472-.443.929-.69,1.366-3.63,6.57-10.04,9.1-13.676,10.548-.7.275-1.307.508-1.758.725a13.474,13.474,0,0,1-4.3,1.459h-.037l.015.7v.029a.776.776,0,0,0,.131-.014,4.671,4.671,0,0,0,.74-.117c.079-.021.167-.043.254-.064l.182-.044a17.542,17.542,0,0,0,2.751-1.016,23.487,23.487,0,0,0,9.851,14.439c.052.037.1.073.153.1a19.6,19.6,0,0,0,2.751,1.523c.058.03.11.052.16.073.269.116.421.167.443.174a1.4,1.4,0,0,0,.174.029,1.226,1.226,0,0,0,.174.029l.008.008a27.946,27.946,0,0,0,4.065.429h.182c.124.006.247.006.363.006h.189c.573,0,1.139-.021,1.691-.064.537-.044,1.067-.1,1.583-.189l.182-.021a16.9,16.9,0,0,0,6.867-2.751,13.177,13.177,0,0,0,2.649-2.585c.037-.05.081-.1.124-.159.305-.378.6-.763.886-1.147l.327-.429c.312-.406.632-.806.943-1.2.29-.356.581-.719.864-1.089.037-.05.081-.1.116-.153a17.3,17.3,0,0,0,1.692-2.591c.08-.16.159-.319.24-.479.021-.058.051-.109.072-.167a26.067,26.067,0,0,0,1.161-2.9c.015-.052.037-.1.052-.153.037-.116.08-.24.116-.363.021-.05.037-.109.058-.167a1.028,1.028,0,0,1,.037-.124c.421-1.358.783-2.8,1.1-4.363.021-.124.043-.247.066-.371.3-1.509.537-3.121.74-4.856.021-.182.043-.363.058-.552.014-.131.029-.269.037-.406.124-1.132.217-2.28.29-3.434.008-.139.014-.269.014-.407.073-1.19.11-2.381.124-3.571.008-.276.029-.6.044-.929,0-.037.008-.073.008-.116a7.761,7.761,0,0,0-.16-2.8m-3.02,21.59a26.273,26.273,0,0,1-1.685,4.239,23.1,23.1,0,0,1-2.591,3.717c-.319.4-.638.806-.951,1.212l-.334.436a16.314,16.314,0,0,1-3.492,3.731,16.519,16.519,0,0,1-8.276,2.831,25.975,25.975,0,0,1-6.606-.406A22.359,22.359,0,0,1,94.653,25.582c.421-.2.98-.421,1.612-.668,4.21-1.67,12.043-4.769,15.354-13.7,2.033-5.5,3-8.218,3.455-9.538.008-.008.008-.023.015-.029a1.332,1.332,0,0,1,.341-.523,1.389,1.389,0,0,1,1.249-.371c9.64,1.772,16.3,3.188,17.118,3.63a8.1,8.1,0,0,1,.116,2.649c-.021.349-.044.676-.05.966a78.643,78.643,0,0,1-.523,8.3,52.229,52.229,0,0,1-1.88,9.452" transform="translate(6.685 0)" fill="#0c1d30"/>
        <path id="Trazado_881483" data-name="Trazado 881483" d="M140.454,2.755c-.748-.937-4.835.138-6.556.639l.029.109.175.588.37-.109a19.888,19.888,0,0,1,5.01-.885.623.623,0,0,1,.174.021.363.363,0,0,1,.232.087c.472.588.733,3.775.516,4.639-.334-.182-.835-.479-1.445-.85a.578.578,0,0,0-.675.044.187.187,0,0,0-.058.058.576.576,0,0,0-.117.6c1,2.562,1.191,3.855,1.053,4.188a.85.85,0,0,1-.05.11.937.937,0,0,1-.16-.153.425.425,0,0,0-.545-.095.074.074,0,0,0-.035.029.4.4,0,0,0-.168.327.442.442,0,0,0,.037.168,15.16,15.16,0,0,1,1.227,3.716.521.521,0,0,0-.145.021,2.342,2.342,0,0,0-.632.16,1.469,1.469,0,0,0-.856.74.712.712,0,0,0-.052.276.178.178,0,0,0,.015.087,2.056,2.056,0,0,0,.609.908c.357.385.886.972.821,1.306l-.021.095c-.566,2.838-.958,3.231-1,3.281a.49.49,0,0,0-.334-.037.38.38,0,0,0-.174.073.564.564,0,0,0-.145.145,3.46,3.46,0,0,0-.087,1.757,6.339,6.339,0,0,1-.218,3.02,4.334,4.334,0,0,1-.711.929,2.251,2.251,0,0,0-.588.995,6.006,6.006,0,0,0-.261,1.735,4.013,4.013,0,0,1-.175,1.256.483.483,0,0,0-.254,0,.449.449,0,0,0-.174.072c-.421.276-.618,1.161-.842,2.222a9.452,9.452,0,0,1-.487,1.72.156.156,0,0,1-.021.037,1.852,1.852,0,0,0-.377-.29l-.008-.008a1.5,1.5,0,0,0-1.053-.218,1.99,1.99,0,0,0-1.335,1.155,6.345,6.345,0,0,0-.255,1.161,11.887,11.887,0,0,1-.327,1.561s-.008.006,0,.006a1.675,1.675,0,0,1-.08.211.792.792,0,0,1-.24.385c-.1.081-.342.291-.668.589-1.567,1.408-6.338,5.706-8.979,5.517-2.04-.16-2.628.226-3.144.711a2.162,2.162,0,0,1-.218.189.69.69,0,0,1-.182.073.832.832,0,0,1-.29.035,15.348,15.348,0,0,0-3.528.378,1.635,1.635,0,0,0-.182.05,2.347,2.347,0,0,0-.842.421,2.221,2.221,0,0,1-1.807.385c-.05-.021-.05-.037-.044-.072a.852.852,0,0,0-.014-.233v-.006a.692.692,0,0,0-.073-.2.9.9,0,0,0-.159-.24c-.8-.849-3.493-.849-4.61-.82l-.276.014c-.995.029-2.083.073-2.678.015h-.008a1.123,1.123,0,0,1-.255-.044.316.316,0,0,1-.167-.066,1.266,1.266,0,0,1,.566-.5c.226-.138.487-.29.479-.588a.46.46,0,0,0-.037-.182.706.706,0,0,0-.1-.16,1.27,1.27,0,0,0-.3-.217,12.847,12.847,0,0,0-1.888-.639c-.6-.182-1.517-.45-2.011-.653a3.341,3.341,0,0,1,.334-.109c.371-.11.69-.2.733-.531a.406.406,0,0,0-.029-.24.509.509,0,0,0-.109-.153.827.827,0,0,0-.138-.116A4.656,4.656,0,0,0,98.486,43c-1.183-.377-3.382-1.082-4.268-2.49a23.582,23.582,0,0,1-3.426-13.669c0-.08.008-.153.014-.232l-.725-.066c-.015.138-.021.276-.029.414A24.444,24.444,0,0,0,93.6,40.9c1.024,1.641,3.4,2.388,4.668,2.794.087.029.174.058.261.079a1.82,1.82,0,0,0-.733.4.45.45,0,0,0-.124.429c.1.406.682.632,2.773,1.256.632.182,1.27.37,1.6.508a1.813,1.813,0,0,0-.777.791.7.7,0,0,0,.029.682c.356.523,1.408.508,3.768.429l.269-.014c2.345-.073,3.731.239,4.058.588.058.066.052.095.052.116a.763.763,0,0,0,.435.791,1.552,1.552,0,0,0,.734.153,3.2,3.2,0,0,0,1.887-.632c.5-.443,2.432-.675,4.073-.675a1.526,1.526,0,0,0,1.19-.493c.327-.313.7-.668,2.585-.523,2.606.174,6.468-2.941,9.524-5.7.305-.276.522-.472.617-.545.566-.421.755-1.6.929-2.628a6.77,6.77,0,0,1,.2-.987,1.274,1.274,0,0,1,.806-.726.882.882,0,0,1,.806.334.641.641,0,0,0,.668.211c.537-.153.734-.951,1.038-2.352a7.123,7.123,0,0,1,.508-1.728.7.7,0,0,0,.487-.131c.385-.305.421-.966.472-1.8a5.708,5.708,0,0,1,.211-1.517,1.536,1.536,0,0,1,.429-.74,5.266,5.266,0,0,0,.813-1.06c.508-.82.406-2.279.327-3.455a9.9,9.9,0,0,1-.044-1.169.78.78,0,0,0,.334-.073c.545-.283.958-1.378,1.438-3.782l.021-.1c.139-.689-.486-1.378-.994-1.931a5.588,5.588,0,0,1-.436-.508,1.363,1.363,0,0,1,1.154-.479.488.488,0,0,0,.421-.225c.131-.182.371-.566-.791-3.536-.021-.066-.05-.138-.079-.211h.014a.744.744,0,0,0,.508-.377,1.151,1.151,0,0,0,.095-.189c.261-.624-.037-2.083-.893-4.341.479.29,1.016.6,1.35.769a.477.477,0,0,0,.617-.138c.566-.7.232-4.856-.45-5.706" transform="translate(6.692 0.177)" fill="#0c1d30"/>
        <path id="Trazado_881484" data-name="Trazado 881484" d="M139.638,3.417l-.021-.029h-.008a.883.883,0,0,0-.008-.138.706.706,0,0,0-.014-.168c-.008-.116-.052-.225-.182-.225l-.008.174c.008.008.008.014.014.029a1.644,1.644,0,0,1,.008.2c.008.117.008.226.066.269a.43.43,0,0,1,.051.1l.168-.058c-.023-.058-.044-.109-.066-.153m.247.864-.175.037c.037.218.081.458.11.711L140,5.007c-.037-.261-.073-.5-.116-.726m.188,1.453-.182.014c.023.247.037.494.044.726l.182-.008c-.008-.24-.021-.479-.044-.733m-2.025.827.095.153a.9.9,0,0,1,.632-.087l.043-.174a1.049,1.049,0,0,0-.769.109m2,.632.029-.044c-.182-.1-.377-.217-.6-.348l-.095.153c.218.138.421.254.6.356l.131.08.008-.188Zm-2.272.58a.8.8,0,0,1-.058-.312.871.871,0,0,1,.029-.24l-.174-.052a1.3,1.3,0,0,0-.037.291.978.978,0,0,0,.073.377l.037.1.167-.073Zm.291.777-.168.066c.087.24.168.465.24.682l.168-.058c-.073-.217-.146-.443-.24-.69m.457,1.387-.174.05c.021.081.044.16.066.232.008.015.008.029.014.044.037.153.073.29.1.421l.182-.044c-.05-.211-.116-.45-.189-.7m-.435,1.4a.888.888,0,0,0-.138.095l.122.138a1,1,0,0,1,.11-.08.67.67,0,0,1,.486-.087l.037-.182a.882.882,0,0,0-.617.116m-.182,1.009a.492.492,0,0,1-.05-.2l-.182.021a.756.756,0,0,0,.066.255c.058.159.122.305.18.45l.168-.066c-.058-.145-.116-.3-.182-.458m.45,1.132-.168.066c.095.247.175.472.247.676l.174-.058c-.072-.211-.159-.436-.254-.683m.487,1.372-.175.059c.088.269.153.5.2.689l.182-.043c-.051-.2-.116-.429-.2-.7m-.523.923a1.467,1.467,0,0,0-.3.167,1.921,1.921,0,0,0-.334.247l.131.13a1.948,1.948,0,0,1,.435-.3.806.806,0,0,1,.139-.073Zm-.893,1.386a.829.829,0,0,1,.037-.269l-.174-.05a1.627,1.627,0,0,0-.044.276v.043a1.01,1.01,0,0,0,.1.45l.167-.08a.866.866,0,0,1-.087-.371m.7,1.176-.023-.029c-.064-.066-.13-.139-.188-.2l-.139.116c.058.072.124.138.189.211l.029.029c.066.072.167.182.269.305l.138-.124c-.1-.116-.2-.226-.275-.305m.711.914-.168.081c.023.029.023.05.029.05l-.021.08c-.037.189-.072.356-.1.516l.174.043c.037-.167.072-.333.109-.515l.021-.11a.439.439,0,0,0-.043-.145m-.421,1.437c-.008.037-.021.073-.029.109a.028.028,0,0,1-.008.023q-.076.3-.153.566l.174.05c.066-.211.124-.45.189-.711ZM138,22.059c-.044.11-.081.2-.116.269a.947.947,0,0,0-.349.066l.073.167a.732.732,0,0,1,.276-.05h.1l.029-.043c.044-.087.1-.2.153-.334Zm-1.009.886a2.051,2.051,0,0,0-.117.748h.182a1.806,1.806,0,0,1,.1-.676Zm.116,1.844c-.008-.131-.023-.255-.029-.378l-.182.015c.006.116.021.247.029.377.006.11.014.226.021.349l.182-.015c-.008-.124-.015-.24-.021-.348m.058,1.074-.182.008c.008.109.008.217.008.334s-.008.261-.008.385l.182.006c0-.122.006-.261.006-.391s0-.226-.006-.342m-46.17.74c-.008.05-.008.095-.015.139s-.006.08-.006.116l.18.014a1.347,1.347,0,0,1,.008-.174c0-.021.008-.05.008-.08Zm45.887.682a1.034,1.034,0,0,1-.109.269c-.08.131-.16.247-.226.342l.153.1c.066-.093.145-.209.232-.348a1.1,1.1,0,0,0,.124-.312Zm-45.952.3c-.008.247-.014.494-.014.734h.18c0-.24.008-.479.015-.726Zm45.168.85a2.172,2.172,0,0,0-.443.609l.16.081a2.164,2.164,0,0,1,.406-.559ZM91.1,29.042h-.182c.008.247.023.494.037.734l.182-.015c-.015-.24-.029-.479-.037-.719m44.269.69a4.943,4.943,0,0,0-.145.719l.182.029a4.61,4.61,0,0,1,.138-.7ZM91.2,30.48l-.182.023c.021.24.05.486.087.719l.182-.023q-.055-.348-.087-.719m43.956.7-.015.24c-.006.145-.014.319-.029.479l.182.014c.015-.167.021-.341.029-.486l.015-.24ZM91.4,31.917l-.182.029c.044.24.087.479.131.712l.182-.03c-.05-.239-.095-.472-.131-.711m43.426.429a.694.694,0,0,0-.124.08,1.36,1.36,0,0,0-.392.487l.16.087a1.164,1.164,0,0,1,.356-.435.511.511,0,0,1,.087-.058Zm-43.143.987-.174.037c.058.246.116.479.182.711l.174-.05c-.066-.226-.124-.458-.182-.7m42.345.261c-.058.2-.116.421-.189.711l.182.044c.066-.284.124-.508.182-.7ZM92.059,34.727l-.174.052c.073.24.145.472.225.7l.168-.058c-.073-.225-.145-.45-.218-.69m41.626.291c-.051.211-.109.464-.167.7l.174.044c.066-.24.116-.494.167-.712Zm-.632.841a1.552,1.552,0,0,0-.305-.072l-.2-.021-.008.18a1.526,1.526,0,0,1,.4.073,1.141,1.141,0,0,1,.269.095l.015-.037.058-.124c-.073-.037-.153-.066-.226-.095M131.8,35.9a2.243,2.243,0,0,0-.638.385l.116.139a2.149,2.149,0,0,1,.588-.356Zm-39.273.2-.175.066q.132.348.262.676l.167-.066c-.087-.218-.174-.443-.254-.676m38.133.748a3.162,3.162,0,0,0-.2.371,2.55,2.55,0,0,0-.1.313l.174.05a1.964,1.964,0,0,1,.283-.639Zm-37.6.6-.168.073c.1.232.2.458.305.661l.16-.073c-.095-.211-.2-.428-.3-.661m37.146.806-.035.233c-.023.13-.052.3-.081.486l.175.029c.035-.188.064-.356.087-.486l.035-.233Zm-36.529.5-.16.087c.116.232.233.45.342.638l.16-.087c-.11-.188-.218-.406-.342-.638m36.268.922c0,.008,0,.008-.008.014-.021.087-.035.16-.058.226a1.855,1.855,0,0,1-.159.414l.145.1a1.628,1.628,0,0,0,.153-.357c.021-.064.043-.138.066-.217.014-.044.021-.087.035-.139Zm-35.433.566c-.037-.066-.087-.138-.131-.218l-.159.087c.05.087.095.16.138.226a2.865,2.865,0,0,0,.29.385l.139-.124a2.385,2.385,0,0,1-.276-.356m34.678.559L129,40.97c-.1.087-.218.2-.349.313l.124.131c.124-.117.24-.218.349-.313l.188-.174Zm-33.88.276-.116.145a5.977,5.977,0,0,0,.618.406l.093-.159a4.294,4.294,0,0,1-.6-.392m1.234.726-.079.159c.211.1.443.2.675.291l.066-.175c-.232-.087-.458-.182-.661-.275m31.564-.037c-.168.153-.356.312-.545.479l.116.138c.2-.167.377-.327.552-.479Zm-29.568.777-.653-.218-.058.174c.24.081.458.153.653.211.015.008.021.008.037.015l.05-.174Zm28.465.167c-.182.153-.371.305-.56.465l.116.138c.189-.153.378-.312.56-.464Zm-27.4.247a1.418,1.418,0,0,0-.334-.167l-.066.167a1.3,1.3,0,0,1,.305.153,1.056,1.056,0,0,1,.247.225l.138-.109a1.146,1.146,0,0,0-.29-.269m26.279.668c-.2.145-.385.29-.58.435l.109.145c.2-.145.392-.29.581-.443Zm-26,.319a.713.713,0,0,1-.319.443l-.16.11.276.079.015-.058a.922.922,0,0,0,.362-.53Zm.545.675-.05.175.7.2.052-.174Zm24.283-.138c-.2.138-.4.276-.6.406l.1.153c.2-.13.407-.269.6-.406Zm-22.889.559-.058.168a6.289,6.289,0,0,1,.668.246l.079-.159a5.983,5.983,0,0,0-.69-.255m21.677.233c-.226.13-.429.246-.632.356l.087.159c.2-.109.414-.225.639-.363Zm-1.277.667a6.527,6.527,0,0,1-.668.255l.058.174a5.969,5.969,0,0,0,.682-.261Zm-19-.066a.654.654,0,0,0-.093-.145l-.139.116a1.51,1.51,0,0,1,.095.139.785.785,0,0,1,.079.341.892.892,0,0,1-.006.131l.174.029a.642.642,0,0,0,.014-.167.814.814,0,0,0-.124-.444m17.641.479a1.765,1.765,0,0,1-.334.029c-.051,0-.116-.006-.188-.006a1.6,1.6,0,0,0-.189-.015l-.008.182c.058,0,.124.008.2.015s.122.006.188.006a2.935,2.935,0,0,0,.356-.029Zm-2.178.029.029.182a5.442,5.442,0,0,1,.711-.043v-.182a5.811,5.811,0,0,0-.74.043m-.719.153a2.569,2.569,0,0,0-.675.327l.1.153a2.311,2.311,0,0,1,.624-.305Zm-11.97.5c-.218,0-.436,0-.647.006l.008.182c.211-.008.421-.008.639-.008h.087v-.18Zm-1.372.029c-.24.014-.487.021-.719.021v.182c.24,0,.486-.008.725-.023Zm-1.453.035h-.283l-.087-.116a1.784,1.784,0,0,1-.175.124l-.261.153.284.014h.021c.153.008.319.008.5.008h.008Zm3.637-.05-.006.182c.254.014.493.029.719.05l.021-.182c-.232-.021-.479-.035-.734-.05m1.46.145-.029.182a5.888,5.888,0,0,1,.7.16l.052-.174c-.218-.066-.458-.117-.719-.168m8.522.218V47.4l-.058-.072c-.058.043-.093.05-.246.05-.11,0-.247,0-.415.008l.008.182c.16-.008.305-.008.407-.008a.547.547,0,0,0,.3-.058.208.208,0,0,0,.052-.029Zm-1.444.008c-.255.014-.5.029-.734.05l.023.182c.225-.021.472-.037.719-.05Zm-1.459.145q-.382.055-.719.13l.043.175c.218-.044.458-.095.7-.131ZM110.172,48a2.085,2.085,0,0,0-.493-.371l-.088.16a1.866,1.866,0,0,1,.45.334,1.047,1.047,0,0,1,.081.095l.145-.11a1.387,1.387,0,0,0-.095-.109m2.286-.109a3.01,3.01,0,0,0-.667.333l.1.146a2.84,2.84,0,0,1,.632-.305Zm-1.27.675a2.391,2.391,0,0,1-.682.116l.008.182a2.8,2.8,0,0,0,.733-.124Z" transform="translate(6.76 0.212)" fill="#0c1d30"/>
        <path id="Trazado_881485" data-name="Trazado 881485" d="M135.346,7.1c-.024-.012-2.471-1.173-4.059-.26l-.182-.315c1.754-1.009,4.291.2,4.4.248Z" transform="translate(9.748 0.455)" fill="#0c1d30"/>
        <path id="Trazado_881486" data-name="Trazado 881486" d="M135.562,11.634c-.919-.343-3.487-1.072-4.321-.334L131,11.028c1.169-1.032,4.546.213,4.688.265Z" transform="translate(9.74 0.79)" fill="#0c1d30"/>
        <path id="Trazado_881487" data-name="Trazado 881487" d="M136.568,15.631c-.041-.018-4.119-1.729-5.67-.774l-.189-.309c1.708-1.054,5.827.676,6,.75Z" transform="translate(9.719 1.056)" fill="#0c1d30"/>
        <path id="Trazado_881488" data-name="Trazado 881488" d="M134.955,16.378a6.471,6.471,0,0,0-2.719-.338l-.115-.344a6.6,6.6,0,0,1,2.947.337Z" transform="translate(9.824 1.161)" fill="#0c1d30"/>
        <path id="Trazado_881489" data-name="Trazado 881489" d="M134.98,22.045c-.029-.024-2.958-2.311-5.009-1.868l-.076-.355c2.215-.476,5.184,1.839,5.309,1.938Z" transform="translate(9.658 1.469)" fill="#0c1d30"/>
        <path id="Trazado_881490" data-name="Trazado 881490" d="M135.5,19.749c-.342-.22-.692-.421-1.043-.619a10.482,10.482,0,0,0-1.079-.535,6.144,6.144,0,0,0-1.13-.391,3.548,3.548,0,0,0-1.193-.095,3.684,3.684,0,0,1,2.395.32,7.861,7.861,0,0,1,2.05,1.319" transform="translate(9.744 1.34)" fill="#0c1d30"/>
        <path id="Trazado_881491" data-name="Trazado 881491" d="M135.513,9.927c-.285-.176-.577-.339-.867-.5a8.629,8.629,0,0,0-.89-.437,5.145,5.145,0,0,0-.928-.326,3.035,3.035,0,0,0-.982-.09,2.981,2.981,0,0,1,1.982.249,6.189,6.189,0,0,1,1.685,1.1" transform="translate(9.803 0.631)" fill="#0c1d30"/>
        <path id="Trazado_881492" data-name="Trazado 881492" d="M132.568,31.273c-.026-.032-2.544-3.189-4.932-3.517l.026-.18c2.459.339,4.943,3.453,5.048,3.586Z" transform="translate(9.49 2.05)" fill="#0c1d30"/>
        <path id="Trazado_881493" data-name="Trazado 881493" d="M128.471,24.773a.229.229,0,0,1,.092-.047.234.234,0,0,1,.052,0,.627.627,0,0,1,.09,0c.057.006.113.008.167.018.111.016.217.039.323.064a5.716,5.716,0,0,1,.623.191,6.076,6.076,0,0,1,1.158.579,6.5,6.5,0,0,1,1.854,1.773,6.454,6.454,0,0,0-1.9-1.7,5.991,5.991,0,0,0-1.158-.529,5.294,5.294,0,0,0-.611-.164c-.1-.02-.206-.039-.31-.05-.051-.009-.1-.006-.153-.012-.032-.012-.136.027-.082-.018Z" transform="translate(9.552 1.838)" fill="#0c1d30"/>
        <path id="Trazado_881494" data-name="Trazado 881494" d="M129.04,24.168c-.011-.071.041.028.073.041.041.031.076.066.121.095.084.061.172.117.263.171a5.451,5.451,0,0,0,.563.289,6.042,6.042,0,0,0,1.213.387,6.463,6.463,0,0,0,2.545.021,6.51,6.51,0,0,1-2.562.068,6.181,6.181,0,0,1-1.248-.35,5.656,5.656,0,0,1-.59-.277c-.1-.053-.19-.107-.281-.17-.047-.028-.09-.066-.136-.1a.683.683,0,0,1-.068-.06.4.4,0,0,1-.035-.037.229.229,0,0,1-.038-.1Z" transform="translate(9.581 1.795)" fill="#0c1d30"/>
        <path id="Trazado_881495" data-name="Trazado 881495" d="M131.051,34.931a10.14,10.14,0,0,0-5.306-4.208l.05-.174a10.324,10.324,0,0,1,5.413,4.292Z" transform="translate(9.349 2.271)" fill="#0c1d30"/>
        <path id="Trazado_881496" data-name="Trazado 881496" d="M128.182,38.278l-.111-.019.056-.055-.07.029c-.017-.033-2.384-3.387-5.547-3.787l.023-.179c3.177.4,5.668,3.758,5.7,3.915Z" transform="translate(9.109 2.548)" fill="#0c1d30"/>
        <path id="Trazado_881497" data-name="Trazado 881497" d="M115.278,45.333l-.182-.005c0-.039.11-3.849-1.3-6.124l.154-.1c1.436,2.322,1.326,6.186,1.325,6.225" transform="translate(8.461 2.908)" fill="#0c1d30"/>
        <path id="Trazado_881498" data-name="Trazado 881498" d="M108.485,46.319l-.085-.16.043.08-.044-.08c.015-.008,1.49-.887,2.025-6.779l.182.017c-.548,6.027-2.056,6.889-2.121,6.922" transform="translate(8.06 2.928)" fill="#0c1d30"/>
        <path id="Trazado_881499" data-name="Trazado 881499" d="M111.493,45.915l-.18-.018a23.237,23.237,0,0,0-.633-6.527l.177-.039a23.372,23.372,0,0,1,.636,6.584" transform="translate(8.229 2.924)" fill="#0c1d30"/>
        <path id="Trazado_881500" data-name="Trazado 881500" d="M101.921,43.571l-.1-.149c.031-.021,3.2-2.255,4.2-4.7l.168.069c-1.013,2.491-4.229,4.754-4.261,4.777" transform="translate(7.57 2.879)" fill="#0c1d30"/>
        <path id="Trazado_881501" data-name="Trazado 881501" d="M101.052,45.141l-.1-.155c.044-.027,4.4-2.742,5.759-5.711l.165.075c-1.386,3.02-5.784,5.763-5.828,5.791" transform="translate(7.506 2.92)" fill="#0c1d30"/>
        <path id="Trazado_881502" data-name="Trazado 881502" d="M98.622,41.15l-.043-.176a7.058,7.058,0,0,0,4.716-3.627l.168.071a7.248,7.248,0,0,1-4.841,3.732" transform="translate(7.33 2.777)" fill="#0c1d30"/>
        <path id="Trazado_881503" data-name="Trazado 881503" d="M117.436,1.092c-.008.015-.131.2-.356.516-.284.385-.74.972-1.364,1.684A32.32,32.32,0,0,1,91.629,14.014h-.5c-13.429,0-22.772-7.7-26.373-11.26-.559-.544-.972-.994-1.248-1.306-.008,0-.008-.008-.008-.014-.247-.269-.377-.421-.385-.436L63.128.99,63.68.547c.015.015.16.2.443.5,2.149,2.382,12.16,12.436,27.5,12.24A31.339,31.339,0,0,0,116.464,1.229c.225-.319.348-.508.356-.522l.6.377Z" transform="translate(4.693 0.041)" fill="#0c1d30"/>
        <path id="Trazado_881504" data-name="Trazado 881504" d="M90.8,18.71A41.308,41.308,0,0,1,67.171,11.3l.415-.6a40.754,40.754,0,0,0,23.737,7.282c10.038-.124,16.856-3.6,20.806-6.493l.43.587c-4.037,2.957-11,6.508-21.226,6.633-.179,0-.358,0-.535,0" transform="translate(4.994 0.796)" fill="#0c1d30"/>
        <path id="Trazado_881505" data-name="Trazado 881505" d="M114.851,5.291c-.073.064-.145.138-.218.2-.275.261-.566.516-.856.769l.116.138c.211-.174.414-.356.61-.537.159-.145.319-.3.472-.443Zm-49.023.522c-.146-.109-.284-.218-.421-.327l-.116.138c.211.168.428.342.653.5.167.13.334.254.508.377l.109-.145c-.254-.182-.493-.363-.733-.545m1.923,1.372-.1.153c.4.269.806.53,1.219.792l.095-.16c-.407-.254-.821-.516-1.213-.784m44.9-.008c-.371.284-.763.574-1.161.857l.1.145c.407-.284.8-.574,1.176-.864ZM70.213,8.717l-.087.153c.414.247.849.479,1.27.7l.087-.159c-.428-.226-.849-.458-1.27-.7m40.065.116q-.6.382-1.241.74l.095.16c.42-.24.841-.493,1.248-.748Zm-37.5,1.234-.08.159c.435.211.878.421,1.321.61l.072-.16c-.443-.2-.885-.4-1.314-.609m34.991.2c-.428.211-.864.421-1.306.624l.072.168c.45-.2.886-.414,1.315-.632Zm-32.34.973-.066.167c.45.182.907.356,1.357.516l.066-.168c-.458-.167-.908-.333-1.357-.515m29.7.225c-.443.182-.9.356-1.357.516l.066.174c.457-.167.914-.342,1.357-.522Zm-26.976.755-.058.174c.458.145.929.29,1.393.421l.052-.174c-.465-.131-.929-.276-1.387-.421m24.247.218c-.458.145-.922.275-1.387.406l.044.174c.472-.13.936-.261,1.4-.406Zm-21.459.573-.044.175c.458.109.937.217,1.416.319l.037-.182c-.472-.095-.951-.2-1.408-.313m18.664.175c-.464.109-.943.211-1.415.3l.029.174c.479-.087.958-.189,1.422-.29Zm-15.833.406-.029.182c.479.08.966.153,1.437.218l.029-.182q-.719-.1-1.437-.218m12.987.124c-.472.072-.957.138-1.436.189l.021.18c.479-.058.966-.116,1.437-.188Zm-10.112.254-.021.182c.493.052.98.087,1.451.116l.015-.182c-.473-.029-.958-.064-1.445-.116m7.23.066c-.472.037-.958.066-1.445.087l.008.182c.494-.021.98-.05,1.451-.087Zm-3.289.124c-.348,0-.7,0-1.053-.008l-.008.182c.357.008.7.008,1.06.008h.4v-.182Z" transform="translate(4.855 0.393)" fill="#0c1d30"/>
        <path id="Trazado_881506" data-name="Trazado 881506" d="M113.386,9.19c-.139.117-.284.226-.429.342l-.218.174.11.131.008.008c.225-.175.435-.342.646-.516ZM67.063,9.169c-.138-.095-.276-.2-.414-.3l-.1.153c.2.145.414.3.624.443.189.131.378.262.566.385l.1-.145c-.261-.174-.523-.356-.777-.537m2,1.321-.095.153c.4.247.821.5,1.249.748l.087-.16c-.421-.247-.842-.493-1.242-.74m42.519.073c-.4.269-.806.544-1.212.8l.1.153c.407-.255.813-.531,1.213-.806ZM71.571,11.928l-.079.16c.428.225.864.449,1.292.66l.08-.167c-.429-.2-.864-.429-1.292-.653m37.553.174c-.406.232-.835.465-1.27.69l.08.16c.436-.226.871-.458,1.285-.69ZM74.177,13.191l-.073.167c.458.2.908.392,1.343.559l.066-.167c-.428-.174-.878-.363-1.335-.559m32.37.225c-.429.2-.879.392-1.329.574l.066.167c.458-.182.908-.377,1.335-.574Zm-29.677.85-.066.174c.464.167.929.327,1.379.472l.058-.174c-.45-.145-.915-.305-1.372-.472m26.991.24c-.45.159-.915.319-1.373.457l.058.175c.458-.146.923-.3,1.379-.458Zm-24.233.653-.05.174c.458.124.929.254,1.408.371l.044-.182c-.473-.116-.944-.24-1.4-.363m21.474.211c-.465.124-.937.24-1.408.341l.044.182c.472-.109.943-.225,1.407-.348Zm-18.665.472-.035.182c.479.095.958.189,1.43.269l.029-.182c-.465-.08-.944-.167-1.424-.269m15.84.167c-.479.087-.958.168-1.43.233l.029.182c.465-.066.951-.153,1.43-.24Zm-12.979.32-.029.182c.472.058.958.116,1.444.167l.023-.182c-.494-.05-.973-.1-1.437-.167m10.112.1c-.486.052-.965.1-1.444.139l.014.182c.479-.037.966-.088,1.453-.139Zm-7.23.182-.014.182c.486.029.972.05,1.451.066l.008-.182c-.479-.015-.966-.037-1.445-.066m4.341.037c-.435.021-.879.029-1.306.037h-.139v.182h.139c.435-.008.878-.015,1.314-.037Z" transform="translate(4.948 0.66)" fill="#0c1d30"/>
        <path id="Trazado_881507" data-name="Trazado 881507" d="M102.914,57.394l.058,22.083A10.955,10.955,0,0,0,113.92,90.395h.029l8.689-.021a11,11,0,0,0,10.911-10.8l.29-22.177Zm29.909,22.163a10.27,10.27,0,0,1-10.192,10.09l-8.682.023h-.029A10.212,10.212,0,0,1,103.7,79.477l-.044-16.008v-.182l-.014-5.169h29.466l-.066,5.169-.008.182Z" transform="translate(7.652 4.267)" fill="#0c1d30"/>
        <path id="Trazado_881508" data-name="Trazado 881508" d="M103.292,64.063h1.451v-.182h-1.451Zm2.9,0h1.451v-.182H106.2Zm2.9,0h1.451v-.182H109.1Zm2.9,0h1.451v-.182H112Zm2.9,0h1.451v-.182h-1.451Zm2.9,0h1.451v-.182h-1.451Zm2.9,0h1.451v-.182h-1.451Zm2.9,0h1.451v-.182h-1.451Zm2.9,0h1.451v-.182h-1.451Zm2.9,0h1.451v-.182h-1.451Zm2.9,0h.987v-.182h-.987Z" transform="translate(7.68 4.75)" fill="#0c1d30"/>
        <path id="Trazado_881509" data-name="Trazado 881509" d="M92.248,180.114a2.96,2.96,0,1,1-2.96-2.96,2.96,2.96,0,0,1,2.96,2.96" transform="translate(6.419 13.172)" fill="#0c1d30"/>
        <path id="Trazado_881510" data-name="Trazado 881510" d="M92.248,151.773a2.96,2.96,0,1,1-2.96-2.96,2.96,2.96,0,0,1,2.96,2.96" transform="translate(6.419 11.065)" fill="#0c1d30"/>
        <path id="Trazado_881511" data-name="Trazado 881511" d="M92.248,123.433a2.96,2.96,0,1,1-2.96-2.96,2.96,2.96,0,0,1,2.96,2.96" transform="translate(6.419 8.957)" fill="#0c1d30"/>
        <path id="Trazado_881512" data-name="Trazado 881512" d="M92.248,95.093a2.96,2.96,0,1,1-2.96-2.96,2.96,2.96,0,0,1,2.96,2.96" transform="translate(6.419 6.85)" fill="#0c1d30"/>
        <path id="Trazado_881513" data-name="Trazado 881513" d="M92.248,66.753a2.96,2.96,0,1,1-2.96-2.96,2.96,2.96,0,0,1,2.96,2.96" transform="translate(6.419 4.743)" fill="#0c1d30"/>
        <path id="Trazado_881514" data-name="Trazado 881514" d="M92.248,38.412a2.96,2.96,0,1,1-2.96-2.96,2.96,2.96,0,0,1,2.96,2.96" transform="translate(6.419 2.636)" fill="#0c1d30"/>
        <line id="Línea_4789" data-name="Línea 4789" x1="1.144" y2="9.018" transform="translate(41.589 38.176)" fill="none" stroke="#0c1d2f" stroke-linecap="round" stroke-miterlimit="10" stroke-width="0.587"/>
        <path id="Trazado_881515" data-name="Trazado 881515" d="M134.055,3.046s34.13-8.672,44.716,26.937c1.076,3.621.911,5.048,1.128,7.9,0,0-34.382.934-40.848,9.332" transform="translate(9.967 0.157)" fill="none" stroke="#0c1d2f" stroke-miterlimit="10" stroke-width="0.587"/>
        <path id="Trazado_881516" data-name="Trazado 881516" d="M140.174,51.27c.853.3,17.92-8.125,37.914-8.681a1.925,1.925,0,0,0,1.884-2.073l-.42-5.109s-29.68-.312-40.848,9.331Z" transform="translate(10.313 2.633)" fill="none" stroke="#0c1d2f" stroke-miterlimit="10" stroke-width="0.587"/>
        <path id="Trazado_881517" data-name="Trazado 881517" d="M170.708,28.88a7.593,7.593,0,0,1,1.175,7.154" transform="translate(12.693 2.147)" fill="none" stroke="#0c1d2f" stroke-linecap="round" stroke-miterlimit="10" stroke-width="0.587"/>
        <path id="Trazado_881518" data-name="Trazado 881518" d="M165.511,36.084a10.678,10.678,0,0,0,.588-5.6" transform="translate(12.306 2.267)" fill="none" stroke="#0c1d2f" stroke-linecap="round" stroke-miterlimit="10" stroke-width="0.587"/>
        <path id="Trazado_881519" data-name="Trazado 881519" d="M159.432,37.018s-1.589-4.088-.055-7.1" transform="translate(11.8 2.225)" fill="none" stroke="#0c1d2f" stroke-linecap="round" stroke-miterlimit="10" stroke-width="0.587"/>
        <path id="Trazado_881520" data-name="Trazado 881520" d="M152.169,38.285a6.289,6.289,0,0,0-.882-6.221" transform="translate(11.249 2.384)" fill="none" stroke="#0c1d2f" stroke-linecap="round" stroke-miterlimit="10" stroke-width="0.587"/>
        <path id="Trazado_881521" data-name="Trazado 881521" d="M143.9,41.267s3.233-3.732.882-7.465" transform="translate(10.699 2.513)" fill="none" stroke="#0c1d2f" stroke-linecap="round" stroke-miterlimit="10" stroke-width="0.587"/>
        <line id="Línea_4790" data-name="Línea 4790" x2="1.144" y2="9.018" transform="translate(147.873 38.353)" fill="none" stroke="#0c1d2f" stroke-linecap="round" stroke-miterlimit="10" stroke-width="0.587"/>
        <path id="Trazado_881522" data-name="Trazado 881522" d="M93.393,206.405l.726,0V182.632C95.47,40.3,95.389,40.066,95.368,39.988l-.385.129-.327.015c.072,1.393-1.256,141.085-1.263,142.5Z" transform="translate(6.944 2.973)" fill="#0c1d30"/>
        <path id="Trazado_881523" data-name="Trazado 881523" d="M8.982,191.5l-.025-.016.392-3.707.029-.28,1.5-14.021c.087-.625,8.712-62.583,16.225-85.643,4.3-13.189,7.375-18.6,9.213-21.837,1.445-2.543,2.236-3.944,2.344-6.717.058-.427.524-4.033.871-9.129l-.761.14c-.349,5.207-.814,8.809-.829,8.925-.109,2.636-.827,3.9-2.257,6.429-1.851,3.262-4.951,8.714-9.271,21.975-2.86,8.763-5.872,23.131-8.515,37.62-.058.266-.1.532-.153.8-4.261,23.447-7.534,46.959-7.586,47.353l-1.9,17.747c.237.121.476.242.722.364" transform="translate(0.614 3.728)" fill="#0c1d30"/>
        <path id="Trazado_881524" data-name="Trazado 881524" d="M142.755,66.294c1.837,3.274,4.908,8.747,9.205,22.076,7.52,23.3,16.138,85.923,16.225,86.54l1.5,14.171.037.283.392,3.746c-.241.153-.644.422-1.147.769.638-.24,1.263-.476,1.881-.711L168.9,174.823c-.05-.385-3.318-24.145-7.578-47.847l-.153-.806c-2.643-14.642-5.663-29.161-8.523-38.025-4.32-13.394-7.412-18.911-9.263-22.2-1.43-2.556-2.149-3.833-2.265-6.534-.013-.11-.5-3.883-.847-9.317l-.774-.315c.35,5.408.844,9.262.9,9.7.116,2.838.907,4.254,2.352,6.817" transform="translate(10.372 3.701)" fill="#0c1d30"/>
        <path id="Trazado_881525" data-name="Trazado 881525" d="M8.259,182.869s10.442,9.367,38.828,9.013a235.044,235.044,0,0,1,42.512,3.6,69.437,69.437,0,0,0,21.815.376c13.632-1.939,35.025-4.927,40.7-5.4,8.515-.71,18.243.05,27.749-7.249" transform="translate(0.614 13.597)" fill="none" stroke="#0c1d2f" stroke-miterlimit="10" stroke-width="0.75"/>
        <path id="Trazado_881526" data-name="Trazado 881526" d="M8.259,177.192a10.387,10.387,0,0,0,.849.652" transform="translate(0.614 13.175)" fill="none" stroke="#0c1d2f" stroke-miterlimit="10" stroke-width="0.3"/>
        <path id="Trazado_881527" data-name="Trazado 881527" d="M10.724,178.882c4.65,2.7,15.782,7.467,36.18,7.212a235.054,235.054,0,0,1,42.512,3.6,69.431,69.431,0,0,0,21.814.377c13.632-1.94,35.026-4.928,40.7-5.4,7.992-.666,17.051-.037,26-5.992" transform="translate(0.797 13.286)" fill="none" stroke="#0c1d2f" stroke-miterlimit="10" stroke-width="0.3" stroke-dasharray="1.991 1.991"/>
        <path id="Trazado_881528" data-name="Trazado 881528" d="M167.186,178.154q.434-.309.865-.641" transform="translate(12.431 13.199)" fill="none" stroke="#0c1d2f" stroke-miterlimit="10" stroke-width="0.3"/>
      </g>
    </g>
  </g>
</svg>
